<?xml version="1.0" standalone="no"?>
<!DOCTYPE svg PUBLIC "-//W3C//DTD SVG 20010904//EN"
 "http://www.w3.org/TR/2001/REC-SVG-20010904/DTD/svg10.dtd">
<svg version="1.0" xmlns="http://www.w3.org/2000/svg"
 width="700.000000pt" height="700.000000pt" viewBox="0 0 700.000000 700.000000"
 preserveAspectRatio="xMidYMid meet">
<metadata>
Created by potrace 1.14, written by Peter Selinger 2001-2017
</metadata>
<g transform="translate(0.000000,700.000000) scale(0.100000,-0.100000)"
fill="#000000" stroke="none">
<path d="M0 3500 l0 -3500 3500 0 3500 0 0 3500 0 3500 -3500 0 -3500 0 0
-3500z m6710 0 l0 -3210 -3210 0 -3210 0 0 3210 0 3210 3210 0 3210 0 0 -3210z"/>
<path d="M1257 6253 c-10 -9 -9 -251 1 -257 5 -3 159 -19 343 -37 184 -17 335
-32 336 -33 1 -1 5 -113 9 -249 4 -136 8 -247 9 -247 1 0 315 181 696 403 382
222 703 409 714 415 15 9 -237 11 -1041 12 -583 0 -1064 -3 -1067 -7z"/>
<path d="M2729 5837 c-400 -233 -738 -431 -752 -440 l-26 -17 6 -1222 c4
-1100 -7 -2932 -19 -2943 -2 -3 -153 -19 -334 -36 -181 -16 -335 -32 -342 -34
-10 -4 -12 -35 -10 -132 l3 -128 600 0 600 0 260 160 260 161 -2 34 c-1 19 -5
545 -9 1168 l-7 1132 264 0 c287 0 431 -10 609 -41 503 -88 801 -357 895 -807
17 -85 38 -346 29 -374 -3 -10 -1 -18 3 -18 5 0 51 26 103 58 52 32 263 160
467 286 l373 227 -26 52 c-114 226 -322 418 -598 552 -241 117 -541 201 -891
250 l-49 7 149 38 c810 203 1216 613 1215 1223 -1 524 -287 915 -813 1111
-281 105 -626 156 -1047 156 l-185 -1 -726 -422z m882 123 c513 -52 804 -299
885 -750 21 -116 24 -389 5 -504 -28 -176 -79 -318 -154 -433 -93 -144 -196
-233 -362 -313 -205 -100 -364 -129 -754 -137 l-274 -6 7 1034 c3 569 9 1053
12 1077 l6 42 263 0 c145 0 309 -5 366 -10z"/>
<path d="M5225 2540 l-469 -289 -17 -118 c-75 -517 -398 -832 -952 -928 -113
-20 -370 -34 -616 -35 l-184 0 -216 -131 c-119 -73 -223 -139 -231 -147 -13
-12 61 -14 615 -9 347 4 686 11 755 17 903 76 1497 377 1755 890 123 245 163
548 109 833 -21 109 -53 207 -67 206 -7 0 -223 -131 -482 -289z"/>
</g>
</svg>
