<svg xmlns="http://www.w3.org/2000/svg" width="367.537" height="100.77" viewBox="0 0 367.537 100.77">
  <path id="パス_319" data-name="パス 319" d="M53.062-37.363a7.331,7.331,0,0,0-1.363.17c-3.977.852-8.124,3.011-12.441,6.42a99.405,99.405,0,0,0-8.692,8.237C24.032-15.264,20.226-10.549,19.146-8.447a39.927,39.927,0,0,1-3.181,5.4C11.932,2.745,9.943,6.1,9.943,7.176V7.4H10l2.556-3.011Q11.364,7.46,11.364,7.63v.057c.057,0,1.079-1.534,3.011-4.431q.341,0,.341.17V3.54l-2.5,4.431v.057h.057c.284-.341.454-.454.511-.454,2.1-2.84,4.2-5.908,6.249-9.26a5.6,5.6,0,0,1,2.556-2.159l-.17-.739.057-.4c.966-.341,1.477-.625,1.534-.8v-.852q0-.341,3.238-4.09v-.454a1.092,1.092,0,0,0-.227-.682,5,5,0,0,1,1.25-1.818c2.272-2.727,3.636-4.147,4.09-4.147A11.6,11.6,0,0,0,33.633-20.6l3.92-3.295h.057c-1.023,1.193-1.988,2.329-2.954,3.409a15.888,15.888,0,0,0-2.727,3.352A116.307,116.307,0,0,0,24.6-7.481c-1.079,1.875-1.932,3.352-2.67,4.431a14.528,14.528,0,0,1-3.465,4.6c-.568,0-1.477,1.591-2.84,4.772-1.136,1.42-1.7,2.329-1.7,2.784v.284a6.838,6.838,0,0,0,.227.966,3.225,3.225,0,0,1-.682,1.307l-.682-.511h-.057a1.847,1.847,0,0,0-.852,1.363,4.465,4.465,0,0,0,.511,1.136,4.28,4.28,0,0,1-.8,1.023,7.062,7.062,0,0,0,.341-1.307v-.057a.625.625,0,0,1-.341-.17,13.734,13.734,0,0,0-1.363,2.443l.284.17a3.557,3.557,0,0,0,.8-.227h.057c-.8,2.613-1.25,3.92-1.25,3.977a1.92,1.92,0,0,1-.568-.227c-.114.114-.17.114-.227.114-.284.625-1.363,3.409-3.295,8.351-1.534,5.4-2.272,8.578-2.272,9.6.057,1.079.057,2.1.057,3.011v2.1a8.475,8.475,0,0,0,.114,1.193,22.8,22.8,0,0,1,.966,2.613,4.8,4.8,0,0,1-1.591-.4c.625-.568.966-.909.966-.909V44.9a4.805,4.805,0,0,0-.739-.682c-.284-.057-.511-1.42-.625-4.09a22.7,22.7,0,0,1,.341-2.613c-.114-.625-.341-.966-.8-.966-.17,0-.284.8-.284,2.386v2.784a4.971,4.971,0,0,1-.17,1.363,11.046,11.046,0,0,1,.454,1.875v.568c0,.341-.057.568-.227.568l-.341-.909c-.227-3.238-.568-4.829-.852-4.829h-.4v-.17l.17-.17a2.511,2.511,0,0,0,.625-1.818,5.008,5.008,0,0,0-.909-2.443l1.307-1.363v-.057a.457.457,0,0,0-.341-.511v-.114A4.686,4.686,0,0,0,2.5,30.922c0-.568-.511-.966-1.477-1.136L5.8,16.1a.056.056,0,0,1-.057-.057l-.227.114a22.7,22.7,0,0,0-2.727,6.363C.57,28.423-.51,33.308-.51,37.228a32.974,32.974,0,0,0,1.647,9.828A11.735,11.735,0,0,0,5.91,53.59a22.471,22.471,0,0,0,10.907,2.67c3.522,0,7.442-1.307,11.873-3.806a13.446,13.446,0,0,0,4.147-2.84l2.329-1.307c4.488-3.977,7.158-6.931,8.01-8.919.284-.17.511-1.591.625-4.147a39.189,39.189,0,0,0,1.7-6.76.429.429,0,0,0-.057-.227,3.019,3.019,0,0,0-1.363,1.591,30.645,30.645,0,0,1-3.238,7.84c-2.67,3.579-4.6,5.567-5.738,5.965v-.057l.4-.568c2.443-2.386,3.693-3.806,3.693-4.261,1.534-1.988,2.272-3.409,2.272-4.147V34.5h-.057a10.571,10.571,0,0,0-1.591,2.443c0,.4-1.42,2.1-4.374,5.283A38.76,38.76,0,0,0,30.906,46.6c-2.159.852-3.465,1.591-4.034,2.329a4.8,4.8,0,0,1-2.5.852,22.148,22.148,0,0,1-8.862,2.272,14.013,14.013,0,0,1-3.863-.625c-3.125-1.42-4.658-4.261-4.658-8.578V41.83a5.3,5.3,0,0,1,.057-1.25Q8.409,25.668,23.464.813A174.417,174.417,0,0,1,37.1-18.729c7.385-8.862,12.839-13.407,16.361-13.691h.568a1.656,1.656,0,0,1,.909.284c1.42.852,2.159,2.954,2.159,6.192,0,5.454-1.647,12.9-4.886,22.269C49.085,3.938,46.642,7.744,44.938,7.744q-.852,0-1.363-1.875a1.046,1.046,0,0,0-.739-.909V4.619h-.114a9.761,9.761,0,0,0-.454,2.5,3.777,3.777,0,0,0,.17,1.193c.682,2.159,1.932,3.181,3.749,3.181,1.761,0,3.465-.966,5.17-2.954a48.016,48.016,0,0,0,4.147-7.1C59.652-8.276,61.7-17.025,61.7-24.751a19.583,19.583,0,0,0-1.363-8.124c-2.159-2.954-4.488-4.488-6.988-4.488ZM39.768-25.944a.151.151,0,0,1,.17-.17v.057a.151.151,0,0,1-.17.17Zm-1.534,1.477Q39-25.49,39.257-25.49v.17a1.885,1.885,0,0,1-.909.852Zm19.031,8.181c.057,0,.114.057.114.17v.227a2.579,2.579,0,0,1-.227,1.023H57.1a.721.721,0,0,0-.057-.341A4.971,4.971,0,0,1,57.266-16.287ZM14.943.472V.359l1.307-1.875c0-.568.4-1.079,1.136-1.591h.17v.057a5.528,5.528,0,0,1-1.534,2.1c-.227.8-.568,1.307-1.023,1.42ZM16.533.188c0-.057.17-.17.568-.4v.4L16.76.3H16.7ZM13.92,1.495c.114-.114.17-.227.227-.227h.17l.057.4a1.178,1.178,0,0,0-.341.114H13.92Zm2.1,0h.057v.17h-.057ZM12.784,3.37a.6.6,0,0,1,.454-.568H13.3v.341a.508.508,0,0,1-.454.568h-.057Zm4.2,1.932h.284v.17c0,.114-.057.114-.17.114h-.114ZM9.716,7.744c-.057,0-.227.17-.454.454C6.989,12.4,5.8,14.732,5.8,15.186l.17.057a.987.987,0,0,0,.625-.341c.625-1.818,1.023-2.727,1.307-2.727a20.9,20.9,0,0,0,1.932-4.2C9.83,7.858,9.773,7.744,9.716,7.744ZM11.7,9.107c-.341,0-.511.114-.568.227v.057l.17.511h.17c.284,0,.4-.057.454-.17V9.619A.694.694,0,0,0,11.7,9.107Zm-.511,1.25a.512.512,0,0,0-.284.057c-.625.4-1.875,2.5-3.749,6.42a1.221,1.221,0,0,0-.568,1.079C5.569,20.185,5,21.435,5,21.492a1.21,1.21,0,0,0-.682.966l.057.114a6.866,6.866,0,0,0-.909,2.159A7.181,7.181,0,0,1,2.9,27.116v.227a3.632,3.632,0,0,0,.114.8v.114a4.543,4.543,0,0,0-.852.227v.114c0,.568.17.8.568.8h.057c.568-.17.8-.739.8-1.647v-.057l1.079-.341a9.776,9.776,0,0,0-.511-1.591l.114-.341a22.847,22.847,0,0,0,1.761-4.2A42.012,42.012,0,0,0,7.9,16.947,11.74,11.74,0,0,0,8.921,15.3a3.94,3.94,0,0,1,1.363-2.784,3.8,3.8,0,0,1,.909-1.932ZM8.125,12.63a.6.6,0,0,0-.284.511v.114a.429.429,0,0,1,.227.057.972.972,0,0,0,.341-.511q0-.085-.17-.17Zm1.988,3.352V16.1a.151.151,0,0,0,.17.17v-.284Zm-.852,1.647c-.454,0-.739.511-.909,1.591v.114H8.58a2.028,2.028,0,0,0,.909-1.477v-.114c0-.057-.057-.114-.17-.114ZM8.182,20.413a.706.706,0,0,0-.341.454l.057.511h.057c.114,0,.227-.284.284-.909v-.057ZM6.307,24.219a.6.6,0,0,0-.284.511l.227.284c.17-.057.284-.227.284-.511Zm-.341,1.363c-.511,0-.8.4-.8,1.25,0,.057.114.17.341.227l.454-.227-.284-.341a.546.546,0,0,0,.511-.341A2.788,2.788,0,0,0,5.967,25.582ZM5,28.025c-.284.114-.454.227-.454.284v.454l.057.17a2.434,2.434,0,0,1,.568-.17v-.17A1.1,1.1,0,0,0,5,28.025Zm-.625,2.159a4.811,4.811,0,0,0-.739.682v.568c-.341.966-.568,1.477-.568,1.591.114,0,.17.057.17.114.4-.227.625-.4.625-.511A2.788,2.788,0,0,0,3.808,32c.511-.568.8-.966.8-1.25C4.6,30.411,4.546,30.241,4.376,30.184Zm38.4.966a5.311,5.311,0,0,0-1.193,2.556l.114.114c.4,0,.8-.909,1.25-2.67ZM.626,32a.453.453,0,0,1,.4-.511v.227a3.733,3.733,0,0,1-.17.739H.74Zm2.386,2.954c-.114,0-.227.227-.284.568v.17c0,.057.057.114.17.114l.4-.057A1.692,1.692,0,0,0,3.012,34.956Zm-1.647.8c-.114,0-.114.057-.17.114v.17c.114.114.17.227.227.227s.114-.057.227-.17c-.057-.227-.114-.341-.227-.341Zm40.278,3.806.341-.057c.625-1.136,1.079-1.761,1.307-1.818,0,.852-.625,1.875-1.932,3.068-.4,1.023-1.875,2.727-4.488,5.113-1.136,1.25-1.818,1.875-1.988,1.875h-.17a8.332,8.332,0,0,1,.8-.8c.568-1.023.909-1.591,1.193-1.7a5.516,5.516,0,0,0,2.5-2.5,2.771,2.771,0,0,0,1.023-.909A3.516,3.516,0,0,0,41.586,39.5C41.643,39.5,41.643,39.5,41.643,39.558Zm-5.908,5.681a.429.429,0,0,1,.227.057v.284h-.17a.122.122,0,0,1-.114-.114v-.114Zm-3.068.284a.512.512,0,0,0,.284-.057v.114h-.284ZM3.751,46.886c.17.057.284.17.284.227V47.4H3.921c-.057,0-.17-.17-.284-.341C3.694,47.056,3.751,47,3.751,46.886Zm.511.8c.057,0,.17-.057.4-.227.568.739,1.023,1.307,1.363,1.761A5.49,5.49,0,0,1,7.1,50.749v.114c-.17-.057-.227-.114-.284-.114Q4.262,48.789,4.262,47.681Zm64.013.8q4.005,0,9.544-4.09a40.6,40.6,0,0,0,6.306-5.624c5.4-6.079,8.067-11.192,8.067-15.282.625-.227,1.761-.511,3.352-.909,4.431-1.307,6.647-2.045,6.647-2.329q0-.085-.341-.17a1.8,1.8,0,0,1-1.307.511,12.019,12.019,0,0,1-2.67.739,1.07,1.07,0,0,1-.454-.114q1.108-.6,5.283-2.216a4.107,4.107,0,0,0,2.1-.625q2.045-.426,2.045-.682l-.682-.057-.114.284a.907.907,0,0,1-.454-.17,4.089,4.089,0,0,1-1.477.454,1.833,1.833,0,0,1-1.023.341l-.17-.114a7.863,7.863,0,0,1-1.761.4,3.91,3.91,0,0,1-.739-.114c-.057,0-.114,0-.114.114,0,.454-.682.8-2.045.966a10.162,10.162,0,0,1-2.727.625,2,2,0,0,1-.8-.17l.057-.17a.966.966,0,0,0,.568-.341l-.057-.057c-.682.057-1.932.227-3.749.568l-.4-.8a18.522,18.522,0,0,0-3.636-4.772c-2.216-1.988-3.977-3.068-5.227-3.352l.114-.227q1.534-1.278,1.534-2.045a3.009,3.009,0,0,0-.625-1.534,4.2,4.2,0,0,0-3.011-1.193h-.4c-1.932,0-4.2,1.25-6.931,3.749a45.923,45.923,0,0,0-5,6.192c-3.465,5.4-5.227,9.146-5.227,11.248a.785.785,0,0,0,.284.511,2.147,2.147,0,0,1-.625,1.818l-.114-1.363H62.2l-.057.4a32.851,32.851,0,0,0-1.875,9.374q0,5.454,3.409,8.01A6.328,6.328,0,0,0,68.276,48.477Zm-1.534-27.61-.227-.057v-.341c0-.057.341-.682.966-1.818a21.451,21.451,0,0,1,3.693-5.567c1.079-1.534,1.932-2.5,2.67-2.727a1.652,1.652,0,0,0-.284.568c-.511.511-2.386,3.068-5.624,7.556A10.943,10.943,0,0,1,66.742,20.867Zm13.35-8.351h-.114v-.17h.057Zm2.67,8.749a6.519,6.519,0,0,1-3.636-.909c-1.023-.227-1.534-1.136-1.534-2.784,0-1.193.227-1.761.625-1.761a.36.36,0,0,1,.284.341h.114v-.227a2.766,2.766,0,0,1,.057-.682c-.057,0-.17.057-.341.227-.057,0-.114-.057-.17-.227.4-1.079.739-1.591,1.136-1.591l.057.4h.057a1.692,1.692,0,0,1,.8-.284c1.079,0,2.556.966,4.488,2.9,1.818,2.1,2.784,3.465,2.84,4.2A33.387,33.387,0,0,1,82.762,21.265Zm-3.693-1.25a10.6,10.6,0,0,1-.511-3.465h-.114a4.457,4.457,0,0,0-.114,1.25,4.521,4.521,0,0,0,.114,1.477c.227,0,.454.227.511.739ZM107.7,17.4c.625-.057.966-.227.966-.568,0-.057-.17-.17-.454-.227-.341,0-.511.284-.568.739Zm-.739-.057c.057,0,.114-.057.114-.17s-.057-.114-.114-.17c-.057,0-.114.057-.114.17S106.906,17.345,106.963,17.345Zm.454.341a.344.344,0,0,0,.341-.17l-.625-.17a.122.122,0,0,0-.114.114C107.077,17.629,107.19,17.686,107.418,17.686ZM97.7,19.276l.114-.057a.122.122,0,0,0-.114-.114h-.227C97.533,19.22,97.59,19.276,97.7,19.276Zm-.852.284.17-.057V19.39l-.114-.17c-.17.057-.227.114-.227.284Zm-28.4,24.655-1.7-.114A17.4,17.4,0,0,1,66,40.012a19.7,19.7,0,0,1,1.534-6.76,87.516,87.516,0,0,1,3.522-8.919,36.134,36.134,0,0,1,2.9-5,7.766,7.766,0,0,0,.568,1.534c1.363,2.727,4.2,4.09,8.578,4.09a21.071,21.071,0,0,0,4.2-.4,17.047,17.047,0,0,1-3.352,7.158A35.072,35.072,0,0,0,81.4,35.3a.056.056,0,0,1,.057.057l.511-.17A14.53,14.53,0,0,1,83.5,33.82c.4.057.568.17.568.341q.426,0,.682-.682c2.954-5.17,4.374-8.181,4.374-9.146,0-.114.4-.227,1.079-.341h.057v.341a31.663,31.663,0,0,1-2.272,6.135c-.8,1.023-1.42,1.932-1.988,2.727-.625.568-.909,1.023-.909,1.477-.4.114-.568.227-.568.341l.4.227V35.3a.227.227,0,0,0-.114.227l-.17-.057c-.17,0-.227,0-.227.057-.568,0-.909.511-1.079,1.591l-.682-.057a12.049,12.049,0,0,0-.8,1.193c-.454.227-.625.4-.625.625l.341.511a2.218,2.218,0,0,0-.8-.114c-1.307.682-1.988,1.25-1.988,1.7l.17.739a1.459,1.459,0,0,0-.739-.511c-.114,0-.227.341-.4,1.079-.227-.17-.341-.284-.4-.284H76.74c1.363-1.534,2.1-2.386,2.159-2.5.625-.454.909-.8.909-1.193-.17,0-.454.17-.852.568-2.67,2.5-4.6,3.749-5.681,3.749A18.467,18.467,0,0,1,68.446,44.216ZM95.885,19.674v-.057l-.227-.057a.056.056,0,0,1-.057.057C95.6,19.674,95.715,19.674,95.885,19.674Zm6.7.4.4-.057c0-.057,0-.114-.114-.17l-.341.114ZM89.068,20.7h-.057l.057-.17Zm2.784.114q.085-.17.17-.17Q91.937,20.81,91.852,20.81Zm-23.69,3.92v-.739c0-.057.114-.114.4-.284C68.56,24.389,68.389,24.73,68.162,24.73Zm-2.329,4.545h-.114a4.088,4.088,0,0,0,.454-1.534H66.8l-.057.4C66.628,28.877,66.344,29.275,65.833,29.275Zm-2.159,6.533a.878.878,0,0,0-.17-.341,10.335,10.335,0,0,1,.625-2.386c.284-1.42.511-2.159.739-2.159A5.723,5.723,0,0,1,64.981,32a.439.439,0,0,0-.4.454c0,.057.057.227.114.625l-.227.8C64.469,34.956,64.185,35.581,63.674,35.808Zm1.534-2.1.057-.568c.17.17.284.227.341.227v.114Zm.114,1.42a1.375,1.375,0,0,1-.739-.227,3.325,3.325,0,0,0,.739-.8Zm14.487,3.125a2.015,2.015,0,0,0,.909-.341c1.647-1.363,2.5-2.556,2.5-3.579H83.16l-.8.966a1.146,1.146,0,0,1-1.136.966,2.248,2.248,0,0,1-.4-.284,7.788,7.788,0,0,0-1.079,1.534ZM64.981,35.865V35.41h.057l.057.284C65.094,35.808,65.037,35.865,64.981,35.865ZM63.9,41.148a2.789,2.789,0,0,1-.17-.682c.17-1.363.284-2.216.284-2.443.227-.8.4-1.307.4-1.42l-.057-.341a2.373,2.373,0,0,1,.511-.17,9.679,9.679,0,0,1-.17,2.1C64.526,40.182,64.3,41.148,63.9,41.148Zm-1.079,2.045a4.334,4.334,0,0,1-.852-3.011,17.092,17.092,0,0,1,.454-3.465c.625,0,.909.284.909.8s-.17,2.159-.511,4.829c.057.4.114.625.227.625C62.992,43.08,62.879,43.193,62.822,43.193Zm15.623-1.023c-.17-.057-.227-.114-.227-.227l.341.057a.209.209,0,0,1,.17-.057v.114C78.615,42.057,78.558,42.114,78.445,42.171Zm-1.818,1.25v-.17c0-.284.17-.4.568-.4A.51.51,0,0,1,76.627,43.421Zm-11.93.454h-.227l.057-.852h.17ZM122.177,6.21a1.063,1.063,0,0,0-.8.284,4.689,4.689,0,0,0-1.875,1.591c-.454.909-1.193,2.613-2.216,5q-2.727,6.988-2.727,7.84a8.486,8.486,0,0,0-.739,1.761,1.405,1.405,0,0,0,.4.852v.057q-1.193,0-2.9,5.454A114.815,114.815,0,0,0,107.8,43.591c0,1.193.739,2.216,2.216,3.181,1.193,1.079,2.1,1.591,2.84,1.591q1.79,0,4.431-2.727a63.906,63.906,0,0,0,5.283-7.1c4.431-7.385,7.9-12.839,10.4-16.3a4.954,4.954,0,0,0,1.477-1.7c1.363-1.7,2.159-2.556,2.5-2.556q.852,0,.852,4.772V24.56c0,4.09.114,6.476.4,7.272a12.906,12.906,0,0,0,1.534,4.431c2.386,3.125,4.829,4.658,7.328,4.658a7.955,7.955,0,0,0,3.352-.8q2.045-.767,5.965-4.431a34.793,34.793,0,0,0,4.261-4.318V31.32q-.085-.17-.17-.17h-.057s-.114.114-.341.4a25.923,25.923,0,0,1-4.658,4.034,4.559,4.559,0,0,1-1.477,1.023h-.057c-.057,0-.057,0-.114-.114a19.775,19.775,0,0,0,1.477-1.42c1.25-1.023,1.818-1.647,1.818-1.875v-.057l-.568.284-.341-.057v-.057s.17-.227.454-.568c2.1-2.045,3.181-3.181,3.181-3.409v-.114a1.95,1.95,0,0,0-.682.454c-2.5,2.556-4.2,3.863-5.113,3.863a.947.947,0,0,1-.625-.227h-.17a3.836,3.836,0,0,0-.454.909h-.057c-.057-.17-.114-.284-.17-.284h-.057c-.17.568-.284.852-.454.852l-.625-.114c0,.057-.057.057-.17.057-2.9,1.761-4.715,2.67-5.34,2.67h-.227c-1.023,0-1.761-1.534-2.216-4.658a119.11,119.11,0,0,0-.454-12.782c-.739-4.545-2.329-6.817-4.942-6.817a6.459,6.459,0,0,0-4.034,1.875,34.885,34.885,0,0,0-4.431,5.227,91.533,91.533,0,0,0-5.4,8.237l.057.114a.807.807,0,0,0,.341-.114,21.077,21.077,0,0,0,2.159-2.613A8.538,8.538,0,0,0,126.835,27a4.305,4.305,0,0,1-1.477,2.272,28.067,28.067,0,0,0-1.363,2.84,5.017,5.017,0,0,0-.966.909c0,.454-.454,1.023-1.363,1.534h-.057a25.872,25.872,0,0,0,1.136-3.181h-.057a23.377,23.377,0,0,0-1.647,1.875c-1.988,3.522-3.352,5.851-4.147,7.044a9.417,9.417,0,0,1-3.125,3.465,22.129,22.129,0,0,1,.682-4.034,89.438,89.438,0,0,1,4.488-13.294c1.534-4.431,2.613-7.328,3.181-8.635,2.045-4.545,3.125-7.556,3.125-9.09-.4-.682-.625-1.023-.625-1.079-.682-.625-1.079-.966-1.079-1.079Q123.54,6.21,122.177,6.21Zm-.511,4.431a.579.579,0,0,1,.284-.454h.284c.284,0,.4.057.454.17l-.17.284-.114-.057c-.284,0-.454.057-.454.17l-.284-.057Zm-2.5,4.6a3.006,3.006,0,0,1,.8-1.761h.057l.057.454c-.341,1.079-.625,1.591-.852,1.591A2.46,2.46,0,0,0,119.166,15.243Zm-.966.4a8.459,8.459,0,0,1,.966.057h.057v.17a.814.814,0,0,0-.4-.114,2.128,2.128,0,0,0-.454.057.209.209,0,0,0-.17-.057Zm.454.909h.114v.114a.878.878,0,0,0-.17.341h-.114V16.89A.491.491,0,0,0,118.655,16.55Zm-.057,1.079a3.114,3.114,0,0,1,.568-.909h.057l-.511,1.023H118.6Zm-2.045-.682c0-.057.057-.057.114-.114V17c0,.114,0,.114-.114.114Zm1.363,1.307c.17,0,.4.17.568.511-.17.17-.227.284-.284.284h-.114l-.341-.284A.916.916,0,0,1,117.916,18.254Zm-.227.739c.057,0,.17.114.284.341v.057a.122.122,0,0,1-.114.114h-.284A1.659,1.659,0,0,0,117.689,18.992Zm.852,23.406a11.709,11.709,0,0,1,1.818-3.181c1.42-1.818,2.159-3.068,2.159-3.693a8.77,8.77,0,0,1,1.079-2.329c.625-.966,2.1-3.409,4.545-7.215a51.9,51.9,0,0,1,2.84-4.431c.852-1.591,1.647-2.329,2.272-2.329.227.057.284.227.284.454h-.114a6.324,6.324,0,0,0-.454,1.363c-.909,1.136-1.647,2.272-2.386,3.295-3.636,6.135-6.42,10.567-8.351,13.35a50.1,50.1,0,0,1-3.693,4.772Zm-2.727-22.326a.84.84,0,0,1,.511-.739,2.234,2.234,0,0,0,.114.341c-.17.341-.341.511-.4.511C116.041,20.129,115.928,20.129,115.814,20.072Zm1.477.511q.341.256.341.341v.057a3.188,3.188,0,0,1-.341,1.25h-.057V22l.057-.4c-.17-.17-.284-.284-.341-.284A4.585,4.585,0,0,0,117.291,20.583Zm11.532,2.67a2.235,2.235,0,0,1,.341.114,4.535,4.535,0,0,1-.284.909l-.341-.17c-.114.17-.17.284-.284.284H128.2A4.253,4.253,0,0,1,128.824,23.253Zm-1.477,2.272c.341-.4.511-.568.568-.568v.284a4.2,4.2,0,0,1-.114.682C127.517,25.7,127.347,25.582,127.347,25.526Zm-10.339-.4h.057v.341h-.057Zm.227,1.591a.881.881,0,0,1,.4-.625h.057v.341a.982.982,0,0,1-.341.682c-.057,0-.114,0-.114-.114Zm44.709.114c-.4.057-.568.227-.568.454a1.27,1.27,0,0,0,.17.568,1.6,1.6,0,0,1-.454-.057.878.878,0,0,0-.341.17h-.4v.057l.4.511v.057c-.057,0-.114.057-.227.114.057.17.114.284.17.284s.17-.227.341-.568c.966-.341,1.42-.682,1.42-1.136v-.227C162.455,27,162.285,26.889,161.944,26.832Zm-45.732.625h.057l.057.284v.114c-.057-.057-.114-.057-.227-.057A.417.417,0,0,0,116.212,27.457ZM115.246,32a15.51,15.51,0,0,0,1.023-2.784,1.75,1.75,0,0,1,.8-1.363v.17a55.92,55.92,0,0,0-2.613,7.953,17.145,17.145,0,0,0-1.193,5c0,.454-.4.852-1.136,1.136,0-.17,0-.284.114-.284a31.053,31.053,0,0,1,.909-3.977,2.01,2.01,0,0,1,.739-1.193,39.212,39.212,0,0,1,1.136-4.09v-.057h-.057c-.511,1.307-1.079,2.84-1.7,4.658a1.083,1.083,0,0,1-.4-.682v-.114a4.74,4.74,0,0,1,.568-1.136,22.916,22.916,0,0,1,1.307-3.579l-.057-.284c.454-1.477.852-2.159,1.136-2.159h.057A10.335,10.335,0,0,0,115.132,32Zm.739-3.693h.057c.057,0,.114.114.17.4A.38.38,0,0,1,115.985,28.309Zm-2.443.739a.825.825,0,0,1,.341.057c0,.057,0,.114-.114.114h-.057Q113.542,29.133,113.542,29.048Zm43.971.341-.114.057.114.17.227-.057v-.114C157.683,29.445,157.569,29.389,157.513,29.389ZM114,30.3a.122.122,0,0,1,.114.114v.057H114Zm42.38.17c-.17.114-.227.114-.284.114V30.7l.17.057.114-.17Zm-.909.909c-.341,0-.739.341-1.307,1.079.227,0,.682-.341,1.307-.966Zm-41.755.341h.057v.057a1.022,1.022,0,0,1-.4.852A2.605,2.605,0,0,1,113.712,31.718Zm44.993,0a.506.506,0,0,0-.454.284c-.511.4-.8.682-.8.8l.057.114a3.235,3.235,0,0,0,1.193-1.079ZM153.82,32.8q-.17.085-.17.17v.17c0,.057.057.057.114.057h.057c.114,0,.17-.057.227-.284,0-.114,0-.114-.114-.114Zm-40.733.454h.057l.114.057c-.454,2.045-.8,3.181-1.079,3.409V36.49a2.792,2.792,0,0,1,.4-1.307A15.523,15.523,0,0,1,113.087,33.252ZM198.007-44.01a7.07,7.07,0,0,0-4.942,1.818c-.852.511-2.159,3.409-3.92,8.635-1.988,6.59-3.579,11.476-4.658,14.6-.284.057-1.932.284-5.056.682-8.294,1.079-14.146,2.159-17.5,3.181a21.868,21.868,0,0,0-4.886,1.818,1.638,1.638,0,0,0-.682,1.079,5.038,5.038,0,0,0-.625,1.079v1.7l.114.17.4-.057h.114l.114.057c0,.227-.057.568-.114,1.079.227.454.454.739.8.739.227,0,.739-.4,1.591-1.136q0-.426,3.409-1.193c.284,0,.682.057,1.079.057.454-.057.739-.114.739-.17a14.21,14.21,0,0,0,2.443-.511,5,5,0,0,0,1.023.114.176.176,0,0,0,.114-.057A1.373,1.373,0,0,1,168.636-11c.114,0,.511,0,1.193.057a7.136,7.136,0,0,0,1.193-.511A29.568,29.568,0,0,0,175.4-12.2q2.556-.17,2.556-.852c-.114-.057-.284-.17-.4-.227a3.962,3.962,0,0,0-.909.454.367.367,0,0,1-.284-.114,11.586,11.586,0,0,0-3.011.511h-.17a5.908,5.908,0,0,1-.852-.114,4.873,4.873,0,0,0-1.932.682,6.141,6.141,0,0,0-2.727.511,12.074,12.074,0,0,0-1.591-.341c-.17.114-.284.17-.284.227a25.543,25.543,0,0,0-3.409.966,2.878,2.878,0,0,1-.739-.114.249.249,0,0,0-.17.057,4.4,4.4,0,0,0-1.363.625,5.022,5.022,0,0,0-1.875.4c-.227-.114-.4-.284-.4-.4,0-.17.341-.454,1.023-.739a3.067,3.067,0,0,0,.909-.454c.057,0,.114.057.17.057a.807.807,0,0,0,.341-.114,1.229,1.229,0,0,1,1.079-.682c.057,0,.17.114.284.341h.341c.057-.4.114-.568.284-.568h.057c.057.341.17.511.227.511h.341a4.2,4.2,0,0,1,1.136-.341,1.573,1.573,0,0,0,.511.057h.17c.17,0,.227,0,.284-.057a2.084,2.084,0,0,0,1.193-.682h.057a1.27,1.27,0,0,1,.568.17c1.079-.114,1.647-.284,1.647-.511.17,0,.4.057.682.057a1.135,1.135,0,0,0,.454-.17.588.588,0,0,0,.227.057,6.663,6.663,0,0,1,1.7-.284c.057,0,.227-.114.511-.4a1.134,1.134,0,0,0,.454.17c.511,0,.739-.227.739-.682,0-.114-.057-.114-.114-.114h-.057l-.284.227h-.114c-.057,0-.17-.17-.341-.454a1.575,1.575,0,0,0,.682-.284q1.023-.085,1.023-.341h.17a2.187,2.187,0,0,1,.625.511.151.151,0,0,0,.17-.17c0-.114.227-.227.682-.4,0-.057-.114-.17-.4-.284.057,0,.17-.057.454-.114.511.17.8.284.852.284l.966-.284c.284.057.4.17.4.341h.114q.17-.085.17-.17a1.481,1.481,0,0,1,.625.17,1.538,1.538,0,0,0,.454-.17v-.17l-.227-.057v-.114l.4-.057h.8a5.041,5.041,0,0,0,1.363-.341h.057a.81.81,0,0,1,.682.341c.341-.057.568-.114.625-.114a1.6,1.6,0,0,1,.454.057q0,.17-.511.341a2.128,2.128,0,0,1-.454-.057l-.284.284h-.17Q180-15.236,180-14.98v.057c0,.057,0,.114.114.114h.341c.341,0,1.193-.17,2.613-.4h.17a50.564,50.564,0,0,1-1.988,5.681c-1.988,6.533-3.806,12.328-5.454,17.441-1.307,5.113-2.386,8.862-3.181,11.192a60.306,60.306,0,0,1-1.647,6.7,71.828,71.828,0,0,0-1.932,13.35v1.477a11.335,11.335,0,0,0,.682,4.034c1.079,2.556,2.9,3.863,5.454,3.863h.739a12.924,12.924,0,0,0,3.011-.454,25.32,25.32,0,0,0,9.828-5.567,6.283,6.283,0,0,0,1.647-2.329l-.057-.114a.44.44,0,0,1-.17.057c-1.079,1.193-1.761,1.761-2.1,1.761h-.057c0-.057.057-.227.114-.454a10.4,10.4,0,0,0,2.1-1.932c.909-1.023,2.1-2.443,3.579-4.318.568-.852,1.023-1.307,1.307-1.307.114-.454.227-.739.341-.739a6.153,6.153,0,0,0,1.534-2.045,9.882,9.882,0,0,0,2.216-3.806c.511-1.363.8-2.1.8-2.216a.122.122,0,0,0-.114-.114c-.341,0-.682.4-1.136,1.193-.4.625-1.647,2.5-3.749,5.681h-.057a1.957,1.957,0,0,0-.511.057h-.057c.4-.511.568-.8.568-.966-.114,0-.284-.114-.4-.4q.682-.256.682-.341v-.057c-.114,0-.284-.114-.568-.341-.057,0-.284.17-.625.568v.284c0,.057.057.17.284.341v.057c0,.057-.17.114-.4.114a2.778,2.778,0,0,1-.511.852v.057a.417.417,0,0,0,.114.341l-.057.284c0,.057-.625.682-1.818,1.875a19.239,19.239,0,0,1-1.818,1.988,10.991,10.991,0,0,1-3.977,3.579c-.057,0-.114-.057-.17-.227a.643.643,0,0,0-.568.511c-2.556,2.613-4.658,3.863-6.306,3.863a3.322,3.322,0,0,1-1.079-.227c-1.079-.625-1.591-1.988-1.591-4.09V39.1a36.905,36.905,0,0,1,.682-5.795c0-1.534.227-2.556.739-3.068,2.443-4.374,4.829-9.374,7.272-14.941,3.011-6.7,4.545-10.169,4.545-10.4q1.449-3.409,2.386-6.135a76.747,76.747,0,0,0,3.068-8.124c.568-1.25,1.136-3.068,1.875-5.34,0,0,.057,0,.17.114h.227a.343.343,0,0,0,.341-.17v-.114l-.17-.227c-.284,0-.454.114-.454.341h-.057v-.057l.454-1.079c.454,0,.682.057.682.114a3.29,3.29,0,0,1,1.761.341v.057l-.4.057h-.8l-.114.057c.114.284.227.454.284.454h.057a4.731,4.731,0,0,1,.8-.227.613.613,0,0,1,.4.114l-.227.227v.114l.284.057a6.762,6.762,0,0,1,.966-.17l.284.057h.625a3.733,3.733,0,0,0,.739-.17c1.136.17,2.556.284,4.318.4a2.427,2.427,0,0,1,1.079.511c.057,0,.227-.114.511-.227a1.576,1.576,0,0,0,.739.341h.057a1.308,1.308,0,0,0,.511-.17c2.386.341,4.318.682,5.795.966.511,0,.739-.057.8-.114l1.988.511h.4c1.193-.227,1.818-.8,1.818-1.647v-.4c0-1.534-1.023-2.954-2.954-4.261-1.477-.966-5.4-1.477-11.7-1.477h-2.329c-1.477,0-3.125.057-5.056.17C199.825-24.3,200.9-27.933,201.7-31a61.32,61.32,0,0,0,1.534-9.317v-.4a2.175,2.175,0,0,0-.284-1.079,3.006,3.006,0,0,1-.739.341h-.057c-.227,0-.341-.341-.341-.909a.729.729,0,0,0-.739-.8l-.114.057a.249.249,0,0,1-.17-.057,3.435,3.435,0,0,0-.454-.739h-.057c-.057,0-.114.114-.227.284l-.114-.057a2.629,2.629,0,0,0-1.591-.341Zm-1.079,23.917a56.384,56.384,0,0,0,1.7-5.738q1.278-3.068,2.727-11.76c.17-1.534.454-2.272.739-2.272h.114l.057.682v.511a35.8,35.8,0,0,1-1.193,7.385c0,.909-1.023,4.6-3.011,11.135a8.483,8.483,0,0,1-1.079.057Zm-4.715.4c.341-.966.568-1.477.568-1.477a82.684,82.684,0,0,1,4.033-10.737,11.45,11.45,0,0,1,1.988-3.977h.057v.284a5.771,5.771,0,0,1-.4,1.42,6.962,6.962,0,0,1-.4,1.818c0,.057.057.114.057.17l-.17.852c-.511,1.932-.8,3.011-.8,3.181v.284l.057.114c.227-.17.341-.341.341-.454h.057c.057,0,.114,0,.114.114v.739a1.184,1.184,0,0,1-.4.852c-.284,1.25-.454,1.875-.625,1.875l.057.284a3.512,3.512,0,0,1-.227.909h-.057q-.17,0-.17-.341v-.17c.17,0,.284-.057.284-.114V-24.3a.807.807,0,0,0-.114-.341,2.03,2.03,0,0,0,.511-1.477.122.122,0,0,0-.114-.114c-.17,0-.284.341-.4.966a4.242,4.242,0,0,0-.511,1.875,3.494,3.494,0,0,1,.057.739v.739c-.057.341-.114.568-.227.568h-.057v-.114h-.114V-21l-.114-.057c-.057,0-.114,0-.114.114a1.989,1.989,0,0,1,.114.568v.057l-.057.284a11.65,11.65,0,0,1-3.181.341Zm7.272-11.135h.057v.114a7.883,7.883,0,0,1-.511,2.329c-.057,0-.114-.057-.17-.227l.227-.852A7.006,7.006,0,0,0,199.484-30.83Zm-1.193,4.488c.17-.966.341-1.42.511-1.42,0,.511-.114.8-.227.8-.114.568-.17.8-.284.8Zm-.17.341h.114v.341a.343.343,0,0,1-.17.341V-25.6Zm-1.136,1.363c0-.057,0-.114.114-.114v.17h-.114Zm-.852,1.761a.122.122,0,0,1,.114-.114l.057.284-.057.114a.122.122,0,0,1-.114-.114Zm.852.966a1.307,1.307,0,0,1,.454-1.023v.284a1.433,1.433,0,0,0-.341.966h-.114Zm-.284.966h.057v.227H196.7Zm-.227.568h.057v.284h-.057Zm1.761,1.023a5,5,0,0,1,1.193.341v.227l-.284.057h-.511l-.341.284h-.17l-.114-.057A4.542,4.542,0,0,0,198.234-19.354Zm-1.591.057s.227,0,.739.057a1.28,1.28,0,0,0,.4-.057,4.544,4.544,0,0,0-.227.852h-.284a1.9,1.9,0,0,0-.739-.4A1.07,1.07,0,0,0,196.643-19.3Zm-1.988.966c0-.568.17-.852.454-.852h.057a3.928,3.928,0,0,1-.114.852l-.114-.057h-.17Zm-2.727-.568a19.579,19.579,0,0,1,2.67-.227h.057a1.516,1.516,0,0,0-.454.966h-.511a3.13,3.13,0,0,0-1.193.284c-.17,0-.454-.057-.852-.057A5.923,5.923,0,0,1,191.928-18.9Zm8.806.341a.209.209,0,0,1,.057-.17,5.937,5.937,0,0,1,1.647-.341,2.305,2.305,0,0,1,.966.284v.057a3.522,3.522,0,0,0-.625.17h-.114l-1.477-.227c-.057,0-.114.057-.114.227ZM171.42-15.321c.057-.284.4-.454,1.023-.454.966-.341,1.477-.568,1.534-.568,1.363,0,2.1-.114,2.1-.284l1.818-.454a7.9,7.9,0,0,0,2.1-.454,9.121,9.121,0,0,0,3.295-.511,3.059,3.059,0,0,1,.454.057l.4-.057h.057l-.4.966-.682-.057a1.851,1.851,0,0,0-.739.227c-.852.114-2.5.341-4.886.739h-1.023c-.17.114-.227.17-.227.227a9.565,9.565,0,0,0-2.045.341l-.341-.057h-.17a5.34,5.34,0,0,1-2.159.341Zm30.052-1.193a.579.579,0,0,1,.284-.454h.057a.431.431,0,0,0,.114.227c-.114.227-.227.284-.284.284h-.17Zm-17.043.057h.114c.114,0,.114.057.114.114l-.114.17c-.057,0-.057,0-.114-.114Zm11.362.341c.17.17.284.227.341.227l.284-.057a.342.342,0,0,1,.227.057,11.981,11.981,0,0,1-.966,2.84,81.093,81.093,0,0,1-2.9,8.01c-2.329,6.306-3.749,9.828-4.318,10.51a34.577,34.577,0,0,1-1.591,4.034c-.852,1.647-1.647,3.352-2.386,5.056a15.255,15.255,0,0,0-1.7,3.011c-.682,1.534-1.193,2.386-1.477,2.5a.056.056,0,0,0-.057-.057,5.5,5.5,0,0,1,.739-1.363,22.011,22.011,0,0,1,1.42-3.238c1.023-2.556,1.647-3.977,1.875-4.374a11.742,11.742,0,0,1,1.591-3.465,17.252,17.252,0,0,1,1.42-3.636,35.774,35.774,0,0,1,1.42-3.465l1.193-3.181a7.632,7.632,0,0,0,1.023-2.954c.8-1.875,1.307-3.295,1.591-4.147a15.539,15.539,0,0,0,1.079-3.295A10.069,10.069,0,0,0,195.791-16.116Zm-4.715.341c1.193-.057,2.159-.114,3.011-.227h.114l-.057.114v.682c-.227,0-.341.114-.341.4h-.114c-.114,0-.114-.114-.114-.341h-.057c-.17.057-.227.17-.227.4v.284c.057.114.17.227.227.227a2.343,2.343,0,0,1-.341,1.079,2.2,2.2,0,0,1-.625,1.761,5.272,5.272,0,0,1-.8,2.045l-.227-.17h-.114v.057l.057.341c-.057.17-.17.284-.227.284a1.748,1.748,0,0,0,.227.511.755.755,0,0,1-.17.4l-.227-.114a.176.176,0,0,0-.114.057,6.425,6.425,0,0,0,.057.8,1.833,1.833,0,0,0-.341,1.023c-.227,0-.341,0-.341-.057,0,.114-.057.114-.114.114l.114.4v.739l-.057.4h-.114q-.17,0-.17-.341v-.17h-.17a3.124,3.124,0,0,0-.4,1.079.491.491,0,0,0,.17.341.807.807,0,0,1-.114.341l-.114-.057c-.114,0-.17.17-.284.454a1.6,1.6,0,0,0,.057.454c-.057.114-.057.17-.114.17-.114.739-.284,1.079-.4,1.079a.122.122,0,0,1-.114-.114l-.114.057.057.284v.341l-.227-.284c-.17,0-.511.852-1.023,2.613a7.894,7.894,0,0,0-.966,2.272l-.682,1.534c-1.363,2.954-2.272,4.942-2.613,5.965v.057l.057.4-.114-.057a.7.7,0,0,0-.17.114q-.256.682-.341.682a19.777,19.777,0,0,0-1.818,3.693h-.057c.284-1.079,1.534-4.886,3.693-11.476,2.329-7.442,4.374-13.748,6.079-18.8.17-.114.284-.227.284-.4a.122.122,0,0,0-.114-.114c.284-.852.454-1.307.454-1.363A.209.209,0,0,1,191.076-15.775Zm-22.1.568v-.057a7.005,7.005,0,0,1,1.363-.4h.114a.122.122,0,0,1,.114.114l-.057.114a5.284,5.284,0,0,0-1.193.341A.807.807,0,0,1,168.977-15.207Zm10.851-.454a.122.122,0,0,0-.114.114v.057a.209.209,0,0,1,.17.057c0-.057,0-.114.114-.114a.122.122,0,0,0-.114-.114Zm8.294.454q.085-.17.17-.17v.341Q188.122-15.122,188.122-15.207Zm-4.2.909c0-.114,0-.114.057-.114.057-.568.227-.852.454-.852v.114c.284.17.4.341.4.511A7.7,7.7,0,0,0,183.918-14.3Zm4.942-.568a.343.343,0,0,1,.17-.341h.114q.17.085.17.17v.17a.38.38,0,0,1-.227.4A.38.38,0,0,1,188.86-14.866Zm-9.828-.284a3.427,3.427,0,0,1-.739.454c0,.057.114.114.284.17.568-.17.852-.227.852-.284S179.316-14.98,179.032-15.15Zm-5.34.4c-.057,0-.114,0-.114.114l.057.114.341-.057v-.057a.122.122,0,0,0-.114-.114Zm4.034.114c-.341.114-.682.17-1.079.284v.114c.8-.057,1.136-.17,1.136-.284v-.114Zm14.827,0a.343.343,0,0,0-.341.17v.17h.284q.17-.085.17-.17v-.057A.122.122,0,0,0,192.553-14.639Zm-1.42.057-.227.057v.057c0,.057,0,.114.114.114h.114c.114,0,.114-.057.114-.114S191.246-14.582,191.133-14.582Zm-20.111.284c.284.057.625.17,1.023.284v.114a2.13,2.13,0,0,0-.966.284,1.936,1.936,0,0,0-.909-.227h-.057a.573.573,0,0,0-.625.511,1.532,1.532,0,0,1-.739-.4,1.588,1.588,0,0,1,.284-.454c.284.114.454.227.454.284a.9.9,0,0,1,.568-.284h.227l.284.17C170.852-14.128,171.022-14.185,171.022-14.3Zm15.85.227q0-.17.341-.17a.429.429,0,0,0,.057.227l-.227.114a.7.7,0,0,1-.17-.114Zm-12.044-.17a.056.056,0,0,0-.057.057c-.568.114-.852.227-.852.284v.114c0,.114,0,.114.114.114h.17l.511-.17c.114,0,.284.057.454.057l.17-.17C175.34-14.071,175.169-14.185,174.828-14.241Zm1.42.114v.057h.114v-.057Zm-14.2.454c0-.057.057-.114.227-.17.057,0,.114.114.17.227,0,.114-.057.114-.114.114h-.057Zm4.488-.17h.284v.114h-.17C166.591-13.73,166.534-13.73,166.534-13.844Zm20.792.4c0-.057.114-.17.4-.284q0,.6-.341.682l-.057-.284Zm-5.795-.284a3.2,3.2,0,0,0-.682.227c0,.227.057.284.114.284h.4c.454,0,.625-.057.625-.17C181.816-13.616,181.7-13.73,181.532-13.73Zm-1.023.057a1.575,1.575,0,0,0-.682.284c.114.227.227.341.4.341.057,0,.17-.114.4-.454C180.509-13.56,180.509-13.616,180.509-13.673ZM176.7,10.755a1.053,1.053,0,0,0,.966-.739,24.344,24.344,0,0,1,.852-2.386,7.732,7.732,0,0,1,.341-1.363c1.591-5.34,2.67-8.635,3.181-9.885l1.818-5.4a12.241,12.241,0,0,0,.682-2.045c.4-1.7.8-2.556,1.079-2.556.057,0,.057.114.057.341a18.442,18.442,0,0,0-.625,2.1,4.361,4.361,0,0,0-.739,2.216,18.567,18.567,0,0,0-.8,2.556,5.047,5.047,0,0,0-.568,1.477,4.265,4.265,0,0,0-.4,1.136c-.341,1.079-.682,2.386-1.136,3.977a5.761,5.761,0,0,0-.568,2.159c-1.534,4.2-2.329,6.59-2.329,7.272a2.3,2.3,0,0,0-.341.625l.057.341v.057a3.04,3.04,0,0,0-.625,1.591c-.284.966-.511,1.591-.568,1.932.057.284.114.454.227.454h.17c.057,0,.114-.114.17-.284,0-.17-.057-.341-.057-.511v-.057a.967.967,0,0,1,.454-.739c-.057-.227-.114-.4-.114-.454a9.244,9.244,0,0,0,.739-1.761c.114-.966.284-1.477.4-1.477a4.754,4.754,0,0,1,.511-1.591c.17-1.42.4-2.1.739-2.1l-.057-.682.568-.114-.17.227v.057a3.478,3.478,0,0,0,.284.341h.057a.907.907,0,0,0,.454-.17l-.057-.511a.409.409,0,0,1,.227-.4h.17c.057,0,.114.057.17.114h.227q.17-.085.17-.17c-.114-.17-.17-.227-.227-.227h-.511a2.559,2.559,0,0,0,.114-.8V3.2h-.227a1.2,1.2,0,0,1-.454.341V3.256a1.555,1.555,0,0,1,.227-.284c.227-.966.454-1.477.739-1.477a2.15,2.15,0,0,0-.057-.454,1.112,1.112,0,0,1,.625-.966,3.358,3.358,0,0,1,.454.284l-.227,1.136-.17-.114h-.17a.122.122,0,0,0-.114.114v.114c.17.17.227.227.227.284v.057a.344.344,0,0,1-.17.341l-.341-.057a.96.96,0,0,1-.284.114v.227a6.682,6.682,0,0,1,.852.625h.17c.114-.568.284-.852.4-.852h.284a.44.44,0,0,0,.057.17c-.114.511-.284,1.079-.511,1.818a10.9,10.9,0,0,1-.568,1.477h-.057c0-.17-.057-.227-.17-.227l.17-.227V5.244h-.4q0-.341-.17-.341h-.057q-.17.085-.17.17v.114a4.871,4.871,0,0,1,.17.966V6.21l-.511.341-.227.966c0,.114.114.227.341.284.114-.17.227-.284.284-.284,0,.057.057.114.057.17a2.85,2.85,0,0,1-.17.8,2.6,2.6,0,0,1-.341-.227h-.057a.491.491,0,0,0-.341.17c0,.17.057.284.114.284h.511c0,.057.057.17.057.227a5.361,5.361,0,0,1-.682,1.875,28.864,28.864,0,0,1-1.193,4.034v.114q.085.17.17.17h.057l.227-.17v.17a.344.344,0,0,1-.17.341c-.284,0-.454.17-.568.568-.284.966-.454,1.477-.568,1.477h-.057c-.057,0-.17-.17-.4-.511h-.057a1.241,1.241,0,0,1-.284.8c0,.057.057.114.057.17.511.114.739.227.739.341-.057.341-.114.568-.227.568h-.227c-.114,0-.114-.114-.17-.284h-.114a.97.97,0,0,1-.284.625v.114c.341.114.454.227.454.341a2.422,2.422,0,0,0-.454,1.193v.341h-.057c-.4-.17-.568-.341-.568-.625v-.057a5.781,5.781,0,0,1,.227-.909v-.284a.122.122,0,0,0-.114-.114h-.057l-.454.454a13.553,13.553,0,0,1-.568,1.42,4.541,4.541,0,0,0-.511,1.988c0,.966-.114,1.534-.4,1.761v.227l.625.454.17-.114h.114a1.727,1.727,0,0,1-.739.682l.057-.284L175.4,25.7c-.227,0-.454.568-.625,1.761a6.2,6.2,0,0,1-.739,3.125.755.755,0,0,0,.17.4h-.057c-.284,0-.4.227-.454.682a2.789,2.789,0,0,0,.17.682,2.026,2.026,0,0,0-.4.4,1.387,1.387,0,0,0,.057.4,12.779,12.779,0,0,1-.4,1.42v.057a1.338,1.338,0,0,0,.682,1.307.916.916,0,0,0-.341.739,1,1,0,0,0-.852,1.079l.057.114a2.412,2.412,0,0,0-.284.682v.057a2.007,2.007,0,0,0,.227.966c.284.17.4.284.4.341-.341,0-.511.568-.625,1.591a8.669,8.669,0,0,0,.057,1.023,6.276,6.276,0,0,0-.057.909.679.679,0,0,0,.227.454v.341h-.057c-.284-.17-.4-.511-.4-1.023v-.227c0-.057-.057-.114-.227-.17-.057,0-.17.17-.227.454q.17.767.17.852l-.227-.057c-.227,0-.454-1.136-.739-3.465a31.872,31.872,0,0,0,.341-3.352,11.131,11.131,0,0,0-.114-1.534,5.233,5.233,0,0,1,.284-1.136s0-.454-.057-1.363a1.279,1.279,0,0,1,.284-.852,5.133,5.133,0,0,0,.568-2.727.733.733,0,0,0-.284-.625h-.057c-.17,0-.511.909-.966,2.727h-.057c-.057,0-.114-.114-.17-.4.057-.454.114-.739.17-.739.227-1.761.4-2.67.568-2.67a12.166,12.166,0,0,1,.4-2.67,5.4,5.4,0,0,1,.511-1.875,8.833,8.833,0,0,1,.8-2.954,8.2,8.2,0,0,1,.227-1.307,7.339,7.339,0,0,0,.454-2.159,37.121,37.121,0,0,0,1.534-5.454,2.77,2.77,0,0,0,.454-1.363,2.605,2.605,0,0,0,.341-.909c.057-.284.625-2.1,1.761-5.454a7.962,7.962,0,0,1,.8-2.613A12.006,12.006,0,0,1,179.2-.664a15.578,15.578,0,0,0,.852-2.954,2.609,2.609,0,0,0,.739-1.932,11.915,11.915,0,0,0,.966-2.67,4.806,4.806,0,0,1,.852-2.443c.454-1.7.682-2.556.852-2.556h.341v.227a.755.755,0,0,0-.17.4v.511l-.4.454v.057l.284.284v.114h-.057l-.17-.114h-.057c-.057,0-.114,0-.114.114l.114.4a.533.533,0,0,1-.341.454,11.419,11.419,0,0,1-.341,1.534c-.227,0-.4.511-.454,1.534-.284.284-.454.454-.454.511s.057.114.057.227c-.227.8-.341,1.25-.341,1.25.17.17.227.284.284.284,0,.17-.114.4-.454.625a6.6,6.6,0,0,0-.852,2.727c0,.114.057.17.284.17a1.1,1.1,0,0,0-.454.909V.132c-.284,0-.568.511-.909,1.591v.17s.114.114.341.4v.17c-.284,0-.568.227-.8.682a3.756,3.756,0,0,1,.057.625,2.765,2.765,0,0,0-.625,1.079l.114.17v.114c-.17.227-.341.4-.454.4-.114.625-.227.909-.341.909a1.693,1.693,0,0,1-.284,1.136c-.17.8-.341,1.42-.454,1.932a.612.612,0,0,0,.114.454c0,.057-.17.17-.454.4C176.476,10.585,176.533,10.7,176.7,10.755Zm11.7-23.974a.478.478,0,0,1,.227-.4c.114,0,.114.057.114.114v.057c0,.284-.057.454-.227.511A.367.367,0,0,0,188.406-13.219Zm-27.837.114c0-.227.17-.4.454-.454h.568v.057c0,.114-.284.284-.8.454h-.114Zm5.17-.454h.114v.057h-.114Zm13.294.17-.454.454.057.114a5.617,5.617,0,0,0,.852-.057v-.057a1.052,1.052,0,0,0-.4-.454Zm-16.134.511c0-.227.568-.4,1.761-.4h.227c0,.057-.057.114-.284.17l-.511-.057a7.517,7.517,0,0,0-1.023.4.249.249,0,0,0-.17-.057Zm-1.647.17.739-.17c0,.057.057.057.227.057q0,.17-.341.17h-.625ZM157.9-11.344a2.345,2.345,0,0,0,.4-.625,9.1,9.1,0,0,1,2.5-.625h.17a.5.5,0,0,1-.511.454H160l-.454.4h-.568a3.736,3.736,0,0,1-1.023.511H157.9Zm29.087-.568h.057v.341c0,.057-.057.227-.114.511-.341-.114-.511-.17-.511-.227V-11.4l.057-.114C186.815-11.628,186.986-11.8,186.986-11.912Zm.8.284c.17.057.227.114.227.17l-.17.227q-.17-.085-.17-.17v-.057Zm-4.033.341h.114v.057h-.114Zm2.67.739c.057,0,.114,0,.114.057v.057C186.474-10.435,186.417-10.435,186.417-10.549Zm-.966,5.908c.114-.568.227-.852.284-.852a2.23,2.23,0,0,1,.625-1.875c.284-1.477.568-2.216.8-2.216h.057l.057.284a1.009,1.009,0,0,1-.227.568l-.852,2.9a2.432,2.432,0,0,0-.568,1.307A31.847,31.847,0,0,1,184.316-.1c-.057,0-.227-.17-.454-.454V-.664c.17,0,.4-.17.568-.511a8.464,8.464,0,0,1,1.079-3.238A.342.342,0,0,1,185.452-4.641Zm.454-4.431a.312.312,0,0,1,.227-.341c.057,0,.057.057.114.17l-.17.568h-.114l-.057-.284Zm5.624.17a.122.122,0,0,1,.114-.114h.057v.227c0,.057,0,.114-.114.114C191.587-8.788,191.587-8.844,191.53-8.9Zm-5.795.511c.057,0,.114.057.17.227,0,.114-.057.17-.114.17h-.17C185.622-8.049,185.679-8.163,185.736-8.39Zm5,1.023q-.17.085-.17.17c0,.114,0,.114.114.114q.085,0,.17-.17C190.849-7.367,190.792-7.367,190.735-7.367Zm-5.681.8c0-.114.114-.17.227-.227l.114.17v.057c0,.057-.057.114-.227.17A.7.7,0,0,1,185.054-6.572Zm5.113.682a.122.122,0,0,0-.114.114v.227h.17v-.227Zm-7.1,2.67h.284a.209.209,0,0,0,.057.17l-.284,1.136h-.057Zm5.795.625v.17h.114V-2.6Zm-.227.511v.057h.114v-.057Zm-5.34.909c.227-.511.4-.8.511-.8a.209.209,0,0,0,.057.17.7.7,0,0,0-.114.17v.682a.546.546,0,0,1-.4.511l-.227-.227h-.341l-.114.057a.807.807,0,0,0-.114-.341c.114-.227.227-.284.284-.284h.057Zm-.739,1.42v.17l.114-.057A.122.122,0,0,0,182.554.245Zm1.136.114h.284a.122.122,0,0,1,.114.114V.586a6.645,6.645,0,0,1-.568,1.534h-.057a.36.36,0,0,1-.284-.341A3.881,3.881,0,0,0,183.691.359Zm-4.488,1.7c-.057,0-.114,0-.114.114v.057h.17v-.17Zm1.647,2.045c0-.057,0-.114.057-.114v.17h-.057Zm-1.932,0h.057v.114h-.057Zm3.238,2.045c.114-.17.17-.227.227-.227v.057l-.114.341c-.057,0-.114,0-.114-.057Zm-1.647.966a.4.4,0,0,0-.227.284c0,.057.057.114.227.17.17-.057.284-.114.284-.17v-.17a.122.122,0,0,0-.114-.114ZM180,8.71v.114c0,.057,0,.114.114.114a.114.114,0,0,0,0-.227Zm.852.454c-.17.057-.284.114-.284.227v.17c0,.057,0,.057.114.057h.17q.17-.085.17-.17V9.335Q181.021,9.25,180.85,9.164Zm-1.307.852v.057h.114v-.057Zm-.114.682c-.057,0-.114.114-.227.341V11.1h.057l.284-.057v-.057l-.057-.284Zm.511.17a.122.122,0,0,0-.114.114v.284c0,.057.114.17.284.227.114,0,.17-.114.227-.284a.122.122,0,0,0-.114-.114l.114-.17v-.057Zm-2.9.057q-.17.085-.17.17v.114c0,.057.057.114.227.17.057,0,.114-.057.17-.227C177.157,10.982,177.1,10.925,177.044,10.925Zm2.84.682a.122.122,0,0,0-.114.114v.057a.114.114,0,0,0,.227,0v-.17Zm-3.011.17a.426.426,0,0,0-.284.454h-.341a.614.614,0,0,0-.4.17,6.083,6.083,0,0,1-.341,1.307c.057.625.341.909.739.909.057,0,.17-.227.341-.625a2.489,2.489,0,0,1,.4-1.7v-.4A.122.122,0,0,0,176.873,11.778Zm2.272,0c-.284,0-.454.17-.568.625v.227l.057.511a2.05,2.05,0,0,0-.227.284v.341q.085.17.17.17h.114a6.559,6.559,0,0,1,.739-1.647A.785.785,0,0,0,179.146,11.778Zm0,2.159a.122.122,0,0,0-.114.114v.057a.122.122,0,0,0,.114.114h.057v-.284Zm-2.045.852c-.284.114-.4.4-.4.852a8.192,8.192,0,0,0-.568,2.1.122.122,0,0,1,.114.114c.227-.114.341-.227.341-.4a10.625,10.625,0,0,1,.625-2.272V14.9A.122.122,0,0,0,177.1,14.788Zm.739.8q-.17,0-.511.341c0,.341.057.568.227.568h.057c.114,0,.227-.227.4-.739,0-.114,0-.17-.114-.17Zm-2.329.057a1.131,1.131,0,0,0-.682.454v.057c.057.284.17.4.227.4.114,0,.114-.057.114-.17h.4a.7.7,0,0,0,.17-.114v-.454C175.737,15.754,175.68,15.7,175.51,15.641Zm4.147.454h.057v.114h-.057Zm-1.136.057c-.057,0-.114,0-.114.114v.057l.057.114c.227,0,.284-.057.284-.114S178.691,16.209,178.521,16.152Zm-3.749.8c-.227.17-.4.682-.511,1.647a6.387,6.387,0,0,0-.454,2.1c.057.511.17.739.341.739h.057c.114-.057.284-.454.454-1.25l-.227-.4c0-.057.057-.114.114-.17.454-.341.625-1.023.625-2.1V17.4a.468.468,0,0,0-.284-.454Zm1.307,1.42c-.17.114-.284.17-.284.227v.227l.114.17c.17-.114.284-.17.284-.227v-.057A.807.807,0,0,0,176.078,18.367Zm-.511,1.591q-.17.085-.17.17v.17c.114.17.17.227.227.227q.17-.085.17-.17v-.17C175.68,20.072,175.624,19.958,175.567,19.958Zm-.114.739H175.4c-.17,0-.284.341-.4,1.023v.17a.122.122,0,0,0,.114.114h.114a4.592,4.592,0,0,0,.284-1.193Zm1.477.568c.454,0,.625.17.625.511a3.947,3.947,0,0,1-.227.966h-.057l-.17-.17-.284-1.136Zm-2.727.4c-.284,0-.568.227-.966.682a3.869,3.869,0,0,1-.284,1.193c0,.114.17.17.625.227l.17-.114a15.171,15.171,0,0,1,.568-1.932Zm2.329,1.363.284-.057h.227l.057.341v.057c-.227.568-.511,1.136-.852,1.875h-.17c-.057,0-.114-.057-.17-.227.057-.17.227-.284.454-.454a5.967,5.967,0,0,0-.114-.739.927.927,0,0,1,.454-.511c0-.057-.057-.114-.17-.114Zm-3.579.8a3.225,3.225,0,0,0-.568,1.932,1.59,1.59,0,0,0,.057.341h.114a6.657,6.657,0,0,0,.909-.852l-.17-.568V24.5a.694.694,0,0,0,.17-.511Q173.465,23.906,172.954,23.821Zm2.556,2.386h.057v.057a.725.725,0,0,1-.284.4A2.59,2.59,0,0,1,175.51,26.207Zm21.872.682c-.227,0-.454.227-.625.625v.227l.114.17.682-.8v-.057Q197.467,26.889,197.382,26.889Zm-25.451,1.193a.122.122,0,0,0-.114.114c.227.284.4.4.625.4h.057a.122.122,0,0,0,.114-.114v-.057A.687.687,0,0,0,171.931,28.082Zm24.883.057a.122.122,0,0,0-.114.114l.057.114a.122.122,0,0,0,.114-.114Zm-.909.511q-.17.085-.17.17v.114a.122.122,0,0,0,.114.114h.114q.17-.085.17-.17v-.114a.122.122,0,0,0-.114-.114Zm-.909.4a.582.582,0,0,0-.284.341c0,.114.057.17.114.17h.057c.227-.17.284-.227.284-.284v-.114c0-.057,0-.114-.114-.114Zm.739.227a1.176,1.176,0,0,0-.8.511l.227.114c.227,0,.4-.17.568-.511Zm-22.44.625a.122.122,0,0,0-.114.114c0,.114,0,.114.114.114h.057v-.114Zm-.227.511a.209.209,0,0,1-.057.17.431.431,0,0,0,.114.227l.17-.114c-.057-.17-.114-.284-.17-.284Zm1.7,1.363a.122.122,0,0,1,.114-.114v.454c-.057,0-.057-.057-.114-.114Zm-3.977.454q.085,0,.17.341l-.114,1.136v.227a1.483,1.483,0,0,1-.17.568c-.114,1.079-.227,1.647-.4,1.647h-.057l-.057-.4v-.17a2.28,2.28,0,0,1,.17-.852C170.34,33.252,170.511,32.4,170.795,32.229Zm3.977.284h.114l.057.4c-.057.4-.17.568-.284.568h-.114c-.057,0-.057,0-.114-.114v-.057A1.71,1.71,0,0,1,174.771,32.513Zm19.429.4c.057,0,.114,0,.114.114l-.057.114c-.114,0-.114-.057-.114-.114Zm-19.827,1.818h.114c0,.057.057.17.057.227a6.8,6.8,0,0,1-.17.8h-.114a.209.209,0,0,0-.057-.17Zm18.236.966c.227-.4.454-.625.739-.625h.057q-.17.682-.341.682h-.17Zm-20.395.4c-.057,0-.114,0-.114.114v.17l.114.114c.17,0,.284-.057.284-.114v-.057C172.5,36.263,172.385,36.149,172.215,36.092Zm-.17,1.023c-.114.114-.227.17-.227.227V37.4c0,.114.057.114.114.114h.17c0-.057,0-.057.057-.17C172.158,37.285,172.1,37.228,172.045,37.115Zm20.224.8a.122.122,0,0,0-.114.114v.114a.122.122,0,0,0,.114-.114Zm-19.486.227a.122.122,0,0,1,.114-.114h.057a.122.122,0,0,1,.114.114v.17A.519.519,0,0,0,172.783,38.137Zm.568.17a.342.342,0,0,0,.227-.057h.057l-.057.227h-.227Zm-1.477.227q-.085,0-.17.341v.284c.114.114.17.227.227.227h.114c.057,0,.114-.114.17-.227-.057-.454-.114-.625-.17-.625Zm19.77,0v.114h.17v-.114Zm-.341.454q-.17.085-.17.17v.114h.17q.17-.085.17-.17c0-.057,0-.114-.114-.114Zm-.568.511v.114h.114V39.5Zm-17.327.625a.342.342,0,0,0,.227-.057,9.207,9.207,0,0,0,.17,1.193,1.41,1.41,0,0,0-.057.511c-.114,0-.227-.17-.341-.454,0-.511.057-.852.057-1.023A.249.249,0,0,1,173.408,40.126Zm-1.647.057c0,.341.057.739.057,1.25l-.057.4c.114.341.17.511.284.511h.057v-.17a8.885,8.885,0,0,0-.227-1.988Zm1.7,3.238c0-.057,0-.057.114-.114h.114q.17.085.17.17v.341c-.227,0-.341-.057-.4-.227Zm38.506,5.34a7.652,7.652,0,0,0,1.875-.227c1.988-.341,4.772-2.045,8.351-5.17a31.713,31.713,0,0,0,6.817-6.647c-.625,0-2.613,1.647-5.965,4.886-3.011,2.443-5.113,3.749-6.306,3.863l-.341-.057a2.8,2.8,0,0,1,1.079-1.193,12.33,12.33,0,0,0,3.181-2.556,11.387,11.387,0,0,0,2.216-1.818c.17-.625.341-.966.454-.966l.852.114q.256,0,.341-1.023a1.375,1.375,0,0,1,.739.341l.682-.852c1.818-1.193,2.727-2.1,2.727-2.67a5.1,5.1,0,0,0-1.363.454,2.269,2.269,0,0,1,.341-.909c1.7-1.591,2.556-2.727,2.556-3.465a5.325,5.325,0,0,0-1.193,1.079c-.568,1.079-1.023,1.591-1.363,1.647-8.181,7.328-14.032,10.964-17.554,10.964-.966,0-1.477-.284-1.477-.909q0-3.153,4.772-10.567a112.219,112.219,0,0,1,14.771-17.668c2.159-2.216,4.034-3.295,5.567-3.295a3.122,3.122,0,0,1,1.818.568,3.66,3.66,0,0,1,1.193,2.386l-.114,1.023.057.454c-.8,2.216-1.363,3.352-1.7,3.465h-.511l-.17.114a4.024,4.024,0,0,1-.625,1.193c-.114-.057-.17-.114-.284-.114a2.152,2.152,0,0,0-.8,1.42c.057.284.17.4.4.4a5.349,5.349,0,0,0,1.988-.682,30.244,30.244,0,0,0-2.84,4.374c.057,0,.057,0,.057.057a1.516,1.516,0,0,0,.568-.227c.739-1.193,1.761-2.727,2.954-4.545a8.164,8.164,0,0,0,1.42-1.023h.057l-4.2,6.306c0,.057.284.227.909.454l.057-1.023c.227.511.511.8.8.8A1.221,1.221,0,0,0,235.49,27a.151.151,0,0,0,.17.17c.057,0,.114-.17.17-.454-.057,0-.057,0-.057-.057l-.17.057a2.577,2.577,0,0,0,.284-.511,1.157,1.157,0,0,0,.625-.4c0,.17,0,.227-.057.227a5.42,5.42,0,0,1-1.25,2.613.512.512,0,0,0-.284-.057c-.057,0-.114.17-.17.568-3.068,4.034-4.772,6.249-5.056,6.7v.114a.431.431,0,0,0,.227-.114,32.624,32.624,0,0,0,3.749-4.2,2.835,2.835,0,0,0-.625,1.534h.17l.454-.284a3.582,3.582,0,0,1-.4,1.25l-.114-.057c.057-.227.114-.454.17-.625,0-.057-.114-.114-.227-.114-.057,0-.17.284-.284.909l.17.852a2.452,2.452,0,0,0-.227.8,2.127,2.127,0,0,0-.341-.568c-.114,0-.17.114-.17.4A13.9,13.9,0,0,0,231,41.6c0,1.42.284,2.329.8,2.727,1.7,2.1,3.465,3.181,5.283,3.181a4.558,4.558,0,0,0,1.136-.114c2.1,0,4.488-1.193,7.158-3.522,2.613-2.329,4.261-3.749,4.886-4.147,7.215-7.442,10.964-11.135,11.192-11.192a1.987,1.987,0,0,0,1.136-1.818c-.625,0-.909-.17-.909-.454l.057-1.477a3.261,3.261,0,0,1-.057-.682c0-.17-.284-.284-.909-.341a.9.9,0,0,0-.568.284,9.412,9.412,0,0,1-1.079,1.534,22.949,22.949,0,0,0-2.84,2.954,3.036,3.036,0,0,0-.852.739l.057.17.341-.114v.114a2.721,2.721,0,0,0-.454.625c-4.374,4.545-6.76,6.817-7.1,6.817,0-.114.227-.4.625-.852-.284,0-.625.227-1.079.739-.511.511-2.329,1.988-5.511,4.374q-2.216,1.875-2.727,1.875c-.284,0-.454-.341-.454-1.079,0-3.238,1.988-8.976,5.908-17.1,3.579-6.931,5.34-11.987,5.34-15.225a5.281,5.281,0,0,0-1.988-4.261c-.4-1.079-.8-1.591-1.25-1.591-.227,0-.511.227-.909.682l-.057-.284H246c0,.057,0,.114-.057.114a7.009,7.009,0,0,0-1.591,2.443c-1.7,4.374-2.613,6.533-2.67,6.59l-.227-1.42h-.114l-.114,2.1c.057,0,.057,0,.057.057a1.733,1.733,0,0,1-.511.739c-.057,0-.114-.114-.227-.284l.227-.4-.057-1.477c.17-.227.284-.341.284-.4a13.994,13.994,0,0,0-.852-2.329c.568.17.852.4.852.625h.114q-.17-.682-.341-.682a4.1,4.1,0,0,1-1.136-.511c0-.057,0-.057.057-.057a2.586,2.586,0,0,1,1.079.454A6.589,6.589,0,0,0,239.467,7.4a1.73,1.73,0,0,0-.739-.511,5.255,5.255,0,0,0-3.863-1.363,18.455,18.455,0,0,0-5.624,1.193,28.326,28.326,0,0,0-7.385,5l-2.84,2.556a104.131,104.131,0,0,0-8.124,9.317c-5.511,7.5-8.237,13.237-8.237,17.213a7.267,7.267,0,0,0,1.477,4.545,8.869,8.869,0,0,0,6.988,3.409Zm23.462-37.892h-.341l.227-.284C235.376,10.585,235.433,10.7,235.433,10.869ZM211.4,32.968a2.877,2.877,0,0,1-.454-1.079q0-.426,1.534-2.045l-.454-.341v-.114c.057-.227.17-.284.227-.284,0,.114.114.227.341.4h.114a2.989,2.989,0,0,1,.341-.852c-.114-.057-.17-.17-.17-.454a3.206,3.206,0,0,0,1.534-.852,6.365,6.365,0,0,1,1.023-1.534,2.936,2.936,0,0,1-.341-.4,2.586,2.586,0,0,0,1.136-.284,85.457,85.457,0,0,1,6.135-7.044c2.159-2.1,3.465-3.181,4.034-3.295,0,.341-1.136,1.591-3.522,3.693a24.078,24.078,0,0,1-2.272,2.67c-2.67,3.181-4.374,5.056-5.056,5.681a10.226,10.226,0,0,1-1.7,2.727c-1.25,1.079-1.818,1.647-1.818,1.818C212.027,32.286,211.8,32.8,211.4,32.968ZM240.83,16.209a.151.151,0,0,1-.17-.17.36.36,0,0,1,.284-.341l.057.17Q241,16.209,240.83,16.209Zm5.283,1.42-.057-.341c0-.17.17-.284.4-.4l.17.4A.972.972,0,0,1,246.113,17.629ZM236.4,21.094a6.387,6.387,0,0,1,2.1-2.159,13.457,13.457,0,0,0,.909-1.363.519.519,0,0,1,.284.17,7.136,7.136,0,0,0-.511,1.193A8.983,8.983,0,0,1,236.4,21.094Zm9.2-2.045-.057-.284a1.091,1.091,0,0,1,.625-1.023A1.378,1.378,0,0,1,245.6,19.049ZM236.91,43.421a4.512,4.512,0,0,1-.284-2.159l-.057-.682a2.638,2.638,0,0,0,.4-1.023,1.514,1.514,0,0,0-.284-.739v-.057l.682-.625a3.81,3.81,0,0,1,.4-1.534c-.057-.17-.17-.284-.227-.284a.881.881,0,0,0-.625.4c-.227,1.307-.4,1.932-.511,1.932a3.214,3.214,0,0,0-.568,1.534c0,.17.114.227.284.284q-.426.511-.682.511a2.13,2.13,0,0,1-.625.057,3.708,3.708,0,0,1,.114-.625A22.1,22.1,0,0,0,236.285,37h-.114a2.275,2.275,0,0,1-.568.909.821.821,0,0,1-.114-.4V37.4l.454-.909-.057-.17a.527.527,0,0,1,.4-.511h.057l.057.682c.454,0,.682-.341.682-1.079l-.057-.4c-.4-.057-.625-.17-.625-.4l-.057.057-.057.17-.057-.057.057-.114c1.079-.966,1.647-1.534,1.647-1.761q-.085-.17-.17-.17c-.114,0-.284.284-.454.8a.755.755,0,0,1-.4-.17v-.114a.789.789,0,0,0,.284-.568,1.9,1.9,0,0,0,.227-.8q0-.256.511-.341a2.373,2.373,0,0,1-.17-.511c0-.057.114-.17.341-.227v.625l.057.114a.579.579,0,0,0,.454-.284v-.17a3.111,3.111,0,0,1-.568-1.023l.682.057c.17,0,.227-.17.227-.511,0-.114-.17-.17-.454-.227a1.756,1.756,0,0,1,.114-.454l.454.284a.755.755,0,0,0,.17-.4c.284-.4.454-.625.454-.8,0-.114.682-1.7,1.988-4.829.852-2.67,1.591-4.318,2.1-4.829l.284.17a.122.122,0,0,1-.114.114,8.14,8.14,0,0,0-.966,2.9c-1.193,2.386-1.818,3.977-1.818,4.715a.907.907,0,0,0,.17.454c0,.057,0,.057-.057.057L241,26.719a10.038,10.038,0,0,0-.682,1.818.821.821,0,0,0,.114.4,1.763,1.763,0,0,0-.682.17l.057.341a3.539,3.539,0,0,0-.625.966,9.13,9.13,0,0,1-.4,2.159q.085.17.17.17a.687.687,0,0,0,.511-.341,5.424,5.424,0,0,1,.682-2.386l-.057-.341c0-.057.17-.114.454-.284A5.925,5.925,0,0,1,241,27.4l.511.114c.17,0,.341-.284.511-.909a29.162,29.162,0,0,0,1.591-3.636c.284-1.193.625-1.818,1.023-1.818a6.868,6.868,0,0,1,.284,1.307l-.057.17c-.454.057-.682.17-.682.4l-.341,1.023a1.852,1.852,0,0,0-.568,1.023,2.769,2.769,0,0,1,.227.739l-.057.114-.454-.114c-.057,0-.057.057-.114.114l.17.284-.057.227a2.878,2.878,0,0,1,.114.739c-.511,0-.8.17-.8.511a2.565,2.565,0,0,1,.17.739.807.807,0,0,1-.114.341l-.568-.114c-.057,0-.114.114-.17.284l.284.4c-.4.057-.568.114-.568.227a2.452,2.452,0,0,1,.227.8.854.854,0,0,1-.227.625l-.4-.114c-.114,0-.17.057-.227.227a1.79,1.79,0,0,0,.4.625,2.28,2.28,0,0,1-.454.909v.511a46.671,46.671,0,0,0-1.7,5l-1.023,1.591.227.454a2.813,2.813,0,0,1-.227.739l.057.511a1.452,1.452,0,0,1-.4.682l.057.454C237.592,43.137,237.308,43.421,236.91,43.421Zm8.067-22.61c-.284,0-.454-.057-.511-.284,0-.17.227-.568.8-1.193l.682.284a1.275,1.275,0,0,1-.057.568l-.341-.057C245.318,20.129,245.091,20.356,244.977,20.81Zm-6.363.511a.6.6,0,0,1,.284-.511v.057C238.9,21.038,238.785,21.151,238.614,21.322Zm-1.25.341c-.057,0-.057,0-.057-.057a.429.429,0,0,1,.4-.227A.582.582,0,0,1,237.365,21.662Zm7.044,1.818c0-.057-.057-.057-.114-.114l.17-.227c.057,0,.114.114.17.227Zm-7.442.17c-.057,0-.057,0-.057-.057a1.445,1.445,0,0,0,.114-.4h.114Zm-17.213-.114c-.057,0-.114-.057-.114-.227C219.754,23.31,219.754,23.424,219.754,23.537Zm16.532,2.216h-.057l1.193-2.159a.122.122,0,0,1,.114.114l.114-.057A5.39,5.39,0,0,1,236.285,25.753Zm-17.441-.966h-.227c.057-.17.17-.284.284-.284Zm16.361.909h-.284a.491.491,0,0,0-.17-.341v-.114a1.018,1.018,0,0,0,.454-.227ZM234.751,27l-.17-.227v-.057c.227,0,.341.114.341.227Zm4.374.852h-.057a1.2,1.2,0,0,1,.568-1.136l.057.114c0,.17-.057.284-.17.284C239.523,27.628,239.41,27.855,239.126,27.855Zm-26.985-.114h-.284v-.057l.17-.057.114.057Zm20.054,3.011a6.308,6.308,0,0,0,1.761-1.932l-.057-.114-.511.057c-.114-.341-.227-.511-.284-.511l-.114.057c-.17-.4-.284-.568-.341-.568a5.46,5.46,0,0,0-1.363,1.932l.4.057a1.038,1.038,0,0,0,.341-.454c.057,0,.17.17.4.511a1.375,1.375,0,0,0-.341.739C232.081,30.7,232.081,30.752,232.195,30.752Zm13.634,10.964c0-.114.057-.227.227-.4v-.114H246a.805.805,0,0,1-.625.227l.17-.454c.8-.625,1.932-1.591,3.352-2.9q.767-1.023,1.023-1.023h.454l-.17-.341c0-.114.114-.227.341-.4a8.029,8.029,0,0,0,2.443-2.556l-.17-.057a1.714,1.714,0,0,0-.625.4c.284-.454.511-.682.625-.682.625,0,.966-.057.966-.227a10.45,10.45,0,0,1,1.875-1.42v-.057h-.227a12.273,12.273,0,0,0,1.818-1.818l.227.057,1.023-.682-.057-.17a2.352,2.352,0,0,0-.682.4h-.114a4.936,4.936,0,0,1,.966-.909q0-.341,1.534-.682c-.17.284-.8,1.079-1.818,2.386-4.886,5.056-7.385,7.556-7.556,7.556-1.193,1.307-1.988,1.988-2.386,1.988A12.835,12.835,0,0,1,245.829,41.716Zm-12.9-12.271h-.227l-.511-.341.4-.739a1.074,1.074,0,0,1,.4.8Zm26.133-.625a.393.393,0,0,1,.17-.227v-.17l-.17.114-.114-.057c-.057.057-.057.114-.057.227C258.952,28.764,259.009,28.821,259.066,28.821Zm-47.379.227-.284-.17c.057-.17.114-.227.17-.227l.227.17A.227.227,0,0,0,211.687,29.048ZM233.9,32.57a.615.615,0,0,1-.227-.284c.341-1.136.682-1.7.909-1.7A15.26,15.26,0,0,1,233.9,32.57Zm-2.727-.852.227-.057v-.114a.96.96,0,0,1-.284-.114A.426.426,0,0,0,231.172,31.718Zm-.284.852.284-.511a.056.056,0,0,1-.057-.057l-.4.17C230.718,32.4,230.831,32.57,230.888,32.57Zm-19.6-.17c.057,0,.114-.057.114-.17,0-.057-.057-.114-.17-.114Zm-.909.966h-.454l-.057-.17a.6.6,0,0,1,.682-.682A2.518,2.518,0,0,1,210.38,33.365Zm20.111-.227c-.057-.057-.057-.17-.057-.341-.114,0-.17.057-.227.284,0,.057.057.057.17.057Zm-.8.8.284-.511-.114-.057-.682.057Q229.525,33.933,229.7,33.933Zm-20.054.909a1.455,1.455,0,0,1,.4-1.079C209.925,34.5,209.755,34.842,209.641,34.842Zm40.562,1.25h-.057l.227-.4a5.465,5.465,0,0,0,1.25-1.079l-.057.17C251.056,35.638,250.6,36.092,250.2,36.092Zm-.682-.625c.341-.284.454-.4.454-.511,0-.057,0-.114-.114-.114-.057,0-.17.17-.341.454Zm-40.676.4c0-.454.114-.625.341-.625l.454.114C209.641,35.524,209.414,35.695,208.846,35.865Zm27.723-.17a.807.807,0,0,1-.341-.114l.114-.17.284.057Zm-9.714.739-.739-.227c.227-.511.454-.739.625-.739.227,0,.341.114.341.454A.924.924,0,0,1,226.855,36.433Zm5.454.114.114-.511c.057,0,.17.114.227.341Q232.649,36.547,232.309,36.547Zm-6.533.8h-.4V37c0-.057.114-.114.341-.114Zm21.7.341h-.341c0-.057.057-.114.17-.114S247.477,37.626,247.477,37.683Zm-15.452.4-.057-.17c.057-.114.114-.17.114-.284h.114C232.138,37.91,232.081,38.081,232.024,38.081Zm3.125,1.42-.227-.057c0-.057,0-.114.114-.114C235.092,39.33,235.149,39.387,235.149,39.5Zm.454,2.045c-.284,0-.4-.057-.4-.114,0-.114,0-.17.114-.17A.268.268,0,0,1,235.6,41.546ZM278.995,48.7a24.555,24.555,0,0,0,8.976-2.159,24.151,24.151,0,0,0,5.283-3.011v-.114L292,43.7v-.057c.341-.511,1.079-.739,2.159-.739.511,0,1.534-.909,3.125-2.784,1.25-.8,2.045-1.363,2.443-1.647a5.88,5.88,0,0,1,1.932-1.988,30.1,30.1,0,0,1,2.5-2.272,12.476,12.476,0,0,0,2.5-3.125c1.761-2.045,2.67-3.693,2.67-4.829,0-.341-.17-.454-.511-.454a2.069,2.069,0,0,0-1.079,1.7h-.057l-.227-.227-.114.057a10.383,10.383,0,0,1-1.307,2.5,3.957,3.957,0,0,1-1.079-.227l-.057.057.057.17a1.573,1.573,0,0,1-.511-.057,12.168,12.168,0,0,0-.966.966v.568l-.4-.057c-.682.284-1.023.625-1.023,1.079l.852.057c.341-.454.568-.682.852-.682.057,0,.114.114.114.4l-.057.284a4.735,4.735,0,0,0-1.307,1.136l.057.114a13.771,13.771,0,0,1-1.591,1.136C299.39,36.263,298.367,37,297.856,37v-.057l.17-.227a56.924,56.924,0,0,0,4.147-3.92.468.468,0,0,0-.454.284,1.337,1.337,0,0,1-.454-.114l-.17.114c0,.284-.114.454-.4.454a6.991,6.991,0,0,1-1.534,1.42l-.17-.057a5.786,5.786,0,0,1-1.477,1.136c-8.067,4.942-14.259,7.442-18.463,7.442-2.9,0-4.318-1.363-4.318-4.034,0-3.806,2.329-8.919,6.874-15.452a57.522,57.522,0,0,1,7.158-8.806c3.409-3.295,6.079-4.942,7.9-4.942.4,0,.625.341.625.909a23.217,23.217,0,0,1-3.806,6.76c0-.057-.057-.227-.114-.625a4.641,4.641,0,0,0,.284-.966l-.057-.057a2.274,2.274,0,0,0-.8,1.193c-.4,1.477-.8,3.011-1.307,4.6a1.147,1.147,0,0,0-.511,1.023c0,1.25.4,1.875,1.079,1.875h.4c.739,0,1.818-.966,3.238-2.954,3.295-5.113,4.942-8.976,4.942-11.476V9.846a3.164,3.164,0,0,0-1.534-2.613,9.984,9.984,0,0,0-4.772-1.25q-6.988,0-18.236,12.441c-7.044,8.635-10.567,15.509-10.567,20.565a9.257,9.257,0,0,0,2.1,5.851,8.939,8.939,0,0,0,4.772,3.352h.114v-.341A22.366,22.366,0,0,0,278.995,48.7Zm20.224-37.1h-.057v-.284h.057ZM277.688,22.571l-.17-.114c.4-.454.625-.625.682-.625.17.057.227.114.227.17s-.114.114-.4.284C277.916,22.458,277.8,22.571,277.688,22.571ZM271.666,32a5.967,5.967,0,0,0-.739-.114,1.567,1.567,0,0,1,.568-1.079c.625-1.42,1.079-2.1,1.25-2.1a41.354,41.354,0,0,0,3.238-4.545c.568-.454.852-.8.852-1.136h.057a3.334,3.334,0,0,1-1.647,3.238c-.284.8-.568,1.307-.852,1.42a23.6,23.6,0,0,1-2.216,3.238.645.645,0,0,0,.17.454h-.17a.755.755,0,0,0-.4-.17c-.114,0-.17.114-.227.4Zm33.745-1.477c-.057,0-.17-.114-.227-.284q0-.085.341-.17c.057,0,.057.057.114.17C305.639,30.3,305.582,30.354,305.411,30.525Zm-1.136.966a.91.91,0,0,1,.568-.739A.722.722,0,0,1,304.275,31.491Zm.909.682h-.4c.341-.739.682-1.079.966-1.079l.057.341A.731.731,0,0,0,305.184,32.172Zm-37.665,4.147h-.114v-.454l.227-1.193-.057-.8a1.381,1.381,0,0,1,.568-.739,6.215,6.215,0,0,1,1.023-1.647c.057,0,.114.057.114.17C268.485,34.786,267.917,36.319,267.519,36.319Zm3.352-1.307h-.227c0-.114.227-.284.568-.682.114,0,.114.057.114.17C271.326,34.842,271.212,35.013,270.871,35.013Zm29.541,1.136a.122.122,0,0,0-.114-.114l.114-.17.227.057C300.639,35.979,300.526,36.092,300.412,36.149Zm-31.359,5.795a2.8,2.8,0,0,1-.284-1.023l.057-.739c.511-2.329.966-3.693,1.42-4.147h.057l.057.4a31.979,31.979,0,0,1-.852,3.181C269.508,41.148,269.337,41.944,269.053,41.944Zm28.121-5.227h-.114c0-.284.17-.4.454-.4C297.515,36.6,297.4,36.717,297.174,36.717Zm-30.166,1.25a.989.989,0,0,0-.17-.4l.227-.4-.057-.341a.807.807,0,0,0,.114-.341l.454.17v.17c-.057.17-.114.227-.17.227C267.349,37.683,267.235,37.967,267.008,37.967Zm30.109-.17h-.17c0-.17.114-.284.341-.284C297.231,37.683,297.174,37.8,297.117,37.8Zm-1.193,1.079c-.057,0-.114-.057-.114-.17l.114-.17.17.114Zm-28.348.341c-.057,0-.17-.114-.227-.227.057-.227.114-.284.17-.284l.341.227C267.747,39.1,267.633,39.217,267.576,39.217Zm-.682,1.363c-.17-.057-.227-.17-.227-.227a.377.377,0,0,1,.284-.227v.341Zm27.553,1.875h-.114c0-.284.17-.4.625-.4v.057A.546.546,0,0,1,294.447,42.455Zm-25.28.966a.84.84,0,0,1-.511-.739c0-.057.114-.17.4-.4a.878.878,0,0,1,.4.682C269.394,43.25,269.28,43.421,269.167,43.421Zm74.807-87.43a7.07,7.07,0,0,0-4.942,1.818c-.852.511-2.159,3.409-3.92,8.635-1.988,6.59-3.579,11.476-4.658,14.6-.284.057-1.932.284-5.056.682-8.294,1.079-14.146,2.159-17.5,3.181a21.869,21.869,0,0,0-4.886,1.818,1.638,1.638,0,0,0-.682,1.079,5.038,5.038,0,0,0-.625,1.079v1.7l.114.17.4-.057h.114l.114.057c0,.227-.057.568-.114,1.079.227.454.454.739.8.739.227,0,.739-.4,1.591-1.136q0-.426,3.409-1.193c.284,0,.682.057,1.079.057.454-.057.739-.114.739-.17a14.211,14.211,0,0,0,2.443-.511,5,5,0,0,0,1.023.114.176.176,0,0,0,.114-.057A1.373,1.373,0,0,1,314.6-11c.114,0,.511,0,1.193.057a7.136,7.136,0,0,0,1.193-.511,29.568,29.568,0,0,0,4.374-.739q2.556-.17,2.556-.852c-.114-.057-.284-.17-.4-.227a3.962,3.962,0,0,0-.909.454.367.367,0,0,1-.284-.114,11.586,11.586,0,0,0-3.011.511h-.17a5.908,5.908,0,0,1-.852-.114,4.873,4.873,0,0,0-1.932.682,6.141,6.141,0,0,0-2.727.511,12.075,12.075,0,0,0-1.591-.341c-.17.114-.284.17-.284.227a25.543,25.543,0,0,0-3.409.966,2.878,2.878,0,0,1-.739-.114.249.249,0,0,0-.17.057,4.4,4.4,0,0,0-1.363.625,5.022,5.022,0,0,0-1.875.4c-.227-.114-.4-.284-.4-.4,0-.17.341-.454,1.023-.739a3.067,3.067,0,0,0,.909-.454c.057,0,.114.057.17.057a.808.808,0,0,0,.341-.114,1.229,1.229,0,0,1,1.079-.682c.057,0,.17.114.284.341h.341c.057-.4.114-.568.284-.568h.057c.057.341.17.511.227.511h.341A4.2,4.2,0,0,1,310-11.912a1.573,1.573,0,0,0,.511.057h.17c.17,0,.227,0,.284-.057a2.084,2.084,0,0,0,1.193-.682h.057a1.27,1.27,0,0,1,.568.17c1.079-.114,1.647-.284,1.647-.511.17,0,.4.057.682.057a1.134,1.134,0,0,0,.454-.17.588.588,0,0,0,.227.057,6.663,6.663,0,0,1,1.7-.284c.057,0,.227-.114.511-.4a1.134,1.134,0,0,0,.454.17c.511,0,.739-.227.739-.682,0-.114-.057-.114-.114-.114h-.057l-.284.227h-.114c-.057,0-.17-.17-.341-.454a1.575,1.575,0,0,0,.682-.284Q320-14.895,320-15.15h.17a2.186,2.186,0,0,1,.625.511.151.151,0,0,0,.17-.17c0-.114.227-.227.682-.4,0-.057-.114-.17-.4-.284.057,0,.17-.057.454-.114.511.17.8.284.852.284l.966-.284c.284.057.4.17.4.341h.114q.17-.085.17-.17a1.481,1.481,0,0,1,.625.17,1.538,1.538,0,0,0,.454-.17v-.17l-.227-.057v-.114l.4-.057h.8a5.041,5.041,0,0,0,1.363-.341h.057a.81.81,0,0,1,.682.341c.341-.057.568-.114.625-.114a1.6,1.6,0,0,1,.454.057q0,.17-.511.341a2.128,2.128,0,0,1-.454-.057l-.284.284h-.17q-2.045.085-2.045.341v.057c0,.057,0,.114.114.114h.341c.341,0,1.193-.17,2.613-.4h.17a50.564,50.564,0,0,1-1.988,5.681c-1.988,6.533-3.806,12.328-5.454,17.441-1.307,5.113-2.386,8.862-3.181,11.192a60.306,60.306,0,0,1-1.647,6.7A71.828,71.828,0,0,0,315,39.16v1.477a11.336,11.336,0,0,0,.682,4.034c1.079,2.556,2.9,3.863,5.454,3.863h.739a12.924,12.924,0,0,0,3.011-.454,25.32,25.32,0,0,0,9.828-5.567,6.283,6.283,0,0,0,1.647-2.329l-.057-.114a.44.44,0,0,1-.17.057c-1.079,1.193-1.761,1.761-2.1,1.761h-.057c0-.057.057-.227.114-.454a10.4,10.4,0,0,0,2.1-1.932c.909-1.023,2.1-2.443,3.579-4.318.568-.852,1.023-1.307,1.307-1.307.114-.454.227-.739.341-.739a6.153,6.153,0,0,0,1.534-2.045,9.882,9.882,0,0,0,2.216-3.806c.511-1.363.8-2.1.8-2.216a.122.122,0,0,0-.114-.114c-.341,0-.682.4-1.136,1.193-.4.625-1.647,2.5-3.749,5.681h-.057a1.957,1.957,0,0,0-.511.057h-.057c.4-.511.568-.8.568-.966-.114,0-.284-.114-.4-.4q.682-.256.682-.341v-.057c-.114,0-.284-.114-.568-.341-.057,0-.284.17-.625.568v.284c0,.057.057.17.284.341v.057c0,.057-.17.114-.4.114a2.777,2.777,0,0,1-.511.852v.057a.417.417,0,0,0,.114.341l-.057.284c0,.057-.625.682-1.818,1.875a19.241,19.241,0,0,1-1.818,1.988,10.991,10.991,0,0,1-3.977,3.579c-.057,0-.114-.057-.17-.227a.644.644,0,0,0-.568.511c-2.556,2.613-4.658,3.863-6.306,3.863a3.322,3.322,0,0,1-1.079-.227c-1.079-.625-1.591-1.988-1.591-4.09V39.1a36.9,36.9,0,0,1,.682-5.795c0-1.534.227-2.556.739-3.068,2.443-4.374,4.829-9.374,7.272-14.941,3.011-6.7,4.545-10.169,4.545-10.4q1.449-3.409,2.386-6.135a76.74,76.74,0,0,0,3.068-8.124c.568-1.25,1.136-3.068,1.875-5.34,0,0,.057,0,.17.114h.227a.344.344,0,0,0,.341-.17v-.114l-.17-.227c-.284,0-.454.114-.454.341h-.057v-.057l.454-1.079c.454,0,.682.057.682.114a3.29,3.29,0,0,1,1.761.341v.057l-.4.057h-.8l-.114.057c.114.284.227.454.284.454h.057a4.731,4.731,0,0,1,.8-.227.613.613,0,0,1,.4.114l-.227.227v.114l.284.057a6.762,6.762,0,0,1,.966-.17l.284.057h.625a3.733,3.733,0,0,0,.739-.17c1.136.17,2.556.284,4.318.4a2.427,2.427,0,0,1,1.079.511c.057,0,.227-.114.511-.227a1.576,1.576,0,0,0,.739.341h.057a1.308,1.308,0,0,0,.511-.17c2.386.341,4.318.682,5.795.966.511,0,.739-.057.8-.114l1.988.511h.4c1.193-.227,1.818-.8,1.818-1.647v-.4c0-1.534-1.023-2.954-2.954-4.261-1.477-.966-5.4-1.477-11.7-1.477h-2.329c-1.477,0-3.125.057-5.056.17,1.307-4.09,2.386-7.726,3.181-10.794a61.32,61.32,0,0,0,1.534-9.317v-.4a2.175,2.175,0,0,0-.284-1.079,3.006,3.006,0,0,1-.739.341h-.057c-.227,0-.341-.341-.341-.909a.729.729,0,0,0-.739-.8l-.114.057a.249.249,0,0,1-.17-.057,3.435,3.435,0,0,0-.454-.739h-.057c-.057,0-.114.114-.227.284l-.114-.057a2.629,2.629,0,0,0-1.591-.341Zm-1.079,23.917a56.384,56.384,0,0,0,1.7-5.738q1.278-3.068,2.727-11.76c.17-1.534.454-2.272.739-2.272h.114l.057.682v.511a35.8,35.8,0,0,1-1.193,7.385c0,.909-1.023,4.6-3.011,11.135a8.483,8.483,0,0,1-1.079.057Zm-4.715.4c.341-.966.568-1.477.568-1.477a82.685,82.685,0,0,1,4.034-10.737,11.45,11.45,0,0,1,1.988-3.977h.057v.284a5.771,5.771,0,0,1-.4,1.42,6.964,6.964,0,0,1-.4,1.818c0,.057.057.114.057.17l-.17.852c-.511,1.932-.8,3.011-.8,3.181v.284l.057.114c.227-.17.341-.341.341-.454h.057c.057,0,.114,0,.114.114v.739a1.184,1.184,0,0,1-.4.852c-.284,1.25-.454,1.875-.625,1.875l.057.284a3.512,3.512,0,0,1-.227.909h-.057q-.17,0-.17-.341v-.17c.17,0,.284-.057.284-.114V-24.3a.808.808,0,0,0-.114-.341,2.03,2.03,0,0,0,.511-1.477.122.122,0,0,0-.114-.114c-.17,0-.284.341-.4.966a4.242,4.242,0,0,0-.511,1.875,3.5,3.5,0,0,1,.057.739v.739c-.057.341-.114.568-.227.568H341.7v-.114h-.114V-21l-.114-.057c-.057,0-.114,0-.114.114a1.989,1.989,0,0,1,.114.568v.057l-.057.284a11.65,11.65,0,0,1-3.181.341Zm7.272-11.135h.057v.114A7.882,7.882,0,0,1,345-28.387c-.057,0-.114-.057-.17-.227l.227-.852A7,7,0,0,0,345.451-30.83Zm-1.193,4.488c.17-.966.341-1.42.511-1.42,0,.511-.114.8-.227.8-.114.568-.17.8-.284.8Zm-.17.341h.114v.341a.344.344,0,0,1-.17.341V-25.6Zm-1.136,1.363c0-.057,0-.114.114-.114v.17h-.114Zm-.852,1.761a.122.122,0,0,1,.114-.114l.057.284-.057.114a.122.122,0,0,1-.114-.114Zm.852.966a1.307,1.307,0,0,1,.454-1.023v.284a1.433,1.433,0,0,0-.341.966h-.114Zm-.284.966h.057v.227h-.057Zm-.227.568h.057v.284h-.057Zm1.761,1.023a5,5,0,0,1,1.193.341v.227l-.284.057H344.6l-.341.284h-.17l-.114-.057A4.543,4.543,0,0,0,344.2-19.354Zm-1.591.057s.227,0,.739.057a1.28,1.28,0,0,0,.4-.057,4.544,4.544,0,0,0-.227.852h-.284a1.9,1.9,0,0,0-.739-.4A1.07,1.07,0,0,0,342.611-19.3Zm-1.988.966c0-.568.17-.852.454-.852h.057a3.928,3.928,0,0,1-.114.852l-.114-.057h-.17ZM337.9-18.9a19.579,19.579,0,0,1,2.67-.227h.057a1.516,1.516,0,0,0-.454.966h-.511a3.13,3.13,0,0,0-1.193.284c-.17,0-.454-.057-.852-.057A5.922,5.922,0,0,1,337.9-18.9Zm8.806.341a.209.209,0,0,1,.057-.17,5.937,5.937,0,0,1,1.647-.341,2.305,2.305,0,0,1,.966.284v.057a3.522,3.522,0,0,0-.625.17h-.114l-1.477-.227c-.057,0-.114.057-.114.227Zm-29.314,3.238c.057-.284.4-.454,1.023-.454.966-.341,1.477-.568,1.534-.568,1.363,0,2.1-.114,2.1-.284l1.818-.454a7.9,7.9,0,0,0,2.1-.454,9.121,9.121,0,0,0,3.295-.511,3.058,3.058,0,0,1,.454.057l.4-.057h.057l-.4.966-.682-.057a1.851,1.851,0,0,0-.739.227c-.852.114-2.5.341-4.886.739h-1.023c-.17.114-.227.17-.227.227a9.565,9.565,0,0,0-2.045.341l-.341-.057h-.17a5.34,5.34,0,0,1-2.159.341Zm30.052-1.193a.579.579,0,0,1,.284-.454h.057a.431.431,0,0,0,.114.227c-.114.227-.227.284-.284.284h-.17Zm-17.043.057h.114c.114,0,.114.057.114.114l-.114.17c-.057,0-.057,0-.114-.114Zm11.362.341c.17.17.284.227.341.227l.284-.057a.342.342,0,0,1,.227.057,11.98,11.98,0,0,1-.966,2.84,81.087,81.087,0,0,1-2.9,8.01C336.418,1.268,335,4.79,334.43,5.472a34.575,34.575,0,0,1-1.591,4.034c-.852,1.647-1.647,3.352-2.386,5.056a15.254,15.254,0,0,0-1.7,3.011c-.682,1.534-1.193,2.386-1.477,2.5a.056.056,0,0,0-.057-.057,5.5,5.5,0,0,1,.739-1.363,22.013,22.013,0,0,1,1.42-3.238c1.023-2.556,1.647-3.977,1.875-4.374a11.742,11.742,0,0,1,1.591-3.465,17.253,17.253,0,0,1,1.42-3.636A35.77,35.77,0,0,1,335.68.472l1.193-3.181A7.632,7.632,0,0,0,337.9-5.663c.8-1.875,1.307-3.295,1.591-4.147a15.539,15.539,0,0,0,1.079-3.295A10.069,10.069,0,0,0,341.758-16.116Zm-4.715.341c1.193-.057,2.159-.114,3.011-.227h.114l-.057.114v.682c-.227,0-.341.114-.341.4h-.114c-.114,0-.114-.114-.114-.341h-.057c-.17.057-.227.17-.227.4v.284c.057.114.17.227.227.227a2.344,2.344,0,0,1-.341,1.079,2.2,2.2,0,0,1-.625,1.761,5.272,5.272,0,0,1-.8,2.045l-.227-.17h-.114v.057l.057.341c-.057.17-.17.284-.227.284a1.748,1.748,0,0,0,.227.511.755.755,0,0,1-.17.4l-.227-.114a.176.176,0,0,0-.114.057,6.426,6.426,0,0,0,.057.8,1.833,1.833,0,0,0-.341,1.023c-.227,0-.341,0-.341-.057,0,.114-.057.114-.114.114l.114.4v.739l-.057.4h-.114q-.17,0-.17-.341v-.17h-.17a3.124,3.124,0,0,0-.4,1.079.491.491,0,0,0,.17.341.808.808,0,0,1-.114.341l-.114-.057c-.114,0-.17.17-.284.454a1.6,1.6,0,0,0,.057.454c-.057.114-.057.17-.114.17-.114.739-.284,1.079-.4,1.079a.122.122,0,0,1-.114-.114l-.114.057L334.43-1v.341L334.2-.948c-.17,0-.511.852-1.023,2.613a7.894,7.894,0,0,0-.966,2.272l-.682,1.534c-1.363,2.954-2.272,4.942-2.613,5.965v.057l.057.4-.114-.057a.7.7,0,0,0-.17.114q-.256.682-.341.682a19.778,19.778,0,0,0-1.818,3.693h-.057c.284-1.079,1.534-4.886,3.693-11.476,2.329-7.442,4.374-13.748,6.079-18.8.17-.114.284-.227.284-.4a.122.122,0,0,0-.114-.114c.284-.852.454-1.307.454-1.363A.209.209,0,0,1,337.043-15.775Zm-22.1.568v-.057a7.005,7.005,0,0,1,1.363-.4h.114a.122.122,0,0,1,.114.114l-.057.114a5.284,5.284,0,0,0-1.193.341A.807.807,0,0,1,314.944-15.207Zm10.851-.454a.122.122,0,0,0-.114.114v.057a.209.209,0,0,1,.17.057c0-.057,0-.114.114-.114a.122.122,0,0,0-.114-.114Zm8.294.454q.085-.17.17-.17v.341Q334.089-15.122,334.089-15.207Zm-4.2.909c0-.114,0-.114.057-.114.057-.568.227-.852.454-.852v.114c.284.17.4.341.4.511A7.7,7.7,0,0,0,329.885-14.3Zm4.942-.568a.344.344,0,0,1,.17-.341h.114q.17.085.17.17v.17a.38.38,0,0,1-.227.4A.38.38,0,0,1,334.828-14.866ZM325-15.15a3.427,3.427,0,0,1-.739.454c0,.057.114.114.284.17.568-.17.852-.227.852-.284S325.284-14.98,325-15.15Zm-5.34.4c-.057,0-.114,0-.114.114l.057.114.341-.057v-.057a.122.122,0,0,0-.114-.114Zm4.033.114c-.341.114-.682.17-1.079.284v.114c.8-.057,1.136-.17,1.136-.284v-.114Zm14.827,0a.343.343,0,0,0-.341.17v.17h.284q.17-.085.17-.17v-.057A.122.122,0,0,0,338.52-14.639Zm-1.42.057-.227.057v.057c0,.057,0,.114.114.114h.114c.114,0,.114-.057.114-.114S337.214-14.582,337.1-14.582Zm-20.111.284c.284.057.625.17,1.023.284v.114a2.13,2.13,0,0,0-.966.284,1.936,1.936,0,0,0-.909-.227h-.057a.573.573,0,0,0-.625.511,1.532,1.532,0,0,1-.739-.4,1.588,1.588,0,0,1,.284-.454c.284.114.454.227.454.284a.9.9,0,0,1,.568-.284h.227l.284.17C316.819-14.128,316.989-14.185,316.989-14.3Zm15.85.227q0-.17.341-.17a.43.43,0,0,0,.057.227l-.227.114a.7.7,0,0,1-.17-.114Zm-12.044-.17a.056.056,0,0,0-.057.057c-.568.114-.852.227-.852.284v.114c0,.114,0,.114.114.114h.17l.511-.17c.114,0,.284.057.454.057l.17-.17C321.307-14.071,321.137-14.185,320.8-14.241Zm1.42.114v.057h.114v-.057Zm-14.2.454c0-.057.057-.114.227-.17.057,0,.114.114.17.227,0,.114-.057.114-.114.114h-.057Zm4.488-.17h.284v.114h-.17C312.558-13.73,312.5-13.73,312.5-13.844Zm20.792.4c0-.057.114-.17.4-.284q0,.6-.341.682l-.057-.284ZM327.5-13.73a3.2,3.2,0,0,0-.682.227c0,.227.057.284.114.284h.4c.454,0,.625-.057.625-.17C327.783-13.616,327.67-13.73,327.5-13.73Zm-1.023.057a1.575,1.575,0,0,0-.682.284c.114.227.227.341.4.341.057,0,.17-.114.4-.454C326.477-13.56,326.477-13.616,326.477-13.673ZM322.67,10.755a1.053,1.053,0,0,0,.966-.739,24.344,24.344,0,0,1,.852-2.386,7.733,7.733,0,0,1,.341-1.363c1.591-5.34,2.67-8.635,3.181-9.885l1.818-5.4a12.24,12.24,0,0,0,.682-2.045c.4-1.7.8-2.556,1.079-2.556.057,0,.057.114.057.341a18.442,18.442,0,0,0-.625,2.1,4.361,4.361,0,0,0-.739,2.216,18.565,18.565,0,0,0-.8,2.556,5.047,5.047,0,0,0-.568,1.477,4.265,4.265,0,0,0-.4,1.136c-.341,1.079-.682,2.386-1.136,3.977a5.761,5.761,0,0,0-.568,2.159c-1.534,4.2-2.329,6.59-2.329,7.272a2.3,2.3,0,0,0-.341.625l.057.341v.057a3.04,3.04,0,0,0-.625,1.591c-.284.966-.511,1.591-.568,1.932.057.284.114.454.227.454h.17c.057,0,.114-.114.17-.284,0-.17-.057-.341-.057-.511v-.057a.967.967,0,0,1,.454-.739c-.057-.227-.114-.4-.114-.454a9.245,9.245,0,0,0,.739-1.761c.114-.966.284-1.477.4-1.477a4.754,4.754,0,0,1,.511-1.591c.17-1.42.4-2.1.739-2.1l-.057-.682.568-.114-.17.227v.057a3.479,3.479,0,0,0,.284.341h.057a.907.907,0,0,0,.454-.17l-.057-.511a.409.409,0,0,1,.227-.4h.17c.057,0,.114.057.17.114h.227q.17-.085.17-.17c-.114-.17-.17-.227-.227-.227h-.511a2.559,2.559,0,0,0,.114-.8V3.2h-.227a1.2,1.2,0,0,1-.454.341V3.256a1.555,1.555,0,0,1,.227-.284c.227-.966.454-1.477.739-1.477a2.15,2.15,0,0,0-.057-.454,1.112,1.112,0,0,1,.625-.966,3.36,3.36,0,0,1,.454.284l-.227,1.136-.17-.114h-.17a.122.122,0,0,0-.114.114v.114c.17.17.227.227.227.284v.057a.344.344,0,0,1-.17.341l-.341-.057a.96.96,0,0,1-.284.114v.227a6.681,6.681,0,0,1,.852.625h.17c.114-.568.284-.852.4-.852h.284a.44.44,0,0,0,.057.17c-.114.511-.284,1.079-.511,1.818a10.9,10.9,0,0,1-.568,1.477h-.057c0-.17-.057-.227-.17-.227l.17-.227V5.244h-.4q0-.341-.17-.341h-.057q-.17.085-.17.17v.114a4.871,4.871,0,0,1,.17.966V6.21l-.511.341-.227.966c0,.114.114.227.341.284.114-.17.227-.284.284-.284,0,.057.057.114.057.17a2.85,2.85,0,0,1-.17.8,2.6,2.6,0,0,1-.341-.227H327.1a.491.491,0,0,0-.341.17c0,.17.057.284.114.284h.511c0,.057.057.17.057.227a5.361,5.361,0,0,1-.682,1.875,28.859,28.859,0,0,1-1.193,4.034v.114q.085.17.17.17h.057l.227-.17v.17a.344.344,0,0,1-.17.341c-.284,0-.454.17-.568.568-.284.966-.454,1.477-.568,1.477h-.057c-.057,0-.17-.17-.4-.511H324.2a1.241,1.241,0,0,1-.284.8c0,.057.057.114.057.17.511.114.739.227.739.341-.057.341-.114.568-.227.568h-.227c-.114,0-.114-.114-.17-.284h-.114a.97.97,0,0,1-.284.625v.114c.341.114.454.227.454.341a2.422,2.422,0,0,0-.454,1.193v.341h-.057c-.4-.17-.568-.341-.568-.625v-.057a5.781,5.781,0,0,1,.227-.909v-.284a.122.122,0,0,0-.114-.114h-.057l-.454.454a13.559,13.559,0,0,1-.568,1.42,4.541,4.541,0,0,0-.511,1.988c0,.966-.114,1.534-.4,1.761v.227l.625.454.17-.114h.114a1.727,1.727,0,0,1-.739.682l.057-.284-.057-.114c-.227,0-.454.568-.625,1.761A6.2,6.2,0,0,1,320,30.582a.755.755,0,0,0,.17.4h-.057c-.284,0-.4.227-.454.682a2.789,2.789,0,0,0,.17.682,2.026,2.026,0,0,0-.4.4,1.387,1.387,0,0,0,.057.4,12.783,12.783,0,0,1-.4,1.42v.057a1.338,1.338,0,0,0,.682,1.307.916.916,0,0,0-.341.739,1,1,0,0,0-.852,1.079l.057.114a2.412,2.412,0,0,0-.284.682v.057a2.007,2.007,0,0,0,.227.966c.284.17.4.284.4.341-.341,0-.511.568-.625,1.591a8.667,8.667,0,0,0,.057,1.023,6.275,6.275,0,0,0-.057.909.679.679,0,0,0,.227.454v.341h-.057c-.284-.17-.4-.511-.4-1.023v-.227c0-.057-.057-.114-.227-.17-.057,0-.17.17-.227.454q.17.767.17.852l-.227-.057c-.227,0-.454-1.136-.739-3.465a31.872,31.872,0,0,0,.341-3.352,11.131,11.131,0,0,0-.114-1.534,5.233,5.233,0,0,1,.284-1.136s0-.454-.057-1.363a1.278,1.278,0,0,1,.284-.852,5.133,5.133,0,0,0,.568-2.727.733.733,0,0,0-.284-.625h-.057c-.17,0-.511.909-.966,2.727h-.057c-.057,0-.114-.114-.17-.4.057-.454.114-.739.17-.739.227-1.761.4-2.67.568-2.67a12.165,12.165,0,0,1,.4-2.67,5.4,5.4,0,0,1,.511-1.875,8.833,8.833,0,0,1,.8-2.954,8.2,8.2,0,0,1,.227-1.307,7.339,7.339,0,0,0,.454-2.159,37.122,37.122,0,0,0,1.534-5.454,2.77,2.77,0,0,0,.454-1.363,2.605,2.605,0,0,0,.341-.909c.057-.284.625-2.1,1.761-5.454a7.962,7.962,0,0,1,.8-2.613,12,12,0,0,1,.511-1.818,15.581,15.581,0,0,0,.852-2.954,2.609,2.609,0,0,0,.739-1.932,11.913,11.913,0,0,0,.966-2.67,4.807,4.807,0,0,1,.852-2.443c.454-1.7.682-2.556.852-2.556h.341v.227a.755.755,0,0,0-.17.4v.511l-.4.454v.057l.284.284v.114h-.057l-.17-.114H329.2c-.057,0-.114,0-.114.114l.114.4a.533.533,0,0,1-.341.454,11.425,11.425,0,0,1-.341,1.534c-.227,0-.4.511-.454,1.534-.284.284-.454.454-.454.511s.057.114.057.227c-.227.8-.341,1.25-.341,1.25.17.17.227.284.284.284,0,.17-.114.4-.454.625a6.6,6.6,0,0,0-.852,2.727c0,.114.057.17.284.17a1.1,1.1,0,0,0-.454.909V.132c-.284,0-.568.511-.909,1.591v.17s.114.114.341.4v.17c-.284,0-.568.227-.8.682a3.757,3.757,0,0,1,.057.625,2.765,2.765,0,0,0-.625,1.079l.114.17v.114c-.17.227-.341.4-.454.4-.114.625-.227.909-.341.909a1.693,1.693,0,0,1-.284,1.136c-.17.8-.341,1.42-.454,1.932a.612.612,0,0,0,.114.454c0,.057-.17.17-.454.4C322.443,10.585,322.5,10.7,322.67,10.755Zm11.7-23.974a.478.478,0,0,1,.227-.4c.114,0,.114.057.114.114v.057c0,.284-.057.454-.227.511A.367.367,0,0,0,334.373-13.219Zm-27.837.114c0-.227.17-.4.454-.454h.568v.057c0,.114-.284.284-.8.454h-.114Zm5.17-.454h.114v.057h-.114Zm13.294.17-.454.454.057.114a5.617,5.617,0,0,0,.852-.057v-.057a1.052,1.052,0,0,0-.4-.454Zm-16.134.511c0-.227.568-.4,1.761-.4h.227c0,.057-.057.114-.284.17l-.511-.057a7.518,7.518,0,0,0-1.023.4.249.249,0,0,0-.17-.057Zm-1.647.17.739-.17c0,.057.057.057.227.057q0,.17-.341.17h-.625Zm-3.352,1.363a2.346,2.346,0,0,0,.4-.625,9.1,9.1,0,0,1,2.5-.625h.17a.5.5,0,0,1-.511.454h-.454l-.454.4h-.568a3.736,3.736,0,0,1-1.023.511h-.057Zm29.087-.568h.057v.341c0,.057-.057.227-.114.511-.341-.114-.511-.17-.511-.227V-11.4l.057-.114C332.783-11.628,332.953-11.8,332.953-11.912Zm.8.284c.17.057.227.114.227.17l-.17.227q-.17-.085-.17-.17v-.057Zm-4.034.341h.114v.057h-.114Zm2.67.739c.057,0,.114,0,.114.057v.057C332.442-10.435,332.385-10.435,332.385-10.549Zm-.966,5.908c.114-.568.227-.852.284-.852a2.23,2.23,0,0,1,.625-1.875c.284-1.477.568-2.216.8-2.216h.057l.057.284a1.009,1.009,0,0,1-.227.568l-.852,2.9a2.432,2.432,0,0,0-.568,1.307A31.846,31.846,0,0,1,330.283-.1c-.057,0-.227-.17-.454-.454V-.664c.17,0,.4-.17.568-.511a8.464,8.464,0,0,1,1.079-3.238A.342.342,0,0,1,331.419-4.641Zm.454-4.431a.312.312,0,0,1,.227-.341c.057,0,.057.057.114.17l-.17.568h-.114l-.057-.284Zm5.624.17a.122.122,0,0,1,.114-.114h.057v.227c0,.057,0,.114-.114.114C337.555-8.788,337.555-8.844,337.5-8.9ZM331.7-8.39c.057,0,.114.057.17.227,0,.114-.057.17-.114.17h-.17C331.59-8.049,331.646-8.163,331.7-8.39Zm5,1.023q-.17.085-.17.17c0,.114,0,.114.114.114q.085,0,.17-.17C336.816-7.367,336.759-7.367,336.7-7.367Zm-5.681.8c0-.114.114-.17.227-.227l.114.17v.057c0,.057-.057.114-.227.17A.7.7,0,0,1,331.021-6.572Zm5.113.682a.122.122,0,0,0-.114.114v.227h.17v-.227Zm-7.1,2.67h.284a.209.209,0,0,0,.057.17l-.284,1.136h-.057Zm5.795.625v.17h.114V-2.6Zm-.227.511v.057h.114v-.057Zm-5.34.909c.227-.511.4-.8.511-.8a.209.209,0,0,0,.057.17.7.7,0,0,0-.114.17v.682a.546.546,0,0,1-.4.511l-.227-.227h-.341l-.114.057a.808.808,0,0,0-.114-.341c.114-.227.227-.284.284-.284h.057Zm-.739,1.42v.17l.114-.057A.122.122,0,0,0,328.522.245Zm1.136.114h.284a.122.122,0,0,1,.114.114V.586a6.646,6.646,0,0,1-.568,1.534h-.057a.36.36,0,0,1-.284-.341A3.881,3.881,0,0,0,329.658.359Zm-4.488,1.7c-.057,0-.114,0-.114.114v.057h.17v-.17Zm1.647,2.045c0-.057,0-.114.057-.114v.17h-.057Zm-1.932,0h.057v.114h-.057Zm3.238,2.045c.114-.17.17-.227.227-.227v.057l-.114.341c-.057,0-.114,0-.114-.057Zm-1.647.966a.4.4,0,0,0-.227.284c0,.057.057.114.227.17.17-.057.284-.114.284-.17v-.17a.122.122,0,0,0-.114-.114Zm-.511,1.591v.114c0,.057,0,.114.114.114a.114.114,0,0,0,0-.227Zm.852.454c-.17.057-.284.114-.284.227v.17c0,.057,0,.057.114.057h.17q.17-.085.17-.17V9.335Q326.988,9.25,326.817,9.164Zm-1.307.852v.057h.114v-.057Zm-.114.682c-.057,0-.114.114-.227.341V11.1h.057l.284-.057v-.057l-.057-.284Zm.511.17a.122.122,0,0,0-.114.114v.284c0,.057.114.17.284.227.114,0,.17-.114.227-.284a.122.122,0,0,0-.114-.114l.114-.17v-.057Zm-2.9.057q-.17.085-.17.17v.114c0,.057.057.114.227.17.057,0,.114-.057.17-.227C323.125,10.982,323.068,10.925,323.011,10.925Zm2.84.682a.122.122,0,0,0-.114.114v.057a.114.114,0,1,0,.227,0v-.17Zm-3.011.17a.426.426,0,0,0-.284.454h-.341a.614.614,0,0,0-.4.17,6.084,6.084,0,0,1-.341,1.307c.057.625.341.909.739.909.057,0,.17-.227.341-.625a2.489,2.489,0,0,1,.4-1.7v-.4A.122.122,0,0,0,322.841,11.778Zm2.272,0c-.284,0-.454.17-.568.625v.227l.057.511a2.05,2.05,0,0,0-.227.284v.341q.085.17.17.17h.114a6.56,6.56,0,0,1,.739-1.647A.785.785,0,0,0,325.113,11.778Zm0,2.159a.122.122,0,0,0-.114.114v.057a.122.122,0,0,0,.114.114h.057v-.284Zm-2.045.852c-.284.114-.4.4-.4.852a8.192,8.192,0,0,0-.568,2.1.122.122,0,0,1,.114.114c.227-.114.341-.227.341-.4a10.626,10.626,0,0,1,.625-2.272V14.9A.122.122,0,0,0,323.068,14.788Zm.739.8q-.17,0-.511.341c0,.341.057.568.227.568h.057c.114,0,.227-.227.4-.739,0-.114,0-.17-.114-.17Zm-2.329.057a1.131,1.131,0,0,0-.682.454v.057c.057.284.17.4.227.4.114,0,.114-.057.114-.17h.4a.7.7,0,0,0,.17-.114v-.454C321.7,15.754,321.648,15.7,321.477,15.641Zm4.147.454h.057v.114h-.057Zm-1.136.057c-.057,0-.114,0-.114.114v.057l.057.114c.227,0,.284-.057.284-.114S324.659,16.209,324.488,16.152Zm-3.749.8c-.227.17-.4.682-.511,1.647a6.386,6.386,0,0,0-.454,2.1c.057.511.17.739.341.739h.057c.114-.057.284-.454.454-1.25l-.227-.4c0-.057.057-.114.114-.17.454-.341.625-1.023.625-2.1V17.4a.468.468,0,0,0-.284-.454Zm1.307,1.42c-.17.114-.284.17-.284.227v.227l.114.17c.17-.114.284-.17.284-.227v-.057A.808.808,0,0,0,322.045,18.367Zm-.511,1.591q-.17.085-.17.17v.17c.114.17.17.227.227.227q.17-.085.17-.17v-.17C321.648,20.072,321.591,19.958,321.534,19.958Zm-.114.739h-.057c-.17,0-.284.341-.4,1.023v.17a.122.122,0,0,0,.114.114h.114a4.591,4.591,0,0,0,.284-1.193Zm1.477.568c.454,0,.625.17.625.511a3.949,3.949,0,0,1-.227.966h-.057l-.17-.17-.284-1.136Zm-2.727.4c-.284,0-.568.227-.966.682a3.867,3.867,0,0,1-.284,1.193c0,.114.17.17.625.227l.17-.114a15.162,15.162,0,0,1,.568-1.932Zm2.329,1.363.284-.057h.227l.057.341v.057c-.227.568-.511,1.136-.852,1.875h-.17c-.057,0-.114-.057-.17-.227.057-.17.227-.284.454-.454a5.964,5.964,0,0,0-.114-.739.927.927,0,0,1,.454-.511c0-.057-.057-.114-.17-.114Zm-3.579.8a3.225,3.225,0,0,0-.568,1.932,1.589,1.589,0,0,0,.057.341h.114a6.657,6.657,0,0,0,.909-.852l-.17-.568V24.5a.694.694,0,0,0,.17-.511Q319.432,23.906,318.921,23.821Zm2.556,2.386h.057v.057a.725.725,0,0,1-.284.4A2.589,2.589,0,0,1,321.477,26.207Zm21.872.682c-.227,0-.454.227-.625.625v.227l.114.17.682-.8v-.057Q343.434,26.889,343.349,26.889ZM317.9,28.082a.122.122,0,0,0-.114.114c.227.284.4.4.625.4h.057a.122.122,0,0,0,.114-.114v-.057A.687.687,0,0,0,317.9,28.082Zm24.883.057a.122.122,0,0,0-.114.114l.057.114a.122.122,0,0,0,.114-.114Zm-.909.511q-.17.085-.17.17v.114a.122.122,0,0,0,.114.114h.114q.17-.085.17-.17v-.114a.122.122,0,0,0-.114-.114Zm-.909.4a.582.582,0,0,0-.284.341c0,.114.057.17.114.17h.057c.227-.17.284-.227.284-.284v-.114c0-.057,0-.114-.114-.114Zm.739.227a1.176,1.176,0,0,0-.8.511l.227.114c.227,0,.4-.17.568-.511Zm-22.44.625a.122.122,0,0,0-.114.114c0,.114,0,.114.114.114h.057v-.114Zm-.227.511a.209.209,0,0,1-.057.17.431.431,0,0,0,.114.227l.17-.114c-.057-.17-.114-.284-.17-.284Zm1.7,1.363a.122.122,0,0,1,.114-.114v.454c-.057,0-.057-.057-.114-.114Zm-3.977.454q.085,0,.17.341l-.114,1.136v.227a1.483,1.483,0,0,1-.17.568c-.114,1.079-.227,1.647-.4,1.647h-.057l-.057-.4v-.17a2.28,2.28,0,0,1,.17-.852C316.308,33.252,316.478,32.4,316.762,32.229Zm3.977.284h.114l.057.4c-.057.4-.17.568-.284.568h-.114c-.057,0-.057,0-.114-.114v-.057A1.71,1.71,0,0,1,320.739,32.513Zm19.429.4c.057,0,.114,0,.114.114l-.057.114c-.114,0-.114-.057-.114-.114Zm-19.827,1.818h.114c0,.057.057.17.057.227a6.8,6.8,0,0,1-.17.8h-.114a.209.209,0,0,0-.057-.17Zm18.236.966c.227-.4.454-.625.739-.625h.057q-.17.682-.341.682h-.17Zm-20.395.4c-.057,0-.114,0-.114.114v.17l.114.114c.17,0,.284-.057.284-.114v-.057C318.466,36.263,318.353,36.149,318.182,36.092Zm-.17,1.023c-.114.114-.227.17-.227.227V37.4c0,.114.057.114.114.114h.17c0-.057,0-.057.057-.17C318.126,37.285,318.069,37.228,318.012,37.115Zm20.224.8a.122.122,0,0,0-.114.114v.114a.122.122,0,0,0,.114-.114Zm-19.486.227a.122.122,0,0,1,.114-.114h.057a.122.122,0,0,1,.114.114v.17A.519.519,0,0,0,318.75,38.137Zm.568.17a.341.341,0,0,0,.227-.057h.057l-.057.227h-.227Zm-1.477.227q-.085,0-.17.341v.284c.114.114.17.227.227.227h.114c.057,0,.114-.114.17-.227-.057-.454-.114-.625-.17-.625Zm19.77,0v.114h.17v-.114Zm-.341.454q-.17.085-.17.17v.114h.17q.17-.085.17-.17c0-.057,0-.114-.114-.114Zm-.568.511v.114h.114V39.5Zm-17.327.625a.342.342,0,0,0,.227-.057,9.21,9.21,0,0,0,.17,1.193,1.41,1.41,0,0,0-.057.511c-.114,0-.227-.17-.341-.454,0-.511.057-.852.057-1.023A.249.249,0,0,1,319.375,40.126Zm-1.647.057c0,.341.057.739.057,1.25l-.057.4c.114.341.17.511.284.511h.057v-.17a8.885,8.885,0,0,0-.227-1.988Zm1.7,3.238c0-.057,0-.057.114-.114h.114q.17.085.17.17v.341c-.227,0-.341-.057-.4-.227Z" transform="translate(0.76 44.26)" fill="#19a8d4" stroke="#19a8d4" stroke-width="0.5"/>
</svg>
