<svg xmlns="http://www.w3.org/2000/svg" xmlns:xlink="http://www.w3.org/1999/xlink" width="375.001" height="527.001" viewBox="0 0 375.001 527.001">
  <defs>
    <linearGradient id="linear-gradient" x1="-0.109" y1="0.03" x2="1.056" y2="0.979" gradientUnits="objectBoundingBox">
      <stop offset="0" stop-color="#dcf3ff"/>
      <stop offset="0.192" stop-color="#cbedff"/>
      <stop offset="0.406" stop-color="#afe5ff"/>
      <stop offset="0.59" stop-color="#ebf4ff"/>
      <stop offset="0.812" stop-color="#e1ecff"/>
      <stop offset="1" stop-color="#96c4db"/>
    </linearGradient>
  </defs>
  <path id="前面オブジェクトで型抜き_5" data-name="前面オブジェクトで型抜き 5" d="M965.221,1689H924.894v-.984H960.18v-10.671H924.894v-33.709h38.146V1632.9H913.45V1689H862.912l34.734-53.278V1632.9H827.891v10.741h52.18L850.577,1689H798.709L777.891,1632.9H766.039L745.3,1689H681.638V1632.9H670.193V1689H645.2c-.242-.3-.5-.592-.754-.878-3.933-4.339-9.251-6.942-15.8-7.738v-.283a24.4,24.4,0,0,0,12.4-9.046,25.4,25.4,0,0,0,4.5-14.981,21.2,21.2,0,0,0-7.425-16.748c-4.927-4.267-11.688-6.431-20.1-6.431H590.221V1214.29H618.7c9.086,0,16.717-2.71,22.684-8.056s8.992-12.43,8.992-21.059c0-6.94-1.994-12.658-5.927-17a23.072,23.072,0,0,0-9.2-6.179h34.947v52.29h50.682v-10.741H681.638V1162H747.9l-19.332,52.29h12.739l9.741-28.408h41.417l10.354,28.408h12.67L796.09,1162h59.075l-31.838,48.969v3.321h72.956v-10.741H840.425L867.513,1162H913.45v52.29H965.22V1689Zm-178.683,0H757.032l13.025-37.024a39.255,39.255,0,0,0,1.567-6.784h.273a42.883,42.883,0,0,0,1.5,6.784L786.537,1689Zm-158.693,0H601.665v-1.973h13.147A37.383,37.383,0,0,1,627.845,1689Zm-14.463-12.644H601.665v-32.719h13.147a32.587,32.587,0,0,1,8.2.923,15.907,15.907,0,0,1,5.854,2.77,11.523,11.523,0,0,1,3.512,4.616,16.572,16.572,0,0,1,1.171,6.462,20.13,20.13,0,0,1-1.345,7.588,14.887,14.887,0,0,1-4.036,5.662,17.831,17.831,0,0,1-6.387,3.525A27.811,27.811,0,0,1,613.382,1676.356ZM965.222,1203.55H924.894v-35.474h35.285V1162h5.042v41.549Zm-348.026,0H601.664v-36.464h13.147a42.393,42.393,0,0,1,10.312,1.122,20.322,20.322,0,0,1,7.366,3.366,14.067,14.067,0,0,1,4.42,5.609,19.537,19.537,0,0,1,1.473,7.853,20.285,20.285,0,0,1-1.388,7.7,15.826,15.826,0,0,1-4.164,5.865,18.19,18.19,0,0,1-6.684,3.71A29.8,29.8,0,0,1,617.2,1203.548Zm171.526-28.337H754.867L759.515,1162h24.518l4.689,13.21Z" transform="translate(-590.221 -1162)" opacity="0.41" fill="url(#linear-gradient)" style="mix-blend-mode: color-dodge;isolation: isolate"/>
</svg>
