<svg xmlns="http://www.w3.org/2000/svg" xmlns:xlink="http://www.w3.org/1999/xlink" width="1920" height="875.999" viewBox="0 0 1920 875.999">
  <defs>
    <linearGradient id="linear-gradient" x1="-0.109" y1="0.03" x2="1.056" y2="0.979" gradientUnits="objectBoundingBox">
      <stop offset="0" stop-color="#dcf3ff"/>
      <stop offset="0.192" stop-color="#cbedff"/>
      <stop offset="0.406" stop-color="#afe5ff"/>
      <stop offset="0.59" stop-color="#ebf4ff"/>
      <stop offset="0.812" stop-color="#e1ecff"/>
      <stop offset="1" stop-color="#96c4db"/>
    </linearGradient>
  </defs>
  <path id="前面オブジェクトで型抜き_2" data-name="前面オブジェクトで型抜き 2" d="M1471.621,870h-78.312l63.362-97.253v-4.876H1336.425V786.4h89.95L1372.056,870h-83.95l-37.872-102.129H1229.8L1192.068,870H1084.31V767.869h-19.728V870h-39.455a37.288,37.288,0,0,0-4.932-6.865,39.421,39.421,0,0,0-11.918-8.975,47.888,47.888,0,0,0-15.325-4.373V849.3a45.27,45.27,0,0,0,12.154-6.217,40.559,40.559,0,0,0,9.217-9.387,41.147,41.147,0,0,0,5.813-11.945,48.367,48.367,0,0,0,1.938-13.9,39.557,39.557,0,0,0-3.2-16.121,36.4,36.4,0,0,0-9.6-12.769,42.669,42.669,0,0,0-15.06-8.32,64.384,64.384,0,0,0-19.581-2.774h-47.91V870H822.372v-7.048H883.2V844.544H822.372V786.4H888.13V767.869H802.643V870H712.038L775.4,772.746v-4.876H655.155V786.4H745.1L690.785,870h-83.95L568.964,767.869H548.532L510.8,870H403.04V767.869H383.312V870H343.857a37.278,37.278,0,0,0-4.932-6.865,39.421,39.421,0,0,0-11.918-8.975,47.888,47.888,0,0,0-15.325-4.373V849.3a45.255,45.255,0,0,0,12.154-6.217,40.569,40.569,0,0,0,9.218-9.387,41.127,41.127,0,0,0,5.813-11.945,48.372,48.372,0,0,0,1.938-13.9,39.552,39.552,0,0,0-3.2-16.121,36.393,36.393,0,0,0-9.6-12.769,42.662,42.662,0,0,0-15.06-8.32,64.383,64.383,0,0,0-19.581-2.774h-47.91V870H130.919v-7.048h60.827V844.544H130.919V786.4h65.759V767.869H111.192V870H20.586l63.362-97.253v-4.876H-36.3V786.4H53.652L-.668,870H-84.617l-37.871-102.129h-20.433L-180.655,870H-288.413V767.869H-308.14V870H-347.6a37.287,37.287,0,0,0-4.932-6.865,39.428,39.428,0,0,0-11.919-8.975,47.888,47.888,0,0,0-15.325-4.373V849.3a45.26,45.26,0,0,0,12.155-6.217,40.561,40.561,0,0,0,9.218-9.387,41.142,41.142,0,0,0,5.812-11.945,48.379,48.379,0,0,0,1.937-13.9,39.557,39.557,0,0,0-3.2-16.121,36.386,36.386,0,0,0-9.6-12.769,42.662,42.662,0,0,0-15.06-8.32,64.382,64.382,0,0,0-19.581-2.774H-446V870h-2.38V64.248a44.529,44.529,0,0,0,5.622-12.5,54.64,54.64,0,0,0,1.874-14.566,51.287,51.287,0,0,0-1.874-14.212,38.451,38.451,0,0,0-5.622-11.731V-6h41.667V87.4h87.366V68.872h-67.639V-6h115.416l-34.509,93.4h21.959l16.792-49h71.4l17.849,49h21.841L-190.875-6h105.1l-56.965,87.672V87.4H-16.972V68.872h-96.29L-64.482-6h77.1V87.4h89.244V68.872H32.347V7.68H93.174V-6h53.707V87.4h49.085a64.35,64.35,0,0,0,21.577-3.474A52.442,52.442,0,0,0,235.069,73.5a47.743,47.743,0,0,0,6.781-7.481,44.009,44.009,0,0,0,4.844-8.548,51.462,51.462,0,0,0,3.875-20.3,49.677,49.677,0,0,0-2.554-16.349,37.637,37.637,0,0,0-7.662-12.967,39.43,39.43,0,0,0-11.919-8.975A47.884,47.884,0,0,0,213.11-5.485v-.487l.064-.022L213.189-6H284.74V87.4h87.366V68.872H304.468V-6H419.885L385.376,87.4h21.958l16.792-49h71.4l17.849,49h21.842L500.577-6h105.1L548.717,81.672V87.4H674.48V68.872H578.191L626.971-6h77.1V87.4h89.245V68.872H723.8V7.68h60.827V-6h43.525V87.4h49.085a64.351,64.351,0,0,0,21.577-3.474A52.447,52.447,0,0,0,916.34,73.5a47.713,47.713,0,0,0,6.781-7.481,44,44,0,0,0,4.844-8.548,51.457,51.457,0,0,0,3.875-20.3,49.68,49.68,0,0,0-2.554-16.349,37.632,37.632,0,0,0-7.662-12.967,39.42,39.42,0,0,0-11.918-8.975,47.889,47.889,0,0,0-15.325-4.373v-.487L894.459-6h71.551V87.4h87.366V68.872H985.739V-6h115.416l-34.509,93.4H1088.6l16.792-49h71.4l17.849,49h21.841L1181.848-6h105.1l-56.965,87.672V87.4h125.764V68.872h-96.29L1308.242-6h77.1V87.4h86.279V870Zm-204.582,0h-54.644l24.336-69.216a67.661,67.661,0,0,0,2.7-11.7h.47a73.846,73.846,0,0,0,2.583,11.7L1267.038,870v0h0v0Zm-266.2,0H946.451v-8.754h22.664a71.25,71.25,0,0,1,18.733,2.189A33.063,33.063,0,0,1,1000.833,870Zm-415.067,0H531.124l24.336-69.216a67.732,67.732,0,0,0,2.7-11.7h.47a73.886,73.886,0,0,0,2.583,11.7L585.768,870v0h0v0Zm-266.2,0H265.18v-8.754h22.664a71.246,71.246,0,0,1,18.732,2.189A33.062,33.062,0,0,1,319.563,870Zm-425.25,0h-54.644l24.336-69.216a67.649,67.649,0,0,0,2.7-11.7h.47a74.092,74.092,0,0,0,2.583,11.7Zm-266.2,0h-54.383v-8.754h22.663a71.249,71.249,0,0,1,18.732,2.189A33.061,33.061,0,0,1-371.89,870ZM966.648,842.837h-20.2V786.4h22.664a56.137,56.137,0,0,1,14.128,1.592,27.415,27.415,0,0,1,10.092,4.777,19.873,19.873,0,0,1,6.055,7.961,28.6,28.6,0,0,1,2.018,11.146,34.733,34.733,0,0,1-2.319,13.089,25.678,25.678,0,0,1-6.957,9.767,30.74,30.74,0,0,1-11.009,6.08A47.915,47.915,0,0,1,966.648,842.837Zm-681.27,0h-20.2V786.4h22.664a56.145,56.145,0,0,1,14.128,1.592,27.412,27.412,0,0,1,10.091,4.777,19.872,19.872,0,0,1,6.055,7.961,28.6,28.6,0,0,1,2.018,11.146,34.737,34.737,0,0,1-2.32,13.089,25.682,25.682,0,0,1-6.957,9.767,30.745,30.745,0,0,1-11.009,6.08A47.91,47.91,0,0,1,285.378,842.837Zm-691.453,0h-20.2V786.4h22.663a56.142,56.142,0,0,1,14.128,1.592,27.415,27.415,0,0,1,10.092,4.777,19.878,19.878,0,0,1,6.055,7.961,28.6,28.6,0,0,1,2.018,11.146,34.743,34.743,0,0,1-2.319,13.089,25.68,25.68,0,0,1-6.958,9.767,30.736,30.736,0,0,1-11.009,6.08A47.91,47.91,0,0,1-406.074,842.837Zm1877.7-773.964H1405.07V7.68H1465.9V-6h5.723V68.872Zm-596.968,0H847.879V5.973h22.664a73.029,73.029,0,0,1,17.776,1.935,35.022,35.022,0,0,1,12.7,5.805,24.263,24.263,0,0,1,7.618,9.675,33.718,33.718,0,0,1,2.539,13.546,35.013,35.013,0,0,1-2.393,13.287A27.306,27.306,0,0,1,901.6,60.34a31.352,31.352,0,0,1-11.523,6.4A51.332,51.332,0,0,1,874.653,68.872Zm-681.27,0H166.609V5.973h22.664a73.028,73.028,0,0,1,17.775,1.935,35.021,35.021,0,0,1,12.7,5.805,24.26,24.26,0,0,1,7.618,9.675A33.72,33.72,0,0,1,229.9,36.935a35.009,35.009,0,0,1-2.393,13.287,27.3,27.3,0,0,1-7.178,10.117,31.35,31.35,0,0,1-11.522,6.4A51.339,51.339,0,0,1,193.382,68.872Zm976.952-48.881h-58.361L1121.111-6h40l9.22,25.99Zm-681.271,0H430.7L439.84-6h40l9.22,25.99Zm-691.453,0h-58.362L-251.612-6h40l9.22,25.99Z" transform="translate(448.379 5.999)" opacity="0.41" fill="url(#linear-gradient)" style="mix-blend-mode: color-dodge;isolation: isolate"/>
</svg>
