<svg xmlns="http://www.w3.org/2000/svg" width="56.364" height="20.387" viewBox="0 0 56.364 20.387">
  <path id="パス_309" data-name="パス 309" d="M11.237-11.3a.526.526,0,0,0-.171.081,1.958,1.958,0,0,0-.618.6,17.042,17.042,0,0,0-1.5,3.106,14.5,14.5,0,0,1-.61,1.463,10.192,10.192,0,0,1-.634,1.821,3.337,3.337,0,0,0-.236.781h.016l.041-.033c0-.081.024-.122.065-.122H7.6c-.041.146-.065.22-.081.22H7.432c-.016,0-.041.033-.081.114a20.946,20.946,0,0,0-2.317.683,14.834,14.834,0,0,0-1.854.846H3.171a36.929,36.929,0,0,1,1.561-4.1c.6-1.48,1.057-2.5,1.35-3.041.293-.439.439-.675.439-.691v-.016c-.008-.13-.024-.2-.041-.2s-.049.033-.057.1l-.041-.024A.337.337,0,0,1,6.391-9.8L6.383-9.82q-.1,0-.366-.024a.414.414,0,0,0-.252.13A1.978,1.978,0,0,0,5.2-9.2q-.7,1.3-1.545,3.39-1.244,3.244-1.764,4.5c0,.1-.13.236-.382.415C1.033-.649.675-.454.431-.3a4.252,4.252,0,0,0-.7.569V.278A.542.542,0,0,1-.1.2L-.04.221V.254L-.065.278A.789.789,0,0,1-.536.546C-.553.546-.6.538-.7.53-.764.538-.8.546-.8.546A.359.359,0,0,0-1.032.9c0,.187.154.333.472.447a.932.932,0,0,0,.268-.106c1.049-.667,1.585-1,1.618-1a.121.121,0,0,1-.008.057l.016.122L1.326.465A1.418,1.418,0,0,0,1.2.88a.424.424,0,0,0,.049.2A.215.215,0,0,0,1.374,1,3.56,3.56,0,0,1,1.48.652L1.472.628C1.472.611,1.48.6,1.488.6H1.5V.619h.049q.024,0,.049-.2A.556.556,0,0,0,1.724.2V.189c0-.057-.016-.089-.049-.106a.31.31,0,0,1,.179-.122H1.87l.008.073A.116.116,0,0,0,1.83.05a1.279,1.279,0,0,1-.154.423.435.435,0,0,1-.065.26,1.114,1.114,0,0,1-.13.439A11.8,11.8,0,0,0,.943,2.855L.927,2.847c-.016,0-.033.024-.049.065,0,.016.016.033.049.073a.217.217,0,0,0-.114.081,1.12,1.12,0,0,1-.293.618v.024a.137.137,0,0,0,.024.081l-.033.024H.464v-.1c0-.065,0-.146.008-.236.057-.2.114-.4.154-.585a12.744,12.744,0,0,0,.561-1.7.061.061,0,0,0-.008-.033c-.122.041-.187.106-.187.2-.073.179-.179.488-.325.927,0,.016-.13.4-.39,1.13a2.373,2.373,0,0,0-.187.675v.057c.008.122.024.179.041.179,0,.073.106.122.309.154a.292.292,0,0,0,.2.081.569.569,0,0,0,.3-.065c.081,0,.179-.138.276-.431.171-.2.26-.325.26-.382s-.065-.089-.179-.114A38.983,38.983,0,0,1,2.61-.316q0-.171.341-.341,1.927-.951,3.61-1.626a.61.61,0,0,0,.26.138l.049-.016a1.316,1.316,0,0,1,.187-.081h.024l-.114.187c-.081,0-.146.154-.211.472v.008h.024a.323.323,0,0,0,.106-.089c.049.016.081.024.081.041V-1.6a.95.95,0,0,1-.1.325c0,.033.041.073.106.106a2,2,0,0,1-.26.244A.017.017,0,0,1,6.7-.942v-.065c.008-.016.016-.033.033-.033A.088.088,0,0,0,6.708-1.1a1.126,1.126,0,0,0-.163.236A1.158,1.158,0,0,1,6.6-1.072c-.008-.049-.016-.081-.041-.081H6.554a.294.294,0,0,0-.057.2l.016.244c0,.024-.041.049-.13.081v.024l.049.016.016-.016A.04.04,0,0,0,6.44-.633V-.649l.041.024c0,.057-.041.1-.13.106V-.5a.077.077,0,0,0,.057.049v.016c-.041.041-.057.065-.057.073v.057a.472.472,0,0,1-.114.26c0-.041-.008-.065-.008-.1H6.2v.016A.342.342,0,0,0,6.123.14V.156h.033L6.171.148A.126.126,0,0,1,6.2.2L6.188.254h.041A3.922,3.922,0,0,1,6.513-.5c.024-.13.049-.2.089-.2l.016.049v.024a1.4,1.4,0,0,1-.041.163L6.732-.4c0,.008-.008.049-.016.122v.008h.024a1.816,1.816,0,0,0,.154-.431c-.008-.024-.024-.033-.033-.033H6.854a.882.882,0,0,1-.106.065q-.037,0-.049-.073l.081-.033a.134.134,0,0,0,.081.016c.016,0,.024,0,.024-.016V-.787A.758.758,0,0,0,6.871-.9c.041-.057.081-.081.106-.081a1.174,1.174,0,0,1,.179-.35.188.188,0,0,1,.13.1v.041l-.024.073H7.155l-.024.008A1.121,1.121,0,0,1,7.171-.9v.016a1.742,1.742,0,0,1-.122.407.442.442,0,0,1-.114.2v.138H6.887l-.024.016c0,.008.008.016.008.024a1.068,1.068,0,0,1-.081.325.244.244,0,0,1-.13.163l.008.049V.465a1.388,1.388,0,0,1-.122.463A10.822,10.822,0,0,0,5.887,2.75h.008c.033-.041.057-.057.065-.057v.041c0,.033-.049.073-.138.122L5.854,3a.181.181,0,0,1-.089.138,1.238,1.238,0,0,0,.024-.154V2.969a3.233,3.233,0,0,0-.333.87q-.085,1-.22,1H5.2a.32.32,0,0,0-.016-.049,1.936,1.936,0,0,0,.122-.724V3.912h.016v.024l.057-.008V3.9a.389.389,0,0,1-.065-.089H5.285a.718.718,0,0,1-.049.13H5.228c0-.016-.008-.065-.008-.154,0-.008.008-.016.041-.033l.057.016h.008a.507.507,0,0,0,.089-.138c.057-.024.089-.041.089-.065V3.563A.073.073,0,0,0,5.5,3.522c-.081-.081-.114-.138-.114-.163V3.278l.016.008c.016,0,.041.033.073.106H5.48a.661.661,0,0,0,.033-.138V3.246c-.1-.089-.138-.146-.138-.179a1.006,1.006,0,0,0,.106-.244.506.506,0,0,0-.13-.033,1.146,1.146,0,0,0-.122.545.685.685,0,0,0-.154.309,1.411,1.411,0,0,0,.008.146L5,4.01v.024H4.927a.04.04,0,0,0-.008-.024c.033-.244.106-.6.211-1.073a.008.008,0,0,1-.008-.008.2.2,0,0,0-.106.049c-.033.089-.106.317-.211.691-.146.618-.228.976-.236,1.081a1.162,1.162,0,0,0,.2.545A.369.369,0,0,1,5,5.416l.22-.033a.337.337,0,0,1,.1.057c.2-.146.309-.252.309-.333L5.594,4.8a8.264,8.264,0,0,1,.341-1.447c.447-1.3,1.2-3.317,2.244-6.033A3.422,3.422,0,0,1,8.96-2.82h.106c.187,0,.276.057.276.171-.016.146-.033.228-.033.244l.016.016c.024,0,.073-.033.13-.114.114,0,.163-.1.163-.293v-.081A.435.435,0,0,0,9.48-3.21,1.1,1.1,0,0,0,8.9-3.446a.4.4,0,0,0-.163.041.175.175,0,0,0-.089-.016H8.643a.3.3,0,0,0-.089.024c-.049-.008-.073-.016-.073-.041.057-.171.455-1.187,1.2-3.025A26.6,26.6,0,0,1,11.5-10.487a1.412,1.412,0,0,0,.333-.577c-.024-.081-.041-.122-.065-.122C11.773-11.235,11.594-11.267,11.237-11.3ZM8.009-3.73a5.046,5.046,0,0,1,.366-1.024,5.323,5.323,0,0,0,.431-1.163.959.959,0,0,0,.138-.2,1.731,1.731,0,0,1,.39-.781l-.073.228a3.549,3.549,0,0,0-.244.659,8.2,8.2,0,0,0-.35.862v.024l.049.057V-5c-.008.024-.041.041-.089.041H8.57a.517.517,0,0,0,.024.122H8.554L8.5-4.844a.782.782,0,0,0-.049.171l-.106.22v.041a.022.022,0,0,0,.024.024l.081-.057v.057a.346.346,0,0,1-.065.138H8.375c0-.008-.008-.033-.016-.073-.146.146-.22.26-.22.35a.687.687,0,0,0,.106.179.534.534,0,0,1-.179.049c.073.057.106.106.106.122a.162.162,0,0,0-.065.024C8.066-3.6,8.025-3.641,8.009-3.73ZM4.627-6.7h.041v.008a.505.505,0,0,0-.024.081.061.061,0,0,0-.033-.008v-.008Zm4.756.154c.016,0,.024-.008.041-.024H9.44a.061.061,0,0,0,.008.041.1.1,0,0,1-.049.065H9.383ZM3.342-4.064c0-.073.008-.114.033-.114.073,0,.122-.13.154-.39a.975.975,0,0,0,.2-.358,5.85,5.85,0,0,1,.341-.634.572.572,0,0,0,.171-.333,2,2,0,0,1,.3-.561.324.324,0,0,1-.057.2c-.057.236-.13.35-.211.35l.016.1v.049l-.106.2.008.024a.241.241,0,0,0-.033.089.862.862,0,0,0-.122.236v.179c-.089.049-.13.081-.13.089v.024a.113.113,0,0,0,.033.073v.008c-.057,0-.089.049-.106.146v.122a.017.017,0,0,0,.016.016H3.96v.024a4.8,4.8,0,0,0-.171.463c-.081.366-.2.545-.366.545a1.006,1.006,0,0,1-.3-.1c.073-.008.106-.016.106-.041V-3.69L3.22-3.714A.429.429,0,0,1,3.3-3.828v-.016c0-.016-.016-.024-.041-.024a.373.373,0,0,0,.008-.081.108.108,0,0,1,.065.024c.033,0,.057-.041.073-.106C3.407-4.047,3.383-4.056,3.342-4.064ZM9.1-5.844a.078.078,0,0,1,.057-.081v.073l-.049.008Zm-4.87.455h.016a1.3,1.3,0,0,1-.065.341,2.15,2.15,0,0,0-.2.447c-.024-.008-.033-.016-.033-.033V-4.8c.081-.016.138-.138.187-.366A.71.71,0,0,0,4.228-5.389ZM8.6-5.08c-.024.016-.041.024-.041.041s.024.033.033.033H8.6c.008,0,.024-.016.033-.041C8.627-5.072,8.611-5.08,8.6-5.08Zm.163.089c0-.041.024-.057.065-.057v.008l-.008.049ZM8.48-4.56c.016-.138.033-.2.049-.2a.445.445,0,0,0,.057.106Zm-4.691.106c-.016,0-.041.065-.057.187.008.024.016.041.033.041h.024a.333.333,0,0,1,.041-.138A.252.252,0,0,0,3.789-4.454Zm-.106.187c-.024.008-.033.016-.033.033v.016c0,.008.024.024.065.049q.024-.012.024-.024V-4.21c-.024,0-.041-.016-.041-.057ZM3.651-4.1c-.049,0-.081.016-.081.033v.008a.377.377,0,0,0,.073.146h.008c.033,0,.049-.057.065-.171L3.692-4.1Zm4.6.033c.008.008.033.008.049.008V-4H8.253Zm-5.13.236h.024v.008H3.122Zm.415-.008-.016.008c.008.049.016.073.041.073h.016c.016,0,.024-.008.024-.016V-3.82c0-.008-.008-.016-.024-.016Zm-.455.016.041.016v.033H3.106q-.012,0-.024-.024Zm4.74.5a.136.136,0,0,1,.13-.081c.024.008.033.033.033.065l-.008.016a.061.061,0,0,1-.033-.008,1.122,1.122,0,0,1-.114.008Zm.154.049h.008c.016,0,.024,0,.024.016a.049.049,0,0,0-.033.008H7.968A.082.082,0,0,1,7.976-3.267Zm-.187.057a.061.061,0,0,0,.033-.008c.016,0,.033.008.033.016v.033H7.789Zm.748.138.374-.041a1.625,1.625,0,0,0,.187.024h.1a.1.1,0,0,1,.089.057v.008a.348.348,0,0,1-.1.016c-.008,0-.1,0-.252-.016a5.087,5.087,0,0,1-.659.081V-2.95a.546.546,0,0,1,.22-.122ZM3.057-3.1h.016a.074.074,0,0,0,.024.041v.081c-.049.065-.089.1-.114.1H2.976A.56.56,0,0,1,3.057-3.1Zm.179.049c0-.008.008-.016.024-.016v.041c0,.016-.008.016-.024.016Zm-.35.374c.024.008.033.024.033.065V-2.6c0,.008-.024.024-.073.057v-.049A.152.152,0,0,1,2.887-2.673Zm.179,0h.089c-.016.065-.041.106-.057.106H3.082A.223.223,0,0,0,3.066-2.673Zm4.594.106.081.016a.118.118,0,0,1-.065.122.211.211,0,0,1-.081-.041.458.458,0,0,1-.081.106v.008c.073.057.114.1.114.138,0,.016-.041.041-.122.057v.033a.222.222,0,0,0,.1.073c0,.008-.016.024-.057.033A.342.342,0,0,1,7.5-2.039a.337.337,0,0,0-.1.033v.024a.45.45,0,0,1,.114.187v.016H7.513a.129.129,0,0,1-.081-.041.022.022,0,0,0-.024.024v.114a.509.509,0,0,1-.1.358H7.285A.155.155,0,0,1,7.2-1.47v-.008a.551.551,0,0,1,.089-.268c-.008,0-.008,0-.008-.008l-.049.008c-.016,0-.033-.073-.041-.22.1-.057.154-.114.154-.163a1.076,1.076,0,0,0-.057-.146A.215.215,0,0,1,7.375-2.3c.057,0,.1-.073.13-.211A.664.664,0,0,0,7.659-2.568ZM2.984-2.4c.016.008.033.024.033.033v.008a.5.5,0,0,1-.073.138.162.162,0,0,0-.024-.065A.418.418,0,0,1,2.984-2.4Zm-.236.049h.024c-.041.3-.106.447-.2.447H2.57l.008-.073a.219.219,0,0,0,.089-.081v-.008c-.016-.024-.024-.033-.033-.033,0-.033.041-.089.122-.179,0-.008-.008-.016-.024-.016Zm.244.13h.024a1.324,1.324,0,0,1-.065.154H2.927A.485.485,0,0,0,2.992-2.218Zm-.146.236h.016c0,.024,0,.041.016.041a1.022,1.022,0,0,1-.073.228H2.789a.162.162,0,0,0-.024-.065A1.167,1.167,0,0,1,2.846-1.982Zm.959.228a.157.157,0,0,1,.122-.081h.016v.008a.147.147,0,0,1-.13.073ZM2.5-1.706c.016-.041.041-.065.065-.065V-1.7H2.553Zm4.594.024c.041.008.065.033.065.065a.29.29,0,0,1-.106.041A.71.71,0,0,0,7.09-1.681Zm-3.415.1a.522.522,0,0,0,.089-.041.043.043,0,0,1-.049.049H3.675ZM2.439-1.6l.049.008c0,.041-.008.065-.033.073A.358.358,0,0,0,2.439-1.6Zm.683.1a.121.121,0,0,0,.057-.008.618.618,0,0,1,.252-.081.822.822,0,0,1-.35.187H3.066A.639.639,0,0,0,3.1-1.5Zm-.8.146c0-.049.033-.089.1-.114h.016c0,.073-.024.114-.073.114Zm4.5-.089c-.024.008-.033.016-.033.024v.016c.016.016.024.033.033.033L6.854-1.4l-.008-.049Zm.2.008c.041.024.065.041.065.049v.016c-.016.024-.033.041-.041.041H7.041l-.016-.057Zm-.358.089q-.012,0-.024.024c.016.016.024.033.033.033h.016c.008,0,.016-.008.016-.024s-.016-.033-.033-.033Zm-3.586.024H3.1c.008,0,.016.016.024.041H3.082Zm3.659.049L6.7-1.2l.033.065c.049-.041.065-.065.065-.073v-.016A.086.086,0,0,0,6.741-1.275Zm-.154.008c-.016,0-.024.024-.033.065a.022.022,0,0,0,.024.024H6.6a.141.141,0,0,0,.057-.073l-.024-.016Zm.61,0c-.024.016-.033.024-.033.033V-1.2c0,.016.008.024.016.024A.108.108,0,0,0,7.245-1.2c-.016-.041-.033-.065-.041-.065Zm-.114.309v.016c.008.016.016.024.016.041h.008a.022.022,0,0,0,.024-.024c0-.008-.016-.016-.041-.033Zm-.057.146a.089.089,0,0,1-.049.024c0,.081.024.13.065.138.033-.057.057-.089.065-.089L7.1-.763l-.016.016A.151.151,0,0,1,7.025-.811ZM.943-.389a1.18,1.18,0,0,0,.333-.171.772.772,0,0,1,.374-.22h.016v.016a.488.488,0,0,1-.22.2c-.187.057-.276.106-.276.154a1.537,1.537,0,0,0-.333.171H.724l.1-.081V-.324L.8-.356V-.4h.1ZM1.4-.34A.1.1,0,0,1,1.456-.4h.033v.033a.207.207,0,0,1-.016.057C1.431-.324,1.407-.34,1.4-.34ZM.9-.1q.11-.061.439-.2v.016c0,.049-.041.081-.122.081-.041,0-.1.073-.171.211H1.033A.464.464,0,0,1,.9-.1Zm1.146.065.081-.049a.186.186,0,0,1,.1-.154v.008a1.881,1.881,0,0,1-.163.472H2.049c0-.016-.024-.073-.057-.171C2,.067,2,.058,2,.05c.033.024.049.033.049.049L2.065.083A.5.5,0,0,1,2.049-.039ZM6.6-.25c-.016,0-.041.041-.065.138.041.073.065.106.081.106L6.7-.08A.191.191,0,0,0,6.6-.25ZM.374,0c0-.041.065-.089.2-.13H.594c0,.033-.065.081-.2.13Zm6.1-.13a.362.362,0,0,0-.081.236H6.4A.208.208,0,0,0,6.48-.039V-.129Zm.26.089c0,.008-.008.008-.016.008a.151.151,0,0,0,.057.065h.008C6.8.026,6.814.01,6.814,0V-.007A.217.217,0,0,1,6.732-.039ZM.74.107A.92.92,0,0,0,.9.05V.067L.87.107A.217.217,0,0,0,.74.156ZM6.545.067,6.472.075A.3.3,0,0,0,6.521.2c.016,0,.041-.024.073-.081V.107C6.578.075,6.562.067,6.554.067ZM.488.3C.488.286.5.278.5.278.5.18.537.124.618.124A.06.06,0,0,0,.683.189.236.236,0,0,1,.5.3ZM.391.18H.423C.439.189.448.2.464.2A.119.119,0,0,0,.423.262.2.2,0,0,1,.366.221.074.074,0,0,0,.391.18Zm5.659,0L6.041.2V.254L6.049.27c.041-.024.065-.041.065-.049S6.09.2,6.049.18Zm.309,0a.2.2,0,0,0-.081.171l.008.065H6.31c.033,0,.057-.073.073-.211A.022.022,0,0,0,6.358.18ZM6.5.254a.519.519,0,0,0-.065.13l.033.041A.065.065,0,0,0,6.513.351v-.1Zm.13,0C6.6.262,6.594.27,6.594.278V.294a.044.044,0,0,0,.033.024c.008,0,.016-.008.033-.041C6.643.262,6.635.254,6.627.254ZM1.83.741c.016,0,.033-.065.049-.2,0-.163.049-.244.138-.244h.008c-.545,1.659-.837,2.529-.886,2.618L1.122,2.9,1.1,2.912a.667.667,0,0,1-.033-.089V2.79a2.976,2.976,0,0,0,.309-.7,1.787,1.787,0,0,1,.114-.407.416.416,0,0,0-.057-.114A.3.3,0,0,0,1.5,1.433c.089-.024.138-.041.138-.049V1.327l-.008-.016c.024,0,.049-.057.073-.163l-.033-.1c0-.016.008-.033.041-.041,0,.008,0,.008.008.008H1.74l.016-.008L1.724.961c.024-.114.041-.228.057-.341h.008c.016.065.033.106.033.122ZM6.082.311a.2.2,0,0,0-.106.033.435.435,0,0,0,.033.146A.311.311,0,0,0,6.082.343ZM-.439.335q-.1.012-.1.049V.424A.251.251,0,0,0-.52.489c.049,0,.1-.041.171-.114,0-.008-.024-.024-.057-.041ZM6.139.351,6.131.408c.016.016.024.024.033.024s.024-.008.024-.016V.408L6.171.351ZM.171.424C.179.392.187.376.2.376.236.416.261.432.269.432.2.514.13.563.082.563H.057C.074.514.09.5.1.5L.09.473A.365.365,0,0,0-.032.53.645.645,0,0,1-.219.758.5.5,0,0,1-.268.717.559.559,0,0,0-.479.782H-.487V.766c.26-.179.431-.293.5-.35A.217.217,0,0,1,.122.457.088.088,0,0,0,.179.432C.179.424.179.424.171.424ZM6.586.359c-.033.024-.049.033-.049.049a.088.088,0,0,0,.016.057c.033,0,.057-.008.065-.033V.416L6.6.359ZM6.4.465q-.037.012-.073.1c0,.008-.033.13-.1.358V.953l.008.016L6.31.961a.061.061,0,0,1,.033.008c0-.008,0-.008.008-.008A.179.179,0,0,1,6.318.855V.847A.307.307,0,0,1,6.4.668l.049.1C6.488.741,6.5.725,6.5.717V.7L6.432.619V.53C6.432.5,6.423.473,6.4.465ZM6.245.5A.073.073,0,0,0,6.2.506a1.289,1.289,0,0,0-.081.252h.008c.073,0,.114-.065.138-.187A.131.131,0,0,0,6.245.5ZM-.195.644C-.219.652-.227.66-.227.668V.7h.016C-.195.7-.187.693-.187.685V.66ZM5.846.872A.131.131,0,0,0,5.773.9c.016.033.024.049.041.057h.041L5.879.937A.442.442,0,0,0,5.846.872Zm.35.179a.271.271,0,0,0-.081.179v.008c0,.016.008.024.016.024h.008a.887.887,0,0,1,.073-.171V1.083Zm.3.138a.106.106,0,0,1,.057-.1v.065a.129.129,0,0,1-.041.081A.017.017,0,0,1,6.5,1.221ZM6,1.107l-.073.2c0,.016.033.033.081.033h.008V1.107Zm.276.024c-.024.016-.041.033-.041.041.008.024.016.033.033.033s.016-.008.024-.041Zm-4.943.016a.231.231,0,0,0-.073.081l.024.057c.049-.024.073-.049.073-.057V1.148Zm4.39.016c-.041.024-.057.041-.057.057v.016c.024.033.041.049.057.049l.049-.049c-.016-.049-.024-.073-.041-.073Zm.163.268c-.024,0-.041.049-.041.138v.008l.008.049h.008a.124.124,0,0,0,.057-.1l-.024-.1Zm.228,0c-.049,0-.106.049-.179.138A.185.185,0,0,0,6,1.685h.008a1.773,1.773,0,0,1,.114-.244C6.114,1.441,6.114,1.441,6.114,1.433Zm.2.3a.319.319,0,0,1,.114-.252.088.088,0,0,0,.016.057A.944.944,0,0,0,6.31,1.733Zm-.634-.146c-.008,0-.016.016-.024.041a.061.061,0,0,0,.008.033c.016-.008.033-.024.033-.033V1.587Zm.415.041c-.008,0-.016.008-.016.024v.033h.008c.008,0,.016-.016.033-.049V1.628Zm-.577.057v.008c.016.016.024.033.033.033h.008A.022.022,0,0,0,5.578,1.7V1.685Zm.431.065-.049.016a1.514,1.514,0,0,1-.146.39.146.146,0,0,0,.033.073c.033,0,.057-.065.065-.187A.452.452,0,0,0,5.96,1.79V1.774Zm.089.024a.909.909,0,0,0-.065.2c.008,0,.008.008.008.016a.325.325,0,0,0,.073-.22Zm.138.236a.143.143,0,0,1,.073-.065h.008v.089L6.2,2.083c-.016,0-.024-.024-.033-.065Zm-.634.333a.074.074,0,0,1-.024.041c.016.016.024.024.033.024h.008c.024-.008.033-.016.033-.024a.053.053,0,0,1-.016-.041Zm-.26.138c-.089,0-.154.122-.2.35a.146.146,0,0,0,.033.065,2.415,2.415,0,0,0,.179-.39ZM5.44,2.6a.085.085,0,0,0-.041.073.073.073,0,0,0,.033.065H5.44a.766.766,0,0,1,.033-.081C5.464,2.611,5.456,2.6,5.44,2.6ZM.708,2.888l-.041.041a.017.017,0,0,0,.016.016H.7a.017.017,0,0,0,.016-.016V2.888Zm4.911.073a.1.1,0,0,0-.065.049v.057H5.57c.008,0,.024-.033.057-.1A.008.008,0,0,1,5.618,2.961ZM.87,3.53c.114-.358.2-.545.236-.545a2.369,2.369,0,0,1-.2.6C.887,3.571.87,3.563.87,3.555ZM.6,3.408c-.008,0-.016.008-.016.024s.016.033.033.033.016-.008.016-.024V3.408Zm4.716.114h.073a.326.326,0,0,0-.049.106H5.326l-.008-.057ZM.594,3.644l.024.016L.6,3.709H.594ZM.838,3.7c.024,0,.033.024.033.057s-.008.057-.033.065H.83A.074.074,0,0,0,.789,3.8V3.774Zm4.057.886c.016,0,.024.008.033.041l-.016.024-.049-.024Zm.26.4q.037-.049.049-.049H5.22l.049.041a.1.1,0,0,1-.049.073C5.179,5.026,5.163,5.01,5.155,4.986ZM14.241-4.73c-.122.024-.187.041-.187.057a.71.71,0,0,0-.106-.041c-.057,0-.146.13-.26.4a3.985,3.985,0,0,0-.187.862q.024.293.2.293H13.7q.22,0,.463-.415a2.71,2.71,0,0,0,.333-.789v-.024C14.5-4.511,14.42-4.617,14.241-4.73Zm-.675,2.008a.825.825,0,0,0-.325.106,1.18,1.18,0,0,0-.374.325,9.241,9.241,0,0,0-.667,1.22,8.444,8.444,0,0,0-.821,2.789v.13a.808.808,0,0,0,.033.228,1.032,1.032,0,0,0,1.081.61,2.513,2.513,0,0,0,1.447-.61,5.032,5.032,0,0,0,.829-.732A2.458,2.458,0,0,0,15.306.75V.741a.062.062,0,0,0-.065.049,3.1,3.1,0,0,0-.39.382,2.762,2.762,0,0,0-.374.358,1.512,1.512,0,0,0-.236.187.988.988,0,0,1-.3.236.6.6,0,0,1-.3.154h-.008a.16.16,0,0,1,.033-.065q.22-.171.22-.268h-.008a.613.613,0,0,1-.244.106h-.016c.016-.016.016-.024.016-.033l.317-.252a1.312,1.312,0,0,0,.309-.252c.114-.065.171-.122.171-.187H14.4V1.107h.024a.32.32,0,0,1,.049.016c.122-.041.179-.073.179-.106,0-.016,0-.024-.016-.024H14.6c0,.024-.033.057-.1.089h-.016l-.008-.057a.171.171,0,0,1,.049-.065V.953h-.033a.593.593,0,0,1-.154.1,2.892,2.892,0,0,0-.366.317c-.041.033-.285.211-.748.528a2.163,2.163,0,0,0-.415.187.8.8,0,0,1-.211.033l-.13.065a.725.725,0,0,1-.179-.024c-.024,0-.041-.065-.041-.2a7.037,7.037,0,0,1,.634-2.52,2.963,2.963,0,0,1,.423-.707h.008c.016.081.024.122.024.13a.86.86,0,0,0-.057.179.063.063,0,0,0,.008.024.377.377,0,0,0,.1-.089,8.838,8.838,0,0,0,.309-.984.949.949,0,0,0,.138-.382c0-.22-.081-.325-.244-.325ZM12.135-.462h.024q0,.049-.024.049Zm.4.065c.016-.024.033-.033.041-.033l-.008.041Zm-.114.008h.008v.024H12.42Zm3.512.057V-.3c0,.016,0,.016.016.016s.008,0,.008-.016V-.316c0-.008,0-.008-.008-.016Zm-3.569.309a1.256,1.256,0,0,1,.163-.285h.008l.016.057a.6.6,0,0,1-.016.1.4.4,0,0,1-.089.22C12.428.067,12.4.034,12.363-.023Zm-.146-.041c.065-.146.1-.228.122-.236l.024.1c-.016.1-.057.146-.138.146C12.224-.063,12.224-.063,12.216-.063Zm3.594-.2-.057.049.008.016a.054.054,0,0,0,.057-.033V-.259Zm.041.033a.017.017,0,0,0-.016.016v.016c0,.008,0,.016.016.016L15.883-.2q-.012-.024-.024-.024ZM12.127-.1A.121.121,0,0,1,12.176-.2a.143.143,0,0,1-.049.122Zm3.6-.024c-.024.016-.041.033-.041.041s.016.016.049.033a.141.141,0,0,1,.057-.024V-.08c0-.008-.016-.024-.049-.041Zm-.268.057a3.144,3.144,0,0,0-.431.439V.384a.03.03,0,0,0,.024-.008c.179-.179.317-.325.407-.431Zm.39.008c-.016,0-.024,0-.024.016v.008l.008.016c.024-.008.041-.016.041-.024V-.047C15.867-.047,15.859-.055,15.851-.055Zm-.22.049V.018a.075.075,0,0,0,.057.073q.049,0,.049-.024l-.081-.073ZM12.216.1A.043.043,0,0,1,12.265.05h.008C12.273.083,12.257.1,12.216.1Zm3.35-.016c-.016.016-.033.041-.057.065l.057.065L15.623.2V.172Zm-3.52.024a.2.2,0,0,1,.041.057.487.487,0,0,1-.073.2q-.024-.012-.024-.024V.327a.178.178,0,0,0,.041-.1.088.088,0,0,1-.016-.057A.442.442,0,0,0,12.046.107Zm-.008.8A2.05,2.05,0,0,0,12.289.27c0-.089.041-.138.13-.138,0,.008,0,.008.016.008V.213c-.089.317-.146.528-.171.642A.221.221,0,0,1,12.176.9l.049.138c-.057.244-.089.382-.1.423h-.008V1.449c0-.236-.008-.407-.008-.528V.9L12.1.88A.126.126,0,0,0,12.054.9ZM12.208.2a.049.049,0,0,1,.024-.049l.008.041V.2l-.016.024c-.008,0-.016,0-.016-.016ZM15.4.237V.254c0,.008,0,.016.016.016V.237Zm.13.057c-.033.008-.057.016-.057.033V.359h.008l.057-.049ZM12.054.546a.084.084,0,0,0,.057-.041c.024-.122.057-.179.081-.179A.787.787,0,0,1,12.1.644.141.141,0,0,0,12.054.546ZM15.428.392V.4l.008.016.033-.008V.392ZM11.956.424h.008l.024.122a.893.893,0,0,0-.065.211h-.041C11.932.554,11.956.441,11.956.424Zm3.2.057c-.024.016-.041.033-.041.041s.024.016.057.024c.008,0,.024-.008.057-.033-.008-.024-.024-.033-.057-.033Zm.211,0c-.065.016-.1.041-.1.065a.008.008,0,0,1,.008.008c.057-.016.089-.041.089-.065Zm-.48.057c-.008,0-.016,0-.016.008V.563h.016c0-.008,0-.016.016-.024Zm.561.024-.106.122V.7h.008a.521.521,0,0,0,.114-.122V.563ZM15.2.6l-.024.016c.008.033.016.041.024.041h.024q.024-.012.024-.024V.619c0-.008-.008-.008-.016-.016Zm-.447.049a.088.088,0,0,0-.033.041c.033,0,.057-.008.057-.024a.017.017,0,0,0-.016-.016Zm.187.016c-.016,0-.016.008-.016.016V.693l.008.016q.024-.012.024-.024A.017.017,0,0,0,14.94.668Zm.22.041c-.057,0-.106.041-.163.114V.831A.224.224,0,0,0,15.16.725Zm-.358.1c-.008,0-.024.016-.033.041V.855h.016a.07.07,0,0,1,.049-.024V.815C14.818.815,14.81.815,14.8.806ZM11.842.831h.008V.872h-.008Zm3.13.024V.88h.008V.855Zm-.13.106-.008.016v.041h.024c.016-.016.033-.024.033-.033V.969ZM11.989.993H12c.008,0,.016,0,.016.016h-.024Zm-.407.073c0-.024.016-.041.057-.057V1.05a.531.531,0,0,1-.016.089h-.016Zm3.22-.024c-.024.016-.033.024-.033.033h.008c.024-.008.033-.024.033-.033Zm-.171.154q-.073.049-.073.073l.008.016c.049-.016.073-.033.073-.041V1.213Zm-.39.325q-.024.012-.024.024v.016c0,.016.008.016.016.016h.008l.016-.008A.32.32,0,0,0,14.241,1.522Zm-.089.081a.084.084,0,0,0-.041.057v.008c.049-.008.065-.016.065-.033V1.6Zm-2.171.455h.008v.033H11.98Zm1.561.081h.049a.06.06,0,0,1-.065.065A.109.109,0,0,0,13.542,2.14Zm6.191-6.017a1.872,1.872,0,0,0-1.252.756,2.462,2.462,0,0,0-.7,1.52,1.364,1.364,0,0,0,.024.236l-.008.106.089.659a5.972,5.972,0,0,1,.146.667l-.024.211A.7.7,0,0,0,18.1.563a8.941,8.941,0,0,1,.2.992c-.163.171-.374.366-.626.594a11.292,11.292,0,0,0-.878.846c-.52.553-.862.911-1.024,1.065a8.224,8.224,0,0,1-.618.659,3.909,3.909,0,0,0-1.4,2.439,1.174,1.174,0,0,0,.545.992,2.951,2.951,0,0,0,1.488.439h.057a3.7,3.7,0,0,0,2.073-.732,4.569,4.569,0,0,0,.74-.626,3.607,3.607,0,0,0,1-2.675V4.408a8.88,8.88,0,0,0-.423-2.529.03.03,0,0,1,.008-.024c.26-.22.594-.48,1-.772Q21.867-.1,23.261-1.047a.483.483,0,0,0-.008-.089c.024-.033.041-.049.073-.049.057.008.081.016.089.016h.016l.041-.154a1.214,1.214,0,0,1,.228-.187v-.008a.678.678,0,0,0-.2.065,1.019,1.019,0,0,1-.366.268,1.8,1.8,0,0,1-.5.325h-.008c0-.024.041-.065.1-.114V-.982h-.057v-.024c.016,0,.016-.008.016-.008a.412.412,0,0,0,.146-.065.049.049,0,0,1,.049.024c.016,0,.024-.016.024-.041a.238.238,0,0,0,.065-.154q.146-.073.146-.122a2.913,2.913,0,0,1,.431-.341V-1.73c-.041,0-.114.049-.236.138l-.447.276c-.114.016-.187.033-.22.041-.341.228-.756.5-1.236.813a24.613,24.613,0,0,1-2.48,1.488,4.768,4.768,0,0,1-.309-1.61,2.416,2.416,0,0,1,.919-2.033.3.3,0,0,1,.024.089v.008a.268.268,0,0,0-.057.106c.008,0,.008,0,.008.008a.32.32,0,0,0,.049-.016c.057-.016.179-.236.358-.659a4.6,4.6,0,0,1,.065-.594C19.985-3.812,19.9-3.877,19.733-3.877Zm-1.52,1.992c.008,0,.016,0,.016.016v.016c0,.016-.008.016-.016.016Zm-.122.35c.008-.041.016-.065.024-.065a.822.822,0,0,1,.057-.179.017.017,0,0,1,.016.016v.033c-.041.252-.073.374-.106.374A.137.137,0,0,1,18.1-1.4,1.132,1.132,0,0,0,18.09-1.535Zm5.041.016c-.008,0-.008,0-.008.016l.008.016c.008,0,.008-.008.008-.016Zm.171.081-.057.033a.017.017,0,0,0,.016.016h.008c.008,0,.016-.016.041-.033Zm-5.472.065c.008,0,.024.008.057.016l-.008.041A.121.121,0,0,1,17.83-1.373Zm5.765.057c-.041.016-.057.024-.057.033s0,.016.016.016c.024-.016.041-.033.041-.041Zm-.553.065-.049.016v.024h.016c.016-.008.033-.024.033-.033Zm-.26.13A.268.268,0,0,0,22.9-1.2v.008a.226.226,0,0,1-.122.106Zm-4.61.179c.008-.057.024-.081.041-.081a1.917,1.917,0,0,0,.041.333,3.358,3.358,0,0,1,.106.528,2.476,2.476,0,0,1,.211.675l-.008.1a.175.175,0,0,0,.1.171c.008.024.024.146.057.35v.016a.154.154,0,0,1-.106.138l-.033-.024c0-.073-.033-.114-.1-.114-.008.008-.024.008-.049.008,0,.041-.016.065-.065.089-.016-.024-.033-.041-.033-.065V1.164c.008-.016.057-.041.154-.073-.057-.146-.089-.22-.106-.22h-.008A.108.108,0,0,0,18.318.9c-.033-.016-.049-.024-.049-.033A.513.513,0,0,0,18.391.6q.073-.049.073-.073a.819.819,0,0,0-.1-.333c0-.049-.033-.081-.106-.081h-.024a.017.017,0,0,0-.016.016V.229a.4.4,0,0,0,.008.089,1.414,1.414,0,0,1,.106.26h-.008c-.114,0-.187-.089-.22-.285A.832.832,0,0,1,18.131.2V.2A.177.177,0,0,0,18.1.115c.171-.049.252-.106.252-.171s-.024-.1-.041-.1a.974.974,0,0,1-.065-.228c-.033-.008-.041-.041-.041-.106V-.665A1.061,1.061,0,0,0,18.172-.942Zm4.3.024H22.5q.1,0,.1.073c0,.081.016.114.057.114a2.986,2.986,0,0,1-.618.4h-.008V-.34a3.847,3.847,0,0,0,.439-.374V-.73h-.008a2.046,2.046,0,0,1-.3.163.366.366,0,0,1,.016-.065c.114-.065.163-.114.163-.163V-.844a.078.078,0,0,1,.073.049A.117.117,0,0,0,22.473-.9Zm.374.016h.024c0,.016-.008.016-.016.016h-.016V-.893Zm-4.789.626h.016c.008,0,.016.033.033.089,0,.016-.016.033-.041.041V-.177Zm2.594.4h.008l-.024.033a7.766,7.766,0,0,1-1.244,1.016c-.1.114-.179.171-.228.171h-.033c-.016-.008-.024-.024-.024-.065V1.27a.655.655,0,0,1,.073-.154c-.016-.008-.016-.016-.016-.024V1.059c0-.024.008-.041.033-.041a1.411,1.411,0,0,1,.146.008c.049-.016.065-.033.065-.049a.191.191,0,0,1,.171-.1V.872c0-.008-.016-.024-.057-.041L19.53.79h.041C20.253.376,20.611.156,20.652.124Zm-.878,1.114a.092.092,0,0,1,.073-.081c.041.008.057.016.057.033V1.2a.148.148,0,0,1-.13.065Zm-.3.033a.017.017,0,0,1,.016-.016l.041.008V1.27a.03.03,0,0,0-.024.008Zm.179.073c0-.008,0-.016.016-.016a.017.017,0,0,1,.016.016v.008q-.012.024-.024.024h-.008Zm.049-.008h.016v.008H19.7Zm-.2.033c.049.008.073.024.073.065v.008a.3.3,0,0,1-.081-.049V1.384Zm-.789.236c.008-.041.016-.065.033-.065s.024.024.041.073c0,.008-.008.041-.016.089C18.749,1.7,18.733,1.668,18.716,1.6Zm-3.9,4.179a2.487,2.487,0,0,1,.5-.756,6.85,6.85,0,0,0,.585-.707,1.555,1.555,0,0,0,.276-.366,1.669,1.669,0,0,1,.39-.407,4.25,4.25,0,0,0,.455-.52,3.863,3.863,0,0,1,.455-.423c.431-.52.707-.781.837-.781.057.008.081.033.081.081v.033a.122.122,0,0,1-.016.081.618.618,0,0,1-.2.325c-.065,0-.293.228-.7.691-.106.041-.154.073-.154.089a1.555,1.555,0,0,1-.455.415c-.065,0-.13.081-.2.252l-.317.374-.634.691A7.348,7.348,0,0,1,14.814,5.782Zm4.049-3.561a1.216,1.216,0,0,1,.146.236v.008a.6.6,0,0,1-.1.073.325.325,0,0,1,.057.114v.041a.03.03,0,0,0-.024.008l.033.236v.016l-.008.1A.58.58,0,0,0,18.855,3a.1.1,0,0,1-.049.073H18.79a.259.259,0,0,1-.081-.122l-.041.033h-.024V2.929a.167.167,0,0,1,.154-.1h.033l.008.041V2.88l-.024.033v.033c.008.008.016.016.024.016H18.9l.016-.008a.157.157,0,0,0-.024-.081,1.6,1.6,0,0,0-.089-.512h-.024c-.041.106-.1.163-.187.163V2.514l.008-.041a.2.2,0,0,0,.122-.049A.693.693,0,0,1,18.863,2.221Zm-.13.309h.057a.03.03,0,0,0,.008.024v.016l-.016-.008h-.008a.66.66,0,0,0,.041.114v.008c-.073,0-.106-.024-.106-.073V2.6A.34.34,0,0,1,18.733,2.53Zm-.764.285c.146-.171.268-.252.358-.252h.033a.11.11,0,0,1,.1.073l.081.553c-.008.073-.016.13-.016.179a.791.791,0,0,0,.049.122c-.024.415-.033.65-.033.715,0,.033.008.1.016.2a.611.611,0,0,1-.057.228,3.844,3.844,0,0,1-.146.789,3.517,3.517,0,0,1-.285.691A4.759,4.759,0,0,1,16.6,7.7a3.541,3.541,0,0,1-1.236.382h-.024l-.016.008a.008.008,0,0,0-.008-.008h-.041c-.033,0-.073-.008-.106-.008a.451.451,0,0,1-.374-.5V7.555a3.772,3.772,0,0,1,.675-1.74c.415-.52.813-.984,1.2-1.407a8.314,8.314,0,0,0,.724-.8c.154-.13.236-.211.236-.244V3.359a.375.375,0,0,1-.106-.138l.228-.2a.141.141,0,0,1,.049.089.186.186,0,0,0-.122.163l.008.016c.033,0,.114-.073.228-.228q-.012-.024-.024-.024h-.024l-.016.008-.016-.033V3.01h.033c.122,0,.2-.033.228-.106.146-.106.22-.179.22-.211a.049.049,0,0,0-.024-.049l-.041.008c-.106.122-.171.179-.2.179h-.016Zm-.163.089.049-.016.016.008c0,.041-.008.057-.033.057l-.033-.041Zm.846.114.057.008h.016c0,.008-.016.057-.049.163.016.065.033.1.057.1h.008c.016,0,.041-.049.065-.154h.008a.747.747,0,0,1,.049.268v.016l-.008.049-.041-.033c-.1-.024-.146-.065-.146-.106a.32.32,0,0,0,.016-.049L18.611,3.2l.049-.065V3.124a.116.116,0,0,0-.016-.049Zm.236.163c.041-.041.065-.065.073-.065a.477.477,0,0,1,.1.171c-.041.163-.065.244-.065.26a.536.536,0,0,0,.073.211,1.1,1.1,0,0,1-.008.146c.008.114.008.187.008.228a.245.245,0,0,1-.033.106c-.008,0-.016-.016-.041-.041-.024-.138-.041-.211-.057-.211h-.008a.162.162,0,0,1-.016.065,1.638,1.638,0,0,1,.008.187v.016c0,.041-.049.073-.146.089.008.057.016.089.016.106h.016V4.416a.1.1,0,0,1,.033-.065c.033,0,.049.065.057.2v.089a.77.77,0,0,1-.033.244.51.51,0,0,1-.106-.2.191.191,0,0,0,.057-.106V4.571c-.114-.057-.179-.1-.179-.13a.3.3,0,0,1,.13-.2.3.3,0,0,0,.073-.236q0-.049-.024-.049h-.057c-.016,0-.016.008-.016.016v.049h-.008q-.024,0-.024-.049l.008-.016c.089-.016.13-.033.13-.049V3.807l.033.024c0,.065.024.089.073.089.016,0,.024-.024.033-.089,0-.016-.016-.138-.041-.358a.164.164,0,0,1,.024-.089c-.049-.114-.081-.171-.081-.179Zm-1.415.114c.033,0,.065.024.089.073v.008h-.016q-.049,0-.073-.073Zm-.252.276c.008-.041.024-.065.033-.065h.057c0,.049-.033.065-.081.065Zm1.463-.008h.008c.041.033.065.065.065.081l-.016.049a.078.078,0,0,1-.081-.057A.34.34,0,0,1,18.684,3.563ZM17.05,3.8c0-.033.024-.065.081-.1v.008c-.041.057-.065.089-.073.089Zm1.756,1.155a.251.251,0,0,1,.065.016l-.008.057v.122c-.008.024-.024.041-.033.041h-.008a.638.638,0,0,1-.016-.114Zm-1.39,2.333h.057l-.033.041C17.432,7.327,17.424,7.319,17.416,7.286Zm-1.122.683a.454.454,0,0,1,.3-.146H16.6v.016c0,.057-.106.1-.309.138Zm12.72-18.464a1.012,1.012,0,0,0-.707.26A3.344,3.344,0,0,0,27.745-9c-.285.943-.512,1.642-.667,2.09-.041.008-.276.041-.724.1a17.472,17.472,0,0,0-2.5.455,3.13,3.13,0,0,0-.7.26.234.234,0,0,0-.1.154.721.721,0,0,0-.089.154v.244l.016.024.057-.008h.016l.016.008c0,.033-.008.081-.016.154.033.065.065.106.114.106.033,0,.106-.057.228-.163q0-.061.488-.171c.041,0,.1.008.154.008s.106-.016.106-.024a2.034,2.034,0,0,0,.35-.073.715.715,0,0,0,.146.016.025.025,0,0,0,.016-.008.2.2,0,0,1,.154-.1c.016,0,.073,0,.171.008a1.021,1.021,0,0,0,.171-.073,4.232,4.232,0,0,0,.626-.106q.366-.024.366-.122c-.016-.008-.041-.024-.057-.033a.567.567,0,0,0-.13.065.053.053,0,0,1-.041-.016,1.658,1.658,0,0,0-.431.073h-.024a.846.846,0,0,1-.122-.016.7.7,0,0,0-.276.1.879.879,0,0,0-.39.073,1.728,1.728,0,0,0-.228-.049c-.024.016-.041.024-.041.033a3.656,3.656,0,0,0-.488.138.412.412,0,0,1-.106-.016.036.036,0,0,0-.024.008.63.63,0,0,0-.2.089.719.719,0,0,0-.268.057c-.033-.016-.057-.041-.057-.057s.049-.065.146-.106a.439.439,0,0,0,.13-.065c.008,0,.016.008.024.008a.116.116,0,0,0,.049-.016.176.176,0,0,1,.154-.1c.008,0,.024.016.041.049h.049c.008-.057.016-.081.041-.081h.008c.008.049.024.073.033.073h.049a.6.6,0,0,1,.163-.049.225.225,0,0,0,.073.008h.024c.024,0,.033,0,.041-.008a.3.3,0,0,0,.171-.1h.008a.182.182,0,0,1,.081.024c.154-.016.236-.041.236-.073.024,0,.057.008.1.008a.162.162,0,0,0,.065-.024.084.084,0,0,0,.033.008.954.954,0,0,1,.244-.041c.008,0,.033-.016.073-.057a.162.162,0,0,0,.065.024c.073,0,.106-.033.106-.1,0-.016-.008-.016-.016-.016h-.008L25.4-6.21h-.016c-.008,0-.024-.024-.049-.065a.225.225,0,0,0,.1-.041q.146-.012.146-.049h.024a.313.313,0,0,1,.089.073.022.022,0,0,0,.024-.024c0-.016.033-.033.1-.057,0-.008-.016-.024-.057-.041.008,0,.024-.008.065-.016.073.024.114.041.122.041l.138-.041c.041.008.057.024.057.049h.016q.024-.012.024-.024a.212.212,0,0,1,.089.024.22.22,0,0,0,.065-.024V-6.43l-.033-.008v-.016l.057-.008h.114a.721.721,0,0,0,.2-.049h.008a.116.116,0,0,1,.1.049c.049-.008.081-.016.089-.016a.229.229,0,0,1,.065.008q0,.024-.073.049a.3.3,0,0,1-.065-.008l-.041.041h-.024q-.293.012-.293.049v.008c0,.008,0,.016.016.016H26.5c.049,0,.171-.024.374-.057H26.9a7.236,7.236,0,0,1-.285.813c-.285.935-.545,1.764-.781,2.5-.187.732-.341,1.268-.455,1.6a8.63,8.63,0,0,1-.236.959,10.28,10.28,0,0,0-.276,1.911V1.62a1.622,1.622,0,0,0,.1.577.8.8,0,0,0,.781.553h.106a1.85,1.85,0,0,0,.431-.065,3.624,3.624,0,0,0,1.407-.8.9.9,0,0,0,.236-.333l-.008-.016a.063.063,0,0,1-.024.008c-.154.171-.252.252-.3.252h-.008c0-.008.008-.033.016-.065a1.488,1.488,0,0,0,.3-.276c.13-.146.3-.35.512-.618.081-.122.146-.187.187-.187.016-.065.033-.106.049-.106a.881.881,0,0,0,.22-.293,1.414,1.414,0,0,0,.317-.545c.073-.2.114-.3.114-.317a.017.017,0,0,0-.016-.016c-.049,0-.1.057-.163.171-.057.089-.236.358-.537.813h-.008A.28.28,0,0,0,28.5.367h-.008c.057-.073.081-.114.081-.138-.016,0-.041-.016-.057-.057q.1-.037.1-.049V.115c-.016,0-.041-.016-.081-.049-.008,0-.041.024-.089.081V.189c0,.008.008.024.041.049V.245c0,.008-.024.016-.057.016a.4.4,0,0,1-.073.122V.392a.06.06,0,0,0,.016.049l-.008.041c0,.008-.089.1-.26.268a2.753,2.753,0,0,1-.26.285,1.573,1.573,0,0,1-.569.512c-.008,0-.016-.008-.024-.033a.092.092,0,0,0-.081.073,1.469,1.469,0,0,1-.9.553.475.475,0,0,1-.154-.033c-.154-.089-.228-.285-.228-.585V1.4a5.282,5.282,0,0,1,.1-.829.639.639,0,0,1,.106-.439c.35-.626.691-1.342,1.041-2.138.431-.959.65-1.455.65-1.488q.207-.488.341-.878a10.983,10.983,0,0,0,.439-1.163c.081-.179.163-.439.268-.764,0,0,.008,0,.024.016h.033a.049.049,0,0,0,.049-.024v-.016l-.024-.033c-.041,0-.065.016-.065.049h-.008v-.008L28.9-6.47c.065,0,.1.008.1.016a.471.471,0,0,1,.252.049V-6.4l-.057.008h-.114l-.016.008c.016.041.033.065.041.065h.008a.677.677,0,0,1,.114-.033.088.088,0,0,1,.057.016l-.033.033v.016l.041.008a.968.968,0,0,1,.138-.024l.041.008h.089a.534.534,0,0,0,.106-.024c.163.024.366.041.618.057a.347.347,0,0,1,.154.073c.008,0,.033-.016.073-.033a.226.226,0,0,0,.106.049h.008a.187.187,0,0,0,.073-.024c.341.049.618.1.829.138.073,0,.106-.008.114-.016L31.924-6h.057c.171-.033.26-.114.26-.236v-.057a.782.782,0,0,0-.423-.61,3.923,3.923,0,0,0-1.675-.211H29.81c-.211,0-.447.008-.724.024.187-.585.341-1.106.455-1.545a8.776,8.776,0,0,0,.22-1.333v-.057a.311.311,0,0,0-.041-.154.43.43,0,0,1-.106.049h-.008c-.033,0-.049-.049-.049-.13a.1.1,0,0,0-.106-.114l-.016.008a.036.036,0,0,1-.024-.008.492.492,0,0,0-.065-.106h-.008c-.008,0-.016.016-.033.041l-.016-.008a.376.376,0,0,0-.228-.049Zm-.154,3.423a8.07,8.07,0,0,0,.244-.821,8.971,8.971,0,0,0,.39-1.683c.024-.22.065-.325.106-.325h.016l.008.1v.073a5.123,5.123,0,0,1-.171,1.057,11.976,11.976,0,0,1-.431,1.594,1.214,1.214,0,0,1-.154.008Zm-.675.057c.049-.138.081-.211.081-.211a11.833,11.833,0,0,1,.577-1.537,1.639,1.639,0,0,1,.285-.569h.008v.041a.826.826,0,0,1-.057.2,1,1,0,0,1-.057.26c0,.008.008.016.008.024l-.024.122c-.073.276-.114.431-.114.455v.041l.008.016c.033-.024.049-.049.049-.065h.008c.008,0,.016,0,.016.016v.106a.169.169,0,0,1-.057.122c-.041.179-.065.268-.089.268l.008.041a.5.5,0,0,1-.033.13h-.008q-.024,0-.024-.049v-.024c.024,0,.041-.008.041-.016v-.033a.116.116,0,0,0-.016-.049.29.29,0,0,0,.073-.211.017.017,0,0,0-.016-.016c-.024,0-.041.049-.057.138a.607.607,0,0,0-.073.268.5.5,0,0,1,.008.106v.106c-.008.049-.016.081-.033.081h-.008v-.016h-.016V-7.2l-.016-.008c-.008,0-.016,0-.016.016a.285.285,0,0,1,.016.081V-7.1l-.008.041a1.667,1.667,0,0,1-.455.049Zm1.041-1.594h.008v.016a1.128,1.128,0,0,1-.073.333c-.008,0-.016-.008-.024-.033l.033-.122A1,1,0,0,0,29.225-8.609Zm-.171.642c.024-.138.049-.2.073-.2,0,.073-.016.114-.033.114-.016.081-.024.114-.041.114Zm-.024.049h.016v.049a.049.049,0,0,1-.024.049v-.041Zm-.163.2c0-.008,0-.016.016-.016v.024h-.016Zm-.122.252a.017.017,0,0,1,.016-.016l.008.041-.008.016a.017.017,0,0,1-.016-.016Zm.122.138a.187.187,0,0,1,.065-.146v.041a.205.205,0,0,0-.049.138h-.016Zm-.041.138h.008v.033h-.008Zm-.033.081H28.8v.041h-.008Zm.252.146a.716.716,0,0,1,.171.049v.033l-.041.008H29.1l-.049.041H29.03l-.016-.008A.65.65,0,0,0,29.046-6.966Zm-.228.008s.033,0,.106.008a.183.183,0,0,0,.057-.008.65.65,0,0,0-.033.122h-.041a.272.272,0,0,0-.106-.057A.153.153,0,0,0,28.819-6.958Zm-.285.138c0-.081.024-.122.065-.122h.008a.562.562,0,0,1-.016.122l-.016-.008H28.55Zm-.39-.081a2.8,2.8,0,0,1,.382-.033h.008a.217.217,0,0,0-.065.138H28.4a.448.448,0,0,0-.171.041c-.024,0-.065-.008-.122-.008A.847.847,0,0,1,28.144-6.9Zm1.26.049a.03.03,0,0,1,.008-.024.85.85,0,0,1,.236-.049.33.33,0,0,1,.138.041v.008a.5.5,0,0,0-.089.024H29.68l-.211-.033c-.008,0-.016.008-.016.033Zm-4.2.463c.008-.041.057-.065.146-.065.138-.049.211-.081.22-.081.2,0,.3-.016.3-.041l.26-.065a1.13,1.13,0,0,0,.3-.065,1.305,1.305,0,0,0,.472-.073.438.438,0,0,1,.065.008l.057-.008h.008l-.057.138-.1-.008a.265.265,0,0,0-.106.033c-.122.016-.358.049-.7.106h-.146c-.024.016-.033.024-.033.033a1.369,1.369,0,0,0-.293.049l-.049-.008h-.024a.764.764,0,0,1-.309.049Zm4.3-.171a.083.083,0,0,1,.041-.065h.008a.062.062,0,0,0,.016.033c-.016.033-.033.041-.041.041H29.51Zm-2.439.008h.016c.016,0,.016.008.016.016l-.016.024c-.008,0-.008,0-.016-.016ZM28.7-6.5c.024.024.041.033.049.033l.041-.008a.049.049,0,0,1,.033.008,1.715,1.715,0,0,1-.138.407,11.606,11.606,0,0,1-.415,1.146,10.318,10.318,0,0,1-.618,1.5,4.949,4.949,0,0,1-.228.577c-.122.236-.236.48-.341.724a2.183,2.183,0,0,0-.244.431c-.1.22-.171.341-.211.358a.008.008,0,0,0-.008-.008.787.787,0,0,1,.106-.2,3.15,3.15,0,0,1,.2-.463c.146-.366.236-.569.268-.626a1.68,1.68,0,0,1,.228-.5,2.469,2.469,0,0,1,.2-.52,5.12,5.12,0,0,1,.2-.5L28-4.584a1.092,1.092,0,0,0,.146-.423c.114-.268.187-.472.228-.594a2.224,2.224,0,0,0,.154-.472A1.441,1.441,0,0,0,28.7-6.5Zm-.675.049c.171-.008.309-.016.431-.033h.016l-.008.016v.1c-.033,0-.049.016-.049.057H28.4c-.016,0-.016-.016-.016-.049h-.008c-.024.008-.033.024-.033.057v.041c.008.016.024.033.033.033a.335.335,0,0,1-.049.154.314.314,0,0,1-.089.252.754.754,0,0,1-.114.293l-.033-.024H28.07v.008l.008.049c-.008.024-.024.041-.033.041a.25.25,0,0,0,.033.073.108.108,0,0,1-.024.057l-.033-.016a.025.025,0,0,0-.016.008.919.919,0,0,0,.008.114.262.262,0,0,0-.049.146c-.033,0-.049,0-.049-.008,0,.016-.008.016-.016.016l.016.057v.106l-.008.057h-.016q-.024,0-.024-.049v-.024h-.024a.447.447,0,0,0-.057.154.07.07,0,0,0,.024.049.116.116,0,0,1-.016.049l-.016-.008c-.016,0-.024.024-.041.065a.229.229,0,0,0,.008.065c-.008.016-.008.024-.016.024-.016.106-.041.154-.057.154a.017.017,0,0,1-.016-.016l-.016.008.008.041v.049l-.033-.041c-.024,0-.073.122-.146.374a1.13,1.13,0,0,0-.138.325l-.1.22c-.2.423-.325.707-.374.854v.008l.008.057L26.851-2.5a.1.1,0,0,0-.024.016q-.037.1-.049.1a2.831,2.831,0,0,0-.26.528h-.008c.041-.154.22-.7.528-1.642.333-1.065.626-1.968.87-2.691.024-.016.041-.033.041-.057a.017.017,0,0,0-.016-.016c.041-.122.065-.187.065-.2A.03.03,0,0,1,28.022-6.454Zm-3.163.081v-.008a1,1,0,0,1,.2-.057h.016a.017.017,0,0,1,.016.016l-.008.016a.756.756,0,0,0-.171.049A.116.116,0,0,1,24.859-6.373Zm1.553-.065a.017.017,0,0,0-.016.016v.008a.03.03,0,0,1,.024.008c0-.008,0-.016.016-.016a.017.017,0,0,0-.016-.016Zm1.187.065q.012-.024.024-.024v.049Q27.6-6.361,27.6-6.373Zm-.6.13c0-.016,0-.016.008-.016.008-.081.033-.122.065-.122v.016c.041.024.057.049.057.073A1.1,1.1,0,0,0,27-6.243Zm.707-.081a.049.049,0,0,1,.024-.049h.016q.024.012.024.024v.024a.054.054,0,0,1-.033.057A.054.054,0,0,1,27.7-6.324ZM26.3-6.365a.49.49,0,0,1-.106.065c0,.008.016.016.041.024.081-.024.122-.033.122-.041S26.339-6.34,26.3-6.365Zm-.764.057c-.008,0-.016,0-.016.016l.008.016.049-.008v-.008a.017.017,0,0,0-.016-.016Zm.577.016c-.049.016-.1.024-.154.041v.016c.114-.008.163-.024.163-.041v-.016Zm2.122,0a.049.049,0,0,0-.049.024v.024h.041q.024-.012.024-.024v-.008A.017.017,0,0,0,28.233-6.291Zm-.2.008L28-6.275v.008c0,.008,0,.016.016.016h.016c.016,0,.016-.008.016-.016S28.046-6.283,28.03-6.283Zm-2.878.041c.041.008.089.024.146.041v.016a.3.3,0,0,0-.138.041.277.277,0,0,0-.13-.033h-.008a.082.082,0,0,0-.089.073.219.219,0,0,1-.106-.057.227.227,0,0,1,.041-.065c.041.016.065.033.065.041a.129.129,0,0,1,.081-.041h.033l.041.024C25.127-6.218,25.152-6.226,25.152-6.243Zm2.268.033q0-.024.049-.024a.061.061,0,0,0,.008.033l-.033.016A.1.1,0,0,1,27.42-6.2ZM25.7-6.235a.008.008,0,0,0-.008.008c-.081.016-.122.033-.122.041v.016c0,.016,0,.016.016.016h.024l.073-.024c.016,0,.041.008.065.008l.024-.024C25.77-6.21,25.745-6.226,25.7-6.235Zm.2.016v.008h.016v-.008Zm-2.033.065c0-.008.008-.016.033-.024.008,0,.016.016.024.033s-.008.016-.016.016H23.9Zm.642-.024h.041v.016h-.024C24.517-6.161,24.509-6.161,24.509-6.178Zm2.976.057c0-.008.016-.024.057-.041q0,.085-.049.1L27.485-6.1Zm-.829-.041a.458.458,0,0,0-.1.033c0,.033.008.041.016.041h.057c.065,0,.089-.008.089-.024C26.7-6.145,26.68-6.161,26.656-6.161Zm-.146.008a.225.225,0,0,0-.1.041c.016.033.033.049.057.049.008,0,.024-.016.057-.065C26.509-6.137,26.509-6.145,26.509-6.153Zm-.545,3.5a.151.151,0,0,0,.138-.106,3.484,3.484,0,0,1,.122-.341,1.107,1.107,0,0,1,.049-.2c.228-.764.382-1.236.455-1.415l.26-.772a1.752,1.752,0,0,0,.1-.293c.057-.244.114-.366.154-.366.008,0,.008.016.008.049a2.64,2.64,0,0,0-.089.3.624.624,0,0,0-.106.317,2.657,2.657,0,0,0-.114.366.722.722,0,0,0-.081.211.61.61,0,0,0-.057.163c-.049.154-.1.341-.163.569a.825.825,0,0,0-.081.309,6.2,6.2,0,0,0-.333,1.041.329.329,0,0,0-.049.089l.008.049v.008a.435.435,0,0,0-.089.228c-.041.138-.073.228-.081.276.008.041.016.065.033.065h.024c.008,0,.016-.016.024-.041s-.008-.049-.008-.073v-.008a.138.138,0,0,1,.065-.106c-.008-.033-.016-.057-.016-.065a1.323,1.323,0,0,0,.106-.252c.016-.138.041-.211.057-.211a.68.68,0,0,1,.073-.228c.024-.2.057-.3.106-.3l-.008-.1L26.55-3.5l-.024.033v.008a.5.5,0,0,0,.041.049h.008a.13.13,0,0,0,.065-.024l-.008-.073a.059.059,0,0,1,.033-.057h.024c.008,0,.016.008.024.016h.033q.024-.012.024-.024c-.016-.024-.024-.033-.033-.033h-.073a.366.366,0,0,0,.016-.114v-.016h-.033a.171.171,0,0,1-.065.049V-3.73a.222.222,0,0,1,.033-.041c.033-.138.065-.211.106-.211a.308.308,0,0,0-.008-.065.159.159,0,0,1,.089-.138.481.481,0,0,1,.065.041l-.033.163L26.81-4h-.024a.017.017,0,0,0-.016.016v.016c.024.024.033.033.033.041v.008a.049.049,0,0,1-.024.049l-.049-.008a.137.137,0,0,1-.041.016v.033a.956.956,0,0,1,.122.089h.024c.016-.081.041-.122.057-.122h.041a.063.063,0,0,0,.008.024c-.016.073-.041.154-.073.26a1.559,1.559,0,0,1-.081.211h-.008c0-.024-.008-.033-.024-.033l.024-.033v-.016h-.057q0-.049-.024-.049h-.008q-.024.012-.024.024v.016a.7.7,0,0,1,.024.138v.008l-.073.049-.033.138c0,.016.016.033.049.041.016-.024.033-.041.041-.041s.008.016.008.024a.408.408,0,0,1-.024.114.372.372,0,0,1-.049-.033H26.6a.07.07,0,0,0-.049.024c0,.024.008.041.016.041h.073c0,.008.008.024.008.033a.767.767,0,0,1-.1.268,4.131,4.131,0,0,1-.171.577v.016q.012.024.024.024h.008l.033-.024v.024a.049.049,0,0,1-.024.049c-.041,0-.065.024-.081.081-.041.138-.065.211-.081.211h-.008c-.008,0-.024-.024-.057-.073h-.008a.178.178,0,0,1-.041.114c0,.008.008.016.008.024.073.016.106.033.106.049-.008.049-.016.081-.033.081h-.033c-.016,0-.016-.016-.024-.041h-.016a.139.139,0,0,1-.041.089v.016c.049.016.065.033.065.049a.347.347,0,0,0-.065.171v.049H26.1c-.057-.024-.081-.049-.081-.089v-.008a.827.827,0,0,1,.033-.13v-.041a.017.017,0,0,0-.016-.016H26.03l-.065.065a1.941,1.941,0,0,1-.081.2.65.65,0,0,0-.073.285c0,.138-.016.22-.057.252v.033l.089.065.024-.016h.016a.247.247,0,0,1-.106.1L25.786-.5l-.008-.016c-.033,0-.065.081-.089.252a.888.888,0,0,1-.106.447.108.108,0,0,0,.024.057H25.6c-.041,0-.057.033-.065.1a.4.4,0,0,0,.024.1A.29.29,0,0,0,25.5.489a.2.2,0,0,0,.008.057,1.829,1.829,0,0,1-.057.2V.758a.192.192,0,0,0,.1.187.131.131,0,0,0-.049.106.144.144,0,0,0-.122.154l.008.016a.345.345,0,0,0-.041.1v.008a.287.287,0,0,0,.033.138c.041.024.057.041.057.049-.049,0-.073.081-.089.228a1.241,1.241,0,0,0,.008.146.9.9,0,0,0-.008.13.1.1,0,0,0,.033.065v.049h-.008c-.041-.024-.057-.073-.057-.146V1.953c0-.008-.008-.016-.033-.024-.008,0-.024.024-.033.065q.024.11.024.122l-.033-.008c-.033,0-.065-.163-.106-.5a4.562,4.562,0,0,0,.049-.48,1.593,1.593,0,0,0-.016-.22A.749.749,0,0,1,25.209.75s0-.065-.008-.2a.183.183,0,0,1,.041-.122.735.735,0,0,0,.081-.39.1.1,0,0,0-.041-.089h-.008c-.024,0-.073.13-.138.39h-.008c-.008,0-.016-.016-.024-.057.008-.065.016-.106.024-.106.033-.252.057-.382.081-.382a1.741,1.741,0,0,1,.057-.382.773.773,0,0,1,.073-.268,1.264,1.264,0,0,1,.114-.423,1.173,1.173,0,0,1,.033-.187,1.05,1.05,0,0,0,.065-.309,5.313,5.313,0,0,0,.22-.781.4.4,0,0,0,.065-.2.373.373,0,0,0,.049-.13c.008-.041.089-.3.252-.781a1.139,1.139,0,0,1,.114-.374,1.718,1.718,0,0,1,.073-.26,2.23,2.23,0,0,0,.122-.423.373.373,0,0,0,.106-.276,1.705,1.705,0,0,0,.138-.382.688.688,0,0,1,.122-.35c.065-.244.1-.366.122-.366h.049v.033A.108.108,0,0,0,26.957-6v.073l-.057.065v.008l.041.041V-5.8h-.008l-.024-.016H26.9c-.008,0-.016,0-.016.016l.016.057a.076.076,0,0,1-.049.065,1.634,1.634,0,0,1-.049.22c-.033,0-.057.073-.065.22-.041.041-.065.065-.065.073s.008.016.008.033c-.033.114-.049.179-.049.179.024.024.033.041.041.041,0,.024-.016.057-.065.089a.945.945,0,0,0-.122.39c0,.016.008.024.041.024a.157.157,0,0,0-.065.13v.1c-.041,0-.081.073-.13.228v.024s.016.016.049.057v.024c-.041,0-.081.033-.114.1a.538.538,0,0,1,.008.089.4.4,0,0,0-.089.154l.016.024v.016c-.024.033-.049.057-.065.057-.016.089-.033.13-.049.13a.242.242,0,0,1-.041.163c-.024.114-.049.2-.065.276A.088.088,0,0,0,26-2.771c0,.008-.024.024-.065.057C25.932-2.682,25.94-2.665,25.965-2.657ZM27.64-6.088a.068.068,0,0,1,.033-.057c.016,0,.016.008.016.016v.008c0,.041-.008.065-.033.073A.053.053,0,0,0,27.64-6.088Zm-3.984.016c0-.033.024-.057.065-.065H23.8v.008c0,.016-.041.041-.114.065h-.016Zm.74-.065h.016v.008H24.4Zm1.9.024-.065.065.008.016a.8.8,0,0,0,.122-.008v-.008a.151.151,0,0,0-.057-.065Zm-2.309.073c0-.033.081-.057.252-.057h.033c0,.008-.008.016-.041.024L24.16-6.08a1.076,1.076,0,0,0-.146.057.036.036,0,0,0-.024-.008Zm-.236.024.106-.024c0,.008.008.008.033.008q0,.024-.049.024h-.089Zm-.48.2a.336.336,0,0,0,.057-.089A1.3,1.3,0,0,1,23.688-6h.024a.071.071,0,0,1-.073.065h-.065l-.065.057h-.081a.535.535,0,0,1-.146.073h-.008ZM27.436-5.9h.008v.049c0,.008-.008.033-.016.073-.049-.016-.073-.024-.073-.033v-.016l.008-.016C27.412-5.861,27.436-5.885,27.436-5.9Zm.114.041c.024.008.033.016.033.024l-.024.033q-.024-.012-.024-.024v-.008Zm-.577.049h.016V-5.8h-.016Zm.382.106c.008,0,.016,0,.016.008v.008C27.363-5.69,27.355-5.69,27.355-5.706Zm-.138.846c.016-.081.033-.122.041-.122a.319.319,0,0,1,.089-.268c.041-.211.081-.317.114-.317h.008l.008.041a.144.144,0,0,1-.033.081l-.122.415a.348.348,0,0,0-.081.187,4.558,4.558,0,0,1-.187.634c-.008,0-.033-.024-.065-.065v-.016c.024,0,.057-.024.081-.073a1.211,1.211,0,0,1,.154-.463A.049.049,0,0,1,27.217-4.86Zm.065-.634a.045.045,0,0,1,.033-.049c.008,0,.008.008.016.024l-.024.081H27.29l-.008-.041Zm.8.024a.017.017,0,0,1,.016-.016h.008v.033c0,.008,0,.016-.016.016C28.095-5.454,28.095-5.462,28.087-5.47Zm-.829.073c.008,0,.016.008.024.033s-.008.024-.016.024h-.024C27.241-5.348,27.249-5.365,27.257-5.4Zm.715.146q-.024.012-.024.024c0,.016,0,.016.016.016s.016-.008.024-.024S27.981-5.251,27.973-5.251Zm-.813.114c0-.016.016-.024.033-.033l.016.024v.008c0,.008-.008.016-.033.024A.1.1,0,0,1,27.16-5.137Zm.732.1a.017.017,0,0,0-.016.016v.033H27.9v-.033Zm-1.016.382h.041a.03.03,0,0,0,.008.024l-.041.163h-.008Zm.829.089v.024h.016v-.024Zm-.033.073v.008h.016v-.008Zm-.764.13c.033-.073.057-.114.073-.114a.03.03,0,0,0,.008.024.1.1,0,0,0-.016.024v.1a.078.078,0,0,1-.057.073l-.033-.033h-.049l-.016.008a.116.116,0,0,0-.016-.049c.016-.033.033-.041.041-.041h.008Zm-.106.2v.024l.016-.008A.017.017,0,0,0,26.8-4.161Zm.163.016h.041a.017.017,0,0,1,.016.016v.016a.951.951,0,0,1-.081.22h-.008a.052.052,0,0,1-.041-.049A.555.555,0,0,0,26.965-4.145Zm-.642.244c-.008,0-.016,0-.016.016v.008h.024V-3.9Zm.236.293c0-.008,0-.016.008-.016V-3.6h-.008Zm-.276,0h.008v.016h-.008Zm.463.293c.016-.024.024-.033.033-.033v.008l-.016.049c-.008,0-.016,0-.016-.008Zm-.236.138a.057.057,0,0,0-.033.041c0,.008.008.016.033.024.024-.008.041-.016.041-.024v-.024a.017.017,0,0,0-.016-.016Zm-.073.228v.016c0,.008,0,.016.016.016a.017.017,0,0,0,.016-.016.017.017,0,0,0-.016-.016Zm.122.065c-.024.008-.041.016-.041.033v.024c0,.008,0,.008.016.008h.024q.024-.012.024-.024V-2.86Q26.583-2.873,26.558-2.885Zm-.187.122v.008h.016v-.008Zm-.016.1c-.008,0-.016.016-.033.049v.008h.008l.041-.008v-.008l-.008-.041Zm.073.024a.017.017,0,0,0-.016.016v.041c0,.008.016.024.041.033s.024-.016.033-.041a.017.017,0,0,0-.016-.016l.016-.024v-.008Zm-.415.008q-.024.012-.024.024v.016c0,.008.008.016.033.024.008,0,.016-.008.024-.033C26.03-2.625,26.022-2.633,26.013-2.633Zm.407.1a.017.017,0,0,0-.016.016v.008a.017.017,0,0,0,.016.016.017.017,0,0,0,.016-.016v-.024Zm-.431.024a.061.061,0,0,0-.041.065H25.9a.088.088,0,0,0-.057.024.871.871,0,0,1-.049.187c.008.089.049.13.106.13.008,0,.024-.033.049-.089a.356.356,0,0,1,.057-.244v-.057A.017.017,0,0,0,25.989-2.511Zm.325,0c-.041,0-.065.024-.081.089v.033l.008.073a.293.293,0,0,0-.033.041v.049q.012.024.024.024h.016a.939.939,0,0,1,.106-.236A.112.112,0,0,0,26.314-2.511Zm0,.309a.017.017,0,0,0-.016.016v.008a.017.017,0,0,0,.016.016h.008V-2.2Zm-.293.122c-.041.016-.057.057-.057.122a1.172,1.172,0,0,0-.081.3.017.017,0,0,1,.016.016c.033-.016.049-.033.049-.057a1.521,1.521,0,0,1,.089-.325v-.041A.017.017,0,0,0,26.022-2.08Zm.106.114q-.024,0-.073.049c0,.049.008.081.033.081h.008c.016,0,.033-.033.057-.106,0-.016,0-.024-.016-.024Zm-.333.008a.162.162,0,0,0-.1.065v.008c.008.041.024.057.033.057s.016-.008.016-.024H25.8a.1.1,0,0,0,.024-.016v-.065C25.826-1.942,25.818-1.95,25.794-1.958Zm.594.065H26.4v.016h-.008Zm-.163.008c-.008,0-.016,0-.016.016v.008l.008.016c.033,0,.041-.008.041-.016S26.249-1.877,26.225-1.885Zm-.537.114c-.033.024-.057.1-.073.236a.914.914,0,0,0-.065.3c.008.073.024.106.049.106h.008c.016-.008.041-.065.065-.179l-.033-.057c0-.008.008-.016.016-.024.065-.049.089-.146.089-.3v-.016a.067.067,0,0,0-.041-.065Zm.187.2c-.024.016-.041.024-.041.033V-1.5l.016.024c.024-.016.041-.024.041-.033v-.008A.116.116,0,0,0,25.875-1.568ZM25.8-1.34q-.024.012-.024.024v.024c.016.024.024.033.033.033s.024-.016.024-.024v-.024C25.818-1.324,25.81-1.34,25.8-1.34Zm-.016.106h-.008c-.024,0-.041.049-.057.146v.024a.017.017,0,0,0,.016.016h.016a.657.657,0,0,0,.041-.171ZM26-1.153c.065,0,.089.024.089.073a.565.565,0,0,1-.033.138h-.008l-.024-.024-.041-.163Zm-.39.057c-.041,0-.081.033-.138.1a.554.554,0,0,1-.041.171c0,.016.024.024.089.033l.024-.016a2.171,2.171,0,0,1,.081-.276Zm.333.2.041-.008h.033l.008.049v.008c-.033.081-.073.163-.122.268h-.024c-.008,0-.016-.008-.024-.033.008-.024.033-.041.065-.065A.854.854,0,0,0,25.9-.787a.133.133,0,0,1,.065-.073c0-.008-.008-.016-.024-.016Zm-.512.114a.462.462,0,0,0-.081.276.227.227,0,0,0,.008.049h.016a.953.953,0,0,0,.13-.122l-.024-.081V-.69A.1.1,0,0,0,25.5-.763Q25.5-.775,25.428-.787Zm.366.341H25.8v.008a.1.1,0,0,1-.041.057A.371.371,0,0,1,25.794-.446Zm3.13.1c-.033,0-.065.033-.089.089v.033l.016.024.1-.114V-.324Q28.936-.348,28.924-.348Zm-3.642.171a.017.017,0,0,0-.016.016c.033.041.057.057.089.057h.008a.017.017,0,0,0,.016-.016V-.129A.1.1,0,0,0,25.282-.177Zm3.561.008a.017.017,0,0,0-.016.016l.008.016a.017.017,0,0,0,.016-.016Zm-.13.073q-.024.012-.024.024v.016a.017.017,0,0,0,.016.016h.016q.024-.012.024-.024V-.08A.017.017,0,0,0,28.729-.1Zm-.13.057a.083.083,0,0,0-.041.049c0,.016.008.024.016.024h.008c.033-.024.041-.033.041-.041V-.023c0-.008,0-.016-.016-.016Zm.106.033a.168.168,0,0,0-.114.073l.033.016c.033,0,.057-.024.081-.073ZM25.477.083A.017.017,0,0,0,25.461.1c0,.016,0,.016.016.016h.008V.1Zm-.033.073a.03.03,0,0,1-.008.024.062.062,0,0,0,.016.033L25.477.2c-.008-.024-.016-.041-.024-.041Zm.244.2A.017.017,0,0,1,25.7.335V.4C25.7.4,25.7.392,25.688.384Zm-.569.065q.012,0,.024.049l-.016.163V.66A.212.212,0,0,1,25.1.741c-.016.154-.033.236-.057.236h-.008L25.03.92V.9a.326.326,0,0,1,.024-.122C25.054.563,25.078.441,25.119.416Zm.569.041H25.7l.008.057C25.7.571,25.688.6,25.672.6h-.016c-.008,0-.008,0-.016-.016V.571A.245.245,0,0,1,25.688.457Zm2.781.057c.008,0,.016,0,.016.016l-.008.016c-.016,0-.016-.008-.016-.016Zm-2.838.26h.016c0,.008.008.024.008.033a.973.973,0,0,1-.024.114h-.016A.03.03,0,0,0,25.607.9Zm2.61.138c.033-.057.065-.089.106-.089h.008q-.024.1-.049.1h-.024ZM25.322.969c-.008,0-.016,0-.016.016V1.01l.016.016c.024,0,.041-.008.041-.016V1C25.363.993,25.347.977,25.322.969Zm-.024.146c-.016.016-.033.024-.033.033v.008c0,.016.008.016.016.016h.024c0-.008,0-.008.008-.024S25.306,1.132,25.3,1.115Zm2.894.114a.017.017,0,0,0-.016.016v.016a.017.017,0,0,0,.016-.016ZM25.4,1.262a.017.017,0,0,1,.016-.016h.008a.017.017,0,0,1,.016.016v.024A.074.074,0,0,0,25.4,1.262Zm.081.024a.049.049,0,0,0,.033-.008h.008l-.008.033h-.033Zm-.211.033q-.012,0-.024.049v.041c.016.016.024.033.033.033H25.3c.008,0,.016-.016.024-.033-.008-.065-.016-.089-.024-.089Zm2.829,0v.016h.024V1.319Zm-.049.065q-.024.012-.024.024v.016h.024q.024-.012.024-.024c0-.008,0-.016-.016-.016Zm-.081.073v.016h.016V1.457Zm-2.48.089a.049.049,0,0,0,.033-.008,1.318,1.318,0,0,0,.024.171.2.2,0,0,0-.008.073c-.016,0-.033-.024-.049-.065,0-.073.008-.122.008-.146A.036.036,0,0,1,25.493,1.546Zm-.236.008c0,.049.008.106.008.179l-.008.057c.016.049.024.073.041.073h.008V1.839a1.272,1.272,0,0,0-.033-.285Zm.244.463c0-.008,0-.008.016-.016h.016q.024.012.024.024v.049c-.033,0-.049-.008-.057-.033Zm6.516.724a2.452,2.452,0,0,0,1.366-.585,5.811,5.811,0,0,0,.9-.8A3.688,3.688,0,0,0,35.441-.836c.089-.033.252-.073.48-.13a3.655,3.655,0,0,0,.951-.333q0-.012-.049-.024a.258.258,0,0,1-.187.073,1.72,1.72,0,0,1-.382.106.153.153,0,0,1-.065-.016q.159-.085.756-.317a.588.588,0,0,0,.3-.089q.293-.061.293-.1l-.1-.008-.016.041a.13.13,0,0,1-.065-.024.585.585,0,0,1-.211.065A.262.262,0,0,1,37-1.543l-.024-.016a1.125,1.125,0,0,1-.252.057.56.56,0,0,1-.106-.016c-.008,0-.016,0-.016.016,0,.065-.1.114-.293.138a1.454,1.454,0,0,1-.39.089.287.287,0,0,1-.114-.024l.008-.024a.138.138,0,0,0,.081-.049l-.008-.008c-.1.008-.276.033-.537.081l-.057-.114a2.651,2.651,0,0,0-.52-.683,1.952,1.952,0,0,0-.748-.48l.016-.033q.22-.183.22-.293a.431.431,0,0,0-.089-.22.6.6,0,0,0-.431-.171h-.057a1.627,1.627,0,0,0-.992.537,6.572,6.572,0,0,0-.715.886,3.935,3.935,0,0,0-.748,1.61.112.112,0,0,0,.041.073.307.307,0,0,1-.089.26l-.016-.2h-.016l-.008.057a4.7,4.7,0,0,0-.268,1.342,1.34,1.34,0,0,0,.488,1.146A.906.906,0,0,0,32.018,2.742ZM31.8-1.21l-.033-.008v-.049c0-.008.049-.1.138-.26a3.07,3.07,0,0,1,.528-.8c.154-.22.276-.358.382-.39a.236.236,0,0,0-.041.081c-.073.073-.341.439-.8,1.081A1.566,1.566,0,0,1,31.8-1.21Zm1.911-1.2h-.016v-.024H33.7Zm.382,1.252a.933.933,0,0,1-.52-.13c-.146-.033-.22-.163-.22-.4,0-.171.033-.252.089-.252a.052.052,0,0,1,.041.049H33.5v-.033a.4.4,0,0,1,.008-.1c-.008,0-.024.008-.049.033-.008,0-.016-.008-.024-.033.057-.154.106-.228.163-.228l.008.057h.008a.242.242,0,0,1,.114-.041c.154,0,.366.138.642.415a1.615,1.615,0,0,1,.407.6A4.778,4.778,0,0,1,34.091-1.153Zm-.528-.179a1.517,1.517,0,0,1-.073-.5h-.016a.638.638,0,0,0-.016.179.647.647,0,0,0,.016.211c.033,0,.065.033.073.106Zm4.1-.374c.089-.008.138-.033.138-.081,0-.008-.024-.024-.065-.033s-.073.041-.081.106Zm-.106-.008c.008,0,.016-.008.016-.024s-.008-.016-.016-.024-.016.008-.016.024S37.546-1.714,37.555-1.714Zm.065.049a.049.049,0,0,0,.049-.024l-.089-.024a.017.017,0,0,0-.016.016C37.571-1.673,37.587-1.665,37.62-1.665Zm-1.39.228.016-.008a.017.017,0,0,0-.016-.016H36.2C36.2-1.446,36.213-1.438,36.229-1.438Zm-.122.041.024-.008v-.016l-.016-.024c-.024.008-.033.016-.033.041ZM32.042,2.132,31.8,2.115a2.49,2.49,0,0,1-.106-.585,2.82,2.82,0,0,1,.22-.968,12.526,12.526,0,0,1,.5-1.276,5.172,5.172,0,0,1,.415-.715,1.112,1.112,0,0,0,.081.22,1.233,1.233,0,0,0,1.228.585,3.016,3.016,0,0,0,.6-.057,2.44,2.44,0,0,1-.48,1.024A5.019,5.019,0,0,0,33.9.855.008.008,0,0,1,33.9.863l.073-.024a2.079,2.079,0,0,1,.22-.2c.057.008.081.024.081.049q.061,0,.1-.1A4.982,4.982,0,0,0,35-.714c0-.016.057-.033.154-.049h.008v.049a4.532,4.532,0,0,1-.325.878c-.114.146-.2.276-.285.39-.089.081-.13.146-.13.211-.057.016-.081.033-.081.049L34.4.847V.855a.032.032,0,0,0-.016.033L34.359.88c-.024,0-.033,0-.033.008-.081,0-.13.073-.154.228l-.1-.008a1.725,1.725,0,0,0-.114.171c-.065.033-.089.057-.089.089l.049.073a.317.317,0,0,0-.114-.016c-.187.1-.285.179-.285.244l.024.106a.209.209,0,0,0-.106-.073c-.016,0-.033.049-.057.154-.033-.024-.049-.041-.057-.041h-.1c.2-.22.3-.341.309-.358.089-.065.13-.114.13-.171-.024,0-.065.024-.122.081-.382.358-.659.537-.813.537A2.643,2.643,0,0,1,32.042,2.132Zm3.927-3.512v-.008L35.937-1.4a.008.008,0,0,1-.008.008C35.928-1.381,35.945-1.381,35.969-1.381Zm.959.057.057-.008c0-.008,0-.016-.016-.024l-.049.016Zm-1.935.089h-.008l.008-.024Zm.4.016q.012-.024.024-.024Q35.4-1.218,35.392-1.218ZM32-.657V-.763c0-.008.016-.016.057-.041C32.058-.706,32.034-.657,32-.657Zm-.333.65h-.016a.585.585,0,0,0,.065-.22h.089L31.8-.169C31.782-.063,31.741-.007,31.668-.007Zm-.309.935A.126.126,0,0,0,31.335.88a1.479,1.479,0,0,1,.089-.341c.041-.2.073-.309.106-.309a.819.819,0,0,1,.016.154.063.063,0,0,0-.057.065c0,.008.008.033.016.089l-.033.114C31.473.806,31.432.9,31.359.928Zm.22-.3.008-.081c.024.024.041.033.049.033V.6Zm.016.2A.2.2,0,0,1,31.489.8a.476.476,0,0,0,.106-.114Zm2.073.447a.288.288,0,0,0,.13-.049c.236-.2.358-.366.358-.512h-.008l-.114.138a.164.164,0,0,1-.163.138.322.322,0,0,1-.057-.041,1.115,1.115,0,0,0-.154.22ZM31.546.937V.872h.008l.008.041C31.562.928,31.554.937,31.546.937Zm-.154.756a.4.4,0,0,1-.024-.1c.024-.2.041-.317.041-.35.033-.114.057-.187.057-.2L31.457.993A.34.34,0,0,1,31.53.969a1.385,1.385,0,0,1-.024.3C31.481,1.554,31.449,1.693,31.392,1.693Zm-.154.293a.62.62,0,0,1-.122-.431,2.446,2.446,0,0,1,.065-.5c.089,0,.13.041.13.114s-.024.309-.073.691c.008.057.016.089.033.089C31.262,1.969,31.245,1.985,31.237,1.985Zm2.236-.146c-.024-.008-.033-.016-.033-.033l.049.008a.03.03,0,0,1,.024-.008v.016C33.5,1.823,33.489,1.831,33.473,1.839Zm-.26.179V1.994c0-.041.024-.057.081-.057A.073.073,0,0,1,33.213,2.018Zm-1.707.065h-.033l.008-.122h.024Zm9.549-5.618a.687.687,0,0,0-.472.236,2.509,2.509,0,0,0-.447.821c-.341.976-.577,1.61-.7,1.9a3.142,3.142,0,0,0-.309.8,22.374,22.374,0,0,0-.675,2.683v.024a.548.548,0,0,1,.106.122.342.342,0,0,0,.22.171.386.386,0,0,0,.2.081c.049,0,.081-.008.081-.016.1,0,.187-.114.276-.35.488-.813.87-1.423,1.138-1.813A6.92,6.92,0,0,0,41.014.124a3.83,3.83,0,0,1,.7-1.163c.407-.626.732-.935.992-.935h.057a.369.369,0,0,1,.146.033,4.1,4.1,0,0,1,.537.439.526.526,0,0,0-.024-.081v-.049h.008a.439.439,0,0,1,.138.154,1.056,1.056,0,0,1,.252.211h.008l.024-.016h.016a.207.207,0,0,0,.13.13c.016,0,.024-.008.024-.016v-.049q.122.037.122.073v.016q-.073.012-.073.024V-1.1q.11.122.171.122L44.3-.982c.065.016.1.033.114.033l.041-.008V-.982l-.024-.033v-.008H44.5c.008.041.016.065.033.065s.016-.008.016-.016V-.982l-.008-.041h.041a1.088,1.088,0,0,0,.854-.594v-.008h-.008a.751.751,0,0,0-.276.276q-.085,0-.244.171a3.021,3.021,0,0,1-.512.089h-.008l-.016.008c0-.008-.016-.008-.049-.008-.041-.065-.065-.1-.081-.1a.116.116,0,0,1-.049.016c0-.008-.008-.024-.033-.049a.332.332,0,0,1-.154-.114l-.187-.138a.125.125,0,0,1-.081-.13.1.1,0,0,1,.081.049c.1.049.146.081.154.106a.6.6,0,0,1,.114.081l.179.065a.1.1,0,0,1,.073-.049.435.435,0,0,1,.073.057h.016q.024-.012.024-.024l.057.065h.016a.365.365,0,0,0,.089-.008c.024,0,.041-.033.057-.114a.3.3,0,0,0,.089.024h.024c.114,0,.276-.114.472-.35a.976.976,0,0,1,.415-.293c0-.106-.033-.163-.1-.163l-.049.008a.216.216,0,0,1-.106-.081l-.033.033.016.106c-.024.024-.033.041-.033.049a.4.4,0,0,0,.033.089v.024H45.4c-.016,0-.024-.033-.041-.081-.008,0-.016.008-.024.033l.008.049c-.309.309-.52.463-.626.463a.182.182,0,0,1-.122-.065h-.008A.182.182,0,0,0,44.5-1.5h-.008c-.033-.065-.065-.1-.089-.1l-.13.016a1.153,1.153,0,0,1-.756-.472c-.374-.472-.715-.715-1.016-.715-.276,0-.561.2-.878.577a.352.352,0,0,1-.114.163V-2c0,.008,0,.016.016.016h.016A.017.017,0,0,0,41.559-2a.414.414,0,0,0,.089.033v.008c-.033,0-.073.065-.114.2v.008q.012.024.024.024h.008a.129.129,0,0,0,.1-.041v.008c0,.049-.073.122-.211.211q-.012,0-.049-.073c-.049,0-.089.057-.122.163-.049.024-.073.081-.073.179l.057-.008v.016a.225.225,0,0,1-.089.2h-.008q-.11-.1-.146-.1h-.016a.062.062,0,0,0-.065.049c0,.008,0,.016.016.016h.024c0-.016.008-.024.033-.033a.766.766,0,0,1,.033.081A.086.086,0,0,0,40.957-1,.054.054,0,0,0,41-.966v.008a.6.6,0,0,0-.138.211c0,.057-.049.089-.154.122a.26.26,0,0,0,.065.138v.008c-.114.016-.163.033-.163.057v.065a.153.153,0,0,1-.016.065.076.076,0,0,0-.049.065V-.2l.008.016.041-.008a1.66,1.66,0,0,1,.138-.2V-.34a.311.311,0,0,1-.1.171,1.4,1.4,0,0,1-.244.561c-.089.171-.154.26-.187.26L40.185.644,40.1.806a9.158,9.158,0,0,1-.756,1.407h-.008V2.2a.4.4,0,0,1,.049-.138A10.107,10.107,0,0,0,40,.733a4.382,4.382,0,0,0,.22-.455.276.276,0,0,0,.1-.1A1.159,1.159,0,0,1,40.4-.1l-.016-.008H40.38q-.012,0-.1.1c-.122.268-.211.407-.276.407H39.99V.384c.114-.415.2-.724.276-.911,0-.065.3-.756.886-2.073a1.588,1.588,0,0,0,.138-.642v-.041C41.274-3.454,41.193-3.535,41.055-3.535Zm.634,1.707c.016-.016.024-.033.041-.033a.3.3,0,0,1,.146-.154c.033-.089.073-.13.122-.13l.049.008v.016c-.016,0-.024.008-.041.024l.008.081a.218.218,0,0,1-.122.187,1.04,1.04,0,0,1-.138.211.98.98,0,0,1-.244.35l-.065-.057.024-.065q.146-.146.2-.146c0-.057.057-.138.154-.244V-1.8l-.057.008h-.057l-.016.008Zm-1.057-.1h.016c0,.008-.008.016-.008.033h-.008Zm.016.211c0-.033.024-.057.065-.1h.008v.024a.154.154,0,0,1-.057.114c-.008,0-.008-.008-.016-.016Zm-.171.13c.008-.024.016-.041.041-.049v.049Zm-.163.528a1.484,1.484,0,0,0,.163-.325.29.29,0,0,1,.138-.2c-.089.163-.2.423-.35.764a4.355,4.355,0,0,0-.317.87c0,.081-.057.138-.171.163a.084.084,0,0,1,.008-.033c.065-.211.13-.407.2-.585V-.4c-.016,0-.041-.016-.057-.065,0-.041.033-.1.106-.187a3.549,3.549,0,0,1,.211-.455.03.03,0,0,0-.008-.024c.073-.171.13-.26.179-.268h.008a1.676,1.676,0,0,0-.13.35Zm.146-.472q.024,0,.024.049h-.008c-.008,0-.016-.016-.024-.033Zm.821.179a.094.094,0,0,1,.065-.073.139.139,0,0,1,.049-.073h.016v.049q-.061,0-.073.1v.033c-.008,0-.024.008-.033.008s-.016-.008-.024-.008Zm2.488-.1h.008v.016H43.77Zm-3.659.016.033.008v.008h-.016C40.112-1.413,40.112-1.421,40.112-1.429Zm.041.154h.008l.008.024-.016.008Zm1.024.033c-.008,0-.008.008-.016.016l.008.041h.008c.016,0,.016-.008.016-.016v-.024C41.193-1.234,41.193-1.242,41.177-1.242Zm.154.2a.082.082,0,0,1,.073-.089l.016.008c-.016.057-.033.081-.049.081Zm-1.285.073c.024-.073.041-.114.065-.114v.008C40.087-1.015,40.063-.974,40.046-.974ZM41.063-1c0-.016.016-.024.041-.024h.008a.166.166,0,0,1-.016.089c-.016-.016-.033-.024-.033-.033Zm.2.057c0-.049.016-.073.041-.073h.016l-.041.081ZM40.006-.9a.017.017,0,0,1,.016.016,2.632,2.632,0,0,1-.179.431h-.016V-.47c.016-.081.024-.114.041-.114A2.58,2.58,0,0,1,40.006-.9Zm.951.276c.008-.024.024-.033.033-.033A.03.03,0,0,0,41-.633v.008Zm-.016.179c0-.016,0-.016.016-.016h.024c-.016.016-.024.024-.024.041h-.016ZM40.5-.324a.017.017,0,0,0-.016.016V-.3c0,.016,0,.016.016.016h.024V-.307c0-.008-.008-.008-.016-.016Zm-.057.057q-.024.012-.024.024V-.2a.017.017,0,0,0,.016.016q.024-.012.024-.024V-.267Zm.268.325q.024-.171.049-.171h.049v.024a.721.721,0,0,1-.089.154h-.008ZM40.681.1h.008c.008,0,.016.008.024.016-.008.033-.041.057-.081.089A.43.43,0,0,1,40.681.1Zm-.333.138-.024.016a.081.081,0,0,0,.008.033h.008A.017.017,0,0,0,40.355.27V.254ZM40.6.245c.008,0,.016.008.016.033l-.008.008h-.016Zm-.13.244c0-.057.016-.081.065-.081V.441c-.024.033-.033.049-.041.049ZM39.551.5h.008V.53h-.008ZM39.51.619h.016V.628a3.276,3.276,0,0,1-.163.642c-.049.252-.106.382-.154.382,0,0,0-.008-.016-.008l.008-.016V1.506l.008-.008L39.2,1.489l-.033.008V1.473h.024c.049,0,.073-.049.073-.13V1.319a.366.366,0,0,0-.065.016c0-.016,0-.024-.008-.033.008,0,.016-.016.016-.057.033.024.049.049.049.065h.008c.016,0,.024-.024.033-.073A.647.647,0,0,0,39.4.953,3.219,3.219,0,0,0,39.51.619Zm-.553.789c.016-.033.033-.041.041-.041l.008.041v.016q0,.012-.049.024Zm-.081.341a.161.161,0,0,1,.049-.114.251.251,0,0,0,.016.065c-.033.041-.049.057-.057.057h-.008Zm.22.033c0-.008,0-.016.016-.016s.016.008.024.033L39.1,1.79Zm-.228,0h.008a.03.03,0,0,0,.008.024.03.03,0,0,0-.008.024l-.016-.008ZM52.417-3.7a.49.49,0,0,0-.423.26.576.576,0,0,0-.179.447v.13a.368.368,0,0,1-.024.13,1.325,1.325,0,0,0-.138.309,5.741,5.741,0,0,1-.447.675,1.128,1.128,0,0,1-.22.4,1.243,1.243,0,0,1-.244.39,6.829,6.829,0,0,1-.8,1.024A5.014,5.014,0,0,1,49.49.6a1.586,1.586,0,0,1-.171.252,1.668,1.668,0,0,0-.439.374,1.816,1.816,0,0,1-.569.35,1.634,1.634,0,0,1-.268.146h-.016c-.057,0-.089-.179-.1-.528a7.256,7.256,0,0,1,.2-1.146,17.068,17.068,0,0,1,.886-2.716,3.018,3.018,0,0,0,.309-.756v-.016c0-.1-.033-.146-.1-.163h-.114a1.063,1.063,0,0,0-.171-.065.948.948,0,0,0-.268.065.448.448,0,0,0-.228.244,1.145,1.145,0,0,0-.228.374,14.922,14.922,0,0,0-.87,1.951,8.969,8.969,0,0,0-.528,2.309v.081a.971.971,0,0,0,.163.577,1.676,1.676,0,0,0,1.146.374,1.092,1.092,0,0,0,.154-.008,1.158,1.158,0,0,0,.585-.26A6.016,6.016,0,0,0,50.092.993a3.354,3.354,0,0,0,.455-.561L50.539.416,50.49.432c-.081.106-.13.163-.154.163a.538.538,0,0,1-.089-.008c-.033,0-.057.033-.073.081V.676c0,.016.024.024.057.033V.725c0,.041-.024.065-.081.081a.13.13,0,0,1-.065-.024h-.008a1.831,1.831,0,0,1-.2.171,1.018,1.018,0,0,0-.317.252.678.678,0,0,1-.317.211h-.008a.483.483,0,0,1,.033-.065c.1-.089.146-.146.146-.179h-.024L49.36,1.2h-.033V1.172c0-.008.024-.024.065-.057.1-.008.154-.041.154-.089V1.018L49.522.977a3.191,3.191,0,0,0,.528-.585c.073-.033.146-.154.22-.358.146-.171.228-.268.228-.309a.492.492,0,0,0,.1-.146c.081-.114.138-.163.179-.163.016-.122.033-.187.065-.187.024-.024.146-.2.358-.537.154-.26.26-.39.325-.39l.187-.293c-.049.154-.114.341-.2.561a9.2,9.2,0,0,1-.358.951,2.583,2.583,0,0,0-.138.415c0,.008.024.024.081.033l-.024.1-.285.61a6.909,6.909,0,0,1-.431.943,1.573,1.573,0,0,1-.2.415,3.644,3.644,0,0,1-.163.358,7.218,7.218,0,0,1-.472.9,3.3,3.3,0,0,1-.276.528.3.3,0,0,1-.146.26,3.421,3.421,0,0,1-.3.439.388.388,0,0,1-.211.138,1.4,1.4,0,0,0-.26.35c-.374.374-.569.569-.569.585a.121.121,0,0,0,.057-.008.9.9,0,0,1,.244-.2h.008a2.656,2.656,0,0,1-.317.407c0,.049-.081.163-.26.333-.1.138-.171.2-.22.2h-.008c.057-.138.1-.211.13-.211a.474.474,0,0,1,.146-.26c.146-.1.211-.179.211-.244V5.612h-.008a.69.69,0,0,1-.2.146c-.106.106-.163.163-.179.163a4.839,4.839,0,0,0-.455.545,1.364,1.364,0,0,0-.423.789.628.628,0,0,0,.016.122.517.517,0,0,0,.5.374.809.809,0,0,0,.691-.472c.626-.772,1.016-1.293,1.179-1.545a2.587,2.587,0,0,1,.317-.512c.512-.528.764-.8.764-.813a6.524,6.524,0,0,0,.634-.642V3.75a1.627,1.627,0,0,1-.211.163h-.016a5.157,5.157,0,0,1,.366-.374c.171-.187.276-.276.317-.276V3.246l-.008-.016c.008-.008.187-.211.528-.618.22-.228.333-.341.333-.35a15.77,15.77,0,0,1,1.3-1.22c.146-.114.569-.447,1.268-.984V.05a1.011,1.011,0,0,0-.2.057h-.008a1.068,1.068,0,0,1,.2-.114c.138-.049.2-.089.2-.106S54.628-.12,54.6-.129q.037-.049.049-.049h.073v.016c.024-.008.049-.033.081-.089V-.267h-.016a.141.141,0,0,0-.057.008c-.073,0-.114.016-.114.057a.281.281,0,0,1-.1-.008.287.287,0,0,0-.008.049c0,.024-.033.049-.106.065a1.826,1.826,0,0,1-.48.285h-.008l.024-.081L53.929.1c-.1.024-.146.057-.146.114l.024.081a3.917,3.917,0,0,1-.447.317A1.749,1.749,0,0,1,52.986.9a2.8,2.8,0,0,1-.325.285A6.977,6.977,0,0,0,51.9,1.9a4.7,4.7,0,0,0-.472.488,2.773,2.773,0,0,0-.439.52c-.041.024-.057.041-.057.049-.732.87-1.106,1.317-1.114,1.342h-.008V4.294a1.14,1.14,0,0,0,.073-.187,5.626,5.626,0,0,1,.756-.959c.13-.114.2-.187.2-.211a.747.747,0,0,0,.179-.244c.057-.041.089-.065.089-.089a.063.063,0,0,0-.008-.024,1.328,1.328,0,0,0,.154-.179c.138-.122.211-.2.211-.236A.792.792,0,0,0,51.7,1.9a3.188,3.188,0,0,0,.472-.48,1.126,1.126,0,0,0,.211-.187c.122-.1.187-.171.187-.2A1.144,1.144,0,0,0,52.8.839a4.061,4.061,0,0,0,.4-.325c.122-.081.268-.187.439-.325a4.208,4.208,0,0,0,.455-.276l.22-.089c0-.073.065-.122.2-.154L54.49-.356a.884.884,0,0,0-.3.114,4.862,4.862,0,0,1-.569.35,3.644,3.644,0,0,1-.463.333c-.049,0-.081.033-.1.106a.123.123,0,0,0-.114.073.677.677,0,0,0-.171.114L52.718.676a.083.083,0,0,0-.041.065V.823a.278.278,0,0,1-.211.122.008.008,0,0,0-.008-.008.485.485,0,0,1-.122.073l.008.073v.024c0,.016-.008.016-.016.016h-.049l-.016-.008.008-.049V1.059a.475.475,0,0,0-.081.065c-.016.1-.041.146-.081.146-.081,0-.2.1-.35.3a3.068,3.068,0,0,0-.756.8.217.217,0,0,1-.114.089,4.107,4.107,0,0,0-.439.6h-.008V3.034a1.919,1.919,0,0,1,.236-.472,2.827,2.827,0,0,1,.35-.415,3.548,3.548,0,0,0,.39-.431c.033,0,.154-.13.374-.382-.041,0-.122.057-.268.171a4.762,4.762,0,0,0-.675.667H50.84V2.164c.244-.5.39-.789.447-.878.13-.35.317-.789.569-1.309a7.414,7.414,0,0,0,.382-.943A9.63,9.63,0,0,0,53-3.243l-.016-.122A.924.924,0,0,0,52.417-3.7Zm-.041,1.512a.186.186,0,0,1,.057-.13.4.4,0,0,1-.041.146h-.016Zm-3.707.041h.016c0,.008,0,.016-.016.016ZM49.937,3a2.522,2.522,0,0,1,.366-.756,2.5,2.5,0,0,1,.3-.61c.138-.333.293-.683.463-1.057A11.984,11.984,0,0,1,51.742-.86c.073-.016.179-.22.333-.618.154-.415.252-.626.309-.626a3.879,3.879,0,0,0-.154.463l-.382,1q-.134.256-.39.878a3.321,3.321,0,0,0-.236.553c.008.008.008.033.016.073-.041,0-.081.041-.114.138.033.033.049.049.057.049s-.024.024-.081.041l.033.033v.008l-.008.041-.057-.041a.651.651,0,0,0-.089.187l.057.171V1.5h-.041c-.008,0-.041.033-.089.106A.449.449,0,0,0,50.9,1.53c-.057.041-.081.065-.081.081a.335.335,0,0,1,.033.122c0,.041-.016.057-.041.057V1.717H50.8c-.008,0-.024.016-.041.049L50.8,1.8c-.016.024-.024.041-.033.041h-.008V1.823h-.024v.016a1.934,1.934,0,0,1-.211.39.149.149,0,0,1,.049.081c-.008,0-.016,0-.033.016q-.012-.024-.024-.024H50.5c-.016,0-.024.016-.033.057,0,.024.024.033.073.041a.948.948,0,0,1-.138.236V2.6a.848.848,0,0,0,.065-.163l-.008-.016a.308.308,0,0,0-.122.2v.024a.13.13,0,0,0,.024.065c0,.033-.024.065-.065.106V2.758h-.016a1.633,1.633,0,0,0-.26.5.5.5,0,0,0-.106.187v.008h.008c.041-.024.065-.041.065-.041L50,3.416c0,.081-.041.122-.106.122,0-.008.008-.033.016-.073H49.9l-.033.033q-.122.22-.171.22c-.008,0-.008-.016-.016-.057h-.049q-.024.012-.024.024V3.7c0,.008.033.016.081.024,0,.041-.008.065-.041.065a.757.757,0,0,1-.211.423.841.841,0,0,1-.114.244c-.057.024-.089.049-.089.081V4.6l.008.016a.434.434,0,0,0-.13.179c0,.073-.114.211-.325.415-.008.065-.024.106-.065.106,0-.016-.008-.033-.041-.033l-.089.065a.332.332,0,0,1,.1-.2,1.146,1.146,0,0,1,.2-.3q.1-.012.1-.024a.128.128,0,0,0-.033-.008V4.79h.024a.063.063,0,0,0,.008.024c.041,0,.065-.033.1-.081,0-.016-.008-.033-.008-.065A.22.22,0,0,1,49.1,4.6c.106-.073.163-.13.163-.179,0-.016-.008-.024-.033-.033s-.057.024-.106.065h-.008a.643.643,0,0,1,.2-.3c.106,0,.187-.081.236-.236-.073,0-.106-.008-.106-.016a.355.355,0,0,1,.13-.22,1.555,1.555,0,0,1,.317-.585v.008a.251.251,0,0,1-.008.073l.008.016c.1-.049.146-.106.146-.187V3l-.008-.016c-.041.008-.073.016-.081.016ZM48.514-1.82c0-.033.008-.049.041-.057h.008v.016c-.033.041-.041.057-.041.065h-.008ZM47.864.05a.226.226,0,0,1,.057-.179,2.607,2.607,0,0,1,.106-.455.159.159,0,0,0,.057-.138.367.367,0,0,1,.073-.187c.008-.1.024-.138.033-.138a.8.8,0,0,1,.049-.163c.033-.1.065-.146.081-.146a.51.51,0,0,1,.13-.333.159.159,0,0,0,.008.057c-.041.13-.065.2-.065.211a.37.37,0,0,0-.065.187h-.008c-.008,0-.016,0-.016-.016a.017.017,0,0,0-.016.016v.008c0,.008.008.016.024.016a.4.4,0,0,1-.024.1.334.334,0,0,0-.057.138,1.674,1.674,0,0,0-.114.374.786.786,0,0,0-.1.333,1.147,1.147,0,0,0-.106.382l.008.016C47.9.132,47.9.156,47.88.2c-.008.163-.024.244-.041.244a.03.03,0,0,0-.008-.024c.008-.049.016-.081.016-.1s0-.057-.008-.146a.13.13,0,0,1,.024-.065Zm4.09-1.48c0-.008,0-.016.016-.016v.041h-.016Zm-.585.073v.016h.008v-.016Zm-.715.594c.016-.016.024-.033.041-.033a1.21,1.21,0,0,1,.236-.3h.016c-.016.041-.033.065-.041.065-.081.2-.154.3-.22.3h-.024A.049.049,0,0,0,50.653-.763ZM54.7-.681a2.574,2.574,0,0,0-.577.2,2.922,2.922,0,0,0-.512.341.017.017,0,0,0,.016.016h.041c.041,0,.106-.049.22-.138l.268-.13a2.01,2.01,0,0,1,.374-.146c.2-.041.3-.065.3-.089V-.641c0-.024-.041-.033-.114-.041Zm-6.919.309a.458.458,0,0,1,.1-.228v.057a1.58,1.58,0,0,1-.073.187Zm3.5-.2c.008,0,.016,0,.016.016v.024a.03.03,0,0,0-.024.008V-.559Zm-.455.033a.257.257,0,0,0-.1.146c0,.016.008.024.016.024h.008c.049,0,.081-.041.089-.122A.116.116,0,0,0,50.831-.543Zm.8.024c-.008,0-.016.016-.033.041l.024.041c.024-.016.033-.024.033-.033V-.494Q51.64-.519,51.628-.519ZM51-.4v.016h.016V-.4Zm-.293.033a.017.017,0,0,0-.016.016V-.34H50.7c.016,0,.016,0,.016-.016V-.364ZM47.75-.275c.016-.041.033-.065.041-.065H47.8v.024c-.008.049-.024.073-.041.073A.049.049,0,0,0,47.75-.275Zm3.423-.057h.008c.008,0,.016.016.024.033v.016C51.189-.283,51.173-.3,51.173-.332Zm.382-.008a.16.16,0,0,0-.081.138.252.252,0,0,0-.065.187h.016c0-.073.016-.106.049-.106.049,0,.089-.073.1-.22Zm2.935.024L54.482-.3v.033A.017.017,0,0,0,54.5-.25h.024c.024-.008.033-.024.033-.033S54.539-.3,54.49-.316ZM50.669-.3c-.008,0-.008.008-.016.016v.008h.016Zm.341.073c-.016,0-.016.008-.016.016v.033H51c.016-.016.033-.024.033-.033V-.226Zm-.041.065c-.016,0-.024.016-.033.049,0,.008,0,.016.016.016s.024-.016.024-.024V-.145Zm-.423.016c-.008,0-.016.008-.024.033,0,.008.008.016.008.024h.024c0-.016,0-.024.008-.024V-.145Zm3.773,0-.033.033c0,.008.008.016.033.024s.024-.008.041-.033V-.129a.017.017,0,0,0-.016-.016Zm-.756.016c-.041,0-.089.033-.138.114L53.433,0c.089-.008.138-.041.138-.1V-.112Zm.862.065c.016,0,.024-.008.041-.016v.016a.063.063,0,0,0-.024.008h-.016ZM50.9-.055l-.041.008a1.525,1.525,0,0,1-.146.2q-.146.171-.146.22c0,.016,0,.024.008.024a.292.292,0,0,0,.138-.154.819.819,0,0,0,.2-.276Zm-.431.033c-.008,0-.024.016-.041.049V.034l.008.016c.024-.008.041-.016.041-.024V-.023Zm3.642,0L54.076,0c.016.016.024.033.033.033h.016c.008,0,.016-.016.024-.033q-.012-.024-.024-.024ZM50.718.01V.018h.016V.01Zm.268.008a.06.06,0,0,0-.049.016c-.187.407-.276.626-.285.65V.717l.008.041h.016a1.163,1.163,0,0,1,.2-.333.116.116,0,0,0-.016-.049V.359a1.375,1.375,0,0,0,.138-.293V.034Zm2.366.008h-.033a4.544,4.544,0,0,0-.577.415,7.48,7.48,0,0,0-.911.846l.008.016a.151.151,0,0,0,.089-.033c.114-.163.2-.244.236-.244A1.274,1.274,0,0,1,52.49.758a1.342,1.342,0,0,1,.22-.179.6.6,0,0,1,.049-.089.79.79,0,0,0,.366-.268,2.151,2.151,0,0,0,.244-.179C53.368.026,53.36.026,53.352.026ZM47.644.262c0-.106.016-.163.033-.163l.008.057V.164a.4.4,0,0,1-.033.106h-.008ZM53.815.237q.012-.024.024-.024h.041V.229q-.012.024-.024.024h-.041ZM47.644.3h.008l.008.041V.351q-.012.024-.024.024V.343Zm3.6.049c-.024.008-.033.033-.033.073V.441h.016c.041-.033.065-.049.065-.065s-.008-.024-.016-.024ZM47.628.392h.008l.008.081a.639.639,0,0,1-.033.1H47.6V.465A.34.34,0,0,1,47.628.392Zm3.886.016c.008,0,.008.008.016.033V.457a.087.087,0,0,1-.024-.041ZM47.587.741c0-.008,0-.016.016-.016h.008V.733L47.6.75ZM50.563.88c-.024.024-.041.041-.041.049V.937a.108.108,0,0,0,.024.057c.024-.016.041-.024.049-.049C50.6.9,50.579.88,50.563.88Zm2.4.146c.016,0,.041-.024.065-.057h.024c-.033.049-.057.073-.081.073h-.008Zm-2.447,0c-.065.049-.089.081-.089.089,0,.024.016.041.057.041a.064.064,0,0,0,.041-.065V1.026Zm.626.187c0-.008.016-.024.049-.041H51.2v.049c0,.008-.016.024-.049.041H51.14ZM50.449,1.2c-.057,0-.1.057-.122.179a.054.054,0,0,0,.033.057.292.292,0,0,0,.106-.187A.32.32,0,0,0,50.449,1.2Zm.5.211c-.033.008-.041.033-.041.065v.033h.008a.061.061,0,0,0,.041-.057V1.416Zm-.65.089-.041.008a.275.275,0,0,1-.065.154,1.851,1.851,0,0,0-.228.545.008.008,0,0,1,.008.008.243.243,0,0,0,.065-.033.6.6,0,0,1,.065-.2c.041-.008.073-.081.114-.22a.828.828,0,0,0,.106-.228V1.506ZM51,1.546h.016v.041h-.024Zm-.268.341h.008q.024.012.024.024c0,.008-.008.016-.033.024Zm-.886.561q-.049.012-.049.024v.008a.074.074,0,0,1,.041.024h.016V2.465Zm1.431.016H51.27a.28.28,0,0,0-.163.114v.008a.227.227,0,0,0,.179-.114Zm-1.512.081c-.008,0-.024.024-.041.057a.049.049,0,0,0,.024.049c.024-.016.041-.033.041-.041V2.6A.108.108,0,0,0,49.766,2.546Zm-.089.2a.083.083,0,0,0-.041.049.053.053,0,0,1,.016.041.064.064,0,0,0,.065-.041Zm.594.114h.008l-.041.065H50.23Zm-.667.008c-.024.008-.041.041-.057.1a.227.227,0,0,0-.073.154l.008.016a.219.219,0,0,0,.154-.2.438.438,0,0,0-.008-.065Zm-.179.325a.141.141,0,0,1-.024.057c.016.024.024.033.033.033h.008c.008,0,.016-.016.033-.041a.055.055,0,0,0-.033-.049Zm.61.114h.008c.008,0,.016.008.024.033-.008,0-.008.008-.008.024a.063.063,0,0,0-.024-.008Zm-.683.033a.167.167,0,0,0-.065.122l.008.016c.081-.024.122-.057.122-.089A.062.062,0,0,0,49.352,3.335Zm1.146.033q-.024.012-.024.024V3.4c0,.008,0,.016.016.016a.017.017,0,0,0,.016-.016V3.384Zm-1.285.268c-.065.008-.1.024-.1.057-.041.114-.089.171-.138.187-.033.106-.057.154-.081.154-.106.228-.171.341-.211.358a.56.56,0,0,1-.057.2V4.6c.089,0,.154-.081.2-.236a1.579,1.579,0,0,0,.187-.3.108.108,0,0,0-.024-.057V4a.61.61,0,0,0,.236-.366Zm.943.463c.049-.049.073-.081.081-.081,0,.041-.024.065-.073.081Zm-1.049.089a.1.1,0,0,1,.016-.024c.016,0,.016.008.016.016s-.008.016-.033.033Zm.447-.008a.063.063,0,0,0,.024-.008h.008a.141.141,0,0,0-.024.057h-.008Zm.455.057c.024-.041.049-.057.057-.057h.008a.117.117,0,0,1-.049.057Zm-.715.024c-.008,0-.016,0-.016.016v.041h.016a.137.137,0,0,1,.016-.041A.017.017,0,0,0,49.295,4.262Zm.163.122c0-.008.008-.016.033-.024a.063.063,0,0,0,.008.024l-.041.016Zm.293.073a.357.357,0,0,1,.114-.089c-.024.057-.057.089-.1.089Zm-.39.073c0-.033.016-.057.057-.081l-.041.114H49.36Zm.309.024a.043.043,0,0,1,.049-.049h.008C49.726,4.514,49.709,4.53,49.669,4.555ZM48.392,5.1a.283.283,0,0,1,.089-.106c.057-.122.114-.187.163-.2,0,.049-.049.13-.154.236-.049.081-.073.122-.081.122a.017.017,0,0,1-.016-.016Zm.431-.049c-.024.016-.033.024-.033.033v.008l.016.024q.024-.012.024-.024V5.067Zm-.52.228h.016v.041h-.024Zm-.634.911c.065-.154.122-.236.171-.236v.008a.184.184,0,0,1-.089.146C47.734,6.156,47.709,6.189,47.669,6.189Zm-.228.22c0-.033.057-.1.171-.187,0,.008-.016.041-.033.106-.081.049-.122.081-.122.114h-.008Z" transform="translate(1.282 11.55)" fill="#fff" stroke="#fff" stroke-width="0.5"/>
</svg>
