<svg xmlns="http://www.w3.org/2000/svg" width="88.044" height="20.412" viewBox="0 0 88.044 20.412">
  <path id="パス_312" data-name="パス 312" d="M7.544-9.54a1.049,1.049,0,0,0-.2.024A4.45,4.45,0,0,0,5.568-8.6,14.227,14.227,0,0,0,4.324-7.418,14.5,14.5,0,0,0,2.69-5.4a5.714,5.714,0,0,1-.455.772,5.318,5.318,0,0,0-.862,1.463v.033h.008l.366-.431q-.171.439-.171.463v.008c.008,0,.154-.22.431-.634q.049,0,.049.024v.016L1.7-3.052v.008h.008c.041-.049.065-.065.073-.065.3-.407.6-.846.894-1.325a.8.8,0,0,1,.366-.309l-.024-.106.008-.057c.138-.049.211-.089.22-.114v-.122a3.687,3.687,0,0,1,.463-.585v-.065a.156.156,0,0,0-.033-.1.715.715,0,0,1,.179-.26c.325-.39.52-.594.585-.594a1.66,1.66,0,0,0,.325-.4l.561-.472h.008c-.146.171-.285.333-.423.488a2.274,2.274,0,0,0-.39.48A16.645,16.645,0,0,0,3.471-5.263c-.154.268-.276.48-.382.634a2.079,2.079,0,0,1-.5.659c-.081,0-.211.228-.407.683a.993.993,0,0,0-.244.4v.041a.979.979,0,0,0,.033.138.462.462,0,0,1-.1.187l-.1-.073H1.771a.264.264,0,0,0-.122.2.639.639,0,0,0,.073.163.612.612,0,0,1-.114.146,1.011,1.011,0,0,0,.049-.187v-.008a.089.089,0,0,1-.049-.024,1.966,1.966,0,0,0-.2.35l.041.024a.509.509,0,0,0,.114-.033h.008C1.462-1.6,1.4-1.409,1.4-1.4a.275.275,0,0,1-.081-.033c-.016.016-.024.016-.033.016-.041.089-.2.488-.472,1.2A8.413,8.413,0,0,0,.487,1.152c.008.154.008.3.008.431v.3a1.213,1.213,0,0,0,.016.171,3.264,3.264,0,0,1,.138.374.686.686,0,0,1-.228-.057c.089-.081.138-.13.138-.13V2.233a.688.688,0,0,0-.106-.1c-.041-.008-.073-.2-.089-.585a3.249,3.249,0,0,1,.049-.374C.4,1.087.365,1.038.3,1.038c-.024,0-.041.114-.041.341v.4a.711.711,0,0,1-.024.2A1.581,1.581,0,0,1,.3,2.241v.081C.3,2.371.292,2.4.267,2.4l-.049-.13C.186,1.81.137,1.583.1,1.583H.04V1.558l.024-.024a.359.359,0,0,0,.089-.26.717.717,0,0,0-.13-.35L.21.729V.721A.065.065,0,0,0,.162.648V.631a.671.671,0,0,0,.146-.4C.308.152.235.095.1.07L.779-1.889A.008.008,0,0,1,.771-1.9l-.033.016a3.249,3.249,0,0,0-.39.911A6.235,6.235,0,0,0-.123,1.136,4.719,4.719,0,0,0,.113,2.542,1.679,1.679,0,0,0,.8,3.477a3.216,3.216,0,0,0,1.561.382,3.551,3.551,0,0,0,1.7-.545,1.924,1.924,0,0,0,.594-.407l.333-.187A4.725,4.725,0,0,0,6.129,1.445c.041-.024.073-.228.089-.594a5.609,5.609,0,0,0,.244-.968.061.061,0,0,0-.008-.033.432.432,0,0,0-.2.228A4.386,4.386,0,0,1,5.8,1.2a2.732,2.732,0,0,1-.821.854V2.046l.057-.081c.35-.341.528-.545.528-.61A1.335,1.335,0,0,0,5.885.762V.745H5.877a1.513,1.513,0,0,0-.228.35,3.637,3.637,0,0,1-.626.756,5.547,5.547,0,0,0-.65.626A1.426,1.426,0,0,0,3.8,2.81a.687.687,0,0,1-.358.122,3.17,3.17,0,0,1-1.268.325,2.006,2.006,0,0,1-.553-.089A1.206,1.206,0,0,1,.95,1.94V1.794a.758.758,0,0,1,.008-.179,14.669,14.669,0,0,1,2.35-5.691,24.962,24.962,0,0,1,1.951-2.8C6.316-8.141,7.1-8.792,7.6-8.832h.081a.237.237,0,0,1,.13.041c.2.122.309.423.309.886a10.5,10.5,0,0,1-.7,3.187c-.447,1.089-.8,1.634-1.041,1.634q-.122,0-.2-.268a.15.15,0,0,0-.106-.13v-.049H6.064A1.4,1.4,0,0,0,6-3.174.541.541,0,0,0,6.024-3a.546.546,0,0,0,.537.455A1,1,0,0,0,7.3-2.97a6.872,6.872,0,0,0,.594-1.016A9.69,9.69,0,0,0,8.78-7.735a2.8,2.8,0,0,0-.2-1.163,1.289,1.289,0,0,0-1-.642Zm-1.9,1.634a.022.022,0,0,1,.024-.024v.008a.022.022,0,0,1-.024.024Zm-.22.211q.11-.146.146-.146v.024a.27.27,0,0,1-.13.122ZM8.146-6.523c.008,0,.016.008.016.024v.033a.369.369,0,0,1-.033.146H8.121a.1.1,0,0,0-.008-.049A.712.712,0,0,1,8.146-6.523Zm-6.057,2.4v-.016l.187-.268c0-.081.057-.154.163-.228h.024v.008a.791.791,0,0,1-.22.3c-.033.114-.081.187-.146.2Zm.228-.041c0-.008.024-.024.081-.057v.057l-.049.016H2.34Zm-.374.187c.016-.016.024-.033.033-.033H2l.008.057a.169.169,0,0,0-.049.016H1.942Zm.3,0h.008v.024H2.243Zm-.463.268a.086.086,0,0,1,.065-.081h.008v.049a.073.073,0,0,1-.065.081H1.779Zm.6.276h.041v.024c0,.016-.008.016-.024.016H2.381Zm-1.041.35c-.008,0-.033.024-.065.065a6.475,6.475,0,0,0-.5,1L.8-2.011A.141.141,0,0,0,.893-2.06c.089-.26.146-.39.187-.39a2.991,2.991,0,0,0,.276-.6C1.357-3.068,1.349-3.084,1.34-3.084Zm.285.2c-.049,0-.073.016-.081.033v.008l.024.073h.024c.041,0,.057-.008.065-.024v-.016A.1.1,0,0,0,1.625-2.889Zm-.073.179a.073.073,0,0,0-.041.008,3.287,3.287,0,0,0-.537.919.175.175,0,0,0-.081.154c-.146.325-.228.5-.228.512a.173.173,0,0,0-.1.138l.008.016a.983.983,0,0,0-.13.309,1.028,1.028,0,0,1-.081.341v.033a.52.52,0,0,0,.016.114v.016a.65.65,0,0,0-.122.033V-.1c0,.081.024.114.081.114H.349C.43-.011.462-.092.462-.222V-.23L.617-.279A1.4,1.4,0,0,0,.544-.507L.56-.556a3.27,3.27,0,0,0,.252-.6,6.013,6.013,0,0,0,.268-.61A1.68,1.68,0,0,0,1.227-2a.564.564,0,0,1,.2-.4.543.543,0,0,1,.13-.276Zm-.439.325a.085.085,0,0,0-.041.073V-2.3a.061.061,0,0,1,.033.008.139.139,0,0,0,.049-.073q0-.012-.024-.024Zm.285.48v.016a.022.022,0,0,0,.024.024v-.041Zm-.122.236c-.065,0-.106.073-.13.228v.016h.033a.29.29,0,0,0,.13-.211v-.016c0-.008-.008-.016-.024-.016Zm-.154.4a.1.1,0,0,0-.049.065l.008.073h.008c.016,0,.033-.041.041-.13v-.008ZM.853-.726a.085.085,0,0,0-.041.073l.033.041C.869-.621.885-.645.885-.686ZM.8-.531C.731-.531.69-.474.69-.352c0,.008.016.024.049.033L.8-.352.763-.4A.078.078,0,0,0,.836-.45.4.4,0,0,0,.8-.531Zm-.138.35C.625-.165.6-.149.6-.141v.065l.008.024A.348.348,0,0,1,.69-.076V-.1A.157.157,0,0,0,.666-.182ZM.576.127a.689.689,0,0,0-.106.1V.306C.422.444.389.518.389.534.405.534.414.542.414.55.47.518.5.493.5.477A.4.4,0,0,0,.495.388C.568.306.609.249.609.209S.6.136.576.127Zm5.5.138A.76.76,0,0,0,5.9.631l.016.016c.057,0,.114-.13.179-.382ZM.04.388A.065.065,0,0,1,.1.314V.347A.534.534,0,0,1,.072.453H.056ZM.381.81C.365.81.349.843.34.892V.916c0,.008.008.016.024.016L.422.924A.242.242,0,0,0,.381.81ZM.145.924C.129.924.129.932.121.94V.965C.137.981.145,1,.153,1S.17.989.186.973C.178.94.17.924.153.924Zm5.765.545.049-.008c.089-.163.154-.252.187-.26a.677.677,0,0,1-.276.439,2.691,2.691,0,0,1-.642.732c-.163.179-.26.268-.285.268H4.918a1.193,1.193,0,0,1,.114-.114c.081-.146.13-.228.171-.244a.789.789,0,0,0,.358-.358.4.4,0,0,0,.146-.13.5.5,0,0,0,.2-.333C5.91,1.461,5.91,1.461,5.91,1.469Zm-.846.813A.061.061,0,0,1,5.1,2.29v.041H5.072a.017.017,0,0,1-.016-.016V2.3Zm-.439.041a.073.073,0,0,0,.041-.008v.016H4.625Zm-4.138.2c.024.008.041.024.041.033v.041H.511C.5,2.591.487,2.567.47,2.542.479,2.542.487,2.534.487,2.518Zm.073.114c.008,0,.024-.008.057-.033.081.106.146.187.2.252a.786.786,0,0,1,.154.22v.016C.942,3.079.934,3.071.926,3.071Q.56,2.79.56,2.632Zm9.858.154a1.1,1.1,0,0,0,.268-.033,2.914,2.914,0,0,0,1.2-.74,4.539,4.539,0,0,0,.976-.951c-.089,0-.374.236-.854.7a2.351,2.351,0,0,1-.9.553l-.049-.008a.4.4,0,0,1,.154-.171,1.765,1.765,0,0,0,.455-.366,1.63,1.63,0,0,0,.317-.26c.024-.089.049-.138.065-.138l.122.016q.037,0,.049-.146a.2.2,0,0,1,.106.049l.1-.122c.26-.171.39-.3.39-.382a.73.73,0,0,0-.2.065.325.325,0,0,1,.049-.13c.244-.228.366-.39.366-.5a.762.762,0,0,0-.171.154c-.081.154-.146.228-.2.236-1.171,1.049-2.008,1.569-2.512,1.569-.138,0-.211-.041-.211-.13A3.523,3.523,0,0,1,10.621.542a16.06,16.06,0,0,1,2.114-2.529,1.256,1.256,0,0,1,.8-.472.447.447,0,0,1,.26.081.524.524,0,0,1,.171.341l-.016.146.008.065c-.114.317-.2.48-.244.5h-.073l-.024.016a.576.576,0,0,1-.089.171c-.016-.008-.024-.016-.041-.016a.308.308,0,0,0-.114.2c.008.041.024.057.057.057a.765.765,0,0,0,.285-.1,4.328,4.328,0,0,0-.407.626c.008,0,.008,0,.008.008a.217.217,0,0,0,.081-.033c.106-.171.252-.39.423-.65a1.168,1.168,0,0,0,.2-.146h.008l-.6.9c0,.008.041.033.13.065l.008-.146c.033.073.073.114.114.114a.175.175,0,0,0,.106-.073.022.022,0,0,0,.024.024c.008,0,.016-.024.024-.065-.008,0-.008,0-.008-.008L13.8-.369a.369.369,0,0,0,.041-.073A.166.166,0,0,0,13.93-.5c0,.024,0,.033-.008.033a.776.776,0,0,1-.179.374A.073.073,0,0,0,13.7-.1c-.008,0-.016.024-.024.081-.439.577-.683.894-.724.959V.957A.062.062,0,0,0,12.987.94a4.669,4.669,0,0,0,.537-.6.406.406,0,0,0-.089.22h.024l.065-.041A.513.513,0,0,1,13.467.7L13.451.688c.008-.033.016-.065.024-.089,0-.008-.016-.016-.033-.016s-.024.041-.041.13l.024.122a.351.351,0,0,0-.033.114.3.3,0,0,0-.049-.081c-.016,0-.024.016-.024.057a1.989,1.989,0,0,0-.179.837.494.494,0,0,0,.114.39,1.013,1.013,0,0,0,.756.455.652.652,0,0,0,.163-.016,1.668,1.668,0,0,0,1.024-.5c.374-.333.61-.537.7-.594C16.931.428,17.467-.1,17.5-.108a.284.284,0,0,0,.163-.26c-.089,0-.13-.024-.13-.065l.008-.211a.467.467,0,0,1-.008-.1c0-.024-.041-.041-.13-.049a.129.129,0,0,0-.081.041,1.347,1.347,0,0,1-.154.22,3.284,3.284,0,0,0-.407.423A.435.435,0,0,0,16.638,0l.008.024.049-.016V.022a.39.39,0,0,0-.065.089,7.518,7.518,0,0,1-1.016.976c0-.016.033-.057.089-.122-.041,0-.089.033-.154.106s-.333.285-.789.626a1.178,1.178,0,0,1-.39.268c-.041,0-.065-.049-.065-.154A7.023,7.023,0,0,1,15.15-.637a5.554,5.554,0,0,0,.764-2.179.756.756,0,0,0-.285-.61c-.057-.154-.114-.228-.179-.228-.033,0-.073.033-.13.1L15.313-3.6h-.024c0,.008,0,.016-.008.016a1,1,0,0,0-.228.35c-.244.626-.374.935-.382.943l-.033-.2h-.016l-.016.3c.008,0,.008,0,.008.008a.248.248,0,0,1-.073.106c-.008,0-.016-.016-.033-.041l.033-.057-.008-.211c.024-.033.041-.049.041-.057a2,2,0,0,0-.122-.333c.081.024.122.057.122.089h.016q-.024-.1-.049-.1a.587.587,0,0,1-.163-.073c0-.008,0-.008.008-.008a.37.37,0,0,1,.154.065.943.943,0,0,0-.187-.333.248.248,0,0,0-.106-.073.752.752,0,0,0-.553-.2,2.641,2.641,0,0,0-.8.171,4.054,4.054,0,0,0-1.057.715l-.407.366A14.9,14.9,0,0,0,10.264-.816,4.9,4.9,0,0,0,9.085,1.648,1.04,1.04,0,0,0,9.3,2.3a1.269,1.269,0,0,0,1,.488Zm3.358-5.423h-.049l.033-.041C13.768-2.678,13.776-2.661,13.776-2.637ZM10.337.526a.412.412,0,0,1-.065-.154q0-.061.22-.293L10.426.03V.014c.008-.033.024-.041.033-.041,0,.016.016.033.049.057h.016a.428.428,0,0,1,.049-.122c-.016-.008-.024-.024-.024-.065a.459.459,0,0,0,.22-.122.911.911,0,0,1,.146-.22.42.42,0,0,1-.049-.057A.37.37,0,0,0,11.028-.6,12.23,12.23,0,0,1,11.906-1.6a2.132,2.132,0,0,1,.577-.472c0,.049-.163.228-.5.528a3.446,3.446,0,0,1-.325.382c-.382.455-.626.724-.724.813a1.464,1.464,0,0,1-.244.39c-.179.154-.26.236-.26.26C10.426.428,10.394.5,10.337.526Zm4.212-2.4a.022.022,0,0,1-.024-.024.052.052,0,0,1,.041-.049l.008.024Q14.573-1.873,14.548-1.873Zm.756.2L15.3-1.718c0-.024.024-.041.057-.057l.024.057A.139.139,0,0,1,15.3-1.669Zm-1.39.5a.914.914,0,0,1,.3-.309,1.926,1.926,0,0,0,.13-.2.074.074,0,0,1,.041.024,1.021,1.021,0,0,0-.073.171A1.286,1.286,0,0,1,13.914-1.173Zm1.317-.293-.008-.041a.156.156,0,0,1,.089-.146A.2.2,0,0,1,15.231-1.466ZM13.987,2.022a.646.646,0,0,1-.041-.309l-.008-.1A.378.378,0,0,0,14,1.469a.217.217,0,0,0-.041-.106V1.355l.1-.089a.545.545,0,0,1,.057-.22c-.008-.024-.024-.041-.033-.041a.126.126,0,0,0-.089.057c-.033.187-.057.276-.073.276a.46.46,0,0,0-.081.22c0,.024.016.033.041.041q-.061.073-.1.073a.3.3,0,0,1-.089.008.531.531,0,0,1,.016-.089,3.163,3.163,0,0,0,.2-.488h-.016a.326.326,0,0,1-.081.13.118.118,0,0,1-.016-.057V1.16l.065-.13-.008-.024A.075.075,0,0,1,13.9.932h.008l.008.1c.065,0,.1-.049.1-.154L14,.818c-.057-.008-.089-.024-.089-.057L13.906.77,13.9.794,13.89.786,13.9.77c.154-.138.236-.22.236-.252q-.012-.024-.024-.024c-.016,0-.041.041-.065.114a.108.108,0,0,1-.057-.024V.566a.113.113,0,0,0,.041-.081A.272.272,0,0,0,14.06.371q0-.037.073-.049a.34.34,0,0,1-.024-.073c0-.008.016-.024.049-.033V.306l.008.016a.083.083,0,0,0,.065-.041V.257A.445.445,0,0,1,14.15.111l.1.008c.024,0,.033-.024.033-.073,0-.016-.024-.024-.065-.033a.251.251,0,0,1,.016-.065l.065.041a.108.108,0,0,0,.024-.057c.041-.057.065-.089.065-.114s.1-.244.285-.691a2.209,2.209,0,0,1,.3-.691l.041.024A.017.017,0,0,1,15-1.523a1.165,1.165,0,0,0-.138.415,2.158,2.158,0,0,0-.26.675.13.13,0,0,0,.024.065c0,.008,0,.008-.008.008l-.041-.008a1.437,1.437,0,0,0-.1.26.118.118,0,0,0,.016.057.252.252,0,0,0-.1.024L14.4.022a.507.507,0,0,0-.089.138,1.307,1.307,0,0,1-.057.309q.012.024.024.024a.1.1,0,0,0,.073-.049.776.776,0,0,1,.1-.341L14.443.054c0-.008.024-.016.065-.041a.848.848,0,0,1,.065-.285l.073.016c.024,0,.049-.041.073-.13a4.174,4.174,0,0,0,.228-.52c.041-.171.089-.26.146-.26a.983.983,0,0,1,.041.187l-.008.024c-.065.008-.1.024-.1.057l-.049.146A.265.265,0,0,0,14.9-.6.4.4,0,0,1,14.93-.5l-.008.016L14.857-.5c-.008,0-.008.008-.016.016l.024.041-.008.033a.412.412,0,0,1,.016.106c-.073,0-.114.024-.114.073a.367.367,0,0,1,.024.106.116.116,0,0,1-.016.049l-.081-.016c-.008,0-.016.016-.024.041L14.7.005c-.057.008-.081.016-.081.033a.351.351,0,0,1,.033.114.122.122,0,0,1-.033.089L14.565.225c-.016,0-.024.008-.033.033a.256.256,0,0,0,.057.089.326.326,0,0,1-.065.13V.55a6.68,6.68,0,0,0-.244.715l-.146.228.033.065a.4.4,0,0,1-.033.106l.008.073a.208.208,0,0,1-.057.1l.008.065C14.085,1.981,14.044,2.022,13.987,2.022Zm1.155-3.236c-.041,0-.065-.008-.073-.041s.033-.081.114-.171l.1.041a.183.183,0,0,1-.008.081l-.049-.008C15.191-1.312,15.158-1.279,15.142-1.214Zm-.911.073a.085.085,0,0,1,.041-.073v.008C14.272-1.182,14.256-1.165,14.231-1.141Zm-.179.049c-.008,0-.008,0-.008-.008a.061.061,0,0,1,.057-.033A.083.083,0,0,1,14.052-1.092Zm1.008.26c0-.008-.008-.008-.016-.016l.024-.033c.008,0,.016.016.024.033ZM14-.808c-.008,0-.008,0-.008-.008A.207.207,0,0,0,14-.873h.016ZM11.532-.824c-.008,0-.016-.008-.016-.033C11.532-.856,11.532-.84,11.532-.824ZM13.9-.507H13.89l.171-.309a.017.017,0,0,1,.016.016l.016-.008A.771.771,0,0,1,13.9-.507ZM11.4-.645h-.033c.008-.024.024-.041.041-.041Zm2.342.13H13.7a.07.07,0,0,0-.024-.049V-.58a.146.146,0,0,0,.065-.033Zm-.065.187L13.654-.36V-.369c.033,0,.049.016.049.033Zm.626.122H14.3a.172.172,0,0,1,.081-.163l.008.016c0,.024-.008.041-.024.041C14.361-.238,14.345-.206,14.3-.206ZM10.442-.222H10.4V-.23l.024-.008.016.008Zm2.87.431a.9.9,0,0,0,.252-.276l-.008-.016-.073.008c-.016-.049-.033-.073-.041-.073l-.016.008c-.024-.057-.041-.081-.049-.081a.781.781,0,0,0-.2.276l.057.008A.149.149,0,0,0,13.288,0c.008,0,.024.024.057.073A.2.2,0,0,0,13.3.176C13.3.2,13.3.209,13.312.209Zm1.951,1.569c0-.016.008-.033.033-.057V1.7h-.008a.115.115,0,0,1-.089.033l.024-.065c.114-.089.276-.228.48-.415q.11-.146.146-.146h.065l-.024-.049c0-.016.016-.033.049-.057a1.149,1.149,0,0,0,.35-.366L16.264.631a.245.245,0,0,0-.089.057c.041-.065.073-.1.089-.1.089,0,.138-.008.138-.033a1.5,1.5,0,0,1,.268-.2V.347h-.033a1.756,1.756,0,0,0,.26-.26l.033.008.146-.1-.008-.024a.337.337,0,0,0-.1.057h-.016a.706.706,0,0,1,.138-.13q0-.049.22-.1c-.024.041-.114.154-.26.341-.7.724-1.057,1.081-1.081,1.081-.171.187-.285.285-.341.285A1.837,1.837,0,0,1,15.264,1.778ZM13.418.022h-.033l-.073-.049.057-.106a.154.154,0,0,1,.057.114Zm3.74-.089A.056.056,0,0,1,17.183-.1V-.125l-.024.016-.016-.008c-.008.008-.008.016-.008.033S17.15-.068,17.158-.068Zm-6.781.033L10.337-.06c.008-.024.016-.033.024-.033l.033.024A.032.032,0,0,0,10.377-.035Zm3.179.5a.088.088,0,0,1-.033-.041c.049-.163.1-.244.13-.244A2.184,2.184,0,0,1,13.556.469Zm-.39-.122L13.2.339V.323a.137.137,0,0,1-.041-.016A.061.061,0,0,0,13.166.347Zm-.041.122L13.166.4a.008.008,0,0,1-.008-.008L13.1.412C13.1.444,13.117.469,13.125.469ZM10.32.444c.008,0,.016-.008.016-.024S10.329.4,10.312.4Zm-.13.138h-.065L10.117.558a.086.086,0,0,1,.1-.1A.36.36,0,0,1,10.19.583ZM13.069.55C13.06.542,13.06.526,13.06.5c-.016,0-.024.008-.033.041,0,.008.008.008.024.008Zm-.114.114L13,.591,12.979.583l-.1.008Q12.93.664,12.955.664Zm-2.87.13A.208.208,0,0,1,10.142.64C10.125.745,10.1.794,10.085.794ZM15.89.973h-.008l.033-.057a.782.782,0,0,0,.179-.154l-.008.024C16.012.908,15.947.973,15.89.973Zm-.1-.089c.049-.041.065-.057.065-.073s0-.016-.016-.016-.024.024-.049.065ZM9.971.94c0-.065.016-.089.049-.089l.065.016C10.085.892,10.052.916,9.971.94ZM13.939.916A.116.116,0,0,1,13.89.9l.016-.024.041.008Zm-1.39.106L12.442.989c.033-.073.065-.106.089-.106s.049.016.049.065A.132.132,0,0,1,12.548,1.022Zm.781.016.016-.073c.008,0,.024.016.033.049Q13.378,1.038,13.329,1.038Zm-.935.114h-.057V1.1c0-.008.016-.016.049-.016ZM15.5,1.2h-.049c0-.008.008-.016.024-.016S15.5,1.192,15.5,1.2Zm-2.211.057-.008-.024c.008-.016.016-.024.016-.041h.016C13.3,1.233,13.3,1.258,13.288,1.258Zm.447.2L13.7,1.453c0-.008,0-.016.016-.016S13.735,1.445,13.735,1.461Zm.065.293c-.041,0-.057-.008-.057-.016s0-.024.016-.024A.038.038,0,0,1,13.8,1.753Zm7.525-5.626a1.872,1.872,0,0,0-1.252.756,2.462,2.462,0,0,0-.7,1.52,1.364,1.364,0,0,0,.024.236l-.008.106.089.659a5.972,5.972,0,0,1,.146.667L19.6.282a.7.7,0,0,0,.089.285,8.941,8.941,0,0,1,.2.992c-.163.171-.374.366-.626.594A11.292,11.292,0,0,0,18.39,3c-.52.553-.862.911-1.024,1.065a8.224,8.224,0,0,1-.618.659,3.909,3.909,0,0,0-1.4,2.439,1.174,1.174,0,0,0,.545.992,2.951,2.951,0,0,0,1.488.439h.057a3.7,3.7,0,0,0,2.073-.732,4.569,4.569,0,0,0,.74-.626,3.607,3.607,0,0,0,1-2.675V4.412a8.88,8.88,0,0,0-.423-2.529.03.03,0,0,1,.008-.024c.26-.22.594-.48,1-.772Q23.459-.1,24.854-1.043a.483.483,0,0,0-.008-.089c.024-.033.041-.049.073-.049.057.008.081.016.089.016h.016l.041-.154a1.214,1.214,0,0,1,.228-.187v-.008a.678.678,0,0,0-.2.065,1.019,1.019,0,0,1-.366.268,1.8,1.8,0,0,1-.5.325h-.008c0-.024.041-.065.1-.114V-.978H24.26V-1c.016,0,.016-.008.016-.008a.412.412,0,0,0,.146-.065.049.049,0,0,1,.049.024c.016,0,.024-.016.024-.041a.238.238,0,0,0,.065-.154q.146-.073.146-.122a2.912,2.912,0,0,1,.431-.341v-.016c-.041,0-.114.049-.236.138l-.447.276c-.114.016-.187.033-.22.041-.341.228-.756.5-1.236.813A24.613,24.613,0,0,1,20.52,1.03a4.768,4.768,0,0,1-.309-1.61,2.416,2.416,0,0,1,.919-2.033.3.3,0,0,1,.024.089v.008a.268.268,0,0,0-.057.106c.008,0,.008,0,.008.008a.32.32,0,0,0,.049-.016c.057-.016.179-.236.358-.659a4.6,4.6,0,0,1,.065-.594C21.577-3.808,21.5-3.873,21.325-3.873ZM19.8-1.881c.008,0,.016,0,.016.016v.016c0,.016-.008.016-.016.016Zm-.122.35c.008-.041.016-.065.024-.065a.822.822,0,0,1,.057-.179.017.017,0,0,1,.016.016v.033c-.041.252-.073.374-.106.374a.137.137,0,0,1,.016-.041A1.131,1.131,0,0,0,19.683-1.531Zm5.041.016c-.008,0-.008,0-.008.016l.008.016c.008,0,.008-.008.008-.016Zm.171.081-.057.033a.017.017,0,0,0,.016.016h.008c.008,0,.016-.016.041-.033Zm-5.472.065c.008,0,.024.008.057.016l-.008.041A.121.121,0,0,1,19.422-1.369Zm5.765.057c-.041.016-.057.024-.057.033s0,.016.016.016c.024-.016.041-.033.041-.041Zm-.553.065-.049.016v.024H24.6c.016-.008.033-.024.033-.033Zm-.26.13A.268.268,0,0,0,24.5-1.2v.008a.226.226,0,0,1-.122.106Zm-4.61.179c.008-.057.024-.081.041-.081a1.917,1.917,0,0,0,.041.333,3.358,3.358,0,0,1,.106.528,2.476,2.476,0,0,1,.211.675l-.008.1a.175.175,0,0,0,.1.171c.008.024.024.146.057.35v.016a.154.154,0,0,1-.106.138l-.033-.024c0-.073-.033-.114-.1-.114-.008.008-.024.008-.049.008,0,.041-.016.065-.065.089-.016-.024-.033-.041-.033-.065V1.168c.008-.016.057-.041.154-.073-.057-.146-.089-.22-.106-.22h-.008A.108.108,0,0,0,19.91.9c-.033-.016-.049-.024-.049-.033A.513.513,0,0,0,19.983.6q.073-.049.073-.073a.819.819,0,0,0-.1-.333c0-.049-.033-.081-.106-.081h-.024a.017.017,0,0,0-.016.016V.233a.4.4,0,0,0,.008.089,1.414,1.414,0,0,1,.106.26h-.008C19.8.583,19.731.493,19.7.3a.831.831,0,0,1,.024-.089V.2a.177.177,0,0,0-.033-.081c.171-.049.252-.106.252-.171s-.024-.1-.041-.1a.974.974,0,0,1-.065-.228C19.8-.385,19.8-.417,19.8-.482V-.661A1.061,1.061,0,0,0,19.764-.938Zm4.3.024h.024q.1,0,.1.073c0,.081.016.114.057.114a2.986,2.986,0,0,1-.618.4h-.008V-.336a3.847,3.847,0,0,0,.439-.374V-.726h-.008a2.046,2.046,0,0,1-.3.163.366.366,0,0,1,.016-.065c.114-.065.163-.114.163-.163V-.84A.078.078,0,0,1,24-.791.117.117,0,0,0,24.065-.9Zm.374.016h.024c0,.016-.008.016-.016.016h-.016V-.889ZM19.65-.271h.016c.008,0,.016.033.033.089,0,.016-.016.033-.041.041V-.173Zm2.594.4h.008L22.227.16a7.766,7.766,0,0,1-1.244,1.016c-.1.114-.179.171-.228.171h-.033c-.016-.008-.024-.024-.024-.065V1.274a.655.655,0,0,1,.073-.154c-.016-.008-.016-.016-.016-.024V1.062c0-.024.008-.041.033-.041a1.411,1.411,0,0,1,.146.008C20.983,1.014,21,1,21,.981a.191.191,0,0,1,.171-.1V.875c0-.008-.016-.024-.057-.041l.008-.041h.041C21.845.379,22.2.16,22.244.127Zm-.878,1.114a.092.092,0,0,1,.073-.081c.041.008.057.016.057.033V1.2a.148.148,0,0,1-.13.065Zm-.3.033a.017.017,0,0,1,.016-.016l.041.008v.008a.03.03,0,0,0-.024.008Zm.179.073c0-.008,0-.016.016-.016a.017.017,0,0,1,.016.016v.008q-.012.024-.024.024h-.008Zm.049-.008h.016v.008h-.016Zm-.2.033c.049.008.073.024.073.065v.008a.3.3,0,0,1-.081-.049V1.388Zm-.789.236c.008-.041.016-.065.033-.065s.024.024.041.073c0,.008-.008.041-.016.089C20.341,1.7,20.325,1.672,20.309,1.607Zm-3.9,4.179a2.487,2.487,0,0,1,.5-.756,6.85,6.85,0,0,0,.585-.707,1.555,1.555,0,0,0,.276-.366,1.669,1.669,0,0,1,.39-.407,4.25,4.25,0,0,0,.455-.52,3.863,3.863,0,0,1,.455-.423c.431-.52.707-.781.837-.781.057.008.081.033.081.081V1.94a.122.122,0,0,1-.016.081.618.618,0,0,1-.2.325c-.065,0-.293.228-.7.691-.106.041-.154.073-.154.089a1.555,1.555,0,0,1-.455.415c-.065,0-.13.081-.2.252l-.317.374-.634.691A7.348,7.348,0,0,1,16.406,5.786Zm4.049-3.561a1.216,1.216,0,0,1,.146.236v.008a.6.6,0,0,1-.1.073.325.325,0,0,1,.057.114V2.7a.03.03,0,0,0-.024.008l.033.236v.016l-.008.1a.58.58,0,0,0-.114-.049.1.1,0,0,1-.049.073h-.016a.259.259,0,0,1-.081-.122l-.041.033h-.024V2.932a.167.167,0,0,1,.154-.1h.033l.008.041v.008l-.024.033v.033c.008.008.016.016.024.016H20.5l.016-.008a.157.157,0,0,0-.024-.081,1.6,1.6,0,0,0-.089-.512h-.024c-.041.106-.1.163-.187.163V2.518l.008-.041a.2.2,0,0,0,.122-.049A.693.693,0,0,1,20.455,2.225Zm-.13.309h.057a.03.03,0,0,0,.008.024v.016l-.016-.008h-.008a.66.66,0,0,0,.041.114v.008c-.073,0-.106-.024-.106-.073V2.607A.34.34,0,0,1,20.325,2.534Zm-.764.285c.146-.171.268-.252.358-.252h.033a.11.11,0,0,1,.1.073l.081.553c-.008.073-.016.13-.016.179a.791.791,0,0,0,.049.122c-.024.415-.033.65-.033.715,0,.033.008.1.016.2a.611.611,0,0,1-.057.228,3.844,3.844,0,0,1-.146.789,3.517,3.517,0,0,1-.285.691A4.759,4.759,0,0,1,18.195,7.7a3.541,3.541,0,0,1-1.236.382h-.024l-.016.008a.008.008,0,0,0-.008-.008h-.041c-.033,0-.073-.008-.106-.008a.451.451,0,0,1-.374-.5V7.559a3.772,3.772,0,0,1,.675-1.74c.415-.52.813-.984,1.2-1.407a8.314,8.314,0,0,0,.724-.8c.154-.13.236-.211.236-.244V3.363a.375.375,0,0,1-.106-.138l.228-.2a.141.141,0,0,1,.049.089.186.186,0,0,0-.122.163l.008.016c.033,0,.114-.073.228-.228q-.012-.024-.024-.024h-.024l-.016.008-.016-.033V3.014h.033c.122,0,.2-.033.228-.106.146-.106.22-.179.22-.211a.049.049,0,0,0-.024-.049l-.041.008c-.106.122-.171.179-.2.179h-.016Zm-.163.089.049-.016.016.008c0,.041-.008.057-.033.057L19.4,2.916Zm.846.114.057.008h.016c0,.008-.016.057-.049.163.016.065.033.1.057.1h.008c.016,0,.041-.049.065-.154h.008a.747.747,0,0,1,.049.268V3.42l-.008.049-.041-.033c-.1-.024-.146-.065-.146-.106a.32.32,0,0,0,.016-.049L20.2,3.209l.049-.065V3.128a.116.116,0,0,0-.016-.049Zm.236.163c.041-.041.065-.065.073-.065a.477.477,0,0,1,.1.171c-.041.163-.065.244-.065.26a.536.536,0,0,0,.073.211,1.1,1.1,0,0,1-.008.146c.008.114.008.187.008.228a.245.245,0,0,1-.033.106c-.008,0-.016-.016-.041-.041-.024-.138-.041-.211-.057-.211H20.52a.162.162,0,0,1-.016.065,1.639,1.639,0,0,1,.008.187v.016c0,.041-.049.073-.146.089.008.057.016.089.016.106H20.4V4.42a.1.1,0,0,1,.033-.065c.033,0,.049.065.057.2v.089a.77.77,0,0,1-.033.244.51.51,0,0,1-.106-.2.191.191,0,0,0,.057-.106V4.575c-.114-.057-.179-.1-.179-.13a.3.3,0,0,1,.13-.2.3.3,0,0,0,.073-.236q0-.049-.024-.049h-.057c-.016,0-.016.008-.016.016V4.03h-.008q-.024,0-.024-.049l.008-.016c.089-.016.13-.033.13-.049V3.81l.033.024c0,.065.024.089.073.089.016,0,.024-.024.033-.089,0-.016-.016-.138-.041-.358a.164.164,0,0,1,.024-.089c-.049-.114-.081-.171-.081-.179ZM19.065,3.3c.033,0,.065.024.089.073V3.38h-.016q-.049,0-.073-.073Zm-.252.276c.008-.041.024-.065.033-.065H18.9c0,.049-.033.065-.081.065Zm1.463-.008h.008c.041.033.065.065.065.081l-.016.049a.078.078,0,0,1-.081-.057A.34.34,0,0,1,20.276,3.567ZM18.642,3.8c0-.033.024-.065.081-.1v.008c-.041.057-.065.089-.073.089ZM20.4,4.957a.251.251,0,0,1,.065.016l-.008.057v.122c-.008.024-.024.041-.033.041h-.008a.638.638,0,0,1-.016-.114ZM19.008,7.29h.057l-.033.041C19.024,7.331,19.016,7.323,19.008,7.29Zm-1.122.683a.454.454,0,0,1,.3-.146h.008v.016c0,.057-.106.1-.309.138ZM30.59-3.6h-.049a3.16,3.16,0,0,0-1.821.789,11.157,11.157,0,0,0-1.073.992,5.786,5.786,0,0,0-.626.878c-.073.122-.211.431-.423.911a3.3,3.3,0,0,0-.146.74,1.568,1.568,0,0,0,.52,1.122,2.462,2.462,0,0,0,1.659.65h.138a4.522,4.522,0,0,0,.6-.057,3.608,3.608,0,0,0,1.569-.8,2.132,2.132,0,0,1,.415-.358,1.84,1.84,0,0,0,.382-.366A.008.008,0,0,1,31.728.9c-.065.033-.2.122-.4.26a5,5,0,0,1-.707.5.844.844,0,0,1-.39.211.463.463,0,0,1,.13-.114,1.915,1.915,0,0,0,.407-.26,1.811,1.811,0,0,0,.325-.2c.154-.081.236-.138.236-.171.163-.146.309-.276.447-.382.073-.081.122-.13.138-.13h.008L31.76.867A.169.169,0,0,0,31.866.81a3.53,3.53,0,0,0,.5-.52,1.723,1.723,0,0,0,.35-.537.67.67,0,0,0,.114-.22V-.491a.116.116,0,0,0-.016-.049V-.564a.939.939,0,0,0,.138-.382.1.1,0,0,0-.008-.049c-.057,0-.13.089-.236.276-.081.138-.244.366-.472.683v.016l.016.024V.014a.64.64,0,0,1-.179.2V.266h.049c.024,0,.033-.033.033-.089.024.016.033.024.033.033V.233c0,.041-.041.089-.138.146a.484.484,0,0,0-.073-.146h-.008a.681.681,0,0,0-.228.236c.008,0,.008,0,.008.008h.008c.13-.122.2-.187.228-.187a.649.649,0,0,0,.033.13.266.266,0,0,0-.122.187h-.106c0-.016-.016-.033-.049-.033h-.008l-.073.049c-.049,0-.065.024-.073.073,0,.016-.016.041-.065.073V.786c.024.024.033.041.033.049a1.442,1.442,0,0,1-.138.081.1.1,0,0,0-.065-.033h-.008a.721.721,0,0,0,.008.106l-.13.024v.057a1.719,1.719,0,0,0-.252.2,1.913,1.913,0,0,0-.431.211l.008-.041h-.065a1.077,1.077,0,0,1-.2.073v.049h-.049A.893.893,0,0,1,30,1.664a.53.53,0,0,0-.333.146h-.024a1.3,1.3,0,0,0-.415.122,1.224,1.224,0,0,1-.52.13,1.606,1.606,0,0,1-.545-.1A1.094,1.094,0,0,1,27.459.851V.827a2.466,2.466,0,0,1,.325-1.138h.008c0,.13.033.211.106.252a.321.321,0,0,0,.13.171,1.681,1.681,0,0,0,.585.163A3.7,3.7,0,0,0,30.565-.743c.854-.756,1.276-1.4,1.276-1.911a.69.69,0,0,0-.268-.528,1.751,1.751,0,0,1-.333-.228C31.183-3.531,30.964-3.6,30.59-3.6ZM28.207-.986a5.6,5.6,0,0,1,.707-.789A6.921,6.921,0,0,1,30-2.588,3.312,3.312,0,0,1,31.037-3h.089q.146,0,.146.122c0,.13-.13.325-.382.561-.5.5-.992.959-1.48,1.39A5.936,5.936,0,0,1,28.7-.4a.393.393,0,0,1-.276.106h-.008a.324.324,0,0,1-.26-.114c-.073-.154-.114-.236-.114-.236a.853.853,0,0,1,.179-.317A.03.03,0,0,0,28.207-.986ZM31.378-2.97h.033c.016.1.024.163.024.179a.81.81,0,0,1-.244.48,6.582,6.582,0,0,1-1.016.911h-.016a.514.514,0,0,1,.122-.1,3.612,3.612,0,0,0,.732-.715q.39-.427.39-.561a1.062,1.062,0,0,0-.024-.187ZM28.3-1.678c0-.033.016-.049.041-.049v.033A.137.137,0,0,0,28.3-1.678ZM27.15-.108a.531.531,0,0,1,.1-.211,4.2,4.2,0,0,1,.61-.9,1.307,1.307,0,0,1,.35-.374h.016a.31.31,0,0,1-.073.122c-.488.626-.764.992-.821,1.089q-.11.293-.171.293H27.15Zm.8-.187a.137.137,0,0,1,.041.016c.1.089.163.13.2.13h.033a.206.206,0,0,0,.114-.057h.041V-.2a1.408,1.408,0,0,1-.244.122l-.041-.008-.033.016a.362.362,0,0,1-.106-.187Zm-.561.024h.024l.008.041v.008H27.41q-.024-.012-.024-.024Zm-.463.089h.008v.033h-.008Zm.13.252c0-.041.033-.081.114-.13a.41.41,0,0,1-.089.187h-.016L27.053.087Zm.22-.106a.121.121,0,0,1,.057.008v.016c-.016.024-.033.041-.041.041,0-.024-.008-.033-.024-.033C27.264-.019,27.272-.027,27.272-.035Zm-.057.1h.065a.725.725,0,0,1-.073.244c-.033.016-.049.089-.049.236a4.657,4.657,0,0,0-.089.5v.057c.065.333.13.5.179.5q.024-.012.024-.024V1.558a.371.371,0,0,1-.065-.179V1.306l.016.008a1.969,1.969,0,0,1,.325.594V1.94a.03.03,0,0,0-.024.008c-.13,0-.276-.138-.455-.407a2,2,0,0,1-.114-.618,1.992,1.992,0,0,1,.163-.675A.776.776,0,0,0,27.215.062ZM26.7.379a.676.676,0,0,1,.065-.2c.016-.065.041-.106.073-.106l.008.041V.136a.561.561,0,0,1-.106.3C26.736.436,26.719.412,26.7.379Zm.26-.1c0-.008.016-.024.057-.041l.008.041c0,.024-.016.041-.033.065-.008,0-.016-.016-.033-.041Zm-.008.1h.008C26.988.388,27,.4,27,.436V.453l-.008.016c-.008,0-.024-.016-.049-.033ZM32,.55c.106-.114.163-.171.179-.171V.42a.42.42,0,0,0-.146.146ZM26.671.558A.061.061,0,0,1,26.711.5c.033,0,.057.033.057.106A.25.25,0,0,1,26.752.7q.012.3.024.415c0,.057.016.081.049.081a.72.72,0,0,0,.089.211c-.138,0-.228-.2-.252-.61,0-.065.008-.138.008-.22Zm4.96.13h.057c0,.016,0,.024.008.033h-.057A.049.049,0,0,0,31.63.688Zm-1.22.846a.1.1,0,0,1,.073-.041H30.5c0,.008-.033.016-.081.041Zm-.5.276a.063.063,0,0,0,.024-.008h.008V1.81a.03.03,0,0,0-.024.008h-.008Zm-1.358.358.041.024-.008.016L28.541,2.2V2.193Zm.138.041c.041-.008.065-.016.073-.016h.008c.081.008.122.024.122.041,0,0-.024.008-.057.016a.369.369,0,0,1-.146-.033Zm.13.13a1.5,1.5,0,0,0,.333-.041l.073.049c0,.016-.024.024-.081.033a1.567,1.567,0,0,0-.2-.024h-.122Zm22.5-12.431a2.058,2.058,0,0,0-.309.024,1.4,1.4,0,0,0-.724.276c0,.057-.122.089-.366.106a1.826,1.826,0,0,1-.52.26,4.279,4.279,0,0,0-.935.561c-.114.138-.2.2-.268.2-.154.041-.236.081-.236.122-.268.211-.431.341-.472.382a.49.49,0,0,1-.309.228l-.163.187a1.321,1.321,0,0,0-.415.276c-.057,0-.122.089-.187.26q-.341.146-.341.22l.024.114v.016c0,.057-.179.26-.545.618a.8.8,0,0,0-.228.049q0,.232-.61.781a1.6,1.6,0,0,0-.4.561,1.135,1.135,0,0,0-.2.236c.008,0,.008,0,.008.008q.073,0,.2-.146a3.008,3.008,0,0,1,.512-.577,5.023,5.023,0,0,1,.642-.6,4,4,0,0,1,.374-.407,5.757,5.757,0,0,1,.821-.732c.268-.252.431-.374.5-.374,0,.024.041.073.13.138v.024c0,.008-.016.024-.065.041a.12.12,0,0,0-.081-.073.447.447,0,0,0-.244.2c0,.016.033.033.089.057a.173.173,0,0,1-.089.065c-.008,0-.024-.016-.065-.057h-.008l-.163.13c.024.081.041.13.041.138a.569.569,0,0,0-.089.033v-.1l-.016-.016c-.13.049-.2.106-.2.163l.008.016.138-.016c-.016.024-.049.073-.089.146a3.4,3.4,0,0,1-.707.732.618.618,0,0,1-.317.309,1.148,1.148,0,0,1-.317.35,8.46,8.46,0,0,1-.667.756,1.432,1.432,0,0,1-.293.39,1.8,1.8,0,0,1-.252.407,1.521,1.521,0,0,1-.22.5,3.382,3.382,0,0,0-.309,1.049v.016a.467.467,0,0,0,.008.1l.114.244v.073a.555.555,0,0,0,.033.163c.22.447.325.683.325.7h-.049a.112.112,0,0,1-.089-.049.437.437,0,0,0-.2-.22.779.779,0,0,1-.22-.423c-.049,0-.106-.211-.163-.634a4.942,4.942,0,0,1,.146-.7c.041-.089.065-.138.065-.146v-.081c0-.016-.024-.041-.089-.049-.016,0-.024.008-.041.024a.333.333,0,0,1-.114.285l.033.049a.784.784,0,0,1-.081.244h-.024l-.033-.016a1.115,1.115,0,0,0,.041-.26,2.069,2.069,0,0,1,.089-.276v-.033l-.024-.033c-.138.122-.2.407-.2.854v.073a2.156,2.156,0,0,0,.138.618,2.752,2.752,0,0,0,.6.894,9.348,9.348,0,0,0,1.089.886q.5.268.854.488c.659.325,1.057.528,1.2.6.528.228.8.48.8.764a1.147,1.147,0,0,1-.057.293.8.8,0,0,1-.423.423,5,5,0,0,1-2.073.48,3.353,3.353,0,0,1-.675-.073,1.018,1.018,0,0,1-.886-1.008,4.751,4.751,0,0,1,.114-.821,1.613,1.613,0,0,0,.2-.407V.973A.324.324,0,0,0,43.655,1a.939.939,0,0,1-.268.407c-.016,0-.024-.008-.024-.016V1.379a.767.767,0,0,1,.065-.228c0-.008-.008-.016-.016-.033l-.049.049a3.523,3.523,0,0,0-.585,1.594,1.235,1.235,0,0,0,.26.756,2.5,2.5,0,0,0,1.984.707h.073A5.411,5.411,0,0,0,47.2,3.8a1.527,1.527,0,0,0,.659-.423,1.379,1.379,0,0,0,.407-.781V2.558a.151.151,0,0,0-.033-.081c-.065,0-.106-.106-.146-.317l.106-.041c0-.065-.065-.171-.2-.325-.073-.171-.138-.26-.187-.26a.008.008,0,0,1-.008.008.345.345,0,0,1,.041.1v.033a.022.022,0,0,1-.024.024H47.81c-.057,0-.236-.138-.52-.415-.163-.065-.244-.114-.252-.146l.024-.008h.024c.089.033.13.049.138.049h.041c.024-.008.033-.016.033-.024V1.127l-.033-.041A1.164,1.164,0,0,1,46.948.94a12.931,12.931,0,0,1-1.7-.951A6.459,6.459,0,0,1,44.2-.856a1.513,1.513,0,0,1-.431-1.122q0-1.1,2.464-3.553a28.1,28.1,0,0,1,2.26-1.976Q51-9.41,51.907-9.41a1.009,1.009,0,0,1,.22.024.278.278,0,0,1,.163.293v.049a1.929,1.929,0,0,1-.049.423,3.648,3.648,0,0,1-.366,1.081,3.047,3.047,0,0,1-.4.878,12,12,0,0,1-1.171,1.634,2.075,2.075,0,0,0-.325.39,2.687,2.687,0,0,0-.293.268,3.728,3.728,0,0,1-.756.577,1.594,1.594,0,0,0-.415.268c-.089.016-.138.049-.138.106,0,.041.008.057.041.057q.244.293.439.293h.065c.333,0,.846-.325,1.529-.959A11.541,11.541,0,0,0,51.6-5.312a6.426,6.426,0,0,0,1.5-3.317V-8.7a1.225,1.225,0,0,0-.366-.919,2.052,2.052,0,0,0-1.35-.472Zm-2.155,1.26c0-.016.024-.024.065-.041a.088.088,0,0,1,.057.089c0,.008-.024.024-.065.049h-.016A.141.141,0,0,0,49.167-8.832Zm-.886.634c.033-.041.049-.073.057-.081.236-.122.358-.187.366-.187a2.311,2.311,0,0,1,.407-.268c.016,0,.041.016.049.057-.008.041-.106.1-.3.179-.049,0-.13.065-.252.179a.515.515,0,0,0-.268.13Zm-.407-.187h.073a.219.219,0,0,1-.065.057h-.008Zm4.7.081.041-.041c.024.016.033.024.033.033V-8.3l-.033.057A.2.2,0,0,1,52.574-8.3Zm-4.529.138c.016-.024.024-.033.033-.033h.049c-.008.041-.024.057-.049.065,0-.008-.008-.016-.033-.016Zm4.48.146a.127.127,0,0,1,.049-.1,1.217,1.217,0,0,1-.024.146h-.024Zm-.081-.089.016.016c0,.008,0,.016-.016.016Zm-5.13.553a1.4,1.4,0,0,1,.3-.333.252.252,0,0,0,.187-.065h.016a.08.08,0,0,1,.041.057c0,.008-.041.049-.138.1a.4.4,0,0,1-.382.244Zm-.163-.252c0-.008.016-.024.049-.033v.057h-.049Zm5.228.154a.244.244,0,0,1,.073-.081.184.184,0,0,1-.073.163Zm-.268.407.081-.057c.033-.008.081-.081.154-.211v.024a1.394,1.394,0,0,1-.252.569c-.057.2-.114.3-.179.3h-.008v-.008l.008-.065a1.5,1.5,0,0,0,.22-.431v-.041A.137.137,0,0,0,52.111-7.247ZM45.72-6.6l-.016.016.008.016c.016,0,.016-.008.016-.016V-6.6Zm6.057.211a.188.188,0,0,1,.106-.179H51.9V-6.5c0,.057-.041.089-.114.106Zm-5.252-.138a.017.017,0,0,1,.016-.016h.016a.117.117,0,0,0-.016.024Zm-.894.024c-.049,0-.114.049-.187.163,0,.016.016.024.049.041.016,0,.057-.065.138-.187Zm6.073.244a.052.052,0,0,1,.041-.057v.041A.045.045,0,0,0,51.7-6.263ZM45.9-6.19c-.049.033-.073.049-.073.065v.016a.185.185,0,0,0,.114-.057.022.022,0,0,0-.024-.024Zm5.358.618a2.242,2.242,0,0,1,.35-.553,1.017,1.017,0,0,1-.333.553Zm-6.122-.415c-.065,0-.13.057-.2.179,0,.016,0,.016.016.016h.008A.061.061,0,0,0,45-5.8a.781.781,0,0,1,.146-.163Zm.512.024c-.065,0-.106.041-.114.13a.022.022,0,0,0,.024.024h.081c.016-.008.033-.057.065-.146l-.024-.008Zm-.163.13c-.073.073-.114.13-.114.171.008,0,.008,0,.008.008a.133.133,0,0,0,.138-.1C45.509-5.8,45.5-5.832,45.484-5.832Zm-.7.171c-.041.016-.057.033-.065.057s.008.033.024.033h.049a.022.022,0,0,0,.024-.024v-.065Zm.512.041-.154.154v.016a.8.8,0,0,0,.2-.13V-5.6C45.338-5.6,45.33-5.613,45.3-5.621Zm5.846.122.041-.008H51.2l-.016.049h-.041ZM44.59-5.507c-.016,0-.016,0-.024.016v.024l.016.016c.041-.016.065-.033.065-.041V-5.5Zm.48.122c-.041,0-.081.033-.114.089-.106.089-.163.146-.163.179V-5.1l.008.024a.113.113,0,0,0,.065-.057c.146-.065.22-.146.22-.22v-.016Zm-.626.073c-.016,0-.033.033-.057.089v.008a.139.139,0,0,0,.089-.041C44.476-5.271,44.468-5.288,44.444-5.312Zm6.5.089q0-.024.073-.049h.008v.057c0,.008-.016.024-.049.041h-.024Zm-6.2.146c-.049.033-.073.065-.073.089l.016.008h.024c.049,0,.073-.024.073-.065V-5.06c0-.008-.008-.016-.024-.016Zm-.1.187c-.13.049-.2.114-.2.2v.008a.914.914,0,0,0,.211-.146v-.049Zm-.236.252c-.008,0-.016.008-.016.024V-4.6c0,.016.008.024.016.024l.041-.033c-.008-.024-.016-.033-.024-.033Zm-.317.073c-.016,0-.033.008-.065.033h-.008a.157.157,0,0,1-.081-.024l-.016.016c0,.016.024.057.081.122.065-.049.1-.089.1-.114A.061.061,0,0,0,44.094-4.564Zm.26.033v.016l.008.024a.022.022,0,0,0,.024-.024c0-.008-.008-.016-.024-.016Zm-.081.081c-.024.008-.033.024-.033.033v.033a.017.017,0,0,0,.016.016h.057a.044.044,0,0,0,.024-.033v-.033c0-.008,0-.016-.016-.016Zm-.106.154c-.033,0-.065.024-.089.081a.131.131,0,0,0,.024.073.151.151,0,0,0,.073-.138Zm-.455.2c-.008,0-.024.024-.033.065a.077.077,0,0,0,.057.049q.049-.037.049-.049v-.016c-.016-.033-.033-.049-.041-.049Zm.3.033c-.065,0-.106.033-.114.114l.008.016c.081-.033.114-.073.114-.13Zm-.2.276a.6.6,0,0,0-.154.2v.024a.219.219,0,0,0,.171-.2v-.024Zm-.325.5a.185.185,0,0,0-.081.154l.008.016c.073-.008.106-.041.106-.089v-.024C43.517-3.271,43.509-3.287,43.484-3.3Zm-.163.041c-.008,0-.016.008-.033.041l.016.049h.008c.016,0,.016-.008.016-.016v-.057Zm.39,1.935c.016,0,.024.008.024.016h-.024Zm.252.5c.057,0,.1.041.122.13C44.029-.694,43.98-.734,43.964-.824Zm-.041.138h.008v.033h-.008Zm.22.073c.106.024.154.065.154.122v.033l-.049.008c-.065-.073-.106-.122-.106-.154Zm.016.187a.03.03,0,0,0,.024-.008c0,.008.008.008.016.008L44.183-.4c-.008-.008-.016-.016-.024-.016Zm.163.008.016-.008c0,.008.008.016.016.033v.008H44.33A.061.061,0,0,0,44.322-.417Zm.2.122h.008v.024h-.008Zm.13.13a.227.227,0,0,1,.146.049c-.008.016-.016.033-.033.033-.041,0-.073-.024-.114-.073Zm.618.317.041.008V.168H45.3C45.281.168,45.265.168,45.265.152ZM45.8.4c.016.008.024.016.033.016s-.008.016-.024.016L45.793.42Zm.293.3a.127.127,0,0,1,.114-.049h.016V.656c0,.016-.041.033-.122.041ZM43.712.721a.26.26,0,0,0-.057.008.64.64,0,0,0-.22.35h.024a1.181,1.181,0,0,0,.26-.341ZM46.736,1h.016a.345.345,0,0,0,.1.041h.033l.049-.016c0,.008.024.024.057.065-.024,0-.041.008-.057.008a.764.764,0,0,1-.2-.089Zm.6.211v.016l.073.081a.059.059,0,0,0,.057-.033V1.249c-.016-.024-.024-.041-.041-.041Zm.2.1c-.008,0-.016.008-.024.016v.024a.555.555,0,0,0,.228.138h.016C47.68,1.363,47.606,1.306,47.533,1.306Zm1.431.382v.024h.016L49,1.7c0-.008-.008-.016-.024-.016ZM47.777,3.046a.117.117,0,0,0,.016-.073.611.611,0,0,0,.122-.26c0-.089.033-.138.089-.154a.11.11,0,0,1,.041.081v.016c-.106.26-.2.39-.252.39Zm-.122-.285c.041-.1.065-.154.081-.154l-.073.171h-.008Zm-.8.732c.1-.1.179-.154.228-.154.211-.228.341-.35.415-.35,0,.041-.041.1-.122.187a1.146,1.146,0,0,1-.48.333h-.016Zm.659-.293h.024v.008h-.024Zm-.968.423a.777.777,0,0,0,.211-.073.017.017,0,0,1,.016.016.456.456,0,0,1-.171.065h-.057Zm-.6.163q0-.1.122-.1l.073.016v.008a.253.253,0,0,1-.187.089H45.94Zm-1.5.049.049-.008c.016,0,.057.008.114.016v.024a.373.373,0,0,0-.081.008c-.008,0-.041-.008-.081-.016Zm.537.073H45v.008H44.98Zm12.777-14.4a1.012,1.012,0,0,0-.707.26,3.344,3.344,0,0,0-.561,1.236c-.285.943-.512,1.642-.667,2.09-.041.008-.276.041-.724.1a17.472,17.472,0,0,0-2.5.455,3.13,3.13,0,0,0-.7.26.234.234,0,0,0-.1.154.721.721,0,0,0-.089.154v.244l.016.024.057-.008H51.8l.016.008c0,.033-.008.081-.016.154.033.065.065.106.114.106.033,0,.106-.057.228-.163q0-.061.488-.171c.041,0,.1.008.154.008s.106-.016.106-.024a2.034,2.034,0,0,0,.35-.073.715.715,0,0,0,.146.016A.025.025,0,0,0,53.4-5.67a.2.2,0,0,1,.154-.1c.016,0,.073,0,.171.008a1.021,1.021,0,0,0,.171-.073,4.232,4.232,0,0,0,.626-.106q.366-.024.366-.122c-.016-.008-.041-.024-.057-.033a.567.567,0,0,0-.13.065.053.053,0,0,1-.041-.016,1.658,1.658,0,0,0-.431.073H54.2a.845.845,0,0,1-.122-.016.7.7,0,0,0-.276.1.879.879,0,0,0-.39.073,1.728,1.728,0,0,0-.228-.049c-.024.016-.041.024-.041.033a3.656,3.656,0,0,0-.488.138.412.412,0,0,1-.106-.016.036.036,0,0,0-.024.008.63.63,0,0,0-.2.089.719.719,0,0,0-.268.057c-.033-.016-.057-.041-.057-.057s.049-.065.146-.106a.439.439,0,0,0,.13-.065c.008,0,.016.008.024.008a.116.116,0,0,0,.049-.016.176.176,0,0,1,.154-.1c.008,0,.024.016.041.049H52.6c.008-.057.016-.081.041-.081h.008c.008.049.024.073.033.073h.049A.6.6,0,0,1,52.9-5.9a.225.225,0,0,0,.073.008h.024c.024,0,.033,0,.041-.008a.3.3,0,0,0,.171-.1h.008a.182.182,0,0,1,.081.024c.154-.016.236-.041.236-.073.024,0,.057.008.1.008a.162.162,0,0,0,.065-.024.084.084,0,0,0,.033.008.954.954,0,0,1,.244-.041c.008,0,.033-.016.073-.057a.162.162,0,0,0,.065.024c.073,0,.106-.033.106-.1,0-.016-.008-.016-.016-.016h-.008l-.041.033h-.016c-.008,0-.024-.024-.049-.065a.225.225,0,0,0,.1-.041q.146-.012.146-.049h.024a.313.313,0,0,1,.089.073.022.022,0,0,0,.024-.024c0-.016.033-.033.1-.057,0-.008-.016-.024-.057-.041.008,0,.024-.008.065-.016.073.024.114.041.122.041l.138-.041c.041.008.057.024.057.049H54.9q.024-.012.024-.024a.212.212,0,0,1,.089.024.22.22,0,0,0,.065-.024v-.024l-.033-.008V-6.45l.057-.008h.114a.721.721,0,0,0,.2-.049h.008a.116.116,0,0,1,.1.049c.049-.008.081-.016.089-.016a.229.229,0,0,1,.065.008q0,.024-.073.049a.3.3,0,0,1-.065-.008l-.041.041h-.024q-.293.012-.293.049v.008c0,.008,0,.016.016.016h.049c.049,0,.171-.024.374-.057h.024a7.236,7.236,0,0,1-.285.813c-.285.935-.545,1.764-.781,2.5-.187.732-.341,1.268-.455,1.6a8.631,8.631,0,0,1-.236.959,10.28,10.28,0,0,0-.276,1.911v.211a1.622,1.622,0,0,0,.1.577.8.8,0,0,0,.781.553h.106a1.85,1.85,0,0,0,.431-.065,3.624,3.624,0,0,0,1.407-.8.9.9,0,0,0,.236-.333l-.008-.016a.063.063,0,0,1-.024.008c-.154.171-.252.252-.3.252h-.008c0-.008.008-.033.016-.065a1.488,1.488,0,0,0,.3-.276c.13-.146.3-.35.512-.618.081-.122.146-.187.187-.187.016-.065.033-.106.049-.106a.881.881,0,0,0,.22-.293,1.414,1.414,0,0,0,.317-.545c.073-.2.114-.3.114-.317a.017.017,0,0,0-.016-.016c-.049,0-.1.057-.163.171-.057.089-.236.358-.537.813h-.008a.28.28,0,0,0-.073.008h-.008c.057-.073.081-.114.081-.138-.016,0-.041-.016-.057-.057q.1-.037.1-.049V.119c-.016,0-.041-.016-.081-.049-.008,0-.041.024-.089.081V.192c0,.008.008.024.041.049V.249c0,.008-.024.016-.057.016A.4.4,0,0,1,57.1.388V.4a.06.06,0,0,0,.016.049l-.008.041c0,.008-.089.1-.26.268a2.754,2.754,0,0,1-.26.285,1.573,1.573,0,0,1-.569.512c-.008,0-.016-.008-.024-.033a.092.092,0,0,0-.081.073,1.469,1.469,0,0,1-.9.553.475.475,0,0,1-.154-.033c-.154-.089-.228-.285-.228-.585V1.4a5.281,5.281,0,0,1,.1-.829A.639.639,0,0,1,54.83.136c.35-.626.691-1.342,1.041-2.138.431-.959.65-1.455.65-1.488q.207-.488.341-.878A10.983,10.983,0,0,0,57.3-5.531c.081-.179.163-.439.268-.764,0,0,.008,0,.024.016h.033a.049.049,0,0,0,.049-.024V-6.32l-.024-.033c-.041,0-.065.016-.065.049h-.008v-.008l.065-.154c.065,0,.1.008.1.016a.471.471,0,0,1,.252.049v.008l-.057.008h-.114l-.016.008c.016.041.033.065.041.065h.008a.677.677,0,0,1,.114-.033.088.088,0,0,1,.057.016l-.033.033v.016l.041.008a.968.968,0,0,1,.138-.024l.041.008H58.3a.534.534,0,0,0,.106-.024c.163.024.366.041.618.057a.347.347,0,0,1,.154.073c.008,0,.033-.016.073-.033a.226.226,0,0,0,.106.049h.008a.187.187,0,0,0,.073-.024c.341.049.618.1.829.138.073,0,.106-.008.114-.016l.285.073h.057c.171-.033.26-.114.26-.236v-.057a.782.782,0,0,0-.423-.61,3.923,3.923,0,0,0-1.675-.211h-.333c-.211,0-.447.008-.724.024.187-.585.341-1.106.455-1.545a8.776,8.776,0,0,0,.22-1.333v-.057a.311.311,0,0,0-.041-.154.43.43,0,0,1-.106.049h-.008c-.033,0-.049-.049-.049-.13a.1.1,0,0,0-.106-.114l-.016.008a.036.036,0,0,1-.024-.008.492.492,0,0,0-.065-.106h-.008c-.008,0-.016.016-.033.041l-.016-.008a.376.376,0,0,0-.228-.049ZM57.6-7.068a8.07,8.07,0,0,0,.244-.821,8.971,8.971,0,0,0,.39-1.683c.024-.22.065-.325.106-.325h.016l.008.1v.073A5.123,5.123,0,0,1,58.2-8.67a11.976,11.976,0,0,1-.431,1.594,1.214,1.214,0,0,1-.154.008Zm-.675.057c.049-.138.081-.211.081-.211a11.833,11.833,0,0,1,.577-1.537,1.639,1.639,0,0,1,.285-.569h.008v.041a.826.826,0,0,1-.057.2,1,1,0,0,1-.057.26c0,.008.008.016.008.024l-.024.122c-.073.276-.114.431-.114.455v.041l.008.016c.033-.024.049-.049.049-.065H57.7c.008,0,.016,0,.016.016v.106a.169.169,0,0,1-.057.122c-.041.179-.065.268-.089.268l.008.041a.5.5,0,0,1-.033.13h-.008q-.024,0-.024-.049v-.024c.024,0,.041-.008.041-.016V-7.67a.116.116,0,0,0-.016-.049.29.29,0,0,0,.073-.211.017.017,0,0,0-.016-.016c-.024,0-.041.049-.057.138a.607.607,0,0,0-.073.268.5.5,0,0,1,.008.106v.106c-.008.049-.016.081-.033.081h-.008v-.016h-.016V-7.2L57.4-7.206c-.008,0-.016,0-.016.016a.285.285,0,0,1,.016.081V-7.1l-.008.041a1.667,1.667,0,0,1-.455.049ZM57.969-8.6h.008v.016a1.128,1.128,0,0,1-.073.333c-.008,0-.016-.008-.024-.033l.033-.122A1,1,0,0,0,57.969-8.6Zm-.171.642c.024-.138.049-.2.073-.2,0,.073-.016.114-.033.114-.016.081-.024.114-.041.114Zm-.024.049h.016v.049a.049.049,0,0,1-.024.049v-.041Zm-.163.2c0-.008,0-.016.016-.016v.024h-.016Zm-.122.252a.017.017,0,0,1,.016-.016l.008.041-.008.016a.017.017,0,0,1-.016-.016Zm.122.138a.187.187,0,0,1,.065-.146v.041a.205.205,0,0,0-.049.138h-.016Zm-.041.138h.008v.033H57.57Zm-.033.081h.008v.041h-.008Zm.252.146a.716.716,0,0,1,.171.049v.033l-.041.008h-.073l-.049.041h-.024l-.016-.008A.65.65,0,0,0,57.79-6.962Zm-.228.008s.033,0,.106.008a.183.183,0,0,0,.057-.008.65.65,0,0,0-.033.122h-.041a.272.272,0,0,0-.106-.057A.153.153,0,0,0,57.562-6.954Zm-.285.138c0-.081.024-.122.065-.122h.008a.562.562,0,0,1-.016.122l-.016-.008h-.024Zm-.39-.081a2.8,2.8,0,0,1,.382-.033h.008a.217.217,0,0,0-.065.138h-.073a.448.448,0,0,0-.171.041c-.024,0-.065-.008-.122-.008A.847.847,0,0,1,56.887-6.9Zm1.26.049a.03.03,0,0,1,.008-.024.85.85,0,0,1,.236-.049.33.33,0,0,1,.138.041v.008a.5.5,0,0,0-.089.024h-.016l-.211-.033c-.008,0-.016.008-.016.033Zm-4.2.463c.008-.041.057-.065.146-.065.138-.049.211-.081.22-.081.2,0,.3-.016.3-.041l.26-.065a1.13,1.13,0,0,0,.3-.065,1.305,1.305,0,0,0,.472-.073.438.438,0,0,1,.065.008l.057-.008h.008l-.057.138-.1-.008a.265.265,0,0,0-.106.033c-.122.016-.358.049-.7.106h-.146c-.024.016-.033.024-.033.033a1.369,1.369,0,0,0-.293.049L54.3-6.434h-.024a.764.764,0,0,1-.309.049Zm4.3-.171a.083.083,0,0,1,.041-.065H58.3a.062.062,0,0,0,.016.033c-.016.033-.033.041-.041.041h-.024Zm-2.439.008h.016c.016,0,.016.008.016.016l-.016.024c-.008,0-.008,0-.016-.016ZM57.44-6.5c.024.024.041.033.049.033l.041-.008a.049.049,0,0,1,.033.008,1.715,1.715,0,0,1-.138.407,11.607,11.607,0,0,1-.415,1.146,10.318,10.318,0,0,1-.618,1.5,4.949,4.949,0,0,1-.228.577c-.122.236-.236.48-.341.724a2.183,2.183,0,0,0-.244.431c-.1.22-.171.341-.211.358a.008.008,0,0,0-.008-.008.787.787,0,0,1,.106-.2,3.15,3.15,0,0,1,.2-.463c.146-.366.236-.569.268-.626a1.68,1.68,0,0,1,.228-.5,2.469,2.469,0,0,1,.2-.52,5.12,5.12,0,0,1,.2-.5l.171-.455A1.092,1.092,0,0,0,56.887-5c.114-.268.187-.472.228-.594a2.224,2.224,0,0,0,.154-.472A1.441,1.441,0,0,0,57.44-6.5Zm-.675.049c.171-.008.309-.016.431-.033h.016l-.008.016v.1c-.033,0-.049.016-.049.057h-.016c-.016,0-.016-.016-.016-.049h-.008c-.024.008-.033.024-.033.057v.041c.008.016.024.033.033.033a.335.335,0,0,1-.049.154.314.314,0,0,1-.089.252.754.754,0,0,1-.114.293l-.033-.024h-.016v.008l.008.049c-.008.024-.024.041-.033.041a.25.25,0,0,0,.033.073.108.108,0,0,1-.024.057l-.033-.016a.025.025,0,0,0-.016.008.919.919,0,0,0,.008.114.262.262,0,0,0-.049.146c-.033,0-.049,0-.049-.008,0,.016-.008.016-.016.016l.016.057v.106l-.008.057h-.016q-.024,0-.024-.049v-.024h-.024a.447.447,0,0,0-.057.154.07.07,0,0,0,.024.049.116.116,0,0,1-.016.049l-.016-.008c-.016,0-.024.024-.041.065a.229.229,0,0,0,.008.065c-.008.016-.008.024-.016.024-.016.106-.041.154-.057.154a.017.017,0,0,1-.016-.016l-.016.008.008.041v.049l-.033-.041c-.024,0-.073.122-.146.374a1.13,1.13,0,0,0-.138.325l-.1.22c-.2.423-.325.707-.374.854v.008l.008.057L55.594-2.5a.1.1,0,0,0-.024.016q-.037.1-.049.1a2.831,2.831,0,0,0-.26.528h-.008c.041-.154.22-.7.528-1.642.333-1.065.626-1.968.87-2.691.024-.016.041-.033.041-.057a.017.017,0,0,0-.016-.016c.041-.122.065-.187.065-.2A.03.03,0,0,1,56.765-6.45ZM53.6-6.369v-.008a1,1,0,0,1,.2-.057h.016a.017.017,0,0,1,.016.016l-.008.016a.756.756,0,0,0-.171.049A.116.116,0,0,1,53.6-6.369Zm1.553-.065a.017.017,0,0,0-.016.016v.008a.03.03,0,0,1,.024.008c0-.008,0-.016.016-.016a.017.017,0,0,0-.016-.016Zm1.187.065q.012-.024.024-.024v.049Q56.342-6.357,56.342-6.369Zm-.6.13c0-.016,0-.016.008-.016.008-.081.033-.122.065-.122v.016c.041.024.057.049.057.073A1.1,1.1,0,0,0,55.741-6.239Zm.707-.081a.049.049,0,0,1,.024-.049h.016q.024.012.024.024v.024a.054.054,0,0,1-.033.057A.054.054,0,0,1,56.448-6.32Zm-1.407-.041a.49.49,0,0,1-.106.065c0,.008.016.016.041.024.081-.024.122-.033.122-.041S55.082-6.336,55.042-6.361Zm-.764.057c-.008,0-.016,0-.016.016l.008.016.049-.008v-.008A.017.017,0,0,0,54.3-6.3Zm.577.016c-.049.016-.1.024-.154.041v.016c.114-.008.163-.024.163-.041v-.016Zm2.122,0a.049.049,0,0,0-.049.024v.024h.041q.024-.012.024-.024v-.008A.017.017,0,0,0,56.977-6.288Zm-.2.008-.033.008v.008c0,.008,0,.016.016.016h.016c.016,0,.016-.008.016-.016S56.79-6.279,56.773-6.279ZM53.9-6.239c.041.008.089.024.146.041v.016a.3.3,0,0,0-.138.041.277.277,0,0,0-.13-.033h-.008a.082.082,0,0,0-.089.073.219.219,0,0,1-.106-.057.227.227,0,0,1,.041-.065c.041.016.065.033.065.041a.129.129,0,0,1,.081-.041h.033l.041.024C53.871-6.214,53.9-6.223,53.9-6.239Zm2.268.033q0-.024.049-.024a.061.061,0,0,0,.008.033l-.033.016a.1.1,0,0,1-.024-.016ZM54.44-6.231a.008.008,0,0,0-.008.008c-.081.016-.122.033-.122.041v.016c0,.016,0,.016.016.016h.024l.073-.024c.016,0,.041.008.065.008l.024-.024C54.513-6.206,54.489-6.223,54.44-6.231Zm.2.016v.008h.016v-.008Zm-2.033.065c0-.008.008-.016.033-.024.008,0,.016.016.024.033s-.008.016-.016.016h-.008Zm.642-.024h.041v.016h-.024C53.261-6.157,53.253-6.157,53.253-6.174Zm2.976.057c0-.008.016-.024.057-.041q0,.085-.049.1L56.229-6.1ZM55.4-6.157a.458.458,0,0,0-.1.033c0,.033.008.041.016.041h.057c.065,0,.089-.008.089-.024C55.44-6.141,55.424-6.157,55.4-6.157Zm-.146.008a.225.225,0,0,0-.1.041c.016.033.033.049.057.049.008,0,.024-.016.057-.065C55.253-6.133,55.253-6.141,55.253-6.149Zm-.545,3.5a.151.151,0,0,0,.138-.106,3.484,3.484,0,0,1,.122-.341,1.107,1.107,0,0,1,.049-.2c.228-.764.382-1.236.455-1.415l.26-.772a1.752,1.752,0,0,0,.1-.293c.057-.244.114-.366.154-.366.008,0,.008.016.008.049a2.639,2.639,0,0,0-.089.3.624.624,0,0,0-.106.317,2.657,2.657,0,0,0-.114.366A.722.722,0,0,0,55.6-4.9a.61.61,0,0,0-.057.163c-.049.154-.1.341-.163.569a.825.825,0,0,0-.081.309,6.2,6.2,0,0,0-.333,1.041.329.329,0,0,0-.049.089l.008.049v.008a.435.435,0,0,0-.089.228c-.041.138-.073.228-.081.276.008.041.016.065.033.065h.024c.008,0,.016-.016.024-.041s-.008-.049-.008-.073v-.008a.138.138,0,0,1,.065-.106c-.008-.033-.016-.057-.016-.065a1.323,1.323,0,0,0,.106-.252c.016-.138.041-.211.057-.211a.68.68,0,0,1,.073-.228c.024-.2.057-.3.106-.3l-.008-.1.081-.016-.024.033v.008a.5.5,0,0,0,.041.049h.008a.13.13,0,0,0,.065-.024l-.008-.073a.059.059,0,0,1,.033-.057h.024c.008,0,.016.008.024.016h.033q.024-.012.024-.024C55.5-3.6,55.489-3.6,55.481-3.6h-.073a.366.366,0,0,0,.016-.114v-.016h-.033a.171.171,0,0,1-.065.049v-.041a.223.223,0,0,1,.033-.041c.033-.138.065-.211.106-.211a.308.308,0,0,0-.008-.065.159.159,0,0,1,.089-.138.481.481,0,0,1,.065.041l-.033.163-.024-.016h-.024a.017.017,0,0,0-.016.016v.016c.024.024.033.033.033.041v.008a.049.049,0,0,1-.024.049l-.049-.008a.137.137,0,0,1-.041.016v.033a.956.956,0,0,1,.122.089h.024c.016-.081.041-.122.057-.122h.041a.063.063,0,0,0,.008.024c-.016.073-.041.154-.073.26a1.559,1.559,0,0,1-.081.211h-.008c0-.024-.008-.033-.024-.033l.024-.033v-.016h-.057q0-.049-.024-.049h-.008q-.024.012-.024.024v.016a.7.7,0,0,1,.024.138V-3.3l-.073.049-.033.138c0,.016.016.033.049.041.016-.024.033-.041.041-.041s.008.016.008.024a.408.408,0,0,1-.024.114.372.372,0,0,1-.049-.033h-.008a.07.07,0,0,0-.049.024c0,.024.008.041.016.041h.073c0,.008.008.024.008.033a.767.767,0,0,1-.1.268,4.131,4.131,0,0,1-.171.577v.016q.012.024.024.024h.008l.033-.024v.024a.049.049,0,0,1-.024.049c-.041,0-.065.024-.081.081-.041.138-.065.211-.081.211h-.008c-.008,0-.024-.024-.057-.073h-.008a.178.178,0,0,1-.041.114c0,.008.008.016.008.024.073.016.106.033.106.049-.008.049-.016.081-.033.081h-.033c-.016,0-.016-.016-.024-.041H54.9a.139.139,0,0,1-.041.089v.016c.049.016.065.033.065.049a.347.347,0,0,0-.065.171v.049h-.008c-.057-.024-.081-.049-.081-.089v-.008a.827.827,0,0,1,.033-.13v-.041a.017.017,0,0,0-.016-.016h-.008l-.065.065a1.94,1.94,0,0,1-.081.2.65.65,0,0,0-.073.285c0,.138-.016.22-.057.252V-.6l.089.065.024-.016h.016a.247.247,0,0,1-.106.1L54.529-.5l-.008-.016c-.033,0-.065.081-.089.252a.888.888,0,0,1-.106.447.108.108,0,0,0,.024.057h-.008c-.041,0-.057.033-.065.1a.4.4,0,0,0,.024.1.29.29,0,0,0-.057.057.2.2,0,0,0,.008.057,1.829,1.829,0,0,1-.057.2V.762a.192.192,0,0,0,.1.187.131.131,0,0,0-.049.106.144.144,0,0,0-.122.154l.008.016a.345.345,0,0,0-.041.1v.008a.287.287,0,0,0,.033.138c.041.024.057.041.057.049-.049,0-.073.081-.089.228a1.241,1.241,0,0,0,.008.146.9.9,0,0,0-.008.13.1.1,0,0,0,.033.065v.049h-.008c-.041-.024-.057-.073-.057-.146V1.957c0-.008-.008-.016-.033-.024-.008,0-.024.024-.033.065q.024.11.024.122l-.033-.008c-.033,0-.065-.163-.106-.5a4.561,4.561,0,0,0,.049-.48,1.593,1.593,0,0,0-.016-.22.749.749,0,0,1,.041-.163s0-.065-.008-.2a.183.183,0,0,1,.041-.122.735.735,0,0,0,.081-.39.1.1,0,0,0-.041-.089h-.008c-.024,0-.073.13-.138.39h-.008c-.008,0-.016-.016-.024-.057.008-.065.016-.106.024-.106.033-.252.057-.382.081-.382a1.741,1.741,0,0,1,.057-.382.773.773,0,0,1,.073-.268,1.264,1.264,0,0,1,.114-.423,1.173,1.173,0,0,1,.033-.187,1.05,1.05,0,0,0,.065-.309,5.313,5.313,0,0,0,.22-.781.4.4,0,0,0,.065-.2.373.373,0,0,0,.049-.13c.008-.041.089-.3.252-.781a1.139,1.139,0,0,1,.114-.374,1.718,1.718,0,0,1,.073-.26,2.229,2.229,0,0,0,.122-.423.373.373,0,0,0,.106-.276,1.705,1.705,0,0,0,.138-.382.688.688,0,0,1,.122-.35c.065-.244.1-.366.122-.366h.049v.033a.108.108,0,0,0-.024.057v.073l-.057.065v.008l.041.041v.016h-.008l-.024-.016h-.008c-.008,0-.016,0-.016.016l.016.057a.076.076,0,0,1-.049.065,1.634,1.634,0,0,1-.049.22c-.033,0-.057.073-.065.22-.041.041-.065.065-.065.073s.008.016.008.033c-.033.114-.049.179-.049.179.024.024.033.041.041.041,0,.024-.016.057-.065.089a.945.945,0,0,0-.122.39c0,.016.008.024.041.024a.157.157,0,0,0-.065.13v.1c-.041,0-.081.073-.13.228v.024s.016.016.049.057v.024c-.041,0-.081.033-.114.1a.538.538,0,0,1,.008.089.4.4,0,0,0-.089.154l.016.024v.016c-.024.033-.049.057-.065.057-.016.089-.033.13-.049.13a.242.242,0,0,1-.041.163c-.024.114-.049.2-.065.276a.088.088,0,0,0,.016.065c0,.008-.024.024-.065.057C54.676-2.678,54.684-2.661,54.708-2.653Zm1.675-3.431a.068.068,0,0,1,.033-.057c.016,0,.016.008.016.016v.008c0,.041-.008.065-.033.073A.053.053,0,0,0,56.383-6.084ZM52.4-6.068c0-.033.024-.057.065-.065h.081v.008c0,.016-.041.041-.114.065h-.016Zm.74-.065h.016v.008h-.016Zm1.9.024-.065.065.008.016a.8.8,0,0,0,.122-.008v-.008a.151.151,0,0,0-.057-.065Zm-2.309.073c0-.033.081-.057.252-.057h.033c0,.008-.008.016-.041.024L52.9-6.076a1.076,1.076,0,0,0-.146.057.036.036,0,0,0-.024-.008Zm-.236.024.106-.024c0,.008.008.008.033.008q0,.024-.049.024H52.5Zm-.48.2a.336.336,0,0,0,.057-.089,1.3,1.3,0,0,1,.358-.089h.024a.071.071,0,0,1-.073.065h-.065l-.065.057h-.081a.535.535,0,0,1-.146.073h-.008ZM56.18-5.9h.008v.049c0,.008-.008.033-.016.073-.049-.016-.073-.024-.073-.033v-.016l.008-.016C56.155-5.857,56.18-5.881,56.18-5.9Zm.114.041c.024.008.033.016.033.024L56.3-5.8q-.024-.012-.024-.024v-.008Zm-.577.049h.016V-5.8h-.016ZM56.1-5.7c.008,0,.016,0,.016.008v.008C56.107-5.686,56.1-5.686,56.1-5.7Zm-.138.846c.016-.081.033-.122.041-.122a.319.319,0,0,1,.089-.268c.041-.211.081-.317.114-.317h.008l.008.041a.144.144,0,0,1-.033.081l-.122.415a.348.348,0,0,0-.081.187,4.558,4.558,0,0,1-.187.634c-.008,0-.033-.024-.065-.065v-.016c.024,0,.057-.024.081-.073a1.211,1.211,0,0,1,.154-.463A.049.049,0,0,1,55.96-4.857Zm.065-.634a.045.045,0,0,1,.033-.049c.008,0,.008.008.016.024l-.024.081h-.016l-.008-.041Zm.8.024a.017.017,0,0,1,.016-.016h.008v.033c0,.008,0,.016-.016.016C56.838-5.45,56.838-5.458,56.83-5.466ZM56-5.393c.008,0,.016.008.024.033s-.008.024-.016.024h-.024C55.985-5.344,55.993-5.361,56-5.393Zm.715.146q-.024.012-.024.024c0,.016,0,.016.016.016s.016-.008.024-.024S56.725-5.247,56.716-5.247Zm-.813.114c0-.016.016-.024.033-.033l.016.024v.008c0,.008-.008.016-.033.024A.1.1,0,0,1,55.9-5.133Zm.732.1a.017.017,0,0,0-.016.016v.033h.024v-.033Zm-1.016.382h.041a.03.03,0,0,0,.008.024l-.041.163h-.008Zm.829.089v.024h.016v-.024Zm-.033.073v.008h.016v-.008Zm-.764.13c.033-.073.057-.114.073-.114a.03.03,0,0,0,.008.024.1.1,0,0,0-.016.024v.1a.078.078,0,0,1-.057.073l-.033-.033h-.049l-.016.008a.116.116,0,0,0-.016-.049c.016-.033.033-.041.041-.041h.008Zm-.106.2v.024l.016-.008A.017.017,0,0,0,55.546-4.157Zm.163.016h.041a.017.017,0,0,1,.016.016v.016a.951.951,0,0,1-.081.22h-.008a.052.052,0,0,1-.041-.049A.555.555,0,0,0,55.708-4.141Zm-.642.244c-.008,0-.016,0-.016.016v.008h.024V-3.9ZM55.3-3.6c0-.008,0-.016.008-.016V-3.6H55.3Zm-.276,0h.008v.016h-.008Zm.463.293c.016-.024.024-.033.033-.033v.008l-.016.049c-.008,0-.016,0-.016-.008Zm-.236.138a.057.057,0,0,0-.033.041c0,.008.008.016.033.024.024-.008.041-.016.041-.024v-.024a.017.017,0,0,0-.016-.016Zm-.073.228v.016c0,.008,0,.016.016.016a.017.017,0,0,0,.016-.016.017.017,0,0,0-.016-.016Zm.122.065c-.024.008-.041.016-.041.033v.024c0,.008,0,.008.016.008H55.3q.024-.012.024-.024v-.016Q55.326-2.869,55.3-2.881Zm-.187.122v.008h.016v-.008Zm-.016.1c-.008,0-.016.016-.033.049V-2.6h.008l.041-.008v-.008l-.008-.041Zm.073.024a.017.017,0,0,0-.016.016v.041c0,.008.016.024.041.033s.024-.016.033-.041a.017.017,0,0,0-.016-.016l.016-.024v-.008Zm-.415.008q-.024.012-.024.024v.016c0,.008.008.016.033.024.008,0,.016-.008.024-.033C54.773-2.621,54.765-2.629,54.757-2.629Zm.407.1a.017.017,0,0,0-.016.016v.008a.017.017,0,0,0,.016.016.017.017,0,0,0,.016-.016v-.024Zm-.431.024a.061.061,0,0,0-.041.065h-.049a.088.088,0,0,0-.057.024.871.871,0,0,1-.049.187c.008.089.049.13.106.13.008,0,.024-.033.049-.089a.356.356,0,0,1,.057-.244v-.057A.017.017,0,0,0,54.733-2.507Zm.325,0c-.041,0-.065.024-.081.089v.033l.008.073a.293.293,0,0,0-.033.041v.049q.012.024.024.024h.016a.939.939,0,0,1,.106-.236A.112.112,0,0,0,55.058-2.507Zm0,.309a.017.017,0,0,0-.016.016v.008a.017.017,0,0,0,.016.016h.008V-2.2Zm-.293.122c-.041.016-.057.057-.057.122a1.172,1.172,0,0,0-.081.3.017.017,0,0,1,.016.016c.033-.016.049-.033.049-.057a1.521,1.521,0,0,1,.089-.325V-2.06A.017.017,0,0,0,54.765-2.076Zm.106.114q-.024,0-.073.049c0,.049.008.081.033.081h.008c.016,0,.033-.033.057-.106,0-.016,0-.024-.016-.024Zm-.333.008a.162.162,0,0,0-.1.065v.008c.008.041.024.057.033.057s.016-.008.016-.024h.057a.1.1,0,0,0,.024-.016V-1.93C54.57-1.938,54.562-1.946,54.538-1.954Zm.594.065h.008v.016h-.008Zm-.163.008c-.008,0-.016,0-.016.016v.008l.008.016c.033,0,.041-.008.041-.016S54.993-1.873,54.968-1.881Zm-.537.114c-.033.024-.057.1-.073.236a.914.914,0,0,0-.065.3c.008.073.024.106.049.106h.008c.016-.008.041-.065.065-.179l-.033-.057c0-.008.008-.016.016-.024.065-.049.089-.146.089-.3V-1.7a.067.067,0,0,0-.041-.065Zm.187.2c-.024.016-.041.024-.041.033V-1.5l.016.024c.024-.016.041-.024.041-.033v-.008A.116.116,0,0,0,54.619-1.564Zm-.073.228q-.024.012-.024.024v.024c.016.024.024.033.033.033s.024-.016.024-.024V-1.3C54.562-1.32,54.554-1.336,54.546-1.336Zm-.016.106h-.008c-.024,0-.041.049-.057.146v.024a.017.017,0,0,0,.016.016H54.5a.657.657,0,0,0,.041-.171Zm.211.081c.065,0,.089.024.089.073a.565.565,0,0,1-.033.138H54.79l-.024-.024-.041-.163Zm-.39.057c-.041,0-.081.033-.138.1a.554.554,0,0,1-.041.171c0,.016.024.024.089.033l.024-.016a2.171,2.171,0,0,1,.081-.276Zm.333.2.041-.008h.033l.008.049v.008c-.033.081-.073.163-.122.268h-.024c-.008,0-.016-.008-.024-.033.008-.024.033-.041.065-.065a.854.854,0,0,0-.016-.106.133.133,0,0,1,.065-.073c0-.008-.008-.016-.024-.016Zm-.512.114a.462.462,0,0,0-.081.276.228.228,0,0,0,.008.049h.016a.953.953,0,0,0,.13-.122L54.22-.661V-.686a.1.1,0,0,0,.024-.073Q54.245-.771,54.172-.783Zm.366.341h.008v.008a.1.1,0,0,1-.041.057A.371.371,0,0,1,54.538-.442Zm3.13.1c-.033,0-.065.033-.089.089v.033l.016.024.1-.114V-.32Q57.68-.344,57.668-.344Zm-3.642.171a.017.017,0,0,0-.016.016c.033.041.057.057.089.057h.008a.017.017,0,0,0,.016-.016V-.125A.1.1,0,0,0,54.025-.173Zm3.561.008a.017.017,0,0,0-.016.016l.008.016a.017.017,0,0,0,.016-.016Zm-.13.073q-.024.012-.024.024v.016a.017.017,0,0,0,.016.016h.016q.024-.012.024-.024V-.076a.017.017,0,0,0-.016-.016Zm-.13.057a.083.083,0,0,0-.041.049c0,.016.008.024.016.024h.008c.033-.024.041-.033.041-.041V-.019c0-.008,0-.016-.016-.016ZM57.432,0a.168.168,0,0,0-.114.073l.033.016c.033,0,.057-.024.081-.073ZM54.22.087A.017.017,0,0,0,54.2.1c0,.016,0,.016.016.016h.008V.1ZM54.188.16a.03.03,0,0,1-.008.024A.062.062,0,0,0,54.2.217L54.22.2C54.212.176,54.2.16,54.2.16Zm.244.2a.017.017,0,0,1,.016-.016V.4C54.44.4,54.44.4,54.432.388ZM53.863.42q.012,0,.024.049l-.016.163V.664a.212.212,0,0,1-.024.081c-.016.154-.033.236-.057.236h-.008L53.773.924V.9A.326.326,0,0,1,53.8.778C53.8.566,53.822.444,53.863.42Zm.569.041h.016l.008.057c-.008.057-.024.081-.041.081H54.4c-.008,0-.008,0-.016-.016V.575A.245.245,0,0,1,54.432.461Zm2.781.057c.008,0,.016,0,.016.016L57.221.55C57.2.55,57.2.542,57.2.534Zm-2.838.26h.016c0,.008.008.024.008.033a.973.973,0,0,1-.024.114h-.016A.03.03,0,0,0,54.351.9Zm2.61.138c.033-.057.065-.089.106-.089H57.1q-.024.1-.049.1h-.024ZM54.066.973c-.008,0-.016,0-.016.016v.024l.016.016c.024,0,.041-.008.041-.016V1.005C54.107,1,54.09.981,54.066.973Zm-.024.146c-.016.016-.033.024-.033.033V1.16c0,.016.008.016.016.016h.024c0-.008,0-.008.008-.024S54.05,1.136,54.042,1.119Zm2.894.114a.017.017,0,0,0-.016.016v.016a.017.017,0,0,0,.016-.016Zm-2.789.033a.017.017,0,0,1,.016-.016h.008a.017.017,0,0,1,.016.016V1.29A.074.074,0,0,0,54.147,1.266Zm.081.024a.049.049,0,0,0,.033-.008h.008l-.008.033h-.033Zm-.211.033q-.012,0-.024.049v.041c.016.016.024.033.033.033h.016c.008,0,.016-.016.024-.033-.008-.065-.016-.089-.024-.089Zm2.829,0v.016h.024V1.323Zm-.049.065q-.024.012-.024.024v.016H56.8q.024-.012.024-.024c0-.008,0-.016-.016-.016Zm-.081.073v.016h.016V1.461Zm-2.48.089a.049.049,0,0,0,.033-.008,1.318,1.318,0,0,0,.024.171.2.2,0,0,0-.008.073c-.016,0-.033-.024-.049-.065,0-.073.008-.122.008-.146A.036.036,0,0,1,54.237,1.55ZM54,1.558c0,.049.008.106.008.179L54,1.794c.016.049.024.073.041.073h.008V1.843a1.272,1.272,0,0,0-.033-.285Zm.244.463c0-.008,0-.008.016-.016h.016q.024.012.024.024v.049c-.033,0-.049-.008-.057-.033ZM64.989-3.442l-.024.008c-.138.073-.2.146-.2.2a1.6,1.6,0,0,0-.13.171c-.016.13-.024.2-.041.2a1.4,1.4,0,0,1-.13.382v.033l.008.016c-.008,0-.016.024-.024.089-.057.033-.081.065-.081.073a.121.121,0,0,0,.016.073l-.065.089v.033l.008.016c.033-.008.057-.016.057-.041h.008v.024a1.213,1.213,0,0,1-.2.415c-.024.089-.049.13-.073.13a1.306,1.306,0,0,1-.154.252c-.041.13-.073.187-.089.2a.792.792,0,0,0-.081.122.312.312,0,0,1-.065.138,1.949,1.949,0,0,1-.211.317.733.733,0,0,1-.163.252.978.978,0,0,1-.179.285c-.065.106-.122.163-.146.163A.131.131,0,0,1,63.054.1V.062a.153.153,0,0,1-.073.033.5.5,0,0,0-.106.146A.126.126,0,0,0,62.9.29a.234.234,0,0,0,.106-.073h.008V.233a.8.8,0,0,1-.106.154h-.016V.331a.017.017,0,0,0-.016-.016h-.008l-.024.016V.314h-.008c-.057.081-.114.154-.171.228a3.754,3.754,0,0,1-.715.829c-.358.415-.618.618-.8.618h-.008a.138.138,0,0,1-.057-.008c-.122-.057-.179-.228-.179-.52V1.388a7.542,7.542,0,0,1,.138-1.2,9.381,9.381,0,0,1,.382-1.358,12.2,12.2,0,0,1,.52-1.374,1.757,1.757,0,0,0,.179-.512V-3.06a.3.3,0,0,0-.016-.106.449.449,0,0,0-.4-.268.9.9,0,0,0-.5.138c-.033,0-.106.138-.211.415l-.268.634c-.065.26-.122.5-.187.724a9.323,9.323,0,0,0-.618,2.667v.073c0,.065,0,.1.008.1a1.385,1.385,0,0,0,.439.854,1.415,1.415,0,0,0,.927.4h.024a.713.713,0,0,0,.39-.171,1,1,0,0,0,.358-.228,6.02,6.02,0,0,0,.781-.87V1.282a1.763,1.763,0,0,0-.236.236,1.575,1.575,0,0,0-.26.244c0,.057-.089.089-.26.1V1.851a1.662,1.662,0,0,0,.26-.2,5.947,5.947,0,0,0,.65-.683A13.361,13.361,0,0,0,63.948-.4h.008v.008a1.334,1.334,0,0,0-.081.528,1.4,1.4,0,0,0,.13.618,1.145,1.145,0,0,0,1.122.65h.008a2.336,2.336,0,0,0,1.236-.382c.122-.106.179-.171.179-.2A1.481,1.481,0,0,0,66.924.42c0-.008,0-.016-.016-.016a.366.366,0,0,0-.073-.138c.008-.041.016-.057.016-.065a.017.017,0,0,0-.016-.016.146.146,0,0,0-.073.033.726.726,0,0,1-.2.211L66.542.42,66.55.388c.081-.065.122-.122.122-.163V.209h-.016a.152.152,0,0,0-.081.041,2.657,2.657,0,0,1-.439.358c-.016.033-.049.041-.106.041q0,.037-.146.1c-.146.016-.22.041-.22.057l.024.041c0,.008-.033.033-.106.073A1.222,1.222,0,0,1,65.2.859a.614.614,0,0,1-.4-.634V.136a1.322,1.322,0,0,1,.1-.472A.225.225,0,0,1,64.892-.4a4.926,4.926,0,0,0,.146-.585c.2-.6.293-.911.293-.919a2.9,2.9,0,0,0,.171-.618v-.008l-.041-.333v-.081a.252.252,0,0,1,.041-.089c0-.008,0-.016-.016-.033l-.024.016h-.016c-.081-.114-.138-.179-.171-.179-.033.033-.049.049-.057.049s-.016-.016-.033-.057l.016-.024c-.024-.081-.041-.122-.065-.122h-.008c-.049.008-.081.016-.089.016H65.03A.159.159,0,0,0,64.989-3.442Zm.22.431c0-.008.016-.024.057-.041l.016.008c0,.008-.024.024-.065.033Zm-.089.675h.033c.008,0,.016,0,.016.008V-2.3l-.008.049a.263.263,0,0,1-.081.179v.041l.041.041-.073.049c0,.008.008.016.008.033-.016.057-.033.081-.049.081a1.064,1.064,0,0,1-.073.228,1.505,1.505,0,0,0-.089.309v.016l.008.016a.063.063,0,0,0,.024-.008h.008v.041a.71.71,0,0,1-.041.106c-.016,0-.016-.016-.016-.041H64.8a.622.622,0,0,1-.041.13.371.371,0,0,1-.041.122v.016c0,.016.008.016.016.016l.024-.016c.008-.089.024-.13.057-.13a.063.063,0,0,0,.008.024c-.008.024-.016.041-.024.041-.016.089-.081.35-.2.772l-.033-.033a.4.4,0,0,0,.024-.122L64.574-.36h-.008a2.561,2.561,0,0,0-.089.382c0,.008,0,.016.016.016s.041-.057.057-.154V-.141h.016v.065a.369.369,0,0,1-.033.146.062.062,0,0,1-.041-.016h-.008L64.453.07a.465.465,0,0,1-.081.276c.016.114.033.187.033.2a.355.355,0,0,1-.057.171L64.331.713A.437.437,0,0,0,64.257.5a.053.053,0,0,0-.041.016,1.106,1.106,0,0,0,.008.13c-.049,0-.073-.049-.073-.138a.559.559,0,0,0,.024-.2.422.422,0,0,0-.024-.041.351.351,0,0,0,.033-.114c0-.033-.008-.057-.024-.057a1.22,1.22,0,0,0-.073.374l.008.041-.016.049H64.07c0-.008,0-.016-.016-.033a.664.664,0,0,0,.008-.114.5.5,0,0,0-.016-.146A.709.709,0,0,0,64.062.1a.193.193,0,0,0-.024-.122V-.027a.151.151,0,0,0,.057-.016.457.457,0,0,1,.057-.187l-.024-.033-.016.008c-.008.057-.016.089-.033.089h-.033a.229.229,0,0,0-.008-.065A.218.218,0,0,1,64.1-.36h.008c0,.016.008.024.016.024a.146.146,0,0,0,.057-.122,2.1,2.1,0,0,0,.081-.268,1.3,1.3,0,0,0,.1-.252l.106-.138v.008L64.428-.9v.008c0,.016,0,.016.016.016h.008l.016-.008-.008-.033c0-.016,0-.016.016-.016h.008l.041.008q.073-.024.073-.073a.529.529,0,0,0,.073-.211.635.635,0,0,0,.073-.171l-.008-.008a1.019,1.019,0,0,0,.073-.22.679.679,0,0,0,.081-.252c0-.024.033-.057.1-.114v-.008c0-.016,0-.024-.008-.033Zm-.341.089.016.008c-.016.081-.033.122-.041.122a.411.411,0,0,1-.041.154.064.064,0,0,1-.033-.033c.016,0,.033-.049.049-.138A.306.306,0,0,0,64.778-2.247Zm-3.439.22a.017.017,0,0,1,.016.016h-.016Zm2.894.049q-.024.012-.024.024v.008q.012.024.024.024h.016q.024-.012.024-.024C64.274-1.962,64.257-1.97,64.233-1.978Zm.22.724.065-.244c.049-.041.065-.122.065-.252.041-.122.073-.187.1-.187v.024l-.016.057V-1.8a.158.158,0,0,1-.008.065c-.049.122-.081.22-.114.309-.008.073-.024.106-.041.106v.041c0,.057-.016.081-.024.081h-.016l-.008-.041Zm-.35-.512a.1.1,0,0,1-.049.081v.008c.016.024.024.033.033.033a.135.135,0,0,0,.041-.106v-.016Zm-2.886.016.016.008c-.016.057-.041.089-.057.089A.135.135,0,0,1,61.217-1.751Zm2.829.154H64.03c-.016.049-.041.106-.065.163,0,.008.008.016.008.024H64l.008-.049c.041-.041.065-.073.065-.1v-.016Q64.058-1.6,64.046-1.6Zm.927.033h.008v.016h-.008ZM62,1.819V1.81c.065-.073.138-.154.211-.252a2.124,2.124,0,0,1,.252-.358.674.674,0,0,1,.13-.179,1.574,1.574,0,0,1,.244-.309.545.545,0,0,1,.211-.333,4.357,4.357,0,0,1,.35-.528c.089-.171.138-.26.138-.26A2.155,2.155,0,0,1,63.7-.686c.073-.154.122-.236.146-.236.065-.138.13-.244.171-.317a1.461,1.461,0,0,1,.211-.317,5.744,5.744,0,0,1-.122.61,3.256,3.256,0,0,0-.35.545A4.486,4.486,0,0,1,63.135.656a5.524,5.524,0,0,1-1.13,1.163Zm-.886-3.358h.008a.262.262,0,0,0,.008.065c-.057.187-.089.285-.106.285-.016.1-.033.146-.041.146V-1.06h-.024v.033a.03.03,0,0,1,.024.008.143.143,0,0,0-.008.049.9.9,0,0,0-.073.187,1.572,1.572,0,0,0-.114.374,1.273,1.273,0,0,0-.122.423A1.144,1.144,0,0,0,60.574.4a1.39,1.39,0,0,0-.065.35h-.016a.3.3,0,0,1,.016-.13C60.5.607,60.5.6,60.5.583V.453l.024-.081V.314a.225.225,0,0,1,.008-.073A.807.807,0,0,0,60.6.022l.057-.268a.25.25,0,0,1,.081-.163V-.434a.9.9,0,0,1,.016-.146.478.478,0,0,0,.081-.2V-.832a.131.131,0,0,0,.041-.089c.049-.171.089-.26.114-.26A.746.746,0,0,1,61.111-1.539Zm2.789.228c-.024.016-.033.024-.033.033v.008q.012.024.024.024h.016c.008,0,.016,0,.016-.016V-1.3c0-.008-.008-.008-.016-.016Zm.642.415H64.5c-.033.1-.049.138-.057.138,0-.041-.008-.065-.016-.065h-.016c-.016,0-.024.024-.033.065a.03.03,0,0,0,.024.008c.008,0,.024.024.057.081-.024.073-.041.114-.057.114H64.4L64.363-.58c.016-.065.033-.106.033-.122V-.726h-.016a.534.534,0,0,0-.065.2l.016.024.016-.008h.041q.024.012.024.024v.008a.14.14,0,0,0-.016.065V-.4h.024a1.54,1.54,0,0,0,.13-.488Zm-.959.106c-.008,0-.008.008-.016.016l.008.016L63.6-.775C63.6-.783,63.6-.791,63.583-.791ZM64.7-.775c-.016,0-.033.033-.041.089.008,0,.008,0,.008.008.024-.008.041-.024.041-.033V-.759Zm3.016.024L67.55-.58q-.049.146-.1.146v.016c.008.041.024.057.033.057h.008c.016,0,.033-.016.041-.057a2.126,2.126,0,0,0,.2-.309C67.729-.743,67.721-.751,67.713-.751Zm-4.2.065v.024h.016V-.686ZM64.16-.6l.016.008-.008.041h-.016a.03.03,0,0,0-.008-.024Zm-.683,0-.024.016a.389.389,0,0,1-.081.138v.033c.024,0,.065-.049.114-.163V-.6Zm.862.106h-.024a.611.611,0,0,0-.057.163v.057h.008a.266.266,0,0,0,.073-.211Zm.268.041c-.008,0-.016.016-.033.041l.016.008a.1.1,0,0,0,.024-.016V-.45Zm-4.073.073h.008l.008.041-.073.228h-.024V-.117A.612.612,0,0,1,60.534-.377Zm6.887,0H67.4a1.3,1.3,0,0,1-.268.3l-.073.041V.005h-.049a.076.076,0,0,0-.065.049.017.017,0,0,0,.016.016h.041c.008.057.016.081.024.081h.041a.352.352,0,0,1,.114-.163.1.1,0,0,1,.106-.081c.033,0,.057-.033.081-.106l.089-.081A.2.2,0,0,0,67.42-.377Zm-3.041.024a.017.017,0,0,0-.016.016V-.32l.016.024v.016c-.049.008-.073.065-.073.163q0,.012-.049.024l-.033-.024h-.008a.072.072,0,0,0-.041.065.017.017,0,0,0,.016.016h.016l.024-.016c.024,0,.065.024.106.089h.008q.024-.012.024-.024V-.019c0-.024-.008-.049-.008-.073,0-.008.008-.024.008-.033a.137.137,0,0,0-.016-.041c.024,0,.041-.057.041-.171C64.4-.344,64.387-.344,64.379-.352Zm-1.057.008a.175.175,0,0,0-.073.106.683.683,0,0,0-.146.22L63.111,0a1.1,1.1,0,0,0,.228-.309V-.328C63.339-.336,63.331-.336,63.322-.344Zm3.846.024-.016.008L67.16-.3,67.176-.3Zm-.049.065v.008l.008.016a.017.017,0,0,0,.016-.016V-.255Zm-2.854.049c-.024.008-.041.016-.041.024a.017.017,0,0,0,.016.016h.033V-.19ZM60.42-.027c0-.033.008-.049.033-.057h.008v.033a.112.112,0,0,1-.041.073Zm3.756.008v.008l.008.016L64.2,0a.017.017,0,0,0-.016-.016Zm.309.179A.063.063,0,0,1,64.509.1V.136L64.5.176C64.485.176,64.485.176,64.485.16Zm2.4-.065c-.008,0-.016.016-.024.033a.03.03,0,0,0,.008.024c.024-.016.033-.033.033-.041s0-.008-.008-.016Zm-2.6.016q-.024.012-.024.024V.192a1.253,1.253,0,0,0-.024.13c0,.008.008.016.016.033A.184.184,0,0,0,64.314.2V.136Q64.3.111,64.29.111Zm-.634.016-.016.008a.55.55,0,0,1-.1.154.1.1,0,0,0,.016.024h.008a.593.593,0,0,1,.1-.154V.144Zm3.317.057c-.008,0-.008.008-.016.016V.209c0,.016.008.016.016.016s.016,0,.016-.016V.2C66.981.192,66.981.184,66.965.184Zm-.276.2c.049-.057.081-.089.106-.089.016.024.033.041.033.049s-.016.008-.016.033c0,.008.016.016.065.033V.436c0,.008-.033.033-.081.089h-.065c0-.016,0-.024.008-.033.033-.024.057-.041.057-.041V.4L66.786.388,66.7.412A.017.017,0,0,1,66.688.4ZM64.274.371c-.016,0-.033.024-.041.073V.453a.017.017,0,0,0,.016.016h.008c.008,0,.016-.033.024-.089C64.274.379,64.274.379,64.274.371Zm-3.96.016h.016l.016.057a.66.66,0,0,1-.041.114H60.3V.55C60.3.518,60.306.461,60.314.388Zm2.439.187V.558A.477.477,0,0,1,62.867.4h.008A.272.272,0,0,1,62.753.575ZM66.444.485h.024c0,.008-.008.016-.008.024h-.016ZM60.29.6q.024.012.024.024c0,.033-.008.049-.033.057A.251.251,0,0,0,60.29.6Zm2.4.008h.033a.194.194,0,0,1-.065.13h-.008V.713A.116.116,0,0,0,62.688.607Zm.634.008c-.008,0-.016.016-.033.049,0,.016.008.016.016.016.024-.008.033-.024.033-.033V.631C63.339.623,63.331.623,63.322.615ZM60.273.7h.008L60.3.778a.514.514,0,0,1-.033.106h-.008L60.249.843V.818A.4.4,0,0,1,60.273.7Zm3.96.041a.03.03,0,0,0,.024-.008c0,.016,0,.024.008.033-.008,0-.008.008-.008.024h-.016L64.233.745ZM63.241.729V.745h.016V.729ZM64.55.745c.016,0,.024.024.024.081a.413.413,0,0,1,.073.2c-.049,0-.081-.081-.1-.26ZM62.583.8a.055.055,0,0,1,.033-.049h.008V.778c0,.008-.008.016-.041.033ZM65.875.94c.008-.033.073-.065.187-.1a.447.447,0,0,1,.154-.057h.008V.81c-.008,0-.033.008-.065.016a1.164,1.164,0,0,1-.252.13.061.061,0,0,0-.033-.008ZM64.266.81c.024,0,.065.033.122.106V.949q-.012.024-.024.024h-.024q-.024-.012-.073-.146Zm-1.13.073L63.111.9a.017.017,0,0,0,.016.016h.008c.016,0,.016-.008.016-.016S63.152.884,63.135.884Zm3.114.024h.024V.916h-.024ZM66.184.94H66.2V.949h-.016Zm-3.138.089a.4.4,0,0,0-.13.154c.049,0,.089-.049.138-.154Zm-2.813.041c0-.008.008-.008.016-.016h.008v.016Zm4.439-.008h.016a.062.062,0,0,0,.016.033V1.1l-.033-.008Zm-.163.008q.024.012.024.024a.036.036,0,0,1-.024.008H64.5V1.087ZM79.969-11.32a1.234,1.234,0,0,0-.756.333,3.565,3.565,0,0,0-.374.537q-.707,1.268-1.951,3.919-1,2.256-1.716,3.659h-.008l-.057-.049a1.667,1.667,0,0,0-1.179-.569,3.388,3.388,0,0,0-2.309,1.016,8.491,8.491,0,0,0-.764.821,12.359,12.359,0,0,0-.968,1.48,6.25,6.25,0,0,0-.732,1.837.826.826,0,0,0,.5.732c.073.016.106.041.114.073a1.748,1.748,0,0,0,.764.268h.065a1.223,1.223,0,0,0,.236-.024,2.737,2.737,0,0,0,1.244-.553,6.666,6.666,0,0,0,.976-.886A21.52,21.52,0,0,0,74.782-.905h.008V-.9l-.13.52a26.656,26.656,0,0,0-.732,5.041v.122a2.121,2.121,0,0,0,.138.87.731.731,0,0,0-.024.1.542.542,0,0,0,.1.268c.2.317.407.48.6.48a.42.42,0,0,0,.325-.2,1.488,1.488,0,0,1-.333-1.1V5.038a15.644,15.644,0,0,1,.35-2.236c.187-.748.309-1.268.382-1.569.309-1.138.626-2.211.968-3.22.927-2.553,1.8-4.7,2.61-6.447a8.7,8.7,0,0,1,.724-1.342.565.565,0,0,1,.033.138,1.232,1.232,0,0,0-.073.211.008.008,0,0,1,.008.008c.065-.016.122-.089.179-.2.049-.122.154-.439.325-.951a2,2,0,0,0,.146-.293v-.033a.28.28,0,0,0-.065-.146C80.221-11.223,80.1-11.32,79.969-11.32Zm-.675,1.065H79.3v.008c-.041.1-.309.642-.8,1.634-.089.211-.211.455-.358.732-.049.016-.073.041-.073.065A9.816,9.816,0,0,1,77.5-6.4c-.325.74-.528,1.179-.6,1.3a.809.809,0,0,1-.024-.138l.033-.033a.137.137,0,0,1-.041-.016,2.6,2.6,0,0,0-.2.2v-.008a3.059,3.059,0,0,0,.228-.431c.024-.114.057-.171.106-.171v-.065a.246.246,0,0,1,.041-.106.251.251,0,0,0,.065-.171q0-.037.122-.171a.138.138,0,0,0-.008-.057c.024-.049.033-.073.041-.073a.174.174,0,0,1,.1-.146v-.008l-.024-.041a.169.169,0,0,1,.106-.146l-.008-.057v-.024l.057-.057v-.049l-.008-.016c0-.073.041-.13.13-.187v-.008a.246.246,0,0,0-.016-.081v-.016c0-.016.008-.024.008-.033a.763.763,0,0,1,.13-.114v-.016c-.024,0-.041-.008-.041-.033a.179.179,0,0,1,.049-.1v-.041a.017.017,0,0,0-.016-.016h-.008a6.71,6.71,0,0,0-.285.642c-.285.642-.569,1.276-.862,1.9h-.008v-.008a3.552,3.552,0,0,0,.1-.374A4.891,4.891,0,0,1,77-6.239q.183-.39.512-1.171l-.024-.081c.041-.033.065-.049.081-.049a1.084,1.084,0,0,0,.122-.26v-.024h-.024a.409.409,0,0,1-.089.13h-.008a1.057,1.057,0,0,1,.2-.415l.057.008h.008c.033-.049.285-.537.756-1.447.146-.309.236-.463.276-.472a.97.97,0,0,1-.081.3q-.085.256-.781,1.634a2.866,2.866,0,0,0-.252.512v.008h.016a.246.246,0,0,0,.073-.146.92.92,0,0,0,.13-.049l-.008-.1c.016-.106.033-.163.057-.163h.008l.033.008v-.008a.1.1,0,0,0-.016-.024V-8.06c0-.041.033-.073.106-.081A.117.117,0,0,0,78.14-8.2a.207.207,0,0,1,.13-.179c.016,0,.065-.073.154-.22-.033-.041-.049-.065-.049-.065a.394.394,0,0,0,.13-.1v-.033a.017.017,0,0,0-.016-.016h-.008v.016h-.008l-.008-.057c.008,0,.016-.008.041-.016l.016.008a.074.074,0,0,0,.041-.024C78.847-9.467,79.091-9.922,79.295-10.255Zm-.707,1.2h.033v.008a.036.036,0,0,1-.024.008Zm-.764.829h.016q.024.012.024.024a.017.017,0,0,1-.016.016h-.024Zm-.293.553h.016a.063.063,0,0,0,.008.024c-.016,0-.016.008-.016.033H77.53ZM77-5.393c-.024.008-.033.024-.033.033v.024c0,.008,0,.016.016.016h.008c.008,0,.016-.016.033-.041Zm-.073.089q-.024.012-.024.024v.008h.008a.017.017,0,0,0,.016-.016Zm-.585.13h.008v.008a1.1,1.1,0,0,1-.22.463,3.155,3.155,0,0,1-.114.423.61.61,0,0,0-.138.26.2.2,0,0,1-.106.163v.008l.049.008v.008h-.049q-.061,0-.1.293c-.008-.008-.016-.016-.024-.016h-.008l-.049.041a3.269,3.269,0,0,1,.114-.325Zm.642.39a.245.245,0,0,1,.065-.179c.008-.089.033-.138.073-.138h.008l-.122.325h-.024Zm-.179-.163a.113.113,0,0,1,.041-.081.759.759,0,0,1-.016.114C76.823-4.914,76.815-4.922,76.807-4.946Zm-.244.024c.008,0,.016.016.024.041a.548.548,0,0,1-.081.154c-.057.146-.089.236-.114.285h-.016A1.178,1.178,0,0,1,76.563-4.922Zm.187.146c0-.041.024-.057.065-.057,0,.049-.024.073-.065.073Zm-.041.049h.008a.109.109,0,0,1,.049.057c0,.024-.033.041-.1.073A.389.389,0,0,0,76.709-4.727Zm-.374,1.618c.26-.7.431-1.13.5-1.293.033-.211.081-.317.138-.317,0,.016-.016.065-.033.146a4.323,4.323,0,0,0-.171.415c-.033.179-.057.268-.089.268-.024.154-.057.228-.073.228a.111.111,0,0,0-.065.106.7.7,0,0,1-.089.285v.081C76.449-3.174,76.416-3.149,76.335-3.109Zm.317-1.423a.063.063,0,0,0,.024.008.182.182,0,0,1-.065.122.348.348,0,0,0,.016.1v.024q0,.049-.073.1h-.008a.438.438,0,0,1-.008-.065A.421.421,0,0,1,76.652-4.531Zm-.528.715a1.321,1.321,0,0,0,.089-.268.545.545,0,0,1,.154-.285,1.5,1.5,0,0,0,.057.244.764.764,0,0,1-.089.2A.415.415,0,0,1,76.124-3.816Zm0-.366c.008,0,.008.008.008.016v.024a.03.03,0,0,1-.008.024l-.016-.008A.088.088,0,0,1,76.124-4.182Zm-.041.423c.008-.016.016-.016.024-.016h.024l-.016.033a.048.048,0,0,1-.033-.008Zm.187.211c.016-.073.041-.114.073-.114h.008a.357.357,0,0,0-.073.122H76.27Zm-.65,1.171a4.937,4.937,0,0,1,.2-.642,3.86,3.86,0,0,1,.228-.561v.024a1.5,1.5,0,0,1-.041.228A2.659,2.659,0,0,1,75.62-2.377ZM75.3-.442c.049-.041.073-.057.081-.057a2.808,2.808,0,0,0,.252-.594,13.577,13.577,0,0,1,.423-1.3c.106-.382.187-.569.244-.569a.169.169,0,0,1,.041.1v.033c-.1.106-.146.179-.146.211a.116.116,0,0,0,.016.049.28.28,0,0,1-.008.073c0,.016-.024.049-.081.114a.56.56,0,0,1,.016.146V-2.2a.088.088,0,0,1-.016.065.846.846,0,0,0-.1.228v.033l.008.073a.137.137,0,0,1-.122.081.871.871,0,0,1,.041.13v.024a3.082,3.082,0,0,1-.114.309.315.315,0,0,1-.171.26.333.333,0,0,1,.041.138,2.42,2.42,0,0,1-.179.537.235.235,0,0,0-.065.187l-.106.455a7.03,7.03,0,0,0-.211.8H75.14V1.014L75.132,1c-.016,0-.024.008-.024.016-.033,0-.049.057-.065.187a3,3,0,0,0-.179.8h.016c.081-.228.122-.35.13-.358a.581.581,0,0,1,.065-.26h.008v.008c-.236,1.008-.39,1.707-.447,2.1,0,.138.008.236.008.3a.306.306,0,0,1-.13.236.438.438,0,0,0,.073.138c0,.016-.008.114-.008.285q0,.012-.049.024c-.024,0-.033.057-.033.171v.008l-.057-.008c-.008,0-.016.016-.024.041a.8.8,0,0,1-.057.382h-.008V5.046c0-.089.008-.2.008-.293a5.546,5.546,0,0,1,.057-.781V3.965c0-.008-.008-.033-.016-.065h-.008c-.016,0-.033.057-.057.187h-.008a1.4,1.4,0,0,1-.041-.252c.024-.3.065-.447.106-.447.016,0,.024.024.024.057v.016q0,.024-.049.244a.466.466,0,0,0,.033.114c.041,0,.081-.26.122-.772l-.016-.057h-.016c0,.024-.008.041-.033.041l-.041-.008V3.014a.423.423,0,0,0,.024-.041A.913.913,0,0,1,74.5,2.68c0-.171.024-.252.081-.252a.077.077,0,0,1,.049.057,1.293,1.293,0,0,0-.073.2v.049l.016.024c.008,0,.024-.016.057-.049a2.824,2.824,0,0,1,.065-.447l-.008-.081c.024-.073.049-.114.057-.114-.016-.073-.024-.106-.024-.114l.033-.276a.225.225,0,0,0-.024-.106,2.712,2.712,0,0,0,.1-.309V1.192a.542.542,0,0,1,.089-.317c.1-.033.146-.065.146-.106,0-.008-.008-.016-.008-.024-.024,0-.049.016-.081.049h-.008A.474.474,0,0,1,74.937.68a.126.126,0,0,0,.057-.1V.534L74.985.518c-.024,0-.041,0-.041.016-.089,0-.138.081-.154.244a.155.155,0,0,1-.1-.057.2.2,0,0,0,.065-.154c0-.008,0-.008-.016-.016l-.057.008A.166.166,0,0,0,74.7.485c0-.008.024-.016.073-.033,0-.049-.016-.065-.049-.065a.331.331,0,0,1,.016-.057.8.8,0,0,1,.146.057H74.9l.049-.033c0-.057-.041-.089-.13-.1V.217A.826.826,0,0,1,74.88.03a.181.181,0,0,1,.065-.163V-.165l-.008-.016c-.041,0-.065.033-.089.106h-.008V-.084A1.8,1.8,0,0,0,74.9-.32a.435.435,0,0,0,.163-.366c0-.008-.008-.016-.008-.024l-.057.041.024-.114h.008l.033.024h.016a1.725,1.725,0,0,0,.146-.488.008.008,0,0,1-.008-.008l-.057.033h-.008c0-.008.016-.089.057-.244h.008v.008a.921.921,0,0,1-.016.1H75.2a.387.387,0,0,0,.138-.317,5.051,5.051,0,0,0,.309-.463c.016,0,.016.008.016.016a1.014,1.014,0,0,0,.171-.081h.008a1.228,1.228,0,0,1-.065.252l-.106-.073h-.008q-.122.1-.122.439c-.089.081-.138.146-.138.2a.137.137,0,0,0,.016.041q.146.1.146.146a.161.161,0,0,1-.049.114h-.008a.588.588,0,0,0-.081-.138c-.008,0-.016.024-.041.065a.257.257,0,0,0-.081.154l.016.081v.024a.881.881,0,0,0-.146.293c0,.016.008.024.016.024h.024c.041,0,.073-.041.1-.114a.493.493,0,0,1,.171-.285l-.106.463h-.033a.051.051,0,0,0-.057.057v.008ZM74.2-2.71H74.2c.057-.065.089-.1.106-.1a.13.13,0,0,1,.065.024c.122.106.179.2.179.268a1.3,1.3,0,0,0-.073.366v.033a1.063,1.063,0,0,1,.065.171v.089a2.644,2.644,0,0,1-.26.463,15.551,15.551,0,0,1-.951,1.382C72.026,1.266,71.148,1.908,70.7,1.908h-.057a.24.24,0,0,1-.211-.252A3.9,3.9,0,0,1,71.026.249,14.327,14.327,0,0,1,72.075-1.32a6.209,6.209,0,0,1,.74-.772,2.3,2.3,0,0,1,1.317-.659S74.156-2.735,74.2-2.71Zm.659.984a.363.363,0,0,1,.089-.187A.27.27,0,0,1,74.855-1.726Zm.829-.049.041-.008v.008a.142.142,0,0,1-.057.114c0,.041.008.1.008.154V-1.5a.275.275,0,0,1-.089-.22v-.041c0-.008,0-.008.016-.016Zm-.138.4H75.6v.041l-.041.008h-.008ZM73.034.6a.156.156,0,0,1,.1-.146,8.407,8.407,0,0,0,.537-.659,2.251,2.251,0,0,0,.374-.455.976.976,0,0,1,.26-.325h.008a.218.218,0,0,1-.016.081,2.377,2.377,0,0,0-.138.276v.122a.194.194,0,0,0-.1-.033L74.01-.45a2.357,2.357,0,0,0-.423.545.045.045,0,0,0,.033.049h.008L73.66.119c.033-.073.073-.114.114-.114a2.2,2.2,0,0,1,.114-.236q.11,0,.22-.244c.008,0,.016,0,.016.016v.033c0,.146-.106.293-.309.431,0,.057-.049.13-.138.228l-.138.089a.617.617,0,0,1-.252.3,3.614,3.614,0,0,1-.585.634.388.388,0,0,0-.211.163.645.645,0,0,1-.366.2c0-.049.049-.081.154-.114a.768.768,0,0,1,.2-.154c.008-.122.049-.179.122-.179a1.329,1.329,0,0,1,.171-.171.187.187,0,0,0,.163-.089A.03.03,0,0,0,72.92.892.141.141,0,0,1,72.969.8c.065,0,.146-.065.228-.2a.833.833,0,0,0,.244-.187V.4C73.433.379,73.416.363,73.4.363V.347q.2-.134.2-.171-.037-.049-.049-.049H73.53A2.586,2.586,0,0,1,73.034.6Zm-2.7-.244a.848.848,0,0,1,.22-.374.861.861,0,0,1,.171-.309,1.808,1.808,0,0,1,.309-.423c.122-.146.187-.22.211-.22h.008c-.163.333-.333.667-.5,1.008a.933.933,0,0,1-.285.154C70.408.3,70.359.355,70.335.355ZM75.059-.913h.008V-.9h-.008Zm-4.643.585a.244.244,0,0,1,.138-.2.294.294,0,0,1-.13.2Zm5.09-.154c-.024.016-.041.033-.041.041v.008c.016.024.024.033.033.033s.016-.008.033-.033V-.45ZM75.294-.4l-.081.065.049.1a.334.334,0,0,0-.057.1.072.072,0,0,0,.041.065.417.417,0,0,0,.114-.293V-.385c0-.008-.008-.008-.016-.016Zm-5.008.276c.016-.033.033-.049.041-.049h.008a.159.159,0,0,0,.008.057c-.008,0-.016.016-.033.041Q70.286-.076,70.286-.125Zm5.106.13c-.041,0-.057.016-.057.057V.07l.008.008c.041,0,.057-.024.057-.065V.005Zm-5.911,1.8a2.147,2.147,0,0,1,.2-.724,2.52,2.52,0,0,1,.374-.821q.073-.146.1-.146h.016a5.982,5.982,0,0,0-.293.61,2.139,2.139,0,0,1-.252.642.58.58,0,0,1-.089.268.251.251,0,0,0,.016.089C69.554,1.753,69.53,1.786,69.481,1.81ZM75.2.111c-.041,0-.089.057-.138.171a1.131,1.131,0,0,0,.057.171h.008a.5.5,0,0,0,.1-.268V.168A.108.108,0,0,0,75.2.111Zm.065.228-.033.024a.068.068,0,0,0,.033.057c.008,0,.024-.016.033-.049C75.286.347,75.27.339,75.262.339ZM70.254.453c0-.041.016-.057.065-.057,0,.049-.024.081-.057.081h-.008ZM75.2.583a.22.22,0,0,0-.024.065V.713h.008c.049-.033.065-.057.065-.065a.22.22,0,0,0-.024-.065ZM72.644.965q.012-.085.341-.341V.631a1,1,0,0,1-.333.333ZM70.1,1.176V1.168a.755.755,0,0,1,.163-.309V.875C70.2,1.079,70.14,1.176,70.1,1.176Zm4.529-.024a.1.1,0,0,0,.065-.033c-.008.081-.016.138-.016.179h-.008a.3.3,0,0,1-.041-.114Zm.5-.008h.008V1.16h-.008Zm-.065.089.065-.065-.033.171h-.008A.185.185,0,0,0,75.067,1.233Zm-5.082.122h.008v.008c-.057.236-.106.439-.13.618-.008,0-.033-.033-.081-.081C69.831,1.794,69.9,1.607,69.985,1.355ZM74.6,1.4c.008,0,.016-.008.033-.008l.016.008.016-.008a5.547,5.547,0,0,1-.13.553c0,.081-.024.122-.081.122q-.1.122-.122.122c.1-.472.146-.707.146-.724.057.073.089.106.114.106s.024,0,.024-.016V1.542s-.008-.024-.016-.057Zm-2.854.5a.918.918,0,0,1,.317-.22v.008L72.05,1.7a.756.756,0,0,1-.3.2Zm2.894.228h.008a.432.432,0,0,0,.008.114h-.008a.212.212,0,0,1-.024-.057Zm-.317.081h.008v.073a2.591,2.591,0,0,1-.057.325h-.016Zm.049.089a.5.5,0,0,0,.049.041s-.016.049-.041.13l-.041-.016A.821.821,0,0,0,74.368,2.3Zm.2.008h.016a.408.408,0,0,1,.016.1h-.024a.137.137,0,0,0-.016-.041Zm-.488,2.342c0-.171,0-.3.008-.382a7.118,7.118,0,0,1,.114-1.2c.033-.236.065-.35.1-.35h.008a2.779,2.779,0,0,1-.033.333c-.073.561-.114.862-.114.894,0,.073,0,.276.016.618a2.1,2.1,0,0,1-.033.317.251.251,0,0,1-.065-.016Zm.285-1.35a.837.837,0,0,1,.008-.106.113.113,0,0,1,.065-.114.846.846,0,0,1,.016.122v.033c0,.008-.008.033-.016.081h-.008A.191.191,0,0,1,74.368,3.3Zm-.1,1.081h.008l.016.065v.008a.18.18,0,0,1-.041-.033A.082.082,0,0,0,74.27,4.38Zm-.187.585H74.1l.057.041c-.016.114-.033.2-.049.276H74.1C74.1,5.233,74.091,5.128,74.083,4.965Zm.26.138c.008,0,.016.016.033.041v.008l-.008.057h-.016a.126.126,0,0,0-.024-.049A.14.14,0,0,0,74.343,5.1Zm10.663-8.8a.49.49,0,0,0-.423.26.576.576,0,0,0-.179.447v.13a.368.368,0,0,1-.024.13,1.325,1.325,0,0,0-.138.309,5.741,5.741,0,0,1-.447.675,1.128,1.128,0,0,1-.22.4,1.243,1.243,0,0,1-.244.39,6.829,6.829,0,0,1-.8,1.024,5.014,5.014,0,0,1-.455.537,1.586,1.586,0,0,1-.171.252,1.668,1.668,0,0,0-.439.374,1.816,1.816,0,0,1-.569.35,1.634,1.634,0,0,1-.268.146h-.016c-.057,0-.089-.179-.1-.528a7.255,7.255,0,0,1,.2-1.146,17.068,17.068,0,0,1,.886-2.716,3.018,3.018,0,0,0,.309-.756v-.016c0-.1-.033-.146-.1-.163h-.114a1.063,1.063,0,0,0-.171-.065.948.948,0,0,0-.268.065.448.448,0,0,0-.228.244,1.145,1.145,0,0,0-.228.374,14.922,14.922,0,0,0-.87,1.951,8.969,8.969,0,0,0-.528,2.309v.081a.971.971,0,0,0,.163.577,1.676,1.676,0,0,0,1.146.374,1.092,1.092,0,0,0,.154-.008,1.158,1.158,0,0,0,.585-.26A6.016,6.016,0,0,0,82.681,1a3.354,3.354,0,0,0,.455-.561L83.128.42l-.049.016C83,.542,82.949.6,82.925.6a.538.538,0,0,1-.089-.008c-.033,0-.057.033-.073.081V.68c0,.016.024.024.057.033V.729c0,.041-.024.065-.081.081a.13.13,0,0,1-.065-.024h-.008a1.832,1.832,0,0,1-.2.171,1.018,1.018,0,0,0-.317.252.678.678,0,0,1-.317.211h-.008a.483.483,0,0,1,.033-.065c.1-.089.146-.146.146-.179h-.024l-.033.024h-.033V1.176c0-.008.024-.024.065-.057.1-.008.154-.041.154-.089V1.022L82.112.981A3.192,3.192,0,0,0,82.64.4c.073-.033.146-.154.22-.358.146-.171.228-.268.228-.309a.492.492,0,0,0,.1-.146c.081-.114.138-.163.179-.163.016-.122.033-.187.065-.187.024-.024.146-.2.358-.537.154-.26.26-.39.325-.39l.187-.293c-.049.154-.114.341-.2.561a9.2,9.2,0,0,1-.358.951A2.582,2.582,0,0,0,83.6-.06c0,.008.024.024.081.033l-.024.1-.285.61a6.91,6.91,0,0,1-.431.943,1.573,1.573,0,0,1-.2.415,3.643,3.643,0,0,1-.163.358,7.217,7.217,0,0,1-.472.9,3.3,3.3,0,0,1-.276.528.3.3,0,0,1-.146.26,3.421,3.421,0,0,1-.3.439.388.388,0,0,1-.211.138,1.4,1.4,0,0,0-.26.35c-.374.374-.569.569-.569.585a.121.121,0,0,0,.057-.008.9.9,0,0,1,.244-.2h.008a2.656,2.656,0,0,1-.317.407c0,.049-.081.163-.26.333-.1.138-.171.2-.22.2h-.008c.057-.138.1-.211.13-.211a.474.474,0,0,1,.146-.26c.146-.1.211-.179.211-.244V5.615h-.008a.69.69,0,0,1-.2.146c-.106.106-.163.163-.179.163a4.839,4.839,0,0,0-.455.545,1.364,1.364,0,0,0-.423.789.627.627,0,0,0,.016.122.517.517,0,0,0,.5.374.809.809,0,0,0,.691-.472c.626-.772,1.016-1.293,1.179-1.545a2.588,2.588,0,0,1,.317-.512c.512-.528.764-.8.764-.813a6.525,6.525,0,0,0,.634-.642V3.754a1.627,1.627,0,0,1-.211.163h-.016a5.157,5.157,0,0,1,.366-.374c.171-.187.276-.276.317-.276V3.249l-.008-.016c.008-.008.187-.211.528-.618.22-.228.333-.341.333-.35a15.768,15.768,0,0,1,1.3-1.22c.146-.114.569-.447,1.268-.984V.054a1.011,1.011,0,0,0-.2.057h-.008a1.068,1.068,0,0,1,.2-.114c.138-.049.2-.089.2-.106s-.016-.008-.049-.016q.037-.049.049-.049h.073v.016c.024-.008.049-.033.081-.089V-.263h-.016a.141.141,0,0,0-.057.008c-.073,0-.114.016-.114.057a.281.281,0,0,1-.1-.008.288.288,0,0,0-.008.049c0,.024-.033.049-.106.065a1.826,1.826,0,0,1-.48.285H86.5l.024-.081L86.518.1c-.1.024-.146.057-.146.114L86.4.3a3.916,3.916,0,0,1-.447.317,1.749,1.749,0,0,1-.374.293,2.8,2.8,0,0,1-.325.285,6.977,6.977,0,0,0-.764.715,4.7,4.7,0,0,0-.472.488,2.772,2.772,0,0,0-.439.52c-.041.024-.057.041-.057.049-.732.87-1.106,1.317-1.114,1.342H82.4V4.3a1.14,1.14,0,0,0,.073-.187,5.627,5.627,0,0,1,.756-.959c.13-.114.2-.187.2-.211A.747.747,0,0,0,83.6,2.7c.057-.041.089-.065.089-.089a.063.063,0,0,0-.008-.024,1.328,1.328,0,0,0,.154-.179c.138-.122.211-.2.211-.236a.792.792,0,0,0,.244-.268,3.187,3.187,0,0,0,.472-.48,1.126,1.126,0,0,0,.211-.187c.122-.1.187-.171.187-.2a1.145,1.145,0,0,0,.228-.187,4.061,4.061,0,0,0,.4-.325c.122-.081.268-.187.439-.325a4.208,4.208,0,0,0,.455-.276l.22-.089c0-.073.065-.122.2-.154l-.016-.024a.884.884,0,0,0-.3.114,4.862,4.862,0,0,1-.569.35,3.644,3.644,0,0,1-.463.333c-.049,0-.081.033-.1.106a.123.123,0,0,0-.114.073.677.677,0,0,0-.171.114L85.307.68a.083.083,0,0,0-.041.065V.827a.278.278,0,0,1-.211.122A.008.008,0,0,0,85.047.94a.485.485,0,0,1-.122.073l.008.073v.024c0,.016-.008.016-.016.016h-.049l-.016-.008.008-.049V1.062a.475.475,0,0,0-.081.065c-.016.1-.041.146-.081.146-.081,0-.2.1-.35.3a3.068,3.068,0,0,0-.756.8.217.217,0,0,1-.114.089,4.107,4.107,0,0,0-.439.6H83.03V3.038a1.919,1.919,0,0,1,.236-.472,2.827,2.827,0,0,1,.35-.415,3.548,3.548,0,0,0,.39-.431c.033,0,.154-.13.374-.382-.041,0-.122.057-.268.171a4.762,4.762,0,0,0-.675.667h-.008V2.168c.244-.5.39-.789.447-.878.13-.35.317-.789.569-1.309a7.414,7.414,0,0,0,.382-.943,9.63,9.63,0,0,0,.764-2.277l-.016-.122A.924.924,0,0,0,85.006-3.694Zm-.041,1.512a.186.186,0,0,1,.057-.13.4.4,0,0,1-.041.146h-.016Zm-3.707.041h.016c0,.008,0,.016-.016.016Zm1.268,5.147a2.522,2.522,0,0,1,.366-.756,2.5,2.5,0,0,1,.3-.61c.138-.333.293-.683.463-1.057a11.985,11.985,0,0,1,.675-1.439c.073-.016.179-.22.333-.618.154-.415.252-.626.309-.626a3.879,3.879,0,0,0-.154.463l-.382,1q-.134.256-.39.878a3.321,3.321,0,0,0-.236.553c.008.008.008.033.016.073-.041,0-.081.041-.114.138.033.033.049.049.057.049s-.024.024-.081.041l.033.033v.008l-.008.041-.057-.041a.651.651,0,0,0-.089.187l.057.171V1.5h-.041c-.008,0-.041.033-.089.106a.449.449,0,0,0-.008-.073c-.057.041-.081.065-.081.081a.335.335,0,0,1,.033.122c0,.041-.016.057-.041.057V1.721h-.008c-.008,0-.024.016-.041.049l.041.033c-.016.024-.024.041-.033.041h-.008V1.827h-.024v.016a1.934,1.934,0,0,1-.211.39.149.149,0,0,1,.049.081c-.008,0-.016,0-.033.016q-.012-.024-.024-.024h-.016c-.016,0-.024.016-.033.057,0,.024.024.033.073.041a.948.948,0,0,1-.138.236V2.607a.848.848,0,0,0,.065-.163l-.008-.016a.308.308,0,0,0-.122.2v.024a.13.13,0,0,0,.024.065c0,.033-.024.065-.065.106V2.762h-.016a1.633,1.633,0,0,0-.26.5.5.5,0,0,0-.106.187v.008h.008c.041-.024.065-.041.065-.041l.016.008c0,.081-.041.122-.106.122,0-.008.008-.033.016-.073h-.008l-.033.033q-.122.22-.171.22c-.008,0-.008-.016-.016-.057h-.049q-.024.012-.024.024V3.7c0,.008.033.016.081.024,0,.041-.008.065-.041.065a.757.757,0,0,1-.211.423.841.841,0,0,1-.114.244c-.057.024-.089.049-.089.081v.065l.008.016a.434.434,0,0,0-.13.179c0,.073-.114.211-.325.415-.008.065-.024.106-.065.106,0-.016-.008-.033-.041-.033l-.089.065a.332.332,0,0,1,.1-.2,1.146,1.146,0,0,1,.2-.3q.1-.012.1-.024a.128.128,0,0,0-.033-.008V4.794h.024a.063.063,0,0,0,.008.024c.041,0,.065-.033.1-.081,0-.016-.008-.033-.008-.065a.22.22,0,0,1,.024-.065c.106-.073.163-.13.163-.179,0-.016-.008-.024-.033-.033s-.057.024-.106.065h-.008a.643.643,0,0,1,.2-.3c.106,0,.187-.081.236-.236-.073,0-.106-.008-.106-.016a.355.355,0,0,1,.13-.22,1.555,1.555,0,0,1,.317-.585v.008a.251.251,0,0,1-.008.073l.008.016c.1-.049.146-.106.146-.187V3.006l-.008-.016c-.041.008-.073.016-.081.016ZM81.1-1.816c0-.033.008-.049.041-.057h.008v.016c-.033.041-.041.057-.041.065H81.1Zm-.65,1.87a.226.226,0,0,1,.057-.179,2.607,2.607,0,0,1,.106-.455.159.159,0,0,0,.057-.138.367.367,0,0,1,.073-.187c.008-.1.024-.138.033-.138a.8.8,0,0,1,.049-.163c.033-.1.065-.146.081-.146a.51.51,0,0,1,.13-.333.159.159,0,0,0,.008.057c-.041.13-.065.2-.065.211a.37.37,0,0,0-.065.187h-.008c-.008,0-.016,0-.016-.016a.017.017,0,0,0-.016.016v.008c0,.008.008.016.024.016a.4.4,0,0,1-.024.1.334.334,0,0,0-.057.138,1.674,1.674,0,0,0-.114.374.786.786,0,0,0-.1.333A1.147,1.147,0,0,0,80.5.119l.008.016c-.016,0-.024.024-.041.065-.008.163-.024.244-.041.244A.03.03,0,0,0,80.421.42c.008-.049.016-.081.016-.1s0-.057-.008-.146a.13.13,0,0,1,.024-.065Zm4.09-1.48c0-.008,0-.016.016-.016V-1.4h-.016Zm-.585.073v.016h.008v-.016Zm-.715.594c.016-.016.024-.033.041-.033a1.21,1.21,0,0,1,.236-.3h.016c-.016.041-.033.065-.041.065-.081.2-.154.3-.22.3H83.25A.049.049,0,0,0,83.242-.759Zm4.049.081a2.574,2.574,0,0,0-.577.2,2.922,2.922,0,0,0-.512.341.017.017,0,0,0,.016.016h.041c.041,0,.106-.049.22-.138l.268-.13a2.01,2.01,0,0,1,.374-.146c.2-.041.3-.065.3-.089V-.637c0-.024-.041-.033-.114-.041Zm-6.919.309a.458.458,0,0,1,.1-.228v.057a1.58,1.58,0,0,1-.073.187Zm3.5-.2c.008,0,.016,0,.016.016v.024a.03.03,0,0,0-.024.008V-.556Zm-.455.033a.257.257,0,0,0-.1.146c0,.016.008.024.016.024h.008c.049,0,.081-.041.089-.122A.116.116,0,0,0,83.421-.539Zm.8.024c-.008,0-.016.016-.033.041l.024.041c.024-.016.033-.024.033-.033V-.491Q84.23-.515,84.217-.515Zm-.626.122v.016h.016V-.393ZM83.3-.36a.017.017,0,0,0-.016.016v.008h.008c.016,0,.016,0,.016-.016V-.36Zm-2.959.089c.016-.041.033-.065.041-.065h.008v.024c-.008.049-.024.073-.041.073A.049.049,0,0,0,80.339-.271Zm3.423-.057h.008c.008,0,.016.016.024.033v.016C83.778-.279,83.762-.3,83.762-.328Zm.382-.008a.16.16,0,0,0-.081.138A.252.252,0,0,0,84-.011h.016c0-.073.016-.106.049-.106.049,0,.089-.073.1-.22Zm2.935.024L87.071-.3v.033a.017.017,0,0,0,.016.016h.024c.024-.008.033-.024.033-.033S87.128-.3,87.079-.312ZM83.258-.3c-.008,0-.008.008-.016.016v.008h.016Zm.341.073c-.016,0-.016.008-.016.016v.033h.008c.016-.016.033-.024.033-.033V-.222Zm-.041.065c-.016,0-.024.016-.033.049,0,.008,0,.016.016.016s.024-.016.024-.024V-.141Zm-.423.016c-.008,0-.016.008-.024.033,0,.008.008.016.008.024h.024c0-.016,0-.024.008-.024V-.141Zm3.773,0-.033.033c0,.008.008.016.033.024s.024-.008.041-.033V-.125a.017.017,0,0,0-.016-.016Zm-.756.016c-.041,0-.089.033-.138.114l.008.016c.089-.008.138-.041.138-.1V-.108Zm.862.065c.016,0,.024-.008.041-.016V-.06a.063.063,0,0,0-.024.008h-.016Zm-3.529.008-.041.008a1.527,1.527,0,0,1-.146.2q-.146.171-.146.22c0,.016,0,.024.008.024A.292.292,0,0,0,83.3.241a.819.819,0,0,0,.2-.276Zm-.431.033c-.008,0-.024.016-.041.049V.038l.008.016c.024-.008.041-.016.041-.024V-.019Zm3.642,0-.033.024c.016.016.024.033.033.033h.016c.008,0,.016-.016.024-.033q-.012-.024-.024-.024Zm-3.39.033V.022h.016V.014Zm.268.008a.06.06,0,0,0-.049.016c-.187.407-.276.626-.285.65V.721l.008.041h.016a1.163,1.163,0,0,1,.2-.333.116.116,0,0,0-.016-.049V.363A1.375,1.375,0,0,0,83.583.07V.038ZM85.941.03h-.033a4.545,4.545,0,0,0-.577.415,7.48,7.48,0,0,0-.911.846l.008.016a.151.151,0,0,0,.089-.033c.114-.163.2-.244.236-.244a1.274,1.274,0,0,1,.325-.268A1.342,1.342,0,0,1,85.3.583a.6.6,0,0,1,.049-.089.79.79,0,0,0,.366-.268,2.151,2.151,0,0,0,.244-.179C85.957.03,85.949.03,85.941.03ZM80.234.266c0-.106.016-.163.033-.163l.008.057V.168a.4.4,0,0,1-.033.106h-.008ZM86.4.241q.012-.024.024-.024h.041V.233q-.012.024-.024.024H86.4ZM80.234.306h.008l.008.041V.355q-.012.024-.024.024V.347Zm3.6.049c-.024.008-.033.033-.033.073V.444h.016c.041-.033.065-.049.065-.065s-.008-.024-.016-.024ZM80.217.4h.008l.008.081a.64.64,0,0,1-.033.1h-.008V.469A.34.34,0,0,1,80.217.4ZM84.1.412c.008,0,.008.008.016.033V.461A.087.087,0,0,1,84.1.42ZM80.177.745c0-.008,0-.016.016-.016H80.2V.737l-.008.016Zm2.976.138c-.024.024-.041.041-.041.049V.94A.108.108,0,0,0,83.136,1c.024-.016.041-.024.049-.049C83.185.9,83.169.884,83.152.884Zm2.4.146c.016,0,.041-.024.065-.057h.024c-.033.049-.057.073-.081.073h-.008Zm-2.447,0c-.065.049-.089.081-.089.089,0,.024.016.041.057.041a.064.064,0,0,0,.041-.065V1.03Zm.626.187c0-.008.016-.024.049-.041h.008v.049c0,.008-.016.024-.049.041H83.73Zm-.691-.008c-.057,0-.1.057-.122.179a.054.054,0,0,0,.033.057.292.292,0,0,0,.106-.187A.319.319,0,0,0,83.039,1.209Zm.5.211c-.033.008-.041.033-.041.065v.033H83.5a.061.061,0,0,0,.041-.057V1.42Zm-.65.089-.041.008a.275.275,0,0,1-.065.154,1.851,1.851,0,0,0-.228.545.008.008,0,0,1,.008.008.243.243,0,0,0,.065-.033.6.6,0,0,1,.065-.2c.041-.008.073-.081.114-.22a.828.828,0,0,0,.106-.228V1.51Zm.707.041h.016v.041h-.024Zm-.268.341h.008q.024.012.024.024c0,.008-.008.016-.033.024Zm-.886.561q-.049.012-.049.024v.008a.074.074,0,0,1,.041.024h.016V2.469Zm1.431.016H83.86a.28.28,0,0,0-.163.114v.008a.227.227,0,0,0,.179-.114Zm-1.512.081c-.008,0-.024.024-.041.057a.049.049,0,0,0,.024.049c.024-.016.041-.033.041-.041V2.607A.108.108,0,0,0,82.356,2.55Zm-.089.2a.083.083,0,0,0-.041.049.053.053,0,0,1,.016.041.064.064,0,0,0,.065-.041Zm.594.114h.008l-.041.065h-.008Zm-.667.008c-.024.008-.041.041-.057.1a.227.227,0,0,0-.073.154l.008.016a.219.219,0,0,0,.154-.2.438.438,0,0,0-.008-.065Zm-.179.325a.141.141,0,0,1-.024.057c.016.024.024.033.033.033h.008c.008,0,.016-.016.033-.041a.055.055,0,0,0-.033-.049Zm.61.114h.008c.008,0,.016.008.024.033-.008,0-.008.008-.008.024a.063.063,0,0,0-.024-.008Zm-.683.033a.167.167,0,0,0-.065.122l.008.016c.081-.024.122-.057.122-.089A.062.062,0,0,0,81.941,3.339Zm1.146.033q-.024.012-.024.024V3.4c0,.008,0,.016.016.016A.017.017,0,0,0,83.1,3.4V3.388ZM81.8,3.64c-.065.008-.1.024-.1.057-.041.114-.089.171-.138.187-.033.106-.057.154-.081.154-.106.228-.171.341-.211.358a.56.56,0,0,1-.057.2v.016c.089,0,.154-.081.2-.236a1.579,1.579,0,0,0,.187-.3.108.108,0,0,0-.024-.057V4.006a.61.61,0,0,0,.236-.366Zm.943.463c.049-.049.073-.081.081-.081,0,.041-.024.065-.073.081ZM81.7,4.193a.1.1,0,0,1,.016-.024c.016,0,.016.008.016.016s-.008.016-.033.033Zm.447-.008a.063.063,0,0,0,.024-.008h.008a.142.142,0,0,0-.024.057h-.008Zm.455.057c.024-.041.049-.057.057-.057h.008a.117.117,0,0,1-.049.057Zm-.715.024c-.008,0-.016,0-.016.016v.041h.016a.137.137,0,0,1,.016-.041A.017.017,0,0,0,81.884,4.266Zm.163.122c0-.008.008-.016.033-.024a.063.063,0,0,0,.008.024l-.041.016Zm.293.073a.357.357,0,0,1,.114-.089c-.024.057-.057.089-.1.089Zm-.39.073c0-.033.016-.057.057-.081l-.041.114h-.016Zm.309.024a.043.043,0,0,1,.049-.049h.008C82.315,4.518,82.3,4.534,82.258,4.558ZM80.982,5.1A.283.283,0,0,1,81.071,5c.057-.122.114-.187.163-.2,0,.049-.049.13-.154.236-.049.081-.073.122-.081.122a.017.017,0,0,1-.016-.016Zm.431-.049c-.024.016-.033.024-.033.033V5.1l.016.024q.024-.012.024-.024V5.071Zm-.52.228h.016v.041h-.024Zm-.634.911c.065-.154.122-.236.171-.236v.008a.184.184,0,0,1-.089.146C80.323,6.16,80.3,6.193,80.258,6.193Zm-.228.22c0-.033.057-.1.171-.187,0,.008-.016.041-.033.106-.081.049-.122.081-.122.114h-.008Z" transform="translate(0.373 11.57)" fill="#fff" stroke="#fff" stroke-width="0.5"/>
</svg>
