<svg xmlns="http://www.w3.org/2000/svg" width="82.206" height="19.655" viewBox="0 0 82.206 19.655">
  <path id="パス_314" data-name="パス 314" d="M7.084-9.953a4.266,4.266,0,0,0-2.073.52c0-.236-.1-.358-.293-.358a.329.329,0,0,0-.146-.081c-.244.024-.358.049-.358.073a1.434,1.434,0,0,0-.154.512c-.057.268-.114.4-.171.4A13.733,13.733,0,0,0,2.449-7.709a5.59,5.59,0,0,1-.561.675.966.966,0,0,0-.154.382v.033c.033.146.081.22.122.22a6.722,6.722,0,0,1,.13,1.1,6.156,6.156,0,0,1-.073.691l.033.236a1.274,1.274,0,0,1-.049.228,2.52,2.52,0,0,1-.1.594,1.443,1.443,0,0,0-.1.39.207.207,0,0,0,.016.057.428.428,0,0,0-.049.122V-2.9c0,.016.016.024.065.024a.711.711,0,0,0-.024.114c-.089.057-.13.106-.13.154v.049a.109.109,0,0,0,.016.065.928.928,0,0,1-.065.236,6.037,6.037,0,0,0-.366.87v.033h.008c.049-.049.317-.512.8-1.366h.008v.008c-.268.846-.488,1.488-.667,1.9-.171.065-.26.138-.26.228v.033a.31.31,0,0,0,.033.106v.008a1.352,1.352,0,0,0-.22.545V.153c0,.1.065.146.187.146h.033A.022.022,0,0,0,1.116.275V.267a.529.529,0,0,0-.13-.13V.113a.476.476,0,0,1,.22-.285c.008.033.024.049.033.049.049-.041.073-.073.073-.114A.292.292,0,0,1,1.4-.221h.008a4.108,4.108,0,0,1-.276.8A.008.008,0,0,0,1.14.584L1.027.893a.257.257,0,0,0-.106.163.951.951,0,0,0-.13.26V1.34c0,.008.008.016.024.016a1.078,1.078,0,0,1-.106.26c-.163.455-.285.691-.366.691H.327a1.1,1.1,0,0,0,.106-.341H.425L.4,1.975a.5.5,0,0,1-.114.179H.279L.3,1.918.279,1.9H.246L.2,1.918C.181,2,.165,2.04.157,2.04c-.008.154-.041.236-.081.236H.059c0-.016-.024-.057-.081-.106.033-.065.049-.1.057-.1A9.265,9.265,0,0,1,.539.69,9.947,9.947,0,0,1,1.2-1.131v-.008H1.157c-.041.041-.065.073-.065.089L.929-.928V-.9c0,.016.008.016.033.016,0,.016-.024.024-.073.033C.758-.383.555.235.287,1.007H.279A.151.151,0,0,0,.262.95a.6.6,0,0,0-.089.374H.157l.008-.089a.142.142,0,0,1-.008-.041H.132A6.149,6.149,0,0,0-.226,2.747c0,.447.187.667.553.667H.352c.171,0,.276-.024.325-.089.179-.073.268-.122.268-.163V3.129a.266.266,0,0,1-.2-.26V2.812c.431-1.374.756-2.358.984-2.968.008-.089.041-.13.1-.13.431-.171.846-.358,1.26-.569a8.686,8.686,0,0,0,1.48-.821A17.913,17.913,0,0,0,6.5-2.944c.862-.7,1.342-1.1,1.431-1.187a9.06,9.06,0,0,0,1.26-1.431,3.29,3.29,0,0,0,.732-2.065,2.231,2.231,0,0,0-.407-1.309A2.993,2.993,0,0,0,7.092-9.953Zm-.033.309h.065V-9.6c-.041-.008-.065-.016-.065-.033Zm.309,0h.114v.008c-.008.024-.024.033-.033.033H7.393c-.024-.008-.033-.024-.033-.033ZM6.384-9.6A1.214,1.214,0,0,1,6.539-9.6H6.58q-.037.049-.049.049H6.515l-.13-.033Zm1.561.065h.033v.024H7.946ZM2.14-1.164c.008-.024.016-.033.024-.033.61-1.439,1.155-2.87,1.634-4.268.163-.512.26-.8.285-.854l.309-1.073a10.953,10.953,0,0,0,.528-1.463,1.484,1.484,0,0,1,.4-.2,6.661,6.661,0,0,1,1.992-.431,3.539,3.539,0,0,1,1.008.154,1.229,1.229,0,0,1,.919,1.252,3.142,3.142,0,0,1-.073.6,2.853,2.853,0,0,1-.374,1.024,2.693,2.693,0,0,1-.61.829,4.045,4.045,0,0,1-.512.561,8.365,8.365,0,0,0-.7.732,8.706,8.706,0,0,0-.789.691,2.673,2.673,0,0,0-.561.423v.008l.049-.008h.016v.041a.475.475,0,0,1-.106.041H5.547c0-.024,0-.041-.008-.049s-.024.008-.033.008L5.3-3.026a5.68,5.68,0,0,0-.724.512v.033a.13.13,0,0,0,.024.065l.236-.13A2.411,2.411,0,0,1,5.3-2.855v-.016c0-.016-.008-.016-.024-.024H5.23c0-.073.049-.114.13-.114q.1,0,.1-.122h.081a.215.215,0,0,0-.024.081v.016h.016a1.081,1.081,0,0,0,.2-.154A14.62,14.62,0,0,0,6.97-4.148a2.105,2.105,0,0,1,.4-.341h.016a.236.236,0,0,1-.041.081c-.317.3-.667.61-1.073.927a3.643,3.643,0,0,0-.431.35v.008A1.142,1.142,0,0,0,6.2-3.335a3.605,3.605,0,0,0,.577-.5A1.882,1.882,0,0,0,7.149-4.1c.008,0,.016.016.024.041L7.165-4c-.13.106-.358.317-.691.634a1.309,1.309,0,0,1-.228.187c-.057.089-.114.13-.179.13l-.1-.008v.049c0,.049-.073.122-.228.22a2.572,2.572,0,0,0-.5.35q-.659.415-.781.488a.431.431,0,0,1-.35.154H4.1v.024h.073V-1.7a1.524,1.524,0,0,0-.35.146.694.694,0,0,1-.285.187.231.231,0,0,1-.1-.033.414.414,0,0,0-.236.106v.008a.03.03,0,0,1,.024.008c0,.041-.008.065-.041.073-.024-.016-.041-.033-.041-.041H3.132c-.073.089-.13.13-.179.13H2.945c0-.016-.016-.033-.041-.041q-.012,0-.268.122l.008.057v.041a.619.619,0,0,1-.171-.024,3.025,3.025,0,0,0-.5.22H1.953a.9.9,0,0,1,.073-.187c0-.057.089-.106.26-.13l1.2-.683c0-.033-.008-.057-.033-.057H3.368c-.008,0-.008,0-.008.008-.146.081-.545.293-1.211.626ZM4.986-9.107l.008-.073c0-.041.171-.1.512-.187v.041Zm-.846.8h.008v.033c-.244.8-.407,1.317-.472,1.569a1.964,1.964,0,0,0-.146.48,4.341,4.341,0,0,0-.285.992.281.281,0,0,1,.024.1v.016H3.262c-.016,0-.024-.008-.041-.016s-.024.016-.057.041a.192.192,0,0,0,.041.106.111.111,0,0,0-.089.106v.008A.13.13,0,0,0,3.181-4.9a.022.022,0,0,1,.024.024v.008c-.049,0-.089.081-.13.252l.016.016v.024a1.437,1.437,0,0,0-.138.366l.024.146v.008l-.1-.033q-.085,0-.122.146v.057c.033.041.057.057.065.057a.3.3,0,0,1-.106.163l.065.057a.244.244,0,0,1-.154.073c-.057,0-.081.065-.081.2a.074.074,0,0,1,.024.057l-.016.2A.3.3,0,0,0,2.4-3.148a4.174,4.174,0,0,0,.13-.65c.48-1.407.732-2.114.756-2.13q.061-.134.463-1.317A4.7,4.7,0,0,1,4.14-8.31ZM2.327-6.644a2.652,2.652,0,0,1,.463-.528,5.437,5.437,0,0,1,.854-.87c0,.024-.2.634-.61,1.837-.138.447-.236.675-.276.675a7.092,7.092,0,0,0-.041-.732A.307.307,0,0,0,2.6-6.538C2.417-6.579,2.327-6.611,2.327-6.644Zm1.732-.293a.421.421,0,0,1,.089-.293l.008.057v.041c-.049.122-.081.187-.081.2Zm-.1.268a.28.28,0,0,1,.081-.187v.049a.433.433,0,0,1-.049.2c-.016-.008-.033-.016-.033-.033Zm-.049.13.016.008a.464.464,0,0,1-.008.106,8.77,8.77,0,0,1-.317,1,4.181,4.181,0,0,1-.26.846L3.287-4.4a.5.5,0,0,0-.114.358,3.379,3.379,0,0,0-.407.894q-.22.524-.634,1.561c-.122.382-.22.569-.3.569H1.823l.26-.691c.146-.3.252-.545.325-.74l.4-1.033a2.508,2.508,0,0,0,.22-.61,4.261,4.261,0,0,0,.309-.87V-5c0-.016-.008-.016-.016-.024s.016-.024.065-.057C3.417-5.14,3.588-5.619,3.913-6.538Zm4.13,1.39c0-.049.033-.106.114-.171.049-.114.1-.171.138-.171A.713.713,0,0,1,8.043-5.148Zm-.61.618A.375.375,0,0,1,7.6-4.717q.073-.146.146-.146h.008a.7.7,0,0,1-.317.333ZM2.051-4h.016v.024H2.059A.03.03,0,0,0,2.051-4Zm-.065.244c.016-.024.024-.033.033-.033h.008c0,.008.008.016.016.033s-.016.041-.049.049l-.008-.016ZM1.9-3.5c0-.057.024-.081.081-.1l.016.008c0,.008-.016.065-.049.179H1.9L1.9-3.457Zm-.041.22c.008-.024.016-.041.033-.041H1.9v.024c0,.008-.016.016-.041.033C1.864-3.27,1.864-3.278,1.856-3.278Zm-.024.154c.016-.024.033-.041.041-.041a.3.3,0,0,0-.008.065Zm3.992.016a.139.139,0,0,0-.138.1v.016C5.783-3.018,5.823-3.058,5.823-3.107Zm-3.35.081h.008a.061.061,0,0,0,.008.033c0,.024-.008.041-.033.041l.016.122q-.024,0-.073.049-.037.146-.073.146v-.033A1.511,1.511,0,0,0,2.474-3.026Zm-.691.081c0-.008.008-.016.016-.024v.024Zm3.732.065a.239.239,0,0,0-.163.089,2.471,2.471,0,0,0-.585.4v.024h.008a.151.151,0,0,0,.138-.073,3.806,3.806,0,0,0,.6-.431ZM2.3-2.587h.016v.024H2.3Zm-.13.236a.6.6,0,0,1,.106-.138c0,.016-.016.081-.033.179ZM4.49-2.465a.438.438,0,0,0-.008.089l-.13-.016-.211.154a3.566,3.566,0,0,0-.667.423V-1.8a3.335,3.335,0,0,0,.569-.252c.325-.2.488-.309.5-.309-.016-.065-.033-.106-.049-.106Zm.228.114c-.073.016-.106.033-.106.041v.024a.022.022,0,0,0,.024.024h.049c.016-.008.024-.024.041-.057A.061.061,0,0,0,4.718-2.351Zm-.309.171v.016c0,.016.008.024.016.024a.022.022,0,0,0,.024-.024c0-.008-.008-.016-.024-.016Zm-.081.073v.016c0,.016,0,.024.016.024a.022.022,0,0,0,.024-.024c0-.008-.008-.016-.024-.016ZM1.8-1.822a.351.351,0,0,1,.114-.26h.016C1.872-1.912,1.831-1.822,1.8-1.822Zm.26-.187c0-.008.008-.016.024-.016h.024c-.008.024-.016.041-.024.041H2.059Zm-.268.569c.016,0,.024.008.024.016v.016a1.1,1.1,0,0,1-.13.374c0,.065-.049.114-.163.146L1.514-.9A1.259,1.259,0,0,1,1.791-1.44Zm-.325.748A.5.5,0,0,1,1.6-.782q-.049.2-.073.2H1.482A.854.854,0,0,0,1.466-.692ZM1.2-.326a.052.052,0,0,1,.057.041c0,.008-.008.016-.041.024C1.205-.261,1.2-.278,1.2-.31ZM1.1.031C1.1.04,1.1.04,1.092.04A.072.072,0,0,0,1.132.1h.024C1.165.1,1.173.1,1.173.08V.064C1.173.048,1.148.04,1.1.031Zm.057.35C1.116.422,1.1.446,1.092.446S1.075.438,1.075.422c-.033.016-.049.033-.049.041h.065a.3.3,0,0,0-.041.122V.6h.008A.238.238,0,0,0,1.165.414C1.165.405,1.157.4,1.157.381ZM.864.47C.856.47.848.487.831.511L.856.527H.9A.022.022,0,0,0,.929.5C.913.487.9.47.9.47Zm-.2.187A.108.108,0,0,0,.636.722V.731H.669C.7.714.718.7.718.69V.682A.141.141,0,0,1,.661.657Zm.325,0A.254.254,0,0,0,.9.82.108.108,0,0,0,.921.877C.945.853.961.844.978.844A.694.694,0,0,1,1.027.69c0-.016-.008-.024-.008-.033ZM.669.771A.509.509,0,0,0,.555.8.733.733,0,0,1,.579.926H.587C.612.918.644.877.677.8A.061.061,0,0,0,.669.771ZM.774.8C.742.82.734.836.734.844V.853C.742.877.75.885.766.885L.791.861A.331.331,0,0,0,.774.8Zm.073.13C.84.934.823.942.783.95A.335.335,0,0,1,.7,1.121v.033l.008.016c.106-.041.154-.106.154-.179V.966Zm-.48.325c-.049.008-.081.024-.081.041.016.024.033.041.041.041H.384L.4,1.324Zm.293.106C.62,1.389.6,1.414.6,1.43s.016.041.033.041H.636c.016,0,.024-.024.033-.081Zm-.293.26v.008a.022.022,0,0,0,.024.024H.4V1.625Zm-.016.1c-.008,0-.024.008-.049.041,0,.033.008.049.024.057H.344c.016,0,.033-.024.041-.081Zm.171.057c-.065,0-.1.024-.1.065l.008.016C.5,1.853.522,1.828.522,1.779ZM14.576-10.481a1.174,1.174,0,0,0-.146.1.75.75,0,0,0-.341.285.245.245,0,0,1,.057.114l-.065.073c-.1.228-.293.715-.577,1.463a2.963,2.963,0,0,0-.252.732,7.188,7.188,0,0,0-.4,1.13,15.979,15.979,0,0,0-.48,1.561,3.1,3.1,0,0,0-.154.512,2.146,2.146,0,0,0-.122.236.632.632,0,0,1-.081.293,1.012,1.012,0,0,1-.1.252q-.159.463-.171.537c0,.008.008.016.008.024h.008a.336.336,0,0,1,.081-.171c.033-.146.073-.22.114-.22.008,0,.008.016.016.065a.251.251,0,0,0-.008.081,3.638,3.638,0,0,0-.179.472h-.081c-.008,0-.024.033-.065.106a2.265,2.265,0,0,0-.163.472l.016.008H11.5c.024-.106.065-.163.1-.163l.016.008a2.458,2.458,0,0,1-.049.268,1.294,1.294,0,0,1-.171.407.68.68,0,0,1-.114.341c-.024.154-.065.236-.138.236,0,.016.008.057.016.122-.016.049-.024.073-.041.073s-.041-.008-.041-.024l.057-.2a1.233,1.233,0,0,0,.1-.26c-.049,0-.081.016-.081.057a2.392,2.392,0,0,0-.211.626.03.03,0,0,0,.008.024c.033,0,.065-.065.106-.187H11.1A2.642,2.642,0,0,1,11-.652a1.639,1.639,0,0,1-.2.512c-.081.008-.122.024-.122.041s.041.033.106.041a.556.556,0,0,0-.073.268V.275l-.041.008h-.041V.259c0-.008-.008-.024-.041-.033s-.049.041-.057.114V.365h.089c0,.049-.016.146-.033.276H10.6a.07.07,0,0,0,.049-.024c.13-.382.22-.618.26-.7.041-.114.089-.268.154-.48A2.887,2.887,0,0,1,11.2-.928a2.14,2.14,0,0,1,.236-.6,3.1,3.1,0,0,1,.154-.537q.073-.159.512-1.415a4.615,4.615,0,0,1,.3-.8.953.953,0,0,0,.106-.325l.13-.341q.085-.378.146-.415c.016-.171.057-.252.122-.252a2.464,2.464,0,0,1-.089.236.915.915,0,0,1-.114.39l-.618,1.813a5.474,5.474,0,0,1-.317.894,7.665,7.665,0,0,0-.244.813c-.073.2-.154.488-.26.878-.041,0-.1.146-.163.439,0,.008,0,.016.008.016a.71.71,0,0,0,.2-.3q.073-.268.1-.268a.887.887,0,0,0,.13-.35,1.2,1.2,0,0,0,.073-.22c0-.008,0-.016-.016-.016h-.041l.008-.081.057.016h.033c.016,0,.041-.057.065-.163a2.072,2.072,0,0,1,.122-.439,2.963,2.963,0,0,0,.171-.415V-2.4l-.008-.016-.033.016c-.008,0-.016-.008-.016-.041v-.016c.073,0,.13-.081.171-.228a.77.77,0,0,1,.13-.374,3.5,3.5,0,0,1,.171-.52.356.356,0,0,1,.106-.26,2.151,2.151,0,0,1,.122-.309c.033-.13.081-.293.146-.48a1.859,1.859,0,0,0,.228-.659c0-.041.033-.081.081-.138a2.126,2.126,0,0,1,.13-.39,1.358,1.358,0,0,1,.187-.472c.065-.228.122-.4.163-.5a.8.8,0,0,0,.114-.325h.016l.016.057a.346.346,0,0,1-.016.089,4.707,4.707,0,0,0-.179.5,3.58,3.58,0,0,0-.2.512,6.136,6.136,0,0,1-.285.854c-.065.268-.106.4-.13.4a2.556,2.556,0,0,1-.106.325c-.057.114-.211.553-.48,1.3a5.382,5.382,0,0,1-.276.821,5.519,5.519,0,0,1-.22.618c-.122.285-.447,1.236-.968,2.87a6.009,6.009,0,0,0-.252.862,4.307,4.307,0,0,0-.154.439.757.757,0,0,1-.138.341,4.215,4.215,0,0,0-.407.8H9.925V3.674a.645.645,0,0,1,.041-.122A.083.083,0,0,0,9.9,3.511a3.446,3.446,0,0,0-.2.423H9.7V3.926c.016-.13.024-.228.033-.276l-.016-.008a.609.609,0,0,1,.057-.179,2.157,2.157,0,0,1,.154-.488.409.409,0,0,0-.033-.13s.033-.041.089-.106a.942.942,0,0,1,.13-.358c-.081-.065-.122-.114-.122-.154a.715.715,0,0,0,.065-.26V1.893h.008a.068.068,0,0,1,.057.033v.008a.549.549,0,0,1-.016.114l.008.016h.016c.057-.024.089-.1.089-.2V1.853H10.21a.212.212,0,0,0-.089.024H10.1c0-.106.033-.154.089-.154H10.2l.016.049h.016V1.706a.435.435,0,0,0,.081-.211c-.049-.016-.081-.024-.081-.041V1.365a1.034,1.034,0,0,0,.13-.236V1.1l-.008-.057H10.34a.108.108,0,0,0-.057.024,1.944,1.944,0,0,1-.163.455v.008a.113.113,0,0,0,.041.081h.016l.016-.008v.057a.167.167,0,0,0-.154.1,1.781,1.781,0,0,1-.163.5,10.019,10.019,0,0,0-.447,1.659v.049a1.494,1.494,0,0,0,.1.252.41.41,0,0,0,.228.179.534.534,0,0,0,.106-.024c.081.008.122.008.13.008a.756.756,0,0,0,.22-.073h.065c.041,0,.1-.049.2-.154a11.267,11.267,0,0,0,.8-1.512c.439-.789,1.244-2.016,2.4-3.691.244-.358.407-.537.488-.545h.016c.033,0,.049.008.057.041q-.122.927-.293,1.683a9.535,9.535,0,0,0-.358,1.707v.016l-.008.033a.894.894,0,0,0,.057.26,1.036,1.036,0,0,0,.878.431l.179-.016a3.286,3.286,0,0,0,1.325-.683c.431-.35.642-.561.65-.626.057-.073.138-.163.244-.285A.008.008,0,0,1,16.9.958a2.805,2.805,0,0,0-.512.407c-.065-.016-.089-.033-.089-.073l.049.008a.32.32,0,0,0,.049-.016l-.008-.041V1.218a.154.154,0,0,1,.024-.073,4.84,4.84,0,0,0,.472-.488c.228-.228.341-.366.341-.407q.317-.22.317-.39l.016.008H17.6l.016-.008a.116.116,0,0,1,.016.049h.024L17.674-.1a.6.6,0,0,1,.114-.276c-.008,0-.008,0-.008-.008a.748.748,0,0,0-.171.106C17.34,0,17.072.259,16.8.5q-.1.11-.2.244c-.041,0-.089.041-.154.13-.008.041-.024.065-.049.065-.057,0-.211.122-.48.366-.512.48-.878.715-1.081.715-.146,0-.22-.13-.22-.382a9.164,9.164,0,0,1,.35-1.8A6.725,6.725,0,0,0,15.3-1.822a2.643,2.643,0,0,0-.016-.268.411.411,0,0,0-.114-.309c-.073-.154-.13-.244-.179-.26a.5.5,0,0,0-.366-.138h-.1q-.122,0-.293.268a4.386,4.386,0,0,0-.488.569c-.715.911-1.22,1.569-1.52,1.992a7.53,7.53,0,0,1-.626.9q-.415.622-.537.781l.049-.154L11.4.682c.033-.081.122-.317.252-.707q1.366-3.805,1.984-5.634c.325-.911.488-1.39.488-1.447.358-.984.594-1.65.715-1.992.138-.455.228-.748.276-.87-.016-.1-.024-.187-.033-.26,0-.171-.089-.252-.268-.252a.668.668,0,0,1-.171.016A.121.121,0,0,1,14.576-10.481Zm-.732,3.033h.024l-.008.057h-.016Zm-.073.236c0-.073.008-.106.024-.106H13.8c0,.008-.008.049-.016.106Zm-.715,1.024h.016a.686.686,0,0,1-.016.154h-.016C13.039-6.058,13.047-6.115,13.055-6.188Zm-.106.366h.008v.008c-.016.1-.033.146-.057.146A.31.31,0,0,1,12.95-5.823ZM12.1-3.969c.016-.154.049-.236.089-.236l-.008.081a.412.412,0,0,0-.065.154Zm-.057.106h.033l.008.041v.008a.085.085,0,0,1-.057.081Zm-.341.976h.008c0,.016.008.024.008.033s0,.016-.016.016Zm-.008.073c.033.016.041.024.041.033v.008c-.016.041-.033.065-.041.065h-.033A.643.643,0,0,1,11.7-2.814Zm-.049.154h.016v.016h-.016ZM12.177.706a2,2,0,0,1,.171-.5c0-.041.407-.61,1.22-1.716l.114-.1a.788.788,0,0,1,.146-.211,1.914,1.914,0,0,1,.553-.569.384.384,0,0,1,.041.114.713.713,0,0,1-.13.2,1.8,1.8,0,0,1-.285.382.293.293,0,0,0-.122.163c0,.008-.431.569-1.285,1.7a3.036,3.036,0,0,1-.415.545Zm-.683-3.033c-.033,0-.049.033-.057.081l.016.008h.024c.008,0,.016-.024.024-.081C11.494-2.318,11.494-2.318,11.494-2.326Zm-.154.382c-.065,0-.106.081-.122.236v.057h.008a.511.511,0,0,0,.138-.26C11.356-1.912,11.348-1.92,11.34-1.944Zm.317.244h.057v.033h-.033q-.024-.012-.024-.024Zm-.74.911c0,.008-.008.033-.016.073l.041-.008V-.749L10.933-.79Zm7.09.26h-.016a.216.216,0,0,1-.179.089c.016.073.033.106.033.114a.158.158,0,0,0,.065-.008c.089,0,.154-.057.2-.179A.234.234,0,0,0,18.007-.53ZM17.844-.3c-.041.008-.065.016-.065.033v.008c.016.024.033.041.041.041s.024-.024.033-.065ZM17.722-.2q-.012,0-.024.073l.016.008a.076.076,0,0,0,.049-.065A.017.017,0,0,0,17.747-.2ZM14.56-.074a.036.036,0,0,1,.024.008V-.05a.089.089,0,0,1-.033.016V-.042Zm3.073.024c-.041,0-.057.024-.065.081a.008.008,0,0,1,.008.008A.1.1,0,0,0,17.633-.05Zm-6.96.008A.272.272,0,0,0,10.608.1a.008.008,0,0,1,.008.008c.065,0,.1-.041.1-.138V-.042ZM11.1.023c-.008,0-.016.008-.024.008a.686.686,0,0,1-.065.276V.381c-.057.041-.081.073-.081.089V.487h.016a.131.131,0,0,0,.073-.024,1.849,1.849,0,0,0,.122-.39V.064A.1.1,0,0,0,11.1.023Zm-.5.65c-.049,0-.081.065-.089.187,0,.008.016.016.041.033a.332.332,0,0,0,.073-.163V.7C10.608.682,10.608.674,10.6.674Zm.276.049a.145.145,0,0,0-.057.065c.016.033.041.057.057.057S10.9.8,10.9.739V.722ZM10.4.763V.8l.008.016L10.429.8,10.421.763Zm.122.154q-.049,0-.1.073V1a.131.131,0,0,0,.041.089c.016,0,.033-.049.065-.146A.036.036,0,0,1,10.527.918Zm1.366.016a.3.3,0,0,0,.065.008V.95l-.041.008H11.9A.063.063,0,0,0,11.893.934Zm1.976.163a.017.017,0,0,1,.016.016v.033h-.016Zm-3.415.016c-.049,0-.073.016-.073.041l.016.008h.041a.017.017,0,0,0,.016-.016Zm3.374.13a.062.062,0,0,1,.057-.065l-.008.073h-.049Zm-3.09-.065q-.024.012-.024.024v.033a.017.017,0,0,0,.016.016h.016q.024,0,.024-.049c0-.016,0-.024-.016-.024Zm-.325.049c-.041,0-.073.057-.089.179l.008.016c.008,0,.016-.008.024-.008a.31.31,0,0,0,.073-.122A.153.153,0,0,0,10.413,1.227Zm.22.114v.065l.008.041h-.008a.747.747,0,0,0-.13.22c0,.016.024.049.073.089H10.6c.008,0,.016-.041.033-.106l.081-.276c-.008-.024-.024-.033-.057-.033ZM16.08,1.4c.057,0,.081.016.081.033v.008a.325.325,0,0,1-.1.081l-.008-.041A.182.182,0,0,1,16.08,1.4Zm-1.919.341a.684.684,0,0,1,.041-.22h.008q0,.037-.024.22ZM10.21,1.552a.017.017,0,0,1,.016-.016h.033c0,.033-.008.049-.008.065H10.21Zm3.943.244h.024v.049l.008.073c-.016,0-.024-.024-.033-.057Zm-.033.236H14.2l-.008.041V2.1h-.008L14.129,2.1V2.072Zm-3.683.024q-.024.073-.073.073c-.041,0-.057.033-.057.106l.008.016.041-.008c.041,0,.073-.065.1-.187Zm-.374.106V2.17c0,.016-.008.041-.008.073l.024.049c.033,0,.049-.033.057-.089a.054.054,0,0,0-.033-.041Zm.3.179v.024l.008.016.016-.008-.008-.033Zm-.114.041c-.008,0-.016.024-.033.057a.008.008,0,0,1,.008.008c.049-.008.065-.016.065-.033S10.275,2.4,10.25,2.381Zm-.049.081q-.012,0-.024.049v.016a.017.017,0,0,0,.016.016h.081l.024-.016c0-.041-.008-.065-.024-.065Zm-.293.065h.008v.008l-.008.041H9.9V2.56A.081.081,0,0,0,9.909,2.527Zm.317.114c-.008,0-.024.049-.041.154L10.2,2.8c.016,0,.024-.049.033-.146Zm-.073.073q-.024,0-.024.049c0,.008,0,.016.016.016s.008-.008.008-.016Zm-.016.171c-.041,0-.065.016-.073.041v.033h.057c.008,0,.016,0,.016-.016Zm-.1.2a.267.267,0,0,0-.089.236l.008.041h.016c.057-.033.089-.114.089-.244ZM22.353-4.847c-.122.024-.187.041-.187.057a.71.71,0,0,0-.106-.041c-.057,0-.146.13-.26.4a3.985,3.985,0,0,0-.187.862q.024.293.2.293h.008q.22,0,.463-.415a2.71,2.71,0,0,0,.333-.789v-.024C22.613-4.627,22.531-4.733,22.353-4.847Zm-.675,2.008a.825.825,0,0,0-.325.106,1.18,1.18,0,0,0-.374.325,9.241,9.241,0,0,0-.667,1.22A8.444,8.444,0,0,0,19.491,1.6v.13a.808.808,0,0,0,.033.228,1.032,1.032,0,0,0,1.081.61,2.513,2.513,0,0,0,1.447-.61,5.032,5.032,0,0,0,.829-.732,2.459,2.459,0,0,0,.537-.594V.625a.062.062,0,0,0-.065.049,3.1,3.1,0,0,0-.39.382,2.762,2.762,0,0,0-.374.358,1.512,1.512,0,0,0-.236.187.988.988,0,0,1-.3.236.6.6,0,0,1-.3.154h-.008a.16.16,0,0,1,.033-.065q.22-.171.22-.268h-.008a.613.613,0,0,1-.244.106h-.016c.016-.016.016-.024.016-.033l.317-.252a1.312,1.312,0,0,0,.309-.252c.114-.065.171-.122.171-.187h-.033V.991h.024a.32.32,0,0,1,.049.016c.122-.041.179-.073.179-.106,0-.016,0-.024-.016-.024H22.71c0,.024-.033.057-.1.089H22.6L22.588.909a.171.171,0,0,1,.049-.065V.836H22.6a.593.593,0,0,1-.154.1,2.892,2.892,0,0,0-.366.317c-.041.033-.285.211-.748.528a2.163,2.163,0,0,0-.415.187A.8.8,0,0,1,20.71,2l-.13.065A.725.725,0,0,1,20.4,2.04c-.024,0-.041-.065-.041-.2a7.037,7.037,0,0,1,.634-2.52,2.963,2.963,0,0,1,.423-.707h.008c.016.081.024.122.024.13a.86.86,0,0,0-.057.179.063.063,0,0,0,.008.024.377.377,0,0,0,.1-.089,8.839,8.839,0,0,0,.309-.984.949.949,0,0,0,.138-.382c0-.22-.081-.325-.244-.325ZM20.247-.578h.024q0,.049-.024.049Zm.4.065c.016-.024.033-.033.041-.033l-.008.041Zm-.114.008h.008v.024h-.008Zm3.512.057v.033c0,.016,0,.016.016.016s.008,0,.008-.016V-.432c0-.008,0-.008-.008-.016Zm-3.569.309a1.256,1.256,0,0,1,.163-.285h.008l.016.057a.6.6,0,0,1-.016.1.4.4,0,0,1-.089.22C20.539-.05,20.515-.082,20.474-.139ZM20.328-.18c.065-.146.1-.228.122-.236l.024.1c-.016.1-.057.146-.138.146C20.336-.18,20.336-.18,20.328-.18Zm3.594-.2-.057.049.008.016a.054.054,0,0,0,.057-.033V-.375Zm.041.033a.017.017,0,0,0-.016.016V-.31c0,.008,0,.016.016.016l.033-.024q-.012-.024-.024-.024Zm-3.724.13a.121.121,0,0,1,.049-.106.143.143,0,0,1-.049.122Zm3.6-.024C23.816-.221,23.8-.2,23.8-.2s.016.016.049.033a.141.141,0,0,1,.057-.024V-.2c0-.008-.016-.024-.049-.041Zm-.268.057a3.144,3.144,0,0,0-.431.439V.267a.03.03,0,0,0,.024-.008c.179-.179.317-.325.407-.431Zm.39.008c-.016,0-.024,0-.024.016v.008l.008.016c.024-.008.041-.016.041-.024V-.164C23.979-.164,23.97-.172,23.962-.172Zm-.22.049V-.1a.075.075,0,0,0,.057.073q.049,0,.049-.024l-.081-.073Zm-3.415.106a.043.043,0,0,1,.049-.049h.008C20.385-.034,20.369-.017,20.328-.017Zm3.35-.016c-.016.016-.033.041-.057.065L23.678.1,23.735.08V.056Zm-3.52.024A.2.2,0,0,1,20.2.048a.487.487,0,0,1-.073.2Q20.1.231,20.1.218V.21a.178.178,0,0,0,.041-.1.088.088,0,0,1-.016-.057A.442.442,0,0,0,20.157-.009Zm-.008.8A2.05,2.05,0,0,0,20.4.153c0-.089.041-.138.13-.138,0,.008,0,.008.016.008V.1c-.089.317-.146.528-.171.642a.221.221,0,0,1-.089.041l.049.138c-.057.244-.089.382-.1.423H20.23V1.332c0-.236-.008-.407-.008-.528V.779L20.214.763a.126.126,0,0,0-.049.024ZM20.32.08a.049.049,0,0,1,.024-.049l.008.041V.08L20.336.1c-.008,0-.016,0-.016-.016Zm3.187.041V.137c0,.008,0,.016.016.016V.121Zm.13.057C23.6.186,23.58.194,23.58.21V.243h.008l.057-.049ZM20.165.43a.084.084,0,0,0,.057-.041c.024-.122.057-.179.081-.179a.787.787,0,0,1-.089.317A.141.141,0,0,0,20.165.43ZM23.54.275V.283L23.548.3,23.58.292V.275ZM20.068.308h.008L20.1.43a.893.893,0,0,0-.065.211h-.041C20.043.438,20.068.324,20.068.308Zm3.2.057c-.024.016-.041.033-.041.041s.024.016.057.024c.008,0,.024-.008.057-.033-.008-.024-.024-.033-.057-.033Zm.211,0c-.065.016-.1.041-.1.065a.008.008,0,0,1,.008.008c.057-.016.089-.041.089-.065ZM23,.422c-.008,0-.016,0-.016.008V.446H23c0-.008,0-.016.016-.024Zm.561.024-.106.122V.584h.008A.521.521,0,0,0,23.58.462V.446Zm-.252.041L23.288.5c.008.033.016.041.024.041h.024q.024-.012.024-.024V.5c0-.008-.008-.008-.016-.016Zm-.447.049a.088.088,0,0,0-.033.041c.033,0,.057-.008.057-.024a.017.017,0,0,0-.016-.016Zm.187.016c-.016,0-.016.008-.016.016V.576l.008.016q.024-.012.024-.024A.017.017,0,0,0,23.052.552Zm.22.041c-.057,0-.106.041-.163.114V.714a.224.224,0,0,0,.163-.106Zm-.358.1c-.008,0-.024.016-.033.041V.739H22.9a.07.07,0,0,1,.049-.024V.7C22.93.7,22.922.7,22.914.69ZM19.954.714h.008V.755h-.008Zm3.13.024V.763h.008V.739Zm-.13.106-.008.016V.9h.024C22.987.885,23,.877,23,.869V.853ZM20.1.877h.008c.008,0,.016,0,.016.016H20.1ZM19.694.95c0-.024.016-.041.057-.057V.934a.531.531,0,0,1-.016.089h-.016Zm3.22-.024c-.024.016-.033.024-.033.033h.008c.024-.008.033-.024.033-.033Zm-.171.154q-.073.049-.073.073l.008.016c.049-.016.073-.033.073-.041V1.1Zm-.39.325q-.024.012-.024.024v.016c0,.016.008.016.016.016h.008l.016-.008A.32.32,0,0,0,22.353,1.405Zm-.089.081a.084.084,0,0,0-.041.057v.008c.049-.008.065-.016.065-.033V1.487Zm-2.171.455H20.1v.033h-.008Zm1.561.081H21.7a.06.06,0,0,1-.065.065A.109.109,0,0,0,21.653,2.023Zm5.321.6a1.883,1.883,0,0,0,.244-.024,2.469,2.469,0,0,0,1.138-.594,1.9,1.9,0,0,0,.447-.431h.016v.033h.008a.149.149,0,0,0,.049-.065l-.073.024a1.411,1.411,0,0,1-.382.268L28.4,1.771a.084.084,0,0,0,.008-.033c.138-.114.374-.341.715-.683A3.928,3.928,0,0,0,29.8.17a2.362,2.362,0,0,0,.382-.878l-.016-.1h-.024a4.029,4.029,0,0,1-.3.585l.024.049L29.91-.18v.008c-.033.057-.057.089-.065.089,0-.016,0-.024-.016-.024a.99.99,0,0,1-.138.13.822.822,0,0,1-.179.39V.43h.016a.217.217,0,0,1-.089.106.127.127,0,0,1-.106.089L29.422.4,29.414.389a.154.154,0,0,0-.138.1,1.057,1.057,0,0,1-.431.472,4.478,4.478,0,0,1-.577.528,2.126,2.126,0,0,1-1.187.594c-.317-.033-.48-.252-.48-.675a6.047,6.047,0,0,1,.211-1.35,2.1,2.1,0,0,1,.447-.911,33.981,33.981,0,0,0,2.293-4.309,15.719,15.719,0,0,0,1.577-5.065.319.319,0,0,0-.024-.114l-.22-.081c-.163-.179-.285-.26-.366-.26h-.057a1.046,1.046,0,0,0-.659.317,3.492,3.492,0,0,0-.707,1.1c-.594,1.431-1.008,2.464-1.22,3.09q-.927,2.6-.927,2.781v.138L26.91-3.27a1.868,1.868,0,0,1-.163.594.584.584,0,0,1-.106.341.963.963,0,0,1-.2.4.13.13,0,0,0,.033.1l-.008.024c-.049.033-.065.179-.065.439-.065.2-.114.4-.171.61a.986.986,0,0,1-.13.154l.065.024a.1.1,0,0,1-.033.073.406.406,0,0,0-.154.211,11.268,11.268,0,0,0-.22,1.634,4.17,4.17,0,0,0,.041.455.807.807,0,0,0,.163.439A1.282,1.282,0,0,0,26.975,2.625Zm1.2-5.447c.016-.049.423-.886,1.22-2.52a2.018,2.018,0,0,1,.171-.463,2.843,2.843,0,0,1,.228-.512A2.333,2.333,0,0,1,30-6.8a5.518,5.518,0,0,1,.228-.764,1.86,1.86,0,0,0,.171-.545,10.578,10.578,0,0,0,.309-1.024c.089-.667.163-1,.211-1a.548.548,0,0,1,.024.138,3.206,3.206,0,0,1-.024.325c-.106.545-.154.837-.154.87a.489.489,0,0,1-.114.317,1.632,1.632,0,0,1-.13.48,4.407,4.407,0,0,1-.268.764,15.083,15.083,0,0,1-.813,2c-.13.382-.244.594-.325.634a.061.061,0,0,0,.008.041l-.081.244a.376.376,0,0,1-.146.171,2.2,2.2,0,0,1-.341.707A1.847,1.847,0,0,1,28.17-2.822ZM27.7-2.9a1.213,1.213,0,0,1,.049-.211q.683-2.061,1.488-4.09a11.617,11.617,0,0,1,1.114-2.374,3.022,3.022,0,0,1-.114.52,2.935,2.935,0,0,0-.122.626,1.3,1.3,0,0,0-.154.545,2.01,2.01,0,0,1-.276.618,1.14,1.14,0,0,1-.114.423.564.564,0,0,1-.114.325c-.073.22-.122.333-.154.341-.089.26-.187.5-.285.724-.2.382-.35.7-.455.935a1.865,1.865,0,0,1-.3.594l-.276.594A1.548,1.548,0,0,1,27.7-2.9Zm2.073-6.317h-.008v-.041c0-.008.016-.024.057-.049v.049C29.82-9.245,29.8-9.237,29.771-9.213Zm-.22.35-.041-.008a2.023,2.023,0,0,1,.2-.285l.008.041q0,.049-.073.1A.471.471,0,0,1,29.552-8.863Zm-.228.48h-.016a.509.509,0,0,1,.187-.439H29.5A1.67,1.67,0,0,1,29.324-8.384Zm1.187-.382H30.5V-8.8h.008ZM26.145-.034a1.2,1.2,0,0,1,.041-.276q.122-.5.512-1.951c.366-1.122.626-1.878.781-2.252a4.09,4.09,0,0,1,.252-.715c.073-.236.2-.594.374-1.057a9.134,9.134,0,0,1,.642-1.447,1.182,1.182,0,0,1-.073.252c-.455,1.2-.732,1.9-.8,2.138a7.942,7.942,0,0,0-.5,1.488c.008,0,.033-.024.073-.065a2.11,2.11,0,0,0,.22-.642l-.008-.016.089-.171c.049-.154.106-.228.179-.228,0,.008-.049.2-.163.594a.008.008,0,0,1,.008.008.294.294,0,0,0,.073-.073,1,1,0,0,1,.1-.325.829.829,0,0,1,.057-.26c0-.016,0-.024-.016-.024L27.918-5l-.008-.057.008-.122a3.158,3.158,0,0,1,.22-.545c.016,0,.024.033.033.1a1.409,1.409,0,0,1-.081.317v.016c.024,0,.057-.041.106-.122a2.614,2.614,0,0,1,.106-.39.516.516,0,0,0-.1-.057.216.216,0,0,1,.065-.179.117.117,0,0,1,.049.057l-.073.073v.024q.037.049.049.049a.888.888,0,0,0,.171-.415.008.008,0,0,1-.008-.008.251.251,0,0,0-.065.016l.008.033a.066.066,0,0,1-.065.033.173.173,0,0,1,.106-.179c.008,0,.008,0,.008.008a.022.022,0,0,0-.024.024c.008.016.016.024.033.024s.024-.016.024-.049l-.008-.024c.049,0,.065-.057.065-.163,0-.008-.024-.024-.081-.049.008-.024.016-.041.024-.041.065-.179.106-.3.138-.366h.008l.024.154.033-.008a.673.673,0,0,0,.146-.341l-.041.008c-.016,0-.016-.016-.016-.065a.416.416,0,0,1,.171-.341.245.245,0,0,0-.033-.106.875.875,0,0,0,.138-.114l-.065.276H29a8.719,8.719,0,0,1,.512-1.057,17.2,17.2,0,0,1-.634,1.675,2.591,2.591,0,0,1-.187.553c-.114.35-.2.585-.244.715a3.779,3.779,0,0,0-.276.829,7.359,7.359,0,0,0-.285.707,5.972,5.972,0,0,1-.293.837,5,5,0,0,1-.764,1.846c.081-.325.122-.5.122-.52-.016,0-.041.024-.065.065a2.169,2.169,0,0,1-.138.439h-.008v-.016h-.008c-.057.1-.1.146-.114.146v-.016h-.008a.392.392,0,0,0-.065.1c.008,0,.008,0,.008.008l.041-.008.008.057a.141.141,0,0,1-.041.041c-.049,0-.106.1-.163.3a.352.352,0,0,1,.008.041.17.17,0,0,1,.057.138h-.008c-.008-.016-.024-.041-.049-.081H26.4C26.267-.261,26.186-.034,26.145-.034Zm2.927-7.838a.088.088,0,0,1-.033-.041.278.278,0,0,0,.073-.138c.065-.163.122-.244.171-.26a.567.567,0,0,1-.065.163A.637.637,0,0,1,29.072-7.871Zm-.114-.35v-.016a.044.044,0,0,1,.033-.024L29-8.237Zm-.171.431H28.78a.634.634,0,0,1,.114-.3l.016.008A1.174,1.174,0,0,1,28.788-7.79Zm.2.008c-.016,0-.016-.008-.024-.016v-.008A.352.352,0,0,0,29-7.8.017.017,0,0,1,28.983-7.782Zm-.293.772h-.008a.054.054,0,0,1-.033-.057.2.2,0,0,1,.041-.089.1.1,0,0,1,.033.089A.1.1,0,0,0,28.69-7.01Zm-.041.341.008-.049h-.008a.044.044,0,0,0-.024.033C28.625-6.676,28.633-6.668,28.649-6.668Zm-.089.081.024-.016c0-.024-.008-.041-.024-.041s-.024.016-.024.033S28.552-6.587,28.56-6.587Zm.951.138H29.5v-.024h.016Zm-.089.2h-.008v-.033h.008Zm-1.716,2c.024-.016.041-.033.041-.049l-.008-.016c-.024.024-.041.041-.041.049Zm.26.073v-.041h.008l.008.024C27.983-4.18,27.983-4.172,27.967-4.172Zm-.293.065.049-.041a.072.072,0,0,0-.041-.065l-.049.041A.072.072,0,0,0,27.674-4.107Zm-.122.3c.057,0,.089-.081.106-.252a.017.017,0,0,0-.016-.016h-.008c-.024,0-.057.089-.089.26A.008.008,0,0,1,27.552-3.806Zm.358-.154v-.033c.008,0,.008,0,.008.016S27.918-3.961,27.91-3.961Zm-.439.089c.016,0,.024-.008.033-.033h-.008c-.016.008-.033.024-.033.033Zm.382.041v-.041h.008l.008.033Zm-.594.285a.586.586,0,0,0,.106-.293h-.008c-.041,0-.081.1-.114.285Zm-.285,1.407c.033,0,.081-.1.154-.3l-.008-.016a.03.03,0,0,1,.008-.024,1.581,1.581,0,0,0,.13-.366,8.4,8.4,0,0,0,.268-.846h-.008c-.016,0-.057.073-.114.22a4.78,4.78,0,0,1-.26.715.246.246,0,0,0-.081.073c0,.041.016.057.049.057a.7.7,0,0,1-.065.228.269.269,0,0,0-.122-.033.4.4,0,0,0-.081.163c0,.016.016.033.057.041l.065-.008v.1Zm.26-1.276c0-.016.008-.024.024-.041,0-.016-.008-.016-.024-.016s-.016.016-.016.057Zm.106.049-.008-.049h-.008l-.049.033C27.275-3.367,27.292-3.367,27.34-3.367Zm-.2.22.033-.106h-.008c-.024.024-.041.033-.041.041v.065Zm.081.041.049-.033a.045.045,0,0,0-.033-.049c-.024.016-.033.024-.033.041S27.21-3.123,27.219-3.107Zm-.2.374a.748.748,0,0,0,.057-.236c-.016-.041-.033-.057-.057-.057a2.086,2.086,0,0,0-.057.276C26.966-2.741,26.991-2.733,27.023-2.733Zm.122-.138c.024-.016.041-.033.041-.049s-.016-.024-.016-.033h-.016c-.008,0-.024.008-.033.033A.07.07,0,0,0,27.145-2.871Zm.48.122.033-.081h.008v.049C27.666-2.765,27.649-2.757,27.625-2.749Zm-.5.081v-.041h.008l.008.033Zm-.2.187a.225.225,0,0,0,.041-.13c.008,0,.024.033.041.106a.121.121,0,0,0,.049-.057c-.049-.089-.073-.13-.081-.13l-.016.008c0-.008,0-.008-.008-.008s-.033.057-.057.154l.016.057Zm1.089-.073a.134.134,0,0,1,.065-.122A.127.127,0,0,1,28.023-2.554Zm-1.008.2h-.008v-.033h.016Zm-.008.057h-.033V-2.31h.049C27.023-2.294,27.023-2.294,27.007-2.294Zm-.179.252c.057,0,.089-.049.089-.13,0-.008-.016-.016-.041-.024-.057,0-.081.033-.081.106Zm-.1.106c.008,0,.033-.057.057-.179h-.016c-.041.033-.065.057-.065.1A.265.265,0,0,0,26.731-1.936Zm-.114.5.016-.008-.008-.106.033-.2c-.033,0-.065.106-.1.309l.016.008Zm-.561,1.26q-.012,0-.024-.049h.024Zm.463.033c-.008-.008-.016-.008-.041-.008A.5.5,0,0,1,26.519-.2Zm-.138.024h-.016V-.156h.008Zm.106.423a.452.452,0,0,1-.106-.089,1.136,1.136,0,0,1,.114-.276q.037.012.049.073c0,.065-.008.13-.008.2A.194.194,0,0,1,26.487.308Zm-.236-.13H26.2a1.1,1.1,0,0,1,.081-.228A.2.2,0,0,1,26.34.1C26.34.137,26.308.17,26.251.178ZM26.113.161A.017.017,0,0,1,26.1.145V.1c.008-.041.024-.065.033-.065l.008.049A.34.34,0,0,1,26.113.161Zm.122.187c0-.041.024-.057.065-.057A.058.058,0,0,1,26.235.348ZM26.04.6c-.016-.008-.033-.024-.033-.033L26.04.519a.281.281,0,0,0-.024-.1A.13.13,0,0,1,26.04.357c.041.024.057.049.057.073A.443.443,0,0,1,26.04.6Zm.309,1.081H26.34c-.033-.179-.049-.268-.049-.276-.024-.187-.033-.285-.049-.285a.088.088,0,0,0-.057.024h-.024a.738.738,0,0,0,.073-.187q.049,0,.122-.415L26.349.487c0-.073.049-.106.138-.106.016,0,.016.033.016.106l-.081.618a.5.5,0,0,1-.089.024v.016l.065.13ZM26.259.462c0-.016-.008-.024-.016-.024l.016-.049c.008,0,.016.016.033.049Zm.122.1A.017.017,0,0,0,26.4.544c0-.016-.008-.016-.016-.024h-.008V.544ZM26.2.9h-.008c0-.041-.024-.073-.073-.114a.112.112,0,0,0,.073-.041c.008-.122.024-.187.065-.187A.942.942,0,0,1,26.2.9Zm2.651.309-.033-.016A2.6,2.6,0,0,1,29.032.95c.13-.187.22-.285.285-.3a.334.334,0,0,1-.057.1A5.64,5.64,0,0,0,28.853,1.21ZM26.007,1h-.033L26,.657l.049.13Zm-.065.114V1.072h.008c0,.016,0,.024.008.033Zm.211.138h-.033l.008-.016c.008,0,.016.008.024.008Zm6.956,1.374a2.452,2.452,0,0,0,1.366-.585,5.811,5.811,0,0,0,.9-.8A3.688,3.688,0,0,0,36.532-.952c.089-.033.252-.073.48-.13a3.655,3.655,0,0,0,.951-.333q0-.012-.049-.024a.258.258,0,0,1-.187.073,1.72,1.72,0,0,1-.382.106.153.153,0,0,1-.065-.016q.159-.085.756-.317a.588.588,0,0,0,.3-.089q.293-.061.293-.1l-.1-.008-.016.041a.13.13,0,0,1-.065-.024.585.585,0,0,1-.211.065.262.262,0,0,1-.146.049l-.024-.016a1.125,1.125,0,0,1-.252.057.56.56,0,0,1-.106-.016c-.008,0-.016,0-.016.016,0,.065-.1.114-.293.138a1.454,1.454,0,0,1-.39.089.287.287,0,0,1-.114-.024l.008-.024a.138.138,0,0,0,.081-.049L36.979-1.5c-.1.008-.276.033-.537.081l-.057-.114a2.651,2.651,0,0,0-.52-.683,1.952,1.952,0,0,0-.748-.48l.016-.033q.22-.183.22-.293a.431.431,0,0,0-.089-.22.6.6,0,0,0-.431-.171h-.057a1.627,1.627,0,0,0-.992.537,6.573,6.573,0,0,0-.715.886,3.935,3.935,0,0,0-.748,1.61.112.112,0,0,0,.041.073.307.307,0,0,1-.089.26l-.016-.2h-.016l-.008.057a4.7,4.7,0,0,0-.268,1.342,1.34,1.34,0,0,0,.488,1.146A.906.906,0,0,0,33.109,2.625Zm-.22-3.951-.033-.008v-.049c0-.008.049-.1.138-.26a3.07,3.07,0,0,1,.528-.8c.154-.22.276-.358.382-.39a.236.236,0,0,0-.041.081c-.073.073-.341.439-.8,1.081A1.566,1.566,0,0,1,32.889-1.326Zm1.911-1.2h-.016v-.024h.008Zm.382,1.252a.933.933,0,0,1-.52-.13c-.146-.033-.22-.163-.22-.4,0-.171.033-.252.089-.252A.052.052,0,0,1,34.572-2h.016v-.033a.4.4,0,0,1,.008-.1c-.008,0-.024.008-.049.033-.008,0-.016-.008-.024-.033.057-.154.106-.228.163-.228l.008.057H34.7a.242.242,0,0,1,.114-.041c.154,0,.366.138.642.415a1.615,1.615,0,0,1,.407.6A4.778,4.778,0,0,1,35.182-1.269Zm-.528-.179a1.517,1.517,0,0,1-.073-.5h-.016a.638.638,0,0,0-.016.179.647.647,0,0,0,.016.211c.033,0,.065.033.073.106Zm4.1-.374c.089-.008.138-.033.138-.081,0-.008-.024-.024-.065-.033s-.073.041-.081.106Zm-.106-.008c.008,0,.016-.008.016-.024s-.008-.016-.016-.024-.016.008-.016.024S38.638-1.83,38.646-1.83Zm.065.049a.049.049,0,0,0,.049-.024L38.67-1.83a.017.017,0,0,0-.016.016C38.662-1.79,38.678-1.782,38.711-1.782Zm-1.39.228.016-.008a.017.017,0,0,0-.016-.016h-.033C37.3-1.562,37.3-1.554,37.321-1.554Zm-.122.041.024-.008v-.016l-.016-.024c-.024.008-.033.016-.033.041ZM33.133,2.015,32.889,2a2.49,2.49,0,0,1-.106-.585A2.82,2.82,0,0,1,33,.446a12.525,12.525,0,0,1,.5-1.276,5.172,5.172,0,0,1,.415-.715,1.112,1.112,0,0,0,.081.22,1.233,1.233,0,0,0,1.228.585,3.016,3.016,0,0,0,.6-.057,2.44,2.44,0,0,1-.48,1.024,5.019,5.019,0,0,0-.366.512A.008.008,0,0,1,35,.747l.073-.024a2.079,2.079,0,0,1,.22-.2c.057.008.081.024.081.049q.061,0,.1-.1A4.982,4.982,0,0,0,36.093-.83c0-.016.057-.033.154-.049h.008V-.83a4.532,4.532,0,0,1-.325.878c-.114.146-.2.276-.285.39-.089.081-.13.146-.13.211-.057.016-.081.033-.081.049l.057.033V.739a.032.032,0,0,0-.016.033L35.451.763c-.024,0-.033,0-.033.008-.081,0-.13.073-.154.228l-.1-.008a1.724,1.724,0,0,0-.114.171c-.065.033-.089.057-.089.089l.049.073a.317.317,0,0,0-.114-.016c-.187.1-.285.179-.285.244l.024.106a.209.209,0,0,0-.106-.073c-.016,0-.033.049-.057.154-.033-.024-.049-.041-.057-.041h-.1c.2-.22.3-.341.309-.358.089-.065.13-.114.13-.171-.024,0-.065.024-.122.081-.382.358-.659.537-.813.537A2.643,2.643,0,0,1,33.133,2.015ZM37.06-1.5v-.008l-.033-.008a.008.008,0,0,1-.008.008C37.02-1.5,37.036-1.5,37.06-1.5Zm.959.057.057-.008c0-.008,0-.016-.016-.024l-.049.016Zm-1.935.089h-.008l.008-.024Zm.4.016q.012-.024.024-.024Q36.5-1.335,36.483-1.335Zm-3.39.561V-.879c0-.008.016-.016.057-.041C33.15-.822,33.125-.774,33.093-.774Zm-.333.65h-.016a.585.585,0,0,0,.065-.22H32.9l-.008.057C32.873-.18,32.833-.123,32.759-.123ZM32.45.812a.126.126,0,0,0-.024-.049,1.479,1.479,0,0,1,.089-.341c.041-.2.073-.309.106-.309a.819.819,0,0,1,.016.154.063.063,0,0,0-.057.065c0,.008.008.033.016.089l-.033.114C32.564.69,32.524.779,32.45.812Zm.22-.3L32.678.43c.024.024.041.033.049.033V.479Zm.016.2A.2.2,0,0,1,32.58.682a.476.476,0,0,0,.106-.114Zm2.073.447a.288.288,0,0,0,.13-.049c.236-.2.358-.366.358-.512h-.008l-.114.138a.164.164,0,0,1-.163.138.322.322,0,0,1-.057-.041,1.115,1.115,0,0,0-.154.22ZM32.637.82V.755h.008L32.654.8C32.654.812,32.646.82,32.637.82Zm-.154.756a.4.4,0,0,1-.024-.1c.024-.2.041-.317.041-.35.033-.114.057-.187.057-.2L32.548.877a.34.34,0,0,1,.073-.024,1.385,1.385,0,0,1-.024.3C32.572,1.438,32.54,1.576,32.483,1.576Zm-.154.293a.62.62,0,0,1-.122-.431,2.446,2.446,0,0,1,.065-.5c.089,0,.13.041.13.114s-.024.309-.073.691c.008.057.016.089.033.089C32.353,1.853,32.337,1.869,32.328,1.869Zm2.236-.146c-.024-.008-.033-.016-.033-.033l.049.008A.03.03,0,0,1,34.6,1.69v.016C34.589,1.706,34.581,1.714,34.564,1.723ZM34.3,1.9V1.877c0-.041.024-.057.081-.057A.073.073,0,0,1,34.3,1.9ZM32.6,1.966h-.033l.008-.122H32.6Zm9.761-5.96a1.872,1.872,0,0,0-1.252.756,2.462,2.462,0,0,0-.7,1.52,1.364,1.364,0,0,0,.024.236l-.008.106.089.659a5.972,5.972,0,0,1,.146.667l-.024.211a.7.7,0,0,0,.089.285,8.943,8.943,0,0,1,.2.992c-.163.171-.374.366-.626.594a11.293,11.293,0,0,0-.878.846c-.52.553-.862.911-1.024,1.065a8.224,8.224,0,0,1-.618.659,3.909,3.909,0,0,0-1.4,2.439,1.174,1.174,0,0,0,.545.992,2.951,2.951,0,0,0,1.488.439h.057a3.7,3.7,0,0,0,2.073-.732,4.569,4.569,0,0,0,.74-.626,3.607,3.607,0,0,0,1-2.675V4.292a8.88,8.88,0,0,0-.423-2.529.03.03,0,0,1,.008-.024c.26-.22.594-.48,1-.772q1.622-1.183,3.016-2.13a.483.483,0,0,0-.008-.089c.024-.033.041-.049.073-.049.057.008.081.016.089.016h.016L46.1-1.44a1.214,1.214,0,0,1,.228-.187v-.008a.678.678,0,0,0-.2.065,1.019,1.019,0,0,1-.366.268,1.8,1.8,0,0,1-.5.325h-.008c0-.024.041-.065.1-.114V-1.1h-.057v-.024c.016,0,.016-.008.016-.008a.412.412,0,0,0,.146-.065.049.049,0,0,1,.049.024c.016,0,.024-.016.024-.041a.238.238,0,0,0,.065-.154q.146-.073.146-.122a2.912,2.912,0,0,1,.431-.341v-.016c-.041,0-.114.049-.236.138l-.447.276c-.114.016-.187.033-.22.041-.341.228-.756.5-1.236.813A24.614,24.614,0,0,1,41.552.909,4.768,4.768,0,0,1,41.243-.7a2.416,2.416,0,0,1,.919-2.033.3.3,0,0,1,.024.089v.008a.268.268,0,0,0-.057.106c.008,0,.008,0,.008.008a.32.32,0,0,0,.049-.016c.057-.016.179-.236.358-.659a4.6,4.6,0,0,1,.065-.594C42.609-3.928,42.528-3.993,42.357-3.993ZM40.837-2c.008,0,.016,0,.016.016v.016c0,.016-.008.016-.016.016Zm-.122.35c.008-.041.016-.065.024-.065A.822.822,0,0,1,40.8-1.9a.017.017,0,0,1,.016.016v.033c-.041.252-.073.374-.106.374a.137.137,0,0,1,.016-.041A1.131,1.131,0,0,0,40.715-1.652Zm5.041.016c-.008,0-.008,0-.008.016l.008.016c.008,0,.008-.008.008-.016Zm.171.081-.057.033a.017.017,0,0,0,.016.016h.008c.008,0,.016-.016.041-.033Zm-5.472.065c.008,0,.024.008.057.016l-.008.041A.121.121,0,0,1,40.455-1.489Zm5.765.057c-.041.016-.057.024-.057.033s0,.016.016.016c.024-.016.041-.033.041-.041Zm-.553.065-.049.016v.024h.016c.016-.008.033-.024.033-.033Zm-.26.13a.268.268,0,0,0,.122-.081v.008a.226.226,0,0,1-.122.106Zm-4.61.179c.008-.057.024-.081.041-.081a1.917,1.917,0,0,0,.041.333,3.358,3.358,0,0,1,.106.528A2.476,2.476,0,0,1,41.195.4l-.008.1a.175.175,0,0,0,.1.171c.008.024.024.146.057.35v.016a.154.154,0,0,1-.106.138L41.2,1.145c0-.073-.033-.114-.1-.114-.008.008-.024.008-.049.008,0,.041-.016.065-.065.089-.016-.024-.033-.041-.033-.065V1.048c.008-.016.057-.041.154-.073-.057-.146-.089-.22-.106-.22H41a.108.108,0,0,0-.057.024c-.033-.016-.049-.024-.049-.033a.513.513,0,0,0,.122-.268q.073-.049.073-.073a.819.819,0,0,0-.1-.333c0-.049-.033-.081-.106-.081h-.024a.017.017,0,0,0-.016.016V.113A.4.4,0,0,0,40.853.2a1.414,1.414,0,0,1,.106.26h-.008c-.114,0-.187-.089-.22-.285a.831.831,0,0,1,.024-.089V.08A.177.177,0,0,0,40.723,0c.171-.049.252-.106.252-.171s-.024-.1-.041-.1A.974.974,0,0,1,40.869-.5c-.033-.008-.041-.041-.041-.106V-.782A1.061,1.061,0,0,0,40.8-1.058Zm4.3.024h.024q.1,0,.1.073c0,.081.016.114.057.114a2.986,2.986,0,0,1-.618.4H44.65V-.456a3.847,3.847,0,0,0,.439-.374V-.847h-.008a2.046,2.046,0,0,1-.3.163A.366.366,0,0,1,44.8-.749c.114-.065.163-.114.163-.163V-.961a.078.078,0,0,1,.073.049.117.117,0,0,0,.065-.106Zm.374.016H45.5C45.5-1,45.487-1,45.479-1h-.016v-.008Zm-4.789.626H40.7c.008,0,.016.033.033.089,0,.016-.016.033-.041.041V-.294Zm2.594.4h.008L43.26.04a7.766,7.766,0,0,1-1.244,1.016c-.1.114-.179.171-.228.171h-.033c-.016-.008-.024-.024-.024-.065V1.153A.655.655,0,0,1,41.8,1c-.016-.008-.016-.016-.016-.024V.942c0-.024.008-.041.033-.041a1.411,1.411,0,0,1,.146.008c.049-.016.065-.033.065-.049a.191.191,0,0,1,.171-.1V.755c0-.008-.016-.024-.057-.041l.008-.041h.041C42.878.259,43.235.04,43.276.007ZM42.4,1.121a.092.092,0,0,1,.073-.081c.041.008.057.016.057.033V1.08a.148.148,0,0,1-.13.065Zm-.3.033a.017.017,0,0,1,.016-.016l.041.008v.008a.03.03,0,0,0-.024.008Zm.179.073c0-.008,0-.016.016-.016a.017.017,0,0,1,.016.016v.008q-.012.024-.024.024h-.008Zm.049-.008h.016v.008h-.016Zm-.2.033c.049.008.073.024.073.065v.008a.3.3,0,0,1-.081-.049V1.267Zm-.789.236c.008-.041.016-.065.033-.065s.024.024.041.073c0,.008-.008.041-.016.089C41.373,1.584,41.357,1.552,41.341,1.487Zm-3.9,4.179a2.487,2.487,0,0,1,.5-.756,6.85,6.85,0,0,0,.585-.707,1.555,1.555,0,0,0,.276-.366,1.669,1.669,0,0,1,.39-.407,4.249,4.249,0,0,0,.455-.52,3.863,3.863,0,0,1,.455-.423c.431-.52.707-.781.837-.781.057.008.081.033.081.081V1.82a.122.122,0,0,1-.016.081.618.618,0,0,1-.2.325c-.065,0-.293.228-.7.691-.106.041-.154.073-.154.089a1.555,1.555,0,0,1-.455.415c-.065,0-.13.081-.2.252l-.317.374-.634.691A7.349,7.349,0,0,1,37.438,5.666ZM41.487,2.1a1.216,1.216,0,0,1,.146.236v.008a.6.6,0,0,1-.1.073.325.325,0,0,1,.057.114v.041a.03.03,0,0,0-.024.008l.033.236v.016l-.008.1a.58.58,0,0,0-.114-.049.1.1,0,0,1-.049.073h-.016a.259.259,0,0,1-.081-.122l-.041.033h-.024V2.812a.167.167,0,0,1,.154-.1h.033l.008.041v.008l-.024.033v.033c.008.008.016.016.024.016h.065l.016-.008a.157.157,0,0,0-.024-.081,1.6,1.6,0,0,0-.089-.512h-.024c-.041.106-.1.163-.187.163V2.4l.008-.041a.2.2,0,0,0,.122-.049A.692.692,0,0,1,41.487,2.1Zm-.13.309h.057a.03.03,0,0,0,.008.024v.016l-.016-.008H41.4a.66.66,0,0,0,.041.114v.008c-.073,0-.106-.024-.106-.073V2.487A.34.34,0,0,1,41.357,2.414Zm-.764.285c.146-.171.268-.252.358-.252h.033a.11.11,0,0,1,.1.073l.081.553c-.008.073-.016.13-.016.179a.791.791,0,0,0,.049.122c-.024.415-.033.65-.033.715,0,.033.008.1.016.2a.611.611,0,0,1-.057.228,3.844,3.844,0,0,1-.146.789,3.517,3.517,0,0,1-.285.691,4.759,4.759,0,0,1-1.463,1.594,3.541,3.541,0,0,1-1.236.382h-.024l-.016.008a.008.008,0,0,0-.008-.008H37.9c-.033,0-.073-.008-.106-.008a.451.451,0,0,1-.374-.5V7.438A3.772,3.772,0,0,1,38.1,5.7c.415-.52.813-.984,1.2-1.407a8.314,8.314,0,0,0,.724-.8c.154-.13.236-.211.236-.244V3.243a.375.375,0,0,1-.106-.138l.228-.2A.141.141,0,0,1,40.422,3a.186.186,0,0,0-.122.163l.008.016c.033,0,.114-.073.228-.228q-.012-.024-.024-.024h-.024l-.016.008L40.455,2.9V2.893h.033c.122,0,.2-.033.228-.106.146-.106.22-.179.22-.211a.049.049,0,0,0-.024-.049l-.041.008c-.106.122-.171.179-.2.179H40.65Zm-.163.089.049-.016.016.008c0,.041-.008.057-.033.057L40.43,2.8Zm.846.114.057.008h.016c0,.008-.016.057-.049.163.016.065.033.1.057.1h.008c.016,0,.041-.049.065-.154h.008a.747.747,0,0,1,.049.268V3.3l-.008.049-.041-.033c-.1-.024-.146-.065-.146-.106a.319.319,0,0,0,.016-.049l-.073-.073.049-.065V3.007a.116.116,0,0,0-.016-.049Zm.236.163c.041-.041.065-.065.073-.065a.477.477,0,0,1,.1.171c-.041.163-.065.244-.065.26a.536.536,0,0,0,.073.211,1.1,1.1,0,0,1-.008.146c.008.114.008.187.008.228a.245.245,0,0,1-.033.106c-.008,0-.016-.016-.041-.041-.024-.138-.041-.211-.057-.211h-.008a.162.162,0,0,1-.016.065,1.639,1.639,0,0,1,.008.187v.016c0,.041-.049.073-.146.089.008.057.016.089.016.106h.016V4.3a.1.1,0,0,1,.033-.065c.033,0,.049.065.057.2v.089a.77.77,0,0,1-.033.244.51.51,0,0,1-.106-.2.191.191,0,0,0,.057-.106V4.454c-.114-.057-.179-.1-.179-.13a.3.3,0,0,1,.13-.2.3.3,0,0,0,.073-.236q0-.049-.024-.049h-.057c-.016,0-.016.008-.016.016V3.91h-.008q-.024,0-.024-.049l.008-.016c.089-.016.13-.033.13-.049V3.69l.033.024c0,.065.024.089.073.089.016,0,.024-.024.033-.089,0-.016-.016-.138-.041-.358a.164.164,0,0,1,.024-.089c-.049-.114-.081-.171-.081-.179ZM40.1,3.178c.033,0,.065.024.089.073v.008H40.17q-.049,0-.073-.073Zm-.252.276c.008-.041.024-.065.033-.065h.057c0,.049-.033.065-.081.065Zm1.463-.008h.008c.041.033.065.065.065.081l-.016.049a.078.078,0,0,1-.081-.057A.34.34,0,0,1,41.308,3.446Zm-1.634.236c0-.033.024-.065.081-.1v.008c-.041.057-.065.089-.073.089ZM41.43,4.836a.251.251,0,0,1,.065.016l-.008.057v.122c-.008.024-.024.041-.033.041h-.008a.638.638,0,0,1-.016-.114ZM40.04,7.17H40.1l-.033.041C40.056,7.211,40.048,7.2,40.04,7.17Zm-1.122.683a.454.454,0,0,1,.3-.146h.008v.016c0,.057-.106.1-.309.138Zm9.655-5.228a2.452,2.452,0,0,0,1.366-.585,5.811,5.811,0,0,0,.9-.8A3.688,3.688,0,0,0,52-.952c.089-.033.252-.073.48-.13a3.655,3.655,0,0,0,.951-.333q0-.012-.049-.024a.258.258,0,0,1-.187.073,1.72,1.72,0,0,1-.382.106.153.153,0,0,1-.065-.016q.159-.085.756-.317a.588.588,0,0,0,.3-.089q.293-.061.293-.1L54-1.79l-.016.041a.13.13,0,0,1-.065-.024.585.585,0,0,1-.211.065.262.262,0,0,1-.146.049l-.024-.016a1.125,1.125,0,0,1-.252.057.56.56,0,0,1-.106-.016c-.008,0-.016,0-.016.016,0,.065-.1.114-.293.138a1.454,1.454,0,0,1-.39.089.287.287,0,0,1-.114-.024l.008-.024a.138.138,0,0,0,.081-.049L52.443-1.5c-.1.008-.276.033-.537.081l-.057-.114a2.651,2.651,0,0,0-.52-.683,1.952,1.952,0,0,0-.748-.48l.016-.033q.22-.183.22-.293a.431.431,0,0,0-.089-.22.6.6,0,0,0-.431-.171H50.24a1.627,1.627,0,0,0-.992.537,6.572,6.572,0,0,0-.715.886,3.935,3.935,0,0,0-.748,1.61.112.112,0,0,0,.041.073.307.307,0,0,1-.089.26l-.016-.2H47.7l-.008.057a4.7,4.7,0,0,0-.268,1.342,1.34,1.34,0,0,0,.488,1.146A.906.906,0,0,0,48.573,2.625Zm-.22-3.951-.033-.008v-.049c0-.008.049-.1.138-.26a3.07,3.07,0,0,1,.528-.8c.154-.22.276-.358.382-.39a.236.236,0,0,0-.041.081c-.073.073-.341.439-.8,1.081A1.566,1.566,0,0,1,48.353-1.326Zm1.911-1.2h-.016v-.024h.008Zm.382,1.252a.933.933,0,0,1-.52-.13c-.146-.033-.22-.163-.22-.4,0-.171.033-.252.089-.252A.052.052,0,0,1,50.036-2h.016v-.033a.4.4,0,0,1,.008-.1c-.008,0-.024.008-.049.033-.008,0-.016-.008-.024-.033.057-.154.106-.228.163-.228l.008.057h.008a.242.242,0,0,1,.114-.041c.154,0,.366.138.642.415a1.615,1.615,0,0,1,.407.6A4.778,4.778,0,0,1,50.646-1.269Zm-.528-.179a1.517,1.517,0,0,1-.073-.5h-.016a.638.638,0,0,0-.016.179.647.647,0,0,0,.016.211c.033,0,.065.033.073.106Zm4.1-.374c.089-.008.138-.033.138-.081,0-.008-.024-.024-.065-.033s-.073.041-.081.106ZM54.11-1.83c.008,0,.016-.008.016-.024s-.008-.016-.016-.024-.016.008-.016.024S54.1-1.83,54.11-1.83Zm.065.049a.049.049,0,0,0,.049-.024l-.089-.024a.017.017,0,0,0-.016.016C54.126-1.79,54.142-1.782,54.175-1.782Zm-1.39.228.016-.008a.017.017,0,0,0-.016-.016h-.033C52.76-1.562,52.768-1.554,52.784-1.554Zm-.122.041.024-.008v-.016l-.016-.024c-.024.008-.033.016-.033.041ZM48.6,2.015,48.353,2a2.49,2.49,0,0,1-.106-.585,2.82,2.82,0,0,1,.22-.968,12.525,12.525,0,0,1,.5-1.276,5.172,5.172,0,0,1,.415-.715,1.111,1.111,0,0,0,.081.22,1.233,1.233,0,0,0,1.228.585A3.016,3.016,0,0,0,51.3-.8a2.44,2.44,0,0,1-.48,1.024,5.02,5.02,0,0,0-.366.512.008.008,0,0,1,.008.008l.073-.024a2.079,2.079,0,0,1,.22-.2c.057.008.081.024.081.049q.061,0,.1-.1A4.982,4.982,0,0,0,51.557-.83c0-.016.057-.033.154-.049h.008V-.83a4.531,4.531,0,0,1-.325.878c-.114.146-.2.276-.285.39-.089.081-.13.146-.13.211C50.923.666,50.9.682,50.9.7l.057.033V.739a.032.032,0,0,0-.016.033L50.914.763c-.024,0-.033,0-.033.008-.081,0-.13.073-.154.228l-.1-.008a1.725,1.725,0,0,0-.114.171c-.065.033-.089.057-.089.089l.049.073a.317.317,0,0,0-.114-.016c-.187.1-.285.179-.285.244l.024.106A.209.209,0,0,0,50,1.584c-.016,0-.033.049-.057.154-.033-.024-.049-.041-.057-.041h-.1c.2-.22.3-.341.309-.358.089-.065.13-.114.13-.171-.024,0-.065.024-.122.081-.382.358-.659.537-.813.537A2.643,2.643,0,0,1,48.6,2.015ZM52.524-1.5v-.008l-.033-.008a.008.008,0,0,1-.008.008C52.484-1.5,52.5-1.5,52.524-1.5Zm.959.057.057-.008c0-.008,0-.016-.016-.024l-.049.016Zm-1.935.089h-.008l.008-.024Zm.4.016q.012-.024.024-.024Q51.959-1.335,51.947-1.335Zm-3.39.561V-.879c0-.008.016-.016.057-.041C48.614-.822,48.589-.774,48.557-.774Zm-.333.65h-.016a.585.585,0,0,0,.065-.22h.089l-.008.057C48.337-.18,48.3-.123,48.223-.123Zm-.309.935A.126.126,0,0,0,47.89.763a1.479,1.479,0,0,1,.089-.341c.041-.2.073-.309.106-.309A.819.819,0,0,1,48.1.267a.063.063,0,0,0-.057.065c0,.008.008.033.016.089l-.033.114C48.028.69,47.988.779,47.914.812Zm.22-.3L48.142.43c.024.024.041.033.049.033V.479Zm.016.2a.2.2,0,0,1-.106-.033A.476.476,0,0,0,48.15.568Zm2.073.447a.288.288,0,0,0,.13-.049c.236-.2.358-.366.358-.512H50.7l-.114.138a.164.164,0,0,1-.163.138A.322.322,0,0,1,50.37.836a1.115,1.115,0,0,0-.154.22ZM48.1.82V.755h.008L48.118.8C48.118.812,48.109.82,48.1.82Zm-.154.756a.4.4,0,0,1-.024-.1c.024-.2.041-.317.041-.35.033-.114.057-.187.057-.2L48.012.877a.34.34,0,0,1,.073-.024,1.385,1.385,0,0,1-.024.3C48.036,1.438,48,1.576,47.947,1.576Zm-.154.293a.62.62,0,0,1-.122-.431,2.446,2.446,0,0,1,.065-.5c.089,0,.13.041.13.114s-.024.309-.073.691c.008.057.016.089.033.089C47.817,1.853,47.8,1.869,47.792,1.869Zm2.236-.146C50,1.714,50,1.706,50,1.69l.049.008a.03.03,0,0,1,.024-.008v.016C50.053,1.706,50.045,1.714,50.028,1.723Zm-.26.179V1.877c0-.041.024-.057.081-.057A.073.073,0,0,1,49.768,1.9Zm-1.707.065h-.033l.008-.122h.024Zm9.777-5.561a.227.227,0,0,1-.081.008,1.127,1.127,0,0,0-.455.171A17.059,17.059,0,0,0,55.935-.587c-.447,1.236-.715,1.943-.789,2.122-.171.488-.341.919-.5,1.293-.106.268-.22.6-.341.984-.285.813-.472,1.4-.569,1.772-.179.911-.268,1.431-.268,1.553v.024c0,.268.22.4.65.4a.585.585,0,0,0,.179-.033.249.249,0,0,0,.1-.106,3.112,3.112,0,0,1,.2-.707c.244-.675.6-1.512,1.065-2.52.171-.317.317-.618.447-.894a2.876,2.876,0,0,1,.2-.447c.065.081.106.114.122.114,0,.041.163.081.5.13h.033a2.9,2.9,0,0,0,1.2-.748,13.153,13.153,0,0,0,1.1-1.024,10.029,10.029,0,0,0,1.024-1.35,3.885,3.885,0,0,1,1.61-.488.541.541,0,0,1,.374.114.51.51,0,0,1,.089.366v.008A.041.041,0,0,0,62.4.007q.122-.024.122-.22V-.269A.5.5,0,0,0,62.5-.416a.812.812,0,0,0-.862-.6h-.057a1.085,1.085,0,0,0-.285.024.045.045,0,0,0,.016.041c0,.016-.024.041-.065.073a.538.538,0,0,1,.008-.089.036.036,0,0,1-.008-.024,3.411,3.411,0,0,0-.48.138h-.008A3.471,3.471,0,0,0,61.2-2.221a1.147,1.147,0,0,0-.236-.715,1.185,1.185,0,0,0-.951-.472,1.018,1.018,0,0,0-.407.089,2.3,2.3,0,0,0-.691.561,10.517,10.517,0,0,0-.959,1.35c-.138.26-.244.455-.333.594q0,.049-.561,1.122a6.357,6.357,0,0,1-.317.618,2.122,2.122,0,0,1-.309.537,4.46,4.46,0,0,1-.472.935,2.028,2.028,0,0,1-.3.577V2.958c.22-.659.561-1.569,1.016-2.724a18.941,18.941,0,0,1,1.2-2.716,2.321,2.321,0,0,0,.4-.781v-.057a.175.175,0,0,0-.049-.106A.6.6,0,0,0,57.837-3.595Zm1.7.48q.012-.024.024-.024h.016c-.016.024-.033.041-.041.041Zm-.309.228V-2.9a.454.454,0,0,1,.26-.179H59.5v.008c-.106.13-.2.187-.26.187Zm-.179.537c.041,0,.081-.033.122-.106.358-.407.65-.6.886-.6a.315.315,0,0,1,.268.089v.114a.884.884,0,0,1,.114.374v.228A4.284,4.284,0,0,1,60-1.115a6.977,6.977,0,0,0-.4.585c-.122.2-.228.317-.3.341-.024.016-.13.065-.309.146a1.724,1.724,0,0,0-.309.2,7.068,7.068,0,0,0-.65.415,9.433,9.433,0,0,0-.984.8,2.373,2.373,0,0,0,.163-.341c.138-.317.228-.5.26-.561.049-.089.2-.35.431-.789.163-.341.252-.537.26-.577a1.311,1.311,0,0,0,.2-.333,3.832,3.832,0,0,0,.22-.415.912.912,0,0,0,.138-.187,2.247,2.247,0,0,0,.2-.309c.049-.041.081-.073.081-.106q-.012-.024-.024-.024c-.033,0-.041.008-.041.016a.264.264,0,0,1-.138.146.976.976,0,0,1-.22.293.521.521,0,0,1-.138.228.992.992,0,0,1-.187.317,7.181,7.181,0,0,1-.415.789.213.213,0,0,1-.089.2A2.432,2.432,0,0,0,57.5.21a.627.627,0,0,0-.138.276,1.612,1.612,0,0,0-.2.382,3.332,3.332,0,0,1-.309.577.83.83,0,0,1-.244.358L57.228.592a.528.528,0,0,1,.106-.22c.244-.447.39-.748.455-.9.228-.439.366-.683.4-.724a.694.694,0,0,1,.187-.285,2.177,2.177,0,0,1,.244-.447.974.974,0,0,0,.244-.3c.146-.171.244-.252.268-.252v.008a.061.061,0,0,1-.008.033.363.363,0,0,0-.081.122v.024ZM55.171,4.593l.033-.179.179-.4a7.317,7.317,0,0,0,.447-.9,1,1,0,0,1,.154-.382,1.052,1.052,0,0,1,.187-.5,1.183,1.183,0,0,1,.138-.3,1.975,1.975,0,0,1,.244-.431A5.544,5.544,0,0,1,56.9.844,1.874,1.874,0,0,1,57.073.47,4.162,4.162,0,0,1,57.285.04a1.369,1.369,0,0,1,.22-.4A4.421,4.421,0,0,1,57.789-.9l.276-.545a.215.215,0,0,0,.114-.171,1.38,1.38,0,0,0,.146-.252c.1-.114.2-.236.293-.374q0-.11.244-.293.293-.317.341-.317,0,.061-.1.146a1.813,1.813,0,0,1-.244.244.946.946,0,0,1-.211.293L58.2-1.44c-.106.211-.154.325-.163.333-.057.081-.22.407-.5.959a1.373,1.373,0,0,0-.22.39c-.057.106-.163.3-.309.6-.114.268-.187.407-.211.407a.657.657,0,0,1-.13.236,2.976,2.976,0,0,1-.187.407,1.471,1.471,0,0,0-.26.569l.008.016-.008.008v.081h-.008V2.552H56.2l-.008.041H56.2l.024-.016.016.106L56.2,2.7a.1.1,0,0,1-.016-.024.03.03,0,0,0,.008-.024l-.008-.041h-.024a.387.387,0,0,1-.122.154l-.13.276a4.021,4.021,0,0,0-.171.4c-.081.171-.154.341-.211.5a2.042,2.042,0,0,0-.26.48A.442.442,0,0,1,55.171,4.593Zm3.838-6.927v.024h.008l.016-.008c0-.008,0-.016-.016-.016Zm1.8.659c.008,0,.016.008.024.033a.36.36,0,0,1-.081.2v-.024C60.781-1.595,60.805-1.66,60.805-1.676ZM60.642-.53h.008c0-.016.033-.033.089-.065a6.566,6.566,0,0,1,.894-.285h.033a.594.594,0,0,1,.561.228v.008a.08.08,0,0,0-.049-.016,2.9,2.9,0,0,0-.374-.171h-.024l-.049.008c-.033.041-.057.057-.065.057a1.438,1.438,0,0,1-.187.033L61.447-.8a.2.2,0,0,0-.065.008,1.067,1.067,0,0,0-.285.179h-.024a.191.191,0,0,1-.065-.016L61-.611V-.57c-.008,0-.016,0-.016.008a1.258,1.258,0,0,0-.325.081A.089.089,0,0,0,60.626-.5a.22.22,0,0,0-.065.024h-.008a.159.159,0,0,0,.041-.073A.06.06,0,0,1,60.642-.53Zm.049-.187c0-.024.033-.049.089-.065L60.9-.839h.016c.016.016.024.024.024.033a.207.207,0,0,1-.057.016.522.522,0,0,1-.187.073Zm.675.008q.012-.024.024-.024h.016v.008c0,.016-.016.024-.041.024Zm-.553,0h.008v.016h-.008Zm-4.22.228q0-.049.1-.049l.016.033c-.008.033-.024.041-.057.041A.212.212,0,0,1,56.594-.481ZM55.967.958l.016-.041a.446.446,0,0,0,.106-.26L56.366.04c.106-.3.2-.455.26-.455a.063.063,0,0,0,.024.008v.033l-.081.049a.126.126,0,0,1,.024.049.64.64,0,0,0-.033.179.121.121,0,0,0-.106.049V.015A.075.075,0,0,1,56.4.088a.412.412,0,0,1,.016.073V.17a.049.049,0,0,1-.024.049c-.057.163-.106.3-.146.407L56.1.836l.016.073a2.543,2.543,0,0,1-.122.3c-.024,0-.033,0-.041-.008,0,.008,0,.008-.008.008.016.081.033.13.033.146l-.008.033c-.049,0-.1.114-.154.325l.008.016.041-.008v.024a.353.353,0,0,1-.065.163l-.049-.033c-.016.016-.024.016-.024.024-.065.033-.1.049-.1.057v.008a.066.066,0,0,0,.033.065v.033a2.711,2.711,0,0,0-.163.488V2.56h.016a.438.438,0,0,1,.073-.138h.008V2.43a6.407,6.407,0,0,1-.39,1.1,10.885,10.885,0,0,1-.569,1.52c-.057,0-.089.049-.114.154a.548.548,0,0,1-.163.309c-.033.1-.057.146-.089.146H54.26l.008-.041a.326.326,0,0,0,.065-.163c.073-.236.122-.39.13-.447,0-.016-.008-.024-.016-.024h-.008c-.041.024-.065.049-.065.081a1.328,1.328,0,0,0-.089.211V5.4a.088.088,0,0,1-.024.057c-.033.033-.057.057-.057.081V5.56a1.265,1.265,0,0,1-.008.163,2.232,2.232,0,0,0-.081.293,3.022,3.022,0,0,0-.2.61.522.522,0,0,1,.041.089c-.049.285-.089.423-.122.423h-.016L53.8,7.129c.033-.041.049-.057.049-.073a.56.56,0,0,0-.016-.146c.016-.122.024-.2.024-.236a6.655,6.655,0,0,1,.22-.968,1.186,1.186,0,0,1,.13-.463.921.921,0,0,1,.1-.317,9.3,9.3,0,0,1,.309-.943c.024-.114.057-.179.081-.179a4.132,4.132,0,0,1,.244-.667.927.927,0,0,1,.114-.333,2.476,2.476,0,0,1,.122-.293,2.78,2.78,0,0,1,.22-.61.171.171,0,0,1,.049.065h.024A.22.22,0,0,1,55.5,1.9a.246.246,0,0,0-.049-.073V1.82a.878.878,0,0,0,.065-.211q.1-.049.1-.1V1.438a.218.218,0,0,1,.033-.106.7.7,0,0,1,.041-.154.142.142,0,0,0,.114-.154,4.062,4.062,0,0,1,.146-.5c.041-.033.065-.065.065-.089V.414a.053.053,0,0,1,.041.016l.016-.008a.063.063,0,0,1,.024.008A.925.925,0,0,1,55.967.8a.671.671,0,0,1-.122.285v.033c.016.024.024.033.033.033H55.9a.444.444,0,0,0,.073-.106C55.976,1.023,55.967,1,55.967.958ZM59.122.064A.03.03,0,0,0,59.13.04c0-.016.049-.057.146-.106h.008a.67.67,0,0,1-.114.138h-.033Zm-.106.065.057-.073h.033V.064c0,.041-.024.065-.081.073h-.008Zm-2.846,0c.016,0,.016.008.016.016V.153L56.179.17,56.163.161Zm2.74.008.081.008V.153a.28.28,0,0,1-.13.089V.21A.1.1,0,0,0,58.911.137ZM58.748.3c0-.033.024-.049.065-.057V.292c-.008,0-.016,0-.033.016h-.016Zm.87.008q.024.012.024.024V.34a.03.03,0,0,0-.024.008H59.61A.061.061,0,0,0,59.618.308Zm-.756.106h.033V.43h-.016c-.008,0-.016,0-.016-.008ZM56.431.43c.008,0,.016,0,.016.008V.479c0,.008-.008.016-.033.024V.479Zm3.025.114c0-.016,0-.024.016-.024H59.5V.56l-.033.008A.036.036,0,0,1,59.455.544Zm-.431.512c.016,0,.016.008.016.016V1.08c0,.008-.008.016-.033.024H59A.126.126,0,0,0,59.025,1.056ZM56.862,2.349a1.85,1.85,0,0,1,.171-.244,9.58,9.58,0,0,1,1.293-1,2.3,2.3,0,0,0-.317.317,3.351,3.351,0,0,0-.423.374,2.146,2.146,0,0,0-.236.171,3.786,3.786,0,0,1-.48.382Zm-.886-1.211v.016h.016V1.137Zm2.838.163h.008v.008c0,.049-.041.089-.114.13h-.016l.024-.049C58.781,1.34,58.813,1.308,58.813,1.3Zm-2.992.016q-.012,0-.024.049v.008h.016a.017.017,0,0,0,.016-.016V1.316Zm.122.163q.024.012.024.024v.016a.325.325,0,0,1-.081.146h-.008A.86.86,0,0,1,55.943,1.479Zm2.585.089c0-.024.041-.049.106-.081h.008c0,.008,0,.008-.008.008,0,.065-.033.1-.1.122h-.008Zm-2.707-.073a.088.088,0,0,0-.033.041c.008.024.008.033.024.033h.008c.008,0,.016-.008.024-.033l-.008-.041Zm-.423.024a.03.03,0,0,0,.024.008.489.489,0,0,1-.1.2l-.016-.008C55.358,1.625,55.382,1.56,55.4,1.519Zm-.114.252H55.3V1.8h-.008a.03.03,0,0,0-.008-.024Zm.5-.008c-.016.008-.033.024-.033.033v.016l.016.024c.024-.008.033-.016.033-.024V1.779A.017.017,0,0,0,55.789,1.763Zm-.561.114c0-.041.024-.065.073-.065V1.82a.086.086,0,0,1-.065.089h-.008Zm2.772,0a.083.083,0,0,1,.049-.041h.016c0,.008-.024.024-.057.041Zm.057.146.008-.016a.283.283,0,0,1,.138-.114h.016c-.065.089-.114.13-.146.13Zm-2.374.13a.256.256,0,0,1,.081-.2.225.225,0,0,1-.008.073.821.821,0,0,0-.065.13h-.008Zm-.138-.187q-.024.012-.024.024v.016l.008.016c.016-.008.033-.024.033-.033V1.966ZM55.1,2.34c.008-.033.016-.041.024-.041a.375.375,0,0,1,.089-.276V2.04a.657.657,0,0,1-.106.317A.028.028,0,0,1,55.1,2.34Zm.52,0a.186.186,0,0,1,.065-.171c-.024.122-.049.179-.065.179Zm-.862.781a1.678,1.678,0,0,1,.154-.325.836.836,0,0,1,.163-.374v.033c-.122.358-.179.545-.179.561a7.041,7.041,0,0,0-.236.691.644.644,0,0,0-.081.171c-.114.358-.22.667-.317.935a8.116,8.116,0,0,1-.317.959h-.008l-.008-.049A1.077,1.077,0,0,1,54,5.446c.033-.081.122-.39.276-.927a3.681,3.681,0,0,0,.114-.358,1.5,1.5,0,0,0,.106-.293,1.252,1.252,0,0,1,.187-.455.476.476,0,0,1,.081-.268A.03.03,0,0,0,54.756,3.121Zm2.39-.488c.033,0,.041.008.041.024l-.041.008Zm-1.2.634V3.2a1.421,1.421,0,0,1,.236-.431.141.141,0,0,1-.049.1.212.212,0,0,1-.065.179c-.057.146-.089.22-.114.22Zm-.033.065h.008V3.34a.332.332,0,0,1-.106.2V3.511A.387.387,0,0,1,55.911,3.332Zm-.927.122c-.008,0-.016.024-.033.065a.017.017,0,0,0,.016.016c.024-.016.033-.024.033-.033V3.495l-.008-.041Zm.585.594a.143.143,0,0,1,.049-.106c.041-.154.081-.228.1-.228a.32.32,0,0,0,.016.049.68.68,0,0,1-.1.171C55.626,4.007,55.6,4.048,55.569,4.048ZM55.5,4.17c.008-.024.024-.033.033-.033h.008a.049.049,0,0,0,.008.033c-.024.016-.033.033-.041.033H55.5Zm-.081.187a.08.08,0,0,1,.041-.057h.008a.146.146,0,0,0-.033.065Zm-.764-.008c-.008,0-.016.016-.024.033.008.024.016.033.024.033h.008l.008-.041V4.365C54.675,4.357,54.667,4.357,54.658,4.349Zm.163.041a.017.017,0,0,0-.016.016v.016h.008c.016,0,.016,0,.016-.016Zm-.2.049c-.024,0-.049.049-.081.146v.008q.012.024.024.024h.016c.016,0,.033-.049.057-.146V4.454A.017.017,0,0,0,54.626,4.438Zm.39.553a.017.017,0,0,1,.016.016c0,.024-.024.057-.057.106A.409.409,0,0,1,55.016,4.991Zm-1.228,2.2q0-.012.049-.024h.008c.008,0,.016.016.024.041s-.016.033-.049.033c-.016,0-.024-.008-.033-.008ZM68.427-10.481a1.174,1.174,0,0,0-.146.1.75.75,0,0,0-.341.285A.245.245,0,0,1,68-9.985l-.065.073c-.1.228-.293.715-.577,1.463a2.963,2.963,0,0,0-.252.732,7.188,7.188,0,0,0-.4,1.13,15.979,15.979,0,0,0-.48,1.561,3.1,3.1,0,0,0-.154.512,2.145,2.145,0,0,0-.122.236.632.632,0,0,1-.081.293,1.012,1.012,0,0,1-.1.252q-.159.463-.171.537c0,.008.008.016.008.024h.008a.336.336,0,0,1,.081-.171c.033-.146.073-.22.114-.22.008,0,.008.016.016.065a.251.251,0,0,0-.008.081,3.639,3.639,0,0,0-.179.472h-.081c-.008,0-.024.033-.065.106a2.265,2.265,0,0,0-.163.472l.016.008h.008c.024-.106.065-.163.1-.163l.016.008a2.457,2.457,0,0,1-.049.268,1.294,1.294,0,0,1-.171.407.68.68,0,0,1-.114.341c-.024.154-.065.236-.138.236,0,.016.008.057.016.122-.016.049-.024.073-.041.073s-.041-.008-.041-.024l.057-.2a1.233,1.233,0,0,0,.1-.26c-.049,0-.081.016-.081.057a2.392,2.392,0,0,0-.211.626.03.03,0,0,0,.008.024c.033,0,.065-.065.106-.187h.049a2.641,2.641,0,0,1-.106.382,1.639,1.639,0,0,1-.2.512c-.081.008-.122.024-.122.041s.041.033.106.041a.556.556,0,0,0-.073.268V.275l-.041.008h-.041V.259c0-.008-.008-.024-.041-.033s-.049.041-.057.114V.365h.089c0,.049-.016.146-.033.276h.008A.07.07,0,0,0,64.5.617c.13-.382.22-.618.26-.7.041-.114.089-.268.154-.48a2.887,2.887,0,0,1,.138-.366,2.14,2.14,0,0,1,.236-.6,3.1,3.1,0,0,1,.154-.537q.073-.159.512-1.415a4.614,4.614,0,0,1,.3-.8.954.954,0,0,0,.106-.325l.13-.341q.085-.378.146-.415c.016-.171.057-.252.122-.252a2.464,2.464,0,0,1-.089.236.915.915,0,0,1-.114.39l-.618,1.813a5.475,5.475,0,0,1-.317.894,7.666,7.666,0,0,0-.244.813c-.073.2-.154.488-.26.878-.041,0-.1.146-.163.439,0,.008,0,.016.008.016a.71.71,0,0,0,.2-.3q.073-.268.1-.268a.887.887,0,0,0,.13-.35,1.2,1.2,0,0,0,.073-.22c0-.008,0-.016-.016-.016h-.041l.008-.081.057.016h.033c.016,0,.041-.057.065-.163a2.071,2.071,0,0,1,.122-.439,2.964,2.964,0,0,0,.171-.415V-2.4l-.008-.016-.033.016c-.008,0-.016-.008-.016-.041v-.016c.073,0,.13-.081.171-.228a.77.77,0,0,1,.13-.374,3.5,3.5,0,0,1,.171-.52.356.356,0,0,1,.106-.26,2.15,2.15,0,0,1,.122-.309c.033-.13.081-.293.146-.48a1.859,1.859,0,0,0,.228-.659c0-.041.033-.081.081-.138a2.126,2.126,0,0,1,.13-.39,1.358,1.358,0,0,1,.187-.472c.065-.228.122-.4.163-.5a.8.8,0,0,0,.114-.325h.016l.016.057a.346.346,0,0,1-.016.089,4.707,4.707,0,0,0-.179.5,3.579,3.579,0,0,0-.2.512,6.136,6.136,0,0,1-.285.854c-.065.268-.106.4-.13.4a2.558,2.558,0,0,1-.106.325c-.057.114-.211.553-.48,1.3a5.382,5.382,0,0,1-.276.821,5.518,5.518,0,0,1-.22.618c-.122.285-.447,1.236-.968,2.87a6.009,6.009,0,0,0-.252.862,4.307,4.307,0,0,0-.154.439.757.757,0,0,1-.138.341,4.215,4.215,0,0,0-.407.8h-.008V3.674a.645.645,0,0,1,.041-.122.083.083,0,0,0-.065-.041,3.446,3.446,0,0,0-.2.423h-.008V3.926c.016-.13.024-.228.033-.276l-.016-.008a.609.609,0,0,1,.057-.179,2.157,2.157,0,0,1,.154-.488.409.409,0,0,0-.033-.13s.033-.041.089-.106a.942.942,0,0,1,.13-.358c-.081-.065-.122-.114-.122-.154a.715.715,0,0,0,.065-.26V1.893h.008a.068.068,0,0,1,.057.033v.008a.549.549,0,0,1-.016.114l.008.016h.016c.057-.024.089-.1.089-.2V1.853h-.008a.212.212,0,0,0-.089.024h-.016c0-.106.033-.154.089-.154h.008l.016.049h.016V1.706a.435.435,0,0,0,.081-.211c-.049-.016-.081-.024-.081-.041V1.365a1.034,1.034,0,0,0,.13-.236V1.1l-.008-.057h-.016a.108.108,0,0,0-.057.024,1.944,1.944,0,0,1-.163.455v.008a.113.113,0,0,0,.041.081h.016l.016-.008v.057a.167.167,0,0,0-.154.1,1.781,1.781,0,0,1-.163.5,10.019,10.019,0,0,0-.447,1.659v.049a1.494,1.494,0,0,0,.1.252.41.41,0,0,0,.228.179.534.534,0,0,0,.106-.024c.081.008.122.008.13.008a.756.756,0,0,0,.22-.073h.065c.041,0,.1-.049.2-.154a11.267,11.267,0,0,0,.8-1.512c.439-.789,1.244-2.016,2.4-3.691.244-.358.407-.537.488-.545h.016c.033,0,.049.008.057.041q-.122.927-.293,1.683a9.535,9.535,0,0,0-.358,1.707v.016l-.008.033a.894.894,0,0,0,.057.26,1.036,1.036,0,0,0,.878.431l.179-.016a3.286,3.286,0,0,0,1.325-.683c.431-.35.642-.561.65-.626.057-.073.138-.163.244-.285a.008.008,0,0,1-.008-.008,2.8,2.8,0,0,0-.512.407c-.065-.016-.089-.033-.089-.073L70.2,1.3a.32.32,0,0,0,.049-.016l-.008-.041V1.218a.154.154,0,0,1,.024-.073,4.84,4.84,0,0,0,.472-.488c.228-.228.341-.366.341-.407q.317-.22.317-.39l.016.008h.041l.016-.008a.116.116,0,0,1,.016.049h.024L71.525-.1a.6.6,0,0,1,.114-.276c-.008,0-.008,0-.008-.008a.748.748,0,0,0-.171.106c-.268.276-.537.537-.813.781q-.1.11-.2.244c-.041,0-.089.041-.154.13-.008.041-.024.065-.049.065-.057,0-.211.122-.48.366-.512.48-.878.715-1.081.715-.146,0-.22-.13-.22-.382a9.164,9.164,0,0,1,.35-1.8,6.725,6.725,0,0,0,.333-1.667,2.643,2.643,0,0,0-.016-.268.411.411,0,0,0-.114-.309c-.073-.154-.13-.244-.179-.26a.5.5,0,0,0-.366-.138h-.1q-.122,0-.293.268a4.386,4.386,0,0,0-.488.569c-.715.911-1.22,1.569-1.52,1.992a7.53,7.53,0,0,1-.626.9q-.415.622-.537.781l.049-.154.293-.878c.033-.081.122-.317.252-.707q1.366-3.805,1.984-5.634c.325-.911.488-1.39.488-1.447.358-.984.594-1.65.715-1.992.138-.455.228-.748.276-.87-.016-.1-.024-.187-.033-.26,0-.171-.089-.252-.268-.252a.668.668,0,0,1-.171.016A.121.121,0,0,1,68.427-10.481ZM67.7-7.449h.024l-.008.057H67.7Zm-.073.236c0-.073.008-.106.024-.106h.008c0,.008-.008.049-.016.106Zm-.715,1.024h.016a.687.687,0,0,1-.016.154h-.016C66.891-6.058,66.9-6.115,66.907-6.188Zm-.106.366h.008v.008c-.016.1-.033.146-.057.146A.31.31,0,0,1,66.8-5.823Zm-.846,1.854c.016-.154.049-.236.089-.236l-.008.081a.412.412,0,0,0-.065.154Zm-.057.106h.033l.008.041v.008a.085.085,0,0,1-.057.081Zm-.341.976h.008c0,.016.008.024.008.033s0,.016-.016.016Zm-.008.073c.033.016.041.024.041.033v.008c-.016.041-.033.065-.041.065h-.033A.642.642,0,0,1,65.549-2.814ZM65.5-2.66h.016v.016H65.5ZM66.029.706A2,2,0,0,1,66.2.2c0-.041.407-.61,1.22-1.716l.114-.1a.788.788,0,0,1,.146-.211,1.914,1.914,0,0,1,.553-.569.384.384,0,0,1,.041.114.713.713,0,0,1-.13.2,1.8,1.8,0,0,1-.285.382.293.293,0,0,0-.122.163c0,.008-.431.569-1.285,1.7a3.036,3.036,0,0,1-.415.545Zm-.683-3.033c-.033,0-.049.033-.057.081l.016.008h.024c.008,0,.016-.024.024-.081C65.346-2.318,65.346-2.318,65.346-2.326Zm-.154.382c-.065,0-.106.081-.122.236v.057h.008a.511.511,0,0,0,.138-.26C65.208-1.912,65.2-1.92,65.191-1.944Zm.317.244h.057v.033h-.033q-.024-.012-.024-.024Zm-.74.911c0,.008-.008.033-.016.073l.041-.008V-.749L64.785-.79Zm7.09.26h-.016a.216.216,0,0,1-.179.089c.016.073.033.106.033.114a.159.159,0,0,0,.065-.008c.089,0,.154-.057.2-.179A.234.234,0,0,0,71.858-.53ZM71.7-.3c-.041.008-.065.016-.065.033v.008c.016.024.033.041.041.041s.024-.024.033-.065ZM71.574-.2q-.012,0-.024.073l.016.008a.076.076,0,0,0,.049-.065A.017.017,0,0,0,71.6-.2Zm-3.163.122a.036.036,0,0,1,.024.008V-.05a.089.089,0,0,1-.033.016V-.042Zm3.073.024c-.041,0-.057.024-.065.081a.008.008,0,0,1,.008.008A.1.1,0,0,0,71.484-.05Zm-6.96.008A.272.272,0,0,0,64.46.1a.008.008,0,0,1,.008.008c.065,0,.1-.041.1-.138V-.042Zm.431.065c-.008,0-.016.008-.024.008a.686.686,0,0,1-.065.276V.381c-.057.041-.081.073-.081.089V.487H64.8a.131.131,0,0,0,.073-.024A1.849,1.849,0,0,0,65,.072V.064A.1.1,0,0,0,64.956.023Zm-.5.65c-.049,0-.081.065-.089.187,0,.008.016.016.041.033a.332.332,0,0,0,.073-.163V.7C64.46.682,64.46.674,64.452.674Zm.276.049a.145.145,0,0,0-.057.065c.016.033.041.057.057.057s.024-.041.024-.106V.722Zm-.472.041V.8l.008.016L64.281.8,64.273.763Zm.122.154q-.049,0-.1.073V1a.131.131,0,0,0,.041.089c.016,0,.033-.049.065-.146A.036.036,0,0,1,64.378.918Zm1.366.016a.3.3,0,0,0,.065.008V.95l-.041.008h-.016A.063.063,0,0,0,65.744.934ZM67.72,1.1a.017.017,0,0,1,.016.016v.033H67.72Zm-3.415.016c-.049,0-.073.016-.073.041l.016.008h.041a.017.017,0,0,0,.016-.016Zm3.374.13a.062.062,0,0,1,.057-.065l-.008.073h-.049Zm-3.09-.065q-.024.012-.024.024v.033a.017.017,0,0,0,.016.016H64.6q.024,0,.024-.049c0-.016,0-.024-.016-.024Zm-.325.049c-.041,0-.073.057-.089.179l.008.016c.008,0,.016-.008.024-.008a.311.311,0,0,0,.073-.122A.153.153,0,0,0,64.265,1.227Zm.22.114v.065l.008.041h-.008a.747.747,0,0,0-.13.22c0,.016.024.049.073.089h.024c.008,0,.016-.041.033-.106l.081-.276c-.008-.024-.024-.033-.057-.033Zm5.447.057c.057,0,.081.016.081.033v.008a.325.325,0,0,1-.1.081l-.008-.041A.182.182,0,0,1,69.931,1.4Zm-1.919.341a.684.684,0,0,1,.041-.22h.008q0,.037-.024.22Zm-3.951-.187a.017.017,0,0,1,.016-.016h.033c0,.033-.008.049-.008.065h-.041ZM68,1.8h.024v.049l.008.073c-.016,0-.024-.024-.033-.057Zm-.033.236h.081l-.008.041V2.1h-.008L67.98,2.1V2.072Zm-3.683.024q-.024.073-.073.073c-.041,0-.057.033-.057.106l.008.016.041-.008c.041,0,.073-.065.1-.187Zm-.374.106V2.17c0,.016-.008.041-.008.073l.024.049c.033,0,.049-.033.057-.089a.054.054,0,0,0-.033-.041Zm.3.179v.024l.008.016.016-.008-.008-.033Zm-.114.041c-.008,0-.016.024-.033.057a.008.008,0,0,1,.008.008c.049-.008.065-.016.065-.033S64.126,2.4,64.1,2.381Zm-.049.081q-.012,0-.024.049v.016a.017.017,0,0,0,.016.016h.081l.024-.016c0-.041-.008-.065-.024-.065Zm-.293.065h.008v.008l-.008.041h-.008V2.56A.081.081,0,0,0,63.76,2.527Zm.317.114c-.008,0-.024.049-.041.154l.016.008c.016,0,.024-.049.033-.146ZM64,2.714q-.024,0-.024.049c0,.008,0,.016.016.016S64,2.771,64,2.763Zm-.016.171c-.041,0-.065.016-.073.041v.033h.057c.008,0,.016,0,.016-.016Zm-.1.2a.267.267,0,0,0-.089.236l.008.041h.016c.057-.033.089-.114.089-.244Zm15.175-6.9a.49.49,0,0,0-.423.26.576.576,0,0,0-.179.447v.13a.368.368,0,0,1-.024.13,1.325,1.325,0,0,0-.138.309,5.741,5.741,0,0,1-.447.675,1.128,1.128,0,0,1-.22.4,1.243,1.243,0,0,1-.244.39,6.829,6.829,0,0,1-.8,1.024,5.014,5.014,0,0,1-.455.537,1.586,1.586,0,0,1-.171.252,1.668,1.668,0,0,0-.439.374,1.816,1.816,0,0,1-.569.35,1.634,1.634,0,0,1-.268.146h-.016c-.057,0-.089-.179-.1-.528a7.255,7.255,0,0,1,.2-1.146,17.067,17.067,0,0,1,.886-2.716,3.018,3.018,0,0,0,.309-.756v-.016c0-.1-.033-.146-.1-.163h-.114a1.063,1.063,0,0,0-.171-.065.948.948,0,0,0-.268.065.448.448,0,0,0-.228.244,1.145,1.145,0,0,0-.228.374A14.922,14.922,0,0,0,74-1.148a8.969,8.969,0,0,0-.528,2.309v.081a.971.971,0,0,0,.163.577,1.676,1.676,0,0,0,1.146.374,1.092,1.092,0,0,0,.154-.008,1.158,1.158,0,0,0,.585-.26A6.016,6.016,0,0,0,76.741.877,3.354,3.354,0,0,0,77.2.316L77.188.3l-.049.016c-.081.106-.13.163-.154.163A.538.538,0,0,1,76.9.47c-.033,0-.057.033-.073.081V.56c0,.016.024.024.057.033V.609c0,.041-.024.065-.081.081a.13.13,0,0,1-.065-.024h-.008a1.832,1.832,0,0,1-.2.171,1.018,1.018,0,0,0-.317.252A.678.678,0,0,1,75.9,1.3h-.008a.483.483,0,0,1,.033-.065c.1-.089.146-.146.146-.179h-.024l-.033.024h-.033V1.056c0-.008.024-.024.065-.057.1-.008.154-.041.154-.089V.9L76.171.861A3.191,3.191,0,0,0,76.7.275c.073-.033.146-.154.22-.358.146-.171.228-.268.228-.309a.492.492,0,0,0,.1-.146c.081-.114.138-.163.179-.163.016-.122.033-.187.065-.187.024-.024.146-.2.358-.537.154-.26.26-.39.325-.39l.187-.293c-.049.154-.114.341-.2.561a9.206,9.206,0,0,1-.358.951,2.583,2.583,0,0,0-.138.415c0,.008.024.024.081.033l-.024.1-.285.61A6.91,6.91,0,0,1,77,1.5a1.573,1.573,0,0,1-.2.415,3.643,3.643,0,0,1-.163.358,7.217,7.217,0,0,1-.472.9,3.3,3.3,0,0,1-.276.528.3.3,0,0,1-.146.26,3.421,3.421,0,0,1-.3.439.388.388,0,0,1-.211.138,1.4,1.4,0,0,0-.26.35c-.374.374-.569.569-.569.585a.121.121,0,0,0,.057-.008.9.9,0,0,1,.244-.2h.008a2.656,2.656,0,0,1-.317.407c0,.049-.081.163-.26.333-.1.138-.171.2-.22.2H73.9c.057-.138.1-.211.13-.211a.474.474,0,0,1,.146-.26c.146-.1.211-.179.211-.244V5.5h-.008a.69.69,0,0,1-.2.146c-.106.106-.163.163-.179.163a4.839,4.839,0,0,0-.455.545,1.364,1.364,0,0,0-.423.789.627.627,0,0,0,.016.122.517.517,0,0,0,.5.374.809.809,0,0,0,.691-.472c.626-.772,1.016-1.293,1.179-1.545A2.588,2.588,0,0,1,75.83,5.1c.512-.528.764-.8.764-.813a6.524,6.524,0,0,0,.634-.642V3.633a1.626,1.626,0,0,1-.211.163H77a5.155,5.155,0,0,1,.366-.374c.171-.187.276-.276.317-.276V3.129l-.008-.016c.008-.008.187-.211.528-.618.22-.228.333-.341.333-.35a15.769,15.769,0,0,1,1.3-1.22c.146-.114.569-.447,1.268-.984V-.066a1.012,1.012,0,0,0-.2.057H80.9a1.068,1.068,0,0,1,.2-.114c.138-.049.2-.089.2-.106s-.016-.008-.049-.016q.037-.049.049-.049h.073v.016c.024-.008.049-.033.081-.089V-.383h-.016a.141.141,0,0,0-.057.008c-.073,0-.114.016-.114.057a.281.281,0,0,1-.1-.008.287.287,0,0,0-.008.049c0,.024-.033.049-.106.065a1.826,1.826,0,0,1-.48.285h-.008l.024-.081-.008-.008c-.1.024-.146.057-.146.114l.024.081a3.917,3.917,0,0,1-.447.317,1.749,1.749,0,0,1-.374.293,2.8,2.8,0,0,1-.325.285,6.977,6.977,0,0,0-.764.715,4.7,4.7,0,0,0-.472.488,2.773,2.773,0,0,0-.439.52c-.041.024-.057.041-.057.049-.732.87-1.106,1.317-1.114,1.342h-.008V4.178a1.14,1.14,0,0,0,.073-.187,5.627,5.627,0,0,1,.756-.959c.13-.114.2-.187.2-.211a.746.746,0,0,0,.179-.244c.057-.041.089-.065.089-.089a.063.063,0,0,0-.008-.024,1.328,1.328,0,0,0,.154-.179c.138-.122.211-.2.211-.236a.792.792,0,0,0,.244-.268,3.187,3.187,0,0,0,.472-.48,1.126,1.126,0,0,0,.211-.187c.122-.1.187-.171.187-.2a1.144,1.144,0,0,0,.228-.187,4.061,4.061,0,0,0,.4-.325c.122-.081.268-.187.439-.325A4.209,4.209,0,0,0,80.741-.2l.22-.089c0-.073.065-.122.2-.154l-.016-.024a.884.884,0,0,0-.3.114,4.862,4.862,0,0,1-.569.35,3.644,3.644,0,0,1-.463.333c-.049,0-.081.033-.1.106A.123.123,0,0,0,79.594.5a.677.677,0,0,0-.171.114L79.367.56a.083.083,0,0,0-.041.065V.706a.278.278,0,0,1-.211.122A.008.008,0,0,0,79.107.82a.485.485,0,0,1-.122.073l.008.073V.991c0,.016-.008.016-.016.016h-.049L78.911,1,78.92.95V.942a.475.475,0,0,0-.081.065c-.016.1-.041.146-.081.146-.081,0-.2.1-.35.3a3.068,3.068,0,0,0-.756.8.217.217,0,0,1-.114.089,4.107,4.107,0,0,0-.439.6H77.09V2.918a1.919,1.919,0,0,1,.236-.472,2.827,2.827,0,0,1,.35-.415,3.548,3.548,0,0,0,.39-.431c.033,0,.154-.13.374-.382-.041,0-.122.057-.268.171a4.762,4.762,0,0,0-.675.667h-.008V2.048c.244-.5.39-.789.447-.878.13-.35.317-.789.569-1.309a7.414,7.414,0,0,0,.382-.943,9.63,9.63,0,0,0,.764-2.277l-.016-.122A.924.924,0,0,0,79.066-3.814ZM79.025-2.3a.186.186,0,0,1,.057-.13.4.4,0,0,1-.041.146h-.016Zm-3.707.041h.016c0,.008,0,.016-.016.016Zm1.268,5.147a2.522,2.522,0,0,1,.366-.756,2.5,2.5,0,0,1,.3-.61c.138-.333.293-.683.463-1.057a11.985,11.985,0,0,1,.675-1.439c.073-.016.179-.22.333-.618.154-.415.252-.626.309-.626a3.879,3.879,0,0,0-.154.463l-.382,1q-.134.256-.39.878a3.321,3.321,0,0,0-.236.553c.008.008.008.033.016.073-.041,0-.081.041-.114.138.033.033.049.049.057.049s-.024.024-.081.041l.033.033v.008l-.008.041-.057-.041a.651.651,0,0,0-.089.187l.057.171v.008h-.041c-.008,0-.041.033-.089.106a.449.449,0,0,0-.008-.073c-.057.041-.081.065-.081.081a.335.335,0,0,1,.033.122c0,.041-.016.057-.041.057V1.6h-.008c-.008,0-.024.016-.041.049l.041.033c-.016.024-.024.041-.033.041h-.008V1.706h-.024v.016a1.934,1.934,0,0,1-.211.39.149.149,0,0,1,.049.081c-.008,0-.016,0-.033.016q-.012-.024-.024-.024h-.016c-.016,0-.024.016-.033.057,0,.024.024.033.073.041a.948.948,0,0,1-.138.236V2.487a.848.848,0,0,0,.065-.163l-.008-.016a.308.308,0,0,0-.122.2v.024a.13.13,0,0,0,.024.065c0,.033-.024.065-.065.106V2.641h-.016a1.633,1.633,0,0,0-.26.5.5.5,0,0,0-.106.187v.008h.008c.041-.024.065-.041.065-.041l.016.008c0,.081-.041.122-.106.122,0-.008.008-.033.016-.073h-.008l-.033.033q-.122.22-.171.22c-.008,0-.008-.016-.016-.057h-.049q-.024.012-.024.024v.016c0,.008.033.016.081.024,0,.041-.008.065-.041.065a.757.757,0,0,1-.211.423.841.841,0,0,1-.114.244c-.057.024-.089.049-.089.081v.065L75.9,4.5a.434.434,0,0,0-.13.179c0,.073-.114.211-.325.415-.008.065-.024.106-.065.106,0-.016-.008-.033-.041-.033l-.089.065a.332.332,0,0,1,.1-.2,1.146,1.146,0,0,1,.2-.3q.1-.012.1-.024A.128.128,0,0,0,75.6,4.7V4.674h.024a.063.063,0,0,0,.008.024c.041,0,.065-.033.1-.081,0-.016-.008-.033-.008-.065a.22.22,0,0,1,.024-.065c.106-.073.163-.13.163-.179,0-.016-.008-.024-.033-.033s-.057.024-.106.065h-.008a.643.643,0,0,1,.2-.3c.106,0,.187-.081.236-.236-.073,0-.106-.008-.106-.016a.355.355,0,0,1,.13-.22,1.555,1.555,0,0,1,.317-.585v.008a.251.251,0,0,1-.008.073l.008.016c.1-.049.146-.106.146-.187V2.885l-.008-.016c-.041.008-.073.016-.081.016ZM75.163-1.936c0-.033.008-.049.041-.057h.008v.016c-.033.041-.041.057-.041.065h-.008Zm-.65,1.87a.226.226,0,0,1,.057-.179A2.607,2.607,0,0,1,74.675-.7a.159.159,0,0,0,.057-.138.367.367,0,0,1,.073-.187c.008-.1.024-.138.033-.138a.8.8,0,0,1,.049-.163c.033-.1.065-.146.081-.146a.51.51,0,0,1,.13-.333.159.159,0,0,0,.008.057c-.041.13-.065.2-.065.211a.37.37,0,0,0-.065.187h-.008c-.008,0-.016,0-.016-.016a.017.017,0,0,0-.016.016v.008c0,.008.008.016.024.016a.4.4,0,0,1-.024.1.334.334,0,0,0-.057.138,1.673,1.673,0,0,0-.114.374.786.786,0,0,0-.1.333A1.147,1.147,0,0,0,74.562,0l.008.016c-.016,0-.024.024-.041.065-.008.163-.024.244-.041.244A.03.03,0,0,0,74.48.3c.008-.049.016-.081.016-.1s0-.057-.008-.146a.13.13,0,0,1,.024-.065Zm4.09-1.48c0-.008,0-.016.016-.016v.041H78.6Zm-.585.073v.016h.008v-.016ZM77.3-.879c.016-.016.024-.033.041-.033a1.21,1.21,0,0,1,.236-.3h.016c-.016.041-.033.065-.041.065-.081.2-.154.3-.22.3H77.31A.049.049,0,0,0,77.3-.879ZM81.351-.8a2.574,2.574,0,0,0-.577.2,2.922,2.922,0,0,0-.512.341.017.017,0,0,0,.016.016h.041c.041,0,.106-.049.22-.138l.268-.13A2.01,2.01,0,0,1,81.18-.66c.2-.041.3-.065.3-.089V-.757c0-.024-.041-.033-.114-.041Zm-6.919.309a.458.458,0,0,1,.1-.228V-.66a1.58,1.58,0,0,1-.073.187Zm3.5-.2c.008,0,.016,0,.016.016v.024a.03.03,0,0,0-.024.008V-.676ZM77.48-.66a.257.257,0,0,0-.1.146c0,.016.008.024.016.024h.008c.049,0,.081-.041.089-.122A.116.116,0,0,0,77.48-.66Zm.8.024c-.008,0-.016.016-.033.041l.024.041c.024-.016.033-.024.033-.033V-.611Q78.289-.635,78.277-.635Zm-.626.122V-.5h.016V-.513Zm-.293.033a.017.017,0,0,0-.016.016v.008h.008c.016,0,.016,0,.016-.016V-.481ZM74.4-.391c.016-.041.033-.065.041-.065h.008v.024c-.008.049-.024.073-.041.073A.049.049,0,0,0,74.4-.391Zm3.423-.057h.008c.008,0,.016.016.024.033V-.4C77.838-.4,77.822-.416,77.822-.448ZM78.2-.456a.16.16,0,0,0-.081.138.252.252,0,0,0-.065.187h.016c0-.073.016-.106.049-.106.049,0,.089-.073.1-.22Zm2.935.024-.008.016v.033a.017.017,0,0,0,.016.016h.024C81.2-.375,81.2-.391,81.2-.4S81.188-.416,81.139-.432Zm-3.821.016c-.008,0-.008.008-.016.016v.008h.016Zm.341.073c-.016,0-.016.008-.016.016v.033h.008c.016-.016.033-.024.033-.033V-.343Zm-.041.065c-.016,0-.024.016-.033.049,0,.008,0,.016.016.016s.024-.016.024-.024V-.261ZM77.2-.261c-.008,0-.016.008-.024.033,0,.008.008.016.008.024H77.2c0-.016,0-.024.008-.024V-.261Zm3.773,0-.033.033c0,.008.008.016.033.024s.024-.008.041-.033V-.245a.017.017,0,0,0-.016-.016Zm-.756.016c-.041,0-.089.033-.138.114l.008.016c.089-.008.138-.041.138-.1V-.229Zm.862.065c.016,0,.024-.008.041-.016V-.18a.063.063,0,0,0-.024.008h-.016Zm-3.529.008L77.5-.164a1.525,1.525,0,0,1-.146.2q-.146.171-.146.22c0,.016,0,.024.008.024a.292.292,0,0,0,.138-.154.819.819,0,0,0,.2-.276Zm-.431.033c-.008,0-.024.016-.041.049v.008l.008.016c.024-.008.041-.016.041-.024V-.139Zm3.642,0-.033.024c.016.016.024.033.033.033h.016c.008,0,.016-.016.024-.033q-.012-.024-.024-.024Zm-3.39.033V-.1h.016V-.107Zm.268.008a.06.06,0,0,0-.049.016c-.187.407-.276.626-.285.65V.6l.008.041h.016a1.163,1.163,0,0,1,.2-.333A.116.116,0,0,0,77.5.259V.243a1.375,1.375,0,0,0,.138-.293V-.082ZM80-.091h-.033a4.545,4.545,0,0,0-.577.415,7.48,7.48,0,0,0-.911.846l.008.016a.151.151,0,0,0,.089-.033c.114-.163.2-.244.236-.244a1.274,1.274,0,0,1,.325-.268,1.342,1.342,0,0,1,.22-.179.6.6,0,0,1,.049-.089A.79.79,0,0,0,79.773.1a2.151,2.151,0,0,0,.244-.179C80.017-.091,80.009-.091,80-.091ZM74.293.145c0-.106.016-.163.033-.163l.008.057V.048A.4.4,0,0,1,74.3.153h-.008ZM80.464.121Q80.477.1,80.489.1h.041V.113q-.012.024-.024.024h-.041ZM74.293.186H74.3l.008.041V.235q-.012.024-.024.024V.227Zm3.6.049c-.024.008-.033.033-.033.073V.324h.016c.041-.033.065-.049.065-.065s-.008-.024-.016-.024ZM74.277.275h.008l.008.081a.639.639,0,0,1-.033.1h-.008V.348A.339.339,0,0,1,74.277.275Zm3.886.016c.008,0,.008.008.016.033V.34A.087.087,0,0,1,78.155.3ZM74.236.625c0-.008,0-.016.016-.016h.008V.617l-.008.016Zm2.976.138c-.024.024-.041.041-.041.049V.82A.108.108,0,0,0,77.2.877c.024-.016.041-.024.049-.049C77.245.779,77.228.763,77.212.763Zm2.4.146c.016,0,.041-.024.065-.057H79.7c-.033.049-.057.073-.081.073h-.008Zm-2.447,0c-.065.049-.089.081-.089.089,0,.024.016.041.057.041a.064.064,0,0,0,.041-.065V.909Zm.626.187c0-.008.016-.024.049-.041h.008V1.1c0,.008-.016.024-.049.041h-.008ZM77.1,1.088c-.057,0-.1.057-.122.179a.054.054,0,0,0,.033.057.292.292,0,0,0,.106-.187A.32.32,0,0,0,77.1,1.088Zm.5.211c-.033.008-.041.033-.041.065V1.4h.008A.061.061,0,0,0,77.6,1.34V1.3Zm-.65.089L76.9,1.4a.275.275,0,0,1-.065.154,1.851,1.851,0,0,0-.228.545.008.008,0,0,1,.008.008.243.243,0,0,0,.065-.033.6.6,0,0,1,.065-.2c.041-.008.073-.081.114-.22a.828.828,0,0,0,.106-.228V1.389Zm.707.041h.016V1.47h-.024Zm-.268.341h.008q.024.012.024.024c0,.008-.008.016-.033.024Zm-.886.561q-.049.012-.049.024v.008a.074.074,0,0,1,.041.024H76.5V2.349Zm1.431.016H77.92a.28.28,0,0,0-.163.114v.008a.227.227,0,0,0,.179-.114Zm-1.512.081c-.008,0-.024.024-.041.057a.049.049,0,0,0,.024.049c.024-.016.041-.033.041-.041V2.487A.108.108,0,0,0,76.415,2.43Zm-.089.2a.083.083,0,0,0-.041.049.053.053,0,0,1,.016.041.064.064,0,0,0,.065-.041Zm.594.114h.008l-.041.065h-.008Zm-.667.008c-.024.008-.041.041-.057.1A.227.227,0,0,0,76.123,3l.008.016a.219.219,0,0,0,.154-.2.438.438,0,0,0-.008-.065Zm-.179.325a.141.141,0,0,1-.024.057c.016.024.024.033.033.033h.008c.008,0,.016-.016.033-.041a.055.055,0,0,0-.033-.049Zm.61.114h.008c.008,0,.016.008.024.033-.008,0-.008.008-.008.024a.063.063,0,0,0-.024-.008ZM76,3.219a.167.167,0,0,0-.065.122l.008.016c.081-.024.122-.057.122-.089A.062.062,0,0,0,76,3.219Zm1.146.033q-.024.012-.024.024v.008c0,.008,0,.016.016.016a.017.017,0,0,0,.016-.016V3.267Zm-1.285.268c-.065.008-.1.024-.1.057-.041.114-.089.171-.138.187-.033.106-.057.154-.081.154-.106.228-.171.341-.211.358a.56.56,0,0,1-.057.2v.016c.089,0,.154-.081.2-.236a1.579,1.579,0,0,0,.187-.3.108.108,0,0,0-.024-.057V3.885a.61.61,0,0,0,.236-.366Zm.943.463c.049-.049.073-.081.081-.081,0,.041-.024.065-.073.081Zm-1.049.089a.1.1,0,0,1,.016-.024c.016,0,.016.008.016.016s-.008.016-.033.033Zm.447-.008a.063.063,0,0,0,.024-.008h.008a.142.142,0,0,0-.024.057H76.2Zm.455.057c.024-.041.049-.057.057-.057h.008a.117.117,0,0,1-.049.057Zm-.715.024c-.008,0-.016,0-.016.016V4.2h.016a.137.137,0,0,1,.016-.041A.017.017,0,0,0,75.944,4.145Zm.163.122c0-.008.008-.016.033-.024a.063.063,0,0,0,.008.024l-.041.016Zm.293.073a.357.357,0,0,1,.114-.089c-.024.057-.057.089-.1.089Zm-.39.073c0-.033.016-.057.057-.081l-.041.114h-.016Zm.309.024a.043.043,0,0,1,.049-.049h.008C76.375,4.4,76.358,4.414,76.318,4.438Zm-1.276.545a.283.283,0,0,1,.089-.106c.057-.122.114-.187.163-.2,0,.049-.049.13-.154.236-.049.081-.073.122-.081.122a.017.017,0,0,1-.016-.016Zm.431-.049c-.024.016-.033.024-.033.033v.008L75.456,5q.024-.012.024-.024V4.95Zm-.52.228h.016V5.2h-.024Zm-.634.911c.065-.154.122-.236.171-.236v.008a.184.184,0,0,1-.089.146C74.383,6.04,74.358,6.072,74.318,6.072Zm-.228.22c0-.033.057-.1.171-.187,0,.008-.016.041-.033.106-.081.049-.122.081-.122.114H74.1Z" transform="translate(0.476 10.935)" fill="#fff" stroke="#fff" stroke-width="0.5"/>
</svg>
