<svg xmlns="http://www.w3.org/2000/svg" width="353.627" height="80.5" viewBox="0 0 353.627 80.5">
  <path id="パス_51" data-name="パス 51" d="M29.914-25.945a17.815,17.815,0,0,0-8.659,2.173c0-.985-.407-1.494-1.222-1.494a1.374,1.374,0,0,0-.611-.34c-1.019.1-1.494.2-1.494.306a5.988,5.988,0,0,0-.645,2.139c-.238,1.121-.475,1.664-.713,1.664a57.357,57.357,0,0,0-6.01,4.924,23.345,23.345,0,0,1-2.343,2.818,4.035,4.035,0,0,0-.645,1.6v.136c.136.611.34.917.509.917a28.075,28.075,0,0,1,.543,4.584,25.708,25.708,0,0,1-.306,2.886l.136.985a5.32,5.32,0,0,1-.2.951A10.526,10.526,0,0,1,7.843.778a6.027,6.027,0,0,0-.407,1.63.864.864,0,0,0,.068.238,1.787,1.787,0,0,0-.2.509v.374c0,.068.068.1.272.1a2.967,2.967,0,0,0-.1.475c-.374.238-.543.441-.543.645v.2a.457.457,0,0,0,.068.272,3.875,3.875,0,0,1-.272.985A25.212,25.212,0,0,0,5.194,9.845V9.98h.034c.2-.2,1.324-2.139,3.362-5.7h.034V4.31C7.5,7.841,6.586,10.524,5.839,12.255c-.713.272-1.087.577-1.087.951v.136a1.3,1.3,0,0,0,.136.441v.034a5.646,5.646,0,0,0-.917,2.275v.17c0,.407.272.611.781.611h.136a.09.09,0,0,0,.1-.1v-.034a2.21,2.21,0,0,0-.543-.543v-.1A1.988,1.988,0,0,1,5.364,14.9c.034.136.1.2.136.2.2-.17.306-.306.306-.475a1.221,1.221,0,0,1,.374.068h.034a17.156,17.156,0,0,1-1.154,3.328.033.033,0,0,0,.034.034l-.475,1.29a1.072,1.072,0,0,0-.441.679,3.971,3.971,0,0,0-.543,1.087v.1c0,.034.034.068.1.068a4.5,4.5,0,0,1-.441,1.087c-.679,1.9-1.188,2.886-1.528,2.886H1.7a4.574,4.574,0,0,0,.441-1.426H2.1l-.1.034a2.083,2.083,0,0,1-.475.747H1.493l.1-.985-.1-.068H1.357l-.2.068c-.068.34-.136.509-.17.509-.034.645-.17.985-.34.985H.576c0-.068-.1-.238-.34-.441.136-.272.2-.407.238-.407A38.694,38.694,0,0,1,2.58,18.5,41.544,41.544,0,0,1,5.33,10.9v-.034H5.16c-.17.17-.272.306-.272.374l-.679.509v.136c0,.068.034.068.136.068,0,.068-.1.1-.306.136C3.5,14.021,2.647,16.6,1.527,19.828H1.493a.63.63,0,0,0-.068-.238,2.494,2.494,0,0,0-.374,1.562H.984l.034-.374a.594.594,0,0,1-.034-.17h-.1A25.679,25.679,0,0,0-.612,27.094c0,1.868.781,2.784,2.309,2.784h.1c.713,0,1.154-.1,1.358-.374C3.9,29.2,4.277,29,4.277,28.826V28.69A1.109,1.109,0,0,1,3.462,27.6v-.238c1.8-5.739,3.158-9.847,4.109-12.394.034-.374.17-.543.407-.543,1.8-.713,3.531-1.494,5.263-2.377a36.274,36.274,0,0,0,6.18-3.43,74.813,74.813,0,0,0,8.048-5.3c3.6-2.92,5.6-4.584,5.976-4.958,3.056-3.09,4.822-5.093,5.263-5.976a13.739,13.739,0,0,0,3.056-8.625,9.319,9.319,0,0,0-1.7-5.467c-2.377-2.818-5.739-4.244-10.119-4.244Zm-.136,1.29h.272v.17c-.17-.034-.272-.068-.272-.136Zm1.29,0h.475v.034c-.034.1-.1.136-.136.136h-.2c-.1-.034-.136-.1-.136-.136Zm-4.075.2a5.07,5.07,0,0,1,.645-.034h.17q-.153.2-.2.2h-.068l-.543-.136Zm6.52.272h.136v.1h-.136ZM9.269,10.761c.034-.1.068-.136.1-.136C11.917,4.615,14.192-1.361,16.2-7.2c.679-2.139,1.087-3.328,1.188-3.565l1.29-4.482a45.743,45.743,0,0,0,2.207-6.112,6.2,6.2,0,0,1,1.664-.849,27.817,27.817,0,0,1,8.319-1.8,14.782,14.782,0,0,1,4.211.645,5.133,5.133,0,0,1,3.837,5.229,13.124,13.124,0,0,1-.306,2.513,11.915,11.915,0,0,1-1.562,4.278A11.246,11.246,0,0,1,34.5-7.88a16.893,16.893,0,0,1-2.139,2.343,34.935,34.935,0,0,0-2.92,3.056A36.361,36.361,0,0,0,26.145.4,11.164,11.164,0,0,0,23.8,2.171V2.2l.2-.034h.068v.17a1.983,1.983,0,0,1-.441.17H23.5c0-.1,0-.17-.034-.2-.068,0-.1.034-.136.034l-.883.645a23.72,23.72,0,0,0-3.022,2.139V5.26a.542.542,0,0,0,.1.272l.985-.543A10.07,10.07,0,0,1,22.478,3.7V3.631c0-.068-.034-.068-.1-.1h-.2c0-.306.2-.475.543-.475q.407,0,.407-.509h.34a.9.9,0,0,0-.1.34v.068h.068a4.514,4.514,0,0,0,.815-.645,61.061,61.061,0,0,0,5.2-4.007A8.792,8.792,0,0,1,31.1-3.127h.068a.988.988,0,0,1-.17.34C29.676-1.531,28.216-.24,26.518,1.084a15.216,15.216,0,0,0-1.8,1.46v.034A4.769,4.769,0,0,0,26.213,1.7,15.058,15.058,0,0,0,28.624-.376,7.861,7.861,0,0,0,30.186-1.5c.034,0,.068.068.1.17l-.034.238C29.71-.648,28.76.235,27.367,1.559a5.468,5.468,0,0,1-.951.781c-.238.374-.475.543-.747.543l-.407-.034v.2c0,.2-.306.509-.951.917a10.74,10.74,0,0,0-2.105,1.46q-2.75,1.732-3.26,2.037a1.8,1.8,0,0,1-1.46.645h-.034v.1h.306V8.52a6.364,6.364,0,0,0-1.46.611,2.9,2.9,0,0,1-1.188.781.965.965,0,0,1-.407-.136,1.731,1.731,0,0,0-.985.441v.034a.125.125,0,0,1,.1.034c0,.17-.034.272-.17.306-.1-.068-.17-.136-.17-.17h-.068c-.306.374-.543.543-.747.543H12.63c0-.068-.068-.136-.17-.17q-.051,0-1.121.509l.034.238v.17a2.585,2.585,0,0,1-.713-.1,12.634,12.634,0,0,0-2.105.917H8.488a3.763,3.763,0,0,1,.306-.781c0-.238.374-.441,1.087-.543L14.906,8.35c0-.136-.034-.238-.136-.238H14.4c-.034,0-.034,0-.034.034-.611.34-2.275,1.222-5.059,2.615ZM21.153-22.414l.034-.306c0-.17.713-.407,2.139-.781v.17Zm-3.531,3.328h.034v.136c-1.019,3.328-1.7,5.5-1.969,6.553a8.2,8.2,0,0,0-.611,2,18.129,18.129,0,0,0-1.188,4.143,1.174,1.174,0,0,1,.1.407v.068h-.034c-.068,0-.1-.034-.17-.068-.034,0-.1.068-.238.17a.8.8,0,0,0,.17.441.463.463,0,0,0-.374.441v.034a.542.542,0,0,0,.272-.1.09.09,0,0,1,.1.1v.034c-.2,0-.374.34-.543,1.053l.068.068v.1a6,6,0,0,0-.577,1.528l.1.611v.034l-.407-.136q-.357,0-.509.611v.238c.136.17.238.238.272.238A1.255,1.255,0,0,1,11.68.3l.272.238a1.019,1.019,0,0,1-.645.306c-.238,0-.34.272-.34.849a.308.308,0,0,1,.1.238L11,2.782a1.262,1.262,0,0,0-.645-.306A17.431,17.431,0,0,0,10.9-.24c2-5.874,3.056-8.829,3.158-8.9q.255-.56,1.935-5.5A19.613,19.613,0,0,1,17.622-19.086ZM10.05-12.125a11.077,11.077,0,0,1,1.935-2.207,22.708,22.708,0,0,1,3.565-3.633c0,.1-.849,2.649-2.547,7.674-.577,1.868-.985,2.818-1.154,2.818a29.618,29.618,0,0,0-.17-3.056,1.283,1.283,0,0,0-.475-1.154C10.423-11.853,10.05-11.989,10.05-12.125Zm7.233-1.222a1.758,1.758,0,0,1,.374-1.222l.034.238v.17c-.2.509-.34.781-.34.815Zm-.407,1.121a1.17,1.17,0,0,1,.34-.781v.2a1.808,1.808,0,0,1-.2.815c-.068-.034-.136-.068-.136-.136Zm-.2.543.068.034a1.936,1.936,0,0,1-.034.441,36.628,36.628,0,0,1-1.324,4.177A17.462,17.462,0,0,1,14.294-3.5l-.238.747a2.084,2.084,0,0,0-.475,1.494,14.111,14.111,0,0,0-1.7,3.735Q10.967,4.666,9.235,9c-.509,1.6-.917,2.377-1.256,2.377H7.945L9.031,8.486c.611-1.256,1.053-2.275,1.358-3.09l1.664-4.312a10.476,10.476,0,0,0,.917-2.547A17.8,17.8,0,0,0,14.26-5.1v-.17c0-.068-.034-.068-.068-.1,0-.034.068-.1.272-.238C14.6-5.843,15.313-7.846,16.671-11.683Zm17.25,5.806c0-.2.136-.441.475-.713.2-.475.407-.713.577-.713A2.98,2.98,0,0,1,33.921-5.877ZM31.374-3.3a1.567,1.567,0,0,1,.713-.781q.306-.611.611-.611h.034A2.934,2.934,0,0,1,31.408-3.3ZM8.9-1.089h.068v.1H8.929A.125.125,0,0,0,8.9-1.089ZM8.624-.071c.068-.1.1-.136.136-.136h.034c0,.034.034.068.068.136q0,.153-.2.2L8.624.065ZM8.25,1.016c0-.238.1-.34.34-.407l.068.034c0,.034-.068.272-.2.747h-.17l-.034-.2Zm-.17.917c.034-.1.068-.17.136-.17h.068v.1c0,.034-.068.068-.17.136C8.114,1.967,8.114,1.933,8.08,1.933Zm-.1.645c.068-.1.136-.17.17-.17a1.272,1.272,0,0,0-.034.272Zm16.672.068a.58.58,0,0,0-.577.407v.068C24.481,3.019,24.651,2.85,24.651,2.646Zm-13.99.34h.034a.257.257,0,0,0,.034.136c0,.1-.034.17-.136.17l.068.509q-.1,0-.306.2-.153.611-.306.611V4.479A6.31,6.31,0,0,0,10.661,2.985Zm-2.886.34c0-.034.034-.068.068-.1v.1ZM23.361,3.6a1,1,0,0,0-.679.374,10.32,10.32,0,0,0-2.445,1.664v.1h.034a.629.629,0,0,0,.577-.306,15.9,15.9,0,0,0,2.513-1.8ZM9.948,4.819h.068v.1H9.948ZM9.4,5.8a2.5,2.5,0,0,1,.441-.577c0,.068-.068.34-.136.747Zm9.677-.475a1.828,1.828,0,0,0-.034.374L18.5,5.634l-.883.645a14.891,14.891,0,0,0-2.784,1.766v.068A13.929,13.929,0,0,0,17.215,7.06c1.358-.849,2.037-1.29,2.105-1.29-.068-.272-.136-.441-.2-.441Zm.951.475c-.306.068-.441.136-.441.17v.1a.09.09,0,0,0,.1.1h.2c.068-.034.1-.1.17-.238A.257.257,0,0,0,20.033,5.8Zm-1.29.713v.068c0,.068.034.1.068.1a.09.09,0,0,0,.1-.1c0-.034-.034-.068-.1-.068Zm-.34.306V6.89c0,.068,0,.1.068.1a.09.09,0,0,0,.1-.1c0-.034-.034-.068-.1-.068ZM7.843,8.011a1.465,1.465,0,0,1,.475-1.087h.068C8.148,7.637,7.979,8.011,7.843,8.011ZM8.929,7.23c0-.034.034-.068.1-.068h.1c-.034.1-.068.17-.1.17h-.1ZM7.809,9.607c.068,0,.1.034.1.068v.068A4.587,4.587,0,0,1,7.367,11.3c0,.272-.2.475-.679.611l-.034-.068A5.257,5.257,0,0,1,7.809,9.607ZM6.451,12.731a2.068,2.068,0,0,1,.543-.374q-.2.815-.306.815h-.17A3.567,3.567,0,0,0,6.451,12.731ZM5.33,14.259a.217.217,0,0,1,.238.17c0,.034-.034.068-.17.1-.034,0-.068-.068-.068-.2Zm-.407,1.494c0,.034,0,.034-.034.034a.3.3,0,0,0,.17.272h.1c.034,0,.068-.034.068-.1v-.068C5.228,15.821,5.126,15.787,4.923,15.753Zm.238,1.46c-.17.17-.238.272-.272.272s-.068-.034-.068-.1c-.136.068-.2.136-.2.17h.272a1.27,1.27,0,0,0-.17.509v.068h.034a.993.993,0,0,0,.441-.781C5.194,17.315,5.16,17.281,5.16,17.213Zm-1.222.374c-.034,0-.068.068-.136.17l.1.068h.2a.09.09,0,0,0,.1-.1c-.068-.068-.1-.136-.136-.136Zm-.849.781a.452.452,0,0,0-.1.272v.034h.136c.136-.068.2-.136.2-.17v-.034A.591.591,0,0,1,3.089,18.367Zm1.358,0a1.06,1.06,0,0,0-.374.679.451.451,0,0,0,.1.238c.1-.1.17-.136.238-.136a2.9,2.9,0,0,1,.2-.645c0-.068-.034-.1-.034-.136Zm-1.324.475a2.126,2.126,0,0,0-.475.136,3.063,3.063,0,0,1,.1.509h.034c.1-.034.238-.2.374-.509A.257.257,0,0,0,3.123,18.843Zm.441.136c-.136.068-.17.136-.17.17v.034c.034.1.068.136.136.136l.1-.1A1.384,1.384,0,0,0,3.564,18.979Zm.306.543c-.034,0-.1.034-.272.068a1.4,1.4,0,0,1-.34.713v.136l.034.068c.441-.17.645-.441.645-.747v-.1Zm-2,1.358c-.2.034-.34.1-.34.17.068.1.136.17.17.17h.238L2,21.152Zm1.222.441c-.17.1-.272.2-.272.272.034.1.068.17.136.17h.034c.068,0,.1-.1.136-.34ZM1.866,22.408v.034a.09.09,0,0,0,.1.1H2v-.136Zm-.068.407c-.034,0-.1.034-.2.17,0,.136.034.2.1.238h.068c.068,0,.136-.1.17-.34Zm.713.238c-.272,0-.407.1-.407.272l.034.068C2.41,23.359,2.512,23.257,2.512,23.053ZM62.525-28.152a4.9,4.9,0,0,0-.611.407,3.134,3.134,0,0,0-1.426,1.188,1.021,1.021,0,0,1,.238.475l-.272.306c-.407.951-1.222,2.988-2.411,6.112a12.373,12.373,0,0,0-1.053,3.056,30.019,30.019,0,0,0-1.664,4.72,66.735,66.735,0,0,0-2,6.52,12.964,12.964,0,0,0-.645,2.139,8.962,8.962,0,0,0-.509.985,2.638,2.638,0,0,1-.34,1.222A4.228,4.228,0,0,1,51.422.031q-.662,1.935-.713,2.241c0,.034.034.068.034.1h.034a1.4,1.4,0,0,1,.34-.713c.136-.611.306-.917.475-.917.034,0,.034.068.068.272a1.047,1.047,0,0,0-.034.34,15.2,15.2,0,0,0-.747,1.969h-.34c-.034,0-.1.136-.272.441a9.459,9.459,0,0,0-.679,1.969l.068.034h.034c.1-.441.272-.679.407-.679l.068.034a10.266,10.266,0,0,1-.2,1.121,5.4,5.4,0,0,1-.713,1.7,2.839,2.839,0,0,1-.475,1.426c-.1.645-.272.985-.577.985,0,.068.034.238.068.509-.068.2-.1.306-.17.306-.1,0-.17-.034-.17-.1l.238-.849a5.15,5.15,0,0,0,.407-1.087c-.2,0-.34.068-.34.238a9.99,9.99,0,0,0-.883,2.615.125.125,0,0,0,.034.1c.136,0,.272-.272.441-.781h.2a11.034,11.034,0,0,1-.441,1.6,6.846,6.846,0,0,1-.815,2.139c-.34.034-.509.1-.509.17s.17.136.441.17A2.322,2.322,0,0,0,46.4,16.5v.272l-.17.034h-.17v-.1c0-.034-.034-.1-.17-.136-.136,0-.2.17-.238.475v.1h.374c0,.2-.068.611-.136,1.154h.034a.293.293,0,0,0,.2-.1c.543-1.6.917-2.581,1.087-2.92.17-.475.374-1.121.645-2a12.056,12.056,0,0,1,.577-1.528,8.937,8.937,0,0,1,.985-2.513,12.944,12.944,0,0,1,.645-2.241q.306-.662,2.139-5.908a19.273,19.273,0,0,1,1.256-3.328A3.982,3.982,0,0,0,53.9-3.6l.543-1.426q.357-1.579.611-1.732c.068-.713.238-1.053.509-1.053a10.291,10.291,0,0,1-.374.985,3.821,3.821,0,0,1-.475,1.63L52.135,2.374A22.862,22.862,0,0,1,50.81,6.109a32.015,32.015,0,0,0-1.019,3.4c-.306.815-.645,2.037-1.087,3.667-.17,0-.407.611-.679,1.834,0,.034,0,.068.034.068a2.967,2.967,0,0,0,.849-1.256q.306-1.121.407-1.121a3.7,3.7,0,0,0,.543-1.46,5,5,0,0,0,.306-.917c0-.034,0-.068-.068-.068h-.17l.034-.34.238.068h.136c.068,0,.17-.238.272-.679a8.652,8.652,0,0,1,.509-1.834,12.376,12.376,0,0,0,.713-1.732V5.6L51.8,5.532l-.136.068c-.034,0-.068-.034-.068-.17V5.362c.306,0,.543-.34.713-.951a3.217,3.217,0,0,1,.543-1.562A14.6,14.6,0,0,1,53.561.676,1.486,1.486,0,0,1,54-.41a8.983,8.983,0,0,1,.509-1.29c.136-.543.34-1.222.611-2a7.766,7.766,0,0,0,.951-2.75c0-.17.136-.34.34-.577a8.878,8.878,0,0,1,.543-1.63,5.673,5.673,0,0,1,.781-1.969c.272-.951.509-1.664.679-2.105a3.338,3.338,0,0,0,.475-1.358h.068l.068.238a1.444,1.444,0,0,1-.068.374,19.657,19.657,0,0,0-.747,2.105A14.951,14.951,0,0,0,57.4-9.239a25.628,25.628,0,0,1-1.188,3.565c-.272,1.121-.441,1.664-.543,1.664a10.675,10.675,0,0,1-.441,1.358c-.238.475-.883,2.309-2,5.433a22.477,22.477,0,0,1-1.154,3.43,23.047,23.047,0,0,1-.917,2.581c-.509,1.188-1.868,5.161-4.041,11.986a25.1,25.1,0,0,0-1.053,3.6,17.988,17.988,0,0,0-.645,1.834,3.161,3.161,0,0,1-.577,1.426A17.6,17.6,0,0,0,43.136,31H43.1v-.034a2.694,2.694,0,0,1,.17-.509.346.346,0,0,0-.272-.17,14.393,14.393,0,0,0-.815,1.766h-.034v-.034c.068-.543.1-.951.136-1.154l-.068-.034a2.545,2.545,0,0,1,.238-.747,9.008,9.008,0,0,1,.645-2.037,1.709,1.709,0,0,0-.136-.543s.136-.17.374-.441a3.934,3.934,0,0,1,.543-1.494c-.34-.272-.509-.475-.509-.645a2.987,2.987,0,0,0,.272-1.087v-.306h.034a.286.286,0,0,1,.238.136V23.7a2.293,2.293,0,0,1-.068.475l.034.068h.068c.238-.1.374-.407.374-.849v-.034h-.034a.885.885,0,0,0-.374.1h-.068c0-.441.136-.645.374-.645h.034l.068.2h.068v-.272a1.817,1.817,0,0,0,.34-.883c-.2-.068-.34-.1-.34-.17v-.374a4.319,4.319,0,0,0,.543-.985v-.1L44.9,20h-.068a.451.451,0,0,0-.238.1,8.119,8.119,0,0,1-.679,1.9v.034a.472.472,0,0,0,.17.34h.068l.068-.034v.238a.7.7,0,0,0-.645.407,7.44,7.44,0,0,1-.679,2.071,41.843,41.843,0,0,0-1.868,6.927v.2a6.24,6.24,0,0,0,.407,1.053,1.71,1.71,0,0,0,.951.747,2.231,2.231,0,0,0,.441-.1c.34.034.509.034.543.034a3.158,3.158,0,0,0,.917-.306h.272c.17,0,.407-.2.815-.645a47.058,47.058,0,0,0,3.362-6.316c1.834-3.294,5.2-8.421,10.017-15.416,1.019-1.494,1.7-2.241,2.037-2.275h.068c.136,0,.2.034.238.17Q60.59,13,59.877,16.16a39.82,39.82,0,0,0-1.494,7.131v.068l-.034.136a3.735,3.735,0,0,0,.238,1.087,4.327,4.327,0,0,0,3.667,1.8L63,26.313a13.723,13.723,0,0,0,5.535-2.852c1.8-1.46,2.683-2.343,2.716-2.615.238-.306.577-.679,1.019-1.188a.033.033,0,0,1-.034-.034,11.715,11.715,0,0,0-2.139,1.7c-.272-.068-.374-.136-.374-.306l.2.034a1.335,1.335,0,0,0,.2-.068l-.034-.17v-.1a.645.645,0,0,1,.1-.306,20.212,20.212,0,0,0,1.969-2.037c.951-.951,1.426-1.528,1.426-1.7q1.324-.917,1.324-1.63l.068.034h.17l.068-.034a.483.483,0,0,1,.068.2h.1l.068-.034a2.51,2.51,0,0,1,.475-1.154c-.034,0-.034,0-.034-.034a3.124,3.124,0,0,0-.713.441c-1.121,1.154-2.241,2.241-3.4,3.26q-.407.458-.815,1.019c-.17,0-.374.17-.645.543-.034.17-.1.272-.2.272-.238,0-.883.509-2,1.528-2.139,2-3.667,2.988-4.516,2.988-.611,0-.917-.543-.917-1.6a38.274,38.274,0,0,1,1.46-7.5,28.087,28.087,0,0,0,1.392-6.961,11.041,11.041,0,0,0-.068-1.121A1.717,1.717,0,0,0,65,5.6c-.306-.645-.543-1.019-.747-1.087a2.074,2.074,0,0,0-1.528-.577h-.407q-.509,0-1.222,1.121a18.319,18.319,0,0,0-2.037,2.377c-2.988,3.8-5.093,6.553-6.35,8.319A31.447,31.447,0,0,1,50.1,19.522q-1.732,2.6-2.241,3.26l.2-.645,1.222-3.667c.136-.34.509-1.324,1.053-2.954Q56.04-.376,58.62-8.016c1.358-3.8,2.037-5.806,2.037-6.044,1.494-4.109,2.479-6.893,2.988-8.319.577-1.9.951-3.124,1.154-3.633-.068-.407-.1-.781-.136-1.087,0-.713-.374-1.053-1.121-1.053a2.791,2.791,0,0,1-.713.068A.5.5,0,0,1,62.525-28.152ZM59.469-15.487h.1l-.034.238h-.068Zm-.306.985c0-.306.034-.441.1-.441H59.3c0,.034-.034.2-.068.441Zm-2.988,4.278h.068a2.867,2.867,0,0,1-.068.645h-.068C56.108-9.68,56.142-9.918,56.175-10.223ZM55.734-8.7h.034v.034c-.068.407-.136.611-.238.611A1.293,1.293,0,0,1,55.734-8.7ZM52.2-.953c.068-.645.2-.985.374-.985l-.034.34a1.72,1.72,0,0,0-.272.645Zm-.238.441H52.1l.034.17v.034a.354.354,0,0,1-.238.34ZM50.539,3.563h.034c0,.068.034.1.034.136,0,.068,0,.068-.068.068Zm-.034.306c.136.068.17.1.17.136v.034c-.068.17-.136.272-.17.272h-.136A2.685,2.685,0,0,1,50.5,3.868Zm-.2.645h.068v.068H50.3Zm2.207,14.058a8.333,8.333,0,0,1,.713-2.105c0-.17,1.7-2.547,5.093-7.165l.475-.407a3.291,3.291,0,0,1,.611-.883A8,8,0,0,1,61.71,5.634a1.6,1.6,0,0,1,.17.475,2.977,2.977,0,0,1-.543.815,7.51,7.51,0,0,1-1.188,1.6,1.224,1.224,0,0,0-.509.679c0,.034-1.8,2.377-5.365,7.1a12.679,12.679,0,0,1-1.732,2.275ZM49.656,5.906c-.136,0-.2.136-.238.34l.068.034h.1c.034,0,.068-.1.1-.34C49.656,5.94,49.656,5.94,49.656,5.906Zm-.645,1.6c-.272,0-.441.34-.509.985v.238h.034a2.134,2.134,0,0,0,.577-1.087C49.079,7.637,49.045,7.6,49.011,7.5ZM50.335,8.52h.238v.136h-.136q-.1-.051-.1-.1Zm-3.09,3.8c0,.034-.034.136-.068.306l.17-.034v-.1l-.034-.17Zm29.61,1.087h-.068a.9.9,0,0,1-.747.374c.068.306.136.441.136.475a.662.662,0,0,0,.272-.034c.374,0,.645-.238.815-.747A.975.975,0,0,0,76.855,13.41Zm-.679.951c-.17.034-.272.068-.272.136v.034c.068.1.136.17.17.17s.1-.1.136-.272Zm-.509.441q-.051,0-.1.306l.068.034a.318.318,0,0,0,.2-.272.073.073,0,0,0-.068-.068Zm-13.209.509a.149.149,0,0,1,.1.034v.068a.372.372,0,0,1-.136.068v-.034Zm12.835.1c-.17,0-.238.1-.272.34a.033.033,0,0,1,.034.034A.431.431,0,0,0,75.293,15.413Zm-29.066.034a1.135,1.135,0,0,0-.272.611.033.033,0,0,1,.034.034c.272,0,.407-.17.407-.577v-.068Zm1.8.272c-.034,0-.068.034-.1.034a2.866,2.866,0,0,1-.272,1.155v.306c-.238.17-.34.306-.34.374v.068h.068a.548.548,0,0,0,.306-.1,7.722,7.722,0,0,0,.509-1.63v-.034A.409.409,0,0,0,48.026,15.719Zm-2.105,2.716c-.2,0-.34.272-.374.781,0,.034.068.068.17.136a1.386,1.386,0,0,0,.306-.679v-.136C45.955,18.469,45.955,18.435,45.921,18.435Zm1.154.2a.6.6,0,0,0-.238.272c.068.136.17.238.238.238s.1-.17.1-.441v-.068Zm-1.969.17v.136l.034.068.068-.034-.034-.17Zm.509.645q-.2,0-.407.306v.034a.545.545,0,0,0,.17.374c.068,0,.136-.2.272-.611A.149.149,0,0,1,45.615,19.454Zm5.7.068a1.272,1.272,0,0,0,.272.034v.034l-.17.034h-.068A.263.263,0,0,0,51.32,19.522Zm8.251.679a.073.073,0,0,1,.068.068V20.4h-.068Zm-14.261.068c-.2,0-.306.068-.306.17l.068.034h.17a.073.073,0,0,0,.068-.068Zm14.092.543a.259.259,0,0,1,.238-.272l-.034.306h-.2Zm-12.9-.272q-.1.051-.1.1v.136a.073.073,0,0,0,.068.068h.068q.1,0,.1-.2c0-.068,0-.1-.068-.1Zm-1.358.2c-.17,0-.306.238-.374.747l.034.068c.034,0,.068-.034.1-.034a1.3,1.3,0,0,0,.306-.509A.64.64,0,0,0,45.14,20.744Zm.917.475v.272l.034.17h-.034a3.119,3.119,0,0,0-.543.917c0,.068.1.2.306.374h.1c.034,0,.068-.17.136-.441l.34-1.154c-.034-.1-.1-.136-.238-.136Zm22.75.238c.238,0,.34.068.34.136v.034a1.359,1.359,0,0,1-.407.34l-.034-.17A.759.759,0,0,1,68.807,21.457Zm-8.014,1.426a2.856,2.856,0,0,1,.17-.917H61q0,.153-.1.917Zm-16.5-.781a.073.073,0,0,1,.068-.068h.136c0,.136-.034.2-.034.272h-.17ZM60.76,23.121h.1v.2l.034.306c-.068,0-.1-.1-.136-.238Zm-.136.985h.34l-.034.17v.136H60.9l-.238-.034v-.1Zm-15.382.1q-.1.306-.306.306c-.17,0-.238.136-.238.441l.034.068.17-.034c.17,0,.306-.272.407-.781Zm-1.562.441v.034c0,.068-.034.17-.034.306l.1.2c.136,0,.2-.136.238-.374a.226.226,0,0,0-.136-.17Zm1.256.747v.1l.034.068.068-.034L45,25.4Zm-.475.17c-.034,0-.068.1-.136.238a.033.033,0,0,1,.034.034c.2-.034.272-.068.272-.136C44.63,25.668,44.563,25.634,44.461,25.566Zm-.2.34q-.051,0-.1.2v.068a.073.073,0,0,0,.068.068h.34l.1-.068c0-.17-.034-.272-.1-.272Zm-1.222.272h.034v.034l-.034.17H43v-.068A.338.338,0,0,0,43.035,26.177Zm1.324.475c-.034,0-.1.2-.17.645l.068.034c.068,0,.1-.2.136-.611Zm-.306.306q-.1,0-.1.2c0,.034,0,.068.068.068.034,0,.034-.034.034-.068Zm-.068.713c-.17,0-.272.068-.306.17v.136h.238c.034,0,.068,0,.068-.068Zm-.407.849a1.117,1.117,0,0,0-.374.985l.034.17h.068c.238-.136.374-.475.374-1.019ZM96.325-4.621c-.509.1-.781.17-.781.238a2.964,2.964,0,0,0-.441-.17c-.238,0-.611.543-1.087,1.664a16.644,16.644,0,0,0-.781,3.6q.1,1.222.815,1.222h.034Q95,1.933,96.019.2a11.317,11.317,0,0,0,1.392-3.294v-.1C97.411-3.7,97.072-4.145,96.325-4.621ZM93.507,3.766a3.444,3.444,0,0,0-1.358.441,4.93,4.93,0,0,0-1.562,1.358A38.6,38.6,0,0,0,87.8,10.659c-2.275,5.365-3.43,9.27-3.43,11.647v.543a3.373,3.373,0,0,0,.136.951c.679,1.7,2.173,2.547,4.516,2.547,1.766,0,3.8-.849,6.044-2.547a21.017,21.017,0,0,0,3.464-3.056,10.267,10.267,0,0,0,2.241-2.479v-.034a.258.258,0,0,0-.272.2,12.944,12.944,0,0,0-1.63,1.6,11.535,11.535,0,0,0-1.562,1.494,6.314,6.314,0,0,0-.985.781,4.125,4.125,0,0,1-1.256.985,2.515,2.515,0,0,1-1.256.645h-.034a.669.669,0,0,1,.136-.272q.917-.713.917-1.121H94.8a2.558,2.558,0,0,1-1.019.441H93.71c.068-.068.068-.1.068-.136L95.1,21.8a5.481,5.481,0,0,0,1.29-1.053c.475-.272.713-.509.713-.781H96.97v-.2h.1a1.335,1.335,0,0,1,.2.068c.509-.17.747-.306.747-.441,0-.068,0-.1-.068-.1h-.136c0,.1-.136.238-.407.374h-.068l-.034-.238a.715.715,0,0,1,.2-.272v-.034h-.136a2.477,2.477,0,0,1-.645.407A12.078,12.078,0,0,0,95.2,20.846c-.17.136-1.188.883-3.124,2.207a9.033,9.033,0,0,0-1.732.781,3.326,3.326,0,0,1-.883.136l-.543.272a3.028,3.028,0,0,1-.747-.1c-.1,0-.17-.272-.17-.849,0-2.716.883-6.214,2.649-10.526A12.376,12.376,0,0,1,92.42,9.811h.034c.068.34.1.509.1.543a3.592,3.592,0,0,0-.238.747.263.263,0,0,0,.034.1,1.576,1.576,0,0,0,.407-.374,36.914,36.914,0,0,0,1.29-4.109,3.962,3.962,0,0,0,.577-1.6c0-.917-.34-1.358-1.019-1.358Zm-5.976,9.44h.1q0,.2-.1.2Zm1.664.272c.068-.1.136-.136.17-.136l-.034.17Zm-.475.034h.034v.1h-.034Zm14.669.238v.136c0,.068,0,.068.068.068.034,0,.034,0,.034-.068v-.068c0-.034,0-.034-.034-.068ZM88.481,15.04a5.246,5.246,0,0,1,.679-1.188h.034l.068.238a2.507,2.507,0,0,1-.068.407,1.668,1.668,0,0,1-.374.917C88.753,15.413,88.651,15.277,88.481,15.04Zm-.611-.17c.272-.611.407-.951.509-.985l.1.407c-.068.407-.238.611-.577.611C87.9,14.87,87.9,14.87,87.87,14.87Zm15.008-.815-.238.2.034.068a.227.227,0,0,0,.238-.136v-.136Zm.17.136a.073.073,0,0,0-.068.068v.068c0,.034,0,.068.068.068l.136-.1q-.051-.1-.1-.1ZM87.5,14.734a.5.5,0,0,1,.2-.441.6.6,0,0,1-.2.509Zm15.042-.1c-.1.068-.17.136-.17.17s.068.068.2.136a.591.591,0,0,1,.238-.1V14.8c0-.034-.068-.1-.2-.17Zm-1.121.238a13.131,13.131,0,0,0-1.8,1.834v.034a.125.125,0,0,0,.1-.034c.747-.747,1.324-1.358,1.7-1.8Zm1.63.034c-.068,0-.1,0-.1.068v.034l.034.068c.1-.034.17-.068.17-.1v-.034C103.116,14.938,103.082,14.9,103.048,14.9Zm-.917.2v.1a.315.315,0,0,0,.238.306q.2,0,.2-.1l-.34-.306Zm-14.261.441a.18.18,0,0,1,.2-.2h.034C88.108,15.481,88.04,15.549,87.87,15.549Zm13.99-.068c-.068.068-.136.17-.238.272l.238.272.238-.068v-.1Zm-14.7.1a.845.845,0,0,1,.17.238,2.034,2.034,0,0,1-.306.815q-.1-.051-.1-.1V16.5a.745.745,0,0,0,.17-.407.366.366,0,0,1-.068-.238A1.846,1.846,0,0,0,87.157,15.583Zm-.034,3.328a8.56,8.56,0,0,0,1.053-2.649c0-.374.17-.577.543-.577,0,.034,0,.034.068.034v.306c-.374,1.324-.611,2.207-.713,2.683a.924.924,0,0,1-.374.17l.2.577c-.238,1.019-.374,1.6-.407,1.766h-.034v-.034c0-.985-.034-1.7-.034-2.207v-.1l-.034-.068a.525.525,0,0,0-.2.1Zm.713-2.954a.205.205,0,0,1,.1-.2l.034.17v.034l-.068.1c-.034,0-.068,0-.068-.068Zm13.311.17v.068c0,.034,0,.068.068.068v-.136Zm.543.238c-.136.034-.238.068-.238.136v.136h.034l.238-.2Zm-14.5,1.053a.351.351,0,0,0,.238-.17c.1-.509.238-.747.34-.747a3.287,3.287,0,0,1-.374,1.324A.587.587,0,0,0,87.191,17.417Zm14.092-.645v.034l.034.068.136-.034v-.068Zm-14.5.136h.034l.1.509a3.728,3.728,0,0,0-.272.883h-.17C86.681,17.451,86.783,16.975,86.783,16.907Zm13.379.238c-.1.068-.17.136-.17.17s.1.068.238.1c.034,0,.1-.034.238-.136-.034-.1-.1-.136-.238-.136Zm.883,0c-.272.068-.407.17-.407.272a.033.033,0,0,1,.034.034c.238-.068.374-.17.374-.272Zm-2,.238c-.034,0-.068,0-.068.034v.068h.068c0-.034,0-.068.068-.1Zm2.343.1-.441.509v.068h.034a2.175,2.175,0,0,0,.475-.509v-.068Zm-1.053.17-.1.068c.034.136.068.17.1.17h.1q.1-.051.1-.1v-.068c0-.034-.034-.034-.068-.068Zm-1.868.2a.367.367,0,0,0-.136.17c.136,0,.238-.034.238-.1a.073.073,0,0,0-.068-.068Zm.781.068c-.068,0-.068.034-.068.068v.034l.034.068q.1-.051.1-.1A.073.073,0,0,0,99.245,17.926Zm.917.17c-.238,0-.441.17-.679.475v.034a.937.937,0,0,0,.679-.441Zm-1.494.407c-.034,0-.1.068-.136.17v.034H98.6a.293.293,0,0,1,.2-.1v-.068C98.736,18.537,98.7,18.537,98.668,18.5Zm-12.36.1h.034v.17h-.034Zm13.073.1v.1h.034v-.1Zm-.543.441-.034.068v.17h.1c.068-.068.136-.1.136-.136v-.068Zm-11.919.136h.034c.034,0,.068,0,.068.068h-.1Zm-1.7.306c0-.1.068-.17.238-.238v.17a2.217,2.217,0,0,1-.068.374h-.068Zm13.447-.1c-.1.068-.136.1-.136.136h.034c.1-.034.136-.1.136-.136Zm-.713.645q-.306.2-.306.306l.034.068c.2-.068.306-.136.306-.17V20.2Zm-1.63,1.358q-.1.051-.1.1v.068c0,.068.034.068.068.068h.034l.068-.034A1.335,1.335,0,0,0,96.325,21.491Zm-.374.34a.351.351,0,0,0-.17.238V22.1c.2-.034.272-.068.272-.136v-.136Zm-9.066,1.9h.034v.136h-.034Zm6.52.34h.2a.25.25,0,0,1-.272.272A.457.457,0,0,0,93.4,24.072Zm23.545,2.513a7.865,7.865,0,0,0,1.019-.1c.951,0,2.513-.815,4.754-2.479a7.932,7.932,0,0,0,1.868-1.8h.068v.136h.034a.621.621,0,0,0,.2-.272l-.306.1a5.892,5.892,0,0,1-1.6,1.121l-.1-.272a.351.351,0,0,0,.034-.136c.577-.475,1.562-1.426,2.988-2.852,1.9-2.173,2.852-3.4,2.852-3.7a9.866,9.866,0,0,0,1.6-3.667l-.068-.407h-.1a16.83,16.83,0,0,1-1.256,2.445l.1.2.17-.034V14.9c-.136.238-.238.374-.272.374,0-.068,0-.1-.068-.1a4.136,4.136,0,0,1-.577.543,3.434,3.434,0,0,1-.747,1.63v.068h.068a.905.905,0,0,1-.374.441.53.53,0,0,1-.441.374l.374-.951-.034-.034a.643.643,0,0,0-.577.407,4.413,4.413,0,0,1-1.8,1.969,18.7,18.7,0,0,1-2.411,2.207c-2.037,1.664-3.7,2.479-4.958,2.479-1.324-.136-2-1.053-2-2.818a25.254,25.254,0,0,1,.883-5.637,8.764,8.764,0,0,1,1.868-3.8,141.916,141.916,0,0,0,9.576-18c4.38-10.119,6.587-17.148,6.587-21.155a1.333,1.333,0,0,0-.1-.475l-.917-.34C132.6-28.661,132.094-29,131.754-29h-.238a4.369,4.369,0,0,0-2.75,1.324,14.583,14.583,0,0,0-2.954,4.584c-2.479,5.976-4.211,10.289-5.093,12.9Q116.848.659,116.848,1.423V2l-.17-.034A7.8,7.8,0,0,1,116,4.446a2.439,2.439,0,0,1-.441,1.426,4.02,4.02,0,0,1-.849,1.664.541.541,0,0,0,.136.407l-.034.1c-.2.136-.272.747-.272,1.834-.272.815-.475,1.664-.713,2.547a4.119,4.119,0,0,1-.543.645l.272.1a.415.415,0,0,1-.136.306,1.7,1.7,0,0,0-.645.883,47.06,47.06,0,0,0-.917,6.825,17.416,17.416,0,0,0,.17,1.9,3.372,3.372,0,0,0,.679,1.834A5.356,5.356,0,0,0,116.95,26.585Zm4.992-22.75c.068-.2,1.766-3.7,5.093-10.526a8.426,8.426,0,0,1,.713-1.935,11.872,11.872,0,0,1,.951-2.139,9.744,9.744,0,0,1,.883-2,23.046,23.046,0,0,1,.951-3.192,7.767,7.767,0,0,0,.713-2.275,44.179,44.179,0,0,0,1.29-4.278c.374-2.784.679-4.177.883-4.177a2.29,2.29,0,0,1,.1.577,13.39,13.39,0,0,1-.1,1.358c-.441,2.275-.645,3.5-.645,3.633A2.041,2.041,0,0,1,132.3-19.8a6.815,6.815,0,0,1-.543,2,18.406,18.406,0,0,1-1.121,3.192,63,63,0,0,1-3.4,8.353c-.543,1.6-1.019,2.479-1.358,2.649a.254.254,0,0,0,.034.17l-.34,1.019a1.571,1.571,0,0,1-.611.713,9.2,9.2,0,0,1-1.426,2.954A7.715,7.715,0,0,1,121.941,3.834Zm-1.969-.306a5.066,5.066,0,0,1,.2-.883q2.852-8.608,6.214-17.08c2.343-5.84,3.9-9.168,4.652-9.915a12.62,12.62,0,0,1-.475,2.173,12.256,12.256,0,0,0-.509,2.615,5.433,5.433,0,0,0-.645,2.275,8.394,8.394,0,0,1-1.154,2.581,4.759,4.759,0,0,1-.475,1.766,2.357,2.357,0,0,1-.475,1.358c-.306.917-.509,1.392-.645,1.426-.374,1.087-.781,2.071-1.188,3.022-.815,1.6-1.46,2.92-1.9,3.9A7.79,7.79,0,0,1,122.315-.75L121.16,1.729A6.465,6.465,0,0,1,119.972,3.529Zm8.659-26.384H128.6v-.17c0-.034.068-.1.238-.2v.2C128.834-22.991,128.766-22.957,128.63-22.855Zm-.917,1.46-.17-.034a8.448,8.448,0,0,1,.815-1.188l.034.17q0,.2-.306.407A1.966,1.966,0,0,1,127.714-21.395Zm-.951,2h-.068a2.125,2.125,0,0,1,.781-1.834h.034A6.973,6.973,0,0,1,126.763-19.391Zm4.958-1.6h-.034v-.136h.034ZM113.486,15.481a5,5,0,0,1,.17-1.154q.509-2.088,2.139-8.149c1.528-4.686,2.615-7.844,3.26-9.406a17.08,17.08,0,0,1,1.053-2.988c.306-.985.815-2.479,1.562-4.414a38.147,38.147,0,0,1,2.683-6.044,4.937,4.937,0,0,1-.306,1.053c-1.9,4.992-3.056,7.946-3.362,8.93-1.426,3.6-2.105,5.671-2.105,6.214.034,0,.136-.1.306-.272a8.811,8.811,0,0,0,.917-2.683l-.034-.068.374-.713c.2-.645.441-.951.747-.951,0,.034-.2.849-.679,2.479a.033.033,0,0,1,.034.034,1.226,1.226,0,0,0,.306-.306,4.166,4.166,0,0,1,.407-1.358,3.461,3.461,0,0,1,.238-1.087c0-.068,0-.1-.068-.1l-.238.238-.034-.238.034-.509a13.189,13.189,0,0,1,.917-2.275c.068,0,.1.136.136.407a5.885,5.885,0,0,1-.34,1.324v.068c.1,0,.238-.17.441-.509a10.916,10.916,0,0,1,.441-1.63,2.155,2.155,0,0,0-.407-.238.9.9,0,0,1,.272-.747.489.489,0,0,1,.2.238l-.306.306v.1q.153.2.2.2a3.708,3.708,0,0,0,.713-1.732.033.033,0,0,1-.034-.034,1.05,1.05,0,0,0-.272.068l.034.136a.276.276,0,0,1-.272.136.725.725,0,0,1,.441-.747c.034,0,.034,0,.034.034a.09.09,0,0,0-.1.1c.034.068.068.1.136.1s.1-.068.1-.2L123.2-11c.2,0,.272-.238.272-.679,0-.034-.1-.1-.34-.2.034-.1.068-.17.1-.17.272-.747.441-1.256.577-1.528h.034l.1.645.136-.034a2.809,2.809,0,0,0,.611-1.426l-.17.034c-.068,0-.068-.068-.068-.272a1.738,1.738,0,0,1,.713-1.426,1.024,1.024,0,0,0-.136-.441,3.655,3.655,0,0,0,.577-.475l-.272,1.155h.068a36.416,36.416,0,0,1,2.139-4.414,71.832,71.832,0,0,1-2.649,6.995,10.823,10.823,0,0,1-.781,2.309c-.475,1.46-.815,2.445-1.019,2.988a15.78,15.78,0,0,0-1.154,3.463,30.73,30.73,0,0,0-1.188,2.954,24.941,24.941,0,0,1-1.222,3.5c-1.392,4.652-2.479,7.233-3.192,7.708.34-1.358.509-2.071.509-2.173-.068,0-.17.1-.272.272A9.057,9.057,0,0,1,116,9.607h-.034V9.539h-.034c-.238.407-.407.611-.475.611v-.068h-.034a1.638,1.638,0,0,0-.272.407c.034,0,.034,0,.034.034l.17-.034.034.238a.588.588,0,0,1-.17.17c-.2,0-.441.407-.679,1.256a1.471,1.471,0,0,1,.034.17.709.709,0,0,1,.238.577h-.034c-.034-.068-.1-.17-.2-.34h-.034C114,14.53,113.656,15.481,113.486,15.481ZM125.71-17.252a.367.367,0,0,1-.136-.17A1.163,1.163,0,0,0,125.88-18c.272-.679.509-1.019.713-1.087a2.369,2.369,0,0,1-.272.679A2.659,2.659,0,0,1,125.71-17.252Zm-.475-1.46v-.068a.182.182,0,0,1,.136-.1l.034.1Zm-.713,1.8h-.034a2.649,2.649,0,0,1,.475-1.256l.068.034A4.9,4.9,0,0,1,124.522-16.913Zm.815.034c-.068,0-.068-.034-.1-.068v-.034a1.471,1.471,0,0,0,.17.034A.073.073,0,0,1,125.337-16.879Zm-1.222,3.226h-.034a.227.227,0,0,1-.136-.238.85.85,0,0,1,.17-.374.423.423,0,0,1,.136.374A.427.427,0,0,0,124.114-13.653Zm-.17,1.426.034-.2h-.034a.182.182,0,0,0-.1.136C123.843-12.261,123.877-12.227,123.945-12.227Zm-.374.34.1-.068c0-.1-.034-.17-.1-.17-.068.034-.1.068-.1.136Q123.52-11.887,123.571-11.887Zm3.973.577h-.068v-.1h.068Zm-.374.849h-.034V-10.6h.034Zm-7.165,8.353c.1-.068.17-.136.17-.2l-.034-.068c-.1.1-.17.17-.17.2Zm1.087.306v-.17h.034l.034.1C121.16-1.836,121.16-1.8,121.092-1.8Zm-1.222.272.2-.17a.3.3,0,0,0-.17-.272l-.2.17A.3.3,0,0,0,119.87-1.531Zm-.509,1.256c.238,0,.374-.34.441-1.053a.073.073,0,0,0-.068-.068H119.7c-.1,0-.238.374-.374,1.087A.033.033,0,0,1,119.361-.274Zm1.494-.645v-.136c.034,0,.034,0,.034.068C120.889-.953,120.889-.919,120.855-.919Zm-1.834.374c.068,0,.1-.034.136-.136h-.034c-.068.034-.136.1-.136.136Zm1.6.17v-.17h.034l.034.136ZM118.138.812A2.447,2.447,0,0,0,118.58-.41h-.034c-.17,0-.34.407-.475,1.188ZM116.95,6.687c.136,0,.34-.407.645-1.256l-.034-.068a.125.125,0,0,1,.034-.1,6.6,6.6,0,0,0,.543-1.528A35.085,35.085,0,0,0,119.259.2h-.034c-.068,0-.238.306-.475.917a19.961,19.961,0,0,1-1.087,2.988,1.029,1.029,0,0,0-.34.306c0,.17.068.238.2.238a2.932,2.932,0,0,1-.272.951,1.125,1.125,0,0,0-.509-.136,1.684,1.684,0,0,0-.34.679c0,.068.068.136.238.17l.272-.034v.407Zm1.087-5.331c0-.068.034-.1.1-.17,0-.068-.034-.068-.1-.068-.034,0-.068.068-.068.238Zm.441.2-.034-.2h-.034l-.2.136C118.206,1.559,118.274,1.559,118.478,1.559Zm-.849.917.136-.441h-.034c-.1.1-.17.136-.17.17v.272Zm.34.17.2-.136a.186.186,0,0,0-.136-.2c-.1.068-.136.1-.136.17S117.934,2.578,117.968,2.646Zm-.815,1.562a3.124,3.124,0,0,0,.238-.985c-.068-.17-.136-.238-.238-.238a8.711,8.711,0,0,0-.238,1.155C116.916,4.174,117.018,4.208,117.153,4.208Zm.509-.577c.1-.068.17-.136.17-.2-.034-.068-.068-.1-.068-.136H117.7c-.034,0-.1.034-.136.136A.294.294,0,0,0,117.663,3.631Zm2,.509.136-.34h.034V4C119.836,4.072,119.768,4.106,119.666,4.14Zm-2.071.34V4.31h.034l.034.136Zm-.815.781a.939.939,0,0,0,.17-.543c.034,0,.1.136.17.441a.506.506,0,0,0,.2-.238c-.2-.374-.306-.543-.34-.543l-.068.034c0-.034,0-.034-.034-.034-.068.034-.136.238-.238.645l.068.238Zm4.55-.306a.559.559,0,0,1,.272-.509A.53.53,0,0,1,121.33,4.955Zm-4.211.849h-.034V5.668h.068Zm-.034.238h-.136V5.974h.2C117.153,6.041,117.153,6.041,117.085,6.041Zm-.747,1.053c.238,0,.374-.2.374-.543,0-.034-.068-.068-.17-.1-.238,0-.34.136-.34.441Zm-.407.441c.034,0,.136-.238.238-.747H116.1c-.17.136-.272.238-.272.407A1.107,1.107,0,0,0,115.931,7.536Zm-.475,2.105.068-.034-.034-.441.136-.849c-.136,0-.272.441-.407,1.29l.068.034ZM113.113,14.9q-.051,0-.1-.2h.1Zm1.935.136c-.034-.034-.068-.034-.17-.034a2.078,2.078,0,0,1,.17-.2Zm-.577.1H114.4v-.17h.034Zm.441,1.766a1.889,1.889,0,0,1-.441-.374,4.744,4.744,0,0,1,.475-1.154q.153.051.2.306c0,.272-.034.543-.034.849A.808.808,0,0,1,114.912,16.907Zm-.985-.543h-.2a4.576,4.576,0,0,1,.34-.951.842.842,0,0,1,.238.611C114.3,16.194,114.165,16.33,113.928,16.364Zm-.577-.068a.073.073,0,0,1-.068-.068v-.17c.034-.17.1-.272.136-.272l.034.2A1.418,1.418,0,0,1,113.35,16.3Zm.509.781c0-.17.1-.238.272-.238A.242.242,0,0,1,113.86,17.077Zm-.815,1.053c-.068-.034-.136-.1-.136-.136l.136-.2a1.174,1.174,0,0,0-.1-.407.542.542,0,0,1,.1-.272c.17.1.238.2.238.306A1.851,1.851,0,0,1,113.045,18.13Zm1.29,4.516H114.3c-.136-.747-.2-1.121-.2-1.154-.1-.781-.136-1.188-.2-1.188a.367.367,0,0,0-.238.1h-.1a3.082,3.082,0,0,0,.306-.781q.2,0,.509-1.732l-.034-.238c0-.306.2-.441.577-.441.068,0,.068.136.068.441l-.34,2.581a2.105,2.105,0,0,1-.374.1V20.4l.272.543Zm-.374-5.093c0-.068-.034-.1-.068-.1l.068-.2c.034,0,.068.068.136.2Zm.509.407a.073.073,0,0,0,.068-.068c0-.068-.034-.068-.068-.1h-.034v.1Zm-.747,1.426h-.034c0-.17-.1-.306-.306-.475a.469.469,0,0,0,.306-.17c.034-.509.1-.781.272-.781A3.933,3.933,0,0,1,113.724,19.386Zm11.07,1.29-.136-.068a10.853,10.853,0,0,1,.883-1.019c.543-.781.917-1.188,1.188-1.256a1.4,1.4,0,0,1-.238.407A23.557,23.557,0,0,0,124.793,20.676Zm-11.885-.883h-.136l.1-1.426.2.543Zm-.272.475V20.1h.034c0,.068,0,.1.034.136Zm.883.577h-.136l.034-.068c.034,0,.068.034.1.034Zm30.37,5.739q2.394,0,5.7-2.445a24.268,24.268,0,0,0,3.769-3.362c3.226-3.633,4.822-6.689,4.822-9.134.374-.136,1.053-.306,2-.543,2.649-.781,3.973-1.222,3.973-1.392q0-.051-.2-.1a1.076,1.076,0,0,1-.781.306,7.184,7.184,0,0,1-1.6.441.64.64,0,0,1-.272-.068q.662-.357,3.158-1.324a2.455,2.455,0,0,0,1.256-.374q1.222-.255,1.222-.407l-.407-.034-.068.17a.542.542,0,0,1-.272-.1,2.444,2.444,0,0,1-.883.272,1.1,1.1,0,0,1-.611.2l-.1-.068a4.7,4.7,0,0,1-1.053.238,2.337,2.337,0,0,1-.441-.068c-.034,0-.068,0-.068.068,0,.272-.407.475-1.222.577a6.074,6.074,0,0,1-1.63.374,1.2,1.2,0,0,1-.475-.1l.034-.1a.577.577,0,0,0,.34-.2l-.034-.034c-.407.034-1.154.136-2.241.34l-.238-.475A11.071,11.071,0,0,0,155.4,6.381a8.153,8.153,0,0,0-3.124-2l.068-.136q.917-.764.917-1.222a1.8,1.8,0,0,0-.374-.917,2.513,2.513,0,0,0-1.8-.713h-.238c-1.154,0-2.513.747-4.143,2.241a27.447,27.447,0,0,0-2.988,3.7c-2.071,3.226-3.124,5.467-3.124,6.723a.469.469,0,0,0,.17.306,1.283,1.283,0,0,1-.374,1.087l-.068-.815h-.068l-.034.238a19.635,19.635,0,0,0-1.121,5.6,5.594,5.594,0,0,0,2.037,4.788A3.782,3.782,0,0,0,143.89,26.585Zm-.917-16.5-.136-.034v-.2c0-.034.2-.407.577-1.087a12.821,12.821,0,0,1,2.207-3.328c.645-.917,1.154-1.494,1.6-1.63a.988.988,0,0,0-.17.34c-.306.306-1.426,1.834-3.362,4.516A6.541,6.541,0,0,1,142.973,10.082Zm7.98-4.992h-.068v-.1h.034Zm1.6,5.229a3.9,3.9,0,0,1-2.173-.543c-.611-.136-.917-.679-.917-1.664,0-.713.136-1.053.374-1.053a.215.215,0,0,1,.17.2h.068V7.128a1.653,1.653,0,0,1,.034-.407c-.034,0-.1.034-.2.136-.034,0-.068-.034-.1-.136.238-.645.441-.951.679-.951l.034.238h.034a1.012,1.012,0,0,1,.475-.17c.645,0,1.528.577,2.683,1.732a6.744,6.744,0,0,1,1.7,2.513A19.955,19.955,0,0,1,152.549,10.32Zm-2.207-.747a6.337,6.337,0,0,1-.306-2.071h-.068a2.664,2.664,0,0,0-.068.747,2.7,2.7,0,0,0,.068.883c.136,0,.272.136.306.441Zm17.114-1.562c.374-.034.577-.136.577-.34,0-.034-.1-.1-.272-.136-.2,0-.306.17-.34.441Zm-.441-.034c.034,0,.068-.034.068-.1s-.034-.068-.068-.1c-.034,0-.068.034-.068.1S166.98,7.977,167.014,7.977Zm.272.2a.205.205,0,0,0,.2-.1l-.374-.1a.073.073,0,0,0-.068.068C167.082,8.147,167.15,8.181,167.286,8.181Zm-5.806.951.068-.034a.073.073,0,0,0-.068-.068h-.136C161.378,9.1,161.411,9.131,161.479,9.131Zm-.509.17.1-.034V9.2L161,9.1c-.1.034-.136.068-.136.17ZM143.992,24.038l-1.019-.068a10.4,10.4,0,0,1-.441-2.445,11.778,11.778,0,0,1,.917-4.041,52.312,52.312,0,0,1,2.105-5.331,21.6,21.6,0,0,1,1.732-2.988,4.642,4.642,0,0,0,.34.917c.815,1.63,2.513,2.445,5.127,2.445a12.594,12.594,0,0,0,2.513-.238,10.189,10.189,0,0,1-2,4.278,20.963,20.963,0,0,0-1.528,2.139.033.033,0,0,1,.034.034l.306-.1a8.686,8.686,0,0,1,.917-.815c.238.034.34.1.34.2q.255,0,.407-.407c1.766-3.09,2.615-4.89,2.615-5.467,0-.068.238-.136.645-.2h.034v.2a18.925,18.925,0,0,1-1.358,3.667c-.475.611-.849,1.154-1.188,1.63-.374.34-.543.611-.543.883-.238.068-.34.136-.34.2l.238.136v.034a.136.136,0,0,0-.068.136l-.1-.034c-.1,0-.136,0-.136.034-.34,0-.543.306-.645.951l-.407-.034a7.2,7.2,0,0,0-.475.713c-.272.136-.374.238-.374.374l.2.306a1.326,1.326,0,0,0-.475-.068c-.781.407-1.188.747-1.188,1.019l.1.441a.872.872,0,0,0-.441-.306c-.068,0-.136.2-.238.645-.136-.1-.2-.17-.238-.17h-.407c.815-.917,1.256-1.426,1.29-1.494.374-.272.543-.475.543-.713-.1,0-.272.1-.509.34-1.6,1.494-2.75,2.241-3.4,2.241A11.038,11.038,0,0,1,143.992,24.038Zm16.4-14.669V9.335l-.136-.034a.033.033,0,0,1-.034.034C160.223,9.369,160.291,9.369,160.393,9.369Zm4.007.238.238-.034c0-.034,0-.068-.068-.1l-.2.068Zm-8.082.374h-.034l.034-.1Zm1.664.068q.051-.1.1-.1Q158.033,10.048,157.982,10.048Zm-14.16,2.343V11.95c0-.034.068-.068.238-.17C144.06,12.187,143.958,12.391,143.822,12.391Zm-1.392,2.716h-.068a2.443,2.443,0,0,0,.272-.917h.374l-.034.238C142.906,14.87,142.736,15.108,142.43,15.108Zm-1.29,3.9a.525.525,0,0,0-.1-.2,6.177,6.177,0,0,1,.374-1.426c.17-.849.306-1.29.441-1.29a3.421,3.421,0,0,1,.068.645.262.262,0,0,0-.238.272c0,.034.034.136.068.374l-.136.475C141.615,18.5,141.445,18.877,141.14,19.013Zm.917-1.256.034-.34c.1.1.17.136.2.136v.068Zm.068.849a.822.822,0,0,1-.441-.136,1.987,1.987,0,0,0,.441-.475Zm8.659,1.868a1.2,1.2,0,0,0,.543-.2c.985-.815,1.494-1.528,1.494-2.139h-.034l-.475.577a.685.685,0,0,1-.679.577,1.343,1.343,0,0,1-.238-.17,4.655,4.655,0,0,0-.645.917Zm-8.862-1.426v-.272h.034l.034.17C141.989,19.013,141.955,19.047,141.921,19.047Zm-.645,3.158a1.667,1.667,0,0,1-.1-.407c.1-.815.17-1.324.17-1.46.136-.475.238-.781.238-.849l-.034-.2a1.418,1.418,0,0,1,.306-.1,5.786,5.786,0,0,1-.1,1.256C141.649,21.627,141.513,22.2,141.276,22.2Zm-.645,1.222a2.59,2.59,0,0,1-.509-1.8,10.217,10.217,0,0,1,.272-2.071c.374,0,.543.17.543.475s-.1,1.29-.306,2.886c.034.238.068.374.136.374C140.732,23.359,140.664,23.427,140.63,23.427Zm9.338-.611c-.1-.034-.136-.068-.136-.136l.2.034a.125.125,0,0,1,.1-.034v.068C150.07,22.748,150.036,22.782,149.968,22.816Zm-1.087.747v-.1c0-.17.1-.238.34-.238A.3.3,0,0,1,148.882,23.563Zm-7.131.272h-.136l.034-.509h.1Zm42.085-24.89c-1.562,0-3.294,1.053-5.229,3.158-1.969,2.343-2.92,4.448-2.92,6.35a5.7,5.7,0,0,0,.1.985l-.034.441.374,2.75a24.941,24.941,0,0,1,.611,2.784l-.1.883a2.918,2.918,0,0,0,.374,1.188,37.341,37.341,0,0,1,.849,4.143c-.679.713-1.562,1.528-2.615,2.479a47.161,47.161,0,0,0-3.667,3.531c-2.173,2.309-3.6,3.8-4.278,4.448a34.346,34.346,0,0,1-2.581,2.75c-3.9,3.973-5.84,7.368-5.84,10.187a4.9,4.9,0,0,0,2.275,4.143A12.322,12.322,0,0,0,167.367,51h.238a15.438,15.438,0,0,0,8.659-3.056,19.083,19.083,0,0,0,3.09-2.615c2.784-2.784,4.177-6.486,4.177-11.171v-.611a37.088,37.088,0,0,0-1.766-10.56.125.125,0,0,1,.034-.1c1.087-.917,2.479-2,4.177-3.226q6.774-4.941,12.6-8.9a2.017,2.017,0,0,0-.034-.374c.1-.136.17-.2.306-.2.238.034.34.068.374.068h.068l.17-.645a5.069,5.069,0,0,1,.951-.781V8.792a2.831,2.831,0,0,0-.815.272,4.255,4.255,0,0,1-1.528,1.121,7.515,7.515,0,0,1-2.105,1.358h-.034c0-.1.17-.272.407-.475v-.034h-.238v-.1c.068,0,.068-.034.068-.034a1.72,1.72,0,0,0,.611-.272.205.205,0,0,1,.2.1c.068,0,.1-.068.1-.17a.993.993,0,0,0,.272-.645q.611-.306.611-.509a12.163,12.163,0,0,1,1.8-1.426V7.909c-.17,0-.475.2-.985.577l-1.868,1.154c-.475.068-.781.136-.917.17-1.426.951-3.158,2.071-5.161,3.4-6.553,4.143-9.983,6.214-10.357,6.214a19.915,19.915,0,0,1-1.29-6.723,10.089,10.089,0,0,1,3.837-8.489,1.233,1.233,0,0,1,.1.374v.034a1.118,1.118,0,0,0-.238.441c.034,0,.034,0,.034.034a1.336,1.336,0,0,0,.2-.068c.238-.068.747-.985,1.494-2.75a19.216,19.216,0,0,1,.272-2.479C184.889-.784,184.549-1.055,183.836-1.055Zm-6.35,8.319c.034,0,.068,0,.068.068V7.4c0,.068-.034.068-.068.068Zm-.509,1.46c.034-.17.068-.272.1-.272a3.433,3.433,0,0,1,.238-.747.073.073,0,0,1,.068.068v.136c-.17,1.053-.306,1.562-.441,1.562a.574.574,0,0,1,.068-.17A4.726,4.726,0,0,0,176.977,8.724Zm21.053.068c-.034,0-.034,0-.034.068l.034.068c.034,0,.034-.034.034-.068Zm.713.34-.238.136a.073.073,0,0,0,.068.068h.034c.034,0,.068-.068.17-.136ZM175.89,9.4c.034,0,.1.034.238.068l-.034.17A.506.506,0,0,1,175.89,9.4Zm24.075.238c-.17.068-.238.1-.238.136,0,.068,0,.068.068.068.1-.068.17-.136.17-.17Zm-2.309.272-.2.068v.1h.068c.068-.034.136-.1.136-.136Zm-1.087.543a1.117,1.117,0,0,0,.509-.34v.034a.942.942,0,0,1-.509.441Zm-19.253.747c.034-.238.1-.34.17-.34a8.005,8.005,0,0,0,.17,1.392,14.025,14.025,0,0,1,.441,2.207,10.339,10.339,0,0,1,.883,2.818l-.034.407a.73.73,0,0,0,.407.713c.034.1.1.611.238,1.46v.068a.644.644,0,0,1-.441.577l-.136-.1c0-.306-.136-.475-.407-.475-.034.034-.1.034-.2.034,0,.17-.068.272-.272.374-.068-.1-.136-.17-.136-.272V20c.034-.068.238-.17.645-.306-.238-.611-.374-.917-.441-.917h-.034a.451.451,0,0,0-.238.1c-.136-.068-.2-.1-.2-.136a2.143,2.143,0,0,0,.509-1.121q.306-.2.306-.306a3.419,3.419,0,0,0-.407-1.392c0-.2-.136-.34-.441-.34h-.1a.073.073,0,0,0-.068.068v.441a1.666,1.666,0,0,0,.034.374A5.905,5.905,0,0,1,178,17.553h-.034c-.475,0-.781-.374-.917-1.188a3.476,3.476,0,0,1,.1-.374v-.034a.74.74,0,0,0-.136-.34c.713-.2,1.053-.441,1.053-.713-.034-.272-.1-.407-.17-.407a4.07,4.07,0,0,1-.272-.951c-.136-.034-.17-.17-.17-.441v-.747A4.431,4.431,0,0,0,177.316,11.2Zm17.963.1h.1q.407,0,.407.306c0,.34.068.475.238.475a12.469,12.469,0,0,1-2.581,1.664h-.034v-.034a16.067,16.067,0,0,0,1.834-1.562v-.068h-.034a8.546,8.546,0,0,1-1.256.679,1.528,1.528,0,0,1,.068-.272c.475-.272.679-.475.679-.679v-.2a.326.326,0,0,1,.306.2.489.489,0,0,0,.272-.441Zm1.562.068h.1c0,.068-.034.068-.068.068h-.068v-.034Zm-20,2.615h.068c.034,0,.068.136.136.374,0,.068-.068.136-.17.17v-.136Zm10.832,1.664h.034l-.1.136c-2.818,2.547-4.516,3.973-5.2,4.244-.407.475-.747.713-.951.713h-.136c-.068-.034-.1-.1-.1-.272v-.034a2.736,2.736,0,0,1,.306-.645c-.068-.034-.068-.068-.068-.1v-.136c0-.1.034-.17.136-.17a5.894,5.894,0,0,1,.611.034c.2-.068.272-.136.272-.2a.8.8,0,0,1,.713-.407v-.034c0-.034-.068-.1-.238-.17l.034-.17h.17C186.009,16.7,187.5,15.787,187.673,15.651ZM184.006,20.3a.385.385,0,0,1,.306-.34c.17.034.238.068.238.136v.034a.617.617,0,0,1-.543.272Zm-1.256.136a.073.073,0,0,1,.068-.068l.17.034v.034a.125.125,0,0,0-.1.034Zm.747.306c0-.034,0-.068.068-.068a.073.073,0,0,1,.068.068v.034q-.051.1-.1.1H183.5Zm.2-.034h.068v.034H183.7Zm-.815.136c.2.034.306.1.306.272v.034a1.271,1.271,0,0,1-.34-.2v-.034Zm-3.294.985c.034-.17.068-.272.136-.272s.1.1.17.306c0,.034-.034.17-.068.374C179.727,22.238,179.659,22.1,179.591,21.831Zm-16.3,17.453c0-.34.679-1.392,2.105-3.158a28.608,28.608,0,0,0,2.445-2.954A6.5,6.5,0,0,0,169,31.644a6.968,6.968,0,0,1,1.63-1.7,17.747,17.747,0,0,0,1.9-2.173,16.136,16.136,0,0,1,1.9-1.766c1.8-2.173,2.954-3.26,3.5-3.26.238.034.34.136.34.34v.136a.509.509,0,0,1-.068.34,2.581,2.581,0,0,1-.815,1.358c-.272,0-1.222.951-2.92,2.886-.441.17-.645.306-.645.374a6.493,6.493,0,0,1-1.9,1.732c-.272,0-.543.34-.815,1.053l-1.324,1.562-2.649,2.886A30.689,30.689,0,0,1,163.293,39.284ZM180.2,24.412a5.078,5.078,0,0,1,.611.985v.034a2.488,2.488,0,0,1-.407.306,1.359,1.359,0,0,1,.238.475v.17a.125.125,0,0,0-.1.034l.136.985v.068l-.034.407a2.421,2.421,0,0,0-.475-.2.411.411,0,0,1-.2.306H179.9a1.081,1.081,0,0,1-.34-.509l-.17.136h-.1v-.238a.7.7,0,0,1,.645-.407h.136l.034.17v.034l-.1.136v.136c.034.034.068.068.1.068h.272l.068-.034a.655.655,0,0,0-.1-.34,6.689,6.689,0,0,0-.374-2.139h-.1c-.17.441-.407.679-.781.679v-.034l.034-.17a.816.816,0,0,0,.509-.2A2.892,2.892,0,0,1,180.2,24.412Zm-.543,1.29h.238a.125.125,0,0,0,.034.1v.068l-.068-.034h-.034a2.755,2.755,0,0,0,.17.475v.034c-.306,0-.441-.1-.441-.306v-.034A1.418,1.418,0,0,1,179.659,25.7Zm-3.192,1.188c.611-.713,1.121-1.053,1.494-1.053h.136a.459.459,0,0,1,.407.306l.34,2.309c-.034.306-.068.543-.068.747a3.3,3.3,0,0,0,.2.509c-.1,1.732-.136,2.716-.136,2.988,0,.136.034.407.068.815a2.552,2.552,0,0,1-.238.951,16.053,16.053,0,0,1-.611,3.294,14.688,14.688,0,0,1-1.188,2.886,19.877,19.877,0,0,1-6.112,6.655,14.787,14.787,0,0,1-5.161,1.6h-.1l-.068.034a.033.033,0,0,0-.034-.034h-.17c-.136,0-.306-.034-.441-.034a1.885,1.885,0,0,1-1.562-2.105v-.068c0-1.766.951-4.177,2.818-7.267,1.732-2.173,3.4-4.109,4.991-5.874a34.721,34.721,0,0,0,3.022-3.328c.645-.543.985-.883.985-1.019v-.034a1.566,1.566,0,0,1-.441-.577l.951-.815a.59.59,0,0,1,.2.374.777.777,0,0,0-.509.679l.034.068c.136,0,.475-.306.951-.951q-.051-.1-.1-.1h-.1l-.068.034-.068-.136v-.034h.136c.509,0,.815-.136.951-.441.611-.441.917-.747.917-.883a.205.205,0,0,0-.1-.2l-.17.034c-.441.509-.713.747-.849.747h-.068Zm-.679.374.2-.068.068.034c0,.17-.034.238-.136.238l-.136-.17Zm3.531.475.238.034h.068c0,.034-.068.238-.2.679.068.272.136.407.238.407h.034c.068,0,.17-.2.272-.645H180a3.121,3.121,0,0,1,.2,1.121V29.4l-.034.2-.17-.136c-.407-.1-.611-.272-.611-.441a1.334,1.334,0,0,0,.068-.2l-.306-.306.2-.272v-.068a.482.482,0,0,0-.068-.2Zm.985.679c.17-.17.272-.272.306-.272a1.993,1.993,0,0,1,.407.713c-.17.679-.272,1.019-.272,1.087a2.237,2.237,0,0,0,.306.883,4.606,4.606,0,0,1-.034.611c.034.475.034.781.034.951a1.024,1.024,0,0,1-.136.441c-.034,0-.068-.068-.17-.17-.1-.577-.17-.883-.238-.883h-.034a.677.677,0,0,1-.068.272,6.841,6.841,0,0,1,.034.781V32.9c0,.17-.2.306-.611.374.034.238.068.374.068.441h.068V33.58a.406.406,0,0,1,.136-.272c.136,0,.2.272.238.849v.374a3.218,3.218,0,0,1-.136,1.019,2.13,2.13,0,0,1-.441-.849.8.8,0,0,0,.238-.441v-.034c-.475-.238-.747-.407-.747-.543a1.247,1.247,0,0,1,.543-.815,1.264,1.264,0,0,0,.306-.985q0-.2-.1-.2h-.238c-.068,0-.068.034-.068.068v.2h-.034q-.1,0-.1-.2l.034-.068c.374-.068.543-.136.543-.2v-.441l.136.1c0,.272.1.374.306.374.068,0,.1-.1.136-.374,0-.068-.068-.577-.17-1.494a.684.684,0,0,1,.1-.374c-.2-.475-.34-.713-.34-.747Zm-5.908.475c.136,0,.272.1.374.306v.034H174.7q-.2,0-.306-.306Zm-1.053,1.155c.034-.17.1-.272.136-.272h.238c0,.2-.136.272-.34.272Zm6.112-.034h.034c.17.136.272.272.272.34l-.068.2a.327.327,0,0,1-.34-.238A1.418,1.418,0,0,1,179.456,30.014ZM172.63,31c0-.136.1-.272.34-.407v.034c-.17.238-.272.374-.306.374Zm7.334,4.822a1.05,1.05,0,0,1,.272.068l-.034.238v.509c-.034.1-.1.17-.136.17h-.034a2.663,2.663,0,0,1-.068-.475Zm-5.806,9.745h.238l-.136.17C174.226,45.736,174.192,45.7,174.159,45.566Zm-4.686,2.852a1.9,1.9,0,0,1,1.256-.611h.034v.068c0,.238-.441.407-1.29.577Zm41.643-21.834q2.394,0,5.7-2.445a24.268,24.268,0,0,0,3.769-3.362c3.226-3.633,4.822-6.689,4.822-9.134.374-.136,1.053-.306,2-.543,2.649-.781,3.973-1.222,3.973-1.392q0-.051-.2-.1a1.076,1.076,0,0,1-.781.306,7.184,7.184,0,0,1-1.6.441.64.64,0,0,1-.272-.068q.662-.357,3.158-1.324a2.455,2.455,0,0,0,1.256-.374q1.222-.255,1.222-.407l-.407-.034-.068.17a.542.542,0,0,1-.272-.1,2.444,2.444,0,0,1-.883.272,1.1,1.1,0,0,1-.611.2l-.1-.068a4.7,4.7,0,0,1-1.053.238,2.337,2.337,0,0,1-.441-.068c-.034,0-.068,0-.068.068,0,.272-.407.475-1.222.577a6.074,6.074,0,0,1-1.63.374,1.2,1.2,0,0,1-.475-.1l.034-.1a.577.577,0,0,0,.34-.2l-.034-.034c-.407.034-1.154.136-2.241.34l-.238-.475a11.071,11.071,0,0,0-2.173-2.852,8.153,8.153,0,0,0-3.124-2l.068-.136q.917-.764.917-1.222a1.8,1.8,0,0,0-.374-.917,2.513,2.513,0,0,0-1.8-.713h-.238c-1.154,0-2.513.747-4.143,2.241a27.449,27.449,0,0,0-2.988,3.7c-2.071,3.226-3.124,5.467-3.124,6.723a.469.469,0,0,0,.17.306,1.283,1.283,0,0,1-.374,1.087l-.068-.815h-.068l-.034.238a19.635,19.635,0,0,0-1.121,5.6,5.594,5.594,0,0,0,2.037,4.788A3.782,3.782,0,0,0,211.116,26.585Zm-.917-16.5-.136-.034v-.2c0-.034.2-.407.577-1.087a12.822,12.822,0,0,1,2.207-3.328c.645-.917,1.154-1.494,1.6-1.63a.987.987,0,0,0-.17.34c-.306.306-1.426,1.834-3.362,4.516A6.541,6.541,0,0,1,210.2,10.082Zm7.98-4.992h-.068v-.1h.034Zm1.6,5.229a3.9,3.9,0,0,1-2.173-.543c-.611-.136-.917-.679-.917-1.664,0-.713.136-1.053.374-1.053a.215.215,0,0,1,.17.2h.068V7.128a1.653,1.653,0,0,1,.034-.407c-.034,0-.1.034-.2.136-.034,0-.068-.034-.1-.136.238-.645.441-.951.679-.951l.034.238h.034a1.011,1.011,0,0,1,.475-.17c.645,0,1.528.577,2.683,1.732a6.744,6.744,0,0,1,1.7,2.513A19.956,19.956,0,0,1,219.775,10.32Zm-2.207-.747a6.337,6.337,0,0,1-.306-2.071h-.068a2.664,2.664,0,0,0-.068.747,2.7,2.7,0,0,0,.068.883c.136,0,.272.136.306.441Zm17.114-1.562c.374-.034.577-.136.577-.34,0-.034-.1-.1-.272-.136-.2,0-.306.17-.34.441Zm-.441-.034c.034,0,.068-.034.068-.1s-.034-.068-.068-.1c-.034,0-.068.034-.068.1S234.206,7.977,234.24,7.977Zm.272.2a.205.205,0,0,0,.2-.1l-.374-.1a.073.073,0,0,0-.068.068C234.308,8.147,234.376,8.181,234.512,8.181Zm-5.806.951.068-.034a.073.073,0,0,0-.068-.068h-.136C228.6,9.1,228.637,9.131,228.705,9.131Zm-.509.17.1-.034V9.2l-.068-.1c-.1.034-.136.068-.136.17ZM211.218,24.038,210.2,23.97a10.4,10.4,0,0,1-.441-2.445,11.778,11.778,0,0,1,.917-4.041,52.31,52.31,0,0,1,2.105-5.331,21.6,21.6,0,0,1,1.732-2.988,4.641,4.641,0,0,0,.34.917c.815,1.63,2.513,2.445,5.127,2.445a12.594,12.594,0,0,0,2.513-.238,10.189,10.189,0,0,1-2,4.278,20.963,20.963,0,0,0-1.528,2.139.033.033,0,0,1,.034.034l.306-.1a8.686,8.686,0,0,1,.917-.815c.238.034.34.1.34.2q.255,0,.407-.407c1.766-3.09,2.615-4.89,2.615-5.467,0-.068.238-.136.645-.2h.034v.2a18.926,18.926,0,0,1-1.358,3.667c-.475.611-.849,1.154-1.188,1.63-.374.34-.543.611-.543.883-.238.068-.34.136-.34.2l.238.136v.034a.136.136,0,0,0-.068.136l-.1-.034c-.1,0-.136,0-.136.034-.34,0-.543.306-.645.951l-.407-.034a7.2,7.2,0,0,0-.475.713c-.272.136-.374.238-.374.374l.2.306a1.326,1.326,0,0,0-.475-.068c-.781.407-1.188.747-1.188,1.019l.1.441a.872.872,0,0,0-.441-.306c-.068,0-.136.2-.238.645-.136-.1-.2-.17-.238-.17h-.407c.815-.917,1.256-1.426,1.29-1.494.374-.272.543-.475.543-.713-.1,0-.272.1-.509.34-1.6,1.494-2.75,2.241-3.4,2.241A11.038,11.038,0,0,1,211.218,24.038Zm16.4-14.669V9.335l-.136-.034a.033.033,0,0,1-.034.034C227.449,9.369,227.517,9.369,227.619,9.369Zm4.007.238.238-.034c0-.034,0-.068-.068-.1l-.2.068Zm-8.081.374h-.034l.034-.1Zm1.664.068q.051-.1.1-.1Q225.259,10.048,225.208,10.048Zm-14.16,2.343V11.95c0-.034.068-.068.238-.17C211.286,12.187,211.184,12.391,211.048,12.391Zm-1.392,2.716h-.068a2.443,2.443,0,0,0,.272-.917h.374l-.034.238C210.131,14.87,209.962,15.108,209.656,15.108Zm-1.29,3.9a.525.525,0,0,0-.1-.2,6.177,6.177,0,0,1,.374-1.426c.17-.849.306-1.29.441-1.29a3.421,3.421,0,0,1,.068.645.262.262,0,0,0-.238.272c0,.034.034.136.068.374l-.136.475C208.841,18.5,208.671,18.877,208.366,19.013Zm.917-1.256.034-.34c.1.1.17.136.2.136v.068Zm.068.849a.822.822,0,0,1-.441-.136,1.987,1.987,0,0,0,.441-.475Zm8.659,1.868a1.2,1.2,0,0,0,.543-.2c.985-.815,1.494-1.528,1.494-2.139h-.034l-.475.577a.685.685,0,0,1-.679.577,1.344,1.344,0,0,1-.238-.17,4.655,4.655,0,0,0-.645.917Zm-8.862-1.426v-.272h.034l.034.17C209.215,19.013,209.181,19.047,209.147,19.047ZM208.5,22.2a1.668,1.668,0,0,1-.1-.407c.1-.815.17-1.324.17-1.46.136-.475.238-.781.238-.849l-.034-.2a1.419,1.419,0,0,1,.306-.1,5.785,5.785,0,0,1-.1,1.256C208.875,21.627,208.739,22.2,208.5,22.2Zm-.645,1.222a2.591,2.591,0,0,1-.509-1.8,10.216,10.216,0,0,1,.272-2.071c.374,0,.543.17.543.475s-.1,1.29-.306,2.886c.034.238.068.374.136.374C207.958,23.359,207.89,23.427,207.856,23.427Zm9.338-.611c-.1-.034-.136-.068-.136-.136l.2.034a.125.125,0,0,1,.1-.034v.068C217.3,22.748,217.262,22.782,217.194,22.816Zm-1.087.747v-.1c0-.17.1-.238.34-.238A.3.3,0,0,1,216.108,23.563Zm-7.131.272h-.136l.034-.509h.1ZM251.13.609a.946.946,0,0,1-.34.034,4.707,4.707,0,0,0-1.9.713,71.246,71.246,0,0,0-5.7,11.817c-1.868,5.161-2.988,8.115-3.294,8.862-.713,2.037-1.426,3.837-2.071,5.4-.441,1.121-.917,2.513-1.426,4.109-1.188,3.4-1.969,5.84-2.377,7.4-.747,3.8-1.121,5.976-1.121,6.486v.1c0,1.121.917,1.664,2.716,1.664a2.441,2.441,0,0,0,.747-.136,1.042,1.042,0,0,0,.407-.441,13,13,0,0,1,.815-2.954c1.019-2.818,2.513-6.316,4.448-10.526.713-1.324,1.324-2.581,1.868-3.735a12.01,12.01,0,0,1,.849-1.868c.272.34.441.475.509.475,0,.17.679.34,2.071.543h.136c.849,0,2.513-1.053,5.025-3.124a54.934,54.934,0,0,0,4.584-4.278,41.885,41.885,0,0,0,4.278-5.637,16.225,16.225,0,0,1,6.723-2.037,2.259,2.259,0,0,1,1.562.475,2.129,2.129,0,0,1,.374,1.528v.034a.173.173,0,0,0,.17.136q.509-.1.509-.917V14.5a2.094,2.094,0,0,0-.068-.611,3.389,3.389,0,0,0-3.6-2.513h-.238a4.531,4.531,0,0,0-1.188.1.187.187,0,0,0,.068.17c0,.068-.1.17-.272.306a2.244,2.244,0,0,1,.034-.374.149.149,0,0,1-.034-.1,14.245,14.245,0,0,0-2,.577h-.034a14.5,14.5,0,0,0,1.8-5.7,4.789,4.789,0,0,0-.985-2.988A4.948,4.948,0,0,0,260.2,1.39a4.252,4.252,0,0,0-1.7.374,9.6,9.6,0,0,0-2.886,2.343,43.921,43.921,0,0,0-4.007,5.637c-.577,1.087-1.019,1.9-1.392,2.479q0,.2-2.343,4.686a26.547,26.547,0,0,1-1.324,2.581,8.863,8.863,0,0,1-1.29,2.241,18.625,18.625,0,0,1-1.969,3.9,8.47,8.47,0,0,1-1.256,2.411v-.068c.917-2.75,2.343-6.553,4.244-11.375A79.1,79.1,0,0,1,251.3,5.26,9.7,9.7,0,0,0,252.963,2V1.763a.73.73,0,0,0-.2-.441A2.489,2.489,0,0,0,251.13.609Zm7.1,2q.051-.1.1-.1h.068c-.068.1-.136.17-.17.17Zm-1.29.951V3.495a1.9,1.9,0,0,1,1.087-.747h.034v.034c-.441.543-.815.781-1.087.781ZM256.189,5.8c.17,0,.34-.136.509-.441,1.494-1.7,2.716-2.513,3.7-2.513a1.317,1.317,0,0,1,1.121.374V3.7A3.693,3.693,0,0,1,262,5.26v.951c0,.611-.611,2.173-1.834,4.754A29.134,29.134,0,0,0,258.5,13.41c-.509.849-.951,1.324-1.256,1.426-.1.068-.543.272-1.29.611a7.2,7.2,0,0,0-1.29.815,29.522,29.522,0,0,0-2.716,1.732,39.4,39.4,0,0,0-4.109,3.362,9.912,9.912,0,0,0,.679-1.426c.577-1.324.951-2.105,1.087-2.343.2-.374.815-1.46,1.8-3.294.679-1.426,1.053-2.241,1.087-2.411a5.477,5.477,0,0,0,.815-1.392,16.005,16.005,0,0,0,.917-1.732,3.809,3.809,0,0,0,.577-.781,9.383,9.383,0,0,0,.815-1.29c.2-.17.34-.306.34-.441q-.051-.1-.1-.1c-.136,0-.17.034-.17.068a1.1,1.1,0,0,1-.577.611,4.078,4.078,0,0,1-.917,1.222,2.176,2.176,0,0,1-.577.951,4.141,4.141,0,0,1-.781,1.324,29.993,29.993,0,0,1-1.732,3.294.89.89,0,0,1-.374.849,10.157,10.157,0,0,0-.985,2.037,2.619,2.619,0,0,0-.577,1.154,6.73,6.73,0,0,0-.849,1.6,13.915,13.915,0,0,1-1.29,2.411A3.465,3.465,0,0,1,246,23.155c1.7-3.328,2.547-4.992,2.581-5.059a2.206,2.206,0,0,1,.441-.917c1.019-1.868,1.63-3.124,1.9-3.769.951-1.834,1.528-2.852,1.664-3.022a2.9,2.9,0,0,1,.781-1.188,9.091,9.091,0,0,1,1.019-1.868,4.068,4.068,0,0,0,1.019-1.256c.611-.713,1.019-1.053,1.121-1.053v.034a.257.257,0,0,1-.034.136,1.514,1.514,0,0,0-.34.509v.1Zm-16.2,29,.136-.747.747-1.664a30.558,30.558,0,0,0,1.868-3.769,4.161,4.161,0,0,1,.645-1.6,4.392,4.392,0,0,1,.781-2.071,4.942,4.942,0,0,1,.577-1.256,8.247,8.247,0,0,1,1.019-1.8,23.154,23.154,0,0,1,1.46-2.75,7.825,7.825,0,0,1,.713-1.562,17.375,17.375,0,0,1,.883-1.8,5.719,5.719,0,0,1,.917-1.664,18.461,18.461,0,0,1,1.188-2.275l1.155-2.275a.9.9,0,0,0,.475-.713,5.762,5.762,0,0,0,.611-1.053c.407-.475.815-.985,1.222-1.562q0-.458,1.019-1.222Q256.63,3.7,256.834,3.7q0,.255-.407.611a7.57,7.57,0,0,1-1.019,1.019,3.951,3.951,0,0,1-.883,1.222l-1.9,3.056c-.441.883-.645,1.358-.679,1.392-.238.34-.917,1.7-2.071,4.007a5.734,5.734,0,0,0-.917,1.63c-.238.441-.679,1.256-1.29,2.513-.475,1.121-.781,1.7-.883,1.7a2.744,2.744,0,0,1-.543.985,12.426,12.426,0,0,1-.781,1.7,6.143,6.143,0,0,0-1.087,2.377l.034.068-.034.034v.34h-.034v-.068h-.068l-.034.17h.034l.1-.068.068.441-.136.068a.42.42,0,0,1-.068-.1.125.125,0,0,0,.034-.1l-.034-.17h-.1a1.617,1.617,0,0,1-.509.645l-.543,1.154a16.787,16.787,0,0,0-.713,1.664c-.34.713-.645,1.426-.883,2.071a8.528,8.528,0,0,0-1.087,2A1.847,1.847,0,0,1,239.992,34.8Zm16.027-28.93v.1h.034l.068-.034c0-.034,0-.068-.068-.068Zm7.5,2.75c.034,0,.068.034.1.136a1.505,1.505,0,0,1-.34.815v-.1C263.422,8.962,263.524,8.69,263.524,8.622Zm-.679,4.788h.034c0-.068.136-.136.374-.272a27.424,27.424,0,0,1,3.735-1.188h.136a2.479,2.479,0,0,1,2.343.951v.034a.335.335,0,0,0-.2-.068,12.1,12.1,0,0,0-1.562-.713h-.1l-.2.034c-.136.17-.238.238-.272.238a6.009,6.009,0,0,1-.781.136l-.136-.272a.844.844,0,0,0-.272.034,4.455,4.455,0,0,0-1.188.747h-.1a.8.8,0,0,1-.272-.068l-.034.068v.17c-.034,0-.068,0-.068.034a5.254,5.254,0,0,0-1.358.34.372.372,0,0,0-.136-.068.919.919,0,0,0-.272.1h-.034a.664.664,0,0,0,.17-.306A.249.249,0,0,1,262.844,13.41Zm.2-.781c0-.1.136-.2.374-.272l.509-.238H264c.068.068.1.1.1.136a.864.864,0,0,1-.238.068,2.18,2.18,0,0,1-.781.306Zm2.818.034q.051-.1.1-.1h.068v.034c0,.068-.068.1-.17.1Zm-2.309,0h.034v.068h-.034Zm-17.623.951q0-.2.407-.2l.068.136c-.034.136-.1.17-.238.17A.883.883,0,0,1,245.934,13.614Zm-2.615,6.01.068-.17a1.862,1.862,0,0,0,.441-1.087l1.154-2.581c.441-1.256.815-1.9,1.087-1.9a.263.263,0,0,0,.1.034v.136l-.34.2a.525.525,0,0,1,.1.2,2.673,2.673,0,0,0-.136.747.5.5,0,0,0-.441.2v.272a.315.315,0,0,1-.238.306,1.723,1.723,0,0,1,.068.306v.034a.205.205,0,0,1-.1.2c-.238.679-.441,1.256-.611,1.7l-.611.883.068.306a10.619,10.619,0,0,1-.509,1.256c-.1,0-.136,0-.17-.034,0,.034,0,.034-.034.034.068.34.136.543.136.611l-.034.136c-.2,0-.407.475-.645,1.358l.034.068.17-.034v.1a1.473,1.473,0,0,1-.272.679l-.2-.136c-.068.068-.1.068-.1.1-.272.136-.407.2-.407.238v.034a.276.276,0,0,0,.136.272v.136a11.322,11.322,0,0,0-.679,2.037v.034h.068a1.828,1.828,0,0,1,.306-.577h.034v.034a26.76,26.76,0,0,1-1.63,4.584,45.458,45.458,0,0,1-2.377,6.35c-.238,0-.374.2-.475.645a2.287,2.287,0,0,1-.679,1.29c-.136.407-.238.611-.374.611h-.034l.034-.17a1.36,1.36,0,0,0,.272-.679c.306-.985.509-1.63.543-1.868,0-.068-.034-.1-.068-.1h-.034c-.17.1-.272.2-.272.34a5.545,5.545,0,0,0-.374.883v.509a.367.367,0,0,1-.1.238c-.136.136-.238.238-.238.34v.1a5.281,5.281,0,0,1-.034.679,9.321,9.321,0,0,0-.34,1.222,12.621,12.621,0,0,0-.815,2.547,2.179,2.179,0,0,1,.17.374c-.2,1.188-.374,1.766-.509,1.766h-.068l-.068-.034c.136-.17.2-.238.2-.306a2.34,2.34,0,0,0-.068-.611c.068-.509.1-.849.1-.985a27.792,27.792,0,0,1,.917-4.041,4.954,4.954,0,0,1,.543-1.935,3.846,3.846,0,0,1,.407-1.324,38.86,38.86,0,0,1,1.29-3.939c.1-.475.238-.747.34-.747a17.256,17.256,0,0,1,1.019-2.784,3.872,3.872,0,0,1,.475-1.392,10.341,10.341,0,0,1,.509-1.222,11.611,11.611,0,0,1,.917-2.547.715.715,0,0,1,.2.272h.1a.919.919,0,0,1,.1-.272,1.027,1.027,0,0,0-.2-.306v-.034a3.668,3.668,0,0,0,.272-.883q.407-.2.407-.407v-.306a.912.912,0,0,1,.136-.441,2.926,2.926,0,0,1,.17-.645.594.594,0,0,0,.475-.645,16.961,16.961,0,0,1,.611-2.105c.17-.136.272-.272.272-.374v-.068a.219.219,0,0,1,.17.068l.068-.034a.263.263,0,0,1,.1.034,3.862,3.862,0,0,1-.509,1.562,2.8,2.8,0,0,1-.509,1.188V20.3c.068.1.1.136.136.136h.1a1.853,1.853,0,0,0,.306-.441C243.354,19.9,243.32,19.794,243.32,19.624Zm13.175-3.735a.125.125,0,0,0,.034-.1c0-.068.2-.238.611-.441h.034a2.8,2.8,0,0,1-.475.577h-.136Zm-.441.272.238-.306h.136v.034c0,.17-.1.272-.34.306h-.034Zm-11.885,0c.068,0,.068.034.068.068v.034l-.034.068-.068-.034Zm11.443.034.34.034v.034a1.169,1.169,0,0,1-.543.374V16.5A.411.411,0,0,0,255.612,16.194Zm-.679.679c0-.136.1-.2.272-.238v.2c-.034,0-.068,0-.136.068H255Zm3.633.034q.1.051.1.1v.034a.125.125,0,0,0-.1.034h-.034A.255.255,0,0,0,258.566,16.907Zm-3.158.441h.136v.068h-.068c-.034,0-.068,0-.068-.034Zm-10.153.068c.034,0,.068,0,.068.034v.17c0,.034-.034.068-.136.1v-.1Zm12.632.475c0-.068,0-.1.068-.1h.1v.17l-.136.034A.149.149,0,0,1,257.887,17.892Zm-1.8,2.139c.068,0,.068.034.068.068v.034c0,.034-.034.068-.136.1h-.034A.525.525,0,0,0,256.087,20.031Zm-9.032,5.4a7.731,7.731,0,0,1,.713-1.019,40.012,40.012,0,0,1,5.4-4.177,9.609,9.609,0,0,0-1.324,1.324,14,14,0,0,0-1.766,1.562,8.964,8.964,0,0,0-.985.713,15.813,15.813,0,0,1-2,1.6Zm-3.7-5.059v.068h.068v-.068Zm11.851.679h.034v.034c0,.2-.17.374-.475.543H254.7l.1-.2C255.069,21.22,255.2,21.084,255.2,21.05Zm-12.5.068q-.051,0-.1.2v.034h.068a.073.073,0,0,0,.068-.068v-.17Zm.509.679q.1.051.1.1v.068a1.358,1.358,0,0,1-.34.611h-.034A3.6,3.6,0,0,1,243.218,21.8Zm10.8.374c0-.1.17-.2.441-.34h.034c0,.034,0,.034-.034.034,0,.272-.136.407-.407.509h-.034Zm-11.307-.306a.368.368,0,0,0-.136.17c.034.1.034.136.1.136h.034c.034,0,.068-.034.1-.136l-.034-.17Zm-1.766.1a.125.125,0,0,0,.1.034,2.044,2.044,0,0,1-.407.849l-.068-.034C240.773,22.408,240.875,22.137,240.943,21.967Zm-.475,1.053h.068v.136H240.5a.125.125,0,0,0-.034-.1Zm2.105-.034c-.068.034-.136.1-.136.136v.068l.068.1c.1-.034.136-.068.136-.1v-.136A.073.073,0,0,0,242.573,22.985Zm-2.343.475c0-.17.1-.272.306-.272v.034a.358.358,0,0,1-.272.374h-.034Zm11.579,0a.348.348,0,0,1,.2-.17h.068c0,.034-.1.1-.238.17Zm.238.611L252.08,24a1.184,1.184,0,0,1,.577-.475h.068c-.272.374-.475.543-.611.543Zm-9.915.543a1.069,1.069,0,0,1,.34-.815.94.94,0,0,1-.034.306,3.43,3.43,0,0,0-.272.543h-.034Zm-.577-.781q-.1.051-.1.1V24l.034.068c.068-.034.136-.1.136-.136v-.1ZM239.687,25.4c.034-.136.068-.17.1-.17a1.567,1.567,0,0,1,.374-1.154v.068a2.743,2.743,0,0,1-.441,1.324A.119.119,0,0,1,239.687,25.4Zm2.173,0a.779.779,0,0,1,.272-.713c-.1.509-.2.747-.272.747Zm-3.6,3.26a7.006,7.006,0,0,1,.645-1.358,3.492,3.492,0,0,1,.679-1.562v.136c-.509,1.494-.747,2.275-.747,2.343a29.407,29.407,0,0,0-.985,2.886,2.689,2.689,0,0,0-.34.713c-.475,1.494-.917,2.784-1.324,3.9a33.888,33.888,0,0,1-1.324,4.007h-.034l-.034-.2a4.5,4.5,0,0,1,.306-1.154c.136-.34.509-1.63,1.155-3.871A15.37,15.37,0,0,0,236.732,33a6.255,6.255,0,0,0,.441-1.222,5.229,5.229,0,0,1,.781-1.9,1.99,1.99,0,0,1,.34-1.121A.125.125,0,0,0,238.26,28.656Zm9.983-2.037c.136,0,.17.034.17.1l-.17.034Zm-5.025,2.649V29a5.933,5.933,0,0,1,.985-1.8.587.587,0,0,1-.2.407.886.886,0,0,1-.272.747c-.238.611-.374.917-.475.917Zm-.136.272h.034v.034a1.385,1.385,0,0,1-.441.849v-.136A1.616,1.616,0,0,1,243.082,29.539Zm-3.871.509c-.034,0-.068.1-.136.272a.073.073,0,0,0,.068.068c.1-.068.136-.1.136-.136v-.034l-.034-.17Zm2.445,2.479a.6.6,0,0,1,.2-.441c.17-.645.34-.951.407-.951a1.336,1.336,0,0,0,.068.2,2.84,2.84,0,0,1-.407.713C241.894,32.357,241.792,32.527,241.656,32.527Zm-.272.509c.034-.1.1-.136.136-.136h.034a.2.2,0,0,0,.034.136c-.1.068-.136.136-.17.136h-.034Zm-.34.781a.336.336,0,0,1,.17-.238h.034a.609.609,0,0,0-.136.272Zm-3.192-.034c-.034,0-.068.068-.1.136.034.1.068.136.1.136h.034l.034-.17v-.034C237.921,33.817,237.887,33.817,237.853,33.783Zm.679.17a.073.073,0,0,0-.068.068v.068h.034c.068,0,.068,0,.068-.068Zm-.815.2c-.1,0-.2.2-.34.611V34.8q.051.1.1.1h.068c.068,0,.136-.2.238-.611v-.068A.073.073,0,0,0,237.717,34.157Zm1.63,2.309a.073.073,0,0,1,.068.068c0,.1-.1.238-.238.441A1.71,1.71,0,0,1,239.347,36.466Zm-5.127,9.2q0-.051.2-.1h.034c.034,0,.068.068.1.17,0,.1-.068.136-.2.136-.068,0-.1-.034-.136-.034Zm62.458-73.82a4.9,4.9,0,0,0-.611.407,3.134,3.134,0,0,0-1.426,1.188,1.021,1.021,0,0,1,.238.475l-.272.306c-.407.951-1.222,2.988-2.411,6.112a12.373,12.373,0,0,0-1.053,3.056,30.02,30.02,0,0,0-1.664,4.72,66.734,66.734,0,0,0-2,6.52,12.963,12.963,0,0,0-.645,2.139,8.96,8.96,0,0,0-.509.985,2.637,2.637,0,0,1-.34,1.222,4.226,4.226,0,0,1-.407,1.053q-.662,1.935-.713,2.241c0,.034.034.068.034.1h.034a1.4,1.4,0,0,1,.34-.713c.136-.611.306-.917.475-.917.034,0,.034.068.068.272a1.047,1.047,0,0,0-.034.34,15.193,15.193,0,0,0-.747,1.969h-.34c-.034,0-.1.136-.272.441a9.46,9.46,0,0,0-.679,1.969l.068.034h.034c.1-.441.272-.679.407-.679l.068.034a10.272,10.272,0,0,1-.2,1.121,5.4,5.4,0,0,1-.713,1.7,2.839,2.839,0,0,1-.475,1.426c-.1.645-.272.985-.577.985,0,.068.034.238.068.509-.068.2-.1.306-.17.306-.1,0-.17-.034-.17-.1l.238-.849a5.149,5.149,0,0,0,.407-1.087c-.2,0-.34.068-.34.238a9.989,9.989,0,0,0-.883,2.615.125.125,0,0,0,.034.1c.136,0,.272-.272.441-.781h.2a11.034,11.034,0,0,1-.441,1.6,6.846,6.846,0,0,1-.815,2.139c-.34.034-.509.1-.509.17s.17.136.441.17a2.322,2.322,0,0,0-.306,1.121v.272l-.17.034h-.17v-.1c0-.034-.034-.1-.17-.136-.136,0-.2.17-.238.475v.1h.374c0,.2-.068.611-.136,1.154h.034a.293.293,0,0,0,.2-.1c.543-1.6.917-2.581,1.087-2.92.17-.475.374-1.121.645-2a12.054,12.054,0,0,1,.577-1.528,8.936,8.936,0,0,1,.985-2.513,12.944,12.944,0,0,1,.645-2.241q.306-.662,2.139-5.908a19.274,19.274,0,0,1,1.256-3.328,3.982,3.982,0,0,0,.441-1.358l.543-1.426q.357-1.579.611-1.732c.068-.713.238-1.053.509-1.053a10.3,10.3,0,0,1-.374.985,3.821,3.821,0,0,1-.475,1.63l-2.581,7.572a22.858,22.858,0,0,1-1.324,3.735,32.019,32.019,0,0,0-1.019,3.4c-.306.815-.645,2.037-1.087,3.667-.17,0-.407.611-.679,1.834,0,.034,0,.068.034.068a2.967,2.967,0,0,0,.849-1.256q.306-1.121.407-1.121a3.7,3.7,0,0,0,.543-1.46,5,5,0,0,0,.306-.917c0-.034,0-.068-.068-.068h-.17l.034-.34.238.068h.136c.068,0,.17-.238.272-.679a8.653,8.653,0,0,1,.509-1.834,12.373,12.373,0,0,0,.713-1.732V5.6l-.034-.068-.136.068c-.034,0-.068-.034-.068-.17V5.362c.306,0,.543-.34.713-.951A3.217,3.217,0,0,1,287,2.85a14.6,14.6,0,0,1,.713-2.173,1.486,1.486,0,0,1,.441-1.087,8.98,8.98,0,0,1,.509-1.29c.136-.543.34-1.222.611-2a7.766,7.766,0,0,0,.951-2.75c0-.17.136-.34.34-.577a8.878,8.878,0,0,1,.543-1.63,5.673,5.673,0,0,1,.781-1.969c.272-.951.509-1.664.679-2.105a3.338,3.338,0,0,0,.475-1.358h.068l.068.238a1.445,1.445,0,0,1-.068.374,19.657,19.657,0,0,0-.747,2.105,14.949,14.949,0,0,0-.815,2.139,25.626,25.626,0,0,1-1.188,3.565c-.272,1.121-.441,1.664-.543,1.664a10.672,10.672,0,0,1-.441,1.358c-.238.475-.883,2.309-2,5.433a22.477,22.477,0,0,1-1.155,3.43,23.052,23.052,0,0,1-.917,2.581c-.509,1.188-1.868,5.161-4.041,11.986a25.1,25.1,0,0,0-1.053,3.6,17.987,17.987,0,0,0-.645,1.834,3.161,3.161,0,0,1-.577,1.426,17.6,17.6,0,0,0-1.7,3.362h-.034v-.034a2.694,2.694,0,0,1,.17-.509.346.346,0,0,0-.272-.17,14.393,14.393,0,0,0-.815,1.766H276.3v-.034c.068-.543.1-.951.136-1.154l-.068-.034a2.545,2.545,0,0,1,.238-.747,9.008,9.008,0,0,1,.645-2.037,1.709,1.709,0,0,0-.136-.543s.136-.17.374-.441a3.934,3.934,0,0,1,.543-1.494c-.34-.272-.509-.475-.509-.645a2.987,2.987,0,0,0,.272-1.087v-.306h.034a.286.286,0,0,1,.238.136V23.7a2.294,2.294,0,0,1-.068.475l.034.068h.068c.238-.1.374-.407.374-.849v-.034h-.034a.885.885,0,0,0-.374.1H278c0-.441.136-.645.374-.645h.034l.068.2h.068v-.272a1.817,1.817,0,0,0,.34-.883c-.2-.068-.34-.1-.34-.17v-.374a4.318,4.318,0,0,0,.543-.985v-.1L279.055,20h-.068a.451.451,0,0,0-.238.1,8.118,8.118,0,0,1-.679,1.9v.034a.471.471,0,0,0,.17.34h.068l.068-.034v.238a.7.7,0,0,0-.645.407,7.439,7.439,0,0,1-.679,2.071,41.843,41.843,0,0,0-1.868,6.927v.2a6.241,6.241,0,0,0,.407,1.053,1.71,1.71,0,0,0,.951.747,2.231,2.231,0,0,0,.441-.1c.34.034.509.034.543.034a3.158,3.158,0,0,0,.917-.306h.272c.17,0,.407-.2.815-.645a47.062,47.062,0,0,0,3.362-6.316c1.834-3.294,5.2-8.421,10.017-15.416,1.019-1.494,1.7-2.241,2.037-2.275h.068c.136,0,.2.034.238.17q-.509,3.871-1.222,7.029a39.819,39.819,0,0,0-1.494,7.131v.068l-.034.136a3.735,3.735,0,0,0,.238,1.087,4.327,4.327,0,0,0,3.667,1.8l.747-.068a13.724,13.724,0,0,0,5.535-2.852c1.8-1.46,2.682-2.343,2.716-2.615.238-.306.577-.679,1.019-1.188a.033.033,0,0,1-.034-.034,11.716,11.716,0,0,0-2.139,1.7c-.272-.068-.374-.136-.374-.306l.2.034a1.335,1.335,0,0,0,.2-.068l-.034-.17v-.1a.645.645,0,0,1,.1-.306,20.214,20.214,0,0,0,1.969-2.037c.951-.951,1.426-1.528,1.426-1.7q1.324-.917,1.324-1.63l.068.034h.17l.068-.034a.483.483,0,0,1,.068.2h.1l.068-.034a2.51,2.51,0,0,1,.475-1.154c-.034,0-.034,0-.034-.034a3.124,3.124,0,0,0-.713.441c-1.121,1.154-2.241,2.241-3.4,3.26q-.408.458-.815,1.019c-.17,0-.374.17-.645.543-.034.17-.1.272-.2.272-.238,0-.883.509-2,1.528-2.139,2-3.667,2.988-4.516,2.988-.611,0-.917-.543-.917-1.6a38.274,38.274,0,0,1,1.46-7.5A28.087,28.087,0,0,0,299.7,8.011a11.046,11.046,0,0,0-.068-1.121,1.717,1.717,0,0,0-.475-1.29c-.306-.645-.543-1.019-.747-1.087a2.074,2.074,0,0,0-1.528-.577h-.407q-.509,0-1.222,1.121a18.318,18.318,0,0,0-2.037,2.377c-2.988,3.8-5.093,6.553-6.35,8.319a31.448,31.448,0,0,1-2.615,3.769q-1.732,2.6-2.241,3.26l.2-.645,1.222-3.667c.136-.34.509-1.324,1.053-2.954q5.7-15.891,8.285-23.531c1.358-3.8,2.037-5.806,2.037-6.044,1.494-4.109,2.479-6.893,2.988-8.319.577-1.9.951-3.124,1.154-3.633-.068-.407-.1-.781-.136-1.087,0-.713-.374-1.053-1.121-1.053a2.791,2.791,0,0,1-.713.068A.5.5,0,0,1,296.678-28.152Zm-3.056,12.666h.1l-.034.238h-.068Zm-.306.985c0-.306.034-.441.1-.441h.034c0,.034-.034.2-.068.441Zm-2.988,4.278h.068a2.867,2.867,0,0,1-.068.645h-.068C290.26-9.68,290.294-9.918,290.328-10.223ZM289.887-8.7h.034v.034c-.068.407-.136.611-.238.611A1.293,1.293,0,0,1,289.887-8.7ZM286.355-.953c.068-.645.2-.985.374-.985l-.034.34a1.72,1.72,0,0,0-.272.645Zm-.238.441h.136l.034.17v.034a.354.354,0,0,1-.238.34Zm-1.426,4.075h.034c0,.068.034.1.034.136,0,.068,0,.068-.068.068Zm-.034.306c.136.068.17.1.17.136v.034c-.068.17-.136.272-.17.272h-.136A2.685,2.685,0,0,1,284.658,3.868Zm-.2.645h.068v.068h-.068Zm2.207,14.058a8.332,8.332,0,0,1,.713-2.105c0-.17,1.7-2.547,5.093-7.165l.475-.407a3.291,3.291,0,0,1,.611-.883,8,8,0,0,1,2.309-2.377,1.6,1.6,0,0,1,.17.475,2.977,2.977,0,0,1-.543.815,7.509,7.509,0,0,1-1.188,1.6,1.224,1.224,0,0,0-.509.679c0,.034-1.8,2.377-5.365,7.1a12.679,12.679,0,0,1-1.732,2.275ZM283.809,5.906c-.136,0-.2.136-.238.34l.068.034h.1c.034,0,.068-.1.1-.34C283.809,5.94,283.809,5.94,283.809,5.906Zm-.645,1.6c-.272,0-.441.34-.509.985v.238h.034a2.134,2.134,0,0,0,.577-1.087C283.232,7.637,283.2,7.6,283.164,7.5Zm1.324,1.019h.238v.136h-.136q-.1-.051-.1-.1Zm-3.09,3.8c0,.034-.034.136-.068.306l.17-.034v-.1l-.034-.17Zm29.609,1.087h-.068a.9.9,0,0,1-.747.374c.068.306.136.441.136.475a.662.662,0,0,0,.272-.034c.374,0,.645-.238.815-.747A.975.975,0,0,0,311.007,13.41Zm-.679.951c-.17.034-.272.068-.272.136v.034c.068.1.136.17.17.17s.1-.1.136-.272Zm-.509.441q-.051,0-.1.306l.068.034a.318.318,0,0,0,.2-.272.073.073,0,0,0-.068-.068Zm-13.209.509a.149.149,0,0,1,.1.034v.068a.371.371,0,0,1-.136.068v-.034Zm12.835.1c-.17,0-.238.1-.272.34a.033.033,0,0,1,.034.034A.431.431,0,0,0,309.445,15.413Zm-29.066.034a1.135,1.135,0,0,0-.272.611.033.033,0,0,1,.034.034c.272,0,.407-.17.407-.577v-.068Zm1.8.272c-.034,0-.068.034-.1.034a2.866,2.866,0,0,1-.272,1.155v.306c-.238.17-.34.306-.34.374v.068h.068a.548.548,0,0,0,.306-.1,7.721,7.721,0,0,0,.509-1.63v-.034A.409.409,0,0,0,282.179,15.719Zm-2.105,2.716c-.2,0-.34.272-.374.781,0,.034.068.068.17.136a1.386,1.386,0,0,0,.306-.679v-.136C280.108,18.469,280.108,18.435,280.074,18.435Zm1.155.2a.6.6,0,0,0-.238.272c.068.136.17.238.238.238s.1-.17.1-.441v-.068Zm-1.969.17v.136l.034.068.068-.034-.034-.17Zm.509.645q-.2,0-.407.306v.034a.545.545,0,0,0,.17.374c.068,0,.136-.2.272-.611A.149.149,0,0,1,279.768,19.454Zm5.7.068a1.272,1.272,0,0,0,.272.034v.034l-.17.034h-.068A.263.263,0,0,0,285.473,19.522Zm8.251.679a.073.073,0,0,1,.068.068V20.4h-.068Zm-14.261.068c-.2,0-.306.068-.306.17l.068.034h.17a.073.073,0,0,0,.068-.068Zm14.092.543a.259.259,0,0,1,.238-.272l-.034.306h-.2Zm-12.9-.272q-.1.051-.1.1v.136a.073.073,0,0,0,.068.068h.068q.1,0,.1-.2c0-.068,0-.1-.068-.1Zm-1.358.2c-.17,0-.306.238-.374.747l.034.068c.034,0,.068-.034.1-.034a1.3,1.3,0,0,0,.306-.509A.64.64,0,0,0,279.293,20.744Zm.917.475v.272l.034.17h-.034a3.119,3.119,0,0,0-.543.917c0,.068.1.2.306.374h.1c.034,0,.068-.17.136-.441l.34-1.154c-.034-.1-.1-.136-.238-.136Zm22.75.238c.238,0,.34.068.34.136v.034a1.359,1.359,0,0,1-.407.34l-.034-.17A.759.759,0,0,1,302.96,21.457Zm-8.014,1.426a2.856,2.856,0,0,1,.17-.917h.034q0,.153-.1.917Zm-16.5-.781a.073.073,0,0,1,.068-.068h.136c0,.136-.034.2-.034.272h-.17Zm16.469,1.019h.1v.2l.034.306c-.068,0-.1-.1-.136-.238Zm-.136.985h.34l-.034.17v.136h-.034l-.238-.034v-.1Zm-15.382.1q-.1.306-.306.306c-.17,0-.238.136-.238.441l.034.068.17-.034c.17,0,.306-.272.407-.781Zm-1.562.441v.034c0,.068-.034.17-.034.306l.1.2c.136,0,.2-.136.238-.374a.226.226,0,0,0-.136-.17Zm1.256.747v.1l.034.068.068-.034-.034-.136Zm-.475.17c-.034,0-.068.1-.136.238a.033.033,0,0,1,.034.034c.2-.034.272-.068.272-.136C278.783,25.668,278.715,25.634,278.614,25.566Zm-.2.34q-.051,0-.1.2v.068a.073.073,0,0,0,.068.068h.34l.1-.068c0-.17-.034-.272-.1-.272Zm-1.222.272h.034v.034l-.034.17h-.034v-.068A.338.338,0,0,0,277.187,26.177Zm1.324.475c-.034,0-.1.2-.17.645l.068.034c.068,0,.1-.2.136-.611Zm-.306.306q-.1,0-.1.2c0,.034,0,.068.068.068.034,0,.034-.034.034-.068Zm-.068.713c-.17,0-.272.068-.306.17v.136h.238c.034,0,.068,0,.068-.068Zm-.407.849a1.117,1.117,0,0,0-.374.985l.034.17h.068c.238-.136.374-.475.374-1.019ZM342.43-.308A2.047,2.047,0,0,0,340.664.778a2.407,2.407,0,0,0-.747,1.868v.543a1.538,1.538,0,0,1-.1.543,5.532,5.532,0,0,0-.577,1.29,23.976,23.976,0,0,1-1.868,2.818,4.712,4.712,0,0,1-.917,1.664,5.192,5.192,0,0,1-1.019,1.63,28.523,28.523,0,0,1-3.328,4.278,20.941,20.941,0,0,1-1.9,2.241,6.623,6.623,0,0,1-.713,1.053,6.967,6.967,0,0,0-1.834,1.562,7.583,7.583,0,0,1-2.377,1.46,6.824,6.824,0,0,1-1.121.611h-.068c-.238,0-.374-.747-.407-2.207a30.3,30.3,0,0,1,.849-4.788A71.28,71.28,0,0,1,328.237,4a12.6,12.6,0,0,0,1.29-3.158V.778c0-.407-.136-.611-.407-.679h-.475a4.439,4.439,0,0,0-.713-.272A3.961,3.961,0,0,0,326.81.1a1.869,1.869,0,0,0-.951,1.019,4.781,4.781,0,0,0-.951,1.562,62.322,62.322,0,0,0-3.633,8.149c-1.46,4.55-2.207,7.742-2.207,9.643v.34a4.054,4.054,0,0,0,.679,2.411,7,7,0,0,0,4.788,1.562,4.562,4.562,0,0,0,.645-.034,4.837,4.837,0,0,0,2.445-1.087q.56,0,5.093-4.38a14.007,14.007,0,0,0,1.9-2.343l-.034-.068-.2.068c-.34.441-.543.679-.645.679a2.245,2.245,0,0,1-.374-.034c-.136,0-.238.136-.306.34v.034c0,.068.1.1.238.136v.068c0,.17-.1.272-.34.34a.542.542,0,0,1-.272-.1h-.034a7.65,7.65,0,0,1-.815.713,4.251,4.251,0,0,0-1.324,1.053,2.833,2.833,0,0,1-1.324.883h-.034a2.016,2.016,0,0,1,.136-.272c.407-.374.611-.611.611-.747h-.1l-.136.1h-.136v-.1c0-.034.1-.1.272-.238.407-.034.645-.17.645-.374v-.034l-.1-.17a13.328,13.328,0,0,0,2.207-2.445c.306-.136.611-.645.917-1.494.611-.713.951-1.121.951-1.29a2.053,2.053,0,0,0,.407-.611c.34-.475.577-.679.747-.679.068-.509.136-.781.272-.781.1-.1.611-.849,1.494-2.241.645-1.087,1.087-1.63,1.358-1.63l.781-1.222c-.2.645-.475,1.426-.849,2.343a38.437,38.437,0,0,1-1.494,3.973,10.784,10.784,0,0,0-.577,1.732c0,.034.1.1.34.136l-.1.407-1.188,2.547a28.857,28.857,0,0,1-1.8,3.939,6.57,6.57,0,0,1-.849,1.732,15.222,15.222,0,0,1-.679,1.494,30.142,30.142,0,0,1-1.969,3.769,13.765,13.765,0,0,1-1.154,2.207,1.263,1.263,0,0,1-.611,1.087,14.286,14.286,0,0,1-1.256,1.834,1.62,1.62,0,0,1-.883.577,5.844,5.844,0,0,0-1.087,1.46c-1.562,1.562-2.377,2.377-2.377,2.445a.5.5,0,0,0,.238-.034,3.746,3.746,0,0,1,1.019-.815h.034a11.092,11.092,0,0,1-1.324,1.7c0,.2-.34.679-1.087,1.392-.407.577-.713.849-.917.849h-.034c.238-.577.407-.883.543-.883a1.978,1.978,0,0,1,.611-1.087c.611-.407.883-.747.883-1.019v-.034h-.034a2.882,2.882,0,0,1-.849.611c-.441.441-.679.679-.747.679a20.212,20.212,0,0,0-1.9,2.275c-1.188,1.358-1.766,2.445-1.766,3.294a2.62,2.62,0,0,0,.068.509,2.157,2.157,0,0,0,2.105,1.562,3.38,3.38,0,0,0,2.886-1.969c2.615-3.226,4.244-5.4,4.924-6.452a10.807,10.807,0,0,1,1.324-2.139c2.139-2.207,3.192-3.328,3.192-3.4a27.246,27.246,0,0,0,2.649-2.683V30.8a6.793,6.793,0,0,1-.883.679h-.068a21.529,21.529,0,0,1,1.528-1.562c.713-.781,1.154-1.154,1.324-1.154V28.69l-.034-.068c.034-.034.781-.883,2.207-2.581.917-.951,1.392-1.426,1.392-1.46a65.848,65.848,0,0,1,5.433-5.093c.611-.475,2.377-1.868,5.3-4.109v-.034a4.224,4.224,0,0,0-.849.238h-.034a4.462,4.462,0,0,1,.815-.475c.577-.2.849-.374.849-.441,0-.034-.068-.034-.2-.068q.153-.2.2-.2h.306v.068c.1-.034.2-.136.34-.374v-.068h-.068a.588.588,0,0,0-.238.034c-.306,0-.475.068-.475.238a1.172,1.172,0,0,1-.407-.034,1.2,1.2,0,0,0-.034.2c0,.1-.136.2-.441.272a7.624,7.624,0,0,1-2,1.188h-.034l.1-.34-.034-.034c-.407.1-.611.238-.611.475l.1.34a16.359,16.359,0,0,1-1.868,1.324,7.3,7.3,0,0,1-1.562,1.222,11.7,11.7,0,0,1-1.358,1.188,29.139,29.139,0,0,0-3.192,2.988,19.643,19.643,0,0,0-1.969,2.037,11.578,11.578,0,0,0-1.834,2.173c-.17.1-.238.17-.238.2-3.056,3.633-4.618,5.5-4.652,5.6h-.034V33.07a4.759,4.759,0,0,0,.306-.781,23.5,23.5,0,0,1,3.158-4.007c.543-.475.815-.781.815-.883a3.118,3.118,0,0,0,.747-1.019c.238-.17.374-.272.374-.374a.263.263,0,0,0-.034-.1,5.547,5.547,0,0,0,.645-.747c.577-.509.883-.849.883-.985a3.306,3.306,0,0,0,1.019-1.121,13.311,13.311,0,0,0,1.969-2,4.7,4.7,0,0,0,.883-.781c.509-.407.781-.713.781-.849a4.78,4.78,0,0,0,.951-.781,16.959,16.959,0,0,0,1.664-1.358c.509-.34,1.121-.781,1.834-1.358a17.572,17.572,0,0,0,1.9-1.154l.917-.374c0-.306.272-.509.815-.645l-.068-.1a3.692,3.692,0,0,0-1.256.475,20.3,20.3,0,0,1-2.377,1.46,15.22,15.22,0,0,1-1.935,1.392c-.2,0-.34.136-.407.441a.512.512,0,0,0-.475.306,2.827,2.827,0,0,0-.713.475l-.238-.238a.346.346,0,0,0-.17.272v.34a1.161,1.161,0,0,1-.883.509.033.033,0,0,0-.034-.034,2.027,2.027,0,0,1-.509.306l.034.306v.1c0,.068-.034.068-.068.068h-.2l-.068-.034.034-.2v-.034a1.981,1.981,0,0,0-.34.272c-.068.407-.17.611-.34.611-.34,0-.815.407-1.46,1.256-1.935,1.7-3.022,2.818-3.158,3.328a.908.908,0,0,1-.475.374,17.147,17.147,0,0,0-1.834,2.513h-.034v-.1a8.015,8.015,0,0,1,.985-1.969,11.809,11.809,0,0,1,1.46-1.732,14.819,14.819,0,0,0,1.63-1.8c.136,0,.645-.543,1.562-1.6-.17,0-.509.238-1.121.713a19.888,19.888,0,0,0-2.818,2.784h-.034v-.034c1.019-2.071,1.63-3.294,1.868-3.667.543-1.46,1.324-3.294,2.377-5.467a30.961,30.961,0,0,0,1.6-3.939c2.139-5.2,3.192-8.353,3.192-9.508l-.068-.509A3.86,3.86,0,0,0,342.43-.308Zm-.17,6.316a.778.778,0,0,1,.238-.543,1.672,1.672,0,0,1-.17.611h-.068Zm-15.484.17h.068c0,.034,0,.068-.068.068Zm5.3,21.494a10.53,10.53,0,0,1,1.528-3.158,10.441,10.441,0,0,1,1.256-2.547c.577-1.392,1.222-2.852,1.935-4.414a50.053,50.053,0,0,1,2.818-6.01c.306-.068.747-.917,1.392-2.581.645-1.732,1.053-2.615,1.29-2.615a16.2,16.2,0,0,0-.645,1.935l-1.6,4.177q-.56,1.07-1.63,3.667a13.872,13.872,0,0,0-.985,2.309c.034.034.034.136.068.306-.17,0-.34.17-.475.577.136.136.2.2.238.2,0,.034-.1.1-.34.17l.136.136v.034l-.034.17-.238-.17a2.72,2.72,0,0,0-.374.781l.238.713v.034h-.17c-.034,0-.17.136-.374.441a1.876,1.876,0,0,0-.034-.306c-.238.17-.34.272-.34.34a1.4,1.4,0,0,1,.136.509c0,.17-.068.238-.17.238v-.306h-.034c-.034,0-.1.068-.17.2l.17.136c-.068.1-.1.17-.136.17H335.5v-.068h-.1v.068a8.078,8.078,0,0,1-.883,1.63.621.621,0,0,1,.2.34c-.034,0-.068,0-.136.068q-.051-.1-.1-.1h-.068c-.068,0-.1.068-.136.238,0,.1.1.136.306.17a3.961,3.961,0,0,1-.577.985v-.136a3.54,3.54,0,0,0,.272-.679l-.034-.068a1.286,1.286,0,0,0-.509.849v.1a.542.542,0,0,0,.1.272c0,.136-.1.272-.272.441v-.272H333.5a6.821,6.821,0,0,0-1.087,2.071,2.066,2.066,0,0,0-.441.781v.034h.034c.17-.1.272-.17.272-.17l.068.034c0,.34-.17.509-.441.509,0-.034.034-.136.068-.306h-.034l-.136.136q-.509.917-.713.917c-.034,0-.034-.068-.068-.238h-.2q-.1.051-.1.1v.068c0,.034.136.068.34.1,0,.17-.034.272-.17.272A3.161,3.161,0,0,1,330,32.731a3.512,3.512,0,0,1-.475,1.019c-.238.1-.374.2-.374.34v.272l.034.068a1.811,1.811,0,0,0-.543.747c0,.306-.475.883-1.358,1.732-.034.272-.1.441-.272.441,0-.068-.034-.136-.17-.136l-.374.272a1.386,1.386,0,0,1,.407-.849,4.789,4.789,0,0,1,.815-1.256q.408-.051.407-.1a.535.535,0,0,0-.136-.034v-.1h.1a.263.263,0,0,0,.034.1c.17,0,.272-.136.407-.34,0-.068-.034-.136-.034-.272a.918.918,0,0,1,.1-.272c.441-.306.679-.543.679-.747,0-.068-.034-.1-.136-.136-.1,0-.238.1-.441.272h-.034a2.684,2.684,0,0,1,.815-1.256c.441,0,.781-.34.985-.985-.306,0-.441-.034-.441-.068a1.483,1.483,0,0,1,.543-.917,6.493,6.493,0,0,1,1.324-2.445v.034a1.047,1.047,0,0,1-.034.306l.034.068c.407-.2.611-.441.611-.781v-.034l-.034-.068c-.17.034-.306.068-.34.068ZM326.131,7.536c0-.136.034-.2.17-.238h.034v.068c-.136.17-.17.238-.17.272h-.034Zm-2.716,7.81a.943.943,0,0,1,.238-.747,10.889,10.889,0,0,1,.441-1.9.662.662,0,0,0,.238-.577,1.531,1.531,0,0,1,.306-.781c.034-.407.1-.577.136-.577a3.342,3.342,0,0,1,.2-.679c.136-.407.272-.611.34-.611a2.128,2.128,0,0,1,.543-1.392.663.663,0,0,0,.034.238c-.17.543-.272.849-.272.883a1.546,1.546,0,0,0-.272.781h-.034c-.034,0-.068,0-.068-.068a.073.073,0,0,0-.068.068v.034c0,.034.034.068.1.068a1.668,1.668,0,0,1-.1.407,1.394,1.394,0,0,0-.238.577,6.992,6.992,0,0,0-.475,1.562,3.284,3.284,0,0,0-.407,1.392,4.79,4.79,0,0,0-.441,1.6l.034.068c-.068,0-.1.1-.17.272-.034.679-.1,1.019-.17,1.019a.125.125,0,0,0-.034-.1c.034-.2.068-.34.068-.407,0-.034,0-.238-.034-.611a.542.542,0,0,1,.1-.272Zm17.08-6.18c0-.034,0-.068.068-.068v.17h-.068Zm-2.445.306v.068h.034V9.471Zm-2.988,2.479c.068-.068.1-.136.17-.136a5.052,5.052,0,0,1,.985-1.256h.068c-.068.17-.136.272-.17.272-.34.849-.645,1.256-.917,1.256h-.1A.2.2,0,0,0,335.062,11.95Zm16.91.34a10.749,10.749,0,0,0-2.411.815,12.2,12.2,0,0,0-2.139,1.426.073.073,0,0,0,.068.068h.17c.17,0,.441-.2.917-.577l1.121-.543a8.394,8.394,0,0,1,1.562-.611c.815-.17,1.256-.272,1.256-.374v-.034c0-.1-.17-.136-.475-.17Zm-28.9,1.29a1.912,1.912,0,0,1,.407-.951v.238a6.6,6.6,0,0,1-.306.781Zm14.635-.849c.034,0,.068,0,.068.068v.1a.125.125,0,0,0-.1.034V12.8Zm-1.9.136a1.075,1.075,0,0,0-.407.611c0,.068.034.1.068.1h.034c.2,0,.34-.17.374-.509A.482.482,0,0,0,335.809,12.867Zm3.328.1c-.034,0-.068.068-.136.17l.1.17c.1-.068.136-.1.136-.136v-.1Q339.187,12.968,339.136,12.968Zm-2.615.509v.068h.068v-.068Zm-1.222.136a.073.073,0,0,0-.068.068v.034h.034c.068,0,.068,0,.068-.068v-.034Zm-12.36.374c.068-.17.136-.272.17-.272h.034v.1c-.034.2-.1.306-.17.306A.2.2,0,0,0,322.939,13.987Zm14.3-.238h.034c.034,0,.068.068.1.136v.068C337.3,13.953,337.235,13.885,337.235,13.749Zm1.6-.034a.667.667,0,0,0-.34.577,1.051,1.051,0,0,0-.272.781h.068c0-.306.068-.441.2-.441.2,0,.374-.306.407-.917Zm12.258.1-.034.068v.136a.073.073,0,0,0,.068.068h.1c.1-.034.136-.1.136-.136S351.293,13.885,351.089,13.817Zm-15.959.068c-.034,0-.034.034-.068.068v.034h.068Zm1.426.306c-.068,0-.068.034-.068.068v.136h.034c.068-.068.136-.1.136-.136v-.068Zm-.17.272c-.068,0-.1.068-.136.2,0,.034,0,.068.068.068q.1-.051.1-.1v-.1Zm-1.766.068c-.034,0-.068.034-.1.136,0,.034.034.068.034.1h.1c0-.068,0-.1.034-.1V14.53Zm15.755,0-.136.136c0,.034.034.068.136.1.068,0,.1-.034.17-.136V14.6a.073.073,0,0,0-.068-.068Zm-3.158.068c-.17,0-.374.136-.577.475l.034.068c.373-.034.577-.17.577-.407v-.068Zm3.6.272c.068,0,.1-.034.17-.068v.068a.263.263,0,0,0-.1.034h-.068ZM336.08,14.9l-.17.034a6.369,6.369,0,0,1-.611.815q-.611.713-.611.917c0,.068,0,.1.034.1a1.219,1.219,0,0,0,.577-.645,3.42,3.42,0,0,0,.815-1.154Zm-1.8.136c-.034,0-.1.068-.17.2v.034l.034.068c.1-.034.17-.068.17-.1v-.2Zm15.212,0-.136.1c.068.068.1.136.136.136h.068c.034,0,.068-.068.1-.136q-.051-.1-.1-.1Zm-14.16.136v.034h.068v-.034Zm1.121.034a.249.249,0,0,0-.2.068c-.781,1.7-1.155,2.615-1.188,2.716v.136l.034.17h.068a4.858,4.858,0,0,1,.815-1.392.482.482,0,0,0-.068-.2v-.068a5.744,5.744,0,0,0,.577-1.222v-.136Zm9.881.034H346.2a18.98,18.98,0,0,0-2.411,1.732,31.239,31.239,0,0,0-3.8,3.531l.034.068a.632.632,0,0,0,.374-.136c.475-.679.815-1.019.985-1.019a5.322,5.322,0,0,1,1.358-1.121,5.605,5.605,0,0,1,.917-.747,2.505,2.505,0,0,1,.2-.374,3.3,3.3,0,0,0,1.528-1.121,8.98,8.98,0,0,0,1.019-.747C346.4,15.244,346.369,15.244,346.335,15.244Zm-23.837.985c0-.441.068-.679.136-.679l.034.238v.034a1.655,1.655,0,0,1-.136.441H322.5Zm25.772-.1q.051-.1.1-.1h.17v.068q-.051.1-.1.1h-.17ZM322.5,16.4h.034l.034.17V16.6q-.051.1-.1.1v-.136Zm15.042.2c-.1.034-.136.136-.136.306v.068h.068c.17-.136.272-.2.272-.272s-.034-.1-.068-.1Zm-15.11.17h.034l.034.34a2.671,2.671,0,0,1-.136.407h-.034v-.441A1.419,1.419,0,0,1,322.43,16.772Zm16.231.068c.034,0,.034.034.068.136v.068a.363.363,0,0,1-.1-.17Zm-16.4,1.392c0-.034,0-.068.068-.068h.034V18.2l-.034.068Zm12.428.577c-.1.1-.17.17-.17.2v.034a.451.451,0,0,0,.1.238c.1-.068.17-.1.2-.2C334.824,18.877,334.756,18.809,334.688,18.809Zm10.017.611c.068,0,.17-.1.272-.238h.1c-.136.2-.238.306-.34.306h-.034Zm-10.221,0c-.272.2-.374.34-.374.374,0,.1.068.17.238.17a.269.269,0,0,0,.17-.272V19.42Zm2.615.781c0-.034.068-.1.2-.17h.034v.2c0,.034-.068.1-.2.17H337.1Zm-2.886-.034c-.238,0-.407.238-.509.747a.227.227,0,0,0,.136.238,1.221,1.221,0,0,0,.441-.781A1.337,1.337,0,0,0,334.213,20.167Zm2.071.883c-.136.034-.17.136-.17.272v.136h.034a.255.255,0,0,0,.17-.238v-.17Zm-2.716.374-.17.034a1.147,1.147,0,0,1-.272.645,7.731,7.731,0,0,0-.951,2.275.033.033,0,0,1,.034.034,1.017,1.017,0,0,0,.272-.136,2.5,2.5,0,0,1,.272-.815c.17-.034.306-.34.475-.917a3.46,3.46,0,0,0,.441-.951v-.17Zm2.954.17h.068v.17h-.1ZM335.4,23.019h.034q.1.051.1.1c0,.034-.034.068-.136.1Zm-3.7,2.343q-.2.051-.2.1V25.5a.31.31,0,0,1,.17.1h.068v-.17Zm5.976.068h-.034a1.171,1.171,0,0,0-.679.475v.034a.947.947,0,0,0,.747-.475Zm-6.316.34c-.034,0-.1.1-.17.238a.205.205,0,0,0,.1.2c.1-.068.17-.136.17-.17v-.034A.451.451,0,0,0,331.361,25.77Zm-.374.815a.348.348,0,0,0-.17.2.219.219,0,0,1,.068.17.269.269,0,0,0,.272-.17Zm2.479.475h.034l-.17.272H333.3Zm-2.784.034c-.1.034-.17.17-.238.407a.95.95,0,0,0-.306.645l.034.068a.914.914,0,0,0,.645-.849,1.828,1.828,0,0,0-.034-.272Zm-.747,1.358a.59.59,0,0,1-.1.238c.068.1.1.136.136.136H330c.034,0,.068-.068.136-.17a.229.229,0,0,0-.136-.2Zm2.547.475h.034c.034,0,.068.034.1.136-.034,0-.034.034-.034.1a.263.263,0,0,0-.1-.034Zm-2.852.136a.7.7,0,0,0-.272.509l.034.068c.34-.1.509-.238.509-.374A.258.258,0,0,0,329.629,29.064Zm4.788.136q-.1.051-.1.1v.034c0,.034,0,.068.068.068a.073.073,0,0,0,.068-.068v-.068Zm-5.365,1.121c-.272.034-.407.1-.407.238-.17.475-.374.713-.577.781-.136.441-.238.645-.34.645-.441.951-.713,1.426-.883,1.494a2.339,2.339,0,0,1-.238.815v.068c.374,0,.645-.34.815-.985a6.6,6.6,0,0,0,.781-1.256.451.451,0,0,0-.1-.238v-.034a2.549,2.549,0,0,0,.985-1.528Zm3.939,1.935c.2-.2.306-.34.34-.34,0,.17-.1.272-.306.34Zm-4.38.374a.42.42,0,0,1,.068-.1c.068,0,.068.034.068.068s-.034.068-.136.136Zm1.868-.034a.263.263,0,0,0,.1-.034h.034a.591.591,0,0,0-.1.238h-.034Zm1.9.238c.1-.17.2-.238.238-.238h.034a.489.489,0,0,1-.2.238Zm-2.988.1c-.034,0-.068,0-.068.068v.17h.068a.573.573,0,0,1,.068-.17A.073.073,0,0,0,329.391,32.935Zm.679.509c0-.034.034-.068.136-.1a.263.263,0,0,0,.034.1l-.17.068Zm1.222.306a1.49,1.49,0,0,1,.475-.374c-.1.238-.238.374-.407.374Zm-1.63.306c0-.136.068-.238.238-.34l-.17.475h-.068Zm1.29.1a.18.18,0,0,1,.2-.2h.034C331.191,33.987,331.123,34.055,330.953,34.157Zm-5.331,2.275a1.182,1.182,0,0,1,.374-.441c.238-.509.475-.781.679-.849,0,.2-.2.543-.645.985-.2.34-.306.509-.34.509a.073.073,0,0,1-.068-.068Zm1.8-.2c-.1.068-.136.1-.136.136V36.4l.068.1q.1-.051.1-.1v-.1Zm-2.173.951h.068v.17h-.1Zm-2.649,3.8c.272-.645.509-.985.713-.985v.034a.767.767,0,0,1-.374.611C322.872,40.846,322.77,40.982,322.6,40.982Zm-.951.917c0-.136.238-.407.713-.781,0,.034-.068.17-.136.441-.34.2-.509.34-.509.475h-.034Z" transform="translate(0.862 29.251)" fill="#19a8d4" stroke="#19a8d4" stroke-width="0.5"/>
</svg>
