<svg xmlns="http://www.w3.org/2000/svg" width="367.537" height="102.53" viewBox="0 0 367.537 102.53">
  <path id="パス_318" data-name="パス 318" d="M-66.257,64.091c.51-.057.793-.113.793-.283a4.553,4.553,0,0,0-.963-.68,5.024,5.024,0,0,1-1.19-3.456c0-2.549,1.53-8.5,4.645-17.845a51.9,51.9,0,0,0,7.025,3.626A42.919,42.919,0,0,0-42.69,47.888q3.314,0,3.4-.34c0-.113-.057-.227-.17-.227,0-.4.283-.567.793-.567a6.519,6.519,0,0,1,1.246.51l.227-.567a11.925,11.925,0,0,0,3.116-.4.6.6,0,0,1,.68-.68l.623.623c.057,0,.227-.227.51-.623.227-.567.963-.793,2.266-.793v-.17a6.067,6.067,0,0,0-1.3-.34,2.225,2.225,0,0,0-1.02.453,29.883,29.883,0,0,0-5.269.567,8.316,8.316,0,0,1-.963-.227,1.065,1.065,0,0,1,.963-.453q0-.17-.34-.34c0-.4.4-.68,1.19-.793a4.579,4.579,0,0,0,.906.057c-.057.283-.623.453-1.756.453,0,.17.34.283,1.02.283.057.227.113.34.227.34.113-.057.227-.113.227-.227.4-.227.623-.4.623-.567a.451.451,0,0,1,.51-.51,31.822,31.822,0,0,1,6.005-.963c1.756,0,5.155-1.246,10.2-3.682,0,.283-.623.906-1.926,1.926l.057.227c0,.17-.227.51-.736.85l.113.736a.49.49,0,0,1-.17.34,19.7,19.7,0,0,0-2.153,1.36v.17a6.581,6.581,0,0,0,2.606-1.3,5.563,5.563,0,0,0,3.059-4.985,1.907,1.907,0,0,0-.793-1.7h-.4A11.491,11.491,0,0,1-22.352,38.6,51.829,51.829,0,0,1-41.5,42.11h-1.7a36.314,36.314,0,0,1-18.185-5.269,5.269,5.269,0,0,1,.34-1.19,35.7,35.7,0,0,0,6.232-1.19,37.81,37.81,0,0,0,6.345-2.493,67.416,67.416,0,0,0,10.084-6.515q7.478-5.948,7.648-5.948A9.561,9.561,0,0,0-28.244,17.3c1.926-1.7,2.833-2.663,2.833-3.059a36.836,36.836,0,0,0,3.059-2.889c.283-.4,2.1-2.493,5.5-6.345q13.172-16.741,13.143-26.8a10.492,10.492,0,0,0-6.458-10.2c-1.813-1.416-4.419-2.1-7.818-2.1q-14.531,0-32.858,10.821a13.962,13.962,0,0,1-1.643,1.19c-.963,0-4.532,2.776-10.707,8.441Q-71.526-5.648-71.526-.379c0,1.473,1.02,2.606,2.946,3.4.34,0,.85,4.022,1.53,12.124V15.2a.514.514,0,0,0,.4-.17c-.227-3.229-.34-5.382-.34-6.515h.057c0,.227.057.4.17.4.113.963.4,3.569.736,7.818-.113,6.232-.453,9.348-.906,9.348l-.057-.17c.17-3.626.227-6.005.227-7.138q0-.425-.17-.51c-.057,0-.17.227-.283.567l.113,2.266a28.756,28.756,0,0,0-.283,3.626l.057.51a14.613,14.613,0,0,0-.68,3.229c-.113,1.756-.283,2.663-.567,2.663a1.917,1.917,0,0,0-1.3,1.813,5.039,5.039,0,0,0,.623,2.153,4.055,4.055,0,0,1-.623,1.19,96.109,96.109,0,0,0-3.966,16.372q.17,0,.34.68c-.51.4-.793.736-.793.906,0,.34.113.567.283.623a5.084,5.084,0,0,0-.283,1.926,6.732,6.732,0,0,0,1.7,4.532A9.489,9.489,0,0,0-66.257,64.091ZM-42.52-25.533a3.087,3.087,0,0,0-.963-.17c0-.51.736-.963,2.1-1.36,2.946-1.983,7.931-3.342,15.013-4.136a38.043,38.043,0,0,1,9.291-1.53c1.076.057,1.586.113,1.586.283-.17,0-.283.057-.283.17-.17,0-2.1.227-5.722.68a33.124,33.124,0,0,0-6.515,1.586,3.707,3.707,0,0,1-1.246-.567,3.017,3.017,0,0,0-1.36.34,13.824,13.824,0,0,0-6.232,2.1C-40.141-26.382-42.01-25.533-42.52-25.533ZM-59.119,29.7h-.057a117.51,117.51,0,0,0,4.362-11.784C-49.488,5-46.542-2.305-45.919-4a94.8,94.8,0,0,0,4.192-11.047c1.53-3.8,2.266-6.4,2.266-7.818a2.377,2.377,0,0,0-1.19-1.983v-.057a3.688,3.688,0,0,0,1.076-.51c10.367-3.739,18.129-5.552,23.284-5.552a11.925,11.925,0,0,1,4.985.736c1.7,1.133,2.549,2.946,2.549,5.5,0,4.419-2.549,10.481-7.648,18.129-2.549,3.4-4.7,6.4-6.458,8.951a31.954,31.954,0,0,0-3.8,4.419Q-28.7,8.289-28.7,8.968c-.51.34-.963.68-1.3.906-1.246,1.53-1.983,2.323-2.209,2.323a7.751,7.751,0,0,1-1.756,2.153l-.113-.227a1.868,1.868,0,0,0-.68.567c-5.439,4.759-9.461,7.931-12.124,9.518A68.25,68.25,0,0,1-59.119,29.7Zm5.042-48.494h-.057l.113-.227c3.569-3.059,5.835-4.589,6.855-4.589,0,.906-.793,1.643-2.266,2.153A27.631,27.631,0,0,1-54.077-18.791ZM-63.821,28.8h-.057c0-.057.283-1.133.85-3.116a.957.957,0,0,0-.17-.567c-.283.057-.567.34-.963.85-.113,0-.17-.113-.227-.34q.085,0,.34-1.02a6.742,6.742,0,0,1,.85-2.946v-.283c0-.17-.227-.283-.68-.453l.057-.113c0-.453-.113-1.416-.283-2.889a6.9,6.9,0,0,1,.34-1.926c0-2.663,0-4.306-.057-4.985a59.575,59.575,0,0,1-.453-7.478l-.283-.17-.113.057-.453-.113A3.056,3.056,0,0,0-66.2,2.057,1.781,1.781,0,0,1-67.617.3c.4-3.512,4.759-9.121,13.2-16.712a35.593,35.593,0,0,1,5.382-3.626c.113,0,.17.113.17.227a6.6,6.6,0,0,1-.453,2.1c-1.87,4.815-3.059,8.045-3.626,9.687-3.173,8.045-4.929,12.8-5.269,14.333a6.422,6.422,0,0,0-1.076,2.663,2.309,2.309,0,0,1,.113.4,1.812,1.812,0,0,1-.906,1.076c-.283,1.3-.68,3.116-1.3,5.325h-.17q-.51-.425-.51-.51a1.4,1.4,0,0,0-.453.963,2.858,2.858,0,0,0,.283.963l-.113.736a10.883,10.883,0,0,0-1.076,2.606,1.409,1.409,0,0,0,.4.283h.057c1.926-4.815,2.889-7.308,2.889-7.421.68-1.3,2.266-4.645,4.645-10.027q.68-2.379,1.36-2.379a5.2,5.2,0,0,1-.85,2.606A9.041,9.041,0,0,1-56.06,6.136c-.283.906-.85,2.549-1.756,4.985a13.726,13.726,0,0,0-1.7,4.419c0,.113.113.17.283.17.227,0,.623-.793,1.076-2.379.17-.963.51-1.416,1.133-1.416a14.658,14.658,0,0,1-.623,2.209l.057.227c.227-.057.453-.34.736-.793a14.055,14.055,0,0,1,1.133-3.116q.68-1.785,1.36-2.039a11.652,11.652,0,0,0,1.7-3.4A45.158,45.158,0,0,1-49.6-1.852h.057a6.391,6.391,0,0,1-.227,1.7c-2.436,5.325-3.682,8.385-3.682,9.178h.227c.567-.736.906-1.133,1.02-1.133,0,.736-.623,2.549-1.926,5.382-1.02,3.173-2.493,6.912-4.362,11.33-.4,1.756-1.02,2.663-1.813,2.663,0-.113.057-.34.113-.68v-.057h-.113q-.425,1.53-1.53,1.53l.567-2.266c0-.113-.283-.227-.906-.34-.227,0-.4.623-.567,1.87h.057a1.348,1.348,0,0,1,.623-.34,3.885,3.885,0,0,1-.68,1.53c-.113,0-.113-.113-.17-.34q0-.34.17-.34c-.057-.17-.17-.227-.227-.227l-.283.227A1.052,1.052,0,0,1-63.821,28.8ZM-14.534-6.668c.057-.567.34-.85.793-.85C-13.741-6.951-14.024-6.668-14.534-6.668Zm-.227.793h-.34v-.113a.893.893,0,0,1,.4-.4,2.01,2.01,0,0,0,.057.4ZM-49.318-2.135h-.113l-.057-.4c.51-1.076.963-2.1,1.36-3.173.057,0,.057.057.057.113A7.128,7.128,0,0,1-49.318-2.135ZM-40.594,21.6c-.057,0-.057-.057-.057-.113q.51-.51.51-.68A38.129,38.129,0,0,1-36,17.41c8.5-7.988,12.86-12.463,13.143-13.427A57.547,57.547,0,0,0-17.65-2.589a8.583,8.583,0,0,1,1.87-2.153,1.752,1.752,0,0,1-.113.453A42.889,42.889,0,0,0-18.273-.662a40.279,40.279,0,0,0-2.719,3.456c-1.19,1.246-1.756,2.039-1.756,2.379v.567l.113.113a3.511,3.511,0,0,1-.623-.17,7.5,7.5,0,0,0-1.076,1.076c-2.946,3.229-6.628,6.855-11.047,10.821C-38.554,20.242-40.254,21.6-40.594,21.6ZM-49.432.867l-.057-.453.51-.057C-49.2.7-49.318.867-49.432.867ZM-50.678,4.38a.122.122,0,0,1-.113-.113,5.649,5.649,0,0,1,.113-.906,2.525,2.525,0,0,1,1.19-1.926A9.252,9.252,0,0,1-50.678,4.38Zm29.572.4v-.34h.453C-20.652,4.606-20.822,4.72-21.105,4.776Zm-32.178.4c-.17-.113-.227-.17-.227-.227a.352.352,0,0,1,.34-.227A.762.762,0,0,1-53.284,5.173Zm28.949,3.4h-.057l-.057-.283a2.83,2.83,0,0,1,.906-.453c.736-1.36,1.36-2.153,1.983-2.379h.057C-21.5,5.683-22.465,6.759-24.335,8.572ZM-54.927,7.156a1,1,0,0,1-.453-.51c0-.34.113-.51.4-.567.113,0,.283.227.4.736Q-54.842,7.156-54.927,7.156Zm.567.51h-.057a2.832,2.832,0,0,1,.227-1.3l.34-.057v.51A4.61,4.61,0,0,0-54.36,7.665ZM-57.023,11.4h-.113A9.154,9.154,0,0,1-56.343,8.8c.283.057.4.17.4.4A2.784,2.784,0,0,1-57.023,11.4Zm31.555-1.643a.823.823,0,0,1,.567-.85l.227.34A.986.986,0,0,1-25.468,9.762Zm-31.668,5.5.283-.227c.34-1.02.623-1.53.906-1.643h.793c.227,0,.4-.34.623-1.076l1.19-2.436a2.349,2.349,0,0,0-.227-.68h-.227a2.208,2.208,0,0,1-.51.963l-.906-.057c-.227,0-.4.4-.453,1.246.057,0,.057,0,.057.057-1.076,2.436-1.643,3.739-1.643,3.852Zm30.479-4.136-.17-.51c0-.17.34-.4,1.076-.567v.113C-25.921,10.781-26.2,11.121-26.657,11.121ZM-37.7,21.319h-.113v-.34a15.591,15.591,0,0,1,3.059-2.323,46.266,46.266,0,0,1,3.8-3.512c1.983-2.323,3.229-3.456,3.739-3.456a1.469,1.469,0,0,1-.51,1.02,3.616,3.616,0,0,0-1.586,1.416c-.85.623-1.3,1.02-1.3,1.133l.057.227A5.391,5.391,0,0,0-32.493,17.3c-.51.736-.963,1.133-1.36,1.133a4.27,4.27,0,0,1-1.643,1.3C-36.571,20.752-37.308,21.319-37.7,21.319Zm-20.9-4.476c.17,0,.453-.68.85-1.926,0-.17-.057-.227-.17-.227s-.4.623-.793,1.813C-58.722,16.73-58.666,16.843-58.609,16.843Zm-1.3.283c.34-.227.51-.453.51-.736-.113-.17-.227-.283-.283-.283q-.17,0-.51.51C-60.2,16.9-60.082,17.07-59.912,17.126Zm1.7.85q.34-.255.34-.34V17.07h-.17a.825.825,0,0,1-.283.68ZM-60.2,20.016a1.57,1.57,0,0,0,.68-.283c0-.17-.283-.227-.793-.227,0-.963.113-1.416.34-1.416a1.333,1.333,0,0,0-.113-.453c-.34,0-.623.34-.793,1.02A1.959,1.959,0,0,0-60.2,20.016Zm.736-1.076c.113,0,.17-.17.283-.453,0-.113-.227-.227-.623-.227v.17Zm25.663.283h-.113c.34-.51.68-.793,1.02-.793C-32.889,18.939-33.229,19.222-33.8,19.222ZM-59.006,20.3c.113,0,.227-.227.283-.736,0-.113-.17-.113-.453-.113-.113,0-.17.17-.227.623C-59.4,20.242-59.289,20.3-59.006,20.3Zm.34,2.153.17-.057.906-2.323v-.283h-.17a12.769,12.769,0,0,1-1.19,2.606Zm-3.4.283v-.793a2.479,2.479,0,0,0,.906-2.039h-.17a9.076,9.076,0,0,0-1.133,2.663C-62.461,22.678-62.348,22.735-62.065,22.735Zm21.358,1.076h-.113c.283-.736,1.133-1.416,2.606-2.153C-38.214,22.225-39.064,22.961-40.707,23.811Zm-21.018,1.02a.753.753,0,0,0,.4-.17,1.166,1.166,0,0,0-.283-.51c-.113.057-.227.227-.34.567Zm16.882,1.7a.055.055,0,0,1-.057-.057,2.092,2.092,0,0,1,1.3-.85c.113,0,.227,0,.227.113A5.864,5.864,0,0,1-44.843,26.531Zm23.681,14.73a.208.208,0,0,0,.227-.227h-.283l-.17.057C-21.389,41.2-21.275,41.26-21.162,41.26Zm-12.407,1.133h-.057V42h.057Zm5.552.906a.6.6,0,0,0,.34-.4c-.057,0-.057-.057-.057-.113-.283.17-.4.283-.4.51Zm-5.042.51c.227-.057.34-.113.34-.283h-.4A.511.511,0,0,0-33.059,43.809Zm-7.025.34c-.17-.113-.283-.17-.283-.283,0-.057.057-.113.227-.113a.559.559,0,0,0,.34.113v.17A.957.957,0,0,0-40.084,44.149Zm-2.436.283q-.85-.17-.85-.34c.057-.113.113-.227.17-.227a1.433,1.433,0,0,1,.793.4Zm1.586-.34-.17-.227.4.113v.057Zm5.722,0a1.174,1.174,0,0,0,.34-.113c0-.113,0-.17-.113-.17l-.4.057Zm-4.136,1.246c-.17,0-.283-.17-.283-.453a.815.815,0,0,1,.623-.793A8.7,8.7,0,0,0-39.347,45.339ZM-28.64,44.6q.17,0,.17-.51H-28.7l-.057.34C-28.754,44.546-28.7,44.6-28.64,44.6Zm-12.973.85c-.057-.113-.113-.227-.17-.227l.283-.34c.057,0,.113.113.283.34v.113A1.441,1.441,0,0,0-41.614,45.452Zm4.759.793h-.057c-.227-.113-.283-.227-.283-.34l.057-.17C-37.081,45.736-36.968,45.906-36.855,46.245Zm5.155-.227.34-.057c0-.113-.057-.17-.17-.227-.17,0-.227.057-.227.17Zm-12.973,1.473c-.17,0-.227-.17-.227-.51.17,0,.227.057.227.113Zm.567-.113h-.057l.057-.4h.17C-43.936,47.265-43.993,47.379-44.106,47.379Zm3.456.113-.51-.227c0-.113.227-.227.567-.283a1.751,1.751,0,0,1,.453.113C-40.141,47.209-40.311,47.322-40.65,47.492Zm-2.833-.227a.15.15,0,0,1-.17-.17h.34A.15.15,0,0,1-43.483,47.265Zm.793.057c-.113,0-.17-.057-.17-.227C-42.747,47.209-42.69,47.265-42.69,47.322Zm-29.232,1.756h-.17a.742.742,0,0,1-.34-.68.659.659,0,0,1,.736-.623A3.144,3.144,0,0,1-71.922,49.078Zm1.473-.623h-.057l-.4-.283.057-.34.4.057Zm-.68,1.02c-.113,0-.17-.113-.227-.283a.511.511,0,0,1,.283-.057Zm1.87,11.387a1.021,1.021,0,0,1-.623-.85,7.54,7.54,0,0,0-.283-2.266,14.932,14.932,0,0,1,.453-2.663l-.057-.567c0-.34.4-.85,1.133-1.53h.057a.433.433,0,0,0,.113.283c-.17,1.416-.453,3-.793,4.759l.17,2.039A2.842,2.842,0,0,1-69.26,60.862ZM25.225,10.1h-.34c-3.739,0-7.931,1.87-12.69,5.5a77.738,77.738,0,0,0-7.478,6.912A40.315,40.315,0,0,0,.354,28.627c-.51.85-1.473,3-2.946,6.345a23.012,23.012,0,0,0-1.02,5.155A10.925,10.925,0,0,0,.014,47.945a17.158,17.158,0,0,0,11.557,4.532h.963a31.506,31.506,0,0,0,4.192-.4c3.116-.453,6.742-2.323,10.934-5.552a14.858,14.858,0,0,1,2.889-2.493,12.819,12.819,0,0,0,2.663-2.549.055.055,0,0,1-.057-.057c-.453.227-1.36.85-2.776,1.813a34.863,34.863,0,0,1-4.929,3.512,5.88,5.88,0,0,1-2.719,1.473,3.229,3.229,0,0,1,.906-.793,13.34,13.34,0,0,0,2.833-1.813,12.618,12.618,0,0,0,2.266-1.416c1.076-.567,1.643-.963,1.643-1.19C31.513,42,32.533,41.09,33.5,40.354c.51-.567.85-.906.963-.906h.057L33.382,41.2a1.179,1.179,0,0,0,.736-.4c2.266-2.209,3.456-3.4,3.456-3.626,1.53-1.87,2.323-3.116,2.436-3.739a4.67,4.67,0,0,0,.793-1.53v-.17a.805.805,0,0,0-.113-.34v-.17a6.544,6.544,0,0,0,.963-2.663.718.718,0,0,0-.057-.34c-.4,0-.906.623-1.643,1.926-.567.963-1.7,2.549-3.286,4.759v.113l.113.17v.057a4.46,4.46,0,0,1-1.246,1.416v.34h.34c.17,0,.227-.227.227-.623.17.113.227.17.227.227v.17c0,.283-.283.623-.963,1.02a3.374,3.374,0,0,0-.51-1.02H34.8a4.746,4.746,0,0,0-1.586,1.643c.057,0,.057,0,.057.057h.057c.906-.85,1.416-1.3,1.586-1.3a4.519,4.519,0,0,0,.227.906,1.853,1.853,0,0,0-.85,1.3h-.736c0-.113-.113-.227-.34-.227h-.057l-.51.34c-.34,0-.453.17-.51.51,0,.113-.113.283-.453.51v.113c.17.17.227.283.227.34a10.046,10.046,0,0,1-.963.567.677.677,0,0,0-.453-.227h-.057a5.023,5.023,0,0,0,.057.736s-.283.057-.906.17v.4a11.981,11.981,0,0,0-1.756,1.36,13.331,13.331,0,0,0-3,1.473l.057-.283h-.453a7.508,7.508,0,0,1-1.36.51v.34h-.34a6.222,6.222,0,0,1-1.586.736,3.689,3.689,0,0,0-2.323,1.02h-.17a9.026,9.026,0,0,0-2.889.85,8.529,8.529,0,0,1-3.626.906,11.191,11.191,0,0,1-3.8-.68c-3.286-1.36-4.929-3.909-4.929-7.761v-.17A17.18,17.18,0,0,1,5.68,32.989h.057c0,.906.227,1.473.736,1.756a2.235,2.235,0,0,0,.906,1.19,11.716,11.716,0,0,0,4.079,1.133c3.229,0,7.761-2.379,13.6-7.082,5.948-5.269,8.894-9.744,8.894-13.313a4.805,4.805,0,0,0-1.87-3.682A12.2,12.2,0,0,1,29.757,11.4C29.36,10.555,27.831,10.1,25.225,10.1ZM8.626,28.287a39.049,39.049,0,0,1,4.929-5.5,48.224,48.224,0,0,1,7.535-5.665c3.739-1.926,6.175-2.889,7.251-2.889h.623q1.02,0,1.02.85c0,.906-.906,2.266-2.663,3.909-3.456,3.456-6.912,6.685-10.311,9.688a41.36,41.36,0,0,1-4.985,3.682A2.74,2.74,0,0,1,10.1,33.1h-.057a2.254,2.254,0,0,1-1.813-.793c-.51-1.076-.793-1.643-.793-1.643a5.946,5.946,0,0,1,1.246-2.209A.208.208,0,0,0,8.626,28.287ZM30.72,14.464h.227c.113.68.17,1.133.17,1.246a5.641,5.641,0,0,1-1.7,3.342c-4.192,4.136-6.572,6.232-7.082,6.345h-.113a3.578,3.578,0,0,1,.85-.68,25.165,25.165,0,0,0,5.1-4.985q2.719-2.974,2.719-3.909a7.4,7.4,0,0,0-.17-1.3ZM9.249,23.471c0-.227.113-.34.283-.34v.227A.957.957,0,0,0,9.249,23.471ZM1.261,34.405a3.7,3.7,0,0,1,.68-1.473,29.282,29.282,0,0,1,4.249-6.288,9.1,9.1,0,0,1,2.436-2.606h.113a2.163,2.163,0,0,1-.51.85C4.83,29.25,2.9,31.8,2.507,32.479q-.765,2.039-1.19,2.039H1.261Zm5.552-1.3a.957.957,0,0,1,.283.113c.68.623,1.133.906,1.36.906h.227a1.433,1.433,0,0,0,.793-.4h.283v.057a9.808,9.808,0,0,1-1.7.85l-.283-.057-.227.113a2.525,2.525,0,0,1-.736-1.3Zm-3.909.17h.17l.057.283v.057H3.074q-.17-.085-.17-.17ZM-.326,33.9h.057v.227H-.326Zm.906,1.756c0-.283.227-.567.793-.906a2.856,2.856,0,0,1-.623,1.3H.638l-.057-.283Zm1.53-.736a.84.84,0,0,1,.4.057v.113c-.113.17-.227.283-.283.283,0-.17-.057-.227-.17-.227C2.054,35.028,2.111,34.972,2.111,34.915Zm-.4.68h.453a5.051,5.051,0,0,1-.51,1.7c-.227.113-.34.623-.34,1.643a32.449,32.449,0,0,0-.623,3.456v.4c.453,2.323.906,3.456,1.246,3.456q.17-.085.17-.17v-.057a2.587,2.587,0,0,1-.453-1.246v-.51l.113.057C3.3,46.585,4.037,48,4.037,48.455v.227a.208.208,0,0,0-.17.057c-.906,0-1.926-.963-3.173-2.833A13.944,13.944,0,0,1-.1,41.6a13.881,13.881,0,0,1,1.133-4.7A5.41,5.41,0,0,0,1.714,35.595ZM-1.855,37.8A4.71,4.71,0,0,1-1.4,36.388c.113-.453.283-.736.51-.736l.057.283v.17a3.908,3.908,0,0,1-.736,2.1C-1.629,38.2-1.742,38.031-1.855,37.8Zm1.813-.68c0-.057.113-.17.4-.283l.057.283c0,.17-.113.283-.227.453-.057,0-.113-.113-.227-.283ZM-.1,37.8h.057c.17.057.227.17.227.4v.113l-.057.113c-.057,0-.17-.113-.34-.227Zm35.124,1.19c.736-.793,1.133-1.19,1.246-1.19v.283a2.924,2.924,0,0,0-1.02,1.02Zm-37.107.057a.426.426,0,0,1,.283-.4c.227,0,.4.227.4.736a1.744,1.744,0,0,1-.113.623q.085,2.124.17,2.889c0,.4.113.567.34.567a5.017,5.017,0,0,0,.623,1.473c-.963,0-1.586-1.416-1.756-4.249,0-.453.057-.963.057-1.53Zm34.558.906h.4c0,.113,0,.17.057.227h-.4A.341.341,0,0,0,32.476,39.957Zm-8.5,5.892a.709.709,0,0,1,.51-.283H24.6c0,.057-.227.113-.567.283Zm-3.456,1.926a.438.438,0,0,0,.17-.057h.057v.057a.208.208,0,0,0-.17.057h-.057Zm-9.461,2.493.283.17-.057.113-.34-.057v-.057Zm.963.283c.283-.057.453-.113.51-.113h.057c.567.057.85.17.85.283,0,0-.17.057-.4.113a2.572,2.572,0,0,1-1.02-.227Zm.906.906a10.427,10.427,0,0,0,2.323-.283l.51.34c0,.113-.17.17-.567.227a10.918,10.918,0,0,0-1.416-.17h-.85Zm46.16,3.059a24.487,24.487,0,0,0,8.951-2.153,24.083,24.083,0,0,0,5.269-3v-.113l-1.246.283v-.057c.34-.51,1.076-.736,2.153-.736.51,0,1.53-.906,3.116-2.776,1.246-.793,2.039-1.36,2.436-1.643A5.864,5.864,0,0,1,81.7,42.336a30.013,30.013,0,0,1,2.493-2.266,12.442,12.442,0,0,0,2.493-3.116c1.756-2.039,2.663-3.682,2.663-4.815,0-.34-.17-.453-.51-.453a2.063,2.063,0,0,0-1.076,1.7H87.7l-.227-.227-.113.057a10.355,10.355,0,0,1-1.3,2.493,3.946,3.946,0,0,1-1.076-.227l-.057.057.057.17a1.568,1.568,0,0,1-.51-.057,12.134,12.134,0,0,0-.963.963v.567l-.4-.057c-.68.283-1.02.623-1.02,1.076l.85.057c.34-.453.567-.68.85-.68.057,0,.113.113.113.4l-.057.283a4.722,4.722,0,0,0-1.3,1.133l.057.113a13.734,13.734,0,0,1-1.586,1.133c-1.586,1.473-2.606,2.209-3.116,2.209V42.79l.17-.227a56.77,56.77,0,0,0,4.136-3.909.467.467,0,0,0-.453.283,1.333,1.333,0,0,1-.453-.113l-.17.113c0,.283-.113.453-.4.453a6.971,6.971,0,0,1-1.53,1.416l-.17-.057a5.769,5.769,0,0,1-1.473,1.133C69.515,46.812,63.34,49.3,59.148,49.3c-2.889,0-4.306-1.36-4.306-4.022,0-3.8,2.323-8.894,6.855-15.409a57.362,57.362,0,0,1,7.138-8.781c3.4-3.286,6.062-4.929,7.875-4.929.4,0,.623.34.623.906a23.153,23.153,0,0,1-3.8,6.742c0-.057-.057-.227-.113-.623a4.628,4.628,0,0,0,.283-.963l-.057-.057a2.267,2.267,0,0,0-.793,1.19c-.4,1.473-.793,3-1.3,4.589a1.144,1.144,0,0,0-.51,1.02c0,1.246.4,1.87,1.076,1.87h.4c.736,0,1.813-.963,3.229-2.946,3.286-5.1,4.929-8.951,4.929-11.444v-.68a3.156,3.156,0,0,0-1.53-2.606,9.956,9.956,0,0,0-4.759-1.246q-6.968,0-18.185,12.407c-7.025,8.611-10.537,15.466-10.537,20.508a9.232,9.232,0,0,0,2.1,5.835,8.914,8.914,0,0,0,4.759,3.342h.113v-.34A22.3,22.3,0,0,0,59.091,54.517ZM79.259,17.523H79.2V17.24h.057ZM57.788,28.457l-.17-.113c.4-.453.623-.623.68-.623.17.057.227.113.227.17s-.113.113-.4.283C58.015,28.343,57.9,28.457,57.788,28.457Zm-6.005,9.4a5.951,5.951,0,0,0-.736-.113,1.563,1.563,0,0,1,.567-1.076c.623-1.416,1.076-2.1,1.246-2.1a41.241,41.241,0,0,0,3.229-4.532c.567-.453.85-.793.85-1.133H57a3.325,3.325,0,0,1-1.643,3.229c-.283.793-.567,1.3-.85,1.416a23.535,23.535,0,0,1-2.209,3.229.643.643,0,0,0,.17.453h-.17a.753.753,0,0,0-.4-.17c-.113,0-.17.113-.227.4Zm33.651-1.473c-.057,0-.17-.113-.227-.283q0-.085.34-.17c.057,0,.057.057.113.17C85.661,36.161,85.6,36.218,85.434,36.388Zm-1.133.963a.907.907,0,0,1,.567-.736A.72.72,0,0,1,84.3,37.351Zm.906.68h-.4c.34-.736.68-1.076.963-1.076l.057.34A.729.729,0,0,0,85.208,38.031Zm-37.56,4.136h-.113v-.453l.227-1.19-.057-.793a1.377,1.377,0,0,1,.567-.736,6.2,6.2,0,0,1,1.02-1.643c.057,0,.113.057.113.17C48.611,40.637,48.044,42.167,47.647,42.167Zm3.342-1.3h-.227c0-.113.227-.283.567-.68.113,0,.113.057.113.17C51.443,40.694,51.33,40.864,50.99,40.864ZM80.449,42a.122.122,0,0,0-.113-.113l.113-.17.227.057C80.676,41.827,80.562,41.94,80.449,42ZM49.177,47.775a2.79,2.79,0,0,1-.283-1.02l.057-.736c.51-2.323.963-3.682,1.416-4.136h.057l.057.4a31.9,31.9,0,0,1-.85,3.173C49.63,46.982,49.46,47.775,49.177,47.775ZM77.22,42.563h-.113c0-.283.17-.4.453-.4C77.56,42.45,77.446,42.563,77.22,42.563ZM47.138,43.809a.986.986,0,0,0-.17-.4l.227-.4-.057-.34a.805.805,0,0,0,.113-.34l.453.17v.17c-.057.17-.113.227-.17.227C47.477,43.526,47.364,43.809,47.138,43.809Zm30.026-.17h-.17c0-.17.113-.283.34-.283C77.276,43.526,77.22,43.639,77.163,43.639Zm-1.19,1.076c-.057,0-.113-.057-.113-.17l.113-.17.17.113Zm-28.269.34c-.057,0-.17-.113-.227-.227.057-.227.113-.283.17-.283l.34.227C47.874,44.942,47.761,45.056,47.7,45.056Zm-.68,1.36c-.17-.057-.227-.17-.227-.227a.376.376,0,0,1,.283-.227v.34ZM74.5,48.285h-.113c0-.283.17-.4.623-.4v.057A.544.544,0,0,1,74.5,48.285Zm-25.21.963a.837.837,0,0,1-.51-.736c0-.057.113-.17.4-.4a.876.876,0,0,1,.4.68C49.517,49.078,49.4,49.248,49.29,49.248ZM109.9,10.555a4.787,4.787,0,0,0-3.286,1.643,17.481,17.481,0,0,0-3.116,5.722c-2.379,6.8-4.022,11.217-4.872,13.257a21.891,21.891,0,0,0-2.153,5.609c-3.116,11.047-4.7,17.279-4.7,18.7v.17a3.819,3.819,0,0,1,.736.85,2.386,2.386,0,0,0,1.53,1.19,2.69,2.69,0,0,0,1.36.567c.34,0,.567-.057.567-.113.68,0,1.3-.793,1.926-2.436,3.4-5.665,6.062-9.914,7.931-12.633a48.218,48.218,0,0,0,3.8-7.025,26.689,26.689,0,0,1,4.872-8.1c2.833-4.362,5.1-6.515,6.912-6.515h.4a2.572,2.572,0,0,1,1.02.227,28.585,28.585,0,0,1,3.739,3.059,3.667,3.667,0,0,0-.17-.567v-.34h.057a3.058,3.058,0,0,1,.963,1.076,7.359,7.359,0,0,1,1.756,1.473h.057l.17-.113h.113a1.44,1.44,0,0,0,.906.906c.113,0,.17-.057.17-.113V26.7q.85.255.85.51v.113q-.51.085-.51.17v.057q.765.85,1.19.85l.4-.057c.453.113.68.227.793.227l.283-.057v-.17l-.17-.227V28.06h.51c.057.283.113.453.227.453s.113-.057.113-.113v-.057l-.057-.283h.283c2.1,0,4.079-1.36,5.948-4.136v-.057h-.057a5.233,5.233,0,0,0-1.926,1.926q-.595,0-1.7,1.19a21.049,21.049,0,0,1-3.569.623h-.057l-.113.057c0-.057-.113-.057-.34-.057-.283-.453-.453-.68-.567-.68a.805.805,0,0,1-.34.113c0-.057-.057-.17-.227-.34a2.316,2.316,0,0,1-1.076-.793l-1.3-.963a.874.874,0,0,1-.567-.906.69.69,0,0,1,.567.34c.68.34,1.02.567,1.076.736a4.159,4.159,0,0,1,.793.567l1.246.453a.685.685,0,0,1,.51-.34,3.033,3.033,0,0,1,.51.4h.113q.17-.085.17-.17l.4.453h.113a2.541,2.541,0,0,0,.623-.057c.17,0,.283-.227.4-.793a2.058,2.058,0,0,0,.623.17h.17c.793,0,1.926-.793,3.286-2.436a6.8,6.8,0,0,1,2.889-2.039c0-.736-.227-1.133-.68-1.133l-.34.057a1.506,1.506,0,0,1-.736-.567l-.227.227.113.736c-.17.17-.227.283-.227.34a2.763,2.763,0,0,0,.227.623v.17h-.057c-.113,0-.17-.227-.283-.567-.057,0-.113.057-.17.227l.057.34C137.6,23.925,136.127,25,135.39,25a1.272,1.272,0,0,1-.85-.453h-.057a1.267,1.267,0,0,0-.567.17h-.057c-.227-.453-.453-.68-.623-.68l-.906.113c-1.53,0-3.229-1.076-5.269-3.286-2.606-3.286-4.985-4.985-7.082-4.985-1.926,0-3.909,1.36-6.118,4.022a2.451,2.451,0,0,1-.793,1.133v.227c0,.057,0,.113.113.113h.113a.122.122,0,0,0,.113-.113,2.885,2.885,0,0,0,.623.227v.057c-.227,0-.51.453-.793,1.36v.057q.085.17.17.17h.057a.9.9,0,0,0,.68-.283V22.9c0,.34-.51.85-1.473,1.473q-.085,0-.34-.51c-.34,0-.623.4-.85,1.133-.34.17-.51.567-.51,1.246l.4-.057V26.3a1.567,1.567,0,0,1-.623,1.36h-.057q-.765-.68-1.02-.68h-.113a.431.431,0,0,0-.453.34c0,.057,0,.113.113.113h.17c0-.113.057-.17.227-.227a5.333,5.333,0,0,1,.227.567.6.6,0,0,0-.623.453.376.376,0,0,0,.283.227v.057a4.156,4.156,0,0,0-.963,1.473c0,.4-.34.623-1.076.85a1.811,1.811,0,0,0,.453.963v.057c-.793.113-1.133.227-1.133.4v.453a1.067,1.067,0,0,1-.113.453.531.531,0,0,0-.34.453v.17l.057.113.283-.057a11.567,11.567,0,0,1,.963-1.36v.34a2.167,2.167,0,0,1-.68,1.19q0,1.1-1.7,3.909c-.623,1.19-1.076,1.813-1.3,1.813l-.113-.057-.567,1.133A63.813,63.813,0,0,1,98,50.608h-.057v-.057a2.753,2.753,0,0,1,.34-.963,70.425,70.425,0,0,0,4.249-9.291,30.54,30.54,0,0,0,1.53-3.173,1.924,1.924,0,0,0,.68-.68,8.073,8.073,0,0,1,.623-1.983l-.113-.057h-.057q-.085,0-.68.68c-.85,1.87-1.473,2.833-1.926,2.833h-.113v-.057c.793-2.889,1.416-5.042,1.926-6.345,0-.453,2.1-5.269,6.175-14.446.453-.623.736-2.1.963-4.476v-.283C111.426,11.121,110.86,10.555,109.9,10.555Zm4.419,11.9c.113-.113.17-.227.283-.227a2.109,2.109,0,0,1,1.02-1.076c.227-.623.51-.906.85-.906l.34.057v.113c-.113,0-.17.057-.283.17l.057.567a1.52,1.52,0,0,1-.85,1.3,7.249,7.249,0,0,1-.963,1.473,6.827,6.827,0,0,1-1.7,2.436l-.453-.4.17-.453q1.02-1.02,1.36-1.02c0-.4.4-.963,1.076-1.7v-.113l-.4.057h-.4l-.113.057Zm-7.365-.68h.113c0,.057-.057.113-.057.227h-.057Zm.113,1.473c0-.227.17-.4.453-.68h.057v.17a1.071,1.071,0,0,1-.4.793c-.057,0-.057-.057-.113-.113Zm-1.19.906c.057-.17.113-.283.283-.34v.34Zm-1.133,3.682a10.344,10.344,0,0,0,1.133-2.266,2.024,2.024,0,0,1,.963-1.36c-.623,1.133-1.416,2.946-2.436,5.325-1.473,3.456-2.209,5.5-2.209,6.062s-.4.963-1.19,1.133a.586.586,0,0,1,.057-.227c.453-1.473.906-2.833,1.416-4.079v-.057c-.113,0-.283-.113-.4-.453,0-.283.227-.68.736-1.3a24.728,24.728,0,0,1,1.473-3.173.208.208,0,0,0-.057-.17c.51-1.19.906-1.813,1.246-1.87h.057a11.682,11.682,0,0,0-.906,2.436Zm1.02-3.286q.17,0,.17.34h-.057c-.057,0-.113-.113-.17-.227Zm5.722,1.246a.655.655,0,0,1,.453-.51.969.969,0,0,1,.34-.51h.113v.34q-.425,0-.51.68v.227c-.057,0-.17.057-.227.057s-.113-.057-.17-.057Zm17.336-.68h.057v.113h-.057Zm-25.493.113.227.057v.057h-.113C103.325,25.341,103.325,25.284,103.325,25.228Zm.283,1.076h.057l.057.17-.113.057Zm7.138.227c-.057,0-.057.057-.113.113l.057.283h.057c.113,0,.113-.057.113-.113v-.17C110.86,26.587,110.86,26.531,110.746,26.531Zm1.076,1.36a.571.571,0,0,1,.51-.623l.113.057c-.113.4-.227.567-.34.567Zm-8.951.51c.17-.51.283-.793.453-.793v.057C103.155,28.117,102.985,28.4,102.872,28.4Zm7.082-.17c0-.113.113-.17.283-.17h.057a1.154,1.154,0,0,1-.113.623c-.113-.113-.227-.17-.227-.227Zm1.416.4c0-.34.113-.51.283-.51h.113l-.283.567Zm-8.781.283a.122.122,0,0,1,.113.113,18.34,18.34,0,0,1-1.246,3h-.113v-.113c.113-.567.17-.793.283-.793A17.978,17.978,0,0,1,102.589,28.91Zm6.628,1.926c.057-.17.17-.227.227-.227a.208.208,0,0,0,.057.17v.057Zm-.113,1.246c0-.113,0-.113.113-.113h.17c-.113.113-.17.17-.17.283H109.1Zm-3.059.85a.122.122,0,0,0-.113.113V33.1c0,.113,0,.113.113.113h.17v-.17c0-.057-.057-.057-.113-.113Zm-.4.4q-.17.085-.17.17v.283a.122.122,0,0,0,.113.113q.17-.085.17-.17v-.4Zm1.87,2.266q.17-1.19.34-1.19h.34v.17a5.024,5.024,0,0,1-.623,1.076h-.057Zm-.227.283h.057c.057,0,.113.057.17.113-.057.227-.283.4-.567.623A3,3,0,0,1,107.291,35.878Zm-2.323.963-.17.113a.565.565,0,0,0,.057.227h.057a.122.122,0,0,0,.113-.113v-.113Zm1.756.057c.057,0,.113.057.113.227l-.057.057h-.113Zm-.906,1.7c0-.4.113-.567.453-.567v.227c-.17.227-.227.34-.283.34Zm-6.4.057h.057v.227h-.057Zm-.283.85h.113v.057a22.823,22.823,0,0,1-1.133,4.476c-.34,1.756-.736,2.663-1.076,2.663,0,0,0-.057-.113-.057l.057-.113v-.85l.057-.057-.057-.057-.227.057v-.17h.17c.34,0,.51-.34.51-.906v-.17a2.549,2.549,0,0,0-.453.113c0-.113,0-.17-.057-.227.057,0,.113-.113.113-.4.227.17.34.34.34.453h.057c.113,0,.17-.17.227-.51a4.511,4.511,0,0,0,.736-1.983A22.425,22.425,0,0,0,99.133,39.5ZM95.28,45c.113-.227.227-.283.283-.283L95.62,45v.113q0,.085-.34.17Zm-.567,2.379a1.118,1.118,0,0,1,.34-.793,1.751,1.751,0,0,0,.113.453c-.227.283-.34.4-.4.4h-.057Zm1.53.227c0-.057,0-.113.113-.113.057,0,.113.057.17.227l-.283-.057Zm-1.586,0h.057a.283.283,0,0,1,0,.34l-.113-.057Zm84.967-36.427-.17.057c-.963.51-1.416,1.02-1.416,1.36a11.117,11.117,0,0,0-.906,1.19c-.113.906-.17,1.36-.283,1.36a9.759,9.759,0,0,1-.906,2.663v.227l.057.113c-.057,0-.113.17-.17.623-.4.227-.567.453-.567.51a.842.842,0,0,0,.113.51l-.453.623v.227l.057.113c.227-.057.4-.113.4-.283h.057v.17a8.45,8.45,0,0,1-1.416,2.889c-.17.623-.34.906-.51.906a9.105,9.105,0,0,1-1.076,1.756c-.283.906-.51,1.3-.623,1.36a5.519,5.519,0,0,0-.567.85,2.172,2.172,0,0,1-.453.963,13.58,13.58,0,0,1-1.473,2.209,5.109,5.109,0,0,1-1.133,1.756,6.815,6.815,0,0,1-1.246,1.983c-.453.736-.85,1.133-1.02,1.133a.916.916,0,0,1,.227-.567v-.283a1.068,1.068,0,0,1-.51.227,3.479,3.479,0,0,0-.736,1.02.876.876,0,0,0,.17.34,1.632,1.632,0,0,0,.736-.51h.057v.113a5.608,5.608,0,0,1-.736,1.076h-.113v-.4a.122.122,0,0,0-.113-.113h-.057l-.17.113v-.113h-.057c-.4.567-.793,1.076-1.19,1.586,0,.453-1.643,2.379-4.985,5.779-2.493,2.889-4.306,4.306-5.552,4.306h-.057a.964.964,0,0,1-.4-.057c-.85-.4-1.246-1.586-1.246-3.626v-.51a52.55,52.55,0,0,1,.963-8.328,65.364,65.364,0,0,1,2.663-9.461c0-.453,1.19-3.626,3.626-9.574a12.241,12.241,0,0,0,1.246-3.569v-.057a2.092,2.092,0,0,0-.113-.736,3.13,3.13,0,0,0-2.776-1.87,6.256,6.256,0,0,0-3.456.963c-.227,0-.736.963-1.473,2.889L150,19.506c-.453,1.813-.85,3.512-1.3,5.042-2.889,8.441-4.306,14.616-4.306,18.582v.51c0,.453,0,.68.057.68q0,2.549,3.059,5.948a9.857,9.857,0,0,0,6.458,2.776h.17a4.965,4.965,0,0,0,2.719-1.19,6.962,6.962,0,0,0,2.493-1.586c3.456-3.512,5.269-5.552,5.439-6.062v-.113a12.28,12.28,0,0,0-1.643,1.643,10.975,10.975,0,0,0-1.813,1.7c0,.4-.623.623-1.813.68v-.057a11.58,11.58,0,0,0,1.813-1.416,41.44,41.44,0,0,0,4.532-4.759,93.091,93.091,0,0,0,6.515-9.518h.057v.057a9.3,9.3,0,0,0-.567,3.682,9.777,9.777,0,0,0,.906,4.306c1.473,3,4.079,4.532,7.818,4.532h.057a16.275,16.275,0,0,0,8.611-2.663c.85-.736,1.246-1.19,1.246-1.36a10.322,10.322,0,0,0,2.606-2.833c0-.057,0-.113-.113-.113a2.549,2.549,0,0,0-.51-.963c.057-.283.113-.4.113-.453a.122.122,0,0,0-.113-.113,1.018,1.018,0,0,0-.51.227,5.059,5.059,0,0,1-1.416,1.473l-.113-.057.057-.227c.567-.453.85-.85.85-1.133v-.113h-.113a1.057,1.057,0,0,0-.567.283,18.513,18.513,0,0,1-3.059,2.493c-.113.227-.34.283-.736.283q0,.255-1.02.68c-1.02.113-1.53.283-1.53.4l.17.283c0,.057-.227.227-.736.51a8.518,8.518,0,0,1-2.663-.4,4.275,4.275,0,0,1-2.776-4.419V36.1a9.214,9.214,0,0,1,.68-3.286,1.568,1.568,0,0,1-.057-.453,34.327,34.327,0,0,0,1.02-4.079c1.36-4.192,2.039-6.345,2.039-6.4a20.191,20.191,0,0,0,1.19-4.306v-.057L182.91,15.2v-.567a1.756,1.756,0,0,1,.283-.623c0-.057,0-.113-.113-.227l-.17.113H182.8c-.567-.793-.963-1.246-1.19-1.246-.227.227-.34.34-.4.34s-.113-.113-.227-.4l.113-.17c-.17-.567-.283-.85-.453-.85h-.057c-.34.057-.567.113-.623.113h-.057A1.108,1.108,0,0,0,179.624,11.178Zm1.53,3c0-.057.113-.17.4-.283l.113.057c0,.057-.17.17-.453.227Zm-.623,4.7h.227c.057,0,.113,0,.113.057v.227l-.057.34a1.83,1.83,0,0,1-.567,1.246v.283l.283.283-.51.34c0,.057.057.113.057.227-.113.4-.227.567-.34.567a7.414,7.414,0,0,1-.51,1.586,10.487,10.487,0,0,0-.623,2.153V26.3l.057.113a.438.438,0,0,0,.17-.057h.057v.283a4.946,4.946,0,0,1-.283.736c-.113,0-.113-.113-.113-.283h-.17a4.33,4.33,0,0,1-.283.906,2.588,2.588,0,0,1-.283.85v.113c0,.113.057.113.113.113l.17-.113c.057-.623.17-.906.4-.906a.438.438,0,0,0,.057.17c-.057.17-.113.283-.17.283-.113.623-.567,2.436-1.416,5.382l-.227-.227a2.8,2.8,0,0,0,.17-.85l-.113-.17h-.057a17.843,17.843,0,0,0-.623,2.663c0,.057,0,.113.113.113s.283-.4.4-1.076v-.17h.113v.453a2.572,2.572,0,0,1-.227,1.02.433.433,0,0,1-.283-.113h-.057l-.227.113a3.241,3.241,0,0,1-.567,1.926c.113.793.227,1.3.227,1.416a2.474,2.474,0,0,1-.4,1.19l-.113-.057a3.048,3.048,0,0,0-.51-1.473.366.366,0,0,0-.283.113,7.71,7.71,0,0,0,.057.906c-.34,0-.51-.34-.51-.963a3.894,3.894,0,0,0,.17-1.416,2.949,2.949,0,0,0-.17-.283,2.445,2.445,0,0,0,.227-.793c0-.227-.057-.4-.17-.4a8.5,8.5,0,0,0-.51,2.606l.057.283-.113.34h-.057c0-.057,0-.113-.113-.227a4.628,4.628,0,0,0,.057-.793,3.5,3.5,0,0,0-.113-1.02,4.938,4.938,0,0,0,.113-1.133,1.345,1.345,0,0,0-.17-.85v-.057a1.05,1.05,0,0,0,.4-.113,3.185,3.185,0,0,1,.4-1.3l-.17-.227-.113.057c-.057.4-.113.623-.227.623h-.227a1.6,1.6,0,0,0-.057-.453,1.52,1.52,0,0,1,.453-.906h.057c0,.113.057.17.113.17a1.019,1.019,0,0,0,.4-.85,14.608,14.608,0,0,0,.567-1.87,9.027,9.027,0,0,0,.68-1.756L176,27.38v.057l-.283,1.473v.057c0,.113,0,.113.113.113h.057l.113-.057-.057-.227c0-.113,0-.113.113-.113h.057l.283.057q.51-.17.51-.51a3.684,3.684,0,0,0,.51-1.473,4.421,4.421,0,0,0,.51-1.19l-.057-.057a7.1,7.1,0,0,0,.51-1.53,4.734,4.734,0,0,0,.567-1.756c0-.17.227-.4.68-.793v-.057c0-.113,0-.17-.057-.227Zm-2.379.623.113.057c-.113.567-.227.85-.283.85a2.861,2.861,0,0,1-.283,1.076.442.442,0,0,1-.227-.227c.113,0,.227-.34.34-.963A2.134,2.134,0,0,0,178.151,19.506Zm-23.964,1.53a.122.122,0,0,1,.113.113h-.113Zm20.168.34q-.17.085-.17.17V21.6q.085.17.17.17h.113q.17-.085.17-.17C174.639,21.489,174.525,21.432,174.355,21.375Zm1.53,5.042.453-1.7c.34-.283.453-.85.453-1.756.283-.85.51-1.3.68-1.3v.17l-.113.4v.4a1.1,1.1,0,0,1-.057.453c-.34.85-.567,1.53-.793,2.153-.057.51-.17.736-.283.736v.283c0,.4-.113.567-.17.567h-.113l-.057-.283Zm-2.436-3.569a.69.69,0,0,1-.34.567v.057c.113.17.17.227.227.227a.938.938,0,0,0,.283-.736v-.113Zm-20.111.113.113.057c-.113.4-.283.623-.4.623A.938.938,0,0,1,153.337,22.961Zm19.715,1.076h-.113c-.113.34-.283.736-.453,1.133,0,.057.057.113.057.17h.17l.057-.34c.283-.283.453-.51.453-.68v-.113Q173.137,24.038,173.052,24.038Zm6.458.227h.057v.113h-.057ZM158.776,47.832v-.057c.453-.51.963-1.076,1.473-1.756a14.8,14.8,0,0,1,1.756-2.493,4.7,4.7,0,0,1,.906-1.246,10.968,10.968,0,0,1,1.7-2.153,3.8,3.8,0,0,1,1.473-2.323,30.356,30.356,0,0,1,2.436-3.682c.623-1.19.963-1.813.963-1.813a15.014,15.014,0,0,1,1.19-1.926c.51-1.076.85-1.643,1.02-1.643.453-.963.906-1.7,1.19-2.209a10.178,10.178,0,0,1,1.473-2.209,40.035,40.035,0,0,1-.85,4.249,22.687,22.687,0,0,0-2.436,3.8,31.26,31.26,0,0,1-4.362,7.365,38.488,38.488,0,0,1-7.875,8.1Zm-6.175-23.4h.057a1.823,1.823,0,0,0,.057.453c-.4,1.3-.623,1.983-.736,1.983-.113.68-.227,1.02-.283,1.02v-.113h-.17V28a.208.208,0,0,1,.17.057,1,1,0,0,0-.057.34,6.278,6.278,0,0,0-.51,1.3,10.953,10.953,0,0,0-.793,2.606,8.868,8.868,0,0,0-.85,2.946,7.97,7.97,0,0,0-.623,2.663,9.682,9.682,0,0,0-.453,2.436H148.3a2.076,2.076,0,0,1,.113-.906c-.057-.057-.057-.113-.057-.227v-.906l.17-.567v-.4a1.568,1.568,0,0,1,.057-.51,5.621,5.621,0,0,0,.453-1.53l.4-1.87A1.744,1.744,0,0,1,150,32.309v-.17a6.244,6.244,0,0,1,.113-1.02,3.332,3.332,0,0,0,.567-1.416v-.34a.91.91,0,0,0,.283-.623c.34-1.19.623-1.813.793-1.813A5.2,5.2,0,0,1,152.6,24.434Zm19.432,1.586c-.17.113-.227.17-.227.227V26.3q.085.17.17.17h.113c.057,0,.113,0,.113-.113v-.227c0-.057-.057-.057-.113-.113Zm4.476,2.889h-.283c-.227.68-.34.963-.4.963,0-.283-.057-.453-.113-.453H175.6c-.113,0-.17.17-.227.453a.208.208,0,0,0,.17.057c.057,0,.17.17.4.567-.17.51-.283.793-.4.793h-.057l-.227-.17c.113-.453.227-.736.227-.85V30.1h-.113a3.723,3.723,0,0,0-.453,1.36l.113.17.113-.057h.283q.17.085.17.17V31.8a.973.973,0,0,0-.113.453v.113h.17a10.729,10.729,0,0,0,.906-3.4Zm-6.685.736c-.057,0-.057.057-.113.113l.057.113.17-.113C169.937,29.7,169.937,29.646,169.823,29.646Zm7.761.113c-.113,0-.227.227-.283.623.057,0,.057,0,.057.057.17-.057.283-.17.283-.227v-.34Zm21.018.17-1.133,1.19q-.34,1.02-.68,1.02v.113c.057.283.17.4.227.4h.057c.113,0,.227-.113.283-.4a14.818,14.818,0,0,0,1.36-2.153C198.716,29.986,198.659,29.93,198.6,29.93Zm-29.232.453v.17h.113v-.17Zm4.476.623.113.057-.057.283h-.113a.208.208,0,0,0-.057-.17Zm-4.759,0-.17.113a2.71,2.71,0,0,1-.567.963v.227c.17,0,.453-.34.793-1.133v-.17Zm6.005.736h-.17a4.253,4.253,0,0,0-.4,1.133v.4h.057a1.854,1.854,0,0,0,.51-1.473Zm1.87.283c-.057,0-.113.113-.227.283l.113.057a.7.7,0,0,0,.17-.113v-.227Zm-28.383.51h.057l.057.283-.51,1.586h-.17v-.057A4.262,4.262,0,0,1,148.579,32.536Zm47.984,0h-.113a9.058,9.058,0,0,1-1.87,2.1l-.51.283V35.2h-.34a.531.531,0,0,0-.453.34.122.122,0,0,0,.113.113h.283c.057.4.113.567.17.567h.283a2.451,2.451,0,0,1,.793-1.133.72.72,0,0,1,.736-.567c.227,0,.4-.227.567-.736l.623-.567A1.374,1.374,0,0,0,196.563,32.536Zm-21.188.17a.122.122,0,0,0-.113.113v.113l.113.17v.113c-.34.057-.51.453-.51,1.133q0,.085-.34.17l-.227-.17h-.057a.5.5,0,0,0-.283.453.122.122,0,0,0,.113.113h.113l.17-.113c.17,0,.453.17.736.623h.057q.17-.085.17-.17v-.227c0-.17-.057-.34-.057-.51,0-.057.057-.17.057-.227a.957.957,0,0,0-.113-.283c.17,0,.283-.4.283-1.19C175.488,32.762,175.432,32.762,175.375,32.706Zm-7.365.057a1.217,1.217,0,0,0-.51.736,4.762,4.762,0,0,0-1.02,1.53l.057.113a7.652,7.652,0,0,0,1.586-2.153v-.113C168.124,32.819,168.067,32.819,168.01,32.762Zm26.8.17-.113.057.057.113.113-.057Zm-.34.453v.057l.057.113a.122.122,0,0,0,.113-.113v-.057Zm-19.885.34c-.17.057-.283.113-.283.17a.122.122,0,0,0,.113.113h.227v-.17Zm-26.8,1.246c0-.227.057-.34.227-.4h.057V34.8a.783.783,0,0,1-.283.51Zm26.173.057v.057l.057.113.113-.057a.122.122,0,0,0-.113-.113Zm2.153,1.246a.441.441,0,0,1,.17-.4V36.1l-.057.283C176.112,36.388,176.112,36.388,176.112,36.275Zm16.712-.453c-.057,0-.113.113-.17.227a.208.208,0,0,0,.057.17c.17-.113.227-.227.227-.283s0-.057-.057-.113Zm-18.129.113q-.17.085-.17.17v.4a8.73,8.73,0,0,0-.17.906c0,.057.057.113.113.227a1.285,1.285,0,0,0,.453-1.076V36.1q-.085-.17-.17-.17Zm-4.419.113-.113.057a3.834,3.834,0,0,1-.68,1.076.7.7,0,0,0,.113.17h.057a4.134,4.134,0,0,1,.68-1.076v-.113Zm23.114.4c-.057,0-.057.057-.113.113v.057c0,.113.057.113.113.113.113,0,.113,0,.113-.113v-.057C193.5,36.5,193.5,36.445,193.391,36.445Zm-1.926,1.36c.34-.4.567-.623.736-.623.113.17.227.283.227.34-.057,0-.113.057-.113.227,0,.057.113.113.453.227V38.2c0,.057-.227.227-.567.623h-.453c0-.113,0-.17.057-.227.227-.17.4-.283.4-.283v-.34l-.057-.113-.567.17a.122.122,0,0,1-.113-.113Zm-16.826-.057c-.113,0-.227.17-.283.51v.057a.122.122,0,0,0,.113.113h.057c.057,0,.113-.227.17-.623C174.639,37.8,174.639,37.8,174.639,37.748Zm-27.59.113h.113l.113.4a4.6,4.6,0,0,1-.283.793h-.057v-.057C146.936,38.767,146.992,38.371,147.049,37.861Zm17,1.3v-.113a3.321,3.321,0,0,1,.793-1.076h.057A1.9,1.9,0,0,1,164.045,39.164Zm25.72-.623h.17c0,.057-.057.113-.057.17h-.113Zm-42.886.793q.17.085.17.17c0,.227-.057.34-.227.4A1.746,1.746,0,0,0,146.879,39.334Zm16.712.057h.227a1.355,1.355,0,0,1-.453.906h-.057v-.17A.809.809,0,0,0,163.592,39.391Zm4.419.057c-.057,0-.113.113-.227.34,0,.113.057.113.113.113.17-.057.227-.17.227-.227v-.113C168.124,39.5,168.067,39.5,168.01,39.447Zm-21.245.567h.057l.113.567a3.578,3.578,0,0,1-.227.736h-.057l-.057-.283v-.17A2.8,2.8,0,0,1,146.766,40.014Zm27.59.283a.208.208,0,0,0,.17-.057c0,.113,0,.17.057.227-.057,0-.057.057-.057.17h-.113l-.057-.283Zm-6.912-.057v.113h.113V40.24Zm9.121.113c.113,0,.17.17.17.567a2.877,2.877,0,0,1,.51,1.416c-.34,0-.567-.567-.68-1.813Zm-13.71.4a.383.383,0,0,1,.227-.34h.057v.17c0,.057-.057.113-.283.227Zm22.944.963c.057-.227.51-.453,1.3-.68a3.115,3.115,0,0,1,1.076-.4h.057v.17c-.057,0-.227.057-.453.113a8.107,8.107,0,0,1-1.756.906.428.428,0,0,0-.227-.057Zm-11.217-.906c.17,0,.453.227.85.736v.227q-.085.17-.17.17h-.17q-.17-.085-.51-1.02Zm-7.875.51-.17.113a.122.122,0,0,0,.113.113h.057c.113,0,.113-.057.113-.113S166.821,41.317,166.707,41.317Zm21.7.17h.17v.057h-.17Zm-.453.227h.113v.057h-.113Zm-21.868.623a2.816,2.816,0,0,0-.906,1.076c.34,0,.623-.34.963-1.076Zm-19.6.283c0-.057.057-.057.113-.113h.057v.113Zm30.932-.057h.113a.43.43,0,0,0,.113.227v.057l-.227-.057Zm-1.133.057q.17.085.17.17a.248.248,0,0,1-.17.057h-.057v-.113ZM223.688,2.227c-.85.17-1.3.283-1.3.4a4.945,4.945,0,0,0-.736-.283c-.4,0-1.02.906-1.813,2.776a27.768,27.768,0,0,0-1.3,6.005q.17,2.039,1.36,2.039h.057q1.53,0,3.229-2.889c1.586-3,2.323-4.815,2.323-5.5v-.17C225.5,3.756,224.934,3.02,223.688,2.227Zm-4.7,13.993a5.746,5.746,0,0,0-2.266.736,8.225,8.225,0,0,0-2.606,2.266,64.39,64.39,0,0,0-4.645,8.5c-3.8,8.951-5.722,15.466-5.722,19.432v.906a5.628,5.628,0,0,0,.227,1.586c1.133,2.833,3.626,4.249,7.535,4.249,2.946,0,6.345-1.416,10.084-4.249q.935-.34,5.779-5.1a17.13,17.13,0,0,0,3.739-4.136v-.057a.431.431,0,0,0-.453.34,21.594,21.594,0,0,0-2.719,2.663,19.243,19.243,0,0,0-2.606,2.493,10.534,10.534,0,0,0-1.643,1.3,6.882,6.882,0,0,1-2.1,1.643,4.2,4.2,0,0,1-2.1,1.076h-.057a1.116,1.116,0,0,1,.227-.453q1.53-1.19,1.53-1.87h-.057a4.268,4.268,0,0,1-1.7.736h-.113c.113-.113.113-.17.113-.227l2.209-1.756a9.144,9.144,0,0,0,2.153-1.756c.793-.453,1.19-.85,1.19-1.3h-.227V42.9h.17a2.228,2.228,0,0,1,.34.113c.85-.283,1.246-.51,1.246-.736,0-.113,0-.17-.113-.17h-.227c0,.17-.227.4-.68.623h-.113l-.057-.4a1.193,1.193,0,0,1,.34-.453v-.057h-.227a4.133,4.133,0,0,1-1.076.68,20.148,20.148,0,0,0-2.549,2.209c-.283.227-1.983,1.473-5.212,3.682a15.072,15.072,0,0,0-2.889,1.3,5.549,5.549,0,0,1-1.473.227l-.906.453a5.052,5.052,0,0,1-1.246-.17c-.17,0-.283-.453-.283-1.416,0-4.532,1.473-10.367,4.419-17.562a20.649,20.649,0,0,1,2.946-4.929h.057c.113.567.17.85.17.906a5.992,5.992,0,0,0-.4,1.246.439.439,0,0,0,.057.17,2.629,2.629,0,0,0,.68-.623,61.587,61.587,0,0,0,2.153-6.855,6.61,6.61,0,0,0,.963-2.663c0-1.53-.567-2.266-1.7-2.266Zm-9.971,15.749h.17q0,.34-.17.34Zm2.776.453c.113-.17.227-.227.283-.227l-.057.283Zm-.793.057h.057v.17H211Zm24.474.4V33.1c0,.113,0,.113.113.113.057,0,.057,0,.057-.113v-.113c0-.057,0-.057-.057-.113ZM210.6,35.028a8.752,8.752,0,0,1,1.133-1.983h.057l.113.4a4.183,4.183,0,0,1-.113.68,2.782,2.782,0,0,1-.623,1.53C211.055,35.652,210.885,35.425,210.6,35.028Zm-1.02-.283c.453-1.02.68-1.586.85-1.643l.17.68c-.113.68-.4,1.02-.963,1.02C209.638,34.745,209.638,34.745,209.582,34.745Zm25.04-1.36-.4.34.057.113a.379.379,0,0,0,.4-.227v-.227Zm.283.227a.122.122,0,0,0-.113.113v.113c0,.057,0,.113.113.113l.227-.17q-.085-.17-.17-.17Zm-25.947.906a.842.842,0,0,1,.34-.736.994.994,0,0,1-.34.85Zm25.1-.17c-.17.113-.283.227-.283.283s.113.113.34.227a.986.986,0,0,1,.4-.17v-.057c0-.057-.113-.17-.34-.283Zm-1.87.4a21.908,21.908,0,0,0-3,3.059v.057a.208.208,0,0,0,.17-.057c1.246-1.246,2.209-2.266,2.833-3Zm2.719.057c-.113,0-.17,0-.17.113v.057l.057.113c.17-.057.283-.113.283-.17v-.057C235.018,34.858,234.962,34.8,234.905,34.8Zm-1.53.34v.17a.526.526,0,0,0,.4.51q.34,0,.34-.17l-.567-.51Zm-23.794.736a.3.3,0,0,1,.34-.34h.057C209.978,35.765,209.865,35.878,209.582,35.878Zm23.341-.113c-.113.113-.227.283-.4.453l.4.453.4-.113v-.17Zm-24.53.17a1.41,1.41,0,0,1,.283.4,3.394,3.394,0,0,1-.51,1.36q-.17-.085-.17-.17v-.057a1.244,1.244,0,0,0,.283-.68.611.611,0,0,1-.113-.4A3.079,3.079,0,0,0,208.392,35.935Zm-.057,5.552c1.19-2.323,1.756-3.8,1.756-4.419s.283-.963.906-.963c0,.057,0,.057.113.057v.51c-.623,2.209-1.02,3.682-1.19,4.476a1.542,1.542,0,0,1-.623.283l.34.963c-.4,1.7-.623,2.663-.68,2.946H208.9v-.057c0-1.643-.057-2.833-.057-3.682v-.17l-.057-.113a.876.876,0,0,0-.34.17Zm1.19-4.929a.343.343,0,0,1,.17-.34l.057.283v.057l-.113.17c-.057,0-.113,0-.113-.113Zm22.208.283v.113c0,.057,0,.113.113.113v-.227Zm.906.4c-.227.057-.4.113-.4.227v.227h.057l.4-.34Zm-24.19,1.756a.586.586,0,0,0,.4-.283c.17-.85.4-1.246.567-1.246a5.485,5.485,0,0,1-.623,2.209A.979.979,0,0,0,208.449,38.994Zm23.511-1.076v.057l.057.113.227-.057v-.113Zm-24.19.227h.057l.17.85a6.22,6.22,0,0,0-.453,1.473h-.283C207.6,39.051,207.769,38.258,207.769,38.144Zm22.321.4c-.17.113-.283.227-.283.283s.17.113.4.17c.057,0,.17-.057.4-.227-.057-.17-.17-.227-.4-.227Zm1.473,0c-.453.113-.68.283-.68.453a.055.055,0,0,1,.057.057c.4-.113.623-.283.623-.453Zm-3.342.4c-.057,0-.113,0-.113.057v.113h.113c0-.057,0-.113.113-.17Zm3.909.17-.736.85v.113h.057a3.628,3.628,0,0,0,.793-.85v-.113Zm-1.756.283-.17.113c.057.227.113.283.17.283h.17q.17-.085.17-.17V39.5c0-.057-.057-.057-.113-.113Zm-3.116.34a.613.613,0,0,0-.227.283c.227,0,.4-.057.4-.17a.122.122,0,0,0-.113-.113Zm1.3.113c-.113,0-.113.057-.113.113v.057l.057.113q.17-.085.17-.17A.122.122,0,0,0,228.56,39.844Zm1.53.283c-.4,0-.736.283-1.133.793v.057a1.564,1.564,0,0,0,1.133-.736Zm-2.493.68c-.057,0-.17.113-.227.283v.057h.113a.49.49,0,0,1,.34-.17v-.113C227.71,40.864,227.654,40.864,227.6,40.807Zm-20.621.17h.057v.283h-.057Zm21.811.17v.17h.057v-.17Zm-.906.736-.057.113v.283h.17c.113-.113.227-.17.227-.227V41.94ZM208,42.11h.057c.057,0,.113,0,.113.113H208Zm-2.833.51c0-.17.113-.283.4-.4v.283a3.7,3.7,0,0,1-.113.623h-.113Zm22.434-.17c-.17.113-.227.17-.227.227h.057c.17-.057.227-.17.227-.227Zm-1.19,1.076q-.51.34-.51.51l.057.113c.34-.113.51-.227.51-.283v-.227Zm-2.719,2.266q-.17.085-.17.17v.113c0,.113.057.113.113.113h.057l.113-.057A2.227,2.227,0,0,0,223.688,45.792Zm-.623.567a.586.586,0,0,0-.283.4v.057c.34-.057.453-.113.453-.227v-.227Zm-15.126,3.173H208v.227h-.057Zm10.877.567h.34a.417.417,0,0,1-.453.453A.762.762,0,0,0,218.816,50.1Zm51.429-88.037a7.05,7.05,0,0,0-4.929,1.813c-.85.51-2.153,3.4-3.909,8.611-1.983,6.572-3.569,11.444-4.646,14.56-.283.057-1.926.283-5.042.68-8.271,1.076-14.106,2.153-17.449,3.173A21.808,21.808,0,0,0,229.4-7.291a1.633,1.633,0,0,0-.68,1.076,5.025,5.025,0,0,0-.623,1.076v1.7l.113.17.4-.057h.113l.113.057c0,.227-.057.567-.113,1.076.227.453.453.736.793.736.227,0,.736-.4,1.586-1.133q0-.425,3.4-1.19c.283,0,.68.057,1.076.057.453-.057.736-.113.736-.17a14.171,14.171,0,0,0,2.436-.51,4.981,4.981,0,0,0,1.02.113.175.175,0,0,0,.113-.057,1.369,1.369,0,0,1,1.076-.68c.113,0,.51,0,1.19.057a7.115,7.115,0,0,0,1.19-.51,29.486,29.486,0,0,0,4.362-.736q2.549-.17,2.549-.85c-.113-.057-.283-.17-.4-.227a3.951,3.951,0,0,0-.906.453.366.366,0,0,1-.283-.113,11.554,11.554,0,0,0-3,.51h-.17a5.892,5.892,0,0,1-.85-.113,4.859,4.859,0,0,0-1.926.68,6.124,6.124,0,0,0-2.719.51,12.039,12.039,0,0,0-1.586-.34c-.17.113-.283.17-.283.227a25.472,25.472,0,0,0-3.4.963,2.871,2.871,0,0,1-.736-.113.248.248,0,0,0-.17.057,4.391,4.391,0,0,0-1.36.623,5.008,5.008,0,0,0-1.87.4c-.227-.113-.4-.283-.4-.4,0-.17.34-.453,1.02-.736a3.058,3.058,0,0,0,.906-.453c.057,0,.113.057.17.057a.805.805,0,0,0,.34-.113,1.226,1.226,0,0,1,1.076-.68c.057,0,.17.113.283.34h.34c.057-.4.113-.567.283-.567h.057c.057.34.17.51.227.51h.34a4.187,4.187,0,0,1,1.133-.34,1.569,1.569,0,0,0,.51.057h.17c.17,0,.227,0,.283-.057a2.078,2.078,0,0,0,1.19-.68h.057a1.266,1.266,0,0,1,.567.17c1.076-.113,1.643-.283,1.643-.51.17,0,.4.057.68.057a1.131,1.131,0,0,0,.453-.17.586.586,0,0,0,.227.057,6.644,6.644,0,0,1,1.7-.283c.057,0,.227-.113.51-.4a1.131,1.131,0,0,0,.453.17c.51,0,.736-.227.736-.68,0-.113-.057-.113-.113-.113h-.057l-.283.227h-.113c-.057,0-.17-.17-.34-.453a1.57,1.57,0,0,0,.68-.283q1.02-.085,1.02-.34h.17a2.18,2.18,0,0,1,.623.51.15.15,0,0,0,.17-.17c0-.113.227-.227.68-.4,0-.057-.113-.17-.4-.283.057,0,.17-.057.453-.113.51.17.793.283.85.283l.963-.283c.283.057.4.17.4.34h.113q.17-.085.17-.17a1.477,1.477,0,0,1,.623.17,1.533,1.533,0,0,0,.453-.17v-.17l-.227-.057v-.113l.4-.057h.793a5.027,5.027,0,0,0,1.36-.34h.057a.808.808,0,0,1,.68.34c.34-.057.567-.113.623-.113a1.594,1.594,0,0,1,.453.057q0,.17-.51.34a2.123,2.123,0,0,1-.453-.057l-.283.283h-.17q-2.039.085-2.039.34v.057c0,.057,0,.113.113.113h.34c.34,0,1.19-.17,2.606-.4h.17a50.421,50.421,0,0,1-1.983,5.665c-1.983,6.515-3.8,12.293-5.439,17.392-1.3,5.1-2.379,8.838-3.173,11.16a60.138,60.138,0,0,1-1.643,6.685A71.628,71.628,0,0,0,241.352,45v1.473a11.3,11.3,0,0,0,.68,4.022c1.076,2.549,2.889,3.852,5.439,3.852h.736a12.888,12.888,0,0,0,3-.453,25.249,25.249,0,0,0,9.8-5.552,6.266,6.266,0,0,0,1.643-2.323l-.057-.113a.438.438,0,0,1-.17.057c-1.076,1.19-1.756,1.756-2.1,1.756h-.057c0-.057.057-.227.113-.453a10.366,10.366,0,0,0,2.1-1.926c.906-1.02,2.1-2.436,3.569-4.306.567-.85,1.02-1.3,1.3-1.3.113-.453.227-.736.34-.736a6.135,6.135,0,0,0,1.53-2.039,9.854,9.854,0,0,0,2.209-3.8c.51-1.36.793-2.1.793-2.209a.122.122,0,0,0-.113-.113c-.34,0-.68.4-1.133,1.19-.4.623-1.643,2.493-3.739,5.665h-.057a1.951,1.951,0,0,0-.51.057h-.057c.4-.51.566-.793.566-.963-.113,0-.283-.113-.4-.4q.68-.255.68-.34v-.057c-.113,0-.283-.113-.566-.34-.057,0-.283.17-.623.567V36.5c0,.057.057.17.283.34V36.9c0,.057-.17.113-.4.113a2.77,2.77,0,0,1-.51.85v.057a.416.416,0,0,0,.113.34l-.057.283c0,.057-.623.68-1.813,1.87a19.185,19.185,0,0,1-1.813,1.983,10.96,10.96,0,0,1-3.966,3.569c-.057,0-.113-.057-.17-.227a.642.642,0,0,0-.566.51c-2.549,2.606-4.645,3.852-6.288,3.852a3.313,3.313,0,0,1-1.076-.227c-1.076-.623-1.586-1.983-1.586-4.079v-.85a36.8,36.8,0,0,1,.68-5.779c0-1.53.227-2.549.736-3.059,2.436-4.362,4.815-9.348,7.251-14.9,3-6.685,4.532-10.141,4.532-10.367q1.445-3.4,2.379-6.118a76.531,76.531,0,0,0,3.059-8.1c.566-1.246,1.133-3.059,1.87-5.325,0,0,.057,0,.17.113h.227a.343.343,0,0,0,.34-.17v-.113l-.17-.227c-.283,0-.453.113-.453.34H269V-8.82l.453-1.076c.453,0,.68.057.68.113a3.281,3.281,0,0,1,1.756.34v.057l-.4.057H270.7l-.113.057c.113.283.227.453.283.453h.057a4.719,4.719,0,0,1,.793-.227.611.611,0,0,1,.4.113l-.227.227v.113l.283.057a6.744,6.744,0,0,1,.963-.17l.283.057h.623a3.723,3.723,0,0,0,.737-.17c1.133.17,2.549.283,4.306.4a2.42,2.42,0,0,1,1.076.51c.057,0,.227-.113.51-.227a1.572,1.572,0,0,0,.737.34h.057a1.3,1.3,0,0,0,.51-.17c2.379.34,4.306.68,5.779.963.51,0,.736-.057.793-.113l1.983.51h.4c1.19-.227,1.813-.793,1.813-1.643v-.4c0-1.53-1.02-2.946-2.946-4.249-1.473-.963-5.382-1.473-11.67-1.473H275.8c-1.473,0-3.116.057-5.042.17,1.3-4.079,2.379-7.7,3.173-10.764a61.153,61.153,0,0,0,1.53-9.291v-.4a2.17,2.17,0,0,0-.283-1.076,3,3,0,0,1-.736.34h-.057c-.227,0-.34-.34-.34-.906a.727.727,0,0,0-.736-.793l-.113.057a.248.248,0,0,1-.17-.057,3.426,3.426,0,0,0-.453-.736h-.057c-.057,0-.113.113-.227.283l-.113-.057a2.622,2.622,0,0,0-1.586-.34Zm-1.076,23.851a56.227,56.227,0,0,0,1.7-5.722q1.275-3.059,2.719-11.727c.17-1.53.453-2.266.736-2.266h.113l.057.68v.51a35.7,35.7,0,0,1-1.19,7.365c0,.906-1.02,4.589-3,11.1a8.46,8.46,0,0,1-1.076.057Zm-4.7.4c.34-.963.567-1.473.567-1.473a82.45,82.45,0,0,1,4.022-10.707,11.418,11.418,0,0,1,1.983-3.966h.057v.283a5.754,5.754,0,0,1-.4,1.416,6.942,6.942,0,0,1-.4,1.813c0,.057.057.113.057.17l-.17.85c-.51,1.926-.793,3-.793,3.173v.283l.057.113c.227-.17.34-.34.34-.453h.057c.057,0,.113,0,.113.113v.736a1.181,1.181,0,0,1-.4.85c-.283,1.246-.453,1.87-.623,1.87l.057.283a3.5,3.5,0,0,1-.227.906h-.057q-.17,0-.17-.34v-.17c.17,0,.283-.057.283-.113v-.227a.805.805,0,0,0-.113-.34,2.024,2.024,0,0,0,.51-1.473.122.122,0,0,0-.113-.113c-.17,0-.283.34-.4.963a4.23,4.23,0,0,0-.51,1.87,3.485,3.485,0,0,1,.057.736v.736c-.057.34-.113.567-.227.567h-.057v-.113h-.113V-15l-.113-.057c-.057,0-.113,0-.113.113a1.983,1.983,0,0,1,.113.567v.057l-.057.283a11.618,11.618,0,0,1-3.173.34Zm7.251-11.1h.057v.113a7.861,7.861,0,0,1-.51,2.323c-.057,0-.113-.057-.17-.227l.227-.85A6.985,6.985,0,0,0,271.718-24.8Zm-1.19,4.476c.17-.963.34-1.416.51-1.416,0,.51-.113.793-.227.793-.113.567-.17.793-.283.793Zm-.17.34h.113v.34a.343.343,0,0,1-.17.34v-.283Zm-1.133,1.36c0-.057,0-.113.113-.113v.17h-.113Zm-.85,1.756a.122.122,0,0,1,.113-.113l.057.283-.057.113a.122.122,0,0,1-.113-.113Zm.85.963a1.3,1.3,0,0,1,.453-1.02v.283a1.429,1.429,0,0,0-.34.963h-.113Zm-.283.963H269v.227h-.057Zm-.227.567h.057v.283h-.057Zm1.756,1.02a4.987,4.987,0,0,1,1.19.34v.227l-.283.057h-.51l-.34.283h-.17l-.113-.057A4.531,4.531,0,0,0,270.471-13.352Zm-1.586.057s.227,0,.737.057a1.276,1.276,0,0,0,.4-.057,4.529,4.529,0,0,0-.227.85h-.283a1.9,1.9,0,0,0-.736-.4A1.067,1.067,0,0,0,268.885-13.3Zm-1.983.963c0-.567.17-.85.453-.85h.057a3.917,3.917,0,0,1-.113.85l-.113-.057h-.17Zm-2.719-.567a19.528,19.528,0,0,1,2.663-.227h.057a1.512,1.512,0,0,0-.453.963h-.51a3.121,3.121,0,0,0-1.19.283c-.17,0-.453-.057-.85-.057A5.907,5.907,0,0,1,264.183-12.9Zm8.781.34a.208.208,0,0,1,.057-.17,5.92,5.92,0,0,1,1.643-.34,2.3,2.3,0,0,1,.963.283v.057a3.512,3.512,0,0,0-.623.17h-.113l-1.473-.227c-.057,0-.113.057-.113.227ZM243.732-9.33c.057-.283.4-.453,1.02-.453.963-.34,1.473-.567,1.53-.567,1.36,0,2.1-.113,2.1-.283l1.813-.453a7.876,7.876,0,0,0,2.1-.453,9.1,9.1,0,0,0,3.286-.51,3.051,3.051,0,0,1,.453.057l.4-.057h.057l-.4.963-.68-.057a1.846,1.846,0,0,0-.736.227c-.85.113-2.493.34-4.872.736h-1.02c-.17.113-.227.17-.227.227a9.538,9.538,0,0,0-2.039.34l-.34-.057H246a5.325,5.325,0,0,1-2.153.34ZM273.7-10.52a.578.578,0,0,1,.283-.453h.057a.429.429,0,0,0,.113.227c-.113.227-.227.283-.283.283h-.17Zm-17,.057h.113c.113,0,.113.057.113.113l-.113.17c-.057,0-.057,0-.113-.113Zm11.33.34c.17.17.283.227.34.227l.283-.057a.341.341,0,0,1,.227.057,11.947,11.947,0,0,1-.963,2.833A80.885,80.885,0,0,1,265.033.924c-2.323,6.288-3.739,9.8-4.306,10.481a34.473,34.473,0,0,1-1.586,4.022c-.85,1.643-1.643,3.342-2.379,5.042a15.213,15.213,0,0,0-1.7,3c-.68,1.53-1.19,2.379-1.473,2.493a.055.055,0,0,0-.057-.057,5.482,5.482,0,0,1,.736-1.36,21.949,21.949,0,0,1,1.416-3.229c1.02-2.549,1.643-3.966,1.87-4.362a11.71,11.71,0,0,1,1.586-3.456,17.2,17.2,0,0,1,1.416-3.626,35.681,35.681,0,0,1,1.416-3.456l1.19-3.173A7.611,7.611,0,0,0,264.183.3c.793-1.87,1.3-3.286,1.586-4.136a15.5,15.5,0,0,0,1.076-3.286A10.041,10.041,0,0,0,268.035-10.123Zm-4.7.34c1.19-.057,2.153-.113,3-.227h.113l-.057.113v.68c-.227,0-.34.113-.34.4h-.113c-.113,0-.113-.113-.113-.34h-.057c-.17.057-.227.17-.227.4v.283c.057.113.17.227.227.227a2.337,2.337,0,0,1-.34,1.076,2.191,2.191,0,0,1-.623,1.756,5.257,5.257,0,0,1-.793,2.039l-.227-.17h-.113V-3.5l.057.34c-.057.17-.17.283-.227.283a1.743,1.743,0,0,0,.227.51.753.753,0,0,1-.17.4l-.227-.113a.176.176,0,0,0-.113.057,6.4,6.4,0,0,0,.057.793,1.827,1.827,0,0,0-.34,1.02c-.227,0-.34,0-.34-.057,0,.113-.057.113-.113.113l.113.4V.981l-.057.4h-.113q-.17,0-.17-.34V.867h-.17a3.116,3.116,0,0,0-.4,1.076.49.49,0,0,0,.17.34.805.805,0,0,1-.113.34l-.113-.057c-.113,0-.17.17-.283.453a1.593,1.593,0,0,0,.057.453c-.057.113-.057.17-.113.17-.113.736-.283,1.076-.4,1.076a.122.122,0,0,1-.113-.113l-.113.057.057.283v.34L260.5,5c-.17,0-.51.85-1.02,2.606a7.874,7.874,0,0,0-.963,2.266l-.68,1.53c-1.36,2.946-2.266,4.929-2.606,5.948v.057l.057.4-.113-.057a.7.7,0,0,0-.17.113q-.255.68-.34.68a19.722,19.722,0,0,0-1.813,3.682H252.8c.283-1.076,1.53-4.872,3.682-11.444C258.8,3.36,260.84-2.928,262.54-7.971c.17-.113.283-.227.283-.4a.122.122,0,0,0-.113-.113c.283-.85.453-1.3.453-1.36A.208.208,0,0,1,263.333-9.783ZM241.3-9.217v-.057a6.985,6.985,0,0,1,1.36-.4h.113a.122.122,0,0,1,.113.113l-.057.113a5.269,5.269,0,0,0-1.19.34A.805.805,0,0,1,241.3-9.217Zm10.821-.453a.122.122,0,0,0-.113.113V-9.5a.208.208,0,0,1,.17.057c0-.057,0-.113.113-.113a.122.122,0,0,0-.113-.113Zm8.271.453q.085-.17.17-.17v.34Q260.387-9.132,260.387-9.217Zm-4.192.906c0-.113,0-.113.057-.113.057-.567.227-.85.453-.85v.113c.283.17.4.34.4.51A7.675,7.675,0,0,0,256.195-8.31Zm4.929-.567a.343.343,0,0,1,.17-.34h.113q.17.085.17.17v.17a.379.379,0,0,1-.227.4A.379.379,0,0,1,261.124-8.877Zm-9.8-.283a3.417,3.417,0,0,1-.736.453c0,.057.113.113.283.17.567-.17.85-.227.85-.283S251.606-8.99,251.323-9.16Zm-5.325.4c-.057,0-.113,0-.113.113l.057.113.34-.057V-8.65a.122.122,0,0,0-.113-.113Zm4.022.113c-.34.113-.68.17-1.076.283v.113c.793-.057,1.133-.17,1.133-.283V-8.65Zm14.786,0a.343.343,0,0,0-.34.17v.17h.283q.17-.085.17-.17v-.057A.122.122,0,0,0,264.806-8.65Zm-1.416.057-.227.057v.057c0,.057,0,.113.113.113h.113c.113,0,.113-.057.113-.113S263.5-8.594,263.39-8.594Zm-20.055.283c.283.057.623.17,1.02.283v.113a2.124,2.124,0,0,0-.963.283,1.931,1.931,0,0,0-.906-.227h-.057a.571.571,0,0,0-.623.51,1.527,1.527,0,0,1-.736-.4,1.584,1.584,0,0,1,.283-.453c.283.113.453.227.453.283a.9.9,0,0,1,.567-.283h.227l.283.17C243.165-8.14,243.335-8.2,243.335-8.31Zm15.806.227q0-.17.34-.17a.428.428,0,0,0,.057.227l-.227.113a.7.7,0,0,1-.17-.113Zm-12.01-.17a.055.055,0,0,0-.057.057c-.567.113-.85.227-.85.283V-7.8c0,.113,0,.113.113.113h.17l.51-.17c.113,0,.283.057.453.057l.17-.17C247.641-8.084,247.471-8.2,247.131-8.254Zm1.416.113v.057h.113V-8.14Zm-14.163.453c0-.057.057-.113.227-.17.057,0,.113.113.17.227,0,.113-.057.113-.113.113h-.057Zm4.476-.17h.283v.113h-.17C238.916-7.744,238.859-7.744,238.859-7.857Zm20.735.4c0-.057.113-.17.4-.283q0,.595-.34.68l-.057-.283Zm-5.779-.283a3.194,3.194,0,0,0-.68.227c0,.227.057.283.113.283h.4c.453,0,.623-.057.623-.17C254.1-7.631,253.986-7.744,253.816-7.744Zm-1.02.057a1.571,1.571,0,0,0-.68.283c.113.227.227.34.4.34.057,0,.17-.113.4-.453C252.8-7.574,252.8-7.631,252.8-7.687ZM249,16.673a1.05,1.05,0,0,0,.963-.736,24.274,24.274,0,0,1,.85-2.379,7.711,7.711,0,0,1,.34-1.36c1.586-5.325,2.663-8.611,3.173-9.857l1.813-5.382a12.2,12.2,0,0,0,.68-2.039c.4-1.7.793-2.549,1.076-2.549.057,0,.057.113.057.34a18.4,18.4,0,0,0-.623,2.1,4.349,4.349,0,0,0-.736,2.209A18.516,18.516,0,0,0,255.8-.436a5.033,5.033,0,0,0-.567,1.473,4.254,4.254,0,0,0-.4,1.133c-.34,1.076-.68,2.379-1.133,3.966a5.746,5.746,0,0,0-.567,2.153c-1.53,4.192-2.323,6.572-2.323,7.251a2.292,2.292,0,0,0-.34.623l.057.34v.057a3.031,3.031,0,0,0-.623,1.586c-.283.963-.51,1.586-.567,1.926.057.283.113.453.227.453h.17c.057,0,.113-.113.17-.283,0-.17-.057-.34-.057-.51v-.057a.965.965,0,0,1,.453-.736c-.057-.227-.113-.4-.113-.453a9.219,9.219,0,0,0,.736-1.756c.113-.963.283-1.473.4-1.473a4.741,4.741,0,0,1,.51-1.586c.17-1.416.4-2.1.736-2.1l-.057-.68.567-.113-.17.227v.057a3.469,3.469,0,0,0,.283.34h.057a.9.9,0,0,0,.453-.17l-.057-.51a.408.408,0,0,1,.227-.4h.17c.057,0,.113.057.17.113h.227q.17-.085.17-.17c-.113-.17-.17-.227-.227-.227h-.51a2.552,2.552,0,0,0,.113-.793V9.138h-.227a1.193,1.193,0,0,1-.453.34V9.2a1.55,1.55,0,0,1,.227-.283c.227-.963.453-1.473.736-1.473a2.144,2.144,0,0,0-.057-.453,1.109,1.109,0,0,1,.623-.963,3.348,3.348,0,0,1,.453.283l-.227,1.133-.17-.113h-.17a.122.122,0,0,0-.113.113v.113c.17.17.227.227.227.283v.057a.343.343,0,0,1-.17.34l-.34-.057a.957.957,0,0,1-.283.113v.227a6.664,6.664,0,0,1,.85.623h.17c.113-.567.283-.85.4-.85h.283a.439.439,0,0,0,.057.17c-.113.51-.283,1.076-.51,1.813a10.861,10.861,0,0,1-.567,1.473h-.057c0-.17-.057-.227-.17-.227l.17-.227v-.113h-.4q0-.34-.17-.34h-.057q-.17.085-.17.17v.113a4.858,4.858,0,0,1,.17.963v.057l-.51.34-.227.963c0,.113.113.227.34.283.113-.17.227-.283.283-.283,0,.057.057.113.057.17a2.842,2.842,0,0,1-.17.793,2.591,2.591,0,0,1-.34-.227h-.057a.49.49,0,0,0-.34.17c0,.17.057.283.113.283h.51c0,.057.057.17.057.227a5.346,5.346,0,0,1-.68,1.87,28.785,28.785,0,0,1-1.19,4.022v.113q.085.17.17.17h.057l.227-.17v.17a.343.343,0,0,1-.17.34c-.283,0-.453.17-.567.567-.283.963-.453,1.473-.567,1.473h-.057c-.057,0-.17-.17-.4-.51h-.057a1.238,1.238,0,0,1-.283.793c0,.057.057.113.057.17.51.113.736.227.736.34-.057.34-.113.567-.227.567h-.227c-.113,0-.113-.113-.17-.283H250.3a.967.967,0,0,1-.283.623v.113c.34.113.453.227.453.34a2.415,2.415,0,0,0-.453,1.19v.34h-.057c-.4-.17-.567-.34-.567-.623v-.057a5.765,5.765,0,0,1,.227-.906v-.283a.122.122,0,0,0-.113-.113h-.057l-.453.453a13.519,13.519,0,0,1-.567,1.416,4.528,4.528,0,0,0-.51,1.983c0,.963-.113,1.53-.4,1.756v.227l.623.453.17-.113h.113a1.722,1.722,0,0,1-.736.68l.057-.283-.057-.113c-.227,0-.453.567-.623,1.756a6.184,6.184,0,0,1-.736,3.116.753.753,0,0,0,.17.4h-.057c-.283,0-.4.227-.453.68a2.781,2.781,0,0,0,.17.68,2.02,2.02,0,0,0-.4.4,1.383,1.383,0,0,0,.057.4,12.744,12.744,0,0,1-.4,1.416v.057a1.335,1.335,0,0,0,.68,1.3.913.913,0,0,0-.34.736,1,1,0,0,0-.85,1.076l.057.113a2.4,2.4,0,0,0-.283.68v.057a2,2,0,0,0,.227.963c.283.17.4.283.4.34-.34,0-.51.567-.623,1.586a8.644,8.644,0,0,0,.057,1.02,6.258,6.258,0,0,0-.057.906.677.677,0,0,0,.227.453v.34h-.057c-.283-.17-.4-.51-.4-1.02v-.227c0-.057-.057-.113-.227-.17-.057,0-.17.17-.227.453q.17.765.17.85l-.227-.057c-.227,0-.453-1.133-.736-3.456a31.785,31.785,0,0,0,.34-3.342,11.1,11.1,0,0,0-.113-1.53,5.22,5.22,0,0,1,.283-1.133s0-.453-.057-1.36a1.275,1.275,0,0,1,.283-.85,5.119,5.119,0,0,0,.567-2.719.731.731,0,0,0-.283-.623h-.057c-.17,0-.51.906-.963,2.719h-.057c-.057,0-.113-.113-.17-.4.057-.453.113-.736.17-.736.227-1.756.4-2.663.567-2.663a12.132,12.132,0,0,1,.4-2.663,5.385,5.385,0,0,1,.51-1.87,8.809,8.809,0,0,1,.793-2.946,8.176,8.176,0,0,1,.227-1.3,7.318,7.318,0,0,0,.453-2.153,37.017,37.017,0,0,0,1.53-5.439,2.762,2.762,0,0,0,.453-1.36,2.6,2.6,0,0,0,.34-.906c.057-.283.623-2.1,1.756-5.439a7.94,7.94,0,0,1,.793-2.606,11.971,11.971,0,0,1,.51-1.813,15.535,15.535,0,0,0,.85-2.946,2.6,2.6,0,0,0,.736-1.926,11.881,11.881,0,0,0,.963-2.663,4.793,4.793,0,0,1,.85-2.436c.453-1.7.68-2.549.85-2.549h.34v.227a.753.753,0,0,0-.17.4v.51l-.4.453v.057l.283.283v.113h-.057l-.17-.113h-.057c-.057,0-.113,0-.113.113l.113.4a.531.531,0,0,1-.34.453,11.386,11.386,0,0,1-.34,1.53c-.227,0-.4.51-.453,1.53-.283.283-.453.453-.453.51s.057.113.057.227c-.227.793-.34,1.246-.34,1.246.17.17.227.283.283.283,0,.17-.113.4-.453.623a6.584,6.584,0,0,0-.85,2.719c0,.113.057.17.283.17a1.1,1.1,0,0,0-.453.906v.68c-.283,0-.567.51-.906,1.586v.17s.113.113.34.4V8.4c-.283,0-.567.227-.793.68a3.746,3.746,0,0,1,.057.623,2.758,2.758,0,0,0-.623,1.076l.113.17v.113c-.17.227-.34.4-.453.4-.113.623-.227.906-.34.906a1.689,1.689,0,0,1-.283,1.133c-.17.793-.34,1.416-.453,1.926a.61.61,0,0,0,.113.453c0,.057-.17.17-.453.4C248.774,16.5,248.83,16.616,249,16.673ZM260.67-7.234a.477.477,0,0,1,.227-.4c.113,0,.113.057.113.113v.057c0,.283-.057.453-.227.51A.366.366,0,0,0,260.67-7.234Zm-27.759.113c0-.227.17-.4.453-.453h.567v.057c0,.113-.283.283-.793.453h-.113Zm5.155-.453h.113v.057h-.113Zm13.257.17-.453.453.057.113a5.6,5.6,0,0,0,.85-.057v-.057a1.049,1.049,0,0,0-.4-.453Zm-16.089.51c0-.227.567-.4,1.756-.4h.227c0,.057-.057.113-.283.17l-.51-.057a7.5,7.5,0,0,0-1.02.4.248.248,0,0,0-.17-.057Zm-1.643.17.736-.17c0,.057.057.057.227.057q0,.17-.34.17h-.623Zm-3.342,1.36a2.339,2.339,0,0,0,.4-.623,9.075,9.075,0,0,1,2.493-.623h.17a.5.5,0,0,1-.51.453h-.453l-.453.4h-.567a3.725,3.725,0,0,1-1.02.51h-.057Zm29.006-.567h.057v.34c0,.057-.057.227-.113.51-.34-.113-.51-.17-.51-.227v-.113l.057-.113C259.084-5.648,259.254-5.818,259.254-5.931Zm.793.283c.17.057.227.113.227.17l-.17.227q-.17-.085-.17-.17v-.057Zm-4.022.34h.113v.057h-.113Zm2.663.736c.057,0,.113,0,.113.057v.057C258.744-4.458,258.688-4.458,258.688-4.571Zm-.963,5.892c.113-.567.227-.85.283-.85a2.223,2.223,0,0,1,.623-1.87c.283-1.473.567-2.209.793-2.209h.057l.057.283a1.007,1.007,0,0,1-.227.567l-.85,2.889a2.425,2.425,0,0,0-.567,1.3,31.759,31.759,0,0,1-1.3,4.419c-.057,0-.227-.17-.453-.453V5.286c.17,0,.4-.17.567-.51a8.44,8.44,0,0,1,1.076-3.229A.341.341,0,0,1,257.725,1.32Zm.453-4.419a.311.311,0,0,1,.227-.34c.057,0,.057.057.113.17l-.17.567h-.113l-.057-.283Zm5.609.17a.122.122,0,0,1,.113-.113h.057v.227c0,.057,0,.113-.113.113C263.843-2.815,263.843-2.872,263.786-2.928Zm-5.779.51c.057,0,.113.057.17.227,0,.113-.057.17-.113.17h-.17C257.895-2.079,257.951-2.192,258.008-2.419Zm4.985,1.02q-.17.085-.17.17c0,.113,0,.113.113.113q.085,0,.17-.17C263.107-1.4,263.05-1.4,262.993-1.4Zm-5.665.793c0-.113.113-.17.227-.227l.113.17v.057c0,.057-.057.113-.227.17A.7.7,0,0,1,257.328-.606Zm5.1.68a.122.122,0,0,0-.113.113V.414h.17V.187Zm-7.081,2.663h.283a.208.208,0,0,0,.057.17L255.4,4.04h-.057Zm5.779.623v.17h.113V3.36Zm-.227.51v.057h.113V3.87Zm-5.325.906c.227-.51.4-.793.51-.793a.208.208,0,0,0,.057.17.7.7,0,0,0-.113.17V5a.544.544,0,0,1-.4.51l-.227-.227h-.34l-.113.057a.805.805,0,0,0-.113-.34c.113-.227.227-.283.283-.283h.057Zm-.736,1.416v.17l.113-.057A.122.122,0,0,0,254.835,6.192Zm1.133.113h.283a.122.122,0,0,1,.113.113v.113a6.627,6.627,0,0,1-.567,1.53h-.057a.359.359,0,0,1-.283-.34A3.87,3.87,0,0,0,255.968,6.306Zm-4.476,1.7c-.057,0-.113,0-.113.113v.057h.17v-.17Zm1.643,2.039c0-.057,0-.113.057-.113v.17h-.057Zm-1.926,0h.057v.113h-.057Zm3.229,2.039c.113-.17.17-.227.227-.227v.057l-.113.34c-.057,0-.113,0-.113-.057Zm-1.643.963a.4.4,0,0,0-.227.283c0,.057.057.113.227.17.17-.057.283-.113.283-.17v-.17a.122.122,0,0,0-.113-.113Zm-.51,1.586v.113c0,.057,0,.113.113.113a.113.113,0,1,0,0-.227Zm.85.453c-.17.057-.283.113-.283.227v.17c0,.057,0,.057.113.057h.17q.17-.085.17-.17v-.113Q253.306,15.172,253.136,15.087Zm-1.3.85v.057h.113v-.057Zm-.113.68c-.057,0-.113.113-.227.34v.057h.057l.283-.057V16.9l-.057-.283Zm.51.17a.122.122,0,0,0-.113.113v.283c0,.057.113.17.283.227.113,0,.17-.113.227-.283a.122.122,0,0,0-.113-.113l.113-.17v-.057Zm-2.889.057q-.17.085-.17.17v.113c0,.057.057.113.227.17.057,0,.113-.057.17-.227C249.453,16.9,249.4,16.843,249.34,16.843Zm2.833.68a.122.122,0,0,0-.113.113v.057a.113.113,0,1,0,.227,0v-.17Zm-3,.17a.424.424,0,0,0-.283.453h-.34a.612.612,0,0,0-.4.17,6.067,6.067,0,0,1-.34,1.3c.057.623.34.906.736.906.057,0,.17-.227.34-.623a2.482,2.482,0,0,1,.4-1.7v-.4A.122.122,0,0,0,249.17,17.693Zm2.266,0c-.283,0-.453.17-.567.623v.227l.057.51a2.045,2.045,0,0,0-.227.283v.34q.085.17.17.17h.113a6.542,6.542,0,0,1,.736-1.643A.783.783,0,0,0,251.436,17.693Zm0,2.153a.122.122,0,0,0-.113.113v.057a.122.122,0,0,0,.113.113h.057v-.283Zm-2.039.85c-.283.113-.4.4-.4.85a8.169,8.169,0,0,0-.567,2.1.122.122,0,0,1,.113.113c.227-.113.34-.227.34-.4a10.6,10.6,0,0,1,.623-2.266v-.283A.122.122,0,0,0,249.4,20.7Zm.736.793q-.17,0-.51.34c0,.34.057.567.227.567h.057c.113,0,.227-.227.4-.736,0-.113,0-.17-.113-.17Zm-2.323.057a1.128,1.128,0,0,0-.68.453v.057c.057.283.17.4.227.4.113,0,.113-.057.113-.17h.4a.7.7,0,0,0,.17-.113v-.453C248.037,21.659,247.98,21.6,247.81,21.545Zm4.136.453H252v.113h-.057Zm-1.133.057c-.057,0-.113,0-.113.113v.057l.057.113c.227,0,.283-.057.283-.113S250.983,22.112,250.813,22.055Zm-3.739.793c-.227.17-.4.68-.51,1.643a6.368,6.368,0,0,0-.453,2.1c.057.51.17.736.34.736h.057c.113-.057.283-.453.453-1.246l-.227-.4c0-.057.057-.113.113-.17.453-.34.623-1.02.623-2.1V23.3a.467.467,0,0,0-.283-.453Zm1.3,1.416c-.17.113-.283.17-.283.227v.227l.113.17c.17-.113.283-.17.283-.227V24.6A.805.805,0,0,0,248.377,24.264Zm-.51,1.586q-.17.085-.17.17v.17c.113.17.17.227.227.227q.17-.085.17-.17v-.17C247.98,25.964,247.924,25.851,247.867,25.851Zm-.113.736H247.7c-.17,0-.283.34-.4,1.02v.17a.122.122,0,0,0,.113.113h.113a4.579,4.579,0,0,0,.283-1.19Zm1.473.567c.453,0,.623.17.623.51a3.937,3.937,0,0,1-.227.963h-.057l-.17-.17-.283-1.133Zm-2.719.4c-.283,0-.567.227-.963.68a3.857,3.857,0,0,1-.283,1.19c0,.113.17.17.623.227l.17-.113a15.124,15.124,0,0,1,.567-1.926Zm2.323,1.36.283-.057h.227l.057.34v.057c-.227.567-.51,1.133-.85,1.87h-.17c-.057,0-.113-.057-.17-.227.057-.17.227-.283.453-.453a5.95,5.95,0,0,0-.113-.736.924.924,0,0,1,.453-.51c0-.057-.057-.113-.17-.113Zm-3.569.793a3.216,3.216,0,0,0-.567,1.926,1.585,1.585,0,0,0,.057.34h.113a6.638,6.638,0,0,0,.906-.85l-.17-.567v-.17a.693.693,0,0,0,.17-.51Q245.771,29.788,245.261,29.7Zm2.549,2.379h.057v.057a.723.723,0,0,1-.283.4A2.583,2.583,0,0,1,247.81,32.082Zm21.811.68c-.227,0-.453.227-.623.623v.227l.113.17.68-.793v-.057Q269.706,32.762,269.622,32.762Zm-25.38,1.19a.122.122,0,0,0-.113.113c.227.283.4.4.623.4h.057a.122.122,0,0,0,.113-.113v-.057A.685.685,0,0,0,244.241,33.952Zm24.814.057a.122.122,0,0,0-.113.113l.057.113a.122.122,0,0,0,.113-.113Zm-.906.51q-.17.085-.17.17V34.8a.122.122,0,0,0,.113.113h.113q.17-.085.17-.17v-.113a.122.122,0,0,0-.113-.113Zm-.906.4a.58.58,0,0,0-.283.34c0,.113.057.17.113.17h.057c.227-.17.283-.227.283-.283v-.113c0-.057,0-.113-.113-.113Zm.736.227a1.173,1.173,0,0,0-.793.51l.227.113c.227,0,.4-.17.566-.51Zm-22.378.623a.122.122,0,0,0-.113.113c0,.113,0,.113.113.113h.057v-.113Zm-.227.51a.208.208,0,0,1-.057.17.43.43,0,0,0,.113.227l.17-.113c-.057-.17-.113-.283-.17-.283Zm1.7,1.36a.122.122,0,0,1,.113-.113v.453c-.057,0-.057-.057-.113-.113Zm-3.966.453q.085,0,.17.34l-.113,1.133v.227a1.479,1.479,0,0,1-.17.567c-.113,1.076-.227,1.643-.4,1.643h-.057l-.057-.4v-.17a2.273,2.273,0,0,1,.17-.85C242.655,39.107,242.825,38.258,243.108,38.088Zm3.966.283h.113l.057.4c-.057.4-.17.567-.283.567h-.113c-.057,0-.057,0-.113-.113v-.057A1.705,1.705,0,0,1,247.074,38.371Zm19.375.4c.057,0,.113,0,.113.113l-.057.113c-.113,0-.113-.057-.113-.113ZM246.677,40.58h.113c0,.057.057.17.057.227a6.776,6.776,0,0,1-.17.793h-.113a.208.208,0,0,0-.057-.17Zm18.185.963c.227-.4.453-.623.736-.623h.057q-.17.68-.34.68h-.17Zm-20.338.4c-.057,0-.113,0-.113.113v.17l.113.113c.17,0,.283-.057.283-.113v-.057C244.808,42.11,244.695,42,244.525,41.94Zm-.17,1.02c-.113.113-.227.17-.227.227v.057c0,.113.057.113.113.113h.17c0-.057,0-.057.057-.17C244.468,43.13,244.411,43.073,244.355,42.96Zm20.168.793a.122.122,0,0,0-.113.113v.113a.122.122,0,0,0,.113-.113Zm-19.432.227a.122.122,0,0,1,.113-.113h.057a.122.122,0,0,1,.113.113v.17A.518.518,0,0,0,245.091,43.979Zm.567.17a.341.341,0,0,0,.227-.057h.057l-.057.227h-.227Zm-1.473.227q-.085,0-.17.34V45c.113.113.17.227.227.227h.113c.057,0,.113-.113.17-.227-.057-.453-.113-.623-.17-.623Zm19.715,0v.113h.17v-.113Zm-.34.453q-.17.085-.17.17v.113h.17q.17-.085.17-.17c0-.057,0-.113-.113-.113Zm-.566.51v.113h.113v-.113Zm-17.279.623a.341.341,0,0,0,.227-.057,9.184,9.184,0,0,0,.17,1.19,1.407,1.407,0,0,0-.057.51c-.113,0-.227-.17-.34-.453,0-.51.057-.85.057-1.02A.248.248,0,0,1,245.714,45.962Zm-1.643.057c0,.34.057.736.057,1.246l-.057.4c.113.34.17.51.283.51h.057V48a8.861,8.861,0,0,0-.227-1.983Zm1.7,3.229c0-.057,0-.057.113-.113H246q.17.085.17.17v.34c-.227,0-.34-.057-.4-.227Z" transform="translate(74.552 38.189)" fill="#19a8d4" stroke="#19a8d4" stroke-width="0.5"/>
</svg>
