<svg id="グループ_1567" data-name="グループ 1567" xmlns="http://www.w3.org/2000/svg" xmlns:xlink="http://www.w3.org/1999/xlink" width="224.213" height="364.157" viewBox="0 0 224.213 364.157">
  <defs>
    <linearGradient id="linear-gradient" x1="1.372" y1="0.758" x2="-0.166" y2="-0.108" gradientUnits="objectBoundingBox">
      <stop offset="0" stop-color="#c8f1fe"/>
      <stop offset="0.582" stop-color="#e0f0f2"/>
      <stop offset="0.756" stop-color="#b3cee9"/>
      <stop offset="1" stop-color="#19a8d4"/>
    </linearGradient>
  </defs>
  <g id="グループ_1424" data-name="グループ 1424" transform="translate(0 0)">
    <path id="中マド_10" data-name="中マド 10" d="M66.577,364.157a2.4,2.4,0,0,1-1.367-.306,1.22,1.22,0,0,1,0-1.852,3.213,3.213,0,0,1,2.736,0,1.22,1.22,0,0,1,0,1.852A2.4,2.4,0,0,1,66.577,364.157Zm0-1.84a2.309,2.309,0,0,0-.984.15.508.508,0,0,0,0,.915,3.321,3.321,0,0,0,1.97,0,.509.509,0,0,0,0-.915A2.32,2.32,0,0,0,66.577,362.318Zm8.242-.6H70.246a.123.123,0,1,1,0-.245h4.572v.244Zm-11.91,0H58.337v-.244h4.571a.122.122,0,1,1,0,.244Zm3.024-.562a1.134,1.134,0,0,1-.849-.308,1.223,1.223,0,0,1-.3-.881,1.8,1.8,0,0,1,.255-.938l.526.159a1.517,1.517,0,0,0-.239.753.621.621,0,0,0,.152.448.6.6,0,0,0,.445.158.425.425,0,0,0,.385-.178,1.2,1.2,0,0,0,.118-.626v-.264H66.9l.87.88h.011v-1.307h.54v2.059h-.54l-.891-.9h-.009v.076a.834.834,0,0,1-.25.638A1,1,0,0,1,65.932,361.153Zm-4.989-4.521H58.337v-.245h2.606a.123.123,0,1,1,0,.245Zm13.875,0H72.211a.123.123,0,1,1,0-.245h2.607v.244Zm0-5.084H70.246a.122.122,0,1,1,0-.244h4.571v.243Zm-11.909,0H58.337V351.3h4.571a.122.122,0,1,1,0,.243Zm11.91-5.083H72.211a.123.123,0,1,1,0-.245h2.608v.244Zm-13.876,0H58.337v-.245h2.606a.123.123,0,1,1,0,.245Zm13.876-3.984H58.337V145.864L1.609,217.227h4.66a.142.142,0,1,1,0,.274H1.391L0,219.25V.068H7.392V0h.364V.068h7.212V0h.364V.068h7.211V0h.364V.068h7.211V0h.364V.068h7.211V0h.364V.068h7.212V0h.365V.068h7.21V0h.364V.068H60.42V0h.365V.068H68V0h.365V.068h7.21V0h.365V.068h7.21V0h.363V.068H90.72V0h.364V.068H98.3V0h.363V.068h7.212V0h.364V.068h7.211V0h.364V.068h7.212V0h.364V.068H128.6V0h.363V.068h7.211V0h.364V.068h7.211V0h.364V.068h7.212V0h.364V.068h7.21V0h.364V.068h7.212V0h.365V.068h7.21V0h.364V2.7c0,.076-.081.137-.181.137s-.183-.061-.183-.137V.3L129.3,56.592h94.913V71.757H117.245L129.3,56.592H86.053l22.664-29.047H28.63V128.488c0-.006.037-.047.1-.118,2.064-2.462,9.2-10.947,14.41-16.774l15.2-19.48v53.748L74.818,125.13V342.48ZM3.573,223.222H0v-.275H3.573c.1,0,.183.061.183.137A.165.165,0,0,1,3.573,223.222ZM74.818,125.13V71.757h42.427L74.82,125.128ZM58.337,92.115V56.592H86.053L58.338,92.114Z" transform="translate(0)" fill="url(#linear-gradient)"/>
    <line id="線_31" data-name="線 31" x2="4.524" transform="translate(59.091 196.079)" fill="none" stroke="#707070" stroke-width="0.5"/>
    <line id="線_36" data-name="線 36" x2="4.524" transform="translate(59.091 181)" fill="none" stroke="#707070" stroke-width="0.5"/>
    <line id="線_32" data-name="線 32" x2="7.54" transform="translate(59.091 211.159)" fill="none" stroke="#707070" stroke-width="0.5"/>
    <line id="線_33" data-name="線 33" x2="4.524" transform="translate(59.091 226.239)" fill="none" stroke="#707070" stroke-width="0.5"/>
    <line id="線_34" data-name="線 34" x2="4.524" transform="translate(59.091 241.318)" fill="none" stroke="#707070" stroke-width="0.5"/>
    <line id="線_35" data-name="線 35" x2="4.524" transform="translate(59.091 256.398)" fill="none" stroke="#707070" stroke-width="0.5"/>
  </g>
  <g id="グループ_1425" data-name="グループ 1425" transform="translate(132.227 56.592)">
    <line id="線_37" data-name="線 37" x2="4.524" transform="translate(60.319) rotate(90)" fill="none" stroke="#707070" stroke-width="0.5"/>
    <line id="線_38" data-name="線 38" x2="4.524" transform="translate(75.398) rotate(90)" fill="none" stroke="#707070" stroke-width="0.5"/>
    <line id="線_39" data-name="線 39" x2="7.54" transform="translate(45.239) rotate(90)" fill="none" stroke="#707070" stroke-width="0.5"/>
    <line id="線_40" data-name="線 40" x2="4.524" transform="translate(30.159) rotate(90)" fill="none" stroke="#707070" stroke-width="0.5"/>
    <line id="線_41" data-name="線 41" x2="4.524" transform="translate(15.08) rotate(90)" fill="none" stroke="#707070" stroke-width="0.5"/>
    <line id="線_42" data-name="線 42" x2="4.524" transform="translate(0) rotate(90)" fill="none" stroke="#707070" stroke-width="0.5"/>
  </g>
</svg>
