<svg xmlns="http://www.w3.org/2000/svg" width="315.873" height="60.498" viewBox="0 0 315.873 60.498">
  <path id="パス_316" data-name="パス 316" d="M26.58-19.006c-4.033,0-8.266,1.367-12.666,4.133a30.9,30.9,0,0,0-5.267,4.067c-2.233,2.3-3.533,3.933-3.9,4.933a.482.482,0,0,1,.233.333.754.754,0,0,1-.333.167.378.378,0,0,0-.1-.267c-.133,0-.3.133-.467.333v.2a2.136,2.136,0,0,0,.3.233v.033a5.324,5.324,0,0,1-.733,1.033l-.2-.033H3.314c-.067,0-.133.133-.167.433a.4.4,0,0,0,.267-.067l.067.033c0,.167-.1.267-.3.333l-.033-.067a.072.072,0,0,0-.067.067v.3a.837.837,0,0,1-.233.567A9.615,9.615,0,0,1,1.814-.14,11.66,11.66,0,0,1,.947,2.193a22.976,22.976,0,0,0-1,5.5,7.326,7.326,0,0,0,.2,1.233l-.1.633a3.657,3.657,0,0,0,.067.8,13.64,13.64,0,0,0,1.467,4.9q1.5,1.55,2.3,2.5a12.956,12.956,0,0,0,2.067,1.833c.867.467,1.333.767,1.333.9v.167a22.73,22.73,0,0,1-1.1,4.233,31.028,31.028,0,0,0-.567,5.067v1a10.35,10.35,0,0,0,.933,4.633c1.867,2.533,4,3.8,6.3,3.8h.467c2.033,0,4.4-.933,7.1-2.867a25.723,25.723,0,0,0,4.533-3.767,10.64,10.64,0,0,0,1.967-2l2.233-2.7a47.8,47.8,0,0,0,3.3-4.9c.9-1.567,1.633-2.967,2.233-4.233a51.293,51.293,0,0,0,2.8-7.9A56.63,56.63,0,0,0,39.146.36V-3.573a23.594,23.594,0,0,0-.2-2.433,16,16,0,0,0-.933-4.7C35.846-16.239,32.046-19.006,26.58-19.006ZM4.414,9.026a16.1,16.1,0,0,1,1.5-6.5,15.255,15.255,0,0,1,2.333-4.5,44.173,44.173,0,0,1,5.4-6.266q8.5-7.95,14.533-7.933c3.4,0,5.733,2.067,7.033,6.2a25.635,25.635,0,0,1,.9,6.033c0,.4.133.667.433.733a2.49,2.49,0,0,1-.1.667h-.033c0-.267-.067-.4-.167-.4l-.1.067c.033.9.067,1.4.067,1.5s0,.133.067.133h.033c.067,0,.1-.167.133-.5a.8.8,0,0,0,.333.233c.233,0,.333.133.333.4l-.033.367-.333-.2h-.133v.033a1.645,1.645,0,0,0,.1.5q-.6.35-.6.7V.56a7.077,7.077,0,0,1-.133,1.4c-.233,1.767-.367,2.8-.367,3.033a7.51,7.51,0,0,0-.333,1.333V6.66a1.012,1.012,0,0,0,.667.533v.1c0,.4-.067.567-.167.567a.25.25,0,0,1-.167-.033c-.1-.367-.2-.533-.3-.533a2.4,2.4,0,0,0-.433.833v.3a2.158,2.158,0,0,0,.1.333v.167a1.287,1.287,0,0,1-.333.633,12.944,12.944,0,0,1-.567,1.733.3.3,0,0,0,.133.267h.033a1.047,1.047,0,0,0,.3-.533c0-.4.1-.633.267-.633.133,0,.3-.267.5-.867h.033v.367l-.8,1.7c-.133,1.267-.4,1.9-.7,1.9H33.78v-.1a4.205,4.205,0,0,1,.433-1.1l-.033-.067a1.9,1.9,0,0,0-.8,1.6v.267h.067c.033,0,.133-.133.3-.367l.1.3v.067c0,.067-.033.1-.067.167a.255.255,0,0,1,.067.167v.133c-.167,0-.267.133-.333.433v.7a.291.291,0,0,0-.133.2h-.067l-.5-.467a6.05,6.05,0,0,0-.167.767c0,.067.1.1.267.167,0,.2-.133.4-.433.633v.333a3.242,3.242,0,0,1-.2.5v.1a.3.3,0,0,0,.033.167l-.133.5c-.567.567-.867.933-.867,1.1a1.151,1.151,0,0,0,.1.433c-.7.533-1.033,1.033-1.033,1.433v.033a2.972,2.972,0,0,0,.067.367c-.067.133-.167.167-.333.167H29.98v.433l.067.1h-.133c-.3,0-.6.3-.833.9q-2.3,2.95-2.3,3v.067l.133.4v.1a.634.634,0,0,1-.367-.233,12.453,12.453,0,0,0-1.667,1.967c-.9,1.133-1.467,1.667-1.633,1.667a24.8,24.8,0,0,1-2.5,2.367c-3.333,2.433-5.966,3.633-7.9,3.633a2.363,2.363,0,0,1-2-.933,8.671,8.671,0,0,1-.8-4.033v-.9c0-.433,0-.9.033-1.467l.8-3.367c.5-2.633.9-3.933,1.167-3.933.8-.233,1.333-.433,1.667-.567a6.737,6.737,0,0,0,3.267-1.367,7.985,7.985,0,0,0,2.2-1.733c.733-.567,1.1-.9,1.1-1.033a1.949,1.949,0,0,0,.6-.5.252.252,0,0,0-.033-.133c0-.067.1-.233.333-.5,0-.067-.067-.133-.2-.167a5.53,5.53,0,0,0-1.067.6A4.2,4.2,0,0,1,17.38,17.76a3.989,3.989,0,0,1-.467-.1H16.88a9.78,9.78,0,0,1-3.133,1.067h-.1a2.66,2.66,0,0,1-.533-.1,13.539,13.539,0,0,1,1.7-4c.767-1.733,1.333-2.633,1.6-2.733a11.885,11.885,0,0,1,2.2-2.833q.65-1.05,1.1-1.2c.067.267.133.4.167.4s.067-.033.067-.1V8.127a.986.986,0,0,0-.067-.333,3.4,3.4,0,0,0,1-.733,1.709,1.709,0,0,0,1.233-1.6c0-.3-.633-.8-1.867-1.567a10.837,10.837,0,0,1-1.1.067A6.493,6.493,0,0,0,14.98,5.793a11.645,11.645,0,0,0-2.133,2.833A2.6,2.6,0,0,1,11.78,10.06a3.3,3.3,0,0,1-.567,1.067,7.334,7.334,0,0,1-.7,1.467c-.567,1.467-1,2.567-1.367,3.267a10.7,10.7,0,0,1-.967,2.033l-.267-.233a14.076,14.076,0,0,1-1.8-2.4C4.98,13.86,4.414,11.793,4.414,9.026Zm16.3-24.833a2.621,2.621,0,0,1,1.1-.333v.1c0,.133-.3.267-.933.4-.1-.033-.167-.067-.167-.133Zm-2.067,1.1a6.011,6.011,0,0,1,1.8-.833h.067c0,.133-.133.267-.367.367a3.827,3.827,0,0,1-1.467.6h-.033Zm-1.533,1.033c0-.233.067-.333.133-.367h.267C17.513-13.839,17.38-13.739,17.113-13.673Zm-2.6,2.467a2.98,2.98,0,0,1,1.033-.767h.1a2.01,2.01,0,0,1-.367.533,11.651,11.651,0,0,0-2.133,1.467A6.794,6.794,0,0,0,11.214-8.34a3.237,3.237,0,0,1-.967.267c-.667.7-1.1,1.067-1.267,1.067H8.947a.784.784,0,0,1,.067-.267c.067-.1,1.233-1.033,3.467-2.833a5.817,5.817,0,0,0,1.733-1.133Zm-2.833.867c0-.2.267-.4.8-.567h.033v.033c-.033,0-.067.033-.133.067a1.809,1.809,0,0,1-.6.467Zm-.5.333a.414.414,0,0,1,.2-.267h.133l.067.033a.321.321,0,0,1-.333.233Zm-.867.667c.133-.133.2-.2.233-.2h.033a.411.411,0,0,0-.067.233h-.2ZM37.346-7.706h.033a42.5,42.5,0,0,1,.5,7c0,.067,0,.1-.033.1-.1,1.5-.2,2.233-.333,2.233l-.1-.467a14.342,14.342,0,0,0,.167-1.633V-4.406a1.925,1.925,0,0,0-.067-.467v-.133a4.719,4.719,0,0,1,.033-.633c-.1-.767-.167-1.4-.2-1.833ZM6.714-4.84c0-.133.167-.333.5-.633q.45-.8.8-.8h.033a.3.3,0,0,1-.167.267c-.667.8-1.033,1.167-1.133,1.167Zm.8.567c0-.3.1-.467.233-.467a.443.443,0,0,1,.1.267A.367.367,0,0,1,7.514-4.273ZM5.047-2.64a2.476,2.476,0,0,1,.267-.5A1.97,1.97,0,0,1,6.347-4.406h.067c-.133.267-.233.367-.267.367A3.147,3.147,0,0,1,5.08-2.573H5.047ZM4.914-3.906H4.98v.067a.088.088,0,0,1-.1.1A.446.446,0,0,0,4.914-3.906Zm.9,2.467a.32.32,0,0,0,.2-.3c.8-1,1.333-1.6,1.567-1.833v.1c-.067.133-.133.2-.167.2A37.941,37.941,0,0,1,5.514.06,9.1,9.1,0,0,1,4.98,1.493l-.8-.333c-.1,0-.167.1-.167.3C2.747,4.093,2.147,5.793,2.147,6.527l.033.1c.1,0,.233-.133.433-.367a8.818,8.818,0,0,1,1.133-2.1c.067,0,.067.033.067.1v.033A5.27,5.27,0,0,1,3.38,5.46a5.23,5.23,0,0,1-.267,1.6c-.1,1.533-.2,2.5-.267,2.9a12.947,12.947,0,0,1,.1,1.433v.2a.883.883,0,0,1-.1.467,22.28,22.28,0,0,1,.333,2.7,5.376,5.376,0,0,0,.433,1.1v.067a2.88,2.88,0,0,1-.833-1.267v-.1c.167-.167.233-.267.233-.3-.167-.433-.3-.633-.333-.633a8.35,8.35,0,0,0-.3-2.3h-.1c-.1.3-.167.433-.233.433v-.1c0-.267-.033-.733-.1-1.467a20.674,20.674,0,0,0,.233-3.2V6.96H2.114v.033c-.2,0-.367.767-.467,2.333v.567q0,.05-.1.7v.167l.033.5s-.067.067-.2.233a.282.282,0,0,1-.2-.067l.333-.733c0-.167-.133-.333-.4-.467a2.842,2.842,0,0,1,.267-.733c-.033-.367-.033-.567-.033-.6l.067-.3V8.26l-.033-.1h.033a4.172,4.172,0,0,1,.267-1.033.405.405,0,0,0-.3-.433c-.067,0-.133.3-.2.933a.088.088,0,0,1-.1-.1V7.36c.067-.767.2-1.167.4-1.167l.2.233h.033c.033,0,.1-.033.167-.167a10.785,10.785,0,0,1,.433-1.6l-.033-.067A3.4,3.4,0,0,0,2.847,3.26a1.684,1.684,0,0,1,.567-1.167,5.9,5.9,0,0,1,.6-1.467C4.014.56,3.98.393,3.947.16c0-.033.167-.133.5-.333.567-1.133.967-1.9,1.233-2.367.2,0,.467-.233.867-.733-.033.2-.067.333-.067.333a1.1,1.1,0,0,0-.467.7,6.063,6.063,0,0,0-.333.733l.1.067Zm32.7-1.567c0-.133.033-.233.133-.267l.033.4h-.167Zm-1.5.3h.033l.033.3v.033c-.033,0-.067-.067-.133-.167Zm1.5.333c.1,0,.167.133.233.4h-.133c-.067,0-.1,0-.1-.067ZM4.447-2.007h.067v.167a.072.072,0,0,1-.067.067c-.1.367-.2.533-.233.533v-.033A1.769,1.769,0,0,1,4.447-2.007ZM2.981-.807c0-.133.133-.3.4-.533v.067a.824.824,0,0,0-.233.5H3.081ZM5.514-1.34c-.133.1-.2.133-.2.2v.167l.033.067a.351.351,0,0,0,.267-.333v-.1ZM5.08-.773a1.092,1.092,0,0,1-.233.533v.133l.067.133c.167,0,.3-.233.4-.733,0-.033-.033-.067-.1-.067ZM3.614-.14h.033v.033c-.033.233-.067.333-.1.333-.133.6-.233.9-.367.9H3.147V.793A3.119,3.119,0,0,1,3.614-.14Zm.933.667c-.1.067-.167.133-.167.167V.827c0,.033.067.1.167.133.067-.033.1-.1.167-.2C4.68.593,4.647.527,4.58.527Zm.467.5v.1H5.08v-.1ZM38.346,2.193q0-.9.2-.9L38.479,2.36h-.1A.4.4,0,0,0,38.346,2.193Zm-1.067-.167c.067-.233.167-.367.3-.367l.067.533V2.46a19.025,19.025,0,0,0-.4,2.433,29.24,29.24,0,0,0-.533,2.9,11.164,11.164,0,0,0-.3,1.167c0,.233-.8,2.733-2.367,7.533a23.631,23.631,0,0,1-2.8,5.6,7.729,7.729,0,0,1-.8,1.433l-1.633,2.367a3.678,3.678,0,0,0-.8,1,23.417,23.417,0,0,0-2.2,2.667c-.1.167-.967.967-2.567,2.467-.1-.067-.133-.1-.133-.133v-.167a2.723,2.723,0,0,0,.633-.767c.467-.233.7-.433.733-.633a2.222,2.222,0,0,0,.8-.9,1.934,1.934,0,0,0,.667-.967h.033c0,.1.033.133.1.133a5.747,5.747,0,0,0,.467-.667,2.135,2.135,0,0,0,.5-.467c0-.267.3-.567.867-.933a6.13,6.13,0,0,1,.6-1.1,11.476,11.476,0,0,0,.933-1.333c.433-.467.633-.767.633-.9l1.767-3.167a3.482,3.482,0,0,0,.733-1.267,25.153,25.153,0,0,1,1.333-2.9,4.421,4.421,0,0,1,.6-1.533,2.729,2.729,0,0,1,.433-1.233q.1-.7.2-.7A25.161,25.161,0,0,0,36.313,8.26a26.449,26.449,0,0,0,.7-3.8,2.51,2.51,0,0,0,.267-.8c0-.1,0-.333-.033-.733a2.692,2.692,0,0,0,.1-.633V2.227Zm-1.2,1a5.188,5.188,0,0,1,.2-.6q0-.2.5-.2l.067.433v.067a.088.088,0,0,1-.1.1h-.033l-.267-.233h-.033v.333c0,.167-.067.267-.167.3h-.133Zm-34.1.533c0-.633.167-1.033.5-1.167-.1.8-.233,1.167-.467,1.167Zm-.4,1.1c.067-.567.233-.867.433-.867a1.458,1.458,0,0,1-.3.967Zm34.5-.667h.033v.133H36.08Zm.3.3c0-.1.033-.167.1-.167h.067v.167c-.067.067-.1.133-.133.133C36.413,4.393,36.379,4.36,36.379,4.293Zm-34.9.7h.167c.067.033.1.133.1.267v.033c-.133.2-.2.3-.233.3-.067,0-.067-.033-.1-.067V5.293Zm34.3.067c.067,0,.133.1.133.233V5.56h-.1l-.033-.433Zm2.133.867h.067v.3h-.067a.252.252,0,0,0-.033-.133A.446.446,0,0,0,37.913,5.927Zm-.633,2.167c.233-.633.4-.933.467-.933,0,.633-.067.933-.167.933Zm-2.1.133c.067,0,.1,0,.1.067V8.46c-.067.133-.133.167-.167.167h-.067V8.56A1.636,1.636,0,0,1,35.18,8.226Zm2.3.467c0-.067,0-.1.067-.1V8.76h-.067Zm-2.667,1c0-.033.033-.067.067-.1V9.86c-.033,0-.067-.033-.067-.1Zm2.267.167h.033v.133l-.033.3h-.033v-.1A1.134,1.134,0,0,0,37.079,9.86ZM9.747,16.26a7.933,7.933,0,0,1,1-2.4,13.526,13.526,0,0,1,1.9-3.267h.033v.167a2,2,0,0,1-.467,1.033,14.04,14.04,0,0,1-1.533,2.8c-.267,1.133-.533,1.667-.867,1.667Zm3.9-4.467c0-.067.167-.133.433-.2a1.211,1.211,0,0,1,.1.367v.067q0,.1-.4.2A1.086,1.086,0,0,1,13.647,11.793Zm-12.233.6h.233a.282.282,0,0,0,.067.2,1.249,1.249,0,0,0-.033.267H1.514c-.067,0-.067-.033-.1-.1Zm8.833,5.866a.921.921,0,0,1,.433-.733c1.433-3.267,2.4-4.933,2.9-4.933h.033v.1a2.553,2.553,0,0,0-.767,1.467c-.6.733-.9,1.2-.9,1.467a3.291,3.291,0,0,1-.7,1.7,3.616,3.616,0,0,1-.867,1.367C10.314,18.693,10.28,18.526,10.247,18.26Zm.9-3.533c0-.267.1-.4.333-.4h.033c-.067.3-.133.433-.2.433h-.1Zm23.5,2.467c0-.4.067-.567.233-.567a1.049,1.049,0,0,1-.167.667C34.68,17.293,34.646,17.26,34.646,17.193ZM12.68,16.86h.067v.167l-.1-.033A.252.252,0,0,0,12.68,16.86Zm4.7.567c-.133,0-.2.067-.2.1v.067h.167c.033,0,.067-.033.067-.1Zm-5.733.967c0-.133.167-.233.5-.267h.033c0,.4-.067.6-.233.633A.382.382,0,0,1,11.647,18.393Zm21.966,1.167c.067-.333.1-.5.167-.5.1-.433.233-.633.367-.633h.033a1.4,1.4,0,0,1-.5,1.133Zm-.5.867c.1-.367.2-.533.267-.533l.033.233v.067C33.413,20.259,33.313,20.326,33.113,20.426Zm-.2.233h.033l.033.2v.1c0,.033,0,.033-.033.033a3.211,3.211,0,0,1-.533.867.253.253,0,0,0-.067-.133Zm-23.6.2a1.115,1.115,0,0,0,.467.133,11.564,11.564,0,0,1-.5,1.733,8.24,8.24,0,0,0-.6,1.533v.167c.133.6.267.867.367.867v.167a1.641,1.641,0,0,1-.233.733l-.4-.2.133-.167H8.48c-.133.033-.167.133-.167.267v.4q-.2.7-.6.7a.655.655,0,0,1-.3-.567v-.1c.4-.1.6-.167.6-.233v-.1c0-.033-.1-.1-.3-.133a4.452,4.452,0,0,0,.167-.467l-.033-.067a5.079,5.079,0,0,0,.367-1.767c.2-1.033.367-1.533.5-1.533a2.437,2.437,0,0,1,.167-.8C9.18,21.226,9.314,21.059,9.314,20.859ZM25.98,30.626l.133-.267a14.951,14.951,0,0,0,1.433-1.833,5.049,5.049,0,0,0,1.133-1.267c.867-1.267,1.567-2.267,2.167-3.067a11.911,11.911,0,0,1,1.433-2.3v.133c-.033.433-.1.667-.167.667a4.886,4.886,0,0,1-.767,1.067,33.881,33.881,0,0,1-2.1,3.1,22.965,22.965,0,0,0-1.6,2.033,6.928,6.928,0,0,1-1.633,1.733ZM8.18,22.493c.033-.3.1-.433.233-.433H8.48v.067A.382.382,0,0,1,8.18,22.493Zm-.267,1.067q.1-.8.3-.8a2.237,2.237,0,0,1-.2.933c-.067,0-.067-.033-.1-.067Zm2.133-.267h.033c.033,0,.1.067.167.233a.542.542,0,0,0-.133.3c-.033,0-.1-.067-.167-.2v-.067Zm-.6,1.8c0-.5.167-.767.467-.767a.542.542,0,0,0,.133.3.265.265,0,0,1-.3.3.406.406,0,0,0,.167.333.443.443,0,0,0-.233.1.24.24,0,0,1-.233-.133Zm-.433,1.367c0-.1.133-.167.333-.267a2.913,2.913,0,0,1,.1.467.7.7,0,0,1-.333.133H9.047v-.1ZM7.247,27.826l.1-.033h.167v.1l-.1.1C7.314,27.993,7.28,27.926,7.247,27.826Zm1.267.533c.3-.333.433-.467.467-.467.067,0,.133.1.133.233v.267a2.137,2.137,0,0,1-.467.833,2.3,2.3,0,0,1,.067.5,1.181,1.181,0,0,1-.4.333H8.247a.165.165,0,0,0-.033-.1c0-.067.133-.4.333-1.033v-.067Zm-2.067.633c0-.067.067-.1.167-.133.033,0,.067.033.1.133a6.028,6.028,0,0,0-.133.667H6.547a1.351,1.351,0,0,1-.1-.4Zm19,2.067h.167c0,.033-.033.067-.1.067h-.067Zm-1.133,1.267c.333-.4.567-.6.667-.6.1-.233.167-.333.3-.333v.133a8.915,8.915,0,0,0-.9.9c-.033,0-.067,0-.067-.067Zm-16.1-.8h.033q.2.5.3.5c0,.067-.133.1-.467.1v-.233A2.732,2.732,0,0,1,8.214,31.526Zm-1.167.567H7.08q.05,0,.2.3c-.033,0-.067.033-.133.033s-.133-.033-.2-.167C7.014,32.192,7.047,32.159,7.047,32.092Zm15.4.267c.033-.1.067-.133.133-.133v.033a.088.088,0,0,1-.1.1Zm-.6.6c0-.233.167-.4.5-.467,0,.233-.133.4-.467.467Zm1.633,0c0-.1.167-.2.467-.267h.067v.067a1.077,1.077,0,0,1-.433.433h-.033l-.067-.2Zm-2.067.433h.1v.067h-.1Zm1.433.3h.067v.067a.479.479,0,0,0-.067.1H22.78A.184.184,0,0,0,22.847,33.692Zm50.018-25.1-.1.033c-.567.3-.833.6-.833.8a6.542,6.542,0,0,0-.533.7c-.067.533-.1.8-.167.8a5.742,5.742,0,0,1-.533,1.567v.133l.033.067c-.033,0-.067.1-.1.367-.233.133-.333.267-.333.3a.5.5,0,0,0,.067.3l-.267.367v.133l.033.067c.133-.033.233-.067.233-.167H70.4v.1a4.972,4.972,0,0,1-.833,1.7c-.1.367-.2.533-.3.533a5.357,5.357,0,0,1-.633,1.033c-.167.533-.3.767-.367.8a3.245,3.245,0,0,0-.333.5,1.278,1.278,0,0,1-.267.567,7.989,7.989,0,0,1-.867,1.3,3.006,3.006,0,0,1-.667,1.033,4.01,4.01,0,0,1-.733,1.167c-.267.433-.5.667-.6.667a.539.539,0,0,1,.133-.333v-.167a.628.628,0,0,1-.3.133,2.047,2.047,0,0,0-.433.6.515.515,0,0,0,.1.2.96.96,0,0,0,.433-.3h.033v.067a3.3,3.3,0,0,1-.433.633h-.067v-.233a.072.072,0,0,0-.067-.067h-.033l-.1.067v-.067h-.033c-.233.333-.467.633-.7.933,0,.267-.967,1.4-2.933,3.4-1.467,1.7-2.533,2.533-3.267,2.533H57.1a.567.567,0,0,1-.233-.033c-.5-.233-.733-.933-.733-2.133v-.3a30.919,30.919,0,0,1,.567-4.9,38.458,38.458,0,0,1,1.567-5.566A50,50,0,0,1,60.4,12.293a7.2,7.2,0,0,0,.733-2.1V10.16a1.23,1.23,0,0,0-.067-.433,1.842,1.842,0,0,0-1.633-1.1,3.681,3.681,0,0,0-2.033.567c-.133,0-.433.567-.867,1.7l-1.1,2.6c-.267,1.067-.5,2.067-.767,2.967-1.7,4.967-2.533,8.6-2.533,10.933v.3c0,.267,0,.4.033.4a5.679,5.679,0,0,0,1.8,3.5,5.8,5.8,0,0,0,3.8,1.633h.1a2.921,2.921,0,0,0,1.6-.7,4.1,4.1,0,0,0,1.467-.933,24.679,24.679,0,0,0,3.2-3.567v-.067a7.225,7.225,0,0,0-.967.967,6.458,6.458,0,0,0-1.067,1c0,.233-.367.367-1.067.4v-.033a6.813,6.813,0,0,0,1.067-.833,24.383,24.383,0,0,0,2.667-2.8,54.775,54.775,0,0,0,3.833-5.6h.033v.033a5.469,5.469,0,0,0-.333,2.167,5.753,5.753,0,0,0,.533,2.533,4.7,4.7,0,0,0,4.6,2.667h.033a9.576,9.576,0,0,0,5.066-1.567c.5-.433.733-.7.733-.8A6.073,6.073,0,0,0,80.8,24.426c0-.033,0-.067-.067-.067a1.5,1.5,0,0,0-.3-.567c.033-.167.067-.233.067-.267a.072.072,0,0,0-.067-.067.6.6,0,0,0-.3.133,2.976,2.976,0,0,1-.833.867l-.067-.033.033-.133c.333-.267.5-.5.5-.667v-.067H79.7a.622.622,0,0,0-.333.167,10.892,10.892,0,0,1-1.8,1.467c-.067.133-.2.167-.433.167q0,.15-.6.4c-.6.067-.9.167-.9.233l.1.167c0,.033-.133.133-.433.3a5.012,5.012,0,0,1-1.567-.233,2.515,2.515,0,0,1-1.633-2.6v-.367a5.421,5.421,0,0,1,.4-1.933.923.923,0,0,1-.033-.267,20.2,20.2,0,0,0,.6-2.4c.8-2.467,1.2-3.733,1.2-3.767a11.88,11.88,0,0,0,.7-2.533v-.033L74.8,10.96v-.333a1.033,1.033,0,0,1,.167-.367c0-.033,0-.067-.067-.133l-.1.067h-.067c-.333-.467-.567-.733-.7-.733-.133.133-.2.2-.233.2s-.067-.067-.133-.233l.067-.1c-.1-.333-.167-.5-.267-.5h-.033c-.2.033-.333.067-.367.067h-.033A.652.652,0,0,0,72.865,8.593Zm.9,1.767c0-.033.067-.1.233-.167l.067.033c0,.033-.1.1-.267.133ZM73.4,13.126h.133c.033,0,.067,0,.067.033v.133l-.033.2a1.077,1.077,0,0,1-.333.733v.167l.167.167-.3.2c0,.033.033.067.033.133-.067.233-.133.333-.2.333a4.363,4.363,0,0,1-.3.933,6.17,6.17,0,0,0-.367,1.267v.067l.033.067a.258.258,0,0,0,.1-.033h.033v.167a2.911,2.911,0,0,1-.167.433c-.067,0-.067-.067-.067-.167h-.1a2.548,2.548,0,0,1-.167.533,1.523,1.523,0,0,1-.167.5v.067c0,.067.033.067.067.067l.1-.067c.033-.367.1-.533.233-.533a.258.258,0,0,0,.033.1c-.033.1-.067.167-.1.167-.067.367-.333,1.433-.833,3.167l-.133-.133a1.645,1.645,0,0,0,.1-.5l-.067-.1h-.033a10.5,10.5,0,0,0-.367,1.567c0,.033,0,.067.067.067s.167-.233.233-.633v-.1h.067v.267a1.513,1.513,0,0,1-.133.6.255.255,0,0,1-.167-.067H70.8l-.133.067a1.907,1.907,0,0,1-.333,1.133c.067.467.133.767.133.833a1.456,1.456,0,0,1-.233.7l-.067-.033a1.793,1.793,0,0,0-.3-.867.215.215,0,0,0-.167.067,4.537,4.537,0,0,0,.033.533c-.2,0-.3-.2-.3-.567a2.291,2.291,0,0,0,.1-.833,1.731,1.731,0,0,0-.1-.167,1.439,1.439,0,0,0,.133-.467c0-.133-.033-.233-.1-.233a5,5,0,0,0-.3,1.533l.033.167-.067.2H69.1c0-.033,0-.067-.067-.133a2.724,2.724,0,0,0,.033-.467,2.057,2.057,0,0,0-.067-.6,2.906,2.906,0,0,0,.067-.667.791.791,0,0,0-.1-.5v-.033a.618.618,0,0,0,.233-.067,1.874,1.874,0,0,1,.233-.767l-.1-.133-.067.033c-.033.233-.067.367-.133.367H69a.938.938,0,0,0-.033-.267.894.894,0,0,1,.267-.533h.033c0,.067.033.1.067.1a.6.6,0,0,0,.233-.5,8.593,8.593,0,0,0,.333-1.1,5.311,5.311,0,0,0,.4-1.033l.433-.567v.033l-.167.867v.033c0,.067,0,.067.067.067h.033l.067-.033-.033-.133c0-.067,0-.067.067-.067H70.8l.167.033q.3-.1.3-.3a2.168,2.168,0,0,0,.3-.867,2.6,2.6,0,0,0,.3-.7l-.033-.033a4.177,4.177,0,0,0,.3-.9,2.786,2.786,0,0,0,.333-1.033c0-.1.133-.233.4-.467v-.033c0-.067,0-.1-.033-.133Zm-1.4.367.067.033c-.067.333-.133.5-.167.5a1.683,1.683,0,0,1-.167.633.26.26,0,0,1-.133-.133c.067,0,.133-.2.2-.567A1.255,1.255,0,0,0,72,13.493Zm-14.1.9a.072.072,0,0,1,.067.067H57.9Zm11.866.2q-.1.05-.1.1v.033q.05.1.1.1h.067q.1-.05.1-.1C69.932,14.66,69.865,14.626,69.765,14.593Zm.9,2.967.267-1c.2-.167.267-.5.267-1.033.167-.5.3-.767.4-.767v.1l-.067.233v.233a.65.65,0,0,1-.033.267c-.2.5-.333.9-.467,1.267-.033.3-.1.433-.167.433v.167c0,.233-.067.333-.1.333H70.7l-.033-.167Zm-1.433-2.1a.406.406,0,0,1-.2.333v.033c.067.1.1.133.133.133a.552.552,0,0,0,.167-.433V15.46ZM57.4,15.526l.067.033c-.067.233-.167.367-.233.367A.552.552,0,0,1,57.4,15.526ZM69,16.16h-.067c-.067.2-.167.433-.267.667,0,.033.033.067.033.1h.1l.033-.2c.167-.167.267-.3.267-.4V16.26Q69.048,16.16,69,16.16Zm3.8.133h.033v.067H72.8ZM60.6,30.159v-.033c.267-.3.567-.633.867-1.033A8.709,8.709,0,0,1,62.5,27.626a2.764,2.764,0,0,1,.533-.733,6.453,6.453,0,0,1,1-1.267,2.235,2.235,0,0,1,.867-1.367,17.863,17.863,0,0,1,1.433-2.167c.367-.7.567-1.067.567-1.067a8.833,8.833,0,0,1,.7-1.133c.3-.633.5-.967.6-.967.267-.567.533-1,.7-1.3a5.987,5.987,0,0,1,.867-1.3,23.554,23.554,0,0,1-.5,2.5,13.348,13.348,0,0,0-1.433,2.233,18.392,18.392,0,0,1-2.567,4.333,22.645,22.645,0,0,1-4.633,4.767ZM56.966,16.393H57a1.072,1.072,0,0,0,.033.267c-.233.767-.367,1.167-.433,1.167-.067.4-.133.6-.167.6V18.36h-.1v.133a.122.122,0,0,1,.1.033.586.586,0,0,0-.033.2,3.694,3.694,0,0,0-.3.767,6.445,6.445,0,0,0-.467,1.533,5.218,5.218,0,0,0-.5,1.733,4.689,4.689,0,0,0-.367,1.567,5.7,5.7,0,0,0-.267,1.433h-.067a1.221,1.221,0,0,1,.067-.533c-.033-.033-.033-.067-.033-.133v-.533l.1-.333v-.233a.923.923,0,0,1,.033-.3,3.307,3.307,0,0,0,.267-.9l.233-1.1a1.026,1.026,0,0,1,.333-.667v-.1a3.672,3.672,0,0,1,.067-.6,1.961,1.961,0,0,0,.333-.833v-.2A.535.535,0,0,0,56,18.926c.2-.7.367-1.067.467-1.067A3.058,3.058,0,0,1,56.966,16.393Zm11.433.933c-.1.067-.133.1-.133.133v.033q.05.1.1.1h.067c.033,0,.067,0,.067-.067v-.133c0-.033-.033-.033-.067-.067Zm2.633,1.7h-.167c-.133.4-.2.567-.233.567,0-.167-.033-.267-.067-.267H70.5c-.067,0-.1.1-.133.267a.122.122,0,0,0,.1.033c.033,0,.1.1.233.333-.1.3-.167.467-.233.467h-.033l-.133-.1c.067-.267.133-.433.133-.5v-.1h-.067a2.191,2.191,0,0,0-.267.8l.067.1.067-.033H70.4q.1.05.1.1v.033a.573.573,0,0,0-.067.267v.067h.1a6.312,6.312,0,0,0,.533-2Zm-3.933.433c-.033,0-.033.033-.067.067l.033.067.1-.067C67.165,19.493,67.165,19.459,67.1,19.459Zm4.567.067c-.067,0-.133.133-.167.367.033,0,.033,0,.033.033.1-.033.167-.1.167-.133v-.2Zm12.366.1-.667.7q-.2.6-.4.6v.067c.033.167.1.233.133.233h.033c.067,0,.133-.067.167-.233a8.719,8.719,0,0,0,.8-1.267C84.1,19.659,84.065,19.626,84.031,19.626Zm-17.2.267v.1H66.9v-.1Zm2.633.367.067.033-.033.167h-.067a.122.122,0,0,0-.033-.1Zm-2.8,0-.1.067a1.6,1.6,0,0,1-.333.567v.133c.1,0,.267-.2.467-.667v-.1Zm3.533.433h-.1a2.5,2.5,0,0,0-.233.667v.233H69.9a1.091,1.091,0,0,0,.3-.867Zm1.1.167c-.033,0-.067.067-.133.167l.067.033a.413.413,0,0,0,.1-.067v-.133Zm-16.7.3h.033l.033.167-.3.933h-.1v-.033A2.507,2.507,0,0,1,54.6,21.159Zm28.232,0h-.067a5.329,5.329,0,0,1-1.1,1.233l-.3.167v.167h-.2a.313.313,0,0,0-.267.2.072.072,0,0,0,.067.067h.167c.033.233.067.333.1.333H81.4a1.442,1.442,0,0,1,.467-.667.423.423,0,0,1,.433-.333c.133,0,.233-.133.333-.433L83,21.559A.809.809,0,0,0,82.831,21.159Zm-12.466.1a.072.072,0,0,0-.067.067v.067l.067.1v.067c-.2.033-.3.267-.3.667q0,.05-.2.1l-.133-.1H69.7a.3.3,0,0,0-.167.267.072.072,0,0,0,.067.067h.067l.1-.067c.1,0,.267.1.433.367h.033q.1-.05.1-.1v-.133c0-.1-.033-.2-.033-.3,0-.033.033-.1.033-.133a.563.563,0,0,0-.067-.167c.1,0,.167-.233.167-.7C70.432,21.293,70.4,21.293,70.365,21.259Zm-4.333.033a.716.716,0,0,0-.3.433,2.8,2.8,0,0,0-.6.9l.033.067a4.5,4.5,0,0,0,.933-1.267v-.067C66.1,21.326,66.065,21.326,66.032,21.293Zm15.766.1-.067.033.033.067.067-.033Zm-.2.267v.033l.033.067a.072.072,0,0,0,.067-.067v-.033Zm-11.7.2c-.1.033-.167.067-.167.1a.072.072,0,0,0,.067.067h.133v-.1Zm-15.766.733c0-.133.033-.2.133-.233H54.3v.133a.461.461,0,0,1-.167.3Zm15.4.033v.033l.033.067.067-.033a.072.072,0,0,0-.067-.067Zm1.267.733a.26.26,0,0,1,.1-.233v.133l-.033.167C70.8,23.426,70.8,23.426,70.8,23.359Zm9.833-.267c-.033,0-.067.067-.1.133a.122.122,0,0,0,.033.1c.1-.067.133-.133.133-.167s0-.033-.033-.067Zm-10.666.067q-.1.05-.1.1v.233a5.135,5.135,0,0,0-.1.533c0,.033.033.067.067.133a.756.756,0,0,0,.267-.633v-.267q-.05-.1-.1-.1Zm-2.6.067-.067.033a2.256,2.256,0,0,1-.4.633.412.412,0,0,0,.067.1H67a2.432,2.432,0,0,1,.4-.633v-.067Zm13.6.233c-.033,0-.033.033-.067.067v.033c0,.067.033.067.067.067.067,0,.067,0,.067-.067v-.033C81.031,23.493,81.031,23.459,80.965,23.459Zm-1.133.8c.2-.233.333-.367.433-.367.067.1.133.167.133.2-.033,0-.067.033-.067.133,0,.033.067.067.267.133v.133c0,.033-.133.133-.333.367H80c0-.067,0-.1.033-.133.133-.1.233-.167.233-.167v-.2l-.033-.067-.333.1a.072.072,0,0,1-.067-.067Zm-9.9-.033c-.067,0-.133.1-.167.3v.033a.072.072,0,0,0,.067.067h.033c.033,0,.067-.133.1-.367C69.932,24.259,69.932,24.259,69.932,24.226ZM53.7,24.293h.067l.067.233a2.7,2.7,0,0,1-.167.467h-.033v-.033C53.632,24.826,53.666,24.593,53.7,24.293Zm10,.767v-.067a1.954,1.954,0,0,1,.467-.633H64.2A1.117,1.117,0,0,1,63.7,25.059Zm15.133-.367h.1c0,.033-.033.067-.033.1h-.067ZM53.6,25.159q.1.05.1.1c0,.133-.033.2-.133.233A1.027,1.027,0,0,0,53.6,25.159Zm9.833.033h.133a.8.8,0,0,1-.267.533h-.033v-.1A.476.476,0,0,0,63.432,25.193Zm2.6.033c-.033,0-.067.067-.133.2,0,.067.033.067.067.067.1-.033.133-.1.133-.133v-.067C66.1,25.259,66.065,25.259,66.032,25.226Zm-12.5.333h.033l.067.333a2.105,2.105,0,0,1-.133.433h-.033l-.033-.167v-.1A1.645,1.645,0,0,1,53.532,25.559Zm16.233.167a.122.122,0,0,0,.1-.033c0,.067,0,.1.033.133-.033,0-.033.033-.033.1H69.8l-.033-.167ZM65.7,25.693v.067h.067v-.067Zm5.366.067c.067,0,.1.1.1.333a1.693,1.693,0,0,1,.3.833c-.2,0-.333-.333-.4-1.067ZM63,25.993a.225.225,0,0,1,.133-.2h.033v.1c0,.033-.033.067-.167.133Zm13.5.567c.033-.133.3-.267.767-.4a1.833,1.833,0,0,1,.633-.233h.033v.1c-.033,0-.133.033-.267.067a4.77,4.77,0,0,1-1.033.533.252.252,0,0,0-.133-.033Zm-6.6-.533c.1,0,.267.133.5.433v.133q-.05.1-.1.1h-.1q-.1-.05-.3-.6Zm-4.633.3-.1.067a.072.072,0,0,0,.067.067h.033c.067,0,.067-.033.067-.067S65.332,26.326,65.265,26.326Zm12.766.1h.1v.033h-.1Zm-.267.133h.067v.033h-.067ZM64.9,26.926a1.657,1.657,0,0,0-.533.633c.2,0,.367-.2.567-.633Zm-11.533.167c0-.033.033-.033.067-.067h.033v.067Zm18.2-.033h.067a.253.253,0,0,0,.067.133v.033l-.133-.033Zm-.667.033q.1.05.1.1a.146.146,0,0,1-.1.033h-.033v-.067ZM103.284,8.226a2.816,2.816,0,0,0-1.933.967,10.285,10.285,0,0,0-1.833,3.367c-1.4,4-2.367,6.6-2.867,7.8a12.88,12.88,0,0,0-1.267,3.3c-1.833,6.5-2.767,10.166-2.767,11v.1a2.247,2.247,0,0,1,.433.5,1.4,1.4,0,0,0,.9.7,1.583,1.583,0,0,0,.8.333c.2,0,.333-.033.333-.067.4,0,.767-.467,1.133-1.433,2-3.333,3.567-5.833,4.667-7.433a28.369,28.369,0,0,0,2.233-4.133,15.7,15.7,0,0,1,2.867-4.767c1.667-2.567,3-3.833,4.067-3.833h.233a1.513,1.513,0,0,1,.6.133,16.819,16.819,0,0,1,2.2,1.8,2.158,2.158,0,0,0-.1-.333v-.2h.033a1.8,1.8,0,0,1,.567.633,4.33,4.33,0,0,1,1.033.867h.033l.1-.067h.067a.847.847,0,0,0,.533.533c.067,0,.1-.033.1-.067v-.2q.5.15.5.3v.067q-.3.05-.3.1v.033q.45.5.7.5l.233-.033c.267.067.4.133.467.133l.167-.033v-.1l-.1-.133v-.033h.3c.033.167.067.267.133.267s.067-.033.067-.067v-.033l-.033-.167h.167c1.233,0,2.4-.8,3.5-2.433V16.06h-.033a3.079,3.079,0,0,0-1.133,1.133q-.35,0-1,.7a12.384,12.384,0,0,1-2.1.367h-.033l-.067.033c0-.033-.067-.033-.2-.033-.167-.267-.267-.4-.333-.4a.474.474,0,0,1-.2.067c0-.033-.033-.1-.133-.2a1.363,1.363,0,0,1-.633-.467l-.767-.567a.514.514,0,0,1-.333-.533.406.406,0,0,1,.333.2c.4.2.6.333.633.433a2.447,2.447,0,0,1,.467.333l.733.267a.4.4,0,0,1,.3-.2,1.784,1.784,0,0,1,.3.233h.067q.1-.05.1-.1l.233.267h.067a1.5,1.5,0,0,0,.367-.033c.1,0,.167-.133.233-.467a1.211,1.211,0,0,0,.367.1h.1c.467,0,1.133-.467,1.933-1.433a4,4,0,0,1,1.7-1.2c0-.433-.133-.667-.4-.667l-.2.033a.886.886,0,0,1-.433-.333l-.133.133.067.433c-.1.1-.133.167-.133.2a1.625,1.625,0,0,0,.133.367v.1h-.033c-.067,0-.1-.133-.167-.333-.033,0-.067.033-.1.133l.033.2c-1.267,1.267-2.133,1.9-2.567,1.9a.748.748,0,0,1-.5-.267h-.033a.745.745,0,0,0-.333.1h-.033c-.133-.267-.267-.4-.367-.4l-.533.067c-.9,0-1.9-.633-3.1-1.933-1.533-1.933-2.933-2.933-4.167-2.933-1.133,0-2.3.8-3.6,2.367a1.442,1.442,0,0,1-.467.667v.133c0,.033,0,.067.067.067h.067a.072.072,0,0,0,.067-.067,1.7,1.7,0,0,0,.367.133v.033c-.133,0-.3.267-.467.8v.033q.05.1.1.1h.033a.528.528,0,0,0,.4-.167v.033c0,.2-.3.5-.867.867q-.05,0-.2-.3c-.2,0-.367.233-.5.667-.2.1-.3.333-.3.733l.233-.033v.067a.922.922,0,0,1-.367.8h-.033q-.45-.4-.6-.4h-.067a.253.253,0,0,0-.267.2c0,.033,0,.067.067.067h.1c0-.067.033-.1.133-.133a3.139,3.139,0,0,1,.133.333.351.351,0,0,0-.367.267.221.221,0,0,0,.167.133v.033a2.446,2.446,0,0,0-.567.867c0,.233-.2.367-.633.5a1.066,1.066,0,0,0,.267.567v.033c-.467.067-.667.133-.667.233v.267a.628.628,0,0,1-.067.267.313.313,0,0,0-.2.267v.1l.033.067.167-.033a6.808,6.808,0,0,1,.567-.8v.2a1.275,1.275,0,0,1-.4.7,5.724,5.724,0,0,1-1,2.3c-.367.7-.633,1.067-.767,1.067l-.067-.033-.333.667a37.544,37.544,0,0,1-3.1,5.766h-.033v-.033a1.62,1.62,0,0,1,.2-.567,41.437,41.437,0,0,0,2.5-5.467,17.966,17.966,0,0,0,.9-1.867,1.132,1.132,0,0,0,.4-.4,4.75,4.75,0,0,1,.367-1.167l-.067-.033h-.033q-.05,0-.4.4c-.5,1.1-.867,1.667-1.133,1.667h-.067v-.033c.467-1.7.833-2.967,1.133-3.733,0-.267,1.233-3.1,3.633-8.5a6.51,6.51,0,0,0,.567-2.633V9.26C104.184,8.56,103.851,8.226,103.284,8.226Zm2.6,7c.067-.067.1-.133.167-.133a1.241,1.241,0,0,1,.6-.633c.133-.367.3-.533.5-.533l.2.033v.067c-.067,0-.1.033-.167.1l.033.333a.894.894,0,0,1-.5.767,4.265,4.265,0,0,1-.567.867,4.017,4.017,0,0,1-1,1.433l-.267-.233.1-.267q.6-.6.8-.6c0-.233.233-.567.633-1V15.36l-.233.033h-.233l-.067.033Zm-4.333-.4h.067c0,.033-.033.067-.033.133h-.033Zm.067.867c0-.133.1-.233.267-.4h.033v.1a.63.63,0,0,1-.233.467c-.033,0-.033-.033-.067-.067Zm-.7.533c.033-.1.067-.167.167-.2v.2Zm-.667,2.167a6.087,6.087,0,0,0,.667-1.333,1.191,1.191,0,0,1,.567-.8c-.367.667-.833,1.733-1.433,3.133a17.855,17.855,0,0,0-1.3,3.567c0,.333-.233.567-.7.667a.345.345,0,0,1,.033-.133c.267-.867.533-1.667.833-2.4v-.033c-.067,0-.167-.067-.233-.267,0-.167.133-.4.433-.767a14.549,14.549,0,0,1,.867-1.867.122.122,0,0,0-.033-.1c.3-.7.533-1.067.733-1.1h.033a6.872,6.872,0,0,0-.533,1.433Zm.6-1.933q.1,0,.1.2h-.033c-.033,0-.067-.067-.1-.133Zm3.367.733a.385.385,0,0,1,.267-.3.57.57,0,0,1,.2-.3h.067v.2q-.25,0-.3.4v.133c-.033,0-.1.033-.133.033s-.067-.033-.1-.033Zm10.2-.4h.033v.067h-.033Zm-15,.067.133.033v.033h-.067C99.418,16.926,99.418,16.893,99.418,16.86Zm.167.633h.033l.033.1-.067.033Zm4.2.133c-.033,0-.033.033-.067.067l.033.167h.033c.067,0,.067-.033.067-.067v-.1C103.851,17.66,103.851,17.626,103.784,17.626Zm.633.8a.336.336,0,0,1,.3-.367l.067.033c-.067.233-.133.333-.2.333Zm-5.267.3c.1-.3.167-.467.267-.467v.033C99.318,18.56,99.218,18.726,99.151,18.726Zm4.167-.1c0-.067.067-.1.167-.1h.033a.679.679,0,0,1-.067.367c-.067-.067-.133-.1-.133-.133Zm.833.233c0-.2.067-.3.167-.3h.067l-.167.333Zm-5.167.167a.072.072,0,0,1,.067.067,10.789,10.789,0,0,1-.733,1.767h-.067v-.067c.067-.333.1-.467.167-.467A10.577,10.577,0,0,1,98.984,19.026Zm3.9,1.133c.033-.1.1-.133.133-.133a.122.122,0,0,0,.033.1v.033Zm-.067.733c0-.067,0-.067.067-.067h.1c-.067.067-.1.1-.1.167h-.067Zm-1.8.5a.072.072,0,0,0-.067.067v.033c0,.067,0,.067.067.067h.1v-.1c0-.033-.033-.033-.067-.067Zm-.233.233q-.1.05-.1.1v.167a.072.072,0,0,0,.067.067q.1-.05.1-.1v-.233Zm1.1,1.333q.1-.7.2-.7h.2v.1a2.956,2.956,0,0,1-.367.633h-.033Zm-.133.167h.033c.033,0,.067.033.1.067-.033.133-.167.233-.333.367A1.763,1.763,0,0,1,101.751,23.126Zm-1.367.567-.1.067a.332.332,0,0,0,.033.133h.033a.072.072,0,0,0,.067-.067v-.067Zm1.033.033c.033,0,.067.033.067.133l-.033.033h-.067Zm-.533,1c0-.233.067-.333.267-.333v.133c-.1.133-.133.2-.167.2Zm-3.767.033h.033v.133h-.033Zm-.167.5h.067v.033a13.429,13.429,0,0,1-.667,2.633c-.2,1.033-.433,1.567-.633,1.567,0,0,0-.033-.067-.033l.033-.067v-.5l.033-.033-.033-.033-.133.033v-.1h.1c.2,0,.3-.2.3-.533v-.1a1.5,1.5,0,0,0-.267.067c0-.067,0-.1-.033-.133.033,0,.067-.067.067-.233.133.1.2.2.2.267h.033c.067,0,.1-.1.133-.3a2.654,2.654,0,0,0,.433-1.167A13.192,13.192,0,0,0,96.951,25.259Zm-2.267,3.233c.067-.133.133-.167.167-.167l.033.167v.067q0,.05-.2.1Zm-.333,1.4a.658.658,0,0,1,.2-.467,1.03,1.03,0,0,0,.067.267c-.133.167-.2.233-.233.233h-.033Zm.9.133c0-.033,0-.067.067-.067.033,0,.067.033.1.133l-.167-.033Zm-.933,0h.033a.167.167,0,0,1,0,.2l-.067-.033Zm85.927-47.932a1.939,1.939,0,0,0-1.167.7,6.724,6.724,0,0,0-1.467.7,35.53,35.53,0,0,0-4.4,3.867,79.174,79.174,0,0,0-6.933,9.2q-2.35,3.3-3.4,4.9a51.494,51.494,0,0,0-2.633,4.6l.067.3a1.323,1.323,0,0,0-.633.967c-.233.067-.367.133-.367.2V7.66h.2v.033a17.222,17.222,0,0,1-1,1.7c-1.7,3.067-2.6,4.767-2.733,5.1a2.95,2.95,0,0,0-.6,1.233h.067c.2-.067.567-.7,1.133-1.867a35.85,35.85,0,0,0,2.2-3.833,11.1,11.1,0,0,0,1.633-2.7,9.872,9.872,0,0,0,.8-1.133,26.361,26.361,0,0,1,2.067-3.2,2.358,2.358,0,0,1-.167.533,29.337,29.337,0,0,1-1.8,3.3,5.146,5.146,0,0,0-1.4,2.7,1.318,1.318,0,0,0-.567,1.133c-.033,0-.067-.067-.067-.167h-.033c-.067,0-.167.2-.3.633,0,.233-.167.333-.467.333l-.167.5v.067l.067.1v.233l-.2-.067h-.1a7.72,7.72,0,0,0-.7,1.033c0,.067.033.067.067.067s.067,0,.133-.067c.033,0,.067.033.133.067l-.767,1.567h-.033l-.133-.067a1.354,1.354,0,0,1,.267-.633c-.033,0-.033-.033-.033-.067-.133,0-.3.267-.533.8,0,.1.033.133.1.133l.133-.067h.067a5.134,5.134,0,0,1-.533,1.4v.2h.067c.133-.133.233-.233.233-.333a35.805,35.805,0,0,1,2.967-5.067,26.138,26.138,0,0,1,1.367-2.333c0-.267.333-.5.967-.7l.333-1.233.167.133h.067c.167-.167.267-.3.267-.433a4.154,4.154,0,0,0,.733-1.467c.3-.3.467-.533.467-.7.267-.4.867-1.3,1.867-2.7a41.713,41.713,0,0,1,3.9-5.467h.067c-.333.533-2.2,3.433-5.6,8.633a7.575,7.575,0,0,1-.7,1.5,70.752,70.752,0,0,0-3.933,6.433c-.733,1.2-1.433,2.4-2.1,3.633a1.249,1.249,0,0,0,.033.267l-.033.3c-.333,0-.6.4-.767,1.167a8.568,8.568,0,0,0-1.167,2.167.515.515,0,0,0,.1.2.788.788,0,0,1-.167.433h-.1c-.067,0-.2-.2-.4-.567a2.551,2.551,0,0,0-.6,1.433v.067h.133c0-.233.067-.367.233-.433l.233.1a4.49,4.49,0,0,1-.333,1.233c-.5,1-.833,1.667-.967,2.033a.853.853,0,0,1-.533.433l.033.2v.433c-.1,0-.167.133-.267.433,0,.367-.2.533-.6.533v.133a2.158,2.158,0,0,0,.1.333v.333a.807.807,0,0,1-.433.133v.133c.1,0,.133.033.133.1-.033,0-.1.133-.167.4a.532.532,0,0,1-.267-.1l-.033.1c0,.167.033.4.033.667-.167.3-.3.433-.4.433a5.854,5.854,0,0,1-.767,2.3q0,.45-1.1.6a.252.252,0,0,1-.133-.033v-.033a3.209,3.209,0,0,1,.567-1.6,12.857,12.857,0,0,1,.933-2.667l-.067-.1a.814.814,0,0,1-.233.033,2.17,2.17,0,0,0-.3.633c-.3,1.033-.533,1.533-.733,1.533-.433,1-.767,1.7-1,2.167h-.033a.253.253,0,0,0-.067-.133c0-.7.8-2.867,2.433-6.5v-.033c-.133.067-.267.333-.467.733-1.667,3.533-2.533,5.8-2.533,6.833h-.067c0-.033-.2-.633-.633-1.8a38.818,38.818,0,0,1-.833-4.9c-.233-3.967-.367-6.233-.467-6.733v-5.8c0-.233,0-.6-.033-1.133q.1-1.05.3-4c.6-6.4.967-9.866,1.133-10.4a41.172,41.172,0,0,1,1.167-6.166,24.544,24.544,0,0,1,1.633-3.8,4.475,4.475,0,0,0,.867-1.667c0-.567-.533-.867-1.6-.867a3.763,3.763,0,0,0-2.567,1.267,4.688,4.688,0,0,0-1.567,2.167,25.574,25.574,0,0,0-2.167,6.366c-.067.933-.4,3.367-.967,7.333a41.807,41.807,0,0,1-.4,5.3v1.3a6.837,6.837,0,0,1-.1.933,2.118,2.118,0,0,0,.1.5,8.4,8.4,0,0,0-.233,1.633c0,1.533.067,2.667.133,3.4-.1.967-.167,1.6-.167,1.9v.467a1.975,1.975,0,0,0,.133.7c0,.133-.033.267-.033.467l.167,1.3a1.636,1.636,0,0,1-.1.4c.1.2.233.4.333.567a1.05,1.05,0,0,0-.233.367,2.311,2.311,0,0,1,.233.833c.133-.067.167-.133.167-.167v-.267h.133l.033.433v.3c0,.033-.1.1-.367.133,0,1.033.033,1.833.067,2.3a10.366,10.366,0,0,1,.367,1.833,14.317,14.317,0,0,0,1.933,5.8,2.226,2.226,0,0,1,1.1,1.167,5.383,5.383,0,0,0,4.167,2.267,1.439,1.439,0,0,0,.467-.133c.133,0,.333-.733.6-2.233a76.906,76.906,0,0,1,4.5-10.766c2.433-5.1,4.267-8.7,5.5-10.766l4.467-7.6c1.6-2.633,2.567-4.167,2.9-4.633a97.163,97.163,0,0,1,6.9-9.666,20.091,20.091,0,0,0,1.433-1.567,53.977,53.977,0,0,1,5.733-4.9c.8-.433,1.167-.833,1.167-1.2v-.267a1.148,1.148,0,0,0-.167-.533A5.121,5.121,0,0,0,180.245-17.906Zm-10.466,13.8h.067v.067h-.067ZM166.345-2.14h.1a.563.563,0,0,0-.067.167h-.033Zm-3.167,5c.1-.3.167-.467.2-.467a22.968,22.968,0,0,1,2.367-3.533,8.5,8.5,0,0,1-1.2,2.067C163.712,2.127,163.279,2.793,163.179,2.86ZM145.412-.74c.067.033.1.1.1.267v.167h-.033c0-.033-.033-.167-.067-.4Zm-.4,1.5a.088.088,0,0,1,.1-.1h.033V.793h-.133Zm-.067.4h.033v.333h-.033Zm0,.467h.067a3.11,3.11,0,0,0,.233.8.571.571,0,0,1-.267.4l.1.333-.067.167c-.2-.067-.3-.167-.3-.233a3.823,3.823,0,0,1,.233-1.333Zm-.267,2c.233,0,.333.2.333.567,0,.667-.133,1.067-.4,1.233v.167a.626.626,0,0,1,.233.433,3.616,3.616,0,0,0-.3.867,4.212,4.212,0,0,1,.1.7v.033a2.591,2.591,0,0,1-.3.867,5.622,5.622,0,0,1,.1.733,16.1,16.1,0,0,1-.233,1.767.542.542,0,0,0,.133.3v.333h-.1c.033.2.067.333.067.333l-.167.767a2.188,2.188,0,0,1,.1.433v.233h-.033a1.065,1.065,0,0,1-.033-.233h-.1c-.033.3-.067.5-.067.567v.067a13.11,13.11,0,0,1,.3,3.3c0,.033-.067.167-.133.367.033.267.1,1.9.2,4.833a.088.088,0,0,1,.1.1v.167a.088.088,0,0,1-.1.1,5.617,5.617,0,0,0,.133,1.1,44.793,44.793,0,0,0,1,7.933l.533,1.667a6.787,6.787,0,0,1,.667,1.567.554.554,0,0,1-.467-.333,9.626,9.626,0,0,0-.9-1.6.116.116,0,0,0,.067-.033v-.067c0-.067-.1-.567-.3-1.433a2.361,2.361,0,0,0-.467-.4.3.3,0,0,1,.167.033c.067,0,.067-.033.067-.1,0-.033-.1-.133-.333-.333.167,0,.233-.033.233-.067v-.3c0-.067-.167-.133-.467-.267-.167-1.3-.267-1.933-.4-1.933-.3,0-.467-.133-.467-.367v-.067a2.061,2.061,0,0,1,.533.133,1.453,1.453,0,0,0,.4-.067c0-.167-.033-.267-.167-.3h-.2a3.223,3.223,0,0,1-.133-.767l.333-.267v-.067c-.267,0-.433-.367-.467-1.1v-.633c0-.133-.033-.367-.067-.667l.033-.3h.367a.088.088,0,0,0,.1-.1v-.167c0-.167-.167-.367-.467-.533v-.067a1.516,1.516,0,0,1,.367-.1v-.1h-.067c-.2,0-.333-.033-.333-.133v-.2c.233-.033.367-.1.367-.167l-.033-.1c-.267-.033-.4-.133-.4-.267v-1.2c0-.067,0-.467-.067-1.133v-.267a1.1,1.1,0,0,1,.133-.567l-.067-.233c.033-.333.067-.6.067-.767a2.157,2.157,0,0,1-.1-.333v-.367a.542.542,0,0,0,.133-.3,2.463,2.463,0,0,0-.2-.667,3.185,3.185,0,0,1,.3-.867V14.96c0-.1-.067-.333-.133-.7v-.3a1.03,1.03,0,0,1,.067-.267c0-.467-.033-1.1-.067-1.8a13.751,13.751,0,0,0,.367-2.767,1.027,1.027,0,0,1-.033-.333c.1-.833.167-1.533.2-2.067l.233-.467V5.693c0-.2.033-.7.1-1.567V3.893A.656.656,0,0,1,144.679,3.627Zm-3.167,8.833a.252.252,0,0,0,.133-.033h.033v.267h-.167Zm.033.433a.253.253,0,0,1,.2.267v.033l-.067.1c-.167,0-.233-.1-.233-.267v-.033A.088.088,0,0,0,141.546,12.893Zm1.467.9c0-.033.067-.1.2-.167h.033v.033a.986.986,0,0,1-.067.333C143.112,13.993,143.046,13.926,143.012,13.793Zm-1.467.5c.1,0,.167.367.2,1.133v.467a4.526,4.526,0,0,1-.1.967c-.1,0-.2-.233-.333-.767A5.444,5.444,0,0,0,141.546,14.293Zm13.4,1.867c-.2.1-.467.633-.8,1.533a3.06,3.06,0,0,0-.5,1.233h.067l.1-.033a7.317,7.317,0,0,1,1.267-2.433l-.067-.3Zm.933.733c-.033,0-.133.133-.3.367h-.433c-.033,0-.167.2-.333.633v.033h.033c.267-.233.4-.333.4-.4.033,0,.067.033.067.1v.267a9.153,9.153,0,0,0-.7,1.433,5.816,5.816,0,0,0-.567,1.167l.033.1a1,1,0,0,0,.433-.367,12.76,12.76,0,0,1,1.567-2.933v-.3q0-.05-.1-.1Zm-14.4.267a.072.072,0,0,1,.067-.067c.067,0,.1,0,.1.067v.1a.179.179,0,0,1-.133.1Zm-.167.533a.352.352,0,0,1,.233-.2,1.646,1.646,0,0,1,.1.5,1.637,1.637,0,0,1-.1.4h-.033a.678.678,0,0,0-.2-.5Zm1.6.1a.264.264,0,0,1,.267.167l-.067.2h-.033a.352.352,0,0,1-.2-.233A.252.252,0,0,1,142.913,17.793Zm11.7.6a.467.467,0,0,0-.267.367v.1h.1a.807.807,0,0,1,.2-.433v-.033Zm-13.266.4c0-.033.133-.1.333-.2v.6c0,.133-.033.233-.133.233a1.281,1.281,0,0,1-.2-.567Zm12.166.467a1.958,1.958,0,0,0-.5,1.1v.067h.033a1.958,1.958,0,0,0,.5-1.1v-.067Zm-10.333,1.233h.033v.1h-.033Zm9.733.3c-.2,0-.3.133-.3.367v.067h.033c.033,0,.133-.133.3-.367Zm.967,0c-.067,0-.167.167-.233.5v.1l.033.067c.233,0,.333-.233.333-.667Zm-1.433.7q-.2.1-.2.2v.2h.067c.133-.067.167-.133.167-.167v-.133Zm1.067.4h-.133a4.065,4.065,0,0,0-.633,1.4v.033h.1A7.4,7.4,0,0,0,153.512,21.893Zm-1.3.2v.1h.033v-.1Zm-9.5.4.4.033v.167a1.148,1.148,0,0,0-.3.033C142.779,22.726,142.712,22.659,142.712,22.493Zm9.033.5c-.433.833-.633,1.233-.633,1.267v.067l.333-.4a2.642,2.642,0,0,1,.4-.867v-.067Zm-8.8.133h.233c0,.033-.067.067-.167.1l-.067-.067Zm9.633.4c-.133,0-.267.267-.433.767v.033c.333,0,.467-.267.467-.8Zm-9.5.9.167-.1c0,.033.1.067.267.1a1.211,1.211,0,0,1-.233.3A.57.57,0,0,1,143.079,24.426Zm8.766.5a1.177,1.177,0,0,0-.533,1.067v.033h.067c.1-.033.3-.367.533-1Zm-1.3.367v.1l.033.067c.067,0,.1,0,.1-.067v-.1Zm.633,1c-.067,0-.133.1-.167.367l.033.067c.1,0,.167-.133.167-.4v-.033Zm-.5.967c-.033,0-.067,0-.1.067v.167h.067c.1-.067.167-.133.167-.167v-.067Zm-2.8,5.333a.2.2,0,0,0,.133-.033c0,.333-.067.5-.133.5h-.033l.033-.2Zm.9.433c0-.1.167-.133.467-.167h.033l-.333.6C148.879,33.459,148.812,33.326,148.779,33.026Zm-1.133.567h.033l.1.033c-.067.167-.1.233-.133.233Zm1.467.533q0-.05.1-.1h.033v.067l-.033.067Zm-2.267.1c0-.067.033-.1.067-.1v.167h-.067Zm2.2.233c0-.033,0-.067.067-.067l.033.2c-.033.067-.067.133-.1.133Zm29.052-.333a4.489,4.489,0,0,0,1.1-.133c1.167-.2,2.8-1.2,4.9-3.033a18.607,18.607,0,0,0,4-3.9c-.367,0-1.533.967-3.5,2.867-1.767,1.433-3,2.2-3.7,2.267l-.2-.033a1.641,1.641,0,0,1,.633-.7,7.234,7.234,0,0,0,1.867-1.5,6.682,6.682,0,0,0,1.3-1.067c.1-.367.2-.567.267-.567l.5.067q.15,0,.2-.6a.807.807,0,0,1,.433.2l.4-.5c1.067-.7,1.6-1.233,1.6-1.567a2.991,2.991,0,0,0-.8.267,1.332,1.332,0,0,1,.2-.533c1-.933,1.5-1.6,1.5-2.033a3.124,3.124,0,0,0-.7.633c-.333.633-.6.933-.8.967-4.8,4.3-8.233,6.433-10.3,6.433-.567,0-.867-.167-.867-.533q0-1.85,2.8-6.2A65.843,65.843,0,0,1,187.6,14.56c1.267-1.3,2.367-1.933,3.267-1.933a1.832,1.832,0,0,1,1.067.333,2.147,2.147,0,0,1,.7,1.4l-.067.6.033.267c-.467,1.3-.8,1.967-1,2.033h-.3l-.1.067a2.36,2.36,0,0,1-.367.7c-.067-.033-.1-.067-.167-.067a1.263,1.263,0,0,0-.467.833c.033.167.1.233.233.233a3.138,3.138,0,0,0,1.167-.4,17.743,17.743,0,0,0-1.667,2.567c.033,0,.033,0,.033.033a.889.889,0,0,0,.333-.133c.433-.7,1.033-1.6,1.733-2.667a4.79,4.79,0,0,0,.833-.6h.033l-2.467,3.7c0,.033.167.133.533.267l.033-.6c.133.3.3.467.467.467a.716.716,0,0,0,.433-.3.088.088,0,0,0,.1.1c.033,0,.067-.1.1-.267-.033,0-.033,0-.033-.033l-.1.033a1.512,1.512,0,0,0,.167-.3.679.679,0,0,0,.367-.233c0,.1,0,.133-.033.133a3.181,3.181,0,0,1-.733,1.533.3.3,0,0,0-.167-.033c-.033,0-.067.1-.1.333-1.8,2.367-2.8,3.667-2.967,3.933v.067a.253.253,0,0,0,.133-.067,19.144,19.144,0,0,0,2.2-2.467,1.663,1.663,0,0,0-.367.9h.1l.267-.167a2.1,2.1,0,0,1-.233.733l-.067-.033c.033-.133.067-.267.1-.367,0-.033-.067-.067-.133-.067-.033,0-.1.167-.167.533l.1.5a1.439,1.439,0,0,0-.133.467,1.248,1.248,0,0,0-.2-.333c-.067,0-.1.067-.1.233a8.154,8.154,0,0,0-.733,3.433,2.025,2.025,0,0,0,.467,1.6,4.153,4.153,0,0,0,3.1,1.867,2.675,2.675,0,0,0,.667-.067c1.233,0,2.633-.7,4.2-2.067,1.533-1.367,2.5-2.2,2.867-2.433,4.233-4.367,6.433-6.533,6.566-6.566a1.166,1.166,0,0,0,.667-1.067c-.367,0-.533-.1-.533-.267l.033-.867a1.912,1.912,0,0,1-.033-.4c0-.1-.167-.167-.533-.2a.531.531,0,0,0-.333.167,5.522,5.522,0,0,1-.633.9,13.465,13.465,0,0,0-1.667,1.733,1.782,1.782,0,0,0-.5.433l.033.1.2-.067v.067a1.6,1.6,0,0,0-.267.367c-2.567,2.667-3.967,4-4.167,4,0-.067.133-.233.367-.5-.167,0-.367.133-.633.433-.3.3-1.367,1.167-3.233,2.567a4.831,4.831,0,0,1-1.6,1.1c-.167,0-.267-.2-.267-.633,0-1.9,1.167-5.267,3.467-10.033,2.1-4.067,3.133-7.033,3.133-8.933a3.1,3.1,0,0,0-1.167-2.5c-.233-.633-.467-.933-.733-.933-.133,0-.3.133-.533.4l-.033-.167h-.1c0,.033,0,.067-.033.067A4.113,4.113,0,0,0,197.1,9.46c-1,2.567-1.533,3.833-1.567,3.867l-.133-.833h-.067l-.067,1.233c.033,0,.033,0,.033.033a1.017,1.017,0,0,1-.3.433c-.033,0-.067-.067-.133-.167l.133-.233-.033-.867c.1-.133.167-.2.167-.233a8.213,8.213,0,0,0-.5-1.367c.333.1.5.233.5.367h.067q-.1-.4-.2-.4a2.406,2.406,0,0,1-.667-.3c0-.033,0-.033.033-.033a1.517,1.517,0,0,1,.633.267,3.866,3.866,0,0,0-.767-1.367,1.015,1.015,0,0,0-.433-.3,3.083,3.083,0,0,0-2.267-.8,10.828,10.828,0,0,0-3.3.7,16.62,16.62,0,0,0-4.333,2.933l-1.667,1.5a61.1,61.1,0,0,0-4.767,5.467c-3.233,4.4-4.833,7.766-4.833,10.1a4.264,4.264,0,0,0,.867,2.667,5.2,5.2,0,0,0,4.1,2Zm13.766-22.233h-.2l.133-.167C191.831,11.726,191.864,11.793,191.864,11.893Zm-14.1,12.966a1.688,1.688,0,0,1-.267-.633q0-.25.9-1.2l-.267-.2v-.067c.033-.133.1-.167.133-.167,0,.067.067.133.2.233h.067a1.754,1.754,0,0,1,.2-.5c-.067-.033-.1-.1-.1-.267a1.881,1.881,0,0,0,.9-.5,3.735,3.735,0,0,1,.6-.9,1.722,1.722,0,0,1-.2-.233,1.517,1.517,0,0,0,.667-.167,50.137,50.137,0,0,1,3.6-4.133,8.741,8.741,0,0,1,2.367-1.933c0,.2-.667.933-2.067,2.167a14.132,14.132,0,0,1-1.333,1.567c-1.567,1.867-2.567,2.967-2.967,3.333a6,6,0,0,1-1,1.6c-.733.633-1.067.967-1.067,1.067C178.131,24.459,178,24.759,177.765,24.859Zm17.266-9.833a.088.088,0,0,1-.1-.1.211.211,0,0,1,.167-.2l.033.1Q195.131,15.026,195.031,15.026Zm3.1.833-.033-.2c0-.1.1-.167.233-.233l.1.233A.57.57,0,0,1,198.131,15.86Zm-5.7,2.033a3.747,3.747,0,0,1,1.233-1.267,7.889,7.889,0,0,0,.533-.8.3.3,0,0,1,.167.1,4.185,4.185,0,0,0-.3.7A5.271,5.271,0,0,1,192.431,17.893Zm5.4-1.2-.033-.167a.64.64,0,0,1,.367-.6A.809.809,0,0,1,197.831,16.693Zm-5.1,14.3a2.647,2.647,0,0,1-.167-1.267l-.033-.4a1.548,1.548,0,0,0,.233-.6.888.888,0,0,0-.167-.433v-.033l.4-.367a2.235,2.235,0,0,1,.233-.9c-.033-.1-.1-.167-.133-.167a.517.517,0,0,0-.367.233c-.133.767-.233,1.133-.3,1.133a1.885,1.885,0,0,0-.333.9c0,.1.067.133.167.167q-.25.3-.4.3a1.25,1.25,0,0,1-.367.033,2.178,2.178,0,0,1,.067-.367,12.966,12.966,0,0,0,.8-2H192.3a1.335,1.335,0,0,1-.333.533.482.482,0,0,1-.067-.233v-.067l.267-.533-.033-.1a.309.309,0,0,1,.233-.3h.033l.033.4c.267,0,.4-.2.4-.633l-.033-.233c-.233-.033-.367-.1-.367-.233l-.033.033-.033.1-.033-.033.033-.067c.633-.567.967-.9.967-1.033q-.05-.1-.1-.1c-.067,0-.167.167-.267.467a.443.443,0,0,1-.233-.1v-.067a.463.463,0,0,0,.167-.333,1.115,1.115,0,0,0,.133-.467q0-.15.3-.2a1.392,1.392,0,0,1-.1-.3c0-.033.067-.1.2-.133v.367l.033.067a.34.34,0,0,0,.267-.167v-.1a1.825,1.825,0,0,1-.333-.6l.4.033c.1,0,.133-.1.133-.3,0-.067-.1-.1-.267-.133a1.031,1.031,0,0,1,.067-.267l.267.167a.443.443,0,0,0,.1-.233c.167-.233.267-.367.267-.467,0-.067.4-1,1.167-2.833a9.055,9.055,0,0,1,1.233-2.833l.167.1a.072.072,0,0,1-.067.067,4.776,4.776,0,0,0-.567,1.7,8.846,8.846,0,0,0-1.067,2.767.532.532,0,0,0,.1.267c0,.033,0,.033-.033.033l-.167-.033a5.889,5.889,0,0,0-.4,1.067.482.482,0,0,0,.067.233,1.034,1.034,0,0,0-.4.1l.033.2a2.076,2.076,0,0,0-.367.567,5.356,5.356,0,0,1-.233,1.267q.05.1.1.1a.4.4,0,0,0,.3-.2,3.182,3.182,0,0,1,.4-1.4l-.033-.2c0-.033.1-.067.267-.167a3.476,3.476,0,0,1,.267-1.167l.3.067c.1,0,.2-.167.3-.533a17.109,17.109,0,0,0,.933-2.133c.167-.7.367-1.067.6-1.067a4.029,4.029,0,0,1,.167.767l-.033.1c-.267.033-.4.1-.4.233l-.2.6a1.086,1.086,0,0,0-.333.6,1.625,1.625,0,0,1,.133.433l-.033.067-.267-.067c-.033,0-.033.033-.067.067l.1.167-.033.133a1.688,1.688,0,0,1,.067.433c-.3,0-.467.1-.467.3a1.505,1.505,0,0,1,.1.433.474.474,0,0,1-.067.2l-.333-.067c-.033,0-.067.067-.1.167l.167.233c-.233.033-.333.067-.333.133a1.439,1.439,0,0,1,.133.467.5.5,0,0,1-.133.367l-.233-.067c-.067,0-.1.033-.133.133a1.051,1.051,0,0,0,.233.367,1.338,1.338,0,0,1-.267.533v.3a27.381,27.381,0,0,0-1,2.933l-.6.933.133.267a1.651,1.651,0,0,1-.133.433l.033.3a.852.852,0,0,1-.233.4l.033.267C193.131,30.826,192.964,30.992,192.731,30.992Zm4.733-13.266c-.167,0-.267-.033-.3-.167,0-.1.133-.333.467-.7l.4.167a.749.749,0,0,1-.033.333l-.2-.033C197.664,17.326,197.531,17.46,197.464,17.726Zm-3.733.3a.35.35,0,0,1,.167-.3v.033C193.9,17.86,193.831,17.926,193.731,18.026Zm-.733.2c-.033,0-.033,0-.033-.033a.252.252,0,0,1,.233-.133A.341.341,0,0,1,193,18.226Zm4.133,1.067c0-.033-.033-.033-.067-.067l.1-.133c.033,0,.067.067.1.133Zm-4.367.1c-.033,0-.033,0-.033-.033a.848.848,0,0,0,.067-.233h.067Zm-10.1-.067c-.033,0-.067-.033-.067-.133C182.665,19.193,182.665,19.259,182.665,19.326Zm9.7,1.3h-.033l.7-1.267a.072.072,0,0,1,.067.067l.067-.033A3.162,3.162,0,0,1,192.364,20.626Zm-10.233-.567H182c.033-.1.1-.167.167-.167Zm9.6.533h-.167a.288.288,0,0,0-.1-.2v-.067a.6.6,0,0,0,.267-.133Zm-.267.767-.1-.133v-.033c.133,0,.2.067.2.133Zm2.567.5H194a.706.706,0,0,1,.333-.667l.033.067c0,.1-.033.167-.1.167C194.264,21.726,194.2,21.859,194.031,21.859ZM178.2,21.793h-.167v-.033l.1-.033.067.033Zm11.766,1.767A3.7,3.7,0,0,0,191,22.426l-.033-.067-.3.033c-.067-.2-.133-.3-.167-.3l-.067.033c-.1-.233-.167-.333-.2-.333a3.2,3.2,0,0,0-.8,1.133l.233.033a.609.609,0,0,0,.2-.267c.033,0,.1.1.233.3a.807.807,0,0,0-.2.433C189.9,23.526,189.9,23.559,189.964,23.559Zm8,6.433c0-.067.033-.133.133-.233v-.067h-.033a.473.473,0,0,1-.367.133l.1-.267c.467-.367,1.133-.933,1.967-1.7q.45-.6.6-.6h.267l-.1-.2c0-.067.067-.133.2-.233a4.711,4.711,0,0,0,1.433-1.5l-.1-.033a1.006,1.006,0,0,0-.367.233c.167-.267.3-.4.367-.4.367,0,.567-.033.567-.133a6.133,6.133,0,0,1,1.1-.833v-.033H203.6a7.2,7.2,0,0,0,1.067-1.067l.133.033.6-.4-.033-.1a1.38,1.38,0,0,0-.4.233H204.9a2.9,2.9,0,0,1,.567-.533q0-.2.9-.4c-.1.167-.467.633-1.067,1.4-2.867,2.967-4.333,4.433-4.433,4.433-.7.767-1.167,1.167-1.4,1.167A7.532,7.532,0,0,1,197.964,29.993Zm-7.566-7.2h-.133l-.3-.2.233-.433a.63.63,0,0,1,.233.467Zm15.333-.367a.231.231,0,0,1,.1-.133v-.1l-.1.067-.067-.033c-.033.033-.033.067-.033.133C205.664,22.393,205.7,22.426,205.731,22.426Zm-27.8.133-.167-.1c.033-.1.067-.133.1-.133l.133.1A.133.133,0,0,0,177.931,22.559Zm13.033,2.067a.361.361,0,0,1-.133-.167c.2-.667.4-1,.533-1A8.952,8.952,0,0,1,190.964,24.626Zm-1.6-.5.133-.033v-.067a.563.563,0,0,1-.167-.067A.25.25,0,0,0,189.364,24.126Zm-.167.5.167-.3a.033.033,0,0,1-.033-.033l-.233.1C189.1,24.526,189.164,24.626,189.2,24.626Zm-11.5-.1c.033,0,.067-.033.067-.1,0-.033-.033-.067-.1-.067Zm-.533.567H176.9l-.033-.1a.354.354,0,0,1,.4-.4A1.477,1.477,0,0,1,177.165,25.093Zm11.8-.133c-.033-.033-.033-.1-.033-.2-.067,0-.1.033-.133.167,0,.033.033.033.1.033Zm-.467.467.167-.3-.067-.033-.4.033Q188.4,25.426,188.5,25.426Zm-11.766.533a.854.854,0,0,1,.233-.633C176.9,25.759,176.8,25.959,176.731,25.959Zm23.8.733H200.5l.133-.233a3.207,3.207,0,0,0,.733-.633l-.033.1C201.031,26.426,200.764,26.693,200.531,26.693Zm-.4-.367c.2-.167.267-.233.267-.3,0-.033,0-.067-.067-.067-.033,0-.1.1-.2.267Zm-23.866.233c0-.267.067-.367.2-.367l.267.067C176.731,26.359,176.6,26.459,176.265,26.559Zm16.266-.1a.474.474,0,0,1-.2-.067l.067-.1.167.033Zm-5.7.433-.433-.133c.133-.3.267-.433.367-.433.133,0,.2.067.2.267A.542.542,0,0,1,186.831,26.893Zm3.2.067.067-.3c.033,0,.1.067.133.2Q190.231,26.959,190.031,26.959Zm-3.833.467h-.233v-.2c0-.033.067-.067.2-.067Zm12.733.2h-.2c0-.033.033-.067.1-.067S198.931,27.593,198.931,27.626Zm-9.066.233-.033-.1c.033-.067.067-.1.067-.167h.067C189.931,27.759,189.9,27.859,189.864,27.859Zm1.833.833-.133-.033c0-.033,0-.067.067-.067C191.664,28.593,191.7,28.626,191.7,28.693Zm.267,1.2c-.167,0-.233-.033-.233-.067,0-.067,0-.1.067-.1A.157.157,0,0,1,191.964,29.892Zm30.286,4.067a7.72,7.72,0,0,0,1-.1c.933,0,2.467-.8,4.667-2.433a7.786,7.786,0,0,0,1.833-1.767h.067v.133h.033a.609.609,0,0,0,.2-.267l-.3.1a5.784,5.784,0,0,1-1.567,1.1l-.1-.267a.345.345,0,0,0,.033-.133c.567-.467,1.533-1.4,2.933-2.8,1.867-2.133,2.8-3.333,2.8-3.633a9.685,9.685,0,0,0,1.567-3.6l-.067-.4h-.1a16.519,16.519,0,0,1-1.233,2.4l.1.2.167-.033v.033c-.133.233-.233.367-.267.367,0-.067,0-.1-.067-.1a4.062,4.062,0,0,1-.567.533,3.37,3.37,0,0,1-.733,1.6v.067h.067a.889.889,0,0,1-.367.433.52.52,0,0,1-.433.367l.367-.933-.033-.033a.631.631,0,0,0-.567.4,4.332,4.332,0,0,1-1.767,1.933,18.359,18.359,0,0,1-2.367,2.167c-2,1.633-3.633,2.433-4.867,2.433-1.3-.133-1.967-1.033-1.967-2.767a24.79,24.79,0,0,1,.867-5.533,8.6,8.6,0,0,1,1.833-3.733,139.3,139.3,0,0,0,9.4-17.666c4.3-9.933,6.466-16.833,6.466-20.766a1.308,1.308,0,0,0-.1-.467l-.9-.333c-.667-.733-1.167-1.067-1.5-1.067h-.233a4.289,4.289,0,0,0-2.7,1.3,14.315,14.315,0,0,0-2.9,4.5c-2.433,5.866-4.133,10.1-5,12.666q-3.8,10.65-3.8,11.4v.567l-.167-.033a7.661,7.661,0,0,1-.667,2.433,2.394,2.394,0,0,1-.433,1.4,3.946,3.946,0,0,1-.833,1.633.531.531,0,0,0,.133.4l-.033.1c-.2.133-.267.733-.267,1.8-.267.8-.467,1.633-.7,2.5a4.042,4.042,0,0,1-.533.633l.267.1a.407.407,0,0,1-.133.3,1.666,1.666,0,0,0-.633.867,46.2,46.2,0,0,0-.9,6.7,17.092,17.092,0,0,0,.167,1.867,3.311,3.311,0,0,0,.667,1.8A5.257,5.257,0,0,0,222.25,33.959Zm4.9-22.333c.067-.2,1.733-3.633,5-10.333a8.272,8.272,0,0,1,.7-1.9,11.655,11.655,0,0,1,.933-2.1,9.564,9.564,0,0,1,.867-1.967,22.627,22.627,0,0,1,.933-3.133,7.624,7.624,0,0,0,.7-2.233,43.364,43.364,0,0,0,1.267-4.2c.367-2.733.667-4.1.867-4.1a2.251,2.251,0,0,1,.1.567,13.158,13.158,0,0,1-.1,1.333c-.433,2.233-.633,3.433-.633,3.567a2,2,0,0,1-.467,1.3,6.689,6.689,0,0,1-.533,1.967,18.066,18.066,0,0,1-1.1,3.133,61.838,61.838,0,0,1-3.333,8.2c-.533,1.567-1,2.433-1.333,2.6a.25.25,0,0,0,.033.167l-.333,1a1.542,1.542,0,0,1-.6.7,9.032,9.032,0,0,1-1.4,2.9A7.573,7.573,0,0,1,227.15,11.626Zm-1.933-.3a4.977,4.977,0,0,1,.2-.867q2.8-8.45,6.1-16.766c2.3-5.733,3.833-9,4.567-9.733a12.39,12.39,0,0,1-.467,2.133,12.03,12.03,0,0,0-.5,2.567,5.333,5.333,0,0,0-.633,2.233,8.24,8.24,0,0,1-1.133,2.533,4.671,4.671,0,0,1-.467,1.733,2.314,2.314,0,0,1-.467,1.333c-.3.9-.5,1.367-.633,1.4-.367,1.067-.767,2.033-1.167,2.967-.8,1.567-1.433,2.867-1.867,3.833a7.648,7.648,0,0,1-1.233,2.433L226.383,9.56A6.346,6.346,0,0,1,225.217,11.326Zm8.5-25.9h-.033v-.167c0-.033.067-.1.233-.2v.2C233.916-14.706,233.85-14.673,233.716-14.573Zm-.9,1.433-.167-.033a8.3,8.3,0,0,1,.8-1.167l.033.167q0,.2-.3.4A1.93,1.93,0,0,1,232.816-13.14Zm-.933,1.967h-.067a2.086,2.086,0,0,1,.767-1.8h.033A6.844,6.844,0,0,1,231.883-11.173Zm4.867-1.567h-.033v-.133h.033Zm-17.9,35.8a4.905,4.905,0,0,1,.167-1.133q.5-2.05,2.1-8c1.5-4.6,2.567-7.7,3.2-9.233A16.765,16.765,0,0,1,225.35,1.76c.3-.967.8-2.433,1.533-4.333a37.441,37.441,0,0,1,2.633-5.933,4.846,4.846,0,0,1-.3,1.033c-1.867,4.9-3,7.8-3.3,8.766a32.559,32.559,0,0,0-2.067,6.1c.033,0,.133-.1.3-.267a8.649,8.649,0,0,0,.9-2.633l-.033-.067.367-.7c.2-.633.433-.933.733-.933,0,.033-.2.833-.667,2.433a.033.033,0,0,1,.033.033,1.2,1.2,0,0,0,.3-.3,4.089,4.089,0,0,1,.4-1.333,3.4,3.4,0,0,1,.233-1.067c0-.067,0-.1-.067-.1l-.233.233-.033-.233.033-.5a12.948,12.948,0,0,1,.9-2.233c.067,0,.1.133.133.4a5.778,5.778,0,0,1-.333,1.3v.067c.1,0,.233-.167.433-.5a10.716,10.716,0,0,1,.433-1.6,2.115,2.115,0,0,0-.4-.233.884.884,0,0,1,.267-.733.48.48,0,0,1,.2.233l-.3.3v.1q.15.2.2.2a3.639,3.639,0,0,0,.7-1.7.033.033,0,0,1-.033-.033,1.031,1.031,0,0,0-.267.067l.033.133a.271.271,0,0,1-.267.133.711.711,0,0,1,.433-.733c.033,0,.033,0,.033.033a.088.088,0,0,0-.1.1c.033.067.067.1.133.1s.1-.067.1-.2l-.033-.1c.2,0,.267-.233.267-.667,0-.033-.1-.1-.333-.2.033-.1.067-.167.1-.167.267-.733.433-1.233.567-1.5h.033l.1.633.133-.033a2.757,2.757,0,0,0,.6-1.4l-.167.033c-.067,0-.067-.067-.067-.267a1.706,1.706,0,0,1,.7-1.4,1,1,0,0,0-.133-.433,3.588,3.588,0,0,0,.567-.467l-.267,1.133h.067a35.749,35.749,0,0,1,2.1-4.333,70.513,70.513,0,0,1-2.6,6.866,10.628,10.628,0,0,1-.767,2.267c-.467,1.433-.8,2.4-1,2.933a15.492,15.492,0,0,0-1.133,3.4,30.156,30.156,0,0,0-1.167,2.9,24.478,24.478,0,0,1-1.2,3.433c-1.367,4.567-2.433,7.1-3.133,7.566.333-1.333.5-2.033.5-2.133-.067,0-.167.1-.267.267a8.893,8.893,0,0,1-.567,1.8h-.033v-.067h-.033c-.233.4-.4.6-.467.6V17.76h-.033a1.609,1.609,0,0,0-.267.4c.033,0,.033,0,.033.033l.167-.033.033.233a.576.576,0,0,1-.167.167c-.2,0-.433.4-.667,1.233a1.443,1.443,0,0,1,.033.167.7.7,0,0,1,.233.567h-.033c-.033-.067-.1-.167-.2-.333h-.033C219.35,22.126,219.017,23.059,218.85,23.059Zm12-32.132a.361.361,0,0,1-.133-.167,1.141,1.141,0,0,0,.3-.567c.267-.667.5-1,.7-1.067a2.326,2.326,0,0,1-.267.667A2.61,2.61,0,0,1,230.85-9.073Zm-.467-1.433v-.067a.179.179,0,0,1,.133-.1l.033.1Zm-.7,1.767h-.033a2.6,2.6,0,0,1,.467-1.233l.067.033A4.814,4.814,0,0,1,229.683-8.74Zm.8.033c-.067,0-.067-.033-.1-.067v-.033a1.445,1.445,0,0,0,.167.033A.072.072,0,0,1,230.483-8.706Zm-1.2,3.167h-.033a.223.223,0,0,1-.133-.233.834.834,0,0,1,.167-.367.415.415,0,0,1,.133.367A.42.42,0,0,0,229.283-5.54Zm-.167,1.4.033-.2h-.033a.179.179,0,0,0-.1.133C229.017-4.173,229.05-4.14,229.117-4.14Zm-.367.333.1-.067c0-.1-.033-.167-.1-.167-.067.033-.1.067-.1.133Q228.7-3.806,228.75-3.806Zm3.9.567h-.067v-.1h.067Zm-.367.833h-.033V-2.54h.033Zm-7.033,8.2c.1-.067.167-.133.167-.2l-.033-.067c-.1.1-.167.167-.167.2Zm1.067.3V5.927h.033l.033.1C226.383,6.06,226.383,6.093,226.317,6.093Zm-1.2.267.2-.167a.3.3,0,0,0-.167-.267l-.2.167A.3.3,0,0,0,225.117,6.36Zm-.5,1.233c.233,0,.367-.333.433-1.033a.072.072,0,0,0-.067-.067h-.033c-.1,0-.233.367-.367,1.067A.033.033,0,0,1,224.617,7.593Zm1.467-.633V6.827c.033,0,.033,0,.033.067C226.117,6.927,226.117,6.96,226.083,6.96Zm-1.8.367c.067,0,.1-.033.133-.133h-.033c-.067.033-.133.1-.133.133Zm1.567.167V7.327h.033l.033.133ZM223.417,8.66a2.4,2.4,0,0,0,.433-1.2h-.033c-.167,0-.333.4-.467,1.167Zm-1.167,5.766c.133,0,.333-.4.633-1.233l-.033-.067a.122.122,0,0,1,.033-.1,6.481,6.481,0,0,0,.533-1.5,34.448,34.448,0,0,0,1.1-3.467h-.033c-.067,0-.233.3-.467.9a19.6,19.6,0,0,1-1.067,2.933,1.01,1.01,0,0,0-.333.3c0,.167.067.233.2.233a2.877,2.877,0,0,1-.267.933,1.1,1.1,0,0,0-.5-.133,1.653,1.653,0,0,0-.333.667c0,.067.067.133.233.167l.267-.033v.4Zm1.067-5.233c0-.067.033-.1.1-.167,0-.067-.033-.067-.1-.067-.033,0-.067.067-.067.233Zm.433.2-.033-.2h-.033l-.2.133C223.483,9.393,223.55,9.393,223.75,9.393Zm-.833.9.133-.433h-.033c-.1.1-.167.133-.167.167v.267Zm.333.167.2-.133a.183.183,0,0,0-.133-.2c-.1.067-.133.1-.133.167S223.217,10.393,223.25,10.46Zm-.8,1.533a3.065,3.065,0,0,0,.233-.967c-.067-.167-.133-.233-.233-.233a8.559,8.559,0,0,0-.233,1.133C222.217,11.96,222.317,11.993,222.45,11.993Zm.5-.567c.1-.067.167-.133.167-.2-.033-.067-.067-.1-.067-.133h-.067c-.033,0-.1.033-.133.133A.288.288,0,0,0,222.95,11.426Zm1.967.5.133-.333h.033v.2C225.083,11.86,225.017,11.893,224.917,11.926Zm-2.033.333v-.167h.033l.033.133Zm-.8.767a.922.922,0,0,0,.167-.533c.033,0,.1.133.167.433a.5.5,0,0,0,.2-.233c-.2-.367-.3-.533-.333-.533l-.067.033c0-.033,0-.033-.033-.033-.067.033-.133.233-.233.633l.067.233Zm4.467-.3a.548.548,0,0,1,.267-.5A.521.521,0,0,1,226.55,12.726Zm-4.133.833h-.033v-.133h.067Zm-.033.233h-.133v-.067h.2C222.45,13.793,222.45,13.793,222.383,13.793Zm-.733,1.033c.233,0,.367-.2.367-.533,0-.033-.067-.067-.167-.1-.233,0-.333.133-.333.433Zm-.4.433c.033,0,.133-.233.233-.733h-.067c-.167.133-.267.233-.267.4A1.086,1.086,0,0,0,221.25,15.26Zm-.467,2.067.067-.033-.033-.433.133-.833c-.133,0-.267.433-.4,1.267l.067.033Zm-2.3,5.167q-.05,0-.1-.2h.1Zm1.9.133c-.033-.033-.067-.033-.167-.033a2.041,2.041,0,0,1,.167-.2Zm-.567.1h-.067v-.167h.033Zm.433,1.733a1.855,1.855,0,0,1-.433-.367,4.656,4.656,0,0,1,.467-1.133q.15.05.2.3c0,.267-.033.533-.033.833A.793.793,0,0,1,220.25,24.459Zm-.967-.533h-.2a4.493,4.493,0,0,1,.333-.933.827.827,0,0,1,.233.6C219.65,23.759,219.517,23.893,219.284,23.926Zm-.567-.067a.072.072,0,0,1-.067-.067v-.167c.033-.167.1-.267.133-.267l.033.2A1.391,1.391,0,0,1,218.717,23.859Zm.5.767c0-.167.1-.233.267-.233A.238.238,0,0,1,219.217,24.626Zm-.8,1.033c-.067-.033-.133-.1-.133-.133l.133-.2a1.152,1.152,0,0,0-.1-.4.532.532,0,0,1,.1-.267c.167.1.233.2.233.3A1.817,1.817,0,0,1,218.417,25.659Zm1.267,4.433h-.033c-.133-.733-.2-1.1-.2-1.133-.1-.767-.133-1.167-.2-1.167a.36.36,0,0,0-.233.1h-.1a3.024,3.024,0,0,0,.3-.767q.2,0,.5-1.7l-.033-.233c0-.3.2-.433.567-.433.067,0,.067.133.067.433l-.333,2.533a2.067,2.067,0,0,1-.367.1v.067l.267.533Zm-.367-5c0-.067-.033-.1-.067-.1l.067-.2c.033,0,.067.067.133.2Zm.5.4a.072.072,0,0,0,.067-.067c0-.067-.033-.067-.067-.1h-.033v.1Zm-.733,1.4h-.033c0-.167-.1-.3-.3-.467a.461.461,0,0,0,.3-.167c.033-.5.1-.767.267-.767A3.86,3.86,0,0,1,219.084,26.893Zm10.866,1.267-.133-.067a10.657,10.657,0,0,1,.867-1c.533-.767.9-1.167,1.167-1.233a1.37,1.37,0,0,1-.233.4A23.12,23.12,0,0,0,229.95,28.159Zm-11.666-.867h-.133l.1-1.4.2.533Zm-.267.467v-.167h.033c0,.067,0,.1.033.133Zm.867.567h-.133l.033-.067c.033,0,.067.033.1.033ZM267.069,8.593l-.1.033c-.567.3-.833.6-.833.8a6.537,6.537,0,0,0-.533.7c-.067.533-.1.8-.167.8a5.741,5.741,0,0,1-.533,1.567v.133l.033.067c-.033,0-.067.1-.1.367-.233.133-.333.267-.333.3a.5.5,0,0,0,.067.3l-.267.367v.133l.033.067c.133-.033.233-.067.233-.167h.033v.1a4.972,4.972,0,0,1-.833,1.7c-.1.367-.2.533-.3.533a5.356,5.356,0,0,1-.633,1.033c-.167.533-.3.767-.367.8a3.246,3.246,0,0,0-.333.5,1.278,1.278,0,0,1-.267.567,7.991,7.991,0,0,1-.867,1.3,3,3,0,0,1-.667,1.033,4.011,4.011,0,0,1-.733,1.167c-.267.433-.5.667-.6.667a.539.539,0,0,1,.133-.333v-.167a.628.628,0,0,1-.3.133,2.048,2.048,0,0,0-.433.6.515.515,0,0,0,.1.2.96.96,0,0,0,.433-.3h.033v.067a3.3,3.3,0,0,1-.433.633h-.067v-.233a.072.072,0,0,0-.067-.067h-.033l-.1.067v-.067h-.033c-.233.333-.467.633-.7.933,0,.267-.967,1.4-2.933,3.4-1.467,1.7-2.533,2.533-3.267,2.533H251.3a.567.567,0,0,1-.233-.033c-.5-.233-.733-.933-.733-2.133v-.3a30.92,30.92,0,0,1,.567-4.9,38.463,38.463,0,0,1,1.567-5.566,50.018,50.018,0,0,1,2.133-5.633,7.2,7.2,0,0,0,.733-2.1V10.16a1.231,1.231,0,0,0-.067-.433,1.842,1.842,0,0,0-1.633-1.1,3.68,3.68,0,0,0-2.033.567c-.133,0-.433.567-.867,1.7l-1.1,2.6c-.267,1.067-.5,2.067-.767,2.967-1.7,4.967-2.533,8.6-2.533,10.933v.3c0,.267,0,.4.033.4a5.679,5.679,0,0,0,1.8,3.5,5.8,5.8,0,0,0,3.8,1.633h.1a2.921,2.921,0,0,0,1.6-.7,4.1,4.1,0,0,0,1.467-.933,24.681,24.681,0,0,0,3.2-3.567v-.067a7.227,7.227,0,0,0-.967.967,6.458,6.458,0,0,0-1.067,1c0,.233-.367.367-1.067.4v-.033a6.816,6.816,0,0,0,1.067-.833,24.387,24.387,0,0,0,2.667-2.8,54.768,54.768,0,0,0,3.833-5.6h.033v.033a5.469,5.469,0,0,0-.333,2.167,5.753,5.753,0,0,0,.533,2.533,4.7,4.7,0,0,0,4.6,2.667h.033a9.576,9.576,0,0,0,5.066-1.567c.5-.433.733-.7.733-.8A6.072,6.072,0,0,0,275,24.426c0-.033,0-.067-.067-.067a1.5,1.5,0,0,0-.3-.567c.033-.167.067-.233.067-.267a.072.072,0,0,0-.067-.067.6.6,0,0,0-.3.133,2.976,2.976,0,0,1-.833.867l-.067-.033.033-.133c.333-.267.5-.5.5-.667v-.067H273.9a.622.622,0,0,0-.333.167,10.891,10.891,0,0,1-1.8,1.467c-.067.133-.2.167-.433.167q0,.15-.6.4c-.6.067-.9.167-.9.233l.1.167c0,.033-.133.133-.433.3a5.012,5.012,0,0,1-1.567-.233,2.515,2.515,0,0,1-1.633-2.6v-.367a5.421,5.421,0,0,1,.4-1.933.923.923,0,0,1-.033-.267,20.2,20.2,0,0,0,.6-2.4c.8-2.467,1.2-3.733,1.2-3.767a11.877,11.877,0,0,0,.7-2.533v-.033L269,10.96v-.333a1.033,1.033,0,0,1,.167-.367c0-.033,0-.067-.067-.133l-.1.067h-.067c-.333-.467-.567-.733-.7-.733-.133.133-.2.2-.233.2s-.067-.067-.133-.233l.067-.1c-.1-.333-.167-.5-.267-.5h-.033c-.2.033-.333.067-.367.067h-.033A.652.652,0,0,0,267.069,8.593Zm.9,1.767c0-.033.067-.1.233-.167l.067.033c0,.033-.1.1-.267.133Zm-.367,2.767h.133c.033,0,.067,0,.067.033v.133l-.033.2a1.077,1.077,0,0,1-.333.733v.167l.167.167-.3.2c0,.033.033.067.033.133-.067.233-.133.333-.2.333a4.361,4.361,0,0,1-.3.933,6.17,6.17,0,0,0-.367,1.267v.067l.033.067a.258.258,0,0,0,.1-.033h.033v.167a2.912,2.912,0,0,1-.167.433c-.067,0-.067-.067-.067-.167h-.1a2.552,2.552,0,0,1-.167.533,1.522,1.522,0,0,1-.167.5v.067c0,.067.033.067.067.067l.1-.067c.033-.367.1-.533.233-.533a.258.258,0,0,0,.033.1c-.033.1-.067.167-.1.167-.067.367-.333,1.433-.833,3.167l-.133-.133a1.645,1.645,0,0,0,.1-.5l-.067-.1h-.033a10.494,10.494,0,0,0-.367,1.567c0,.033,0,.067.067.067s.167-.233.233-.633v-.1h.067v.267a1.513,1.513,0,0,1-.133.6.255.255,0,0,1-.167-.067H265l-.133.067a1.906,1.906,0,0,1-.333,1.133c.067.467.133.767.133.833a1.456,1.456,0,0,1-.233.7l-.067-.033a1.794,1.794,0,0,0-.3-.867.215.215,0,0,0-.167.067,4.539,4.539,0,0,0,.033.533c-.2,0-.3-.2-.3-.567a2.291,2.291,0,0,0,.1-.833,1.723,1.723,0,0,0-.1-.167,1.44,1.44,0,0,0,.133-.467c0-.133-.033-.233-.1-.233a5,5,0,0,0-.3,1.533l.033.167-.067.2H263.3c0-.033,0-.067-.067-.133a2.729,2.729,0,0,0,.033-.467,2.057,2.057,0,0,0-.067-.6,2.906,2.906,0,0,0,.067-.667.79.79,0,0,0-.1-.5v-.033a.618.618,0,0,0,.233-.067,1.875,1.875,0,0,1,.233-.767l-.1-.133-.067.033c-.033.233-.067.367-.133.367H263.2a.937.937,0,0,0-.033-.267.894.894,0,0,1,.267-.533h.033c0,.067.033.1.067.1a.6.6,0,0,0,.233-.5,8.6,8.6,0,0,0,.333-1.1,5.318,5.318,0,0,0,.4-1.033l.433-.567v.033l-.167.867v.033c0,.067,0,.067.067.067h.033l.067-.033-.033-.133c0-.067,0-.067.067-.067H265l.167.033q.3-.1.3-.3a2.167,2.167,0,0,0,.3-.867,2.6,2.6,0,0,0,.3-.7l-.033-.033a4.177,4.177,0,0,0,.3-.9,2.786,2.786,0,0,0,.333-1.033c0-.1.133-.233.4-.467v-.033c0-.067,0-.1-.033-.133Zm-1.4.367.067.033c-.067.333-.133.5-.167.5a1.682,1.682,0,0,1-.167.633.26.26,0,0,1-.133-.133c.067,0,.133-.2.2-.567A1.255,1.255,0,0,0,266.2,13.493Zm-14.1.9a.072.072,0,0,1,.067.067H252.1Zm11.866.2q-.1.05-.1.1v.033q.05.1.1.1h.067q.1-.05.1-.1C264.135,14.66,264.069,14.626,263.969,14.593Zm.9,2.967.267-1c.2-.167.267-.5.267-1.033.167-.5.3-.767.4-.767v.1l-.067.233v.233a.649.649,0,0,1-.033.267c-.2.5-.333.9-.467,1.267-.033.3-.1.433-.167.433v.167c0,.233-.067.333-.1.333H264.9l-.033-.167Zm-1.433-2.1a.406.406,0,0,1-.2.333v.033c.067.1.1.133.133.133a.552.552,0,0,0,.167-.433V15.46Zm-11.833.067.067.033c-.067.233-.167.367-.233.367A.552.552,0,0,1,251.6,15.526Zm11.6.633h-.067c-.067.2-.167.433-.267.667,0,.033.033.067.033.1h.1l.033-.2c.167-.167.267-.3.267-.4V16.26Q263.252,16.16,263.2,16.16Zm3.8.133h.033v.067H267ZM254.8,30.159v-.033c.267-.3.567-.633.867-1.033a8.714,8.714,0,0,1,1.033-1.467,2.764,2.764,0,0,1,.533-.733,6.455,6.455,0,0,1,1-1.267,2.235,2.235,0,0,1,.867-1.367,17.863,17.863,0,0,1,1.433-2.167c.367-.7.567-1.067.567-1.067a8.818,8.818,0,0,1,.7-1.133c.3-.633.5-.967.6-.967.267-.567.533-1,.7-1.3a5.988,5.988,0,0,1,.867-1.3,23.572,23.572,0,0,1-.5,2.5,13.345,13.345,0,0,0-1.433,2.233,18.394,18.394,0,0,1-2.567,4.333,22.646,22.646,0,0,1-4.633,4.767Zm-3.633-13.766h.033a1.071,1.071,0,0,0,.033.267c-.233.767-.367,1.167-.433,1.167-.067.4-.133.6-.167.6V18.36h-.1v.133a.122.122,0,0,1,.1.033.587.587,0,0,0-.033.2,3.7,3.7,0,0,0-.3.767,6.448,6.448,0,0,0-.467,1.533,5.218,5.218,0,0,0-.5,1.733,4.688,4.688,0,0,0-.367,1.567,5.7,5.7,0,0,0-.267,1.433h-.067a1.222,1.222,0,0,1,.067-.533c-.033-.033-.033-.067-.033-.133v-.533l.1-.333v-.233a.922.922,0,0,1,.033-.3,3.307,3.307,0,0,0,.267-.9l.233-1.1a1.026,1.026,0,0,1,.333-.667v-.1a3.67,3.67,0,0,1,.067-.6,1.961,1.961,0,0,0,.333-.833v-.2a.535.535,0,0,0,.167-.367c.2-.7.367-1.067.467-1.067A3.058,3.058,0,0,1,251.169,16.393Zm11.433.933c-.1.067-.133.1-.133.133v.033q.05.1.1.1h.067c.033,0,.067,0,.067-.067v-.133c0-.033-.033-.033-.067-.067Zm2.633,1.7h-.167c-.133.4-.2.567-.233.567,0-.167-.033-.267-.067-.267H264.7c-.067,0-.1.1-.133.267a.122.122,0,0,0,.1.033c.033,0,.1.1.233.333-.1.3-.167.467-.233.467h-.033l-.133-.1c.067-.267.133-.433.133-.5v-.1h-.067a2.191,2.191,0,0,0-.267.8l.067.1.067-.033h.167q.1.05.1.1v.033a.573.573,0,0,0-.067.267v.067h.1a6.313,6.313,0,0,0,.533-2Zm-3.933.433c-.033,0-.033.033-.067.067l.033.067.1-.067C261.369,19.493,261.369,19.459,261.3,19.459Zm4.566.067c-.067,0-.133.133-.167.367.033,0,.033,0,.033.033.1-.033.167-.1.167-.133v-.2Zm12.366.1-.667.7q-.2.6-.4.6v.067c.033.167.1.233.133.233h.033c.067,0,.133-.067.167-.233a8.72,8.72,0,0,0,.8-1.267C278.3,19.659,278.268,19.626,278.235,19.626Zm-17.2.267v.1h.067v-.1Zm2.633.367.067.033-.033.167h-.067a.122.122,0,0,0-.033-.1Zm-2.8,0-.1.067a1.6,1.6,0,0,1-.333.567v.133c.1,0,.267-.2.467-.667v-.1Zm3.533.433h-.1a2.5,2.5,0,0,0-.233.667v.233h.033a1.091,1.091,0,0,0,.3-.867Zm1.1.167c-.033,0-.067.067-.133.167l.067.033a.413.413,0,0,0,.1-.067v-.133Zm-16.7.3h.033l.033.167-.3.933h-.1v-.033A2.507,2.507,0,0,1,248.8,21.159Zm28.232,0h-.067a5.33,5.33,0,0,1-1.1,1.233l-.3.167v.167h-.2a.313.313,0,0,0-.267.2.072.072,0,0,0,.067.067h.167c.033.233.067.333.1.333h.167a1.442,1.442,0,0,1,.467-.667.423.423,0,0,1,.433-.333c.133,0,.233-.133.333-.433l.367-.333A.809.809,0,0,0,277.035,21.159Zm-12.466.1a.072.072,0,0,0-.067.067v.067l.067.1v.067c-.2.033-.3.267-.3.667q0,.05-.2.1l-.133-.1H263.9a.3.3,0,0,0-.167.267.072.072,0,0,0,.067.067h.067l.1-.067c.1,0,.267.1.433.367h.033q.1-.05.1-.1v-.133c0-.1-.033-.2-.033-.3,0-.033.033-.1.033-.133a.562.562,0,0,0-.067-.167c.1,0,.167-.233.167-.7C264.635,21.293,264.6,21.293,264.569,21.259Zm-4.333.033a.716.716,0,0,0-.3.433,2.8,2.8,0,0,0-.6.9l.033.067a4.5,4.5,0,0,0,.933-1.267v-.067C260.3,21.326,260.269,21.326,260.236,21.293Zm15.766.1-.067.033.033.067.067-.033Zm-.2.267v.033l.033.067a.072.072,0,0,0,.067-.067v-.033Zm-11.7.2c-.1.033-.167.067-.167.1a.072.072,0,0,0,.067.067h.133v-.1Zm-15.766.733c0-.133.033-.2.133-.233h.033v.133a.461.461,0,0,1-.167.3Zm15.4.033v.033l.033.067.067-.033a.072.072,0,0,0-.067-.067Zm1.267.733a.26.26,0,0,1,.1-.233v.133l-.033.167C265,23.426,265,23.426,265,23.359Zm9.833-.267c-.033,0-.067.067-.1.133a.122.122,0,0,0,.033.1c.1-.067.133-.133.133-.167s0-.033-.033-.067Zm-10.666.067q-.1.05-.1.1v.233a5.13,5.13,0,0,0-.1.533c0,.033.033.067.067.133a.756.756,0,0,0,.267-.633v-.267q-.05-.1-.1-.1Zm-2.6.067-.067.033a2.256,2.256,0,0,1-.4.633.411.411,0,0,0,.067.1h.033a2.433,2.433,0,0,1,.4-.633v-.067Zm13.6.233c-.033,0-.033.033-.067.067v.033c0,.067.033.067.067.067.067,0,.067,0,.067-.067v-.033C275.235,23.493,275.235,23.459,275.168,23.459Zm-1.133.8c.2-.233.333-.367.433-.367.067.1.133.167.133.2-.033,0-.067.033-.067.133,0,.033.067.067.267.133v.133c0,.033-.133.133-.333.367H274.2c0-.067,0-.1.033-.133.133-.1.233-.167.233-.167v-.2l-.033-.067-.333.1a.072.072,0,0,1-.067-.067Zm-9.9-.033c-.067,0-.133.1-.167.3v.033a.072.072,0,0,0,.067.067h.033c.033,0,.067-.133.1-.367C264.135,24.259,264.135,24.259,264.135,24.226Zm-16.233.067h.067l.067.233a2.7,2.7,0,0,1-.167.467h-.033v-.033C247.836,24.826,247.869,24.593,247.9,24.293Zm10,.767v-.067a1.954,1.954,0,0,1,.467-.633h.033A1.117,1.117,0,0,1,257.9,25.059Zm15.133-.367h.1c0,.033-.033.067-.033.1h-.067Zm-25.233.467q.1.05.1.1c0,.133-.033.2-.133.233A1.028,1.028,0,0,0,247.8,25.159Zm9.833.033h.133a.8.8,0,0,1-.267.533h-.033v-.1A.476.476,0,0,0,257.636,25.193Zm2.6.033c-.033,0-.067.067-.133.2,0,.067.033.067.067.067.1-.033.133-.1.133-.133v-.067C260.3,25.259,260.269,25.259,260.236,25.226Zm-12.5.333h.033l.067.333a2.107,2.107,0,0,1-.133.433h-.033l-.033-.167v-.1A1.645,1.645,0,0,1,247.736,25.559Zm16.233.167a.122.122,0,0,0,.1-.033c0,.067,0,.1.033.133-.033,0-.033.033-.033.1H264l-.033-.167Zm-4.067-.033v.067h.067v-.067Zm5.366.067c.067,0,.1.1.1.333a1.693,1.693,0,0,1,.3.833c-.2,0-.333-.333-.4-1.067Zm-8.066.233a.225.225,0,0,1,.133-.2h.033v.1c0,.033-.033.067-.167.133Zm13.5.567c.033-.133.3-.267.767-.4a1.833,1.833,0,0,1,.633-.233h.033v.1c-.033,0-.133.033-.267.067a4.771,4.771,0,0,1-1.033.533.252.252,0,0,0-.133-.033Zm-6.6-.533c.1,0,.267.133.5.433v.133q-.05.1-.1.1h-.1q-.1-.05-.3-.6Zm-4.633.3-.1.067a.072.072,0,0,0,.067.067h.033c.067,0,.067-.033.067-.067S259.536,26.326,259.469,26.326Zm12.766.1h.1v.033h-.1Zm-.267.133h.067v.033h-.067Zm-12.866.367a1.657,1.657,0,0,0-.533.633c.2,0,.367-.2.567-.633Zm-11.533.167c0-.033.033-.033.067-.067h.033v.067Zm18.2-.033h.067a.252.252,0,0,0,.067.133v.033l-.133-.033Zm-.667.033q.1.05.1.1a.146.146,0,0,1-.1.033h-.033v-.067ZM305.654,7.96h-.2c-2.2,0-4.667,1.1-7.466,3.233a45.727,45.727,0,0,0-4.4,4.067,23.717,23.717,0,0,0-2.567,3.6c-.3.5-.867,1.767-1.733,3.733a13.537,13.537,0,0,0-.6,3.033,6.428,6.428,0,0,0,2.133,4.6,10.1,10.1,0,0,0,6.8,2.667h.567a18.536,18.536,0,0,0,2.467-.233c1.833-.267,3.967-1.367,6.433-3.267a8.743,8.743,0,0,1,1.7-1.467,7.54,7.54,0,0,0,1.567-1.5.033.033,0,0,1-.033-.033c-.267.133-.8.5-1.633,1.067a20.511,20.511,0,0,1-2.9,2.067,3.459,3.459,0,0,1-1.6.867,1.9,1.9,0,0,1,.533-.467,7.851,7.851,0,0,0,1.667-1.067,7.426,7.426,0,0,0,1.333-.833c.633-.333.967-.567.967-.7.667-.6,1.267-1.133,1.833-1.567.3-.333.5-.533.567-.533h.033l-.667,1.033a.694.694,0,0,0,.433-.233,14.469,14.469,0,0,0,2.033-2.133,7.061,7.061,0,0,0,1.433-2.2,2.747,2.747,0,0,0,.467-.9v-.1a.474.474,0,0,0-.067-.2v-.1a3.851,3.851,0,0,0,.567-1.567.423.423,0,0,0-.033-.2c-.233,0-.533.367-.967,1.133-.333.567-1,1.5-1.933,2.8v.067l.067.1v.033a2.623,2.623,0,0,1-.733.833v.2h.2c.1,0,.133-.133.133-.367.1.067.133.1.133.133v.1c0,.167-.167.367-.567.6a1.985,1.985,0,0,0-.3-.6h-.033a2.793,2.793,0,0,0-.933.967c.033,0,.033,0,.033.033h.033c.533-.5.833-.767.933-.767a2.658,2.658,0,0,0,.133.533,1.09,1.09,0,0,0-.5.767h-.433c0-.067-.067-.133-.2-.133h-.033l-.3.2c-.2,0-.267.1-.3.3,0,.067-.067.167-.267.3v.067c.1.1.133.167.133.2a5.906,5.906,0,0,1-.567.333.4.4,0,0,0-.267-.133h-.033a2.956,2.956,0,0,0,.033.433s-.167.033-.533.1v.233a7.049,7.049,0,0,0-1.033.8,7.842,7.842,0,0,0-1.767.867l.033-.167h-.267a4.417,4.417,0,0,1-.8.3v.2h-.2a3.66,3.66,0,0,1-.933.433,2.171,2.171,0,0,0-1.367.6h-.1a5.311,5.311,0,0,0-1.7.5,5.018,5.018,0,0,1-2.133.533,6.585,6.585,0,0,1-2.233-.4,4.485,4.485,0,0,1-2.9-4.567v-.1a10.108,10.108,0,0,1,1.333-4.667h.033c0,.533.133.867.433,1.033a1.315,1.315,0,0,0,.533.7,6.893,6.893,0,0,0,2.4.667c1.9,0,4.567-1.4,8-4.167,3.5-3.1,5.233-5.733,5.233-7.833a2.827,2.827,0,0,0-1.1-2.167,7.181,7.181,0,0,1-1.367-.933C308.087,8.226,307.188,7.96,305.654,7.96Zm-9.766,10.7a22.975,22.975,0,0,1,2.9-3.233,28.374,28.374,0,0,1,4.433-3.333,13.579,13.579,0,0,1,4.267-1.7h.367q.6,0,.6.5c0,.533-.533,1.333-1.567,2.3-2.033,2.033-4.067,3.933-6.066,5.7a24.336,24.336,0,0,1-2.933,2.167,1.613,1.613,0,0,1-1.133.433h-.033a1.326,1.326,0,0,1-1.067-.467c-.3-.633-.467-.967-.467-.967a3.5,3.5,0,0,1,.733-1.3A.123.123,0,0,0,295.888,18.66Zm13-8.133h.133c.067.4.1.667.1.733a3.319,3.319,0,0,1-1,1.967c-2.467,2.433-3.867,3.667-4.167,3.733h-.067a2.105,2.105,0,0,1,.5-.4,14.805,14.805,0,0,0,3-2.933q1.6-1.75,1.6-2.3a4.356,4.356,0,0,0-.1-.767Zm-12.633,5.3c0-.133.067-.2.167-.2v.133A.562.562,0,0,0,296.255,15.826Zm-4.7,6.433a2.178,2.178,0,0,1,.4-.867,17.229,17.229,0,0,1,2.5-3.7,5.356,5.356,0,0,1,1.433-1.533h.067a1.273,1.273,0,0,1-.3.5c-2,2.567-3.133,4.067-3.367,4.467q-.45,1.2-.7,1.2h-.033Zm3.267-.767a.563.563,0,0,1,.167.067c.4.367.667.533.8.533h.133a.843.843,0,0,0,.467-.233h.167v.033a5.77,5.77,0,0,1-1,.5l-.167-.033-.133.067a1.486,1.486,0,0,1-.433-.767Zm-2.3.1h.1l.033.167v.033h-.033q-.1-.05-.1-.1Zm-1.9.367h.033v.133h-.033Zm.533,1.033c0-.167.133-.333.467-.533a1.68,1.68,0,0,1-.367.767h-.067l-.033-.167Zm.9-.433a.494.494,0,0,1,.233.033v.067c-.067.1-.133.167-.167.167,0-.1-.033-.133-.1-.133C292.021,22.626,292.055,22.593,292.055,22.559Zm-.233.4h.267a2.972,2.972,0,0,1-.3,1c-.133.067-.2.367-.2.967a19.088,19.088,0,0,0-.367,2.033v.233c.267,1.367.533,2.033.733,2.033q.1-.05.1-.1v-.033a1.522,1.522,0,0,1-.267-.733v-.3l.067.033a8.074,8.074,0,0,1,1.333,2.433v.133a.122.122,0,0,0-.1.033c-.533,0-1.133-.567-1.867-1.667a8.2,8.2,0,0,1-.467-2.533,8.167,8.167,0,0,1,.667-2.767A3.183,3.183,0,0,0,291.821,22.959Zm-2.1,1.3a2.771,2.771,0,0,1,.267-.833c.067-.267.167-.433.3-.433l.033.167v.1a2.3,2.3,0,0,1-.433,1.233C289.855,24.493,289.788,24.393,289.721,24.259Zm1.067-.4c0-.033.067-.1.233-.167l.033.167c0,.1-.067.167-.133.267-.033,0-.067-.067-.133-.167Zm-.033.4h.033c.1.033.133.1.133.233v.067l-.033.067c-.033,0-.1-.067-.2-.133Zm20.666.7c.433-.467.667-.7.733-.7v.167a1.721,1.721,0,0,0-.6.6Zm-21.833.033a.251.251,0,0,1,.167-.233c.133,0,.233.133.233.433a1.027,1.027,0,0,1-.067.367q.05,1.25.1,1.7c0,.233.067.333.2.333a2.951,2.951,0,0,0,.367.867c-.567,0-.933-.833-1.033-2.5,0-.267.033-.567.033-.9Zm20.333.533h.233c0,.067,0,.1.033.133h-.233A.2.2,0,0,0,309.921,25.526Zm-5,3.467a.417.417,0,0,1,.3-.167h.067c0,.033-.133.067-.333.167Zm-2.033,1.133a.258.258,0,0,0,.1-.033h.033v.033a.122.122,0,0,0-.1.033h-.033Zm-5.566,1.467.167.1-.033.067-.2-.033v-.033Zm.567.167c.167-.033.267-.067.3-.067h.033c.333.033.5.1.5.167,0,0-.1.033-.233.067a1.513,1.513,0,0,1-.6-.133Zm.533.533a6.135,6.135,0,0,0,1.367-.167l.3.2c0,.067-.1.1-.333.133a6.423,6.423,0,0,0-.833-.1h-.5Z" transform="translate(0.303 20.856)" fill="#19a8d4" stroke="#19a8d4" stroke-width="0.5"/>
</svg>
